<svg width="20" height="21" viewBox="0 0 20 21" xmlns="http://www.w3.org/2000/svg" xmlns:xlink="http://www.w3.org/1999/xlink">
    <defs>
        <path d="M0 10c0 5.523 4.477 10 10 10s10-4.477 10-10S15.523 0 10 0 0 4.477 0 10z" id="a"/>
        <path d="M3.84.659c-.24.28-.458.72-.458 1.17 0 .065.01.132.016.153.027.005.07.011.112.011.378 0 .852-.263 1.135-.615A2 2 0 0 0 5.087.171.844.844 0 0 0 5.07 0c-.421.017-.927.291-1.23.659zm-.373 1.823c-.351 0-.815-.373-1.363-.373C1.06 2.109 0 2.998 0 4.678c0 1.043.394 2.147.879 2.86.415.604.777 1.099 1.3 1.099.516 0 .745-.358 1.39-.358.655 0 .799.346 1.374.346.564 0 .942-.537 1.3-1.065.4-.603.564-1.196.575-1.224-.038-.011-1.119-.467-1.119-1.746 0-1.109.853-1.609.9-1.647-.564-.834-1.422-.857-1.656-.857-.634 0-1.15.396-1.476.396z" id="c"/>
    </defs>
    <g fill="none" fill-rule="evenodd">
        <g transform="translate(0 .5)">
            <mask id="b" fill="#fff">
                <use xlink:href="#a"/>
            </mask>
            <path fill="#000" mask="url(#b)" d="M-.454 20.454h20.908V-.454H-.454z"/>
        </g>
        <g transform="translate(6.591 5.045)">
            <mask id="d" fill="#fff">
                <use xlink:href="#c"/>
            </mask>
            <path fill="#FFF" mask="url(#d)" d="M-.455 9.091h7.727V-.454H-.455z"/>
        </g>
    </g>
</svg>
