<svg width="21" height="21" viewBox="0 0 21 21" xmlns="http://www.w3.org/2000/svg" xmlns:xlink="http://www.w3.org/1999/xlink">
    <defs>
        <path id="xsjwcu47ma" d="M0 0h8.768v4.448H0z"/>
    </defs>
    <g fill="none" fill-rule="evenodd">
        <path d="M.5 10.5c0-5.523 4.477-10 10-10s10 4.477 10 10-4.477 10-10 10-10-4.477-10-10z" stroke="#9A9A9A" fill="#FFF"/>
        <path d="M16 10.627c0-.374-.032-.75-.098-1.118H10.61v2.118h3.03a2.54 2.54 0 0 1-1.121 1.671v1.374h1.808c1.062-.958 1.672-2.372 1.672-4.045" fill="#4285F4"/>
        <path d="M10.61 16c1.514 0 2.79-.487 3.72-1.328L12.522 13.3c-.503.335-1.152.524-1.91.524-1.463 0-2.704-.968-3.15-2.269H5.598v1.417C6.549 14.828 8.489 16 10.61 16" fill="#34A853"/>
        <path d="M7.46 11.554a3.234 3.234 0 0 1 0-2.106V8.032H5.598a5.41 5.41 0 0 0 0 4.939l1.864-1.417z" fill="#FBBC04"/>
        <g transform="translate(5.597 5)">
            <mask id="5eichax4db" fill="#fff">
                <use xlink:href="#xsjwcu47ma"/>
            </mask>
            <path d="M5.014 2.177c.8-.012 1.573.283 2.152.824l1.602-1.57A5.456 5.456 0 0 0 5.014.001C2.892 0 .952 1.171 0 3.03l1.864 1.417c.443-1.303 1.686-2.271 3.15-2.271" fill="#EA4335" mask="url(#5eichax4db)"/>
        </g>
    </g>
</svg>
