<svg width="41" height="40" xmlns="http://www.w3.org/2000/svg">
    <g fill="none" fill-rule="evenodd">
        <ellipse stroke="#E1E1E1" stroke-width="1.4" fill="#FFF" cx="20.019" cy="20" rx="19.319" ry="19.3"/>
        <path d="M27.968 18.147a.647.647 0 0 0-.52-.442l-4.746-.696-2.122-4.314a.646.646 0 0 0-1.16 0l-2.122 4.314-4.745.696a.647.647 0 0 0-.358 1.107l3.434 3.355-.81 4.741a.65.65 0 0 0 .257.635.645.645 0 0 0 .68.05L20 25.352l4.244 2.24a.644.644 0 0 0 .68-.05.65.65 0 0 0 .258-.635l-.81-4.74 3.433-3.356a.65.65 0 0 0 .163-.665zm-4.742 3.33a.65.65 0 0 0-.186.574l.646 3.781-3.385-1.786a.644.644 0 0 0-.602 0l-3.385 1.786.646-3.782a.65.65 0 0 0-.186-.574l-2.74-2.677 3.787-.556a.647.647 0 0 0 .486-.354L20 14.447l1.693 3.442a.646.646 0 0 0 .486.354l3.786.556-2.74 2.677z" fill="#000" fill-rule="nonzero"/>
    </g>
</svg>
