<svg width="14" height="14" xmlns="http://www.w3.org/2000/svg">
    <g fill="#333" fill-rule="evenodd">
        <path d="M10.316 2.21v-.736C10.316.66 9.656 0 8.842 0h-4.42c-.815 0-1.475.66-1.475 1.474v.737H.737a.737.737 0 0 0 0 1.473h.737v8.105c0 1.221.99 2.211 2.21 2.211H9.58c1.22 0 2.21-.99 2.21-2.21V3.683h.737a.737.737 0 1 0 0-1.473h-2.21zm-1.474-.736h-4.42v.737h4.42v-.737zm1.474 2.21H2.947v8.105c0 .407.33.737.737.737H9.58c.407 0 .737-.33.737-.737V3.684z"/>
        <path fill-rule="nonzero" d="M4.421 5.158h1.474v5.895H4.42zM7.368 5.158h1.474v5.895H7.368z"/>
    </g>
</svg>
