<svg width="12" height="9" xmlns="http://www.w3.org/2000/svg">
    <path d="M5.053 4.116a.377.377 0 0 1 .002.537L1.48 8.271a.372.372 0 0 1-.537.001.394.394 0 0 1 .001-.545l3.012-3.04.28-.301-.278-.3-3.015-3.05a.387.387 0 0 1 0-.537.372.372 0 0 1 .536 0l3.575 3.617zm6 0a.377.377 0 0 1 .002.537L7.48 8.271a.372.372 0 0 1-.537.001.394.394 0 0 1 .001-.545l3.012-3.04.28-.301-.278-.3-3.015-3.05a.387.387 0 0 1 0-.537.372.372 0 0 1 .536 0l3.575 3.617z" fill="#D8D8D8" fill-rule="nonzero" stroke="#D7D9D8"/>
</svg>
