<svg width="16" height="16" xmlns="http://www.w3.org/2000/svg">
    <path d="M7.654.333c1.078 0 2.124.224 3.11.664a.648.648 0 0 1-.527 1.183 6.306 6.306 0 0 0-2.583-.551 6.31 6.31 0 0 0-4.497 1.863 6.337 6.337 0 0 0-1.864 4.504C1.29 11.51 4.14 14.37 7.646 14.371a6.31 6.31 0 0 0 4.496-1.863 6.336 6.336 0 0 0 1.865-4.504V7.35a.647.647 0 1 1 1.293 0v.653a7.625 7.625 0 0 1-2.244 5.42 7.592 7.592 0 0 1-5.406 2.243 7.594 7.594 0 0 1-5.413-2.249A7.625 7.625 0 0 1 0 7.996a7.625 7.625 0 0 1 2.244-5.42A7.592 7.592 0 0 1 7.65.333zm7.243.896a.645.645 0 0 1 .914 0 .649.649 0 0 1 0 .916l-7.704 7.72a.644.644 0 0 1-.914 0L5.092 7.76a.649.649 0 0 1 0-.916.645.645 0 0 1 .914 0L7.65 8.492z" fill="#333" fill-rule="nonzero"/>
</svg>
