<svg width="12" height="9" xmlns="http://www.w3.org/2000/svg">
    <path d="M6.947 4.116a.377.377 0 0 0-.002.537l3.576 3.618a.372.372 0 0 0 .537.001.394.394 0 0 0-.001-.545l-3.012-3.04-.28-.301.278-.3 3.015-3.05a.387.387 0 0 0 0-.537.372.372 0 0 0-.536 0L6.947 4.117zm-6 0a.377.377 0 0 0-.002.537L4.52 8.271a.372.372 0 0 0 .537.001.394.394 0 0 0-.001-.545l-3.012-3.04-.28-.301.278-.3 3.015-3.05a.387.387 0 0 0 0-.537.372.372 0 0 0-.536 0L.947 4.117z" fill="#D8D8D8" fill-rule="nonzero" stroke="#D7D9D8"/>
</svg>
