<svg width="40" height="40" xmlns="http://www.w3.org/2000/svg">
    <g fill="none" fill-rule="evenodd">
        <circle fill="#F2D610" cx="20" cy="20" r="20"/>
        <path d="M24.498 10h-8.467C15.46 10 15 10.459 15 11.024v8.4c0 .565.46 1.023 1.03 1.023h3.905c-.028.997-.445 2.083-1.048 3.048-.682 1.088-2.132 2.29-2.144 2.3-.115.11-.198.234-.2.41 0 .136.069.237.145.345l2.723 3.056s.133.14.244.163c.123.033.26.033.36-.042 4.712-3.623 5.394-8.17 5.512-10.629v-8.074c0-.565-.46-1.024-1.029-1.024" fill="#FEFEFE"/>
    </g>
</svg>
