<svg width="21" height="20" viewBox="0 0 21 20" xmlns="http://www.w3.org/2000/svg">
    <g fill="none" fill-rule="evenodd">
        <path d="M.5 10c0-5.523 4.477-10 10-10s10 4.477 10 10-4.477 10-10 10-10-4.477-10-10z" fill="#FAE300"/>
        <path d="M10.5 3.75c-3.797 0-6.875 2.408-6.875 5.378 0 1.934 1.304 3.628 3.261 4.576-.143.531-.52 1.925-.596 2.223-.093.37.137.365.288.265.118-.078 1.884-1.265 2.646-1.778.413.06.84.093 1.276.093 3.797 0 6.875-2.409 6.875-5.379 0-2.97-3.078-5.378-6.875-5.378" fill="#391B1B"/>
    </g>
</svg>
