<svg width="40" height="40" xmlns="http://www.w3.org/2000/svg">
    <g fill="none" fill-rule="evenodd">
        <circle fill="#2BA8DF" cx="20" cy="20" r="20"/>
        <path d="M30.16 13.954a8.266 8.266 0 0 1-2.376.658 4.189 4.189 0 0 0 1.819-2.306 8.307 8.307 0 0 1-2.626 1.01A4.117 4.117 0 0 0 23.96 12c-2.287 0-4.138 1.865-4.138 4.167 0 .33.036.646.106.952-3.438-.174-6.484-1.835-8.526-4.354a4.169 4.169 0 0 0-.559 2.093c0 1.447.73 2.721 1.84 3.47a4.117 4.117 0 0 1-1.873-.522v.053a4.166 4.166 0 0 0 3.318 4.087 4.233 4.233 0 0 1-1.088.144c-.271 0-.527-.025-.781-.073a4.146 4.146 0 0 0 3.866 2.894 8.268 8.268 0 0 1-5.14 1.782c-.33 0-.663-.018-.985-.056a11.639 11.639 0 0 0 6.34 1.872c7.608 0 11.766-6.35 11.766-11.858 0-.178-.003-.36-.012-.539a8.502 8.502 0 0 0 2.067-2.158" fill="#FEFEFE"/>
    </g>
</svg>
