<?xml version="1.0" encoding="utf-8"?>
<!-- Generator: Adobe Illustrator 17.0.0, SVG Export Plug-In . SVG Version: 6.00 Build 0)  -->
<!DOCTYPE svg PUBLIC "-//W3C//DTD SVG 1.1//EN" "http://www.w3.org/Graphics/SVG/1.1/DTD/svg11.dtd">
<svg version="1.1" id="Layer_1" xmlns="http://www.w3.org/2000/svg" xmlns:xlink="http://www.w3.org/1999/xlink" x="0px" y="0px"
	 width="30px" height="30px" viewBox="0 0 30 30" enable-background="new 0 0 30 30" xml:space="preserve">
<path fill="#FFFFFF" d="M6.742,13.871l7.673-7.673c0.164-0.164,0.385-0.256,0.617-0.256c0.231,0,0.453,0.092,0.617,0.256
	l7.672,7.673c0.341,0.341,0.341,0.893,0,1.234c-0.341,0.341-0.893,0.341-1.234,0l-6.21-6.211v15.054
	c0,0.482-0.391,0.872-0.872,0.872c-0.482,0-0.872-0.391-0.872-0.872V8.949l-6.156,6.156c-0.341,0.341-0.893,0.341-1.234,0
	S6.402,14.212,6.742,13.871z"/>
</svg>
