<?xml version="1.0" encoding="utf-8"?>
<svg width="40" height="40" xmlns="http://www.w3.org/2000/svg" xmlns:svg="http://www.w3.org/2000/svg">
<g>
	<path fill="#000000" d="M13.294,18.238l-0.208-0.18c-0.45,0.144-0.919,0.218-1.391,0.218c-0.798,0-1.538-0.22-2.195-0.574v11.382h3.794V18.238z
		M19.058,24.904c-1.687-0.081-3.129-1.063-3.881-2.474v6.653h3.881V24.904z
		M28.297,21.01c-0.557,0-1.098-0.112-1.609-0.303v8.377H30.5v-8.652C29.841,20.788,29.098,21.01,28.297,21.01z
		M24.804,20.477l-0.901,0.377c-0.222,1.723-1.389,3.154-2.962,3.757v4.472h3.862V20.477z
		M28.297,13.184c-1.747,0-3.163,1.416-3.163,3.163c0,0.121,0.022,0.236,0.036,0.353l-3.525,1.477
		c-0.58-0.659-1.42-1.084-2.366-1.084c-0.607,0-1.168,0.179-1.65,0.476l-3.06-2.65c0.182-0.399,0.29-0.84,0.29-1.308
		c0-1.747-1.416-3.163-3.163-3.163c-1.747,0-3.163,1.416-3.163,3.163c0,1.747,1.416,3.163,3.163,3.163
		c0.607,0,1.169-0.18,1.651-0.477l3.059,2.649c-0.183,0.4-0.291,0.841-0.291,1.309c0,1.747,1.416,3.163,3.163,3.163
		c1.747,0,3.163-1.416,3.163-3.163c0-0.137-0.023-0.267-0.04-0.399l3.5-1.467c0.58,0.679,1.432,1.119,2.396,1.119
		c1.747,0,3.163-1.416,3.163-3.163C31.46,14.6,30.044,13.184,28.297,13.184z M10.336,13.612c0-0.75,0.609-1.359,1.359-1.359
		s1.359,0.609,1.359,1.359c0,0.751-0.609,1.359-1.359,1.359S10.336,14.362,10.336,13.612z M19.278,21.616
		c-0.751,0-1.359-0.608-1.359-1.359s0.609-1.359,1.359-1.359c0.75,0,1.359,0.609,1.359,1.359S20.028,21.616,19.278,21.616z
		 M28.297,17.706c-0.751,0-1.359-0.608-1.359-1.359c0-0.751,0.609-1.359,1.359-1.359s1.359,0.609,1.359,1.359
		C29.656,17.097,29.047,17.706,28.297,17.706z"/>
</g>
</svg>