<?xml version="1.0" encoding="utf-8"?>
<svg width="40" height="40" xmlns="http://www.w3.org/2000/svg" xmlns:svg="http://www.w3.org/2000/svg">
<g>
	<path fill="#555" d="M25.329,14.088l1.843-1.967L24.914,9.87l-1.958,1.841c-0.971-0.661-2.083-1.119-3.278-1.349l-0.084-2.695
		h-3.189l-0.084,2.697c-1.192,0.232-2.302,0.688-3.275,1.349l-1.965-1.841L8.83,12.123l1.836,1.967
		c-0.653,0.966-1.114,2.077-1.346,3.278l-2.695,0.084v3.187l2.695,0.084c0.232,1.192,0.693,2.302,1.346,3.278l-1.836,1.96
		l2.251,2.251l1.963-1.841c0.971,0.658,2.083,1.119,3.277,1.351l0.084,2.695h3.187l0.084-2.698c1.195-0.232,2.304-0.692,3.278-1.351
		l1.959,1.838l2.258-2.25l-1.843-1.96c0.661-0.973,1.117-2.083,1.346-3.28l2.702-0.084v-3.184l-2.7-0.084
		C26.446,16.164,25.99,15.059,25.329,14.088z M18.001,23.604c-2.514,0-4.563-2.043-4.563-4.563s2.049-4.561,4.563-4.561
		c2.518,0,4.557,2.041,4.557,4.561S20.522,23.604,18.001,23.604z"/>
</g>
</svg>