<?xml version="1.0" encoding="utf-8"?>
<svg width="40" height="40" xmlns="http://www.w3.org/2000/svg" xmlns:svg="http://www.w3.org/2000/svg">
<g>
<path fill="#555" d="M12.186,9.474l0.017,0.624l7.659,9.547l-7.744,9.213l-0.022,0.58l15.017-0.078
	c0.147-1.858,0.55-3.78,0.895-5.612l-0.488-0.122c-0.455,1.026-0.778,2.123-1.749,2.804c-1.064,0.747-2.468,0.652-3.701,0.652
	h-6.914l7.048-8.513l-6.354-7.944l3.699-0.015c2.371,0,5.745-0.573,6.683,2.277c0.16,0.487,0.272,0.993,0.312,1.505h0.529
	l-0.407-4.921H12.186L12.186,9.474L12.186,9.474L12.186,9.474L12.186,9.474z"/>
</g>
</svg>