<?xml version="1.0" encoding="utf-8"?>
<!-- Generator: Adobe Illustrator 17.0.0, SVG Export Plug-In . SVG Version: 6.00 Build 0)  -->
<!DOCTYPE svg PUBLIC "-//W3C//DTD SVG 1.1//EN" "http://www.w3.org/Graphics/SVG/1.1/DTD/svg11.dtd">
<svg version="1.1" id="Layer_1" xmlns="http://www.w3.org/2000/svg" xmlns:xlink="http://www.w3.org/1999/xlink" x="0px" y="0px"
	 width="190px" height="144px" viewBox="0 0 190 144" enable-background="new 0 0 190 144" xml:space="preserve">
<path fill="#B3EA53" d="M101.5,28.613c4.921,0,8.906-3.989,8.906-8.906s-3.989-8.906-8.906-8.906H56.167
	c-22.64,0-40.997,18.353-40.997,40.997s18.353,40.994,40.997,40.994c4.921,0,8.906-3.989,8.906-8.908s-3.989-8.906-8.906-8.906
	c-12.8,0-23.179-10.377-23.179-23.179S43.365,28.62,56.167,28.62l17.67-0.002v55.268c0,4.921,3.989,8.906,8.906,8.906
	s8.906-3.989,8.906-8.906v-55.29L101.5,28.613z"/>
<path fill="#85D855" d="M53.957,41.154c5.877,0,10.64,4.764,10.64,10.64s-4.764,10.64-10.64,10.64s-10.64-4.764-10.64-10.64
	S48.081,41.154,53.957,41.154z M112.22,81.671c0.04,0.396,0.097,0.795,0.177,1.188c0.04,0.438,0.087,0.824,0.148,1.158
	c0.058,0.336,0.09,0.586,0.09,0.742c0,0.515-0.338,0.972-1.01,1.368s-1.09,0.594-1.249,0.594c-0.634,0-1.167-0.285-1.602-0.86
	c-0.435-0.573-0.813-1.357-1.13-2.347c-0.316-0.95-0.565-2.048-0.742-3.297s-0.307-2.526-0.385-3.832
	c-0.119-1.306-0.188-2.592-0.208-3.862c-0.022-1.27-0.029-2.415-0.029-3.447s0.018-1.882,0.058-2.555s0.058-1.069,0.058-1.188
	c0-0.159-0.022-0.742-0.058-1.753c-0.042-1.01-0.058-2.21-0.058-3.595c0-1.383,0.04-2.829,0.119-4.337
	c0.077-1.505,0.238-2.833,0.475-3.98c0-0.356,0.04-0.742,0.119-1.158s0.177-0.86,0.298-1.335c0.119-0.435,0.238-0.871,0.356-1.306
	c0.119-0.435,0.237-0.831,0.356-1.188c0.079-0.04,0.217-0.079,0.415-0.119s0.435-0.079,0.716-0.119
	c0.238-0.079,0.475-0.148,0.716-0.208c0.238-0.058,0.454-0.148,0.652-0.267c0.159,0.079,0.457,0.267,0.892,0.562
	c0.435,0.298,0.652,0.683,0.652,1.158c0,0.119-0.018,0.497-0.058,1.13c-0.04,0.634-0.079,1.368-0.119,2.199
	s-0.079,1.695-0.119,2.584c-0.04,0.89-0.058,1.673-0.058,2.347c-0.04,0.752-0.079,1.624-0.119,2.614
	c-0.04,0.99-0.079,1.962-0.119,2.914c-0.04,0.948-0.069,1.803-0.09,2.555c-0.022,0.752-0.029,1.209-0.029,1.368
	c0,0.238,0.018,0.921,0.058,2.048c0.04,1.13,0.097,2.468,0.177,4.013c0.079,1.544,0.166,3.147,0.269,4.813
	c0.097,1.662,0.206,3.109,0.327,4.337C112.162,80.92,112.18,81.277,112.22,81.671z M129.988,58.024
	c-0.119,0.159-0.248,0.327-0.385,0.504s-0.288,0.367-0.446,0.565c-0.159,0.159-0.307,0.296-0.446,0.415s-0.248,0.177-0.327,0.177
	c-0.198,0-0.583-0.05-1.156-0.15c-0.575-0.097-1.178-0.206-1.814-0.325c-0.674-0.119-1.297-0.23-1.872-0.327
	c-0.575-0.097-0.939-0.15-1.098-0.15c-0.161,0-0.396,0.031-0.716,0.09c-0.32,0.058-0.654,0.113-1.012,0.155
	c-0.356,0.04-0.694,0.077-1.01,0.119c-0.316,0.04-0.554,0.058-0.713,0.058c-0.752,0-1.259-0.241-1.516-0.716
	c-0.257-0.475-0.385-1.167-0.385-2.08c0-0.512,0.248-0.968,0.742-1.368c0.497-0.393,1.043-0.713,1.634-0.95
	c0.634-0.238,1.227-0.422,1.784-0.562c0.554-0.14,0.929-0.208,1.13-0.208c1.188,0,2.167,0.069,2.937,0.208
	c0.773,0.14,1.417,0.325,1.932,0.562c0.554,0.241,1.03,0.515,1.425,0.831c0.393,0.316,0.829,0.654,1.306,1.01v2.141L129.988,58.024
	L129.988,58.024z M125.944,83.336c-0.274,0.792-0.497,1.286-0.652,1.487c-0.356,0.475-0.831,0.802-1.425,0.979
	c-0.597,0.177-0.972,0.269-1.13,0.269c-0.831,0-1.468-0.683-1.903-2.048s-0.752-2.904-0.95-4.606
	c-0.198-1.662-0.307-3.255-0.325-4.783c-0.022-1.523-0.031-2.447-0.031-2.764c0-0.238,0.022-0.731,0.058-1.487
	c0.037-0.755,0.159-1.544,0.359-2.376c0.195-0.792,0.483-1.516,0.86-2.167c0.378-0.654,0.879-0.982,1.512-0.982
	c0.277,0,0.773,0.13,1.487,0.385c0.713,0.259,1.13,0.565,1.249,0.921c0.159,0.634,0.267,1.299,0.327,1.993
	c0.058,0.694,0.087,1.375,0.087,2.048c-0.04,0.674-0.087,1.317-0.15,1.929c-0.058,0.612-0.087,1.156-0.087,1.634
	c-0.042,0.475-0.022,1.021,0.058,1.634s0.177,1.259,0.296,1.929c0.119,0.713,0.248,1.436,0.385,2.167
	c0.14,0.734,0.269,1.436,0.385,2.109C126.363,81.971,126.224,82.542,125.944,83.336z M153.549,74.81
	c0.079,0.058,0.14,0.15,0.177,0.269c0.079,0.079,0.14,0.177,0.179,0.296c0.04,0.119,0.058,0.277,0.058,0.475
	c0,0.913-0.488,1.795-1.457,2.645c-0.972,0.853-2.048,1.634-3.239,2.349c-1.23,0.713-2.397,1.306-3.505,1.781
	c-1.109,0.475-1.821,0.752-2.141,0.831c-0.198,0.079-0.435,0.159-0.713,0.238c-0.278,0.079-0.575,0.161-0.892,0.238
	c-0.277,0.079-0.557,0.14-0.831,0.177c-0.277,0.042-0.497,0.058-0.652,0.058c-1.188,0-2.318-0.345-3.387-1.04
	c-1.069-0.694-1.605-1.872-1.605-3.534l1.843-14.439c-0.795,0.079-1.565,0.198-2.318,0.356c-0.752,0.161-1.447,0.338-2.08,0.533
	c-0.634,0.161-1.188,0.309-1.663,0.446c-0.475,0.14-0.795,0.208-0.95,0.208c-0.435,0-0.813-0.248-1.13-0.742
	c-0.317-0.494-0.475-0.939-0.475-1.339c0-0.713,0.415-1.286,1.249-1.721c0.834-0.435,1.781-0.792,2.851-1.069
	c1.109-0.238,2.17-0.435,3.178-0.597c1.01-0.159,1.695-0.314,2.051-0.475c0.119-0.198,0.274-0.763,0.475-1.695
	c0.201-0.932,0.435-1.951,0.716-3.059c0.274-1.069,0.605-2.091,0.979-3.059c0.378-0.972,0.84-1.594,1.396-1.872
	c1.185-0.119,2.109,0.188,2.761,0.921c0.654,0.734,0.982,1.299,0.982,1.695c0,0.119,0,0.208,0,0.269c0,0.06,0,0.13,0,0.206
	c0,0.042,0,0.1,0,0.179s0,0.14,0,0.177c-0.119,0.159-0.288,0.396-0.504,0.712c-0.219,0.32-0.565,0.773-1.043,1.37l-0.594,4.157
	c0.512,0.198,1.188,0.338,2.022,0.415c0.829,0.079,1.662,0.219,2.495,0.417c0.829,0.198,1.584,0.475,2.254,0.829
	c0.676,0.359,1.167,0.873,1.487,1.547c-0.241,0.435-0.683,0.792-1.339,1.069c-0.652,0.274-1.001,0.415-1.04,0.415
	c-0.198,0-0.535-0.031-1.01-0.09c-0.478-0.058-0.972-0.148-1.487-0.267c-0.557-0.079-1.08-0.161-1.576-0.241
	c-0.497-0.077-0.842-0.119-1.043-0.119c-0.356,0-0.641,0.069-0.86,0.208c-0.217,0.14-0.467,0.407-0.742,0.802
	c-0.198,1.032-0.385,2.119-0.565,3.268c-0.179,1.149-0.327,2.22-0.446,3.207c-0.119,1.032-0.217,1.914-0.296,2.645
	C141.04,75.594,141,76.04,141,76.199c0,0.238,0.011,0.446,0.029,0.623c0.022,0.177,0.053,0.367,0.09,0.565
	c0,0.159,0.022,0.316,0.058,0.475c0.04,0.161,0.058,0.296,0.058,0.415c0.04,0.079,0.069,0.132,0.09,0.15
	c0.018,0.022,0.029,0.053,0.029,0.09c0.04,0.04,0.069,0.058,0.09,0.058c0.018,0,0.05,0,0.087,0c0,0.04,0.05,0.058,0.15,0.058
	c0.097,0,0.269,0,0.504,0c1.069,0.237,2.109,0.198,3.12-0.119c1.01-0.316,1.969-0.731,2.882-1.249
	c0.911-0.554,1.792-1.09,2.645-1.605c0.85-0.512,1.692-0.868,2.524-1.069C153.412,74.681,153.47,74.749,153.549,74.81z
	 M173.732,81.433c-0.435,0.277-1.249,0.615-2.437,1.01c-1.188,0.396-2.415,0.792-3.684,1.188c-1.27,0.396-2.415,0.721-3.447,0.979
	c-1.032,0.259-1.587,0.385-1.662,0.385c-0.99,0-1.982-0.09-2.972-0.269c-0.99-0.179-1.861-0.523-2.614-1.04
	c-0.792-0.515-1.425-1.198-1.901-2.048c-0.478-0.85-0.716-1.969-0.716-3.357c0-0.159,0.058-0.731,0.177-1.721
	c0.119-0.99,0.277-2.157,0.478-3.505c0.238-1.346,0.486-2.732,0.742-4.157c0.256-1.425,0.522-2.696,0.802-3.801
	c0-0.359,0.248-0.612,0.742-0.773c0.497-0.159,0.921-0.238,1.277-0.238c0.119,0,0.185,0.011,0.206,0.029
	c0.022,0.022,0.05,0.031,0.09,0.031c0,0.04,0.008,0.079,0.029,0.119c0.022,0.04,0.05,0.079,0.09,0.119
	c0.04,0,0.097,0.011,0.177,0.031c0.079,0.018,0.198,0.029,0.356,0.029c0.161,0,0.467-0.269,0.924-0.802
	c0.454-0.535,1.04-1.14,1.753-1.814c0.749-0.634,1.613-1.227,2.584-1.784c0.972-0.554,2.091-0.829,3.357-0.829
	c0.356,0,0.692,0.206,1.008,0.623c0.316,0.415,0.612,0.882,0.892,1.394c0.274,0.557,0.497,1.061,0.654,1.516
	c0.159,0.457,0.237,0.742,0.237,0.86c0,2.141-0.396,3.883-1.188,5.229c-0.795,1.346-2.04,2.437-3.743,3.266
	c-0.238,0.119-0.535,0.219-0.892,0.298s-0.752,0.14-1.188,0.177c-0.396,0.079-0.813,0.14-1.249,0.177
	c-0.435,0.037-0.853,0.097-1.249,0.177c-0.396,0.356-0.694,0.723-0.892,1.098c-0.198,0.38-0.338,0.765-0.415,1.158
	c-0.079,0.396-0.111,0.795-0.09,1.188c0.022,0.396,0.031,0.731,0.031,1.01c0,1.069,0.137,1.85,0.415,2.347
	c0.274,0.497,0.612,0.824,1.012,0.982c0.393,0.159,0.824,0.217,1.277,0.177c0.454-0.04,0.84-0.058,1.156-0.058
	c0.159,0,0.663-0.079,1.516-0.241c0.85-0.159,1.772-0.336,2.764-0.533c0.987-0.159,1.911-0.327,2.761-0.504
	c0.853-0.177,1.359-0.269,1.516-0.269s0.307,0.022,0.446,0.058c0.14,0.042,0.269,0.079,0.385,0.119
	c0.077,0.079,0.159,0.132,0.238,0.15c0.079,0.022,0.159,0.031,0.238,0.031v1.787C173.726,81.433,173.732,81.433,173.732,81.433z
	 M167.849,64.085h-1.368c-0.316,0.237-0.742,0.612-1.275,1.13c-0.535,0.515-1.061,1.069-1.576,1.663
	c-0.557,0.597-1.043,1.178-1.457,1.753c-0.415,0.575-0.645,1.001-0.683,1.277c0.119,0,0.515-0.121,1.188-0.359
	c0.673-0.239,1.386-0.554,2.141-0.95c0.792-0.433,1.494-0.929,2.109-1.487c0.612-0.554,0.921-1.149,0.921-1.781V64.085
	L167.849,64.085z"/>
<path fill="#B3EA53" d="M134.634,132.195c0.015,0.146,0.035,0.292,0.065,0.439c0.015,0.161,0.033,0.304,0.055,0.428
	c0.023,0.124,0.033,0.216,0.033,0.274c0,0.191-0.124,0.358-0.373,0.504c-0.249,0.147-0.402,0.22-0.46,0.22
	c-0.234,0-0.432-0.106-0.592-0.318c-0.161-0.212-0.3-0.501-0.416-0.867c-0.117-0.351-0.209-0.756-0.275-1.218
	s-0.114-0.932-0.143-1.415c-0.044-0.483-0.069-0.957-0.076-1.426c-0.008-0.468-0.011-0.892-0.011-1.273
	c0-0.38,0.008-0.694,0.023-0.943c0.015-0.249,0.023-0.395,0.023-0.439c0-0.058-0.008-0.275-0.023-0.647
	c-0.015-0.373-0.023-0.815-0.023-1.327c0-0.512,0.015-1.046,0.044-1.601c0.029-0.556,0.088-1.046,0.176-1.47
	c0-0.131,0.015-0.275,0.044-0.428c0.03-0.153,0.067-0.319,0.109-0.495c0.044-0.16,0.088-0.321,0.132-0.482
	c0.044-0.161,0.088-0.308,0.131-0.439c0.029-0.015,0.08-0.029,0.153-0.044s0.161-0.029,0.263-0.044
	c0.088-0.029,0.176-0.056,0.263-0.076c0.088-0.023,0.168-0.056,0.241-0.099c0.059,0.029,0.168,0.099,0.329,0.208
	s0.241,0.252,0.241,0.428c0,0.044-0.008,0.183-0.023,0.416c-0.015,0.234-0.03,0.504-0.044,0.812
	c-0.015,0.307-0.029,0.624-0.044,0.954c-0.015,0.329-0.023,0.618-0.023,0.867c-0.015,0.278-0.03,0.6-0.044,0.965
	c-0.015,0.366-0.03,0.724-0.044,1.075c-0.015,0.351-0.026,0.665-0.032,0.943c-0.008,0.278-0.011,0.446-0.011,0.504
	c0,0.088,0.006,0.34,0.021,0.756c0.015,0.416,0.036,0.91,0.067,1.481c0.029,0.57,0.061,1.162,0.098,1.777
	c0.036,0.615,0.077,1.148,0.121,1.601C134.611,131.917,134.617,132.048,134.634,132.195z M141.544,123.463
	c-0.044,0.058-0.091,0.12-0.143,0.186c-0.052,0.067-0.106,0.135-0.164,0.209c-0.059,0.059-0.114,0.109-0.164,0.153
	c-0.052,0.044-0.092,0.065-0.121,0.065c-0.073,0-0.217-0.018-0.428-0.055c-0.212-0.036-0.436-0.076-0.668-0.121
	c-0.249-0.044-0.48-0.084-0.691-0.12c-0.212-0.036-0.348-0.055-0.406-0.055c-0.059,0-0.147,0.011-0.263,0.032
	c-0.117,0.023-0.241,0.041-0.373,0.055c-0.131,0.015-0.256,0.03-0.373,0.044c-0.117,0.014-0.205,0.023-0.263,0.023
	c-0.278,0-0.465-0.088-0.559-0.263c-0.096-0.176-0.143-0.431-0.143-0.768c0-0.19,0.091-0.358,0.274-0.504
	c0.183-0.147,0.384-0.263,0.603-0.351c0.234-0.088,0.454-0.157,0.659-0.209c0.205-0.051,0.343-0.076,0.416-0.076
	c0.439,0,0.8,0.026,1.086,0.076c0.285,0.052,0.524,0.121,0.714,0.209c0.205,0.088,0.38,0.19,0.527,0.307
	c0.146,0.117,0.307,0.241,0.483,0.373L141.544,123.463L141.544,123.463L141.544,123.463z M140.051,132.809
	c-0.102,0.292-0.182,0.474-0.241,0.548c-0.131,0.176-0.307,0.296-0.527,0.363c-0.219,0.065-0.358,0.099-0.416,0.099
	c-0.307,0-0.541-0.252-0.702-0.756c-0.161-0.505-0.278-1.071-0.351-1.701c-0.074-0.614-0.114-1.203-0.121-1.766
	c-0.008-0.562-0.011-0.902-0.011-1.02c0-0.088,0.008-0.27,0.023-0.548c0.015-0.277,0.058-0.57,0.131-0.877
	c0.073-0.293,0.179-0.56,0.319-0.8c0.138-0.241,0.325-0.363,0.559-0.363c0.102,0,0.285,0.047,0.548,0.143
	c0.263,0.095,0.416,0.209,0.46,0.341c0.059,0.234,0.099,0.479,0.121,0.735c0.023,0.255,0.033,0.509,0.033,0.756
	c-0.015,0.249-0.033,0.486-0.056,0.714c-0.023,0.226-0.032,0.428-0.032,0.603c-0.015,0.176-0.008,0.377,0.021,0.603
	c0.029,0.226,0.067,0.465,0.109,0.712c0.044,0.263,0.091,0.531,0.143,0.802c0.051,0.27,0.099,0.53,0.143,0.779
	C140.206,132.303,140.154,132.516,140.051,132.809z M150.627,129.66c0.029,0.023,0.052,0.056,0.065,0.099
	c0.029,0.03,0.052,0.065,0.065,0.109c0.015,0.044,0.023,0.102,0.023,0.176c0,0.337-0.179,0.662-0.538,0.975
	c-0.358,0.315-0.756,0.603-1.195,0.867c-0.454,0.263-0.884,0.483-1.294,0.659c-0.409,0.176-0.673,0.278-0.79,0.307
	c-0.073,0.03-0.161,0.059-0.263,0.088c-0.103,0.03-0.212,0.059-0.329,0.088c-0.103,0.03-0.205,0.051-0.308,0.065
	c-0.102,0.015-0.183,0.023-0.241,0.023c-0.439,0-0.855-0.128-1.25-0.384c-0.395-0.255-0.593-0.691-0.593-1.305l0.68-5.332
	c-0.293,0.03-0.578,0.073-0.855,0.131c-0.279,0.059-0.534,0.124-0.768,0.197c-0.234,0.059-0.438,0.114-0.614,0.164
	c-0.176,0.051-0.293,0.076-0.351,0.076c-0.161,0-0.3-0.091-0.416-0.275c-0.117-0.182-0.176-0.347-0.176-0.494
	c0-0.263,0.153-0.474,0.46-0.636c0.308-0.161,0.659-0.292,1.054-0.395c0.409-0.088,0.802-0.16,1.174-0.219
	c0.373-0.059,0.626-0.117,0.756-0.176c0.044-0.073,0.102-0.281,0.176-0.626c0.073-0.343,0.161-0.72,0.263-1.13
	c0.102-0.395,0.223-0.771,0.363-1.13c0.138-0.358,0.31-0.588,0.515-0.69c0.439-0.044,0.779,0.069,1.02,0.34
	c0.241,0.27,0.363,0.479,0.363,0.624c0,0.044,0,0.076,0,0.099s0,0.047,0,0.076c0,0.015,0,0.036,0,0.065c0,0.03,0,0.052,0,0.067
	c-0.044,0.059-0.106,0.146-0.187,0.263c-0.08,0.117-0.208,0.284-0.383,0.504l-0.22,1.535c0.19,0.073,0.439,0.124,0.746,0.153
	c0.308,0.03,0.615,0.08,0.922,0.153s0.585,0.176,0.834,0.308c0.249,0.131,0.431,0.321,0.548,0.57
	c-0.088,0.161-0.252,0.293-0.495,0.395c-0.241,0.103-0.369,0.155-0.383,0.155c-0.073,0-0.197-0.011-0.373-0.033
	c-0.176-0.023-0.358-0.055-0.548-0.099c-0.205-0.029-0.399-0.058-0.582-0.088c-0.182-0.029-0.31-0.044-0.383-0.044
	c-0.132,0-0.238,0.026-0.318,0.076c-0.08,0.051-0.172,0.15-0.275,0.296c-0.073,0.381-0.143,0.783-0.209,1.207
	c-0.065,0.424-0.12,0.82-0.164,1.185c-0.044,0.381-0.08,0.706-0.109,0.976c-0.029,0.27-0.044,0.436-0.044,0.494
	c0,0.088,0.003,0.164,0.011,0.231c0.006,0.065,0.018,0.135,0.032,0.208c0,0.059,0.008,0.117,0.023,0.176
	c0.015,0.059,0.023,0.109,0.023,0.153c0.015,0.03,0.026,0.047,0.033,0.056c0.006,0.008,0.011,0.018,0.011,0.032
	c0.015,0.015,0.026,0.023,0.033,0.023c0.006,0,0.018,0,0.033,0c0,0.015,0.018,0.023,0.055,0.023s0.099,0,0.187,0
	c0.395,0.088,0.779,0.073,1.151-0.044c0.373-0.117,0.727-0.27,1.064-0.46c0.337-0.205,0.661-0.402,0.976-0.592
	c0.313-0.19,0.624-0.322,0.932-0.395C150.574,129.613,150.597,129.639,150.627,129.66z M158.458,132.107
	c-0.161,0.102-0.46,0.226-0.899,0.372c-0.439,0.147-0.893,0.293-1.361,0.439c-0.469,0.147-0.893,0.267-1.273,0.363
	c-0.38,0.096-0.585,0.143-0.614,0.143c-0.366,0-0.732-0.032-1.098-0.098c-0.366-0.067-0.688-0.194-0.965-0.384
	c-0.293-0.19-0.527-0.442-0.702-0.756c-0.176-0.314-0.263-0.728-0.263-1.24c0-0.058,0.023-0.27,0.065-0.636
	c0.044-0.366,0.102-0.797,0.176-1.294c0.088-0.497,0.179-1.009,0.275-1.535c0.094-0.527,0.193-0.995,0.296-1.405
	c0-0.131,0.091-0.226,0.275-0.285c0.183-0.058,0.34-0.088,0.472-0.088c0.044,0,0.069,0.004,0.076,0.011
	c0.006,0.008,0.018,0.011,0.032,0.011c0,0.015,0.003,0.03,0.011,0.044c0.008,0.015,0.018,0.029,0.033,0.044
	c0.015,0,0.035,0.004,0.065,0.011c0.029,0.008,0.073,0.011,0.132,0.011c0.058,0,0.172-0.099,0.34-0.296
	c0.168-0.197,0.383-0.421,0.647-0.668c0.278-0.234,0.596-0.454,0.954-0.658c0.358-0.205,0.771-0.308,1.239-0.308
	c0.132,0,0.255,0.077,0.373,0.231c0.117,0.153,0.226,0.325,0.329,0.515c0.102,0.205,0.183,0.392,0.241,0.559
	c0.059,0.168,0.088,0.275,0.088,0.319c0,0.79-0.146,1.434-0.438,1.93c-0.293,0.498-0.754,0.899-1.382,1.207
	c-0.088,0.044-0.197,0.08-0.329,0.109s-0.279,0.051-0.439,0.065c-0.147,0.03-0.3,0.051-0.461,0.065
	c-0.161,0.015-0.314,0.036-0.461,0.065c-0.146,0.132-0.255,0.267-0.329,0.407c-0.073,0.138-0.124,0.281-0.153,0.428
	c-0.03,0.146-0.04,0.292-0.033,0.438c0.008,0.147,0.011,0.27,0.011,0.373c0,0.395,0.051,0.685,0.155,0.867
	c0.102,0.183,0.226,0.304,0.372,0.363s0.304,0.08,0.472,0.065c0.168-0.015,0.31-0.023,0.428-0.023c0.058,0,0.245-0.029,0.559-0.088
	c0.314-0.058,0.655-0.123,1.02-0.197c0.366-0.059,0.706-0.121,1.02-0.187c0.314-0.065,0.501-0.099,0.56-0.099
	c0.058,0,0.113,0.008,0.164,0.023c0.052,0.015,0.099,0.029,0.143,0.044c0.029,0.03,0.059,0.047,0.088,0.056
	c0.029,0.006,0.059,0.011,0.088,0.011v0.658L158.458,132.107L158.458,132.107z M156.287,125.7h-0.505
	c-0.117,0.088-0.274,0.227-0.471,0.417c-0.197,0.19-0.392,0.395-0.582,0.614c-0.205,0.22-0.384,0.436-0.538,0.648
	c-0.153,0.212-0.238,0.37-0.252,0.471c0.044,0,0.19-0.044,0.439-0.131c0.248-0.088,0.512-0.205,0.79-0.351
	c0.292-0.161,0.552-0.343,0.778-0.548c0.226-0.205,0.341-0.424,0.341-0.658C156.287,126.162,156.287,125.7,156.287,125.7z
	 M119.424,109.579c1.275,0,2.308,1.033,2.308,2.308c0,1.275-1.033,2.308-2.308,2.308c-1.275,0-2.308-1.033-2.308-2.308
	C117.116,110.612,118.149,109.579,119.424,109.579z M98.373,109.579c1.275,0,2.308,1.033,2.308,2.308
	c0,1.275-1.033,2.308-2.308,2.308c-1.275,0-2.308-1.033-2.308-2.308C96.065,110.612,97.099,109.579,98.373,109.579z M60.607,122.749
	c0,1.845-0.559,3.301-1.678,4.369c-1.119,1.068-2.622,1.601-4.51,1.601c-1.888,0-3.392-0.533-4.51-1.601
	c-1.119-1.068-1.678-2.523-1.678-4.369c0-1.83,0.563-3.282,1.689-4.357c1.125-1.075,2.625-1.613,4.499-1.613
	c1.888,0,3.391,0.538,4.51,1.613C60.048,119.467,60.607,120.919,60.607,122.749z M58.21,122.749c0-1.264-0.349-2.265-1.046-3.006
	c-0.697-0.741-1.613-1.112-2.745-1.112s-2.048,0.371-2.745,1.112c-0.697,0.741-1.046,1.743-1.046,3.006s0.349,2.265,1.046,3.006
	c0.697,0.741,1.613,1.112,2.745,1.112s2.048-0.371,2.745-1.112C57.861,125.014,58.21,124.013,58.21,122.749z M66.315,136.628h-2.418
	v-19.936h2.418V136.628z M81.37,130.004l-1.329,1.634c-0.93-0.494-1.888-1.307-2.876-2.439c-1.06-1.191-1.78-2.346-2.157-3.464
	c-0.349,1.176-1.002,2.33-1.961,3.464c-0.929,1.075-1.961,1.931-3.094,2.57l-1.416-1.634c1.859-1.293,3.181-2.731,3.965-4.314
	c0.756-1.539,1.133-3.457,1.133-5.752v-1.199h-4.38v-1.852h11.351v1.852h-4.401v1.201C76.207,124.365,77.928,127.676,81.37,130.004z
	 M86.468,136.628H84.05v-19.936h2.418V136.628z M108.059,128.305H88.582v-1.7h8.541v-2.092h-4.27c-0.64,0-1.079-0.116-1.318-0.348
	c-0.24-0.233-0.359-0.632-0.359-1.199v-6.275h14.27v1.634H93.571v1.482h11.591v1.547H93.571v0.741c0,0.523,0.269,0.785,0.806,0.785
	h11.134v1.634h-5.992v2.092h8.54V128.305z M104.378,133.425c0,1.221-0.509,2.186-1.526,2.898c-1.075,0.741-2.586,1.111-4.532,1.111
	c-1.946,0-3.457-0.37-4.531-1.111c-1.017-0.713-1.525-1.678-1.525-2.898c0-1.22,0.508-2.186,1.525-2.897
	c1.075-0.741,2.585-1.111,4.531-1.111c1.946,0,3.457,0.37,4.532,1.111C103.869,131.239,104.378,132.205,104.378,133.425z
	 M101.96,133.425c0-0.726-0.349-1.285-1.046-1.678c-0.639-0.363-1.504-0.544-2.593-0.544c-1.089,0-1.954,0.181-2.592,0.544
	c-0.697,0.393-1.046,0.951-1.046,1.678c0,0.712,0.348,1.264,1.046,1.657c0.639,0.377,1.503,0.566,2.592,0.566
	c1.09,0,1.954-0.189,2.593-0.566C101.611,134.688,101.96,134.136,101.96,133.425z M117.842,118.348c0,0.711-0.037,1.395-0.109,2.048
	h2.876v-3.725h2.223v19.718h-2.223v-8.192h-3.9v-1.961h3.9v-3.987h-3.159c-0.785,3.814-2.971,6.996-6.559,9.543l-1.503-1.504
	c3.878-2.846,5.817-6.391,5.817-10.632c0-0.538-0.276-0.807-0.828-0.807h-4.575v-1.852h6.646c0.551,0,0.922,0.091,1.111,0.272
	C117.748,117.451,117.842,117.81,117.842,118.348z M127.189,136.628h-2.309V116.67h2.309V136.628z"/>
</svg>
