<?xml version="1.0" encoding="utf-8"?>
<!-- Generator: Adobe Illustrator 17.0.0, SVG Export Plug-In . SVG Version: 6.00 Build 0)  -->
<!DOCTYPE svg PUBLIC "-//W3C//DTD SVG 1.1//EN" "http://www.w3.org/Graphics/SVG/1.1/DTD/svg11.dtd">
<svg version="1.1" id="Layer_1" xmlns="http://www.w3.org/2000/svg" xmlns:xlink="http://www.w3.org/1999/xlink" x="0px" y="0px"
	 width="250px" height="42px" viewBox="0 0 250 42" enable-background="new 0 0 250 42" xml:space="preserve">
<path fill="#FFFFFF" d="M-0.777-1.326v44.528h252.146V-1.326H-0.777z M18.29,30.145h-2.797v-14.7h2.797V30.145z M31.25,23.375
	c-3.804,2.914-6.043,1.551-7.56,2.383c-0.581,0.319-1.141,0.705-1.651,1.09c0.361-1.38,1.071-3.192,2.477-4.975
	c2.891-3.666,6.318-4.351,6.318-4.351s-4.177,0.687-7.309,4.351c-2.369,2.771-3.079,5.26-3.292,6.507
	c-0.212,0.203-0.336,0.329-0.336,0.329s-0.945-5.234,2.431-9.372c5.143-6.303,12.345-3.059,12.345-3.059S34.306,21.035,31.25,23.375
	z"/>
</svg>
