<?xml version="1.0" encoding="utf-8"?>
<!-- Generator: Adobe Illustrator 17.0.0, SVG Export Plug-In . SVG Version: 6.00 Build 0)  -->
<!DOCTYPE svg PUBLIC "-//W3C//DTD SVG 1.1//EN" "http://www.w3.org/Graphics/SVG/1.1/DTD/svg11.dtd">
<svg version="1.1" id="Layer_1" xmlns="http://www.w3.org/2000/svg" xmlns:xlink="http://www.w3.org/1999/xlink" x="0px" y="0px"
	 width="250px" height="42px" viewBox="0 0 250 42" enable-background="new 0 0 250 42" xml:space="preserve">
<g>
	<rect x="60.46" y="24.528" fill="#FFFFFF" width="5.698" height="1.834"/>
	<path fill="#FFFFFF" d="M128.233,20.384c-0.588,0-1.041,0.191-1.358,0.574s-0.476,0.84-0.476,1.372
		c0,0.532,0.158,0.989,0.476,1.372s0.771,0.574,1.358,0.574c0.532,0,0.964-0.191,1.295-0.574s0.497-0.84,0.497-1.372
		c0-0.532-0.163-0.989-0.49-1.372S128.774,20.384,128.233,20.384z"/>
	<path fill="#FFFFFF" d="M61.201,18.424c0.532,0.215,1.232,0.322,2.1,0.322c0.849,0,1.547-0.103,2.093-0.308
		c0.546-0.205,0.819-0.5,0.819-0.882c0-0.373-0.278-0.669-0.833-0.889c-0.556-0.219-1.249-0.329-2.079-0.329
		c-0.85,0-1.545,0.107-2.086,0.322c-0.542,0.215-0.812,0.504-0.812,0.868C60.404,17.911,60.67,18.21,61.201,18.424z"/>
	<path fill="#FFFFFF" d="M-0.777-1.326v44.528h252.146V-1.326H-0.777z M73.115,15.498c-0.028,0.177-0.047,0.341-0.056,0.49
		c-0.01,0.149-0.014,0.313-0.014,0.49v0.448h5.712v-0.448c0-0.187-0.005-0.353-0.014-0.497c-0.009-0.145-0.028-0.306-0.056-0.483
		h1.652c-0.028,0.196-0.047,0.38-0.056,0.553c-0.009,0.173-0.014,0.348-0.014,0.525v4.522h-8.736v-4.522
		c0-0.177-0.004-0.352-0.014-0.525c-0.01-0.172-0.028-0.357-0.056-0.553H73.115z M59.032,16.639
		c0.215-0.284,0.522-0.534,0.924-0.749c0.401-0.206,0.884-0.371,1.449-0.497c0.564-0.126,1.197-0.189,1.897-0.189
		c0.7,0,1.332,0.061,1.897,0.182c0.564,0.122,1.048,0.285,1.449,0.49c0.392,0.215,0.695,0.464,0.91,0.749s0.322,0.595,0.322,0.931
		c0,0.709-0.411,1.277-1.232,1.701c-0.822,0.425-1.937,0.637-3.346,0.637c-0.7,0-1.333-0.054-1.897-0.161
		c-0.565-0.107-1.048-0.264-1.449-0.469c-0.401-0.205-0.709-0.452-0.924-0.742c-0.215-0.289-0.322-0.616-0.322-0.98
		C58.71,17.225,58.817,16.924,59.032,16.639z M25.266,31.343c-0.153,0-0.301-0.016-0.452-0.023v-3.618
		c0.15,0.011,0.299,0.023,0.452,0.023c3.3,0,5.975-2.675,5.975-5.975s-2.675-5.975-5.975-5.975c-1.931,0-3.638,0.922-4.731,2.343
		l3.438,3.439h-8.786V12.77l2.775,2.775c1.758-2.071,4.374-3.388,7.303-3.388c5.298,0,9.593,4.295,9.593,9.593
		S30.564,31.343,25.266,31.343z M52.724,24.486c-0.098,0.094-0.189,0.182-0.273,0.266c-0.093,0.094-0.182,0.185-0.266,0.273
		s-0.159,0.166-0.224,0.231c-0.635-0.374-1.183-0.813-1.645-1.316c-0.462-0.504-0.843-1.073-1.141-1.708
		c-0.28,0.653-0.688,1.276-1.225,1.869s-1.099,1.075-1.687,1.449c-0.149-0.141-0.338-0.304-0.567-0.49
		c-0.229-0.187-0.455-0.369-0.679-0.546c0.989-0.541,1.771-1.234,2.345-2.079c0.574-0.845,0.898-1.771,0.973-2.779v-1.078h-1.498
		c-0.206,0-0.392,0.002-0.56,0.007s-0.35,0.021-0.546,0.049v-1.428c0.196,0.028,0.378,0.044,0.546,0.049
		c0.168,0.005,0.354,0.007,0.56,0.007h1.554v-1.274c0-0.159-0.002-0.313-0.007-0.462c-0.005-0.149-0.012-0.308-0.021-0.476h1.652
		c-0.019,0.168-0.028,0.327-0.028,0.476s0,0.303,0,0.462v1.274h1.484c0.196,0,0.378-0.002,0.546-0.007
		c0.168-0.004,0.354-0.021,0.56-0.049v1.428c-0.206-0.028-0.392-0.044-0.56-0.049s-0.35-0.007-0.546-0.007h-1.484v1.078
		c0.075,0.99,0.364,1.874,0.868,2.653c0.504,0.779,1.228,1.412,2.17,1.896C52.923,24.3,52.823,24.393,52.724,24.486z M55.874,26.873
		c0.005,0.313,0.021,0.623,0.049,0.932h-1.638c0.028-0.309,0.047-0.619,0.056-0.932s0.014-0.628,0.014-0.944v-4.466h-1.33
		c-0.168,0-0.343,0.002-0.525,0.007c-0.182,0.005-0.352,0.021-0.511,0.049V20.09c0.168,0.028,0.345,0.044,0.532,0.049
		c0.187,0.005,0.364,0.007,0.532,0.007h1.302v-2.968c0-0.308-0.004-0.618-0.014-0.931c-0.009-0.313-0.028-0.628-0.056-0.945h1.638
		c-0.028,0.317-0.044,0.632-0.049,0.945c-0.004,0.313-0.007,0.623-0.007,0.931v8.75C55.868,26.245,55.87,26.56,55.874,26.873z
		 M67.691,23.856c-0.005,0.187-0.007,0.383-0.007,0.588v3.206h-8.722v-3.206c0-0.187-0.007-0.383-0.021-0.588
		c-0.014-0.205-0.035-0.406-0.063-0.602h8.862C67.712,23.47,67.695,23.67,67.691,23.856z M69.154,22.176
		c-0.364-0.028-0.721-0.044-1.071-0.049c-0.35-0.005-0.707-0.007-1.071-0.007h-7.392c-0.364,0-0.721,0.002-1.071,0.007
		s-0.707,0.021-1.071,0.049v-1.4c0.364,0.028,0.721,0.044,1.071,0.049c0.35,0.005,0.707,0.007,1.071,0.007h7.392
		c0.364,0,0.721-0.002,1.071-0.007c0.35-0.004,0.707-0.021,1.071-0.049V22.176z M81.753,23.87c-0.364-0.027-0.721-0.044-1.071-0.049
		c-0.35-0.004-0.707-0.007-1.071-0.007h-2.912v2.632c0,0.205,0.002,0.435,0.007,0.687c0.004,0.252,0.021,0.476,0.049,0.672h-1.652
		c0.028-0.215,0.044-0.439,0.049-0.672c0.005-0.233,0.007-0.463,0.007-0.687v-2.632h-2.94c-0.364,0-0.721,0.003-1.071,0.007
		c-0.35,0.005-0.707,0.021-1.071,0.049v-1.414c0.364,0.028,0.721,0.045,1.071,0.049c0.35,0.006,0.707,0.008,1.071,0.008h7.392
		c0.364,0,0.721-0.002,1.071-0.008c0.35-0.004,0.707-0.021,1.071-0.049V23.87z M90.658,24.5c-0.383,0.057-0.845,0.119-1.386,0.189
		c-0.542,0.07-1.078,0.119-1.61,0.146c-0.56,0.038-1.158,0.059-1.792,0.063c-0.635,0.005-1.358,0.007-2.17,0.007v-7.518
		c0-0.233-0.005-0.471-0.014-0.714s-0.028-0.485-0.056-0.728h4.508c0.224,0,0.443,0,0.658,0s0.438-0.014,0.672-0.042v1.386
		c-0.121-0.009-0.236-0.016-0.343-0.021c-0.107-0.005-0.217-0.012-0.329-0.021c-0.112,0-0.222,0-0.329,0s-0.217,0-0.329,0h-2.954
		v2.422h4.13v1.302h-4.13v2.619c0.336,0,0.688-0.002,1.057-0.008c0.368-0.004,0.842-0.021,1.421-0.049
		c0.495-0.019,1.017-0.063,1.568-0.133s1.026-0.138,1.428-0.203V24.5z M93.367,26.873c0.004,0.313,0.021,0.623,0.049,0.932h-1.652
		c0.028-0.309,0.046-0.619,0.056-0.932s0.014-0.628,0.014-0.944v-4.97h-0.938c-0.168,0-0.343,0.002-0.525,0.007
		c-0.182,0.005-0.353,0.021-0.511,0.049v-1.512c0.168,0.028,0.345,0.044,0.532,0.049c0.187,0.005,0.364,0.007,0.532,0.007h0.91
		v-2.38c0-0.308-0.005-0.618-0.014-0.931c-0.009-0.313-0.028-0.628-0.056-0.945h1.652c-0.028,0.317-0.044,0.632-0.049,0.945
		c-0.005,0.313-0.007,0.623-0.007,0.931v8.75C93.359,26.245,93.362,26.56,93.367,26.873z M107.037,24.36
		c-0.093,0.019-0.294,0.052-0.602,0.098c-0.308,0.047-0.677,0.099-1.106,0.154c-0.43,0.056-0.901,0.103-1.414,0.14
		c-0.513,0.038-1.018,0.057-1.512,0.057h-2.534v-7.28c0-0.233-0.005-0.471-0.014-0.714s-0.028-0.485-0.056-0.728h4.508
		c0.224,0,0.443,0,0.658,0c0.215,0,0.439-0.014,0.672-0.042v1.386c-0.122-0.009-0.236-0.016-0.343-0.021
		c-0.107-0.004-0.217-0.011-0.329-0.021c-0.112,0-0.222,0-0.329,0c-0.107,0-0.217,0-0.329,0h-2.94v6.09h1.638
		c0.355,0,0.754-0.019,1.197-0.056c0.443-0.037,0.866-0.08,1.267-0.127c0.401-0.046,0.749-0.093,1.043-0.14
		c0.294-0.046,0.469-0.079,0.525-0.098V24.36z M110.873,21.07c-0.168-0.028-0.348-0.044-0.539-0.049s-0.366-0.007-0.525-0.007
		h-0.658v4.9c0,0.317,0.002,0.633,0.007,0.945c0.004,0.313,0.021,0.623,0.049,0.931h-1.638c0.028-0.308,0.047-0.618,0.056-0.931
		s0.014-0.628,0.014-0.945v-8.736c0-0.308-0.005-0.618-0.014-0.931c-0.009-0.313-0.028-0.628-0.056-0.945h1.638
		c-0.028,0.317-0.044,0.632-0.049,0.945c-0.005,0.313-0.007,0.623-0.007,0.931v2.45h0.658c0.168,0,0.345-0.002,0.532-0.007
		c0.187-0.005,0.364-0.021,0.532-0.049V21.07z M118.958,24.731c-0.201,0.182-0.366,0.343-0.497,0.483
		c-0.252-0.159-0.516-0.357-0.791-0.596c-0.275-0.237-0.543-0.501-0.805-0.79c-0.28-0.29-0.537-0.605-0.77-0.945
		c-0.233-0.341-0.425-0.688-0.574-1.043c-0.103,0.327-0.261,0.663-0.476,1.008c-0.214,0.346-0.457,0.682-0.728,1.008
		c-0.28,0.336-0.577,0.648-0.889,0.938c-0.313,0.29-0.604,0.523-0.875,0.7c-0.149-0.14-0.343-0.303-0.581-0.49
		c-0.238-0.187-0.469-0.354-0.693-0.504c0.56-0.336,1.059-0.721,1.498-1.155c0.438-0.434,0.807-0.916,1.106-1.448
		c0.271-0.495,0.476-1.027,0.616-1.596c0.14-0.569,0.21-1.176,0.21-1.82v-1.246c0-0.252-0.004-0.49-0.014-0.714
		c-0.01-0.224-0.028-0.462-0.056-0.714h1.722c-0.028,0.252-0.047,0.49-0.056,0.714c-0.009,0.224-0.014,0.462-0.014,0.714v1.33
		c0,0.625,0.068,1.199,0.203,1.722c0.135,0.522,0.329,0.999,0.581,1.428c0.289,0.523,0.648,0.987,1.078,1.393
		c0.429,0.405,0.91,0.768,1.442,1.085C119.371,24.37,119.159,24.55,118.958,24.731z M122.36,26.873
		c0.004,0.313,0.021,0.623,0.049,0.932h-1.638c0.028-0.309,0.047-0.619,0.056-0.932s0.014-0.628,0.014-0.944v-8.75
		c0-0.308-0.005-0.618-0.014-0.931c-0.009-0.313-0.028-0.628-0.056-0.945h1.638c-0.028,0.317-0.044,0.632-0.049,0.945
		c-0.005,0.313-0.007,0.623-0.007,0.931v8.75C122.353,26.245,122.355,26.56,122.36,26.873z M131.264,23.534
		c-0.164,0.401-0.391,0.756-0.68,1.064c-0.289,0.317-0.635,0.569-1.036,0.756s-0.845,0.28-1.329,0.28
		c-0.505,0-0.959-0.089-1.365-0.267c-0.406-0.177-0.759-0.42-1.058-0.728c-0.289-0.309-0.513-0.663-0.672-1.064
		c-0.158-0.401-0.237-0.825-0.237-1.274c0-0.429,0.076-0.842,0.23-1.239s0.376-0.749,0.665-1.057s0.642-0.553,1.057-0.735
		c0.416-0.182,0.88-0.273,1.394-0.273c0.476,0,0.914,0.093,1.315,0.28c0.401,0.187,0.747,0.43,1.036,0.728
		c0.289,0.308,0.516,0.661,0.68,1.057c0.163,0.396,0.244,0.81,0.244,1.239C131.509,22.722,131.428,23.134,131.264,23.534z
		 M131.846,18.41c-0.206-0.028-0.393-0.044-0.561-0.049c-0.168-0.004-0.35-0.007-0.546-0.007h-5.124
		c-0.205,0-0.392,0.002-0.56,0.007c-0.168,0.005-0.351,0.021-0.547,0.049v-1.428c0.196,0.028,0.379,0.044,0.547,0.049
		c0.168,0.005,0.354,0.007,0.56,0.007h1.806v-1.05c0-0.159-0.002-0.313-0.007-0.462s-0.012-0.308-0.021-0.476h1.651
		c-0.019,0.168-0.027,0.327-0.027,0.476s0,0.303,0,0.462v1.05h1.722c0.196,0,0.378-0.002,0.546-0.007
		c0.168-0.004,0.354-0.021,0.561-0.049V18.41z M136.283,21.798c-0.168-0.028-0.348-0.044-0.539-0.049s-0.366-0.007-0.524-0.007
		h-0.673v4.187c0,0.316,0.003,0.632,0.008,0.944c0.004,0.313,0.021,0.623,0.049,0.932h-1.61c0.028-0.309,0.047-0.619,0.056-0.932
		c0.01-0.313,0.015-0.628,0.015-0.944v-8.75c0-0.308-0.005-0.618-0.015-0.931c-0.009-0.313-0.027-0.628-0.056-0.945h1.61
		c-0.028,0.317-0.045,0.632-0.049,0.945c-0.005,0.313-0.008,0.623-0.008,0.931v3.15h0.673c0.168,0,0.345-0.002,0.531-0.007
		c0.187-0.004,0.364-0.021,0.532-0.049V21.798z M143.458,18.697c-0.201,0.854-0.502,1.668-0.903,2.443
		c-0.448,0.868-1.015,1.668-1.701,2.401c-0.686,0.732-1.49,1.378-2.415,1.938c-0.14-0.131-0.343-0.301-0.608-0.511
		c-0.267-0.21-0.492-0.376-0.68-0.497c0.821-0.43,1.548-0.925,2.178-1.484s1.154-1.176,1.575-1.848
		c0.345-0.56,0.618-1.155,0.818-1.785c0.201-0.63,0.324-1.29,0.371-1.981h-2.996c-0.233,0-0.445,0.002-0.637,0.007
		c-0.191,0.005-0.399,0.021-0.623,0.049v-1.428c0.224,0.028,0.432,0.044,0.623,0.049c0.191,0.005,0.403,0.007,0.637,0.007h4.69
		C143.767,16.964,143.658,17.843,143.458,18.697z M147.574,26.873c0.004,0.313,0.021,0.623,0.049,0.932h-1.638
		c0.027-0.309,0.046-0.619,0.056-0.932c0.009-0.313,0.014-0.628,0.014-0.944v-8.75c0-0.308-0.005-0.618-0.014-0.931
		c-0.01-0.313-0.028-0.628-0.056-0.945h1.638c-0.028,0.317-0.045,0.632-0.049,0.945c-0.005,0.313-0.008,0.623-0.008,0.931v8.75
		C147.566,26.245,147.569,26.56,147.574,26.873z"/>
	<rect x="73.045" y="18.2" fill="#FFFFFF" width="5.712" height="1.61"/>
</g>
</svg>
