<?xml version="1.0" encoding="utf-8"?>
<svg width="40" height="40" xmlns="http://www.w3.org/2000/svg" xmlns:svg="http://www.w3.org/2000/svg">
<g>
<path fill="#FFFFFF" d="M18.276,14.991h4.808c0.664,0,1.202-0.548,1.202-1.212c0-0.664-0.538-1.211-1.202-1.211h-4.808
	c-0.664,0-1.202,0.548-1.202,1.211C17.074,14.443,17.612,14.991,18.276,14.991z M18.276,20.276h10.096
	c0.664,0,1.202-0.548,1.202-1.212c0-0.664-0.538-1.211-1.202-1.211H18.276c-0.664,0-1.202,0.548-1.202,1.211
	C17.074,19.728,17.612,20.276,18.276,20.276z M28.853,22.672h-4.493c-0.664,0-1.202,0.535-1.202,1.199
	c0,0.664,0.539,1.199,1.202,1.199h4.494c0.664,0,1.202-0.535,1.202-1.199C30.055,23.207,29.517,22.672,28.853,22.672z
	 M18.078,27.776c1.422,0,12.645,0,12.645,0c0.427,0,0.781-0.341,0.781-0.768V13.423l-2.118-0.022
	c-0.951-0.01-1.723-0.784-1.723-1.736V9.501H16.406c-0.427,0-0.781,0.359-0.781,0.786c0,0,0,9.854,0,10.807
	c0,1.469-1.907,1.328-1.907-0.031s0-10.776,0-10.776c0-1.487,1.2-2.693,2.688-2.693h12.191l4.814,4.933v14.482
	c0,1.487-1.2,2.701-2.688,2.701c0,0-10.879,0-12.645,0C16.563,29.709,16.656,27.776,18.078,27.776z M20.629,23.65
	c0.823,0.253,1.574,0.638,2.242,1.126c-3.913,0.121-7.702,1.167-9.136,5.759l1.282,0.395c0.545,0.168,0.611,0.675,0.154,1.132
	l-5.637,5.592c-0.457,0.457-0.93,0.311-1.058-0.326l-1.514-7.795c-0.12-0.635,0.22-1.017,0.765-0.849L9.01,29.08
	C10.739,23.503,15.939,22.205,20.629,23.65z"/>
</g>
</svg>