<?xml version="1.0" encoding="utf-8"?>
<svg width="40" height="40" xmlns="http://www.w3.org/2000/svg" xmlns:svg="http://www.w3.org/2000/svg">
<g>
<path fill="#555" d="M28.229,20.083c0,0.412-0.334,0.747-0.747,0.747h-1.276c-0.412,0-0.747-0.334-0.747-0.747v-1.276
		c0-0.412,0.334-0.747,0.747-0.747h1.276c0.412,0,0.747,0.334,0.747,0.747V20.083z M15.919,31.263c0-0.216-0.175-0.392-0.392-0.392
		h-0.669c-0.216,0-0.392,0.175-0.392,0.392v0.669c0,0.216,0.175,0.392,0.392,0.392h0.669c0.216,0,0.392-0.175,0.392-0.392V31.263z
		 M25.916,27.761l6.131-6.131c0.528-0.528,0.528-1.383,0-1.91c-0.528-0.528-1.382-0.528-1.91,0l-3.465,3.466v-0.296
		c0-0.292-0.237-0.529-0.529-0.529h-0.904c-0.292,0-0.529,0.237-0.529,0.529v0.904c0,0.292,0.237,0.529,0.529,0.529h0.296
		l-1.528,1.528l-6.131-6.131c-0.528-0.528-1.382-0.528-1.91,0c-0.528,0.527-0.528,1.382,0,1.91l6.131,6.131l-6.131,6.131
		c-0.528,0.528-0.528,1.382,0,1.91c0.264,0.264,0.609,0.396,0.955,0.396c0.346,0,0.691-0.132,0.955-0.396l6.131-6.131l6.131,6.131
		c0.264,0.264,0.609,0.396,0.955,0.396s0.691-0.132,0.955-0.396c0.528-0.528,0.528-1.382,0-1.91L25.916,27.761z M22.279,19.515
		c0.007,0.409,0.23,0.447,0.418,0.447c0.188,0,0.267,0,0.577,0c0.309,0,0.347-0.21,0.347-0.511c0-0.338,0.019-2.369,0.019-2.632
		c0-0.263,0.132-0.422,0.367-0.422c0.337,0,2.766,0.005,3.029-0.007c0.243-0.011,0.373-0.129,0.342-0.376
		c-0.401-1.953-1.154-3.951-2.279-5.417c-1.737-2.278-4.083-3.418-7.039-3.418c-3.024,0-5.393,1.129-7.107,3.384
		c-1.76,2.324-2.64,5.573-2.64,9.747c0,4.152,0.88,7.39,2.64,9.713c0.504,0.668,1.069,1.228,1.68,1.702
		c0.295,0.162,0.612,0.228,0.638-0.204c0.014-0.239-0.062-0.495-0.014-1.041c0.028-0.324,0.211-0.535,0.492-0.549
		c0.464-0.023,1.408-0.093,1.812-0.093c0.286,0,0.176-0.437,0.035-0.661c0,0,0.001-0.002,0-0.002
		c-0.225-0.327-0.431-0.709-0.617-1.149c-0.767-1.805-1.151-4.377-1.151-7.717c0-3.384,0.372-5.956,1.117-7.716
		c0.722-1.692,1.76-2.538,3.114-2.538c1.308,0,2.335,0.858,3.08,2.572c0.691,1.627,1.068,3.919,1.136,6.865
		C22.276,19.5,22.279,19.509,22.279,19.515z"/>
</g>
</svg>