<?xml version="1.0" encoding="utf-8"?>
<svg width="40" height="40" xmlns="http://www.w3.org/2000/svg" xmlns:svg="http://www.w3.org/2000/svg">
<g>
<path fill="#FFFFFF" d="M23.547,14.376c-2.045,0-3.703-0.867-3.703-1.938s1.658-1.938,3.703-1.938s3.703,0.867,3.703,1.938
		S25.592,14.376,23.547,14.376z M33.807,24.556l-9.47,5.105V19.417l9.475-5.069L33.807,24.556z M35.42,12.543
		c-0.001-0.002-0.003-0.002-0.002-0.003v0c-0.003-0.006-0.007-0.012-0.01-0.019c-0.085-0.154-0.21-0.272-0.355-0.348L23.87,6.189
		c-0.254-0.135-0.557-0.133-0.809,0.003l-11.156,6.094c-0.273,0.149-0.443,0.435-0.443,0.746v9.259c0,0.47,0.381,0.85,0.85,0.85
		s0.85-0.38,0.85-0.85v-7.776l9.475,5.013v5.105c-0.611-0.414-1.276-0.758-2.009-0.983c-4.69-1.445-9.89-0.147-11.619,5.43
		l-1.283-0.396c-0.545-0.168-0.885,0.214-0.765,0.849l1.514,7.795c0.128,0.637,0.601,0.783,1.058,0.326l5.637-5.592
		c0.457-0.457,0.391-0.964-0.154-1.132l-1.282-0.395c1.405-4.5,5.073-5.592,8.903-5.748v4.94l-4.422-2.217
		c-0.418-0.211-0.931-0.042-1.141,0.379c-0.21,0.42-0.041,0.931,0.379,1.141l5.634,2.825c0.12,0.061,0.25,0.09,0.381,0.09
		c0.139,0,0.277-0.033,0.403-0.102l11.188-6.031c0.275-0.148,0.446-0.436,0.446-0.748l0.006-12.119
		C35.515,12.81,35.485,12.672,35.42,12.543z"/>
</g>
</svg>