<?xml version="1.0" encoding="utf-8"?>
<!-- Generator: Adobe Illustrator 15.0.1, SVG Export Plug-In . SVG Version: 6.00 Build 0)  -->
<!DOCTYPE svg PUBLIC "-//W3C//DTD SVG 1.1//EN" "http://www.w3.org/Graphics/SVG/1.1/DTD/svg11.dtd">
<svg version="1.1" id="Layer_3" xmlns="http://www.w3.org/2000/svg" xmlns:xlink="http://www.w3.org/1999/xlink" x="0px" y="0px"
	 width="40px" height="40px" viewBox="0 0 40 40" enable-background="new 0 0 40 40" xml:space="preserve">
<path fill="#FFFFFF" d="M24.007,25.852l-6.131-6.132c-0.528-0.528-1.382-0.528-1.91,0c-0.528,0.527-0.528,1.382,0,1.91l6.132,6.131
	l-6.132,6.132c-0.528,0.527-0.528,1.381,0,1.909c0.264,0.265,0.609,0.396,0.955,0.396c0.346,0,0.691-0.132,0.955-0.396l6.131-6.131
	l6.132,6.131c0.264,0.265,0.608,0.396,0.954,0.396c0.347,0,0.691-0.132,0.955-0.396c0.528-0.528,0.528-1.382,0-1.909l-6.132-6.132
	l6.131-6.131c0.528-0.528,0.528-1.383,0-1.91c-0.527-0.528-1.382-0.528-1.91,0L24.007,25.852z M25.743,7.25H14.466
	c-0.133,0-0.263,0.027-0.383,0.077c-0.073,0.031-0.132,0.083-0.195,0.129c-0.04,0.029-0.087,0.046-0.123,0.081l-0.006,0.006l0,0
	L8.615,12.6c-0.001,0.001-0.001,0.002-0.002,0.003c-0.092,0.091-0.167,0.201-0.218,0.323c-0.051,0.121-0.078,0.252-0.078,0.387
	v16.163c0,1.583,1.272,2.87,2.837,2.87h2.722c0.552,0,1-0.447,1-1s-0.448-1-1-1h-2.722c-0.461,0-0.837-0.391-0.837-0.87V14.313
	h2.313c1.564,0,2.837-1.287,2.837-2.87V9.25h10.277c0.462,0,0.838,0.39,0.838,0.87v7.569c0,0.552,0.447,1,1,1s1-0.448,1-1V10.12
	C28.581,8.537,27.308,7.25,25.743,7.25z M23.625,13.688h-5.177c-0.552,0-1-0.448-1-1s0.448-1,1-1h5.177c0.553,0,1,0.448,1,1
	S24.178,13.688,23.625,13.688z M23.625,17.688H13.438c-0.552,0-1-0.448-1-1s0.448-1,1-1h10.188c0.553,0,1,0.448,1,1
	S24.178,17.688,23.625,17.688z M23.625,21.688h-1c-0.553,0-1-0.447-1-1c0-0.552,0.447-1,1-1h1c0.553,0,1,0.448,1,1
	C24.625,21.24,24.178,21.688,23.625,21.688z M16.188,26.688h-2.08c-0.552,0-1-0.447-1-1s0.448-1,1-1h2.08c0.552,0,1,0.447,1,1
	S16.74,26.688,16.188,26.688z"/>
</svg>
