<?xml version="1.0" encoding="utf-8"?>
<!-- Generator: Adobe Illustrator 15.0.2, SVG Export Plug-In . SVG Version: 6.00 Build 0)  -->
<!DOCTYPE svg PUBLIC "-//W3C//DTD SVG 1.1//EN" "http://www.w3.org/Graphics/SVG/1.1/DTD/svg11.dtd">
<svg version="1.1" id="Layer_1" xmlns="http://www.w3.org/2000/svg" xmlns:xlink="http://www.w3.org/1999/xlink" x="0px" y="0px"
	 width="12px" height="25px" viewBox="0 0 12 25" enable-background="new 0 0 12 25" xml:space="preserve">
<path opacity="0.45" fill="#040000" enable-background="new    " d="M5.379,11.978c0.008-0.131,0.019-0.27,0.026-0.41
	c0.008-0.14,0.013-0.281,0.013-0.421c0.008-0.14,0.013-0.28,0.013-0.421c0-0.14,0-0.278,0-0.41V4.856
	C5.173,5.023,4.905,5.171,4.63,5.302C4.354,5.435,4.057,5.559,3.738,5.677L3.26,4.74c0.181-0.071,0.388-0.165,0.621-0.281
	C4.113,4.341,4.35,4.208,4.592,4.06c0.241-0.149,0.476-0.308,0.704-0.479C5.524,3.409,5.729,3.228,5.91,3.041h1.112v7.285
	c0,0.276,0.002,0.55,0.006,0.827c0.004,0.278,0.021,0.552,0.045,0.826H5.379z"/>
<path opacity="0.45" fill="#040000" enable-background="new    " d="M4.864,20.832c0.139-0.008,0.279-0.012,0.422-0.018
	c0.142-0.004,0.281-0.011,0.419-0.02c0.138,0,0.272,0,0.401,0s0.258,0,0.388,0h1.317c0.268,0,0.498-0.002,0.689-0.008
	c0.191-0.004,0.432-0.017,0.704-0.041l-0.308,1.305c-0.229-0.016-0.438-0.027-0.619-0.035s-0.387-0.012-0.621-0.012H3.055v-1.312
	c0.069-0.031,0.266-0.178,0.588-0.438c0.323-0.263,0.726-0.604,1.209-1.026c0.231-0.21,0.496-0.458,0.795-0.737
	c0.295-0.284,0.572-0.575,0.832-0.88c0.24-0.304,0.446-0.604,0.621-0.902c0.172-0.295,0.258-0.567,0.258-0.817
	c0-0.228-0.027-0.434-0.082-0.623c-0.06-0.186-0.146-0.349-0.269-0.479c-0.121-0.14-0.271-0.247-0.459-0.321
	s-0.411-0.111-0.678-0.111c-0.25,0-0.476,0.037-0.673,0.111s-0.383,0.169-0.555,0.286c-0.182,0.117-0.341,0.257-0.479,0.422
	c-0.138,0.163-0.263,0.336-0.375,0.515l-0.995-0.75c0.156-0.283,0.354-0.539,0.595-0.773c0.241-0.234,0.508-0.434,0.8-0.596
	c0.286-0.165,0.59-0.294,0.917-0.389s0.658-0.139,0.996-0.139c0.412,0,0.797,0.063,1.149,0.192c0.353,0.132,0.658,0.307,0.917,0.533
	c0.251,0.236,0.445,0.511,0.589,0.832c0.142,0.32,0.214,0.671,0.214,1.053c0,0.276-0.05,0.549-0.146,0.827
	c-0.102,0.278-0.229,0.547-0.385,0.805c-0.151,0.266-0.34,0.528-0.555,0.788c-0.212,0.262-0.439,0.513-0.683,0.756
	c-0.394,0.396-0.796,0.771-1.2,1.118C5.599,20.293,5.218,20.591,4.864,20.832z"/>
</svg>
