<?xml version="1.0" encoding="utf-8"?>
<!-- Generator: Adobe Illustrator 15.0.2, SVG Export Plug-In . SVG Version: 6.00 Build 0)  -->
<!DOCTYPE svg PUBLIC "-//W3C//DTD SVG 1.1//EN" "http://www.w3.org/Graphics/SVG/1.1/DTD/svg11.dtd">
<svg version="1.1" id="Layer_1" xmlns="http://www.w3.org/2000/svg" xmlns:xlink="http://www.w3.org/1999/xlink" x="0px" y="0px"
	 width="12px" height="25px" viewBox="0 0 12 25" enable-background="new 0 0 12 25" xml:space="preserve">
<path opacity="0.45" enable-background="new    " d="M10.352,7.299H2.17V5.865h3.259V4.523c0-0.072-0.002-0.129-0.006-0.175
	C5.418,4.305,5.416,4.26,5.416,4.215C5.406,4.179,5.4,4.136,5.396,4.087C5.391,4.038,5.389,3.973,5.389,3.893h1.796
	c-0.01,0.08-0.019,0.145-0.026,0.194C7.15,4.136,7.146,4.179,7.146,4.215c-0.01,0.045-0.014,0.09-0.014,0.134
	c0,0.045,0,0.103,0,0.175v1.341h3.219V7.299z M6.193,7.621c0.5,0,0.963,0.056,1.389,0.167C8.006,7.9,8.375,8.055,8.688,8.251
	c0.313,0.197,0.56,0.43,0.738,0.697c0.18,0.269,0.268,0.555,0.268,0.858c0,0.322-0.088,0.615-0.268,0.878
	c-0.18,0.264-0.425,0.494-0.738,0.69c-0.313,0.197-0.684,0.349-1.111,0.457c-0.43,0.107-0.891,0.161-1.382,0.161
	c-0.501,0-0.965-0.054-1.395-0.161c-0.429-0.108-0.8-0.259-1.113-0.457c-0.322-0.196-0.57-0.429-0.744-0.697
	c-0.175-0.266-0.262-0.556-0.262-0.87c0-0.304,0.087-0.59,0.262-0.858c0.174-0.268,0.422-0.5,0.744-0.697
	C3.999,8.055,4.37,7.9,4.798,7.789C5.228,7.677,5.692,7.621,6.193,7.621z M6.193,10.679c0.51,0,0.934-0.08,1.273-0.241
	s0.511-0.371,0.511-0.63c0-0.241-0.17-0.447-0.511-0.617c-0.34-0.169-0.764-0.255-1.273-0.255c-0.509,0-0.936,0.085-1.28,0.254
	C4.568,9.36,4.396,9.566,4.396,9.807c0,0.259,0.172,0.469,0.516,0.63C5.256,10.598,5.684,10.679,6.193,10.679z"/>
<path opacity="0.45" enable-background="new    " d="M9.977,21.032H8.299v-5.218h-6.29v-1.407h7.968V21.032z"/>
</svg>
