<?xml version="1.0" encoding="utf-8"?>
<!-- Generator: Adobe Illustrator 15.0.2, SVG Export Plug-In . SVG Version: 6.00 Build 0)  -->
<!DOCTYPE svg PUBLIC "-//W3C//DTD SVG 1.1//EN" "http://www.w3.org/Graphics/SVG/1.1/DTD/svg11.dtd">
<svg version="1.1" id="Layer_1" xmlns="http://www.w3.org/2000/svg" xmlns:xlink="http://www.w3.org/1999/xlink" x="0px" y="0px"
	 width="50px" height="90px" viewBox="0 0 50 90" enable-background="new 0 0 50 90" xml:space="preserve">
<path d="M35.924,25.152H13.169c-5.556,0-10.076-4.52-10.076-10.076C3.093,9.52,7.613,5,13.169,5h22.755C41.48,5,46,9.52,46,15.076
	C46,20.632,41.48,25.152,35.924,25.152z M35.924,22.361c4.018,0,7.285-3.268,7.285-7.285c0-4.017-3.27-7.285-7.285-7.285H13.169
	c-4.017,0-7.285,3.268-7.285,7.285c0,4.017,3.268,7.285,7.285,7.285H35.924z"/>
<g>
	<path d="M21.203,18.019H18.19l-0.419,1.418h-2.71l3.229-8.59h2.896l3.228,8.59h-2.779L21.203,18.019z M20.652,16.162l-0.948-3.088
		l-0.938,3.088H20.652z"/>
	<path d="M25.18,10.847h2.39v8.59h-2.39V10.847z"/>
	<path d="M29.176,10.847h2.391v8.59h-2.391V10.847z"/>
</g>
</svg>
