<?xml version="1.0" encoding="utf-8"?>
<!-- Generator: Adobe Illustrator 17.0.0, SVG Export Plug-In . SVG Version: 6.00 Build 0)  -->
<!DOCTYPE svg PUBLIC "-//W3C//DTD SVG 1.1//EN" "http://www.w3.org/Graphics/SVG/1.1/DTD/svg11.dtd">
<svg version="1.1" id="Layer_1" xmlns="http://www.w3.org/2000/svg" xmlns:xlink="http://www.w3.org/1999/xlink" x="0px" y="0px"
	 width="71px" height="40px" viewBox="0 0 71 40" enable-background="new 0 0 71 40" xml:space="preserve">
<path fill="#555555" d="M8.698,17.074H6.646c-0.264,0-0.504,0.003-0.72,0.009c-0.216,0.006-0.45,0.027-0.702,0.063v-1.422
	c0.252,0.036,0.486,0.057,0.702,0.063c0.216,0.006,0.456,0.009,0.72,0.009h5.778c0.252,0,0.486-0.002,0.702-0.009
	c0.216-0.006,0.456-0.027,0.72-0.063v1.422c-0.264-0.036-0.504-0.057-0.72-0.063s-0.45-0.009-0.702-0.009h-2.16v1.53
	c0,0.828,0.087,1.596,0.261,2.304c0.174,0.708,0.441,1.368,0.801,1.98c0.372,0.66,0.843,1.267,1.413,1.819s1.251,1.05,2.043,1.493
	c-0.192,0.145-0.393,0.321-0.603,0.531s-0.387,0.387-0.531,0.531c-0.42-0.252-0.825-0.546-1.215-0.882s-0.759-0.702-1.107-1.099
	c-0.396-0.432-0.753-0.896-1.071-1.395c-0.318-0.498-0.579-1.017-0.783-1.557c-0.144,0.504-0.36,1.005-0.648,1.503
	c-0.288,0.499-0.612,0.981-0.972,1.449c-0.372,0.492-0.777,0.945-1.215,1.359s-0.861,0.765-1.269,1.053
	c-0.18-0.144-0.39-0.309-0.63-0.495c-0.24-0.186-0.486-0.362-0.738-0.53c0.756-0.444,1.422-0.954,1.998-1.53
	s1.068-1.218,1.476-1.926c0.396-0.685,0.699-1.431,0.909-2.241c0.209-0.81,0.315-1.677,0.315-2.601
	C8.698,18.37,8.698,17.074,8.698,17.074z M17.356,20.998H18.4c0.216,0,0.444-0.003,0.684-0.009s0.468-0.027,0.684-0.063v1.494
	c-0.216-0.036-0.447-0.057-0.693-0.063c-0.246-0.006-0.471-0.009-0.675-0.009h-1.044v6.067c0,0.407,0.003,0.813,0.009,1.215
	c0.006,0.401,0.027,0.801,0.063,1.196h-1.674c0.036-0.396,0.06-0.795,0.072-1.196c0.012-0.402,0.018-0.808,0.018-1.215V17.2
	c0-0.396-0.006-0.795-0.018-1.197c-0.012-0.402-0.036-0.807-0.072-1.215h1.674c-0.036,0.408-0.057,0.813-0.063,1.215
	s-0.009,0.801-0.009,1.197C17.356,17.2,17.356,20.998,17.356,20.998z M23.926,24.635h-2.268v-5.148h9.306v-2.682h-7.758
	c-0.252,0-0.513,0.006-0.783,0.018s-0.531,0.03-0.783,0.054v-1.404c0.288,0.036,0.558,0.057,0.81,0.063
	c0.252,0.006,0.504,0.009,0.756,0.009h9.324c-0.036,0.229-0.06,0.486-0.072,0.774c-0.012,0.288-0.018,0.558-0.018,0.81v3.618h-9.306
	v2.628h8.208c0.288,0,0.561,0,0.819,0s0.531-0.019,0.819-0.055v1.387c-0.3-0.036-0.576-0.058-0.828-0.063s-0.522-0.009-0.81-0.009
	h-0.648v2.934h1.224c0.468,0,0.927-0.003,1.377-0.009c0.45-0.006,0.909-0.027,1.377-0.063v1.422
	c-0.468-0.036-0.927-0.058-1.377-0.063c-0.45-0.005-0.909-0.009-1.377-0.009h-9.54c-0.468,0-0.927,0.003-1.377,0.009
	s-0.909,0.027-1.377,0.063v-1.422c0.468,0.035,0.927,0.057,1.377,0.063s0.909,0.009,1.377,0.009h1.548
	C23.926,27.569,23.926,24.635,23.926,24.635z M25.42,24.635v2.934h3.762v-2.934H25.42z M39.495,18.892
	c0-0.552,0.105-1.068,0.315-1.548c0.209-0.48,0.5-0.894,0.873-1.242c0.384-0.348,0.831-0.624,1.341-0.828s1.071-0.306,1.683-0.306
	c0.587,0,1.137,0.102,1.647,0.306c0.51,0.205,0.957,0.48,1.341,0.828c0.372,0.348,0.666,0.762,0.882,1.242s0.324,0.996,0.324,1.548
	c0,0.564-0.108,1.086-0.324,1.566s-0.51,0.894-0.882,1.242c-0.384,0.348-0.831,0.621-1.341,0.819s-1.06,0.297-1.647,0.297
	c-0.601,0-1.155-0.099-1.665-0.297s-0.957-0.471-1.341-0.819c-0.372-0.348-0.666-0.762-0.882-1.242
	C39.604,19.979,39.495,19.457,39.495,18.892z M40.989,18.892c0,0.732,0.249,1.35,0.747,1.854s1.155,0.756,1.971,0.756
	c0.804,0,1.455-0.252,1.953-0.756c0.498-0.504,0.747-1.122,0.747-1.854s-0.249-1.353-0.747-1.863
	c-0.498-0.51-1.149-0.765-1.953-0.765c-0.816,0-1.473,0.258-1.971,0.774S40.989,18.172,40.989,18.892z M52.473,25.192v5.454h-10.62
	v-5.418c0-0.18-0.003-0.378-0.009-0.594s-0.027-0.42-0.063-0.612h1.638c-0.036,0.18-0.057,0.375-0.063,0.585
	s-0.009,0.405-0.009,0.585v0.756h7.632v-0.72c0-0.18-0.003-0.378-0.009-0.594s-0.027-0.42-0.063-0.612h1.638
	c-0.036,0.18-0.057,0.375-0.063,0.585C52.476,24.817,52.473,25.013,52.473,25.192z M50.98,29.404v-2.195h-7.632v2.195H50.98z
	 M52.491,16.588v6.678H50.98v-6.678c0-0.3-0.006-0.6-0.018-0.9c-0.012-0.3-0.036-0.605-0.072-0.918h1.674
	c-0.036,0.313-0.057,0.618-0.063,0.918C52.494,15.988,52.491,16.288,52.491,16.588z M60.952,16.642h-3.978
	c-0.3,0-0.573,0.003-0.819,0.009c-0.246,0.006-0.513,0.027-0.801,0.063V15.31c0.288,0.036,0.555,0.057,0.801,0.063
	s0.519,0.009,0.819,0.009H62.5c-0.036,0.276-0.057,0.537-0.063,0.783c-0.006,0.246-0.009,0.501-0.009,0.765v3.348H56.83v2.375
	l2.358-0.036c0.372,0,0.81-0.018,1.314-0.054c0.504-0.036,1.02-0.078,1.548-0.126c0.516-0.048,1.011-0.105,1.485-0.171
	s0.867-0.129,1.179-0.188v1.26c-0.288,0.06-0.66,0.12-1.116,0.18c-0.456,0.061-0.942,0.12-1.458,0.18
	c-0.528,0.049-1.065,0.094-1.611,0.136s-1.053,0.063-1.521,0.063c-0.313,0.013-0.672,0.021-1.08,0.027s-0.804,0.009-1.188,0.009
	c-0.372,0-0.693,0-0.963,0s-0.412,0-0.423,0v-4.878h5.598V16.642z M67.684,29.242c0,0.276,0.006,0.559,0.018,0.847
	c0.012,0.288,0.036,0.563,0.072,0.828H66.1c0.036-0.252,0.057-0.528,0.063-0.828c0.006-0.301,0.009-0.582,0.009-0.847v-2.34h-7.416
	c-0.36,0-0.69,0.003-0.99,0.009c-0.3,0.007-0.63,0.027-0.99,0.063v-1.422c0.36,0.036,0.689,0.054,0.99,0.054c0.3,0,0.63,0,0.99,0h9
	c-0.036,0.24-0.057,0.444-0.063,0.612c-0.006,0.168-0.009,0.366-0.009,0.594V29.242z M66.208,17.956h-1.512
	c-0.216,0-0.441,0.003-0.675,0.009c-0.234,0.006-0.453,0.027-0.657,0.063v-1.386c0.216,0.036,0.444,0.057,0.684,0.063
	s0.468,0.009,0.684,0.009h1.476v-0.108c0-0.3-0.006-0.6-0.018-0.9s-0.036-0.606-0.072-0.918h1.656
	c-0.036,0.312-0.057,0.618-0.063,0.918c-0.006,0.3-0.009,0.6-0.009,0.9v8.245h-1.494v-3.763h-1.512
	c-0.216,0-0.441,0.003-0.675,0.009c-0.234,0.006-0.453,0.027-0.657,0.063v-1.386c0.216,0.036,0.444,0.057,0.684,0.063
	c0.24,0.006,0.468,0.009,0.684,0.009h1.476L66.208,17.956L66.208,17.956z"/>
</svg>
