<?xml version="1.0" encoding="utf-8"?>
<!-- Generator: Adobe Illustrator 17.0.0, SVG Export Plug-In . SVG Version: 6.00 Build 0)  -->
<!DOCTYPE svg PUBLIC "-//W3C//DTD SVG 1.1//EN" "http://www.w3.org/Graphics/SVG/1.1/DTD/svg11.dtd">
<svg version="1.1" id="solid" xmlns="http://www.w3.org/2000/svg" xmlns:xlink="http://www.w3.org/1999/xlink" x="0px" y="0px"
	 width="400px" height="400px" viewBox="0 0 400 400" enable-background="new 0 0 400 400" xml:space="preserve">
<polygon fill="#3C7DC0" points="131,129.5 37.6,223.7 26.7,240.2 19.5,258.3 15.9,277.2 15.9,296.4 19.5,315.4 26.7,333.4 
	37.6,349.9 51.9,364.2 68.4,375 86.4,382.3 105.3,385.9 124.6,385.9 143.5,382.3 161.5,375 178.1,364.2 272.3,270.8 "/>
<polygon fill="#3C7DC0" points="382.1,87.3 374.9,69.1 364.1,52.2 357.3,44.5 341.8,31.8 324.4,22.8 305.9,17.4 286.7,15.6 
	267.5,17.4 249,22.8 231.6,31.8 223.6,37.7 142.3,118.3 283.5,259.5 362.8,179.5 374.1,162.7 381.6,144.5 385.5,125.5 385.6,106.3 
	"/>
</svg>
