<?xml version="1.0" encoding="utf-8"?>
<!-- Generator: Adobe Illustrator 17.0.0, SVG Export Plug-In . SVG Version: 6.00 Build 0)  -->
<!DOCTYPE svg PUBLIC "-//W3C//DTD SVG 1.1//EN" "http://www.w3.org/Graphics/SVG/1.1/DTD/svg11.dtd">
<svg version="1.1" id="solid" xmlns="http://www.w3.org/2000/svg" xmlns:xlink="http://www.w3.org/1999/xlink" x="0px" y="0px"
	 width="300px" height="400px" viewBox="0 0 300 400" enable-background="new 0 0 300 400" xml:space="preserve">
	<polygon fill="#99763D" points="250.1,321.6 247.2,312.3 220.9,262.3 218.5,253.9 217.5,247.8 217.3,236.6 218.6,226.9 222,214.3 
		243.8,166.5 247.7,150.1 247.7,134.3 246,125.6 242.8,116.6 236.3,105.6 232.6,101.2 225.3,94.3 217,88.7 212.2,86.2 203,82.9 
		194.5,81.3 177.7,80.4 167.1,81.3 119,95.9 110.1,100.6 95.5,111 86.9,119.2 78,130.5 69.1,147.4 65.5,158.2 62.9,171.9 
		62.3,183.9 63.9,198.8 106.4,335.3 112.7,346.2 126.4,363.4 131.5,367.9 135.8,370.9 171.4,385 183.1,386.4 210.7,384.3 
		216.8,382.6 221.8,380.6 228,377.1 232.9,373.2 236.7,369.3 244.9,356.9 249.7,343.5 251.1,333.4 250.9,326.9 250.1,321.6 	"/>
	<polygon fill="#99763D" points="273.2,39 270.4,32 267.6,27.2 265.3,24.3 260.5,19.7 253.5,15.8 250,14.9 247,14.6 239.3,15.4 
		233.7,16.8 230.1,18.3 226.3,20.4 223.1,22.8 215.8,31.1 212.2,37.8 210.6,44.1 210.4,60.2 211,63.2 212.2,66.3 213.7,69.1 
		219.4,76 224,79.8 229.7,83.2 234.2,85 237.6,85.5 254.1,81.5 258.6,79 260.9,77.1 266.6,70.4 269.6,65.3 271.2,60.8 273.8,43.7 
		273.2,39 	"/>
	<polygon fill="#99763D" points="148.3,49.2 150.7,53.5 153.8,57.3 157.5,60.4 161.8,62.7 166.6,64.2 171.7,64.7 176.8,64.2 
		181.6,62.7 185.9,60.4 189.7,57.3 192.8,53.5 195.1,49.2 196.6,44.4 197.1,39.3 196.6,34.2 195.1,29.4 192.8,25.1 189.7,21.3 
		185.9,18.2 181.6,15.9 176.8,14.4 171.7,13.9 166.6,14.4 161.8,15.9 157.5,18.2 153.8,21.3 150.7,25.1 148.3,29.4 146.8,34.2 
		146.3,39.3 146.8,44.4 148.3,49.2 	"/>
	<polygon fill="#99763D" points="96.8,62.3 99,66.3 101.9,69.8 105.4,72.7 109.4,74.9 113.9,76.3 118.6,76.8 123.4,76.3 127.9,74.9 
		131.9,72.7 135.4,69.8 138.3,66.3 140.4,62.3 141.8,57.9 142.3,53.1 141.8,48.3 140.4,43.9 138.3,39.9 135.4,36.4 131.9,33.5 
		127.9,31.3 123.4,29.9 118.6,29.5 113.9,29.9 109.4,31.3 105.4,33.5 101.9,36.4 99,39.9 96.8,43.9 95.5,48.3 95,53.1 95.5,57.9 
		96.8,62.3 	"/>
	<polygon fill="#99763D" points="50.8,88.1 52.1,91.9 54.1,95.4 56.8,98.3 60.1,100.8 63.8,102.7 68,103.8 72.4,104.2 76.8,103.8 
		81,102.7 84.7,100.8 88,98.3 90.7,95.4 92.7,91.9 94,88.1 94.4,84.1 94,80 92.7,76.2 90.7,72.8 88,69.8 84.7,67.3 81,65.5 
		76.8,64.3 72.4,63.9 68,64.3 63.8,65.5 60.1,67.3 56.8,69.8 54.1,72.8 52.1,76.2 50.8,80 50.4,84.1 50.8,88.1 	"/>
	<polygon fill="#99763D" points="63,123 62.6,119.2 61.5,115.7 59.8,112.5 57.5,109.7 54.7,107.4 51.5,105.7 48,104.6 44.3,104.2 
		40.5,104.6 37,105.7 33.8,107.4 31,109.7 28.7,112.5 27,115.7 25.9,119.2 25.5,123 25.9,126.7 27,130.2 28.7,133.4 31,136.2 
		33.8,138.5 37,140.2 40.5,141.3 44.3,141.7 48,141.3 51.5,140.2 54.7,138.5 57.5,136.2 59.8,133.4 61.5,130.2 62.6,126.7 63,123 	
		"/>
</svg>
