<?xml version="1.0" encoding="utf-8"?>
<!-- Generator: Adobe Illustrator 17.0.0, SVG Export Plug-In . SVG Version: 6.00 Build 0)  -->
<!DOCTYPE svg PUBLIC "-//W3C//DTD SVG 1.1//EN" "http://www.w3.org/Graphics/SVG/1.1/DTD/svg11.dtd">
<svg version="1.1" id="solid" xmlns="http://www.w3.org/2000/svg" xmlns:xlink="http://www.w3.org/1999/xlink" x="0px" y="0px"
	 width="400px" height="360px" viewBox="0 0 400 360" enable-background="new 0 0 400 360" xml:space="preserve">
<polygon fill="#CE9013" points="217.5,20.7 214.4,20.5 210.8,21.1 208,22.5 205.5,25.6 204.6,28.8 204.4,36.8 216.9,92.9 
	113.7,93.3 102.4,95.1 91.1,98.1 80.1,102.3 69.4,107.7 59.2,114.3 49.8,122.1 41.3,131.1 33.8,141 27.3,151.4 21.8,162.4 17.3,174 
	11.2,198.8 8.7,340.6 69.7,340.8 71.4,211.8 74.6,199 76.9,193 79.8,187.2 83.3,181.7 91.5,171.4 99.8,163.2 104.1,160 108.7,157.5 
	113.5,155.7 118.8,154.6 216.6,154.4 202.3,210.6 202.4,217.8 202.9,221 204.4,224.9 206.6,227.7 209.7,229.3 213.5,229.9 
	214.9,229.8 217.8,228.9 392.8,125.1 "/>
</svg>
