<?xml version="1.0" encoding="utf-8"?>
<!-- Generator: Adobe Illustrator 17.0.0, SVG Export Plug-In . SVG Version: 6.00 Build 0)  -->
<!DOCTYPE svg PUBLIC "-//W3C//DTD SVG 1.1//EN" "http://www.w3.org/Graphics/SVG/1.1/DTD/svg11.dtd">
<svg version="1.1" id="Layer_1" xmlns="http://www.w3.org/2000/svg" xmlns:xlink="http://www.w3.org/1999/xlink" x="0px" y="0px"
	 width="400px" height="400px" viewBox="0 0 400 400" enable-background="new 0 0 400 400" xml:space="preserve">
<polygon fill="#FFD36A" points="34.5,105.5 117.2,153.1 199.7,10.2 "/>
<polygon fill="#F59C37" points="199.9,10.1 282.4,153.1 365.2,105.5 "/>
<polygon fill="#824B37" points="282.4,153.1 365.2,296.5 365.2,105.5 "/>
<polygon fill="#F5BE5A" points="34.5,105.5 34.5,296.5 117.2,153.1 "/>
<polygon fill="#BA592F" points="199.7,296.5 34.5,296.5 199.8,392 "/>
<polygon fill="#824B37" points="199.7,296.5 199.8,392 365.2,296.5 "/>
<polygon fill="#F3AA3A" points="199.9,10.1 199.8,10.1 199.7,10.2 117.2,153.1 282.4,153.1 "/>
<polygon fill="#BA592F" points="282.4,153.1 199.7,296.5 365.2,296.5 "/>
<polygon fill="#F3AA3A" points="117.2,153.1 34.5,296.5 199.7,296.5 "/>
<polygon fill="#F59C37" points="117.2,153.1 199.7,296.5 282.4,153.1 "/>
</svg>
