<?xml version="1.0" encoding="utf-8"?>
<!-- Generator: Adobe Illustrator 17.0.0, SVG Export Plug-In . SVG Version: 6.00 Build 0)  -->
<!DOCTYPE svg PUBLIC "-//W3C//DTD SVG 1.1//EN" "http://www.w3.org/Graphics/SVG/1.1/DTD/svg11.dtd">
<svg version="1.1" id="Layer_1" xmlns="http://www.w3.org/2000/svg" xmlns:xlink="http://www.w3.org/1999/xlink" x="0px" y="0px"
	 width="400px" height="400px" viewBox="0 0 400 400" enable-background="new 0 0 400 400" xml:space="preserve">
<polygon fill="#B65464" points="337.7,190.3 330.6,154.4 303.7,88.9 283.8,59.5 258.4,34.8 234.9,20.6 206.8,13.1 193.2,13.1 
	183.8,14.8 153.7,26.5 128.3,46.5 98.7,84.4 78.1,127.7 64.2,178.4 61.3,203.7 60.1,230.7 62.3,257.7 67.3,282.4 89.5,329.6 
	109.3,352.7 132.4,370.1 158.8,381.9 191.1,388.9 215.7,388.9 237.2,385.1 266.6,374.1 291,357.3 310.6,335.1 332.8,287.5 
	338.3,261.7 340.4,224.5 "/>
<polygon fill="#81C56B" points="332.3,178.3 329.2,172.4 320.4,161.7 286.8,207.8 245,152.4 198,209.4 155.7,153.5 112.7,209.5 
	82.8,161.8 66.8,182.7 63.7,215 65.7,251.5 76.2,229.7 115.4,280.9 155.8,230 198.2,284.3 243.7,230 283,282 319,229.3 334.7,257.4 
	335.6,250.9 337,214 "/>
<polygon fill="#B65464" points="210.7,224.7 207.7,220.2 203.3,217.2 197.8,216 192.6,217.1 188.1,220.2 185,224.6 183.8,230 
	184.8,235.4 187.8,239.9 192.4,242.9 197.9,244.1 203.3,243 207.7,240.1 210.6,235.7 211.7,230.3 "/>
<polygon fill="#B65464" points="294.7,224.4 291.9,220 287.8,217 282.7,215.9 277.5,217 273.3,219.9 270.6,224.4 269.6,229.9 
	270.7,235.4 273.5,239.8 277.6,242.7 282.7,243.7 287.7,242.6 291.9,239.6 294.7,235.1 295.7,229.8 "/>
<polygon fill="#B65464" points="126.4,225 123.5,220.4 119.3,217.2 114.3,216 109.3,217.2 105.1,220.2 102.2,224.6 101,229.9 
	102,235.3 104.8,239.8 109.1,242.9 114.2,244.1 119.2,243 123.4,240.1 126.3,235.7 127.4,230.4 "/>
<polygon fill="#81C56B" points="297.9,86.5 297.3,90.4 293.2,99.2 288.9,102.5 283.7,103.2 278.3,101.4 274.3,97.8 272,92.8 
	271.6,89.8 271.7,86.7 272.3,83.7 275.2,79.1 280.1,76.5 283.4,76 291.8,76.5 291.3,75.4 272.9,52.3 251.2,33.6 229.9,22.1 
	206.5,16.7 182.4,18.4 159.8,27 130.9,48.5 107.1,78.6 113,76.3 120.1,76.1 123.9,78.2 127,81.8 128.7,86.1 129,90.8 127.9,95.3 
	125.5,99.1 122.2,101.8 118.4,103.2 114.3,103.3 107.9,100.5 105,96.7 103.5,91.3 103.3,84.1 92.6,102.4 92.5,106.2 114.6,137.2 
	157.2,83.3 199,139.2 246.7,83.3 289.1,140.6 308.5,105.3 "/>
<polygon fill="#B65464" points="212.6,84.2 209.6,79.6 205.1,76.5 199.7,75.3 194.3,76.5 189.8,79.6 186.8,84.2 185.6,89.6 
	186.8,95 189.8,99.3 194.2,102.3 199.7,103.3 205.2,102.3 209.6,99.4 212.6,95 213.7,89.7 "/>
<polygon fill="#81C56B" points="315.6,287.4 283.1,330.9 241.3,288.2 195.9,332 155.9,289.6 112.1,332.1 81.9,287.7 76,295.7 
	76.9,299.7 95.9,332.7 111.5,350.7 113.3,345.6 115.8,341.7 119.4,339.2 124.3,338.4 127.8,338.9 130.7,340.5 132.9,342.9 
	134.6,346 135.8,351 135.2,355.7 133,359.9 129.1,363.9 172.5,382.2 219.1,384.7 246.1,379.1 271.3,367.3 266.5,362.7 263.1,356.1 
	263.3,351.4 265,347 267.3,343.8 272,341.2 275.8,340.9 281,342.5 284.4,345.6 286.3,350 288.9,354.3 312.2,326.3 324.9,298.5 "/>
<polygon fill="#B65464" points="210.6,352.1 207.7,347.8 203.4,344.9 198.2,343.8 192.9,344.9 188.7,347.8 185.8,352.2 184.8,357.6 
	185.9,362.8 188.7,367.1 193,370 198.1,371.2 203.4,370.1 207.7,367.1 210.6,362.7 211.6,357.3 "/>
</svg>
