<?xml version="1.0" encoding="utf-8"?>
<!-- Generator: Adobe Illustrator 17.0.0, SVG Export Plug-In . SVG Version: 6.00 Build 0)  -->
<!DOCTYPE svg PUBLIC "-//W3C//DTD SVG 1.1//EN" "http://www.w3.org/Graphics/SVG/1.1/DTD/svg11.dtd">
<svg version="1.1" id="Layer_1" xmlns="http://www.w3.org/2000/svg" xmlns:xlink="http://www.w3.org/1999/xlink" x="0px" y="0px"
	 width="400px" height="400px" viewBox="0 0 400 400" enable-background="new 0 0 400 400" xml:space="preserve">
<polygon fill="#D4559F" points="197,12.9 193.2,69.8 281,67 "/>
<polygon fill="#E1499A" points="193.2,69.8 204.7,117.2 281,67 "/>
<polygon fill="#DC4B9B" points="204.7,117.2 225.7,158.7 281,67 "/>
<polygon fill="#D9499A" points="225.7,158.7 260.1,180.9 281,67 "/>
<polygon fill="#DD4799" points="281,67 260.1,180.9 300.6,180.9 "/>
<polygon fill="#E64398" points="281,67 300.6,180.9 337.3,158.7 "/>
<polygon fill="#D54298" points="281,67 337.3,158.7 361.8,115.5 "/>
<polygon fill="#17191D" points="222.4,94.6 227.6,96.1 227.6,82.2 "/>
<polygon fill="#17191D" points="212.8,55.8 217.7,58.4 219,44 "/>
<polygon fill="#17191D" points="246.9,77.2 251.2,79.4 253.3,65.3 "/>
<polygon fill="#17191D" points="255.3,113.7 260.1,118.4 262.1,104.7 "/>
<polygon fill="#17191D" points="282.1,98.3 286.6,100.3 287.7,86.3 "/>
<polygon fill="#17191D" points="291.7,136.7 295.4,140.1 297.1,126.8 "/>
<polygon fill="#17191D" points="319.2,120.6 323.9,123.1 323.9,109.9 "/>
<polygon fill="#F0DAEA" points="361.8,115.5 337.3,158.7 342.1,164.6 367.7,118.4 "/>
<polygon fill="#F0DAEA" points="337.3,158.7 300.6,180.9 302,188.6 342.1,164.6 "/>
<polygon fill="#F0DAEA" points="300.6,180.9 260.1,180.9 258.7,190.1 302,188.6 "/>
<polygon fill="#F0DAEA" points="225.7,158.7 222.4,164.6 258.7,190.1 260.1,180.9 "/>
<polygon fill="#F0DAEA" points="204.7,117.2 200.1,119.5 222.4,164.6 225.7,158.7 "/>
<polygon fill="#F0DAEA" points="193.2,69.8 188.6,69.8 200.1,119.5 205.5,117.2 "/>
<polygon fill="#F0DAEA" points="188.6,9 188.6,69.8 193.2,69.8 197,12.9 "/>
<polygon fill="#4A8351" points="185.5,7.1 184.3,69.8 188.6,69.8 191.2,10.2 "/>
<polygon fill="#4A8351" points="188.6,69.8 184.3,69.8 197,121 200.1,119.5 "/>
<polygon fill="#4A8351" points="200.1,119.5 197,121 219,170.6 222.4,164.6 "/>
<polygon fill="#4A8351" points="222.4,164.6 218.2,170.6 258.7,196.3 258.7,190.1 "/>
<polygon fill="#4A8351" points="302,188.6 258.7,190.1 258.7,196.3 305.3,196.3 "/>
<polygon fill="#4A8351" points="342.1,164.6 302,188.6 305.3,196.3 347.1,175.5 "/>
<polygon fill="#4A8351" points="367.7,118.4 342.1,164.6 347.1,175.5 374.3,123.1 "/>
<polygon fill="#37965C" points="347.1,175.5 367.7,162.4 374.3,123.1 "/>
<polygon fill="#374645" points="358.2,154 349.6,170.6 369.6,151.5 371.3,142.3 "/>
<polygon fill="#7E7C31" points="204.5,218 204.5,238.4 248.9,219.5 "/>
<polygon fill="#8C8733" points="204.5,218 248.9,219.5 248.9,181.9 "/>
<polygon fill="#989135" points="248.9,181.9 248.9,219.5 272.8,186.7 "/>
<polygon fill="#84792F" points="155.2,187.9 204.5,238.4 204.5,218 "/>
<polygon fill="#888332" points="126.2,195.9 146.8,225.3 155.2,187.9 "/>
<polygon fill="#7F782F" points="155.2,187.9 146.8,225.3 204.5,238.4 "/>
<polygon fill="#AEA236" points="177.1,90.3 155.2,187.9 204.5,218 "/>
<polygon fill="#ACA434" points="177.1,90.3 204.5,218 218.7,90.3 "/>
<polygon fill="#ADA534" points="218.7,90.3 204.5,218 248.9,181.9 "/>
<polygon fill="#AEA842" points="121.3,145.7 126.2,195.9 155.2,187.9 "/>
<polygon fill="#A9A950" points="121.3,145.7 155.2,187.9 160.6,73.6 "/>
<polygon fill="#AAA847" points="160.6,73.6 155.2,187.9 177.1,90.3 "/>
<polygon fill="#BFB551" points="227.9,70.2 218.7,90.3 248.9,181.9 "/>
<polygon fill="#BFB643" points="227.9,70.2 248.9,181.9 266.5,138 "/>
<polygon fill="#BCB44A" points="266.5,138 248.9,181.9 272.8,186.7 "/>
<polygon fill="#D5DD8A" points="204.5,63.5 186.3,63.5 160.6,73.6 177.1,90.3 218.7,90.3 227.9,70.2 "/>
<polygon fill="#40383D" points="191.9,41.9 192.7,77.7 197.9,77.7 197.9,41.9 "/>
<polygon fill="#B32140" points="53.8,212.2 26.7,220.6 49.2,257 106.5,276.9 106.5,246.3 "/>
<polygon fill="#C12436" points="151.3,208.7 106.5,246.3 106.5,276.9 159.9,253.4 178.9,212.2 "/>
<polygon fill="#EF4265" points="177,160.1 156.1,135.7 137.1,172.3 151.3,208.7 178.9,212.2 "/>
<polygon fill="#DB2446" points="137.1,172.3 65.3,173.9 53.8,212.2 106.5,246.3 151.3,208.7 "/>
<polygon fill="#D33961" points="40.9,142.4 25.1,165.9 26.7,220.6 53.8,212.2 65.3,173.9 "/>
<polygon fill="#EF5790" points="96.6,117.3 40.9,142.4 65.3,173.9 137.1,172.3 156.1,135.7 "/>
<polygon fill="#131211" points="96.6,117.3 91.5,119.6 98.5,147.2 102.5,147.2 "/>
<polygon fill="#DFAA26" points="305.7,144.5 311.1,184.9 320.1,144.5 "/>
<polygon fill="#C9A42D" points="305.7,144.5 300.2,184.9 311.1,184.9 "/>
<polygon fill="#DFBC25" points="295.7,137.3 279.3,172.5 300.2,184.9 "/>
<polygon fill="#D9B428" points="295.7,137.3 300.2,184.9 305.7,144.5 "/>
<polygon fill="#F0D88E" points="307.7,135.8 305.7,144.5 320.1,144.5 "/>
<polygon fill="#FEE46D" points="295.7,137.3 305.7,144.5 307.7,135.8 "/>
<polygon fill="#EFDD5B" points="201.1,237.7 243.1,262.8 279.3,172.5 "/>
<polygon fill="#D8D577" points="279.3,172.5 243.1,262.8 300.2,184.9 "/>
<polygon fill="#C9A32D" points="300.2,184.9 243.1,262.8 260.6,266 310,193.4 311.1,184.9 "/>
<polygon fill="#FEE868" points="201.1,237.7 152.5,256.3 195,284 243.1,262.8 "/>
<polygon fill="#FFE661" points="152.5,256.3 68.4,277.2 71.4,284 92.8,289.2 195,284 "/>
<polygon fill="#D8AE28" points="81,289.2 75.3,310 128.2,344.9 195,284 "/>
<polygon fill="#D4A92A" points="128.2,344.9 192.4,335.1 195,284 "/>
<polygon fill="#CE922A" points="243.1,262.8 195,284 192.4,335.1 260.6,266 "/>
<polygon fill="#020202" points="63.2,278.9 55.8,297.7 73.9,309.1 81,289.2 "/>
<polygon fill="#1D1F12" points="63.2,278.9 71.7,283.8 71.7,276.3 "/>
<polygon fill="#140D17" points="82.3,289.2 79.3,298.5 92.8,289.2 "/>
<polygon fill="#140D17" points="79.3,299.3 75.3,310 82.1,314.5 "/>
<polygon fill="#F0EBF1" points="80.3,288.7 73.5,308.9 76.3,310 83.7,290.3 "/>
<polygon fill="#140D17" points="74.2,285.2 81,289.2 92.8,289.2 "/>
<polygon fill="#F0EBF1" points="88.3,288.1 80.3,288.7 83.7,290.3 91.9,288.8 "/>
<polygon fill="#FEEB73" points="340.2,146.9 327.5,148.8 342.6,152.5 353.3,150.6 "/>
<polygon fill="#D4B42A" points="342.6,152.5 327.5,148.8 315.1,187.7 343.2,195 "/>
<polygon fill="#D1B52B" points="342.6,152.5 343.2,195 350.7,194.1 353.3,150.6 "/>
<polygon fill="#C5A633" points="343.2,195 320.5,284 347.9,271.6 350.7,194.1 "/>
<polygon fill="#E9DA61" points="315.1,187.7 259.5,267.3 320.5,284 343.2,195 "/>
<polygon fill="#FDE965" points="259.5,267.3 230.6,296.7 290.4,316.8 320.5,284 "/>
<polygon fill="#D0AB2B" points="320.5,284 290.4,316.8 323.5,349.4 "/>
<polygon fill="#CBA72C" points="320.5,284 323.5,349.4 347.9,271.6 "/>
<polygon fill="#D3AB2A" points="290.4,316.8 288.1,388.9 323.5,349.4 "/>
<polygon fill="#CCA32C" points="248.2,394.3 288.1,388.9 290.4,316.8 "/>
<polygon fill="#D4AC2A" points="224.3,344.9 213.2,357.4 216.8,372.6 248.2,394.3 290.4,316.8 "/>
<polygon fill="#FDEA68" points="230.6,296.7 192.4,335.1 203.3,343.4 224.3,344.9 290.4,316.8 "/>
<polygon fill="#CEA62B" points="216.8,372.6 184.4,359.7 199.5,377.8 248.2,394.3 "/>
<polygon fill="#0A0F10" points="190.5,338.3 184.4,359.7 210.6,366.6 216.3,348.6 "/>
<polygon fill="#1E150B" points="213.6,356.9 209.4,366.6 217.8,373.3 "/>
<polygon fill="#0E1414" points="202.7,343.2 214,358.2 224.3,344.9 "/>
<polygon fill="#1A2727" points="192.4,334.4 190.5,338.3 202.7,343.2 "/>
<polygon fill="#E9E5DC" points="209.6,366.3 184.4,359.7 214.8,371.8 "/>
</svg>
