<?xml version="1.0" encoding="utf-8"?>
<!-- Generator: Adobe Illustrator 17.0.0, SVG Export Plug-In . SVG Version: 6.00 Build 0)  -->
<!DOCTYPE svg PUBLIC "-//W3C//DTD SVG 1.1//EN" "http://www.w3.org/Graphics/SVG/1.1/DTD/svg11.dtd">
<svg version="1.1" id="solid" xmlns="http://www.w3.org/2000/svg" xmlns:xlink="http://www.w3.org/1999/xlink" x="0px" y="0px"
	 width="400px" height="400px" viewBox="0 0 400 400" enable-background="new 0 0 400 400" xml:space="preserve">
<polygon fill="#664630" points="329.6,222.7 326.6,219.6 321.4,218.8 318.5,219.6 315.4,222.6 314.5,226.9 316,230.8 319.2,233.2 
	322.2,233.8 326.5,232.8 329.5,229.8 330.5,225.6 "/>
<polygon fill="#664630" points="329.6,306.7 327.6,304.4 323.6,302.8 319.4,303.7 318.1,304.6 298.2,319.3 275.1,331.9 272.6,335.4 
	272.3,339.7 274,342.9 276.5,344.8 280,345.5 322.6,320.3 328.9,314.9 330.5,310.9 "/>
<polygon fill="#664630" points="256.5,343.9 253,341.4 248.6,341.3 224.6,346.2 200,347.9 172.3,345.8 145.5,339.6 119.9,329.5 
	94.7,314.7 90.4,314.3 86.6,316.2 84.9,318.7 84.4,323 86.4,326.8 113.4,342.9 141,353.9 170,360.6 213.4,362.4 252.6,355.8 
	255.3,354.4 257.7,350.9 257.9,346.6 "/>
<polygon fill="#664630" points="83.3,306.2 80.3,303.2 76.3,302.2 72.4,303.5 70.1,305.9 69.1,309.5 71,314.8 73.9,317.1 
	77.9,317.8 81.8,316.2 83.8,313.9 84.6,310.3 "/>
<polygon fill="#664630" points="235.2,108 232.7,102.1 230.9,99.5 228.7,97.2 226.2,95.3 223.5,93.8 220.5,92.7 217.4,92 
	214.2,91.7 209.8,92.2 205.8,93.4 202.1,95.4 198.9,98.1 196.2,101.3 194.2,105 192.9,109 192.5,113.4 192.9,117.8 194.2,121.8 
	196.2,125.5 198.9,128.7 202.1,131.4 205.8,133.4 209.8,134.7 215,135.1 220.4,134.1 216.7,119.9 215.8,120.1 212.9,120 
	209.5,118.2 207.6,114.8 208,110.8 210.5,107.8 214.2,106.7 217.9,107.8 220.4,110.8 220.8,114.5 219.6,117.4 217.3,119.4 221,134 
	224.1,132.7 227,130.9 229.5,128.8 231.7,126.2 233.5,123.4 234.8,120.3 235.6,116.9 235.9,112.3 "/>
<polygon fill="#664630" points="316.8,205.4 206,10.5 202.9,8.1 199,7.6 195.4,9.1 31.3,292.3 30.8,295.3 31.9,299.1 46.8,319.9 
	63.9,338.3 83,354.3 103.8,367.7 126.2,378.3 149.8,386.1 174.5,390.8 213,392 238.5,388.7 263,382.3 297.4,367 292.6,352.4 
	271.2,363.2 248.4,371 224.6,375.8 200,377.5 177,376 154.7,371.8 133.3,365 113,355.6 94,343.8 76.6,329.7 60.8,313.3 47.1,294.9 
	58.9,274.4 89.2,299.5 123.5,318 160.8,329.5 200,333.5 241.4,329.1 280.7,316.2 275.9,301.9 239,314.2 200,318.5 162.8,314.6 
	127.4,303.4 95,285.3 66.7,260.8 200,30.1 304,212.7 307.7,215 312,214.9 314.6,213.4 316.9,209.7 "/>
<polygon fill="#664630" points="368.3,291.5 340.3,240.6 336.7,238.3 332.4,238.3 328.7,240.8 327.1,244.7 334,260 307.1,283.8 
	276.3,301.8 281,316.1 313.1,297.9 341.6,273.8 353,294.8 326,327.3 292.9,352.3 297.7,366.8 318.1,353.5 336.7,337.7 353.5,319.5 
	368.1,299.1 369.2,295.4 "/>
<polygon fill="#664630" points="267.3,275.6 262,276.5 258.6,276.1 255.5,275.1 252.6,273.6 250.1,271.5 248,269 246.5,266.1 
	245.5,263 245.2,259.6 246,254.3 248.4,249.6 252.1,246 256.7,243.6 252,229.4 247.5,231.3 243.3,233.9 239.5,237.1 236.4,240.8 
	233.7,244.9 231.8,249.5 230.6,254.4 230.2,259.6 230.8,266 232.7,272 235.6,277.4 239.5,282.1 244.2,286 249.6,288.9 255.6,290.8 
	263.3,291.4 268.4,290.8 272,289.8 "/>
<polygon fill="#664630" points="293.2,253.2 291.3,247.2 288.4,241.8 284.5,237.1 279.8,233.2 274.4,230.3 268.4,228.4 260.8,227.8 
	255.9,228.4 252.4,229.3 257.1,243.5 262,242.7 265.4,243.1 268.6,244.1 271.4,245.6 273.9,247.7 276,250.2 277.5,253 278.5,256.2 
	278.9,259.6 278,264.8 275.7,269.4 272.1,273.1 267.6,275.5 272.3,289.7 276.8,287.8 280.9,285.2 284.6,282 287.8,278.3 
	290.3,274.1 292.2,269.6 293.4,264.7 293.9,259.6 "/>
<polygon fill="#664630" points="197.1,194.5 195.5,189.3 192.9,184.7 189.6,180.6 185.5,177.2 180.8,174.7 175.7,173.1 170.1,172.5 
	164.6,173.1 159.5,174.7 154.8,177.2 150.7,180.6 147.4,184.7 144.8,189.3 143.2,194.5 142.7,200 143.1,205 144.5,209.8 
	146.6,214.1 149.4,218 152.9,221.3 156.9,224 161.3,226 166.1,227.2 167.6,212.2 163.6,210.7 160.5,207.9 158.4,204.3 157.7,200 
	158.6,195.1 161.3,191.2 165.3,188.5 170.1,187.5 175,188.5 179,191.2 181.6,195.1 182.6,200 181.6,204.9 179,208.8 175,211.5 
	168.4,212.5 166.8,227.2 170.1,227.5 175.7,226.9 180.8,225.3 185.5,222.8 189.6,219.4 192.9,215.3 195.5,210.7 197.1,205.5 
	197.6,200 "/>
</svg>
