<?xml version="1.0" encoding="utf-8"?>
<!-- Generator: Adobe Illustrator 17.0.0, SVG Export Plug-In . SVG Version: 6.00 Build 0)  -->
<!DOCTYPE svg PUBLIC "-//W3C//DTD SVG 1.1//EN" "http://www.w3.org/Graphics/SVG/1.1/DTD/svg11.dtd">
<svg version="1.1" id="solid" xmlns="http://www.w3.org/2000/svg" xmlns:xlink="http://www.w3.org/1999/xlink" x="0px" y="0px"
	 width="400px" height="400px" viewBox="0 0 400 400" enable-background="new 0 0 400 400" xml:space="preserve">
<polygon fill="#ED2224" points="336.4,109.5 333,98.7 328.5,88.5 323,78.7 316.4,69.3 300.5,51.9 283.6,38.6 274.5,33.1 254.7,24.4 
	224.5,17.1 202.8,16.3 177.9,17.9 150.9,24.1 127.2,34.1 112.3,43.3 99,54.4 87.4,67.2 77.6,81.4 69.8,96.8 64,113.2 60.5,130.5 
	59.3,148.4 60.1,161.7 62.5,174.8 66.3,187.5 71.4,199.4 77.6,210.3 84.8,219.7 88.6,223.8 96.9,230.6 105.1,235 107.2,235.4 
	115.8,205.3 114.8,202.9 111.4,198 107.8,191.7 101.6,176.3 99.6,168.5 98,157.5 98.1,140.1 99.7,130.1 104.2,114.9 110.8,101 
	119.5,88.4 130,77.5 135.8,72.7 148.8,64.5 163.1,58.3 178.8,54.3 198.8,53 218.8,54.3 229.5,56.8 239.5,60.3 248.9,64.9 
	257.5,70.4 265.4,76.9 272.4,84.2 278.5,92.4 283.6,101.4 287.5,110.4 290.2,119.5 292,129 292.8,139.7 292.4,159.4 289.7,177.8 
	284.9,194.8 281.8,202.6 274.1,216.7 269.6,222.9 264.7,228.5 259.4,233.4 253.8,237.6 247.9,241.1 241.6,243.9 235,245.8 
	227.5,246.9 216.1,246.6 209.5,245.2 206.8,244.2 202.8,242 199.2,239.4 197.5,237.9 193.2,232.9 189.9,227.2 188.4,223.1 
	187.5,218.8 187.2,212.7 188.1,206.2 205,143.4 206,137 206.2,131.5 205.9,126.5 204.4,119.6 203.3,116.7 201,112.7 199.2,110.3 
	197.1,108.1 194.8,106.3 192.3,104.7 189.7,103.6 186.9,102.7 181.3,101.9 175.5,102.2 169.9,103.5 165.8,105.2 163.4,106.6 
	158.3,110.5 153.4,115.3 148.5,121.9 144.9,129.4 142.8,136.3 141.4,143.6 140.6,159.1 142.8,174.6 146.9,187.3 119.2,308.6 
	119.8,385.1 137.4,359.7 158.7,314.8 175,256.9 176.8,256 179.4,259.3 187.3,267.1 194.9,272.3 203.4,276.2 212.6,278.9 
	222.6,280.3 233,280.4 243.9,279.1 255.1,276.5 269,271.4 284.3,262.9 293.8,255.4 305.8,243.6 314.6,232.3 322.3,220 328.7,206.7 
	333.8,192.6 337.5,177.8 339.8,162.5 340.3,132.6 336.4,109.5 "/>
</svg>
