<?xml version="1.0" encoding="utf-8"?>
<!-- Generator: Adobe Illustrator 17.0.0, SVG Export Plug-In . SVG Version: 6.00 Build 0)  -->
<!DOCTYPE svg PUBLIC "-//W3C//DTD SVG 1.1//EN" "http://www.w3.org/Graphics/SVG/1.1/DTD/svg11.dtd">
<svg version="1.1" id="solid" xmlns="http://www.w3.org/2000/svg" xmlns:xlink="http://www.w3.org/1999/xlink" x="0px" y="0px"
	 width="400px" height="220px" viewBox="0 0 400 220" enable-background="new 0 0 400 220" xml:space="preserve">
<polygon fill="#9E2D28" points="135.9,181.6 133.9,179.3 110.6,178 99.2,175.4 88.9,170.3 79.8,162.9 75.1,157.7 72.2,156.4 
	69.1,157 66.8,159.2 66.1,162.2 67.3,165.2 77.3,175.4 89.2,182.9 102.4,187.6 116.5,189.2 132,189.1 134.7,187.6 136.2,184.9 "/>
<polygon fill="#9E2D28" points="152.8,180.7 150.4,178.7 147.1,178.3 143.8,179.3 141.6,182.7 141.9,185.9 143.8,188.3 146.9,189.2 
	150.4,188.8 152.8,186.8 153.7,183.8 "/>
<polygon fill="#9E2D28" points="392.4,130.2 389.8,127 385.8,125.8 347.9,125.8 346.3,117.2 343.7,109.1 340.2,101.4 330.6,87.8 
	317.9,76.9 310.7,72.7 305.1,82.1 316.8,89.7 326.3,99.8 333.2,112 335.5,118.7 336.9,125.8 329.6,125.8 328.2,119.7 326.1,113.9 
	320,103.4 311.6,94.8 301.4,88.3 295.8,97.7 303.8,102.5 310.5,109 315.5,116.8 318.5,125.8 308.4,125.8 305.8,119.4 301.8,113.9 
	296.8,109.5 290.8,106.3 285.1,115.8 288.8,117.3 292.1,119.6 294.8,122.4 296.8,125.8 278.5,125.8 275.4,115.5 279.8,115 
	284.8,115.7 290.5,106.1 285.3,104.6 279.8,104.1 274.7,104.5 269.8,105.8 262.6,98.2 270.9,95.3 279.8,94.3 287.9,95.1 295.6,97.6 
	301.2,88.2 290.9,84.6 279.8,83.4 272.4,83.9 265.3,85.5 258.5,88.1 252.1,91.6 243.9,88.7 251.9,83.3 260.7,79.4 270,77 
	279.8,76.2 292.8,77.7 304.9,81.9 310.4,72.5 295.8,67.2 279.8,65.3 264.6,42.4 255.9,32.9 246,24.8 234.9,18.2 222.9,13.4 
	210.2,10.4 193.7,9.5 180.9,10.9 171.6,13.3 175.5,23.5 186,21.1 197,20.3 208.2,21.1 219,23.6 229.2,27.6 238.7,33 247.2,39.7 
	254.8,47.6 261.1,56.7 266.1,66.7 253.4,70.6 249.2,62.6 243.9,55.4 237.7,49.1 230.7,43.7 223,39.4 214.8,36.2 206,34.2 
	194.8,33.6 180.1,35.8 184,46.1 190.4,44.8 197,44.4 204.5,45 211.8,46.6 218.7,49.3 225,53 230.8,57.5 235.9,62.8 240.2,68.9 
	243.7,75.6 234.8,82.1 232.4,76.3 229.1,71.1 225.1,66.4 220.4,62.5 215.2,59.3 209.5,56.9 203.4,55.5 195.8,55 187.7,56 
	191.6,66.3 197,65.8 201.9,66.3 206.6,67.5 211,69.4 215,72 218.4,75.3 221.4,79 223.7,83.3 225.2,87.9 217.9,89.7 222,99.9 
	227.2,98.6 232.6,98.2 238.8,98.7 244.7,100.3 250.1,102.8 255,106.1 259.2,110.1 262.8,114.8 265.5,120.1 267.4,125.8 257.1,125.8 
	255.5,122.1 253.4,118.7 250.8,115.7 247.8,113.1 244.5,111 240.8,109.5 236.8,108.5 231.7,108.2 225.6,109.1 229.7,119.3 
	234.5,119.2 238.1,120.1 242.7,123 245.1,125.8 220.2,125.8 224.1,121.7 229.4,119.4 225.4,109.2 219.6,111.7 214.7,115.4 
	210.9,120.2 208.2,125.8 201.2,125.8 200,117.8 205.5,110.7 210.3,106.1 215.7,102.5 221.7,99.9 217.7,89.8 211.5,92.4 205.8,95.9 
	200.6,100.1 196.1,105 187.3,89.1 175,75.8 178.5,72.5 182.4,69.7 186.7,67.7 191.3,66.4 187.4,56.1 181.4,58.1 175.8,61 
	170.7,64.8 166.2,69.4 156.8,64.3 162.4,58.1 168.8,53 176,49 183.7,46.2 179.8,35.9 170,39.7 160.9,45.1 152.9,52.1 146.1,60.5 
	132.1,58 140.3,46.3 150.5,36.6 162.2,28.9 175.2,23.6 171.3,13.4 155.4,20.2 141.1,30.2 129.1,42.8 119.8,57.9 106.7,60 94.4,64.2 
	83.2,70.3 73.2,78.2 81.3,85.5 90.7,78.4 101.4,73.1 113,69.7 125.4,68.6 137.7,69.7 149.1,72.9 159.6,78.1 168.9,85 176.8,93.4 
	183.2,103.1 187.7,114 190.3,125.8 175.3,125.8 173,117 169.3,109 164.3,101.8 158.2,95.6 151.1,90.4 143.1,86.6 134.5,84.2 
	125.4,83.4 116.3,84.2 107.7,86.6 99.7,90.5 92.6,95.6 100.8,103 106.2,99.3 112.2,96.6 118.6,94.9 125.4,94.3 132.4,94.9 
	138.9,96.7 145,99.5 150.5,103.3 155.2,107.9 159.2,113.3 162.2,119.3 164.2,125.8 151.8,125.8 150.2,121.7 147.9,118 145.2,114.6 
	141.9,111.8 138.3,109.5 134.2,107.7 129.9,106.6 123.3,106.3 119.1,107 115.2,108.2 109.8,111.1 118.3,118.7 121.7,117.6 
	125.4,117.2 129.9,117.8 134,119.5 137.4,122.3 140,125.8 110.8,125.8 113.9,121.8 118.1,118.9 109.6,111.3 106.1,114.1 
	103.1,117.6 100.7,121.5 99,125.8 86.7,125.8 88.7,119.2 91.7,113.2 95.7,107.8 100.5,103.1 92.4,95.8 86.3,102 81.4,109.2 
	77.8,117.1 75.6,125.8 60.6,125.8 63,114.3 67.4,103.6 73.5,94 81.1,85.7 73,78.4 64.2,88.3 57.2,99.6 52.3,112.2 49.6,125.8 
	12.8,125.9 9.1,127.9 7.1,131.6 7.6,135.9 10.2,139.1 38,140.3 38.5,154.5 40.1,162.6 42.6,170.2 46.1,177.4 50.3,184.1 61.1,195.6 
	67.5,200.3 77.2,189.2 71.9,185.6 67.1,181.4 62.9,176.6 59.3,171.3 56.4,165.6 54.3,159.4 52.9,152.9 52.5,141.8 346.1,140.3 
	346.5,156.2 343.6,165.6 339,174.1 332.9,181.5 325.5,187.6 317,192.2 307.7,195.1 99,196 92.4,195.1 86.2,193.4 77.5,189.4 
	67.8,200.5 75.6,204.8 84,207.9 93,209.9 310.6,209.3 322.7,205.5 333.6,199.6 343.2,191.7 351,182.2 357,171.2 360.7,159.1 
	362,140.5 387.2,140.2 390.9,138.2 392.9,134.5 "/>
</svg>
