<?xml version="1.0" encoding="utf-8"?>
<!-- Generator: Adobe Illustrator 17.0.0, SVG Export Plug-In . SVG Version: 6.00 Build 0)  -->
<!DOCTYPE svg PUBLIC "-//W3C//DTD SVG 1.1//EN" "http://www.w3.org/Graphics/SVG/1.1/DTD/svg11.dtd">
<svg version="1.1" id="Layer_1" xmlns="http://www.w3.org/2000/svg" xmlns:xlink="http://www.w3.org/1999/xlink" x="0px" y="0px"
	 width="400px" height="400px" viewBox="0 0 400 400" enable-background="new 0 0 400 400" xml:space="preserve">
<polygon fill="#8A181A" points="158.9,64.7 154.8,76.5 171.3,76.5 "/>
<polygon fill="#8A181A" points="154.813,76.313 117.4,77.9 161.2,93.1 167.6,86.2 171.3,76.5 "/>
<polygon fill="#D81F26" points="240.5,131.4 185.563,126.875 160.3,135.3 186.5,135.3 244,145.6 244,132.9 "/>
<polygon fill="#9C1C1F" points="173.4,21.9 179.6,50.9 201.1,25 "/>
<polygon fill="#981B1E" points="173.4,21.9 131.3,29.4 179.6,50.9 "/>
<polygon fill="#8C181B" points="131.3,29.4 127.8,50.9 179.6,50.9 "/>
<polygon fill="#801517" points="123,30.9 82.2,48.1 123.7,54.8 127.8,50.9 131.3,29.4 "/>
<polygon fill="#B44425" points="179.6,50.9 158.9,64.7 171.3,76.5 187.2,82 "/>
<polygon fill="#AA2923" points="127.8,50.9 123.7,54.8 158.9,64.7 179.6,50.9 "/>
<polygon fill="#CF2027" points="123.7,54.8 82.2,48.1 117.4,77.9 154.8,76.5 158.9,64.7 "/>
<polygon fill="#CD2027" points="117.4,77.9 118.1,93.1 160.1,92.7 "/>
<polygon fill="#D91F26" points="117.4,77.9 82.2,48.1 42.8,77.9 118.1,93.1 "/>
<polygon fill="#D61F26" points="34.8,92.9 20,120.7 18,130 105.1,109.2 "/>
<polygon fill="#AC1E23" points="42.8,77.9 35.2,93.1 105.1,109.2 118.1,93.1 "/>
<polygon fill="#CF2026" points="160.5,92.333 131.313,92.875 123.7,118 136.1,120 161.563,93.375 "/>
<polygon fill="#831618" points="244,82 220.8,82 214.813,106.125 256,102.1 "/>
<polygon fill="#861619" points="187.2,82 175.5,97.2 215.8,104.8 220.8,82 "/>
<polygon fill="#981B1E" points="171.3,76.5 167.6,86.2 136.1,120 146.5,124.2 175.5,97.2 187.2,82 "/>
<polygon fill="#BE2025" points="175.5,97.2 146.5,124.2 185.3,126.9 215.8,104.8 "/>
<polygon fill="#AC1E23" points="146.5,124.2 136.1,120 123.7,118 123.625,139.188 160.3,135.3 185.3,126.9 "/>
<polygon fill="#CD2027" points="217.7,105.2 215.8,104.8 185.3,126.9 240.5,131.4 "/>
<polygon fill="#BF2026" points="256,102.1 217.7,105.2 241.688,133.625 275.7,124.2 "/>
<polygon fill="#A51E22" points="270,89.6 256,102.1 275.7,124.2 295.5,118.7 "/>
<polygon fill="#801517" points="263.3,82 250.2,70.2 244,82 256,102.1 270,89.6 "/>
<polygon fill="#851619" points="269.5,59.9 250.2,70.2 263.3,82 286.1,60.6 286.1,54.8 "/>
<polygon fill="#C42126" points="286.1,60.6 263.3,82 270,89.6 289.6,77.2 "/>
<polygon fill="#EF3E23" points="286.1,60.6 289.6,77.2 304.8,82 304.8,60.6 "/>
<polygon fill="#D71F26" points="289.6,77.2 270,89.6 295.5,118.7 304.8,82 "/>
<polygon fill="#B41F24" points="304.8,82 295.5,118.7 339.3,89.6 "/>
<polygon fill="#C02026" points="339.3,89.6 281.4,148.7 354.5,124.2 "/>
<polygon fill="#D22027" points="295.5,118.7 244,132.9 281.4,148.7 339.3,89.6 "/>
<polygon fill="#D52027" points="244,132.9 244,156 281.4,148.7 "/>
<polygon fill="#FEE8D6" points="186.5,135.3 178.9,165.1 244,165.1 244,156 244,145.6 "/>
<polygon fill="#F7A49E" points="160.3,135.3 139.6,153.2 178.9,165.1 186.5,135.3 "/>
<polygon fill="#EE312A" points="123.7,138.7 139.6,153.2 160.3,135.3 "/>
<polygon fill="#8C181B" points="69.1,153.9 123.7,135.3 123.7,118 "/>
<polygon fill="#A41D21" points="131.313,92.875 118.1,93.1 69.1,153.9 123.7,118 131.875,93.688 "/>
<polygon fill="#991B1E" points="18,130 40.1,140.8 61.5,135.3 94.7,122.1 105.1,109.2 "/>
<polygon fill="#5A0E0D" points="61.5,135.3 40.1,140.8 8.8,183 69.1,153.9 94.7,122.1 "/>
<polygon fill="#4C1211" points="8.8,183 44.2,192.6 61.5,191.9 69.1,153.9 "/>
<polygon fill="#6E0E0F" points="69.1,153.9 61.5,191.9 89.8,204.3 "/>
<polygon fill="#8D181B" points="69.1,153.9 89.8,204.3 123.7,135.3 "/>
<polygon fill="#D91F26" points="123.7,138.7 123.7,135.3 105.1,173 123.7,177.4 139.6,153.2 "/>
<polygon fill="#DF1F26" points="139.6,153.2 123.7,177.4 148.5,178.8 178.9,165.1 "/>
<polygon fill="#D52027" points="178.9,165.1 148.5,178.8 215.8,196.1 "/>
<polygon fill="#D02027" points="178.9,165.1 215.8,196.1 244,189.8 244,165.1 "/>
<polygon fill="#BA2025" points="244,156 244,189.8 295.5,191.9 313.1,195.4 "/>
<polygon fill="#C72026" points="281.4,148.7 244,156 313.1,195.4 "/>
<polygon fill="#C62026" points="281.4,148.7 313.1,195.4 354.5,124.2 "/>
<polygon fill="#A71E22" points="354.5,124.2 313.1,195.4 359.6,157.2 "/>
<polygon fill="#A21D21" points="359.6,157.2 313.1,195.4 326.9,222.3 350.7,222.3 362.1,173.9 "/>
<polygon fill="#6C0D0F" points="313.1,195.4 295.5,191.9 286.1,254.2 326.9,222.3 "/>
<polygon fill="#6E0E10" points="267.4,189.8 267.4,246.6 286.1,254.2 295.5,191.9 "/>
<polygon fill="#751113" points="244,189.8 237.7,259 267.4,246.6 267.4,189.8 "/>
<polygon fill="#821518" points="215.8,196.1 215.8,245.9 237.7,259 244,189.8 "/>
<polygon fill="#5F0C0C" points="181,185.7 172,227.8 145.1,238.2 215.8,245.9 215.8,196.1 "/>
<polygon fill="#811517" points="148.5,178.8 145.1,238.2 172,227.8 181,185.7 "/>
<polygon fill="#6E0E0F" points="123.7,177.4 101.5,237.5 145.1,238.2 148.5,178.8 "/>
<polygon fill="#620D0D" points="105.1,173 89.8,204.3 79.4,235.4 101.5,237.5 123.7,177.4 "/>
<polygon fill="#4A1212" points="61.5,191.9 49.7,233.9 79.4,235.4 89.8,204.3 "/>
<polygon fill="#301111" points="18,130 8.2,176 8.8,183 40.1,140.8 "/>
<polygon fill="#301111" points="8.8,183 13.9,232 44.2,192.6 "/>
<polygon fill="#351212" points="44.2,192.6 13.9,232 49.7,233.9 61.5,191.9 "/>
<polygon fill="#200D0D" points="29.8,235.4 24.4,232.6 13.9,232 18.6,260.4 29.8,281.8 56.4,286 "/>
<polygon fill="#311111" points="24.4,232.6 29.8,235.4 56.4,286 79.4,235.4 "/>
<polygon fill="#371312" points="79.4,235.4 56.4,286 70.1,288.2 101.5,237.5 "/>
<polygon fill="#311211" points="70.1,288.2 94.7,292.2 101.5,237.5 "/>
<polygon fill="#381312" points="101.5,237.5 94.7,292.2 145.1,238.2 "/>
<polygon fill="#3B1312" points="94.7,292.2 111.9,294.9 118.8,294.9 145.1,238.2 "/>
<polygon fill="#361212" points="145.1,238.2 118.8,294.9 172,294.9 "/>
<polygon fill="#4E1212" points="145.1,238.2 172,294.9 215.8,245.9 "/>
<polygon fill="#4B1212" points="215.8,245.9 172,294.9 227.7,293.6 237.7,259 "/>
<polygon fill="#650E0E" points="267.4,246.6 237.7,259 227.7,293.6 286.1,254.2 "/>
<polygon fill="#311111" points="286.1,254.2 227.7,293.6 286.1,291.5 326.9,270 "/>
<polygon fill="#561010" points="326.9,222.3 286.1,254.2 326.9,270 350.7,222.3 "/>
<polygon fill="#4C1211" points="350.7,222.3 326.9,270 357.3,252.8 358,237.5 "/>
<polygon fill="#3C1312" points="371.9,243.4 350.7,222.3 358,237.5 357.3,252.8 "/>
<polygon fill="#2E1010" points="357.3,252.8 340.7,306 354.4,295.4 371.9,243.4 "/>
<polygon fill="#2A0F10" points="326.9,270 340.7,306 357.3,252.8 "/>
<polygon fill="#2D1010" points="326.9,270 320.5,315.3 340.7,306 "/>
<polygon fill="#351212" points="286.1,291.5 320.5,315.3 326.9,270 "/>
<polygon fill="#2B1010" points="286.1,291.5 256,336.2 282.6,332.8 320.5,315.3 "/>
<polygon fill="#2C1010" points="227.7,293.6 256,336.2 286.1,291.5 "/>
<polygon fill="#2D1010" points="227.7,293.6 211.5,341.9 256,336.2 "/>
<polygon fill="#321211" points="172,294.9 211.5,341.9 227.7,293.6 "/>
<polygon fill="#2E1010" points="172,294.9 139.6,338.5 211.5,341.9 "/>
<polygon fill="#290F0F" points="118.8,294.9 86.2,328.9 139.6,338.5 "/>
<polygon fill="#2B1010" points="118.8,294.9 139.6,338.5 172,294.9 "/>
<polygon fill="#290F0F" points="111.9,294.9 70.1,288.2 86.2,328.9 118.8,294.9 "/>
<polygon fill="#190C0C" points="56.4,286 29.8,281.8 41.4,303.9 56.4,323.6 70.1,288.2 "/>
<polygon fill="#1E0D0D" points="70.1,288.2 56.4,323.6 86.2,328.9 "/>
<polygon fill="#050303" points="56.4,323.6 67.7,338.5 76.7,346.8 105.1,332.3 "/>
<polygon fill="#020202" points="76.7,346.8 95.3,364 105.1,332.3 "/>
<polygon fill="#010101" points="105.1,332.3 95.3,364 147.2,379.2 "/>
<polygon fill="#0E0808" points="139.6,338.5 105.1,332.3 147.2,379.2 174.8,340.1 "/>
<polygon fill="#050303" points="174.8,340.1 147.2,379.2 201.1,379.2 "/>
<polygon fill="#170B0C" points="211.5,341.9 174.8,340.1 201.1,379.2 227.7,339.8 "/>
<polygon fill="#170B0C" points="227.7,339.8 201.1,379.2 255,379.2 "/>
<polygon fill="#190C0C" points="227.7,339.8 255,379.2 282.6,332.8 "/>
<polygon fill="#13090A" points="282.6,332.8 255,379.2 308.2,352.3 "/>
<polygon fill="#190C0C" points="282.6,332.8 308.2,352.3 320.5,315.3 "/>
<polygon fill="#12090A" points="320.5,315.3 308.2,352.3 345.1,322.5 "/>
<polygon fill="#150B0B" points="340.7,306 320.5,315.3 345.1,322.5 354.4,295.4 "/>
<polygon fill="#150B0B" points="354.4,295.4 345.1,322.5 354.5,315 371.9,281.8 "/>
<polygon fill="#341212" points="371.9,243.4 354.4,295.4 371.9,281.8 385.7,255.5 389.4,232 "/>
<polygon fill="#580E0D" points="350.7,222.3 371.9,243.4 389.4,232 394,204.3 "/>
<polygon fill="#341212" points="390.8,183 350.7,222.3 394,204.3 "/>
<polygon fill="#6A0C0D" points="390.8,183 384.3,138.7 359.6,157.2 362.1,173.9 350.7,222.3 "/>
<polygon fill="#710F11" points="354.5,124.2 359.6,157.2 384.3,138.7 "/>
<polygon fill="#5C0C0D" points="351.8,81.4 354.5,124.2 384.3,138.7 "/>
<polygon fill="#5B0C0D" points="351.8,81.4 346.5,77.9 339.3,89.6 354.5,124.2 "/>
<polygon fill="#811517" points="311.2,54.8 339.3,89.6 346.5,77.9 "/>
<polygon fill="#CF2026" points="311.2,54.8 304.8,60.6 304.8,82 339.3,89.6 "/>
<polygon fill="#981B1E" points="295.8,44.7 286.1,54.8 286.1,60.6 304.8,60.6 311.2,54.8 "/>
<polygon fill="#E32426" points="274.5,39.2 286.1,54.8 295.8,44.7 "/>
<polygon fill="#F99C2B" points="274.5,39.2 269.5,59.9 286.1,54.8 "/>
<polygon fill="#9C1C1F" points="244,31.3 240.7,40.6 274.5,39.2 "/>
<polygon fill="#E74F25" points="240.7,40.6 250.2,70.2 269.5,59.9 274.5,39.2 "/>
<polygon fill="#83381B" points="240.7,40.6 226,82 244,82 250.2,70.2 "/>
<polygon fill="#FBF49E" points="187.2,82 211.5,82 217.7,53.5 "/>
<polygon fill="#431A0E" points="217.7,53.5 211.5,82 226,82 240.7,40.6 "/>
<polygon fill="#220F0A" points="234.3,28.8 223.3,27.5 217.7,53.5 240.7,40.6 244,31.3 "/>
<polygon fill="#FDF166" points="201.1,25 179.6,50.9 187.2,82 217.7,53.5 223.3,27.5 "/>
</svg>
