<?xml version="1.0" encoding="utf-8"?>
<!-- Generator: Adobe Illustrator 17.0.0, SVG Export Plug-In . SVG Version: 6.00 Build 0)  -->
<!DOCTYPE svg PUBLIC "-//W3C//DTD SVG 1.1//EN" "http://www.w3.org/Graphics/SVG/1.1/DTD/svg11.dtd">
<svg version="1.1" id="solid" xmlns="http://www.w3.org/2000/svg" xmlns:xlink="http://www.w3.org/1999/xlink" x="0px" y="0px"
	 width="400px" height="400px" viewBox="0 0 400 400" enable-background="new 0 0 400 400" xml:space="preserve">
	<polygon fill="#F06797" points="149.2,158 134.7,161.9 120,165.2 105,168 89.9,170.2 59.1,172.9 57.5,184.9 57.1,191.1 57,198.7 
		74.5,197.6 91.7,195.8 108.8,193.4 125.6,190.2 142.2,186.4 158.6,182 174.6,176.9 197,168.6 216.2,213.4 219,220.7 195.3,229.2 
		179.3,235.9 163.7,243.2 148.4,251.1 133.5,259.6 118.9,268.7 104.8,278.3 91.1,288.5 95.5,293.3 100.1,297.9 104.9,302.3 
		109.9,306.4 135.4,288.6 162.4,272.7 176.4,265.6 190.7,259 205.3,252.9 227.5,245 240.3,288.7 248.9,325.9 255.8,322.8 
		262.5,319.3 269,315.6 275.3,311.4 267.3,277.9 255.3,237.2 280.1,232.1 297.1,229.5 314.4,227.6 331.9,226.5 333.1,220.2 
		334,213.7 334.6,207.1 334.9,200.5 314,201.7 293.4,203.9 273.1,207.1 246.7,212.8 223.3,156.9 248.7,143.4 267.1,132.3 
		284.8,120.2 301.9,107.3 297.6,102.5 293.1,97.9 288.4,93.5 283.4,89.3 268,100.8 252,111.5 235.5,121.5 211.9,134 189.4,93.6 
		168.6,61 161.2,62.7 154,64.8 146.9,67.2 140,70 161.7,103.4 185.6,145.7 163.5,153.6 	"/>
	<polygon fill="#F06797" points="377.7,187 377,179.4 374.6,164.4 373,157.1 368.8,142.8 366.3,135.9 363.5,129.1 360.4,122.4 
		357.1,115.9 353.5,109.5 349.7,103.3 341.3,91.4 334.1,82.6 330.4,78.6 330.4,78.5 330.2,78.4 330.2,78.3 323.6,71.6 323.5,71.6 
		316.4,65.1 308.9,58.9 303.2,54.6 291.2,46.8 284.9,43.2 272,36.8 265.3,34 251.6,29.2 244.5,27.2 237.3,25.5 230,24.1 222.7,23 
		215.2,22.2 207.6,21.7 200,21.5 189.4,21.9 178.9,22.8 168.7,24.3 158.6,26.4 148.7,29.1 139.1,32.3 129.7,36.1 119.4,40.9 
		111.2,45.4 111.1,45.4 103,50.4 95.1,55.9 87.6,61.7 80.4,67.9 73.5,74.5 67,81.4 60.9,88.7 55.2,96.2 49.8,104.1 44.9,112.3 
		40.4,120.8 36.4,129.5 32.8,138.5 29.7,147.7 27.1,157.1 24.8,167.7 23.5,175.8 22.3,187.5 21.9,195.9 22.1,208.6 23.2,220.7 
		25,232.5 27.5,244.1 29.9,252.6 56.1,252.6 54.2,247.2 52.5,241.6 49.8,230.3 48.7,224.5 47.3,212.7 46.6,199.1 56.7,198.7 
		56.8,191.1 57.2,184.9 58.8,172.9 48.7,173.4 53.1,155.6 55.7,147.8 58.7,140.2 62,132.8 65.7,125.6 69.8,118.6 74.2,111.8 
		79,105.4 84.1,99.2 89.5,93.2 95.2,87.6 101.2,82.3 107.5,77.3 114,72.6 120.8,68.2 133.7,61.1 139.8,69.8 146.7,67 153.8,64.5 
		161.1,62.5 168.5,60.8 161.7,50.8 179.7,47.8 186.3,47 193.1,46.5 200,46.3 206.1,46.4 218,47.4 223.9,48.2 235.5,50.4 246.7,53.5 
		257.5,57.5 262.8,59.7 268,62.1 278,67.6 282.8,70.5 295.7,79.4 283.6,89.1 288.6,93.3 293.3,97.7 297.8,102.3 302.1,107.2 
		314.4,97.1 322.8,107.7 326.3,112.5 329.6,117.5 332.7,122.6 335.6,127.8 340.7,138.7 343,144.3 345.1,150 346.9,155.8 
		349.9,167.6 352,179.9 352.6,186.1 353.4,200.2 335.2,200.5 334.9,207.1 334.3,213.7 333.3,220.2 332.1,226.5 351.3,226.1 
		347.3,242.3 345.2,249 340.2,261.9 337.2,268.2 334,274.3 330.6,280.2 326.8,286 322.9,291.5 318.7,296.9 309.6,307.1 304.7,311.9 
		299.6,316.4 294.3,320.7 279.4,331.5 275.4,311.7 269.1,315.8 262.6,319.6 255.9,323 248.9,326.1 252.3,344.2 240.5,347.8 
		234.9,349.2 223.5,351.3 217.8,352.1 211.9,352.7 200,353.1 193.4,353 186.9,352.6 180.4,351.9 167.8,349.7 161.6,348.3 
		155.5,346.6 149.5,344.6 137.9,340 132.3,337.4 121.5,331.5 111.1,324.8 98.6,315.2 109.7,306.6 104.6,302.4 99.8,298.1 
		95.2,293.5 90.9,288.7 80.8,296.6 70.2,281.5 64.9,272.3 60.2,262.7 56.1,252.7 30,252.7 32.5,260.1 35.3,267.4 38.4,274.5 
		41.8,281.5 49.5,294.9 53.8,301.3 60.6,310.4 64.4,315.1 64.5,315.1 71.4,322.8 77.9,329.2 85.1,335.6 91,340.4 97.1,345 
		103.5,349.3 110,353.3 116.7,357.1 123.5,360.5 130.6,363.7 137.8,366.6 145.1,369.2 160.2,373.4 167.9,375 175.8,376.2 
		183.8,377.1 191.8,377.7 203.1,377.8 215.3,377.2 227.3,375.7 239,373.5 247.9,371.3 258.2,368 267.8,364.4 275.1,361.2 
		287.5,354.8 287.6,354.8 287.6,354.7 295.9,349.8 303.8,344.4 311.4,338.6 318.7,332.4 325.6,325.9 332.2,319 338.4,311.7 
		344.2,304.1 349.7,296.2 354.7,288 359.2,279.6 363.3,270.8 367,261.9 370.1,252.6 372.8,243.2 374.9,233.6 376.3,225.4 376.3,225 
		377.2,218.4 378,208.4 378.2,200.3 	"/>
</svg>
