<?xml version="1.0" encoding="utf-8"?>
<!-- Generator: Adobe Illustrator 17.0.0, SVG Export Plug-In . SVG Version: 6.00 Build 0)  -->
<!DOCTYPE svg PUBLIC "-//W3C//DTD SVG 1.1//EN" "http://www.w3.org/Graphics/SVG/1.1/DTD/svg11.dtd">
<svg version="1.1" id="solid" xmlns="http://www.w3.org/2000/svg" xmlns:xlink="http://www.w3.org/1999/xlink" x="0px" y="0px"
	 width="140px" height="400px" viewBox="0 0 140 400" enable-background="new 0 0 140 400" xml:space="preserve">
<polygon fill="#C0D9EF" points="8.7,11.9 8.7,65.5 20.6,65.5 21.6,347.6 24.4,357.2 28.9,366 35,373.6 42.3,380 50.7,384.9 
	60.1,387.9 70.2,389 81,388 90.8,385.2 99.6,380.5 107.2,374.4 113.3,366.8 117.9,358 120.8,348.2 121.8,68.1 103.9,68.1 
	103.9,157.4 60.3,156.8 61,342.2 63.2,347.6 67,351.9 72.2,355.3 76.8,357 81.6,357.6 86.4,357.2 91,355.8 95.3,353.5 99,350.3 
	101.9,346.2 103.9,341.4 102.8,346.4 101,351 98.6,355.1 95.5,358.8 91.9,361.8 87.7,364.3 83.1,366.1 72.2,368.1 66.4,368 
	60.9,366.8 55.8,364.7 51.3,361.7 47.4,357.7 44.4,352.9 40.9,342.9 40.4,63.5 103.9,63.5 103.9,67.9 121.8,67.9 131.7,65.5 
	131.7,11.9 "/>
</svg>
