<?xml version="1.0" encoding="utf-8"?>
<!-- Generator: Adobe Illustrator 17.0.0, SVG Export Plug-In . SVG Version: 6.00 Build 0)  -->
<!DOCTYPE svg PUBLIC "-//W3C//DTD SVG 1.1//EN" "http://www.w3.org/Graphics/SVG/1.1/DTD/svg11.dtd">
<svg version="1.1" id="solid" xmlns="http://www.w3.org/2000/svg" xmlns:xlink="http://www.w3.org/1999/xlink" x="0px" y="0px"
	 width="400px" height="400px" viewBox="0 0 400 400" enable-background="new 0 0 400 400" xml:space="preserve">
<polygon fill="#37A5C6" points="112.9,320.3 110.9,314 107.8,308.3 103.7,303.3 98.7,299.1 92.9,296 86.6,294 79.8,293.4 73,294 
	66.7,296 60.9,299.1 55.9,303.3 51.8,308.3 48.7,314 46.7,320.3 46,327.1 46.7,333.9 48.7,340.2 51.8,346 55.9,351 60.9,355.1 
	66.7,358.2 73,360.2 79.8,360.9 86.6,360.2 92.9,358.2 98.7,355.1 103.7,351 107.8,346 110.9,340.2 112.9,333.9 113.5,327.1 "/>
<polygon fill="#37A5C6" points="208.8,17.9 206.7,14.4 203.8,11.8 200.2,10.1 196.1,9.4 194.6,9.6 190.7,10.6 187.4,12.7 
	184.8,15.5 183,19.2 182.4,23.3 183,27.3 184.8,31 187.4,33.9 190.7,35.9 194.6,36.9 198.9,36.7 202.6,35.4 205.8,33 208.2,29.8 
	209.5,26 209.8,21.8 "/>
<polygon fill="#37A5C6" points="246.3,17.9 244.2,14.4 241.3,11.8 237.8,10.1 233.6,9.4 232.2,9.6 228.2,10.6 224.9,12.7 
	222.2,15.5 220.5,19.2 219.9,23.3 220.5,27.3 222.2,31 224.9,33.9 228.2,35.9 232.2,36.9 236.5,36.7 240.1,35.4 243.4,33 
	245.7,29.8 247.1,26 247.3,21.8 "/>
<polygon fill="#37A5C6" points="259.3,149.5 247.3,145.7 235,142.9 222.6,141.5 210.3,141.4 197.6,142.4 185,144.7 165.8,150.2 
	156.1,154.5 158.6,167 176.1,159.5 187.9,156.4 199.5,154.4 211.1,153.5 222.6,153.9 234.1,155.5 245.4,158.2 256.5,162 267.4,167 
	271.1,154.5 "/>
<polygon fill="#37A5C6" points="352.5,268.4 349.7,253.5 345.3,238.9 339.4,225 332,211.6 323.2,198.9 313.2,187.3 302.1,176.5 
	289.9,167 287.4,180.8 297.7,189.6 307.1,199.4 315.3,209.9 322.6,221 328.6,232.6 333.6,244.7 337.5,257.1 340,269.6 341,282.5 
	340.4,295.3 338.4,307.5 335,319.5 330,330.8 323.8,341.5 316.1,351.5 307.4,360.9 301.8,365.2 295.6,369 289,372.1 282,374.5 
	274.7,376 267.5,376.9 260.4,376.9 253.6,375.9 245.7,373.4 241.7,371.5 237.6,369.1 233.8,366.1 230,362.3 226.7,357.7 
	223.6,352.1 217.4,333.4 215.1,320.3 214.9,315.9 217,305.9 218.7,300.8 223.5,290.5 228.8,283.5 243.1,273.5 251.3,265.7 
	255.6,259.9 264.4,242.9 271.2,225.7 277.4,204 292.8,109 296.4,65.1 296.2,57.1 295.3,49.2 293.4,41.6 290.4,34.3 288.5,30.9 
	286.2,27.7 281.7,22.5 277.5,19.2 273,16.7 268.1,14.8 263.1,13.7 257.9,13 244.9,13.2 248.1,16.6 249.7,21 249.9,25.8 257.2,26 
	263.8,27.2 269.8,29.4 274.9,33.3 278.9,38.3 281.7,43.9 283.5,49.9 284.5,56.4 283.6,87 277.5,141.9 266.3,202.3 261.2,219.9 
	254.4,236.8 245.6,252.2 241.9,257.2 238.4,261.1 231.1,265.9 226.2,268.1 221,269.6 215.5,270 208.2,269.4 200.5,266.5 195,263.7 
	189.6,260.3 184.6,256.1 180.1,251.5 176.1,246.2 172.6,240.5 169.9,234.5 160.3,204.5 153.6,174.5 141.5,89.7 140.5,71.2 
	141.1,62.3 142.6,53.9 145.5,45.9 148.8,39.6 152,35.2 155.7,31.5 159.6,28.6 163.9,26.2 168.3,24.4 172.9,23.1 179.9,21.9 
	180.1,18 182,13.5 186.1,9.4 177.9,9.9 170,11.3 162.7,13.6 155.9,16.7 149.9,20.6 144.4,25.3 139.9,30.8 136.1,36.9 132.2,46.6 
	129.7,56.4 128.4,66.4 128.5,86.7 136.9,149.7 147.1,203 159.6,243.6 162.4,248.8 171.1,260.9 188.8,277.5 198,290.5 200.7,295.5 
	203.6,304.6 207.6,337.3 209.7,345.1 212.3,352.7 218,364.2 221.7,369.6 225.9,374.4 230.5,378.7 235.6,382.3 241.2,385.4 
	247.3,387.8 256.3,390.2 274,390.6 280.6,389.5 293.7,385.7 306.2,379.8 317.4,372.1 327.1,361 335.3,349.2 342.2,336.8 347.6,324 
	351.4,310.6 353.4,296.8 353.9,282.8 "/>
<polygon fill="#37A5C6" points="133.6,167 117.9,180.2 103.4,195.2 90.6,212 79.8,230.8 74.2,244.9 70.4,258.8 68.5,272.5 
	68.5,285.9 81,284.6 81,272.9 82.8,260.6 86.1,248.2 91,235.8 100.2,219.9 110.8,205.5 122.7,192.6 136.1,180.8 "/>
</svg>
