<?xml version="1.0" encoding="utf-8"?>
<!-- Generator: Adobe Illustrator 17.0.0, SVG Export Plug-In . SVG Version: 6.00 Build 0)  -->
<!DOCTYPE svg PUBLIC "-//W3C//DTD SVG 1.1//EN" "http://www.w3.org/Graphics/SVG/1.1/DTD/svg11.dtd">
<svg version="1.1" id="solid" xmlns="http://www.w3.org/2000/svg" xmlns:xlink="http://www.w3.org/1999/xlink" x="0px" y="0px"
	 width="400px" height="400px" viewBox="0 0 400 400" enable-background="new 0 0 400 400" xml:space="preserve">
<polygon fill="#E12826" points="286.3,290.6 285.5,281.8 287.6,270.1 368.5,202.8 354.3,197.6 351.2,193.2 350.3,186.8 361.8,133.1 
	320.7,143.2 314.6,143 311.5,140.9 299.5,117.8 256.5,165 253.5,165.3 250.4,163.8 248.7,160.3 268.6,61.6 237.1,79.3 233.3,79.4 
	230.8,77.4 199.9,15.7 168.7,78.7 166.1,80.4 132.1,62.9 150.1,160.8 147.7,163.9 144.1,164.6 141.2,163.6 100.2,117 88.8,138.6 
	86.6,141.1 84,142.8 37.2,133.4 52.4,184.8 51.7,191.4 48.9,196.4 31.5,202.3 112.5,273.4 114.6,284.9 114.2,289.4 111.3,296.7 
	105.1,306.6 192.9,295.4 190.7,383.8 208.9,383.3 204.9,295.6 292.8,306 "/>
</svg>
