<?xml version="1.0" encoding="utf-8"?>
<!-- Generator: Adobe Illustrator 17.0.0, SVG Export Plug-In . SVG Version: 6.00 Build 0)  -->
<!DOCTYPE svg PUBLIC "-//W3C//DTD SVG 1.1//EN" "http://www.w3.org/Graphics/SVG/1.1/DTD/svg11.dtd">
<svg version="1.1" id="Layer_1" xmlns="http://www.w3.org/2000/svg" xmlns:xlink="http://www.w3.org/1999/xlink" x="0px" y="0px"
	 width="400px" height="400px" viewBox="0 0 400 400" enable-background="new 0 0 400 400" xml:space="preserve">
<polygon fill="#848484" points="387.1,186.9 383.7,183.5 379.2,181.6 376.7,181.3 358,181.3 220.5,66.8 222.3,62.3 222.9,57.3 
	222.5,53.4 221.4,49.7 219.6,46.3 217.2,43.4 214.3,41 210.9,39.2 207.2,38.1 203.3,37.7 199.3,38.1 195.6,39.2 192.3,41 
	189.4,43.4 187,46.3 185.2,49.7 184,53.4 183.6,57.3 184.2,62.3 186,66.8 50.7,179.5 62.5,179.5 190.9,72.6 193.6,74.4 196.6,75.8 
	199.8,76.7 203.3,77 206.7,76.7 210,75.8 213,74.4 215.7,72.6 346.2,181.3 332,181.3 332,341.5 17.3,341.5 17.5,357.2 19.4,361.7 
	22.9,365.2 27.4,367.1 379.2,367.1 383.7,365.2 387.1,361.7 389,357.2 389,191.4 "/>
<polygon fill="#393F77" points="198.1,49.4 195.7,52.3 193.3,49.4 31,184.5 35.9,190.4 195.7,57.2 355.5,190.4 360.4,184.5 "/>
<polygon fill="#EF5543" points="379.6,181.8 376.1,178.4 371.6,176.5 19.8,176.5 15.3,178.4 11.9,181.8 10,186.4 10,352.2 
	11.9,356.7 15.3,360.1 19.8,362 369.1,362.3 371.6,362 376.1,360.1 379.6,356.7 381.5,352.2 381.5,186.4 "/>
<polygon fill="#DECDC0" points="215,48.3 213.8,44.6 212,41.3 209.6,38.4 206.7,36 203.4,34.2 199.7,33 195.7,32.6 191.8,33 
	188.1,34.2 184.7,36 181.8,38.4 179.4,41.3 177.6,44.6 176.5,48.3 176.1,52.3 176.5,56.2 177.6,59.9 179.4,63.3 181.8,66.2 
	184.7,68.6 188.1,70.4 191.8,71.5 195.7,71.9 199.7,71.5 203.4,70.4 206.7,68.6 209.6,66.2 212,63.3 213.8,59.9 215,56.2 
	215.4,52.3 "/>
</svg>
