<?xml version="1.0" encoding="utf-8"?>
<!-- Generator: Adobe Illustrator 17.0.0, SVG Export Plug-In . SVG Version: 6.00 Build 0)  -->
<!DOCTYPE svg PUBLIC "-//W3C//DTD SVG 1.1//EN" "http://www.w3.org/Graphics/SVG/1.1/DTD/svg11.dtd">
<svg version="1.1" id="solid" xmlns="http://www.w3.org/2000/svg" xmlns:xlink="http://www.w3.org/1999/xlink" x="0px" y="0px"
	 width="340px" height="400px" viewBox="0 0 340 400" enable-background="new 0 0 340 400" xml:space="preserve">
<polygon fill="#73BF44" points="231,325.2 201.2,330.1 198.4,320.8 240.9,299.2 258,287.4 312.9,236.7 292,253.3 257.4,270.2 
	196.8,315.1 192.2,299.9 252.6,259.3 283.3,218.4 247.8,252.7 212.4,271 190.1,292.9 184.4,273.7 226.5,254.8 244,243.9 
	300.5,196.2 279.1,211.7 244,226.9 182.7,267.9 180.3,260 233.5,226.2 294.1,160.2 273.4,179.8 238,200.9 178.4,253.5 173.8,238.2 
	201.2,219.8 234.9,190.3 291.8,156.2 206.3,198.2 196.8,206.3 173,235.4 167.5,217.2 216.1,179.3 249.4,128.5 260.5,105.5 246,126 
	165.6,210.9 161.3,197.6 209.8,158.1 257.3,90.9 159.7,192.4 155.3,179.5 192.5,134.7 228.3,60.8 153.5,174.5 146.9,156.2 
	176.2,119 204.7,57.4 145.4,152.2 139.8,137.9 167.3,96.5 188.6,36.9 137.7,132.8 131.7,118.8 150.3,83.9 165.7,30.3 129.7,114.2 
	125.1,104.3 146.6,65 158.9,21.7 123.9,101.8 118.9,91.8 134.8,56.8 143.7,20.1 117.9,90 113.9,82.6 126,53.7 132,7.5 112.7,80.5 
	108.5,73.3 111.7,57.1 111.7,15.2 105.3,49 106.7,70.5 105.219,68.328 102.8,45.3 95.5,30.4 93.4,23.5 92.9,15.2 91.6,20.9 
	91.5,29.4 93.2,41.3 98.1,55.4 59,25.7 81.2,53.4 87.5,58.2 102.4,66.1 105.293,69.093 107,72.3 91.5,63.5 57.9,56.6 108.4,75.2 
	113.7,86.3 89.7,73.3 45,60.8 115.3,90 117.8,95.4 94,85.4 68.2,81 31.9,66.1 45,75.5 88.6,94.6 119.6,100.8 123.7,109.2 89.3,97.8 
	29,90.8 125.2,112.7 131.1,127.2 94.2,110.9 28.6,96.2 132.6,131.1 137.9,144.9 100.2,126.5 31.9,109.6 139.7,149.4 145.1,164.1 
	97,144.2 72.2,139 26.3,119.2 91.7,156.7 104.4,162.1 147.4,170.9 151.7,183.2 101.8,164.7 32.9,150.6 77.8,165.9 96.5,177.2 
	109.2,182.6 154.6,191.7 158.6,203.7 114.1,191.9 79.2,190.3 72.6,189 59.2,183.5 39.7,171.1 50.8,182.7 63.9,191.2 71.6,194.5 
	79.9,196.5 97.7,198.1 107.2,200.3 120.6,206.5 126,207.9 160.4,209.1 166.3,227.9 116.3,209.4 91.6,204.2 39.9,200.6 123.7,227.3 
	168,233.6 172.1,247.1 117.3,226.4 41,210.4 90.6,227.7 111.4,240.5 125.5,246.5 174.9,256.8 179,270.7 152.1,258.9 103.7,249.6 
	42.4,249.3 71.1,251.8 85.7,255.3 124.5,270.2 181.5,279.3 184,287.9 38.7,266.7 123.8,291.5 186.3,296 190.2,309.8 168.7,302.1 
	162,301.1 61.8,308.3 191.8,315.6 194.4,325.2 171.6,319.5 160.3,318.5 152.5,318.8 145.4,320.1 139.7,322.4 103.7,347.9 132.4,331 
	140.7,327.9 152.3,327.1 170.2,330.8 195.9,330.8 199.2,343 175.4,340.7 165.4,341.5 156.5,343.6 151.9,345.6 142.9,355.7 
	132.4,364.2 137.4,361 148.8,356.1 200.5,348 210.9,393.1 217,383.8 202.6,334.9 227.4,335.7 258.9,331.6 298.3,312.4 260.5,324.2 
	"/>
</svg>
