<?xml version="1.0" encoding="utf-8"?>
<!-- Generator: Adobe Illustrator 17.0.0, SVG Export Plug-In . SVG Version: 6.00 Build 0)  -->
<!DOCTYPE svg PUBLIC "-//W3C//DTD SVG 1.1//EN" "http://www.w3.org/Graphics/SVG/1.1/DTD/svg11.dtd">
<svg version="1.1" id="Layer_1" xmlns="http://www.w3.org/2000/svg" xmlns:xlink="http://www.w3.org/1999/xlink" x="0px" y="0px"
	 width="400px" height="400px" viewBox="0 0 400 400" enable-background="new 0 0 400 400" xml:space="preserve">
<polygon fill="#C7D868" points="303,52.8 300,74.6 318.7,62.1 "/>
<polygon fill="#AECA41" points="289,63.7 300,74.6 303,52.8 "/>
<polygon fill="#BFD768" points="318.2,62.1 300.3,74.5 329.1,69.1 "/>
<polygon fill="#C1D959" points="300.3,74.5 309.7,84.4 329.5,69.1 "/>
<polygon fill="#BBD64B" points="329.5,69.1 309.7,84.4 341,76.8 "/>
<polygon fill="#CEDF72" points="340.8,76.8 326,93.1 350.3,86.7 "/>
<polygon fill="#CDDF70" points="309.7,84.4 318.2,97.7 326.1,93.1 "/>
<polygon fill="#CFE073" points="309.7,84.4 326,93.1 340.8,76.8 "/>
<polygon fill="#C8DB81" points="282.4,43.5 289,63.4 303,52.8 "/>
<polygon fill="#B9CF59" points="282.4,43.5 264.1,62.9 289,63.7 "/>
<polygon fill="#BED968" points="263.7,62.9 269.7,81.2 289,63.7 "/>
<polygon fill="#B8D44E" points="289,63.7 269.7,81.2 300.3,74.5 "/>
<polygon fill="#B3CF44" points="300.3,74.5 289,103.8 309.7,84.4 "/>
<polygon fill="#A6C43A" points="269.6,81.2 289,103.8 300.6,74.5 "/>
<polygon fill="#A9C838" points="309.7,84.4 289,103.8 318.2,97.7 "/>
<polygon fill="#B8D25D" points="260.5,39 264.1,62.9 282.4,43.5 "/>
<polygon fill="#BFD773" points="241.8,38.1 241.5,38.1 248.1,63.1 260.5,39 "/>
<polygon fill="#ACD04F" points="260.5,39 248.1,63.1 264.1,62.9 "/>
<polygon fill="#80B841" points="248.1,63.1 253.2,84.4 264.1,62.9 "/>
<polygon fill="#9DC441" points="264.1,62.9 253.2,84.4 269.7,81.2 "/>
<polygon fill="#A4C74D" points="269.7,81.2 263.2,102.1 289.1,103.8 "/>
<polygon fill="#89B640" points="251.8,84.4 263.2,102.1 269.7,81.2 "/>
<polygon fill="#81993B" points="263.2,102.1 274.5,115.4 289,103.8 "/>
<polygon fill="#94BA3F" points="220.6,37.9 232.2,61.9 241.5,37.9 "/>
<polygon fill="#8CB43E" points="241.5,37.9 232.2,61.9 248.1,63.1 "/>
<polygon fill="#8CBD3F" points="232.2,61.9 232.8,83.5 248.1,63.1 "/>
<polygon fill="#77AC42" points="248.1,63.1 232.8,83.5 253.2,84.4 "/>
<polygon fill="#B0CF4F" points="232.1,61.4 220.6,37.9 232.8,83.5 "/>
<polygon fill="#AACC51" points="197.6,41.6 213.8,72.5 220.6,37.9 "/>
<polygon fill="#93BD41" points="169.2,51.6 195.6,79.4 197.6,41.6 "/>
<polygon fill="#AECC59" points="150,60.7 130.7,78.1 180.1,87.3 "/>
<polygon fill="#A0C04F" points="169.2,51.6 149.7,61.3 195.6,79.4 "/>
<polygon fill="#AACE49" points="150.9,61.5 180.1,87.3 195.6,79.4 "/>
<polygon fill="#9DC73B" points="197.6,41.6 195.6,79.4 213.8,72.5 "/>
<polygon fill="#86B03F" points="195.6,79.4 180.1,87.3 206.7,113.5 "/>
<polygon fill="#81B140" points="213.8,72.5 195.6,79.4 218.1,112.6 "/>
<polygon fill="#A5C23F" points="220.6,37.9 213.8,72.5 232.9,83 "/>
<polygon fill="#3D8840" points="252.7,84.4 242.2,117.2 263.2,102.1 "/>
<polygon fill="#576F32" points="263.2,102.1 242.2,117.2 274.5,115.4 "/>
<polygon fill="#445828" points="242.2,117.2 243,148.8 274.5,115.4 "/>
<polygon fill="#3A8A41" points="232.9,83 242.4,117.7 252.7,84.4 "/>
<polygon fill="#396932" points="232.2,123.2 237.8,125 242.2,117.2 "/>
<polygon fill="#33813E" points="232.9,83 232.2,123.2 242.2,117.2 "/>
<polygon fill="#89B940" points="213.8,72.5 218.1,112.6 232.9,83 "/>
<polygon fill="#3A823E" points="218.1,112.6 232.9,126.1 233,83.3 "/>
<polygon fill="#606B2F" points="195.6,79.4 206.7,113.5 218.1,112.6 "/>
<polygon fill="#5E7333" points="218.1,112.6 206.3,113.5 233,125.4 "/>
<polygon fill="#4F4E20" points="242.2,117.2 240,128 243,148.8 "/>
<polygon fill="#375528" points="237.8,125 240,128 242.2,117.2 "/>
<polygon fill="#92C73E" points="350.3,86.7 326,93.1 365.4,103.1 "/>
<polygon fill="#8FC73F" points="374.2,115.8 359.2,129 382,134.6 "/>
<polygon fill="#91C83E" points="365.8,103.1 359,129 374.2,115.8 "/>
<polygon fill="#C9DD67" points="339,96.4 359,129.5 366.3,103.1 "/>
<polygon fill="#A4CD39" points="359,129 374.1,175.9 382.2,134.6 "/>
<polygon fill="#91C73E" points="382.2,134.6 374.1,175.9 394.2,189.5 "/>
<polygon fill="#9CC83B" points="373.9,175.5 374.1,213.6 394.2,189.5 "/>
<polygon fill="#EAF1C1" points="326,93.1 328.9,129.5 339,96.4 "/>
<polygon fill="#E9EFBA" points="339,96.4 328.9,129.5 359,129.5 "/>
<polygon fill="#E2ECB5" points="322.7,129.6 353.6,183.2 359,129 "/>
<polygon fill="#EBF1C3" points="359,129 353.6,182.7 373.9,175.5 "/>
<polygon fill="#E0E99C" points="353.6,182.7 373.9,202.7 373.9,175.5 "/>
<polygon fill="#CADE87" points="330.1,142.2 327.8,175.9 353.6,182.7 "/>
<polygon fill="#DCE797" points="353.6,182.7 324.6,224.8 373.9,202.7 "/>
<polygon fill="#D0E078" points="373.9,202.7 323.8,224.8 374.1,213.6 "/>
<polygon fill="#ABD03E" points="374.1,213.6 394.2,225.6 394.2,189.5 "/>
<polygon fill="#C7DC65" points="374.1,213.6 323.8,224.8 394.2,225.6 "/>
<polygon fill="#60622A" points="206.7,113.5 202.1,130.2 225.5,126.6 "/>
<polygon fill="#2F6C35" points="206.7,113.5 225.5,126.6 232.2,123.2 "/>
<polygon fill="#7A6C2B" points="189,113.5 202.1,130.2 206.8,113.5 "/>
<polygon fill="#898131" points="180.1,87.3 189,113.5 206.7,113.5 "/>
<polygon fill="#6FA241" points="180.1,87.3 172.9,104.6 189,113.5 "/>
<polygon fill="#91B33D" points="166.1,84.7 172.9,104.6 180.1,87.3 "/>
<polygon fill="#A6C739" points="166.1,84.7 130.7,78.1 172.9,104.6 "/>
<polygon fill="#8DB93F" points="131.4,78.1 114,97.9 160,96.4 "/>
<polygon fill="#A57C2C" points="231.6,136 236.1,133.5 236.4,124.6 "/>
<polygon fill="#643F18" points="236.4,124.6 235.8,136.8 240.4,130.8 "/>
<polygon fill="#735120" points="229.3,124.7 231.6,136 236.4,124.6 "/>
<polygon fill="#ABB071" points="232.2,123.2 229.3,124.7 236.4,124.6 "/>
<polygon fill="#63461B" points="240.4,130.8 236.1,136.4 241.1,134.5 "/>
<polygon fill="#376832" points="238.1,124.8 236.4,124.6 240,127.3 "/>
<polygon fill="#A89D4C" points="240,127.3 236.4,124.6 240.4,130.8 "/>
<polygon fill="#D6A95A" points="229.3,124.7 227.8,133.7 231.6,136 "/>
<polygon fill="#7F6628" points="226,126.3 227.8,133.7 229.3,124.7 "/>
<polygon fill="#70421A" points="241.1,134.5 236.9,155.5 243,148.8 "/>
<polygon fill="#5A3F17" points="234.6,136.7 236.9,155.5 241.1,134.5 "/>
<polygon fill="#48451A" points="234.6,136.7 225.9,132.4 236.9,155.1 "/>
<polygon fill="#484D20" points="232,145.2 231.6,156.8 237.1,155.5 "/>
<polygon fill="#7C732E" points="236.8,155.5 243,154.7 243,148.8 "/>
<polygon fill="#39471D" points="231.6,156.4 231.6,173.3 243,154.6 "/>
<polygon fill="#263017" points="231.6,173.2 238.7,169.5 243,154.7 "/>
<polygon fill="#131C10" points="231.6,173.2 234.7,177.5 238.7,169.5 "/>
<polygon fill="#191E11" points="227.9,169.3 231.6,173.2 231.7,156.5 "/>
<polygon fill="#0D0F0A" points="231.6,173.2 228.5,175.9 234.7,177.5 "/>
<polygon fill="#050605" points="238.7,169.5 234.7,177.5 242.6,174.5 "/>
<polygon fill="#0C0D0A" points="238.7,169.5 242.6,174.5 246.3,167.4 "/>
<polygon fill="#2B2C16" points="246.3,167.4 239.6,177.9 248.3,173.9 "/>
<polygon fill="#0A0B08" points="223,171.8 227.9,169.5 228.7,156.5 "/>
<polygon fill="#090B08" points="228,169.3 228.5,175.9 231.6,173.2 "/>
<polygon fill="#090907" points="228,169.2 223,171.8 228.5,175.9 "/>
<polygon fill="#202313" points="228.8,156.8 231.7,156.5 232,145.2 "/>
<polygon fill="#1C1D10" points="228.7,156.5 227.9,169.3 231.7,156.5 "/>
<polygon fill="#212011" points="243,154.7 238.7,169.5 256.2,164.5 "/>
<polygon fill="#353417" points="243,154.7 256,164.9 262.2,150.5 "/>
<polygon fill="#434A1F" points="257.6,133.4 243,154.7 262.2,150.5 "/>
<polygon fill="#3A3D18" points="243,148.8 243,154.7 257.6,133.4 "/>
<polygon fill="#545222" points="256.2,164.5 254,173.5 268.2,174.8 "/>
<polygon fill="#3B421A" points="262.2,150.5 256.2,164.5 267.6,174.8 "/>
<polygon fill="#6B6E2E" points="257.6,133.4 262.2,150.5 280,134.5 "/>
<polygon fill="#59813A" points="280,134.5 262.2,150.5 281.6,159 "/>
<polygon fill="#424E22" points="262.2,150.5 267.6,175 281.6,159 "/>
<polygon fill="#4B7536" points="281.6,159 267.6,175 291.6,174.5 "/>
<polygon fill="#E7EEB8" points="326,93.2 318.2,97.7 328.9,129.5 "/>
<polygon fill="#DBE594" points="318.2,96.9 322.7,129.6 328.9,129.5 "/>
<polygon fill="#DAE68F" points="318.4,97.6 306.9,100.2 322.7,129.6 "/>
<polygon fill="#65A143" points="306.9,100.2 280,133.4 322.7,129.6 "/>
<polygon fill="#519C44" points="274.5,115.4 280,133.4 306.9,100.2 "/>
<polygon fill="#88B33F" points="289,103.8 274.5,115.4 306.9,100.2 "/>
<polygon fill="#547435" points="274.5,115.4 257.6,133.4 280.3,134.5 "/>
<polygon fill="#449543" points="280,133.4 281.6,159 323.6,142.2 "/>
<polygon fill="#5DAB46" points="281.6,159 322.1,171.3 323.6,142.2 "/>
<polygon fill="#A9D155" points="322.7,129.6 323.6,142.2 330.1,142.2 "/>
<polygon fill="#58A645" points="322.7,129.6 280,133.4 323.6,142.2 "/>
<polygon fill="#A3C34B" points="323.6,142.2 327.9,175.2 330.1,142.2 "/>
<polygon fill="#96C33F" points="323.6,142.2 320.3,202.7 327.9,175.2 "/>
<polygon fill="#C9DF81" points="327.7,175.9 324.7,224.8 353.6,182.7 "/>
<polygon fill="#51A746" points="281.6,159 306.9,198.3 320.6,196 "/>
<polygon fill="#308F43" points="291.6,174.5 268.8,174.5 306.9,198.3 "/>
<polygon fill="#43441B" points="246.1,167.1 252.1,185.7 256.2,164.5 "/>
<polygon fill="#5F5E28" points="254.4,173.5 252.1,185.7 286.7,194.1 "/>
<polygon fill="#606029" points="269.3,174.8 254.5,173.5 286.7,194.1 "/>
<polygon fill="#2E3217" points="226.3,132.5 212,139.9 228.8,156.8 "/>
<polygon fill="#212B16" points="225,129.5 228.8,156.8 232,145.2 "/>
<polygon fill="#577F39" points="226,126.3 210.7,132.6 227.8,133.7 "/>
<polygon fill="#365D2C" points="210.7,132.6 212,139.9 225.5,133.5 "/>
<polygon fill="#426730" points="210.7,132.6 197,137.5 212,139.9 "/>
<polygon fill="#10592D" points="212,139.9 209.2,150.2 215,151.5 "/>
<polygon fill="#006936" points="5,200.2 5,252.2 46.2,264.9 "/>
<polygon fill="#006A38" points="28.8,237.9 46.2,264.9 81.4,269 "/>
<polygon fill="#007E41" points="96.8,236.2 81.4,269 128.9,264.9 "/>
<polygon fill="#00703C" points="135.7,217.8 128.9,264.9 169.1,248.9 "/>
<polygon fill="#0A9246" points="166.3,204.1 169.1,248.9 193.8,226.3 "/>
<polygon fill="#00773E" points="96.8,237.9 128.9,264.9 135.7,217.8 "/>
<polygon fill="#006736" points="28.8,237.9 81.4,269 96.8,236.2 "/>
<polygon fill="#005C30" points="28.8,237.9 96.8,236.2 108,192.1 "/>
<polygon fill="#07582D" points="27.2,235.4 28.8,237.9 136.9,175.9 "/>
<polygon fill="#5D7634" points="205.4,137.5 108,192.1 208.4,138.6 "/>
<polygon fill="#00783E" points="108,192.1 95.6,239.2 135.7,217.8 "/>
<polygon fill="#006C39" points="166.3,204.1 121.6,184 169.1,248.9 "/>
<polygon fill="#006735" points="122.8,184 107.8,192.1 169.1,248.9 "/>
<polygon fill="#006735" points="16.5,161.9 5,200.2 86.8,203.2 "/>
<polygon fill="#006B38" points="5,200.2 27.2,235.4 86.8,203.2 "/>
<polygon fill="#239847" points="137,94.6 73.8,102.3 143.7,129.3 "/>
<polygon fill="#00733B" points="49.6,118.3 15.3,161.9 68.6,158.2 "/>
<polygon fill="#007E41" points="73.8,102.3 49.6,118.5 87.3,136.8 "/>
<polygon fill="#006233" points="87,136.9 137.6,175.5 143.7,129.3 "/>
<polygon fill="#006938" points="73.8,102.3 87.3,136.8 143.7,129.3 "/>
<polygon fill="#008B45" points="142.7,135 137.6,175.5 205.4,137.5 "/>
<polygon fill="#1F8B43" points="189,113.5 142.7,135 200.7,137.3 "/>
<polygon fill="#007E41" points="143.7,129.3 142.7,135 189,113.5 "/>
<polygon fill="#045B2E" points="137,94.6 143.7,129.3 189,113.5 "/>
<polygon fill="#23753A" points="160,96.4 137,94.6 189.5,114.3 "/>
<polygon fill="#289646" points="193.5,146.5 206.7,198.3 215,151.5 "/>
<polygon fill="#1E9446" points="164.7,162 193.5,227 206.7,198.3 "/>
<polygon fill="#459C45" points="193.5,146.5 164.7,162 206.7,198.3 "/>
<polygon fill="#138943" points="145.1,172.3 121,184.5 166.1,204.2 "/>
<polygon fill="#009B49" points="164.7,162 166.3,204.1 193.4,226.3 "/>
<polygon fill="#009449" points="164.7,162 145.1,172.3 166.6,205.6 "/>
<polygon fill="#1A8642" points="215,151.5 206.7,198.3 218.3,165.1 "/>
<polygon fill="#1A743A" points="86.6,268.5 91.4,273.8 98.9,267.5 "/>
<polygon fill="#00743C" points="98.9,267.5 102.2,271.5 108.9,266.6 "/>
<polygon fill="#084C26" points="108.9,266.6 112.6,271.5 121.1,265.5 "/>
<polygon fill="#247038" points="121.1,265.5 122.5,268.5 128.9,264.9 "/>
<polygon fill="#134E27" points="128.9,264.9 131.3,268.5 138.6,261.1 "/>
<polygon fill="#247038" points="138.6,261.1 140.9,263.1 144.4,258.7 "/>
<polygon fill="#044F28" points="144.4,258.7 147.9,262.2 155.3,254.4 "/>
<polygon fill="#317138" points="155.3,254.4 159.7,257.1 163.4,251.1 "/>
<polygon fill="#A1BF56" points="87.3,270.2 101.3,295.8 110.2,288.2 "/>
<polygon fill="#AAC952" points="102.2,271.5 91.5,273.8 108.9,287.7 "/>
<polygon fill="#9FCE62" points="98.9,267.5 91.5,273.8 102.2,271.5 "/>
<polygon fill="#9BC550" points="108.9,266.6 102.2,271.5 112.6,271.5 "/>
<polygon fill="#94C040" points="102.2,271.5 108.9,287.7 149.7,280.6 "/>
<polygon fill="#7AB142" points="108.9,287.7 101.3,295.8 149.7,280.6 "/>
<polygon fill="#90BF51" points="114.2,291.8 101.3,295.8 117.4,317.2 "/>
<polygon fill="#67A743" points="135.1,312 116.9,316.7 136.2,332.9 "/>
<polygon fill="#66A543" points="136.2,332.9 156.9,347.8 158.6,313.8 "/>
<polygon fill="#568F40" points="169.4,334.5 156.9,347.8 177.7,354.9 "/>
<polygon fill="#447638" points="191.4,341.9 177.7,354.9 197.9,360.6 "/>
<polygon fill="#41813D" points="207.3,344 197.9,360.6 220.1,362.6 "/>
<polygon fill="#429042" points="203.6,284 191.4,341.9 207.3,344 "/>
<polygon fill="#468C40" points="191.4,341.9 197.9,360.6 207.3,344 "/>
<polygon fill="#6C9A40" points="172.6,282.8 191.4,341.9 203.6,284 "/>
<polygon fill="#549743" points="172.6,282.8 169.4,334.5 191.4,341.9 "/>
<polygon fill="#3C8740" points="169.4,334.5 177.7,354.9 191.4,341.9 "/>
<polygon fill="#4A9643" points="156.9,347.8 169.4,334.5 172.6,282.8 "/>
<polygon fill="#478E41" points="158.6,313.8 156.9,347.8 172.6,282.8 "/>
<polygon fill="#7CB141" points="135.1,312 136.2,332.9 158.6,313.8 "/>
<polygon fill="#7CB642" points="149.7,280.6 114.2,291.8 158.6,313.8 "/>
<polygon fill="#73AA42" points="114.2,291.8 117.4,316.6 135.1,312 "/>
<polygon fill="#84B541" points="114.2,291.8 135.1,312 158.6,313.8 "/>
<polygon fill="#82AF40" points="122.5,268.5 126.6,276.3 128.9,264.9 "/>
<polygon fill="#9BC344" points="121.1,265.5 112.6,271.5 126.6,276.3 "/>
<polygon fill="#94BB3E" points="112.6,271.5 102.2,271.5 126.6,276.3 "/>
<polygon fill="#81B140" points="128.9,264.9 126.6,276.3 138,278.5 "/>
<polygon fill="#7AAB41" points="140.9,263.1 138,278.5 147.9,262.2 "/>
<polygon fill="#88B640" points="131.3,268.5 138,278.5 140.9,263.1 "/>
<polygon fill="#499543" points="138.6,261.1 131.3,268.5 140.9,263.1 "/>
<polygon fill="#619B42" points="148.2,261.8 138,278.5 149.7,280.6 "/>
<polygon fill="#639C42" points="169.1,248.9 158.6,313.8 172.6,282.8 "/>
<polygon fill="#639C41" points="149.7,280.6 163.7,283 169.1,248.9 "/>
<polygon fill="#639740" points="159.4,257.1 163,258.8 169.1,248.9 "/>
<polygon fill="#6BA041" points="148.2,261.8 149.7,280.6 163,258.8 "/>
<polygon fill="#9ABE4D" points="155.3,254.4 148.2,261.8 163,258.8 "/>
<polygon fill="#76AB42" points="163.4,251.1 159.7,257.1 169.1,248.9 "/>
<polygon fill="#515222" points="212,139.9 215,151.5 228.8,156.5 "/>
<polygon fill="#282513" points="215,151.5 223,171.8 228.8,156.5 "/>
<polygon fill="#2E3F1B" points="219.7,163.1 218.3,164.9 223,171.8 "/>
<polygon fill="#809E4E" points="215.1,151.6 218.3,164.9 219.7,163.1 "/>
<polygon fill="#575725" points="218.4,165 220.3,177.5 223,171.8 "/>
<polygon fill="#627835" points="218.3,164.9 215.3,182.1 220.3,177.5 "/>
<polygon fill="#59A846" points="206.7,198.3 215.3,182.1 218.2,165.7 "/>
<polygon fill="#797931" points="237.7,176.5 233.3,190.3 252.1,185.7 "/>
<polygon fill="#726D2C" points="248.3,173.9 239.9,177.8 252.1,185.7 "/>
<polygon fill="#1A1A0E" points="237.3,176.3 239.9,177.8 241.8,174.8 "/>
<polygon fill="#7F7830" points="228.5,175.9 233.3,190.3 237.1,178.1 "/>
<polygon fill="#050605" points="234.6,177.5 237.1,178.1 238.1,175.9 "/>
<polygon fill="#6F993F" points="233.3,190.3 245.5,202.7 252.1,185.7 "/>
<polygon fill="#667E37" points="228.5,175.9 220.3,177.5 233.3,190.3 "/>
<polygon fill="#6C702F" points="223,171.8 220.3,177.5 228.5,175.9 "/>
<polygon fill="#508B3F" points="220.3,177.5 220.1,194.7 233.4,190.3 "/>
<polygon fill="#BCD758" points="220.1,194.7 226.4,215.6 230.5,191.2 "/>
<polygon fill="#728E3B" points="233.3,190.3 230.5,191.2 242.9,200 "/>
<polygon fill="#5BA545" points="230.5,191.2 234.8,210.2 242.2,199.3 "/>
<polygon fill="#9CC73B" points="230.5,191.2 228.3,203.8 234.8,210.2 "/>
<polygon fill="#9CBD3C" points="228.3,203.8 226,215.6 235.4,210.7 "/>
<polygon fill="#AFD363" points="226,215.3 229.4,223.5 234.8,211 "/>
<polygon fill="#A5C542" points="236.7,219.6 231.5,224.3 238.5,235.4 "/>
<polygon fill="#549F44" points="280.9,294.1 287.7,330.8 293.5,321.7 "/>
<polygon fill="#C6DE86" points="313.6,211 306.9,215.6 320,217.2 "/>
<polygon fill="#CBDF83" points="306.9,215.6 317.4,242.2 320,217.2 "/>
<polygon fill="#AED360" points="320,217.2 317.4,242.2 324.7,224.7 "/>
<polygon fill="#D0E29A" points="320.3,202.7 324.6,224.8 327.7,175.9 "/>
<polygon fill="#CBE08F" points="306.9,198.3 320.3,202.7 320.6,196 "/>
<polygon fill="#4CA847" points="308.1,198.1 286.7,194.1 311.7,205.3 "/>
<polygon fill="#766E2D" points="269.4,174.9 286.7,194.1 306,197.7 "/>
<polygon fill="#D4E59B" points="320.3,202.7 308.4,198.8 324.7,224.7 "/>
<polygon fill="#A9D15B" points="308.8,199.3 313.6,211 320.6,218.2 "/>
<polygon fill="#CFE28B" points="298,199.2 306.9,215.6 313.6,211 "/>
<polygon fill="#A4CE57" points="311.7,204.9 298,199.2 313.6,211 "/>
<polygon fill="#678138" points="286.7,194.1 288.7,212.5 298,199.2 "/>
<polygon fill="#A9CF54" points="298,199.2 288.7,212.2 299.2,224.4 "/>
<polygon fill="#B4D66C" points="306.9,215.6 299.2,224.4 307.2,239.4 "/>
<polygon fill="#9FC74A" points="298,199.2 299.2,224.4 306.9,215.6 "/>
<polygon fill="#ACD262" points="306.9,215.6 307.2,239.4 317.4,241.8 "/>
<polygon fill="#69AA44" points="299.2,224.4 250.5,297.2 252.3,296 307.2,239.4 "/>
<polygon fill="#76B242" points="307.2,239.4 250.7,297.2 328.9,268.1 "/>
<polygon fill="#9BC93C" points="364.2,225.3 328.9,268.1 370.6,258.5 "/>
<polygon fill="#A9D047" points="324.6,224.8 328.9,268.1 364.2,225.3 "/>
<polygon fill="#69AA44" points="324.7,224.8 317.4,241.8 328.9,268.1 "/>
<polygon fill="#82B741" points="317.4,241.8 307.2,239.4 328.9,268.1 "/>
<polygon fill="#B8D545" points="364.2,225.3 370.6,258.5 394.2,225.3 "/>
<polygon fill="#95C63D" points="370.6,258.5 384.1,262.2 394.2,225.6 "/>
<polygon fill="#B1D254" points="370.3,258.5 366.3,292.7 384.1,262.2 "/>
<polygon fill="#9CC74D" points="327.7,295.8 333.2,328.6 363.8,302.6 "/>
<polygon fill="#8CBC43" points="293.5,321.7 310,343.1 333.2,328.6 "/>
<polygon fill="#76AE42" points="287.7,330.8 279.2,355.5 310,343.1 "/>
<polygon fill="#84BB43" points="293.5,321.7 287.7,330.8 310,343.1 "/>
<polygon fill="#4D803B" points="262.3,337.7 246,362.6 279.2,355.5 "/>
<polygon fill="#75B043" points="262.3,337.7 279.5,355.5 287.7,330.8 "/>
<polygon fill="#619941" points="286.7,194.1 252.1,185.7 288.7,212.2 "/>
<polygon fill="#7BB142" points="288.7,212.2 250.7,297.2 299.2,224.4 "/>
<polygon fill="#A1CD3B" points="252.1,185.7 249.6,252.7 288.7,212.2 "/>
<polygon fill="#4CA145" points="249.6,252.7 268.6,258.1 288.7,212.2 "/>
<polygon fill="#84B541" points="245.5,202.7 249.6,252.7 252.1,185.7 "/>
<polygon fill="#86BB40" points="234.8,210.2 236.7,219.6 242.2,199.3 "/>
<polygon fill="#8EC23F" points="234.8,210.2 229.4,223.5 236.7,219.6 "/>
<polygon fill="#C9DA67" points="206.7,198.3 220.3,194.7 220.3,177.5 "/>
<polygon fill="#87BA40" points="206.7,198.3 194.1,225.6 226.5,215.1 "/>
<polygon fill="#A9D040" points="220.3,194.7 206.7,198.3 226.5,215.6 "/>
<polygon fill="#60A644" points="194.1,225.6 225.4,269.7 226.5,215.1 "/>
<polygon fill="#598E3F" points="194.1,225.6 169.1,248.9 225.4,269.7 "/>
<polygon fill="#579341" points="169.1,248.9 172.6,282.8 203.6,284 "/>
<polygon fill="#538E40" points="169.1,248.9 203.6,284 225.4,269.7 "/>
<polygon fill="#80B841" points="236.7,219.6 238.5,235.4 242.2,199.3 "/>
<polygon fill="#63A644" points="245.5,202.7 242.2,199.3 249.6,252.7 "/>
<polygon fill="#85B640" points="242.2,199.3 238.5,235.4 249.6,252.7 "/>
<polygon fill="#67A743" points="226.5,215.6 226,229.3 229.4,223.5 "/>
<polygon fill="#4A9743" points="229.4,223.5 226,229.3 236.6,219.6 "/>
<polygon fill="#65A143" points="231.5,224.3 226,229.3 249.6,252.7 "/>
<polygon fill="#4D9743" points="226,229.3 225.4,269.7 249.6,252.7 "/>
<polygon fill="#76AF42" points="249.6,252.7 250.7,297.2 268.6,257.4 "/>
<polygon fill="#579B43" points="249.6,252.7 225.4,269.7 250.7,297.2 "/>
<polygon fill="#68A643" points="203.6,284 207.3,344 250.7,297.2 "/>
<polygon fill="#6AA542" points="225.4,269.7 203.6,284 250.7,297.2 "/>
<polygon fill="#A8CE38" points="328.9,268.1 366.3,293.5 370.3,258.5 "/>
<polygon fill="#6FA442" points="366.1,292.7 363.8,302.6 384.1,262.2 "/>
<polygon fill="#97C13D" points="328.9,268.1 363.8,302.6 366,293.3 "/>
<polygon fill="#8ABF40" points="328.9,268.1 327.7,295.8 363.8,302.6 "/>
<polygon fill="#85C141" points="327.7,295.8 293.5,321.7 333.2,328.6 "/>
<polygon fill="#7EBB42" points="280.5,286.1 327.7,295.8 328.9,268.1 "/>
<polygon fill="#75B343" points="308.2,291.7 293.5,321.7 327.7,295.8 "/>
<polygon fill="#64A944" points="280.5,286.1 250.7,297.2 308.2,291.7 "/>
<polygon fill="#60A444" points="250.7,297.2 262.3,337.7 280.9,294.1 "/>
<polygon fill="#60A644" points="280.9,294.1 262.3,337.7 288.9,331.2 "/>
<polygon fill="#6EAE43" points="280.9,294.1 293.5,321.7 308.2,291.7 "/>
<polygon fill="#4D9141" points="229.2,320.3 220.1,362.6 246,362.6 "/>
<polygon fill="#63AC45" points="229.2,320.3 246,362.6 262.3,337.7 "/>
<polygon fill="#5EA344" points="250.7,297.2 229.2,320.3 262.3,337.7 "/>
<polygon fill="#006836" points="68.5,158.1 15.3,161.9 86.8,203.2 "/>
<polygon fill="#006D38" points="81.7,268.5 83.8,271.9 86.7,268.6 "/>
<polygon fill="#144C25" points="72.3,267.9 75.9,272.9 82,269 "/>
<polygon fill="#185B2E" points="64.8,266.6 67.6,270.9 72.4,267.9 "/>
<polygon fill="#286D36" points="57.6,266.2 59.5,270.9 65.5,269.7 "/>
<polygon fill="#0D572C" points="57.6,266.2 65.5,269.7 65.8,267 "/>
<polygon fill="#18572C" points="47.1,265 48.2,268.8 57.1,266.2 "/>
<polygon fill="#256130" points="37.8,262.6 39.7,265 44.9,264.7 "/>
<polygon fill="#397C3C" points="26.7,259.1 28.8,261.5 32.7,261 "/>
<polygon fill="#006F3A" points="193.5,146.5 209.2,150.2 212,139.9 "/>
<polygon fill="#11411E" points="208.4,138.6 193.5,146.5 212,139.9 "/>
<polygon fill="#8CBA54" points="202.1,130.2 200.4,136.8 206.7,134.2 "/>
<polygon fill="#5A8B3E" points="197,123.7 189,113.5 200.4,136.8 "/>
<polygon fill="#A9C46D" points="197,123.7 200.4,136.8 202.1,130.2 "/>
<polygon fill="#666229" points="202.1,130.2 206.7,134.2 225.5,126.6 "/>
<polygon fill="#8EB73F" points="215.3,182.1 206.7,198.3 220.3,177.5 "/>
<polygon fill="#C5DD7E" points="303.6,179.8 320.6,196 321.4,182 "/>
<polygon fill="#419544" points="293.8,170.5 303.6,179.8 322,171.2 "/>
<polygon fill="#58A946" points="303.6,179.8 321.4,182 322,171.2 "/>
<polygon fill="#89C145" points="281.6,159 293.8,170.5 322.1,171.3 "/>
<polygon fill="#559943" points="207.3,344 220.1,362.6 229.2,320.3 "/>
<polygon fill="#569842" points="149.7,280.6 158.6,313.8 163.7,283 "/>
<polygon fill="#006735" points="112.6,156.4 113.1,188.8 137.6,175.5 "/>
<polygon fill="#005F31" points="112.6,156.4 87.3,136.8 113.1,188.8 "/>
<polygon fill="#006C3A" points="49.6,118.5 68.5,158.1 87.3,136.8 "/>
<polygon fill="#007E3F" points="68.5,158.1 86.8,203.2 87.3,136.8 "/>
<polygon fill="#008141" points="86.8,171.8 86.8,203.2 113.1,188.8 "/>
<polygon fill="#00743C" points="87.3,136.8 86.8,171.8 113.1,188.8 "/>
<polygon fill="#825C24" points="231.5,136 234.6,136.7 235.9,133.7 "/>
<polygon fill="#7D4C1F" points="234.6,136.7 236.1,136.4 236.1,132.8 "/>
<polygon fill="#044F28" points="144.4,258.7 140.9,263.1 148,262.2 "/>
</svg>
