<?xml version="1.0" encoding="utf-8"?>
<!-- Generator: Adobe Illustrator 17.0.0, SVG Export Plug-In . SVG Version: 6.00 Build 0)  -->
<!DOCTYPE svg PUBLIC "-//W3C//DTD SVG 1.1//EN" "http://www.w3.org/Graphics/SVG/1.1/DTD/svg11.dtd">
<svg version="1.1" id="solid" xmlns="http://www.w3.org/2000/svg" xmlns:xlink="http://www.w3.org/1999/xlink" x="0px" y="0px"
	 width="400px" height="400px" viewBox="0 0 400 400" enable-background="new 0 0 400 400" xml:space="preserve">
<polygon fill="#DF7126" points="149,320.2 146.3,317.5 142.9,317.1 139.8,318 137.7,321.2 137.6,322.2 139.1,325.8 144.1,327.3 
	147.2,326.4 149.3,323.2 "/>
<polygon fill="#DF7126" points="125.9,318 80.6,316.8 77.5,315.8 74.6,314.3 72.1,312.2 70.1,309.7 68.5,306.9 67.5,303.7 
	67.1,279.2 65,276.1 62.1,275.2 58.6,276.7 57.6,305.8 59.2,310.8 61.7,315.4 65,319.4 69,322.7 73.5,325.1 78.6,326.7 84,327.3 
	124,327.2 127.2,325 128,321.2 "/>
<polygon fill="#DF7126" points="363.6,272.2 359.1,268.8 355.1,264.7 352.2,259.8 350.7,254.2 350.7,248.4 352.2,242.9 355.1,237.9 
	359.1,233.8 361.6,232.2 364.1,229.7 364.8,170.4 328.9,124.2 326.4,122.5 323.2,122.3 320.4,123.4 317.6,126.3 315.1,128.5 
	312.2,130 309,130.8 304.5,130.6 299.5,128.5 295.7,124.7 293.6,119.7 293.5,114.8 294.7,110.9 296.9,107.5 300.1,104.9 
	303.9,102.7 305.6,100.2 306.1,97.1 305.1,94.2 271.7,52.4 268.7,50.9 265.3,51 170.5,99 168.4,101.5 167.8,104.7 168.3,109.3 
	167.7,114.4 164.9,120.6 160.3,125.2 167.4,136.6 173.3,131.6 177.9,125.2 179.5,121.7 180.8,117.9 181.6,113.9 181.8,108.3 
	265.4,66 289.4,96.1 285.4,100.3 282.4,105.4 280.5,110.9 279.8,116.9 280.4,122.4 282,127.6 284.5,132.3 287.9,136.3 292,139.7 
	296.6,142.2 301.8,143.8 307.3,144.4 311.7,144.1 315.9,143 319.9,141.3 323.6,139 344.2,164.9 324.5,164.9 324.5,178.4 
	351.5,178.4 351.5,222.7 345.4,228.4 340.9,235.3 338,243 337,251.3 338,259.6 340.9,267.4 345.4,274.2 351.5,279.9 351.5,335.8 
	48.5,335.8 48.5,178.4 324.2,178.4 324.2,164.9 70,164.9 129.3,134.9 133.9,137.9 138.8,140.2 144.1,141.5 149.6,142 154.3,141.7 
	158.9,140.6 163.2,139 167.1,136.8 159.8,125.4 155,127.7 149.6,128.5 145.6,128.1 141.9,126.9 138.5,124.9 134.8,121.4 
	131.8,120.1 128.5,120.3 38,166.1 35.7,168.8 35.2,343.9 37,347.3 40.4,349.2 359.6,349.2 363,347.3 364.8,343.9 364.9,275.4 "/>
<polygon fill="#DF7126" points="252.3,119.8 250.6,116.8 248.1,114.1 245,111.8 241.4,110 237.3,108.8 230.4,108 229.5,108 
	229.7,118.2 235.5,118.8 239.5,120.3 242.2,122.5 243.1,125.5 241.1,128.5 237.7,130.4 230.4,131.7 225.3,131.1 221.2,129.5 
	218.6,127.3 217.6,124.3 220.2,121 223.7,119.3 229.4,118.2 229.2,108 224.7,108.5 220.6,109.6 216.9,111.2 213.7,113.2 
	211.1,115.7 209.1,118.5 207.9,121.6 207.5,124.9 207.9,128.4 210.2,133 212.6,135.7 215.7,138 219.4,139.8 223.5,141.1 228,141.7 
	232.8,141.7 237.3,141.1 241.4,139.8 245,138 248.1,135.7 250.6,133 252.3,130 253.2,126.7 253.2,123.2 "/>
<polygon fill="#DF7126" points="141.2,215.3 140.1,211.7 138.5,208.4 136.4,205.6 133.8,203.2 130.7,201.4 127.4,200.2 123.7,199.7 
	123.7,207.6 126.5,208.7 129,211.2 130.7,214.7 131.4,219.2 130.6,223.9 128.7,227.5 126,229.9 123,230.8 120,229.9 117.2,227.5 
	115.3,223.9 114.5,219.2 115.3,214.5 117.2,210.8 120,208.4 123.5,207.6 123.4,199.7 119.2,200 115.7,201.1 112.5,202.9 
	109.8,205.3 107.5,208.2 105.8,211.5 104.8,215.2 104.4,219.2 104.8,223.1 105.8,226.8 107.5,230.1 109.8,233 112.5,235.4 
	115.7,237.2 119.2,238.3 123,238.7 126.7,238.3 130.2,237.2 133.4,235.4 136.1,233 138.4,230.1 140.1,226.8 141.1,223.1 
	141.5,219.2 "/>
<polygon fill="#DF7126" points="275.4,282 273.9,276.3 271.6,271.2 268.5,266.7 264.8,263 260.5,260.2 255.7,258.4 250.6,257.8 
	250.5,267.9 253.7,268.3 257.9,270.3 260.3,272.5 262.3,275.3 264,278.5 265.1,282.1 265.7,286.1 265.7,290.2 265.1,294.1 
	264,297.8 262.3,301 260.3,303.7 257.9,305.9 255.1,307.5 252.2,308.3 249.1,308.3 246.1,307.5 243.4,305.9 241,303.7 238.9,301 
	237.3,297.8 236.1,294.1 235.5,290.2 235.5,286.1 236.1,282.2 237.2,278.7 238.8,275.5 240.8,272.7 243.1,270.5 245.8,269 
	250.2,268 250.2,257.8 245.2,258.5 240.5,260.3 236.3,263.1 232.6,266.9 229.6,271.3 227.3,276.4 225.8,282.1 225.3,288.1 
	225.8,294.2 227.3,299.9 229.7,305.1 232.7,309.6 236.5,313.3 240.8,316.1 245.5,317.9 250.6,318.5 255.7,317.9 260.5,316.1 
	264.8,313.3 268.5,309.6 271.6,305.1 273.9,299.9 275.4,294.2 275.9,288.1 "/>
</svg>
