<?xml version="1.0" encoding="utf-8"?>
<!-- Generator: Adobe Illustrator 17.0.0, SVG Export Plug-In . SVG Version: 6.00 Build 0)  -->
<!DOCTYPE svg PUBLIC "-//W3C//DTD SVG 1.1//EN" "http://www.w3.org/Graphics/SVG/1.1/DTD/svg11.dtd">
<svg version="1.1" id="Layer_1" xmlns="http://www.w3.org/2000/svg" xmlns:xlink="http://www.w3.org/1999/xlink" x="0px" y="0px"
	 width="400px" height="180px" viewBox="0 0 400 180" enable-background="new 0 0 400 180" xml:space="preserve">
<polygon fill="#D7CCE5" points="385,72.3 380.3,74.6 374.6,76.5 371.6,77.2 368.4,77.6 365.3,77.5 362.2,76.9 359.2,75.8 
	356.4,73.9 353.9,71.3 351.7,67.9 349.6,64.7 347.2,62.2 344.6,60.4 340.2,58.6 337.1,58.1 333.9,58 329.1,58.5 330.3,55.5 
	330.7,52.4 330.3,49 327.7,42.6 327.1,39.9 327.2,37.3 327.7,35 328.7,32.8 330,30.7 331.6,28.9 335.2,25.8 338.8,23.4 344.1,20.9 
	339.9,20 335.4,19.5 329.8,19.5 323.7,20.4 320.6,21.3 317.6,22.6 314.6,24.3 311.7,26.4 309.1,29.1 306.8,32.4 303.6,38.5 
	301.6,44.5 300.8,50.2 300.8,55.4 301.5,60.1 302.8,64.1 304.5,67.4 306.4,69.7 286.4,71.4 243.4,69.2 197.9,60.6 107.6,33 
	97.1,31.6 86.9,31.1 76.9,31.6 67.4,33.1 58.4,35.4 49.9,38.6 42.1,42.5 35,47.3 28.8,52.8 23.4,58.9 19.1,65.8 15.8,73.3 
	13.6,81.4 12.7,90 13.2,98.6 15.1,106.8 18.3,114.6 22.7,122 28.3,128.9 35,135.3 42.6,141.1 51.1,146.3 70.3,155 91.8,160.9 
	115,163.8 139.1,163.6 162.5,159.7 186.6,152.4 234.3,130.1 276.9,102.4 309.2,75.1 310.5,78.9 312.9,83 316.4,87.2 321,91.3 
	326.6,95 333.2,98.1 341,100.3 349.7,101.4 355,101.2 359.8,100.3 364.2,98.9 368.2,96.9 371.8,94.5 375,91.8 380.4,85.9 384.5,80 
	388.8,71 "/>
<polygon fill="#6269B1" points="82.6,54.3 81.3,51.9 79.8,50.5 77.9,49.6 75.8,49.3 73.7,49.6 71.8,50.5 70.3,51.9 69.2,53.6 
	68.7,55.7 68.8,57.9 69.5,59.8 70.7,61.5 72.4,62.7 74.3,63.4 76.5,63.5 78.5,63 80.3,61.9 81.7,60.4 82.6,58.5 82.9,56.4 "/>
<polygon fill="#F6F3F9" points="250.7,119.4 237.5,125.3 224.3,129.4 211.4,132 198.6,133 186,132.8 161.6,129.1 138.6,121.9 
	64.3,83.7 57.4,81.2 51.1,79.5 45.4,78.6 40.1,78.4 35.4,78.7 31.1,79.5 27.3,80.7 23.9,82.2 21,84 18.6,85.9 16.5,87.8 13.6,91.6 
	13.7,101.5 16,109.4 19.5,116.9 24.2,124 30,130.6 36.7,136.7 44.3,142.2 61.9,151.7 82.1,158.6 104.1,162.8 127.3,164.1 
	146.8,162.7 162.6,159.7 194.9,149.2 226.9,134.2 264,111.6 "/>
<polygon fill="#C4B3D7" points="166.5,153.3 159.2,147.2 156.5,144.3 154.5,141.5 152.8,138.8 151.6,136.1 150.1,130.9 148.6,120.9 
	147.3,116 146.2,113.5 144.9,111.1 143.3,108.8 141.6,106.8 139.7,105.1 137.6,103.6 135.5,102.4 133.2,101.6 130.9,101 
	128.6,100.9 126.3,101.1 123.9,101.7 121.7,102.7 119.5,104.2 117.4,106.1 115.4,108.5 113.6,111.4 112.3,114.7 111.8,118.2 
	112,121.7 112.9,125.3 114.6,129 116.9,132.5 119.8,136.1 123.4,139.4 127.6,142.7 132.4,145.7 143.5,150.8 156.5,154.6 
	171.3,156.5 "/>
<polygon fill="#D7CCE5" points="167.1,153.4 160.2,146.9 157.7,143.8 155.8,140.9 154.3,138.1 153.3,135.3 152.1,130.1 151.1,120 
	150.1,115 149.2,112.4 148,109.9 146.6,107.6 145,105.5 143.2,103.7 141.2,102.1 139.1,100.8 136.9,99.8 134.7,99.1 132.4,98.8 
	130,98.8 127.7,99.3 125.3,100.2 123.1,101.5 120.9,103.3 118.8,105.6 116.8,108.5 115.3,111.7 114.6,115.1 114.6,118.6 
	115.3,122.3 116.7,126 118.8,129.7 121.5,133.4 124.9,137 128.9,140.5 133.5,143.7 144.2,149.5 157.1,154 171.7,156.9 "/>
<polygon fill="#C4B3D7" points="165.5,68.8 162.8,67.4 159.4,66.4 156.6,66 153.3,65.9 150.4,66.6 149.2,68.4 150.7,70.2 
	153.1,71.6 156.4,72.7 160.1,73.4 164.8,73.3 167.1,72.3 167.2,70.2 "/>
<polygon fill="#C4B3D7" points="176.1,64.3 173.4,63.6 169.8,63.4 168,64.6 169.6,65.8 172.3,66.5 176,66.8 177.8,65.5 "/>
<polygon fill="#FFFFFF" points="79.1,56.7 77.6,57.4 77.8,59.4 79.8,59.8 80.8,58 "/>
<polygon fill="#FFFFFF" points="75.1,51.7 73.2,51 72.4,51.1 70.8,52.5 70.9,54.6 72.7,55.8 74.7,55.4 75.8,53.7 "/>
<polygon fill="#FFFFFF" points="103.2,67.1 100.7,66.5 97.5,66.3 95.9,66.3 93.1,66.8 90.9,67.6 89.5,69.2 90.9,70.9 93.1,71.7 
	95.9,72.1 99.2,72.1 102,71.7 104.9,70.4 105.2,68.3 "/>
<polygon fill="#FFFFFF" points="102.3,66.2 99.8,65.6 96.7,65.4 95,65.4 92.2,65.9 90,66.7 88.6,68.3 90,70 92.2,70.8 95,71.2 
	98.3,71.2 101.1,70.8 104,69.5 104.3,67.5 "/>
</svg>
