<?xml version="1.0" encoding="utf-8"?>
<!-- Generator: Adobe Illustrator 17.0.0, SVG Export Plug-In . SVG Version: 6.00 Build 0)  -->
<!DOCTYPE svg PUBLIC "-//W3C//DTD SVG 1.1//EN" "http://www.w3.org/Graphics/SVG/1.1/DTD/svg11.dtd">
<svg version="1.1" id="Layer_1" xmlns="http://www.w3.org/2000/svg" xmlns:xlink="http://www.w3.org/1999/xlink" x="0px" y="0px"
	 width="400px" height="240px" viewBox="0 0 400 240" enable-background="new 0 0 400 240" xml:space="preserve">
<polygon fill="#E29D2B" points="386.1,110.9 383.4,102.5 379.2,95.1 373.6,88.8 366.3,83.7 351.6,77.9 322.7,75.6 293.5,79.4 
	288.4,78.6 251.3,54.3 242.3,51.7 237.8,51.5 226.2,53.7 215.5,59.7 205.7,69.7 194,92.3 203.4,94.8 204.6,91.2 212.2,78.5 
	220.2,69.5 228.8,64 233.2,62.5 237.9,62 244.5,63 281.7,87.2 285.9,88.9 290.4,89.8 336,86.2 354.8,90 362.6,93.8 368.7,98.9 
	373.2,105.4 376.9,121.8 376.5,140.3 363.4,183.6 353.8,198.4 342.7,209.2 329.9,215.7 315.3,218.3 307.2,217.6 299.6,215.5 
	285.7,207.1 256.5,168.2 254,166.3 209.4,156.6 200.8,152.1 197.7,149.2 195.5,145.9 193.3,135.3 194.1,122.7 200.8,102.6 
	190.1,99.7 188.4,103 183.8,120.5 182.8,136 185.5,149.3 188.4,154.3 192.3,158.8 203.6,165.6 245.6,174 248.7,175.3 280.2,216.2 
	296.6,225.6 315.1,228.8 332.2,226.1 347.2,218.9 360.3,207.1 376.7,179.6 384.4,155.7 387.8,131.2 "/>
<polygon fill="#F7B231" points="383.5,112.4 379.2,99.1 375.7,93.8 371.4,89.5 366.2,86.1 353.4,80.9 334,78.3 290.5,82.2 
	283.8,80.2 245.1,54.9 236.3,53.4 228.3,54.5 220.8,57.8 213.6,63.3 200.1,82.5 187.5,122.3 186.9,133.7 188,142.9 190.8,150 
	192.9,152.7 200.5,158.1 209.4,161.3 246.9,164.8 250.6,166.7 274.4,201.4 292.2,216.6 307.8,222.2 315.7,222.9 333.3,220.1 
	343.7,215 353.3,207.5 362.6,196.4 377.2,166.6 384.4,129.4 "/>
<polygon fill="#8F816F" points="267.2,113.4 266.1,109.9 264.2,106.6 261.9,103.9 259.1,101.6 255.9,99.9 255.8,99.9 252.3,98.9 
	248.7,98.6 245.2,99 241.6,100.1 238.3,102 235.6,104.3 233.3,107.1 231.6,110.3 230.6,113.9 230.3,117.5 230.7,121.1 231.8,124.6 
	233.6,127.9 235.9,130.6 238.7,132.9 242,134.6 245.5,135.6 249.1,135.9 252.7,135.5 256.3,134.4 259.5,132.6 262.3,130.3 
	264.5,127.5 266.3,124.2 267.3,120.6 267.6,117 "/>
<polygon fill="#56564E" points="339,110.3 336.3,107.6 335.1,107.1 331.8,107.1 329.2,108.6 301.3,178.5 301.9,182.3 304.5,185 
	308,185.7 311.7,184 339.6,114 "/>
<polygon fill="#875E3D" points="277.7,113.1 276.2,107.9 273.6,103.2 270.4,99.1 266.4,95.8 261.6,93.3 256.5,91.7 251.3,91.2 
	246.1,91.7 240.9,93.2 236.2,95.7 232.1,99 228.8,103.1 226.3,107.8 238.3,111.7 240.8,107.9 245.5,104.8 251.1,103.6 256.8,104.7 
	261.5,107.9 264.7,112.7 265.8,118.3 264.7,123.8 261.5,128.6 256.8,131.7 251.2,132.8 245.7,131.7 240.9,128.6 237.7,123.9 
	236.6,118.3 237.7,112.7 237.9,112.4 226,108.5 224.7,113 224.1,118.2 224.7,123.4 226.2,128.6 228.8,133.3 232,137.3 236,140.6 
	240.8,143.2 245.9,144.7 251.1,145.3 256.3,144.8 261.5,143.2 266.2,140.7 270.2,137.4 273.6,133.4 276.2,128.6 277.7,123.4 
	278.2,118.3 "/>
<polygon fill="#202118" points="244.2,98.4 75.8,34.2 63.9,28.3 62.5,32.2 72.7,37.1 238,101.3 230.4,109.9 230.9,122.3 67.7,53.9 
	57,53.5 21.5,42.4 16.1,38.9 13.3,35.3 13.8,31.2 14.2,25.2 21.2,19.3 24.3,15.2 25.9,14.7 62.2,32 63.6,28.2 27.7,10.4 25.9,10.3 
	22.3,11.2 18.2,16.1 12.2,19.5 10.1,23 8.6,34.3 9.6,37.7 16.2,44.4 55,57.7 66.7,58.1 233.5,128 234.8,111.6 245,101.6 "/>
<polygon fill="#3A3A27" points="241,100.8 74.1,36.9 62.9,31 62.9,31.2 64.5,31.9 61.3,39.5 60,38.9 58.7,42.3 58.9,42.4 55.8,51.7 
	23.9,41.2 27,31.9 58.3,42.2 59.6,38.8 29.9,26.4 33,18.9 62.5,31.1 62.6,30.8 33,15.1 26,13.5 20.7,18.1 14.3,21.9 13,24.7 
	12.7,30.2 11.8,33.1 13.2,37.6 17.4,41.4 54.8,54.4 66.9,55 232.2,124.3 231.6,110.3 "/>
<polygon fill="#FFFFFF" points="56.6,49.4 56.4,49.8 318.2,157.5 318.3,157.3 "/>
<polygon fill="#FFFFFF" points="57.8,47.1 57.4,47.1 57.4,47.2 57.4,47.3 320.3,152.3 320.6,152.1 320.6,151.9 "/>
<polygon fill="#FFFFFF" points="58.3,44.1 58.3,44.2 58.2,44.5 321.9,148 322.1,148 322.1,147.9 322.1,147.8 "/>
<polygon fill="#FFFFFF" points="61.9,38.1 61.8,38.5 323.7,143.3 323.7,143.1 "/>
<polygon fill="#FFFFFF" points="63,35.6 62.8,35.8 325.6,138.6 325.9,138.6 325.9,138.5 326,138.4 "/>
<polygon fill="#FFFFFF" points="63.8,33.5 63.7,33.9 326.9,134.4 327.2,134.4 327.2,134.3 327.3,134.2 "/>
<polygon fill="#F1E9B6" points="72.8,36 64.9,53.2 73.1,36.9 "/>
<polygon fill="#202118" points="23.9,39.3 22.6,42.1 57.9,54.8 60,52.8 "/>
<polygon fill="#202118" points="40.4,45.7 56.8,53.8 57,51.5 "/>
</svg>
