<?xml version="1.0" encoding="utf-8"?>
<!-- Generator: Adobe Illustrator 17.0.0, SVG Export Plug-In . SVG Version: 6.00 Build 0)  -->
<!DOCTYPE svg PUBLIC "-//W3C//DTD SVG 1.1//EN" "http://www.w3.org/Graphics/SVG/1.1/DTD/svg11.dtd">
<svg version="1.1" id="Layer_1" xmlns="http://www.w3.org/2000/svg" xmlns:xlink="http://www.w3.org/1999/xlink" x="0px" y="0px"
	 width="300px" height="400px" viewBox="0 0 300 400" enable-background="new 0 0 300 400" xml:space="preserve">
<polygon fill="#FFFFFF" points="269.6,106.5 268,102.7 265.5,99.5 260.7,95.7 257,93.9 253.1,92.6 249.3,91.8 245.7,91.4 
	241.8,91.4 229.4,97.7 264.1,64.2 266.3,60.6 268.1,55 269.2,48.5 269.4,41.5 268.7,33.7 267.8,29.7 266.6,26.1 265.1,22.7 
	263.3,19.8 261.2,17.1 258.8,14.9 256.2,13.1 250.8,10.9 247.8,10.4 244.7,10.2 239.4,10.7 234,12 228.6,14.1 223.5,16.8 
	218.8,19.9 214.6,23.2 211.2,26.8 208.6,30.3 196.5,78.4 196.7,68 195.1,63.8 192.7,60.1 189.6,56.5 186,53.2 181.8,50.5 
	177.5,48.6 173,47.8 168.6,48.2 165.5,49.4 162.6,51.4 160.1,54 157.8,57.2 154.6,65.3 153.6,71 153.6,76.3 182.2,125.9 
	195.6,133.6 249.7,134.6 255.8,132 259.5,129.4 263,126.1 266,122.3 268.4,118 269.8,113.5 270,108.8 "/>
<polygon fill="#86C9A8" points="257.3,36.2 256.1,31.2 254.2,27.1 251.8,24.2 248.8,22.5 245.1,21.8 239.1,22.6 235.3,23.9 
	231.6,25.6 224.8,29.8 222,32.2 219.9,34.4 219.1,35.5 200.6,109.4 255.4,56.5 257,51.4 257.6,46.8 257.8,41.7 "/>
<polygon fill="#86C9A8" points="256.5,107 253,104.9 248.6,103.5 243.5,103 210.7,122.3 248.2,122.9 251.6,120.7 255.2,117.2 
	257.8,113.2 258.4,109.5 "/>
<polygon fill="#86C9A8" points="183.1,66.5 180,63.1 176.2,60.4 172.5,59.3 169.3,61.1 167.1,64.6 165.9,67.9 165.2,71.1 165.1,75 
	184.4,107.1 185,69.6 "/>
<polygon fill="#F0D2B7" points="230.2,153.2 229,147.2 227.1,141.8 224.5,136.8 221.3,132.2 217.6,127.9 208.6,120.3 198.2,113.6 
	187.1,107.9 176.1,104 170.5,102.8 164.9,102.4 159.3,102.6 153.6,103.7 147.9,105.6 142.2,108.5 136.3,112.4 130.5,117.4 
	118.5,131 106.2,149.8 57.7,254.8 36.4,324.9 32,353.5 31.8,365.1 33.1,374.7 36,382 40.6,386.6 46.9,388.3 54.6,387.1 63.5,383.5 
	73.5,377.4 96,359.4 120.7,334.9 170.9,274.4 212.8,211.4 223,191.3 228.7,174.2 230.1,166.6 230.6,159.6 "/>
<polygon fill="#FFFFFF" points="242.6,170.2 241,167.3 238.5,164.9 214.2,150.8 210.9,149.8 207.5,149.9 204.3,150.9 201.6,152.8 
	199.4,155.5 198.1,158.8 197.8,162.2 198.5,165.4 200.1,168.4 202.6,170.8 228.7,185.5 231.7,185.9 232.4,185.9 235.4,185.3 
	239.3,183.1 241.3,180.8 243,176.9 243.3,173.5 "/>
<polygon fill="#FFFFFF" points="134.8,180.7 133.1,177.8 130.7,175.4 100.2,157.8 96.9,156.8 93.5,156.9 90.3,157.9 87.6,159.8 
	85.4,162.6 84.1,165.8 83.9,169.2 84.6,172.5 86.2,175.4 88.6,177.8 120.9,196 123.9,196.4 124.6,196.4 128.9,195.2 131.5,193.6 
	133.5,191.3 135.2,187.3 135.5,184 "/>
<polygon fill="#FFFFFF" points="111.5,197.2 109.9,194.2 107.4,191.8 83.1,177.8 79.8,176.8 76.4,176.9 73.3,177.9 70.5,179.8 
	68.3,182.5 67,185.8 66.8,189.2 67.5,192.4 69.1,195.4 71.5,197.8 97.6,212.4 100.6,212.8 101.3,212.8 105.6,211.7 108.2,210 
	110.2,207.7 111.9,203.8 112.2,200.4 "/>
<polygon fill="#FFFFFF" points="143.1,319 141.5,316.1 139,313.7 124.8,305.5 121.5,304.5 118.1,304.6 115,305.6 112.2,307.5 
	110,310.3 108.7,313.5 108.5,316.9 109.2,320.1 110.8,323.1 113.3,325.5 129.2,334.3 132.2,334.7 132.9,334.7 135.9,334.1 
	139.8,331.9 141.8,329.6 143.5,325.6 143.8,322.3 "/>
<polygon fill="#FFFFFF" points="190.9,264.1 189.3,261.2 186.8,258.8 160.5,243.7 157.2,242.7 153.8,242.8 150.7,243.8 147.9,245.7 
	145.7,248.5 144.4,251.7 144.2,255.1 144.9,258.3 146.5,261.3 149,263.7 177,279.5 180,279.8 182.2,279.6 185.1,278.7 187.6,277 
	189.6,274.7 191.3,270.8 191.6,267.4 "/>
<polygon fill="#FFFFFF" points="99.8,264.3 98.1,261.3 95.7,258.9 77.2,248.2 73.9,247.3 70.5,247.4 67.3,248.4 64.6,250.3 
	62.4,253 61.1,256.3 60.8,259.6 61.6,262.9 63.2,265.8 65.6,268.2 85.9,279.6 88.9,279.9 89.6,279.9 93.9,278.8 96.5,277.1 
	98.5,274.8 100.2,270.9 100.5,267.5 "/>
</svg>
