<?xml version="1.0" encoding="utf-8"?>
<!-- Generator: Adobe Illustrator 17.0.0, SVG Export Plug-In . SVG Version: 6.00 Build 0)  -->
<!DOCTYPE svg PUBLIC "-//W3C//DTD SVG 1.1//EN" "http://www.w3.org/Graphics/SVG/1.1/DTD/svg11.dtd">
<svg version="1.1" id="solid" xmlns="http://www.w3.org/2000/svg" xmlns:xlink="http://www.w3.org/1999/xlink" x="0px" y="0px"
	 width="400px" height="400px" viewBox="0 0 400 400" enable-background="new 0 0 400 400" xml:space="preserve">
<polygon fill="#298340" points="371,200.4 368.2,196.3 364.2,192.2 359.1,188.3 346.6,181 288.5,159.2 284,156.6 281.4,153.7 
	281.9,149.4 284.8,147.4 289.4,146.1 295.2,145.3 322.1,146.7 369,161.4 360.1,121.9 344.2,89.9 325.4,65.2 296.3,36.7 280.6,26.8 
	265.6,21.4 251.4,19.7 238.2,20.8 226,24 197,38 193.7,41.1 191.1,44.6 188.9,48.5 185.9,56.9 184.4,65.5 184.7,86.7 194.3,73 
	200.8,66.9 216.5,57.4 231.9,51.3 248.3,47 218.9,57.9 208.1,64.4 193.3,79.8 188.6,87.2 187.1,91.7 189.7,97.5 194.1,97.3 
	201.5,95.8 211.5,92.2 247.4,68.8 273,70.5 250.2,71.3 244.7,73.1 200.8,103.1 194,105.6 190,105 203.2,133.1 206.3,135 209.9,135 
	241.2,130.1 293.8,133.4 250.7,132.3 219.1,136.3 207.7,139.8 230.2,191.2 259.5,190.2 273.2,192.2 287,196.5 255,193.5 
	242.6,194.9 233.4,197.6 266.1,264.5 285.5,269.5 294.3,273.7 315.1,290.3 290.9,274.3 283.7,272.1 277.1,271.3 270.2,271.4 
	298.8,336.9 245.6,240.4 218.9,286.1 217.1,293.8 216.4,301.2 216.5,303.5 215.6,297.3 216.9,283.5 222.7,267.6 243.5,231.4 
	212.7,172.8 195,191.7 165.4,233.5 140.3,283.4 169.3,217.3 209.1,164.9 190.3,125.2 186.3,127.2 155.6,148.5 107.1,196.1 
	96.8,213.2 99,207.5 111,187.1 129.4,164.5 185.1,118.3 185.3,114.2 181.3,104.7 177,97.1 122.3,119.5 67.3,154.3 116.4,116.5 
	172.7,91.9 163.3,88.7 141.4,84.5 128.6,84.9 104,90.6 117.7,85.4 139.2,80.3 157.6,82 170.9,85.3 146.4,71 128,63.7 119.1,62 
	105.1,62.6 96.9,65.4 94.1,67.3 87.9,72.9 42.4,134.3 38,147 35.8,160.3 35.5,174 39.7,201.7 48.3,228.3 80.5,288.7 90.2,259.2 
	95.1,250.2 148.2,189.8 154.2,186.2 157.1,185.2 162.7,185.1 166.1,187.8 165.9,192.6 163.1,198.9 158.3,206.2 114.7,256.5 
	103.4,277.6 99.9,289.9 98.5,303.4 99.2,310.2 101.2,316.5 104.3,322.3 108.3,327.8 118.2,337.4 129.6,345.2 160.5,359.1 
	155.3,342.9 153.5,330.8 153.7,325 156.6,314.6 176.7,270.9 185.5,257.3 194.6,247.2 198.8,244.4 202.4,243.4 205.6,246.1 
	205.5,250.6 185.8,305.9 184.3,320.3 185.1,335.7 189,351.4 190.8,355 193.4,358 196.5,360.4 200.2,362.4 209.1,364.9 267.5,364.7 
	312.4,371.9 316.2,371 318.1,368.7 356.6,282.9 356.7,275.7 353.6,267.8 351.3,264.6 348.8,262.6 300.9,240.1 298.2,237.6 
	296.8,233.5 298.7,230.3 302,229.4 305.2,229.5 331.5,235.1 361.6,252.9 372.2,211.4 372.3,205 "/>
</svg>
