<?xml version="1.0" encoding="utf-8"?>
<!-- Generator: Adobe Illustrator 17.0.0, SVG Export Plug-In . SVG Version: 6.00 Build 0)  -->
<!DOCTYPE svg PUBLIC "-//W3C//DTD SVG 1.1//EN" "http://www.w3.org/Graphics/SVG/1.1/DTD/svg11.dtd">
<svg version="1.1" id="Layer_1" xmlns="http://www.w3.org/2000/svg" xmlns:xlink="http://www.w3.org/1999/xlink" x="0px" y="0px"
	 width="300px" height="400px" viewBox="0 0 300 400" enable-background="new 0 0 300 400" xml:space="preserve">
<polygon fill="#E78A8A" points="204,372.7 201.6,348.5 200.2,342.5 199.1,339.8 197.8,337.5 196.1,335.4 194.1,333.7 191.6,332.5 
	188.8,331.7 185.4,331.4 182.7,331.7 180.3,332.8 178.1,334.4 176.1,336.6 174.3,339.3 171.3,345.8 169,353.4 167.4,361.4 
	165.9,376.6 166.1,382.6 166.6,385 168.6,388.4 171.6,390.5 175.3,391.5 177.4,391.7 202.3,390.9 205.2,389.7 206.4,387.5 
	206.4,385 "/>
<polygon fill="#FCDBDB" points="203.2,372.2 200.8,348.1 199.3,342 198.3,339.4 196.9,337 195.2,335 193.2,333.3 190.8,332 
	187.9,331.2 184.5,330.9 181.9,331.3 179.5,332.3 177.3,334 175.3,336.2 173.5,338.9 170.5,345.4 168.2,352.9 166.6,361 
	165.1,376.2 165.2,382.2 165.8,384.5 167.8,387.9 170.8,390 174.5,391.1 176.5,391.3 201.5,390.4 204.4,389.3 205.6,387 
	205.6,384.6 "/>
<polygon fill="#E78A8A" points="159,375 156.5,350.8 155.1,344.7 154,342.1 152.7,339.7 151,337.7 149,336 146.5,334.8 143.7,334 
	140.3,333.7 137.6,334 135.2,335 133,336.7 131,338.9 129.2,341.6 126.2,348.1 123.9,355.7 122.3,363.7 120.8,378.9 121,384.9 
	121.5,387.2 122.4,389.1 124.9,391.9 128.3,393.4 130.3,393.8 132.3,394 157.2,393.1 160.1,392 161.3,389.8 161.3,387.3 "/>
<polygon fill="#FCDBDB" points="158.1,374.5 155.7,350.3 154.2,344.3 153.2,341.6 151.8,339.3 150.2,337.2 148.1,335.6 145.7,334.3 
	142.8,333.5 139.5,333.2 136.8,333.6 134.4,334.6 132.2,336.2 130.2,338.5 128.4,341.1 125.4,347.6 123.1,355.2 121.5,363.2 
	120,378.5 120.1,384.4 120.7,386.8 122.7,390.2 125.7,392.3 129.4,393.3 131.4,393.5 156.4,392.7 159.3,391.5 160.5,389.3 
	160.5,386.9 "/>
<polygon fill="#E78A8A" points="214.7,313.7 213.8,310.4 208.7,298.5 201,285.1 196.5,279.1 191.9,274.3 189.6,272.5 187.4,271.2 
	185.2,270.5 183,270.4 180.7,271 178.2,273.6 178.1,277.7 178.7,280.2 189,304.8 189.7,307.7 189.9,310.4 189.7,314.9 189,318.5 
	187,324.8 188.6,326.2 199.4,326.5 204.2,326.1 206.6,325.6 208.7,324.9 210.7,323.9 212.4,322.7 213.7,321.1 214.6,319.1 
	214.9,316.6 "/>
<polygon fill="#FCDBDB" points="213.5,313.6 212.6,310.2 207.6,298.4 199.8,285 195.4,279 190.8,274.2 188.5,272.4 186.2,271.1 
	184,270.4 181.9,270.3 179.5,270.8 177.1,273.4 177,277.6 177.6,280.1 187.9,304.7 188.6,307.6 188.8,310.2 188.5,314.8 
	187.9,318.4 185.8,324.7 187.5,326.1 198.2,326.4 203.1,325.9 205.4,325.5 207.6,324.8 209.6,323.8 211.2,322.5 212.5,320.9 
	213.4,318.9 213.8,316.5 "/>
<polygon fill="#E78A8A" points="209.1,327.3 206.8,315.5 202.6,303.5 196.7,291.8 189.5,281.1 181.4,272.1 177.1,268.5 172.6,265.5 
	168.1,263.2 163.5,261.8 158.9,261.3 154.3,261.8 149.7,263 145,265 140.3,267.7 135.7,270.9 131.3,274.7 123,283.7 115.8,294 
	110.2,305.2 106.5,316.6 105.5,322.2 105.2,327.7 105.5,332.8 106.5,337.6 108.1,341.8 110.2,345.7 112.8,349.2 115.8,352.3 
	119.2,355 123,357.4 127,359.4 135.7,362.6 145,364.5 154.3,365.5 163.5,365.5 181.4,363.8 189.5,361.5 193.3,360 196.7,358.1 
	199.8,355.8 202.6,353.2 204.9,350.1 206.8,346.5 208.2,342.5 209.1,337.9 209.4,332.8 "/>
<polygon fill="#FCDBDB" points="207.2,326.8 205,315.1 200.7,303 194.8,291.3 187.7,280.7 179.5,271.7 175.2,268 170.7,265 
	166.2,262.8 161.6,261.4 157.1,260.9 152.5,261.3 147.8,262.5 143.1,264.5 138.4,267.2 133.8,270.5 129.4,274.3 121.1,283.2 
	113.9,293.6 108.3,304.7 104.6,316.1 103.7,321.7 103.3,327.2 103.7,332.4 104.6,337.1 106.2,341.4 108.3,345.3 110.9,348.7 
	113.9,351.8 117.3,354.6 121.1,356.9 125.1,359 133.8,362.1 143.1,364.1 152.5,365 161.6,365 179.5,363.3 187.7,361.1 191.4,359.5 
	194.8,357.6 198,355.4 200.7,352.7 203.1,349.6 205,346.1 206.4,342 207.2,337.5 207.5,332.4 "/>
<polygon fill="#E78A8A" points="125.8,306.7 136.1,282.1 136.8,279.6 136.7,275.5 134.2,272.9 131.8,272.3 129.7,272.4 127.5,273.1 
	125.2,274.4 122.9,276.2 118.3,281 113.9,287 106.2,300.4 101.1,312.3 100.2,315.6 100,318.5 100.3,320.9 101.2,322.9 102.5,324.6 
	104.2,325.8 106.1,326.8 108.3,327.5 110.7,328 115.5,328.4 126.3,328.1 127.9,326.7 125.9,320.4 125.2,316.8 124.9,312.3 
	125.2,309.6 "/>
<polygon fill="#FCDBDB" points="125,305.5 135.3,280.9 135.9,278.3 135.8,274.2 133.3,271.6 131,271 128.8,271.1 126.6,271.8 
	124.4,273.1 122.1,274.9 117.5,279.7 113.1,285.7 105.3,299.2 100.2,311 99.3,314.4 99.1,317.3 99.5,319.7 100.3,321.7 101.6,323.3 
	103.3,324.6 105.3,325.5 107.5,326.2 109.8,326.7 114.7,327.1 125.4,326.8 127,325.4 125,319.2 124.3,315.5 124.1,311 124.3,308.3 
	"/>
<polygon fill="#E78A8A" points="118.2,116.8 116.1,98.9 108.2,64.7 103.1,51.4 100.4,46.3 97.5,42 91.1,34.2 84,27.7 76.5,22.6 
	68.7,19 64.9,17.8 61,17 57.2,16.7 53.5,16.7 49.9,17.3 46.5,18.3 43.2,19.7 40.2,21.6 37.6,23.9 35.3,26.6 33.4,29.6 31.8,32.8 
	30.6,36.4 29.8,40.1 29.4,44.1 29.3,48.2 29.6,52.5 31.2,61.3 34.4,70.4 45.8,90 84.4,143.8 94.3,153.4 98.9,156.7 103.2,158.8 
	107.1,159.4 110.5,158.6 113.4,156.1 115.5,152.1 117.1,146.8 118.1,140.5 118.6,133.3 "/>
<polygon fill="#E78A8A" fill-opacity="0.9725" points="270.9,41.6 268.3,32 264.4,23.6 262.1,19.9 259.5,16.7 256.7,14 253.8,11.8 
	250.7,10.2 247.6,9.3 244.6,8.9 241.5,9.1 238.5,9.7 235.5,10.9 232.5,12.6 229.6,14.6 226.7,17.1 221,23.2 210.2,39 205.3,48.7 
	200.9,62.1 195,95.9 194.2,129.7 196.2,143.2 198,148.5 200.2,152.5 203,155.2 206.3,156.3 209.9,155.9 213.8,154.3 217.9,151.5 
	226.6,143 235.6,131.7 265.8,82.3 268.1,77.5 269.8,72.6 271,67.5 271.8,62.3 272.2,51.8 "/>
<polygon fill="#E78A8A" points="253.4,210.1 251.9,201.9 249.6,193.9 246.3,186.1 242.3,178.7 237.5,171.6 232,164.9 225.8,158.6 
	219,152.9 211.6,147.8 203.7,143.3 195.4,139.5 186.6,136.5 177.5,134.3 168.1,132.9 158.3,132.4 148.6,132.9 139.2,134.3 
	130.2,136.5 121.5,139.5 113.2,143.3 105.4,147.8 98.2,153 91.5,158.6 85.4,164.9 80,171.6 75.3,178.7 71.4,186.1 68.2,193.9 
	65.9,201.9 64.5,210.1 64,218.4 64.4,226.3 65.6,233.5 67.6,239.9 70.3,245.5 73.8,250.5 78,254.8 82.8,258.6 88.3,261.7 
	94.3,264.4 101,266.5 116,269.5 151.9,271.6 189.9,269.5 207.2,266.5 222.5,261.7 229.3,258.6 235.4,254.8 240.8,250.5 245.3,245.5 
	249,239.9 251.7,233.5 253.3,226.3 253.9,218.4 "/>
<polygon fill="#FCDBDB" points="269,40.7 266.4,31.1 262.5,22.7 260.2,19 257.7,15.8 254.9,13.1 251.9,10.9 248.8,9.3 245.8,8.3 
	242.7,8 239.7,8.1 236.6,8.8 233.6,10 230.7,11.6 227.7,13.7 224.8,16.2 219.1,22.3 208.4,38 203.4,47.7 199.1,61.1 193.1,94.9 
	192.3,128.8 193.7,137.8 193.5,137.7 184.8,134.6 175.6,132.4 166.2,131 156.5,130.5 146.8,131 137.4,132.4 128.3,134.6 
	119.6,137.7 115.8,139.4 115.8,139.3 116.2,132 115.8,115.6 113.7,97.7 105.8,63.5 100.7,50.1 98,45.1 95.1,40.7 88.7,33 81.7,26.5 
	74.1,21.4 66.4,17.8 62.5,16.6 58.6,15.8 54.8,15.4 51.1,15.5 47.6,16 44.1,17 40.8,18.5 37.9,20.4 35.2,22.7 32.9,25.4 31,28.3 
	29.5,31.6 28.3,35.1 27.4,38.9 27,42.8 26.9,47 27.2,51.2 28.9,60.1 32.1,69.2 43.4,88.8 82,142.6 91.9,152.2 93.6,153.4 
	89.6,156.8 83.5,163 78.1,169.7 73.4,176.8 69.5,184.2 66.3,192 64,200 62.6,208.2 62.1,216.5 62.5,224.5 63.7,231.6 65.7,238 
	68.5,243.7 71.9,248.6 76.1,253 80.9,256.7 86.4,259.8 92.5,262.5 99.1,264.6 114.1,267.7 150,269.7 188,267.7 205.3,264.6 
	220.7,259.8 227.5,256.7 233.6,253 238.9,248.6 243.4,243.7 247.1,238 249.8,231.6 251.4,224.5 252,216.5 251.5,208.2 250.1,200 
	247.7,192 244.5,184.2 240.4,176.8 235.6,169.7 230.1,163 223.9,156.8 217.1,151.1 216.1,150.4 224.7,142.1 233.7,130.8 263.9,81.3 
	266.2,76.6 267.9,71.7 269.2,66.6 270,61.4 270.3,50.9 "/>
<polygon fill="#E78A8A" points="127.8,237.5 126.6,234.8 124.8,233 122.6,232.4 120.4,233 118.6,234.8 117.4,237.5 117,240.7 
	117.4,244 118.6,246.6 120.4,248.4 122.6,249.1 124.8,248.4 126.6,246.6 127.8,244 128.3,240.7 "/>
<polygon fill="#E78A8A" points="213.1,235.4 211.9,232.7 210.1,231 207.9,230.3 205.7,231 203.9,232.7 202.7,235.4 202.3,238.6 
	202.7,241.9 203.9,244.5 205.7,246.3 207.9,247 210.1,246.3 211.9,244.5 213.1,241.9 213.5,238.6 "/>
<polygon fill="#E78A8A" points="173.3,260 171,259.4 169,258.4 168.9,258.3 166.1,257.5 165.7,257.6 163.9,258.8 161.2,260.1 
	158.7,260.5 158.3,261 158.8,261.5 173.2,261 173.7,260.6 "/>
<polygon fill="#FCDBDB" points="168.6,259.3 166.1,258.5 164.4,259.7 163,260.4 170.1,260.1 "/>
<polygon fill="#FEF1F1" points="241.4,80.3 240.9,78.2 240.1,76.3 239.1,74.5 236.3,71.7 234.5,70.6 231.4,70 227.9,70.7 226,71.5 
	224,72.7 222.1,74.3 220.2,76.1 218.2,78.4 214.6,83.8 211.5,90.7 209,99 203,134.8 202.9,140.1 203.1,142.4 204.3,145.9 206.5,148 
	210.2,148.3 212.1,147.4 213.9,146 215.7,144 217.5,141.7 221.1,135.8 234.9,107.1 238.7,98.5 240.5,92.8 241.5,87.5 241.6,82.6 "/>
<polygon fill="#FEF1F1" points="108.1,130 100.7,100.9 98.3,94.4 95.5,88.5 92.4,83.2 89.1,78.8 85.7,75.4 82.3,73.3 79.2,72.5 
	76.4,73.3 74,75.4 71.9,78.5 71,80.3 70.2,82.3 69.1,87 68.8,92.2 69.4,97.9 71,104 73.8,110.5 86.2,131.2 95.2,142.8 99.3,146.7 
	101.2,147.9 104.6,148.8 107.1,147.3 108.5,143.9 108.8,141.7 108.8,136.3 "/>
</svg>
