<?xml version="1.0" encoding="utf-8"?>
<!-- Generator: Adobe Illustrator 17.0.0, SVG Export Plug-In . SVG Version: 6.00 Build 0)  -->
<!DOCTYPE svg PUBLIC "-//W3C//DTD SVG 1.1//EN" "http://www.w3.org/Graphics/SVG/1.1/DTD/svg11.dtd">
<svg version="1.1" id="solid" xmlns="http://www.w3.org/2000/svg" xmlns:xlink="http://www.w3.org/1999/xlink" x="0px" y="0px"
	 width="400px" height="400px" viewBox="0 0 400 400" enable-background="new 0 0 400 400" xml:space="preserve">
<polygon fill="#4E934D" points="346.1,214.8 343.3,216.5 337.9,217.7 333.4,216.5 330,213.9 320.4,216.5 320.6,219.9 316.2,224.1 
	294.6,234.9 269.2,240.9 263.4,241 259.3,239.6 258,236.4 245.4,235.8 242.9,239.5 240.3,241 234.7,242.7 227,242.7 221.6,241.3 
	219.2,238.7 220.7,234.9 224.2,233.1 232.3,230.9 236.5,230.6 240.5,230.9 243.7,232.2 245.4,235.3 258.2,235.9 263.1,231.8 
	311.1,214.5 315.1,214.1 320.3,216.1 329.9,213.3 328.3,208.9 331,204.7 336.3,200.6 342.9,197.3 349.9,195 357.3,190.8 
	364.1,184.9 367,181.3 369.3,177.5 370.9,173.5 371.5,166.1 369.2,154.5 363.3,138.1 359,146.8 353.8,154.4 350.5,158 343.1,163.3 
	340.2,164.8 336.8,165.6 333.6,164.7 330.4,161.4 326.6,164.5 328,167.2 327,171.2 319.8,178 311.8,181.3 308.6,182 305.5,182.1 
	300.7,179.6 297.2,181.1 297.8,184.6 296.5,187.4 279,198.3 266.2,202.6 261.3,203.6 256.8,203.8 253.2,203 251.1,200.6 
	251.7,197.6 255.1,194.4 287.5,179 290.5,178.2 294.3,178.5 296.9,180.9 300.7,179.2 301.9,175 304.9,171.7 312.5,166.3 
	316.8,164.4 321.1,163.3 326.6,164.1 330.2,161.1 328.8,157.7 330.7,153.6 337.7,148.9 347.1,145.3 350.8,142.7 354.1,137.4 
	355.4,133.3 355.9,129.4 355.5,125.7 354.5,122.3 342,101 340.3,96 326.4,117.8 320.5,124.5 315.7,127.9 310.9,130.3 306.6,131.1 
	303.2,129.6 299.2,132.4 299.2,136.1 295.7,140.3 260.5,163.4 257.1,164.7 254.1,165.2 250.2,163.8 248.2,161.4 247.3,157.8 
	249.9,152.9 266.9,139.7 280.7,132.8 286.3,130.9 291.5,129.8 296,130.1 299.1,132.2 303,129.4 301.8,126.6 304.4,121.8 
	329.4,103.5 336,97.1 340.7,90.9 342.1,86.4 340.9,80.1 336.4,71.3 329.2,61.4 324.5,72.2 321,77.2 285.1,109 277.3,112.8 
	273.8,113.8 270.5,114.3 265.3,113.7 262.6,112.1 262.5,109 265.7,105.7 304.3,80.4 310.9,73.3 316.6,64.7 318.6,60.5 319.9,56.6 
	320.2,53.3 319.3,49.7 316.3,46.4 300.6,37.2 297.5,34.5 295.3,31.9 292.8,27.3 292,24.2 284.9,25.3 258.1,21 251.1,21.3 
	247.8,22.8 245.5,26.3 244.1,31.3 246.5,86.8 245.9,90.5 243.6,94.2 239.5,94.6 236.9,92 234.5,87.6 230.6,75.7 228.4,63.2 
	228.2,49 230.8,33.3 237.1,15.6 218.3,14.9 215.1,15.6 212.6,17.4 211.5,20.6 209.5,31.8 208.8,46.8 213.5,78.4 213,82 210.6,85.1 
	207.6,85.8 209,93.2 212.8,93.4 216.7,96.9 224.1,112.2 225.5,117.1 225.6,121.6 224,124.7 220.6,125.8 216.8,124.7 212.8,121.4 
	208.7,115.7 207,112.3 205.2,106.7 204.5,103.1 204.4,99.7 205.1,96.6 208.6,93.5 207.3,85.7 203.5,81.2 197.1,59.9 194,33.6 
	196.8,15.7 174.1,20 170.2,22.1 167.9,24.3 166.6,28.5 168,62.4 166.7,69.6 165.7,72.9 164.2,75.7 159.2,80.6 161.9,91.6 167,91.1 
	170.2,93.3 180.1,113.3 182,119.8 182.3,122.9 182,127 178.6,131.4 182.1,138.4 186.2,136.6 190.1,136.7 194,139.7 202.5,153.4 
	204.5,158.2 205,162.5 203.3,165.7 199.5,167.2 194.6,166.9 189.2,164.2 186.5,161.9 183.4,158.2 179.6,151 178.7,147.7 
	178.6,144.4 179.5,141.2 181.8,138.6 178.3,131.5 174.1,132.7 169.2,131.8 164,128.4 161.5,125.6 158.5,120.9 155.8,114.5 
	154.5,109.9 154,104.9 154.7,99.9 157,95.5 161.6,91.9 158.8,80.6 154.5,81.3 150.7,80 147.6,77 145.9,74.3 143.1,67.3 141.2,59.1 
	141.1,32.4 116.1,47.3 110.2,52.2 108.3,55.2 107.5,61.8 109.1,73.6 117,98.1 126.2,115.8 127.3,118.7 126.9,122 122.7,124.5 
	125.6,129.7 129.6,129.6 134.1,133 159,167.1 160.4,170.3 161,173.3 159.7,177.1 156,179.5 152.3,179.6 148.4,177.3 134.3,160.8 
	126.8,147.6 124.6,142.3 123.3,137.2 123.4,132.9 125.3,129.8 122.4,124.6 118.5,124.5 115.7,122.3 105.2,92.9 102.5,65.6 
	96.9,67.3 92,69.9 76.2,84.3 74.1,86.9 72.1,90.2 70.3,94.3 69.3,99.2 69.3,104.5 71.8,116.1 96.4,169.6 95.4,173.9 98.7,178.1 
	102.2,175.9 116.4,187.4 124.3,197.3 128.9,205.6 129.9,209.4 129.5,212.6 142.3,221.6 144.6,219.6 157.3,226.9 164.5,233.7 
	168.9,239.6 170,242.4 169.5,245.4 165.4,244.7 147,231 143.6,227.7 142.2,225 142.2,221.9 129.3,212.9 126.2,213.2 103.1,191.1 
	99.3,186.2 97.9,182.5 98.5,178.3 95.1,174 92.3,175.2 88,174 84.8,171.8 70.3,155 57.8,134 53,122.7 48.3,126.6 38.4,143.1 
	34.9,152.4 34,156.4 33.8,160.1 34.2,163.6 35.2,166.8 36.9,169.8 94.2,223.2 113.4,236.7 115.6,239.5 113.3,242.4 110.2,242.6 
	106.1,241.4 56.1,210.7 34.4,184.6 27,219 27.2,225.4 28.8,230.2 31,233.2 33.1,235.4 35.5,237.2 103.7,269.4 106.1,275 
	127.2,277.8 128.6,274.9 133.1,274 140.1,274.6 143.4,275.5 146.3,276.8 148.5,279.1 147.9,282.2 144.2,284.1 140,284.3 
	132.8,282.5 129.4,280.7 127.3,278.1 106.1,275.3 103.7,278.8 100.8,279.7 97,279.7 67.2,271 35.3,253.3 36.1,274.1 39.9,291 
	43.6,298.4 46,301.6 48.7,304.2 54.2,308 58.8,310.1 63,310.9 67,310.6 87.2,306.2 108,305.2 111.3,305.8 114.8,307.3 118.8,314.9 
	117.3,318.5 114.7,320 98.1,325.5 84.6,326.3 67.1,323.6 84,340.8 88.3,343.7 92.4,345.5 96.5,346.2 101.1,346 112,343 139.2,327.6 
	163.5,307 172.6,297 158.2,339 156.7,354.8 160,386.2 169,382.2 165.7,373.2 163.9,361.7 164,345.4 167.3,329.2 179.9,297.9 
	191.8,342.2 196.3,351.1 201.6,358.1 204.6,360.7 207.6,362.6 210.8,363.9 214,364.7 220.4,365 226.4,364.1 235.9,360.6 
	239.7,358.5 231.5,356.6 224.1,353.2 220.5,350.7 217.3,347.5 213.1,341.2 212.1,337.9 213.3,333.7 216.3,329.9 219.7,328.8 
	222.8,329.7 229.7,334.8 240.2,346.9 242.7,348.7 245.8,350 256.3,351.6 269.1,351.9 273.2,350.8 277,349 280.4,346.7 286,340.5 
	290.4,333.4 295.7,320 297.3,313.8 288.5,316.3 279,317.6 267.6,317.6 256.2,315.6 246.6,312 242.9,309.8 240,307.6 237.6,304.4 
	238.5,301.3 213.8,289.6 209.1,291.3 205.5,291.1 200.6,289.3 197.5,287.2 196.8,284.2 201.2,282.7 207,283.2 212.2,285.1 
	213.9,289.1 238.8,301.1 242.4,300.3 312.8,311.1 327.7,310.2 331,309.2 334.1,307.4 336.9,304.9 341.7,298.6 348.3,283.1 
	352.3,266.4 341.8,270.4 329.8,273.3 303.5,274.9 296.4,274.2 293.1,272.8 290.6,268.9 283.1,268.6 281,272.7 270.7,274.8 
	260.8,275.3 253.2,274.5 250,273.5 246.9,271 250.1,268 272.9,265 277.7,265.1 280.7,266 283,268.3 290.6,268.5 290.8,265.5 
	293.4,263.1 298,260.9 351.1,252.2 360.5,249.2 364.7,247 368.3,243.7 370.4,238.3 371,231.2 365.2,198.9 "/>
</svg>
