<?xml version="1.0" encoding="utf-8"?>
<!-- Generator: Adobe Illustrator 17.0.0, SVG Export Plug-In . SVG Version: 6.00 Build 0)  -->
<!DOCTYPE svg PUBLIC "-//W3C//DTD SVG 1.1//EN" "http://www.w3.org/Graphics/SVG/1.1/DTD/svg11.dtd">
<svg version="1.1" id="solid" xmlns="http://www.w3.org/2000/svg" xmlns:xlink="http://www.w3.org/1999/xlink" x="0px" y="0px"
	 width="400px" height="260px" viewBox="0 0 400 260" enable-background="new 0 0 400 260" xml:space="preserve">
<polygon fill="#334160" points="226,157.8 223.3,156.1 209,159.4 206.7,161.6 206.1,164.7 207.3,167.8 209.9,169.6 213.2,169.6 
	224.2,166.3 226.5,164 227.2,160.9 "/>
<polygon fill="#334160" points="53.7,133.1 52,130 49.4,127.8 46.2,126.8 42.7,127.1 39.6,128.7 37.4,131.3 36.4,134.5 36.7,138 
	38.3,141.2 40.9,143.3 44.1,144.4 47.6,144.1 50.8,142.4 52.9,139.8 54,136.6 "/>
<polygon fill="#334160" points="381.3,32.2 379.3,26.9 376.5,22.2 373,18.1 368.9,14.7 358.6,26.4 361.1,28.5 363.1,30.9 
	364.8,33.7 365.9,36.7 366.7,42.5 365.8,48.1 363.2,53.3 359,57.6 355.8,58.1 353.3,55.5 354.1,52.1 357.1,49 358.7,45.9 
	359.3,42.4 358.8,38.8 357.2,35.4 354.7,32.7 351.5,30.9 347.6,30.2 343.2,30.8 340.1,29.4 339.4,26 343.7,23.1 348.2,22.6 
	351.9,23.3 358,26.2 368.6,14.5 364.7,12.1 360.4,10.3 355.9,9.1 351.3,8.5 345.2,8.8 340.5,9.8 335.9,11.5 331.8,13.8 30.6,102.7 
	23.5,107.4 17.5,113.3 12.9,120.2 9.6,127.8 7.8,136 7.7,144.5 26.3,211.5 40.4,207 22.4,143.3 22.5,137.7 23.7,132.3 25.9,127.3 
	28.9,122.8 32.8,118.9 37.5,115.8 232.9,58.1 266.9,174.4 49.5,237.9 44,219.1 196,174.5 198.2,172.3 198.9,169.2 197.7,166.1 
	195.1,164.3 26.4,211.8 37.9,250.6 40.9,253.6 45,254.5 279.5,186 282.6,183 283.4,178.8 255.8,83.7 325.2,63.4 328.5,66.6 
	332.2,69.3 336.2,71.5 340.4,73.1 344.9,74.1 349.5,74.4 354.2,74.1 359,73.1 365.1,70.6 370.5,67 375.1,62.5 378.6,57.3 
	381.1,51.5 382.5,45.2 382.6,38.8 "/>
</svg>
