<?xml version="1.0" encoding="utf-8"?>
<!-- Generator: Adobe Illustrator 17.0.0, SVG Export Plug-In . SVG Version: 6.00 Build 0)  -->
<!DOCTYPE svg PUBLIC "-//W3C//DTD SVG 1.1//EN" "http://www.w3.org/Graphics/SVG/1.1/DTD/svg11.dtd">
<svg version="1.1" id="solid" xmlns="http://www.w3.org/2000/svg" xmlns:xlink="http://www.w3.org/1999/xlink" x="0px" y="0px"
	 width="400px" height="400px" viewBox="0 0 400 400" enable-background="new 0 0 400 400" xml:space="preserve">
<polygon fill="#2BB673" points="370.8,204.9 367.8,178.8 361.9,161.2 353.4,145.1 342.8,130.9 330.1,118.9 323,113.9 315.6,109.5 
	307.7,105.8 299.5,102.8 291,100.6 282.1,99.3 273,98.8 260.8,99.5 239,104.1 217.3,110.9 210.6,112 203.9,112.1 197.4,111.3 
	184.5,108 168.7,102.3 156.1,99.4 143.4,98 130.8,98.4 118.2,100.7 105.9,105 94.4,110.9 83.9,118.1 74.3,126.6 65.8,136.1 
	58.5,146.6 52.4,157.8 47.7,169.6 44,182.7 41.6,196 40.2,223.2 43.1,250.5 49.8,277.4 59.9,303.4 72.9,327.9 88.4,350.4 
	113.4,378.1 119.2,382.4 125.5,385.8 132.3,388.1 139.2,389.1 146.1,388.9 152.9,387.9 188.7,376.3 194.8,375.5 200.7,375.3 
	212.3,376.6 257.6,388.4 263.6,389.1 269.7,389.2 278.7,388.2 284.2,386.7 289.4,384.4 294.2,381.5 303.1,374.3 310.9,366.2 
	326.5,346.3 342.3,320.7 355,293.3 364.4,264.4 369.9,234.7 371.1,221.7 "/>
<polygon fill="#2BB673" points="274.6,9.8 267.4,11.4 260.4,13.7 253.7,16.7 247.2,20.3 241.1,24.6 235.3,29.4 224.1,41.9 
	219.2,49.2 215.2,56.8 212,64.5 207.6,80.7 205.4,97.7 219.6,97.5 224.1,96.6 225.4,96.1 231.6,94.1 237.6,91.3 243.4,88.1 254,80 
	263,70.6 270.9,59.1 274.5,52.3 277.3,45.4 279.5,38.3 282,23.7 282,8.8 "/>
<polygon fill="#2BB673" points="196.7,76.9 192.4,66.5 186.9,56.7 180.1,47.6 172.2,39.3 163.3,32 153.4,25.7 150.8,30 141.1,41 
	147.3,40.5 153.2,41.1 158.7,42.7 163.9,45.2 168.7,48.4 173.2,52.2 180.9,60.9 199.3,102.3 199.5,87.9 "/>
</svg>
