<?xml version="1.0" encoding="utf-8"?>
<!-- Generator: Adobe Illustrator 17.0.0, SVG Export Plug-In . SVG Version: 6.00 Build 0)  -->
<!DOCTYPE svg PUBLIC "-//W3C//DTD SVG 1.1//EN" "http://www.w3.org/Graphics/SVG/1.1/DTD/svg11.dtd">
<svg version="1.1" id="solid" xmlns="http://www.w3.org/2000/svg" xmlns:xlink="http://www.w3.org/1999/xlink" x="0px" y="0px"
	 width="400px" height="240px" viewBox="0 0 400 240" enable-background="new 0 0 400 240" xml:space="preserve">
<polygon fill="#CE392D" points="163.1,177.8 162.3,172.7 161.1,167.8 159.4,163.2 157.2,158.7 154.7,154.5 151.8,150.6 148.5,147 
	144.9,143.7 141,140.8 136.8,138.3 132.3,136.1 127.7,134.4 122.8,133.2 117.7,132.4 112.5,132.1 112.5,158.9 117.4,159.4 
	121.9,160.8 126,163 129.5,166 132.5,169.5 134.7,173.6 136.1,178.1 136.6,183 136.1,187.8 134.7,192.3 132.5,196.4 129.5,200 
	126,202.9 121.9,205.1 117.4,206.5 112.5,207 112.5,233.8 117.7,233.5 122.8,232.8 127.7,231.5 132.3,229.8 136.8,227.7 141,225.1 
	144.9,222.2 148.5,218.9 151.8,215.3 154.7,211.4 157.2,207.2 159.4,202.8 161.1,198.1 162.3,193.2 163.1,188.2 163.4,183 "/>
<polygon fill="#CE392D" points="90.4,173.6 92.6,169.5 95.6,166 99.1,163 103.2,160.8 107.7,159.4 112.5,158.9 112.5,132.1 
	107.3,132.4 102.3,133.2 97.4,134.4 92.8,136.1 88.3,138.3 84.1,140.8 80.2,143.7 76.6,147 73.3,150.6 70.4,154.5 67.8,158.7 
	65.7,163.2 64,167.8 62.7,172.7 62,177.8 61.7,183 62,188.2 62.7,193.2 64,198.1 65.7,202.8 67.8,207.2 70.4,211.4 73.3,215.3 
	76.6,218.9 80.2,222.2 84.1,225.1 88.3,227.7 92.8,229.8 97.4,231.5 102.3,232.8 107.3,233.5 112.5,233.8 112.5,207 107.7,206.5 
	103.2,205.1 99.1,202.9 95.6,200 92.6,196.4 90.4,192.3 89,187.8 88.5,183 89,178.1 "/>
<polygon fill="#CE392D" points="380.1,142.6 378,134.2 375.1,127.4 371.7,122.1 368.3,118.1 365.4,115.3 362.5,113.2 362.7,110.1 
	361.8,103.4 354.5,79.2 350,70.4 335.8,49.8 304.6,49.8 310.6,57.5 315.2,65.4 318.3,72.8 319.2,76.1 319.8,79.1 319.8,83 
	318.7,85.9 316.1,88.5 311.9,89.8 261.1,89.9 258.2,89 255.9,86.1 255,82.7 254.8,49.8 229.4,49.8 229.1,76.2 228.4,81.2 
	227.1,84.9 224.7,88.2 221.4,89.8 134.5,89.8 130.6,88.6 127.2,86 125.8,83.1 125.9,78.9 128.1,73.3 130.2,69.9 146.7,50.6 
	115.7,49.8 89.6,80.3 83.7,85.8 81,87.7 78.4,89.2 51.1,97.2 42.3,101.4 38.3,104 34.9,106.8 31.8,109.8 29.2,113 26.9,116.5 
	24.9,120.1 22,127.9 20,136.3 18.5,154.5 18.8,163.9 19.5,168.1 20.7,171.9 22.2,175.4 24,178.5 26,181.3 30.4,185.9 34.8,189.3 
	38.6,191.5 42.3,193.2 52.7,193.2 51.7,183 52.1,176.7 53,170.7 54.5,164.9 56.5,159.3 59.1,154 62.1,149 65.6,144.3 69.5,140 
	73.9,136 78.5,132.5 83.6,129.5 88.9,126.9 94.5,124.9 100.3,123.4 106.3,122.5 112.5,122.2 118.8,122.5 124.8,123.4 130.6,124.9 
	136.2,126.9 141.5,129.5 146.5,132.5 151.2,136 155.5,140 159.5,144.3 163,149 166,154 168.6,159.3 170.6,164.9 172.1,170.7 
	173,176.7 173.3,184.9 172.4,193.2 243.3,193.2 242.4,183 242.7,176.7 243.6,170.7 245.1,164.9 247.2,159.3 249.7,154 252.8,149 
	256.3,144.3 260.2,140 264.5,136 269.2,132.5 274.2,129.5 279.5,126.9 285.1,124.9 291,123.4 297,122.5 303.2,122.2 309.4,122.5 
	315.5,123.4 321.3,124.9 326.9,126.9 332.2,129.5 337.2,132.5 341.9,136 346.2,140 350.1,144.3 353.6,149 356.7,154 359.2,159.3 
	361.3,164.9 362.8,170.7 363.7,176.7 364,184.7 363.2,192.3 367.7,188.1 370.7,184.7 373.6,180.3 376.4,174.9 378.7,168.5 
	380.3,161 380.9,152.5 "/>
<polygon fill="#CE392D" points="320.3,32.1 315,28.3 308.2,24.3 298.3,19.7 285.2,15 268.7,10.7 248.6,7.3 224.7,5.5 206.1,5.9 
	189.1,8.4 173.5,12.6 159.4,18.3 146.6,25.2 135.1,32.9 115.7,49.8 146.7,50.6 155.8,42.6 163.7,37.2 171.3,33.4 178.7,30.8 
	186.1,29.3 209.2,28.6 213.7,29.2 217.3,30.5 220.7,32.4 223.6,34.9 226,37.9 227.8,41.3 229,45 229.4,49.8 254.8,49.8 255.1,38 
	256.2,34.2 258.5,31.9 261.5,31.3 266.4,30.8 274.7,32.4 285.8,36 291.4,38.8 296.6,42.3 301.4,46.4 304.6,49.8 335.8,49.8 "/>
<polygon fill="#CE392D" points="353.8,177.8 353,172.7 351.8,167.8 350.1,163.2 347.9,158.7 345.4,154.5 342.4,150.6 339.2,147 
	335.6,143.7 331.6,140.8 327.4,138.3 323,136.1 318.3,134.4 313.5,133.2 308.4,132.4 303.2,132.1 303.2,158.9 308.1,159.4 
	312.6,160.8 316.6,163 320.2,166 323.1,169.5 325.4,173.6 326.8,178.1 327.2,183 326.8,187.8 325.4,192.3 323.1,196.4 320.2,200 
	316.6,202.9 312.6,205.1 308.1,206.5 303.2,207 303.2,233.8 308.4,233.5 313.5,232.8 318.3,231.5 323,229.8 327.4,227.7 
	331.6,225.1 335.6,222.2 339.2,218.9 342.4,215.3 345.4,211.4 347.9,207.2 350.1,202.8 351.8,198.1 353,193.2 353.8,188.2 
	354.1,183 "/>
<polygon fill="#CE392D" points="281.1,173.6 283.3,169.5 286.2,166 289.8,163 293.9,160.8 298.4,159.4 303.2,158.9 303.2,132.1 
	298,132.4 293,133.2 288.1,134.4 283.4,136.1 279,138.3 274.8,140.8 270.9,143.7 267.3,147 264,150.6 261.1,154.5 258.5,158.7 
	256.4,163.2 254.7,167.8 253.4,172.7 252.6,177.8 252.4,183 252.6,188.2 253.4,193.2 254.7,198.1 256.4,202.8 258.5,207.2 
	261.1,211.4 264,215.3 267.3,218.9 270.9,222.2 274.8,225.1 279,227.7 283.4,229.8 288.1,231.5 293,232.8 298,233.5 303.2,233.8 
	303.2,207 298.4,206.5 293.9,205.1 289.8,202.9 286.2,200 283.3,196.4 281.1,192.3 279.7,187.8 279.2,183 279.7,178.1 "/>
</svg>
