<?xml version="1.0" encoding="utf-8"?>
<!-- Generator: Adobe Illustrator 17.0.0, SVG Export Plug-In . SVG Version: 6.00 Build 0)  -->
<!DOCTYPE svg PUBLIC "-//W3C//DTD SVG 1.1//EN" "http://www.w3.org/Graphics/SVG/1.1/DTD/svg11.dtd">
<svg version="1.1" id="Layer_1" xmlns="http://www.w3.org/2000/svg" xmlns:xlink="http://www.w3.org/1999/xlink" x="0px" y="0px"
	 width="400px" height="400px" viewBox="0 0 400 400" enable-background="new 0 0 400 400" xml:space="preserve">
<polygon fill="#A91E22" points="344.6,165.7 334.8,144.6 320.5,126.9 301.7,112.8 286.9,106.8 168.5,93.1 122.6,100.9 80.2,124.1 
	65,141.3 54.9,159.5 49.7,178.7 49.5,199 55.8,228 148.1,372.2 162.3,383.9 183,394.1 191.5,396.2 214.3,395.1 240.8,387.3 
	255.7,378 324.8,286 341.2,252.1 349.6,220.2 349.8,190.4 "/>
<path fill="#608C3D" d="M340.4,72.1l-48.6,17.7l31.7-18.2l2.2-2.4l4.2-24.7l-1.1-3.6l-2.6-1.8l-4,1.2l-42.9,41.2l-5.1,3.4l1.5-3.2
	l0.5-3.2l-0.7-3.3l-1.7-3.2l3-6.9l16.7-22.5l8.1-7.3l8-4.6l0.7-3.4l-2.2-2.4l-11.5,0.2l-12.5,3.1l-22.8,14.7l-3.2,0.6l-3-0.9
	l-10.2-7.8l-3-0.2l-2.5,2.6l-0.2,4.4l-15.9,30.8l-1.9,9.2l-0.5,13.1l-0.3-16.3l-1.9-3.7l-3-1l-12.4,7.9l-8.6,4l33-29.6l3.1-5
	l1.3-4.4l-0.4-3.9l-3.7-4.5l-3.6-2.1l-10.3-2.4h-13.7l-12.9,2.4l-8.6,3.5l-5.7,4.8l-2.5,3.6l-1.5,3.2l-2.6,10.9l-11.7-9.4
	l-10.6-13.6l-5.9-13.7l-3.1-18.2l-2.4-2.6l-3.8,0.6l-5,43.6l2.8,14l4.7,8.7l7.1,7.2L164,91.4l-5.8-0.7l-7.2-2.6l-41.1-20.5l-7.3-1.4
	l-11.9,0.6L87.2,66L67.9,50.5l-3.6,2.4l1.3-3.5l-3.9-0.2l-2.6,2.6l0.3,8.2l8.3,22.3l11.4,19.4l1,10.3l2.1,2.8l4.5,2.1l23.2-1.7
	l43.2-8l17.9,1.3l35.1,11l43.6,0.8l2.8-1.2l2.7-1.7l45.7,7.3l3.3-0.9l32.9-25.6l1-3.7l-2.2-2.5l-3.5,0.1l7.3-7.6l3.8-5.9l0.5-3.2
	L340.4,72.1z M291.2,107.5l-11.7-0.9l24.1-1.7L291.2,107.5z"/>
<polygon fill="#E1B24C" points="186.5,232.9 184.2,231.6 181,234.5 180.7,237.9 182.8,240.6 185.9,239.3 187.1,236.1 "/>
<polygon fill="#E1B24C" points="171.6,210.9 168.6,209.9 166.1,213.5 167.1,217.3 169.7,219.7 173,218.8 173.5,214.3 "/>
<polygon fill="#E1B24C" points="158.5,229 156,226.8 153.4,226.9 152.4,230.8 154.2,233.6 157,234.7 159.4,232.1 "/>
<polygon fill="#E1B24C" points="146.3,243 143.7,243.5 141.5,246.1 141,249.2 143.7,251.1 146.8,248.7 147.8,245.6 "/>
<polygon fill="#E1B24C" points="161,264.7 159.1,261.8 156.2,261.2 155.1,264.4 156.2,267.8 158.6,269.8 161.3,268.1 "/>
<polygon fill="#E1B24C" points="173.2,250.6 170.6,249 170.1,249.3 168.5,253.6 169.5,257.1 172.5,258.4 174.1,254.1 "/>
<polygon fill="#E1B24C" points="143.8,270.6 141.3,268.1 138.7,267.9 137.7,271.7 139.5,274.8 142.3,276.2 144.8,273.9 "/>
<polygon fill="#E1B24C" points="134.1,284.1 131.3,282.9 130.2,283.2 129.3,286.9 131.2,289.8 134.5,290.9 135.9,286.9 "/>
<polygon fill="#E1B24C" points="135.2,302.8 131.6,301.4 128.9,302.4 129.5,306.6 132.7,308.9 136.1,309.1 137.7,306.4 "/>
<polygon fill="#E1B24C" points="119.7,288.4 117,285.8 113.9,285.9 113.8,289.4 116,292.5 118.8,294.1 121,291.7 "/>
<polygon fill="#E1B24C" points="116.7,299.2 113,296.4 112.2,296.7 112,300.8 114.3,303.2 118.5,303.5 "/>
<polygon fill="#E1B24C" points="102.8,278.1 100,276.6 99.5,276.8 99,280.7 100.7,283.8 103.7,284.5 104.6,281.5 "/>
<polygon fill="#E1B24C" points="132.4,317.3 129.7,314.3 127.1,314.7 127.5,319.1 129.8,322.8 132.5,324.4 134,321.3 "/>
<polygon fill="#E1B24C" points="127.5,323.2 125.7,320.6 122.8,319.8 122.7,320 123.3,323 125.1,325.6 128,326.4 "/>
<polygon fill="#E1B24C" points="133,337.3 130.4,334.9 129.1,335.5 129.5,338.8 131.3,341.5 134.3,341.4 "/>
<polygon fill="#E1B24C" points="142.3,338.1 139.9,334.6 136.9,334.6 136.4,339.3 138.2,343.6 140.8,345.6 143.2,342.6 "/>
<polygon fill="#E1B24C" points="123.9,256 120.2,253.9 117.1,254.6 116.5,257.7 118.7,261.4 122.4,263.5 125.5,262.8 126.1,259.7 
	"/>
<polygon fill="#E1B24C" points="105.1,254.9 102.5,250.8 99.5,249.2 98.4,249.7 97.8,252.9 99.6,257.3 102.6,260.4 105.6,259.7 "/>
<polygon fill="#E1B24C" points="103.9,232.8 101.1,232 100.1,235.4 100.8,238.7 103.9,239.6 104.7,236 "/>
<polygon fill="#E1B24C" points="103.5,266.5 100.7,264.5 98.7,265 99.2,269.3 101.7,272.2 104.7,272.8 105.3,269.7 "/>
<polygon fill="#E1B24C" points="88.9,231.1 85.6,230.5 84.9,231 83.1,234.4 83.3,238.4 85.4,240.7 89.4,238.5 90.2,234.5 "/>
<polygon fill="#E1B24C" points="90.1,209.1 87.1,207.8 85.8,208.4 84.6,211.7 85.7,215.9 88.4,218.6 91.7,217.7 92.2,212.9 "/>
<polygon fill="#E1B24C" points="77.7,219 75,217.6 73.7,218.2 72.4,221.5 73.2,225.7 75.6,228.4 78.8,227.5 79.4,222.7 "/>
<polygon fill="#E1B24C" points="79.6,194.5 78.7,194.6 77.1,200 78.8,202.6 81,200.2 82.1,197.4 "/>
<polygon fill="#E1B24C" points="74,190.1 71.3,187.3 70.2,187.5 69.8,193.4 71.8,196 74.2,193.4 "/>
<polygon fill="#E1B24C" points="68.5,205.1 65.8,204.4 64.6,208.6 65.5,213.2 67.5,215.9 70.1,213.5 70.1,209.1 "/>
<polygon fill="#E1B24C" points="112.8,209.2 110.9,206.6 109.6,206.6 107.3,209 106.5,213.3 107.6,217.1 110.6,217.8 112.9,213.6 
	"/>
<polygon fill="#E1B24C" points="122,187.5 119.2,186.7 116.9,190.8 118,194.8 120.7,197.1 123.7,195.6 124,190.9 "/>
<polygon fill="#E1B24C" points="135,211.2 132.4,209.3 132.1,209.3 130.4,212.6 130.9,217.1 132.9,220.4 135.9,219.5 136.3,215.5 
	"/>
<polygon fill="#E1B24C" points="125.2,235.2 122.4,233.7 120.4,236.6 120.7,240.4 122.6,243.1 125.8,242.1 126.4,238.7 "/>
<polygon fill="#E1B24C" points="143,194.4 141.8,194 141.4,199.8 143.4,202.6 144.5,197 "/>
<polygon fill="#E1B24C" points="137.3,164 135,163.2 132.6,167.1 133,170.9 135.6,173.2 138.2,171 138.6,167.2 "/>
<polygon fill="#E1B24C" points="113.9,161.2 112.6,161.1 109.7,163.9 108.4,167.4 109.7,170.2 113.2,167.8 114.7,164.3 "/>
<polygon fill="#E1B24C" points="134.2,133.1 131.6,131.6 128.8,133.7 127.4,138.1 128.2,142.3 130.8,143.8 133.6,141.7 135.1,137.3 
	"/>
<polygon fill="#E1B24C" points="111.7,134.7 107.9,137 105.7,140.6 105.8,143.6 109,143.2 111.9,140.3 113.5,136.8 "/>
<polygon fill="#E1B24C" points="157.4,126.3 156.6,126.2 153.5,127.8 151.4,131.9 151.4,135.1 153.3,137.5 157.2,136 159.3,131.9 
	159.3,128.8 "/>
<polygon fill="#E1B24C" points="161.3,154.4 159.2,152.8 156.2,156 156.1,160 157.8,162.9 161.2,161.8 162.2,158.1 "/>
<polygon fill="#E1B24C" points="161.8,184.7 159.8,183.2 157.4,186.1 157.6,189.8 159.1,192.4 162,191.4 162.7,188.1 "/>
<polygon fill="#E1B24C" points="183.4,165.6 180.3,167.2 178.1,171.1 177.8,174.2 180.2,176.7 183.3,175.1 185.6,171.2 185.8,168.1 
	"/>
<polygon fill="#E1B24C" points="183.5,142 180.8,145.6 180.3,149.1 183.7,146.4 184.2,142.9 "/>
<polygon fill="#E1B24C" points="182.2,122.2 179.6,120.7 177,123.8 177.6,127.8 179.8,130.6 182.9,130.2 183.7,125.9 "/>
<polygon fill="#E1B24C" points="204.4,155.8 201.3,158.2 201.3,161.4 203.3,164.1 206.4,161.7 206.4,158.4 "/>
<polygon fill="#E1B24C" points="204.1,133.4 201.1,133.9 199.3,137.3 199.4,140.9 201.9,142.7 204.1,140.3 203.6,136.7 "/>
<polygon fill="#E1B24C" points="212,137.7 213.8,133 210.9,136 211.1,141.4 213.6,143.6 215,140.6 "/>
<polygon fill="#E1B24C" points="220.8,169.4 218.8,165.8 214.2,175 217.3,178.4 220.4,179.1 222.4,176.4 "/>
<polygon fill="#E1B24C" points="235,154.8 230.8,156 229,159.5 229.4,162.9 232.4,164.1 235.7,161.1 236.4,157.3 "/>
<polygon fill="#E1B24C" points="253.9,151.6 250.4,149.1 247.1,149.4 245.9,152.4 247.5,156.3 251,158.7 254.3,158.4 255.5,155.4 
	"/>
<polygon fill="#E1B24C" points="247.5,179.8 245.3,178.1 242,179.8 241.6,184.4 243.5,188.8 246.5,190.7 248.9,188.8 249.3,184.3 
	"/>
<polygon fill="#E1B24C" points="231.9,200.4 231.6,200.2 228,202.1 226.1,206.6 226,210.9 229.1,211.9 231.7,208.4 232.8,203.6 "/>
<polygon fill="#E1B24C" points="209.5,209 206.1,211 205,215.3 205.8,219.1 209.1,219.6 210.8,216.2 211,211.8 "/>
<polygon fill="#E1B24C" points="193.9,194.3 193.4,193.9 189.8,195.1 187.1,199.1 186.4,203.4 188.7,205.4 192.5,202.3 194.4,197.8 
	"/>
<polygon fill="#E1B24C" points="221.3,236.3 217.6,236.4 215.3,240.4 215,245.6 216.9,248.8 220,248.2 222.3,244.1 222.6,239 "/>
<polygon fill="#E1B24C" points="201.1,249.5 201,249.5 198,249.4 196.2,253.9 196.8,258.2 199.2,260.3 202.1,257.3 202.5,252.9 "/>
<polygon fill="#E1B24C" points="189.6,268.5 188.7,267 185.4,267.1 183.3,270.7 182.9,275.2 184.6,278 188.5,276 189.9,271.6 "/>
<polygon fill="#E1B24C" points="171.6,282.5 170.3,280.7 167.3,279.5 164.9,283.6 166.1,288.1 168.1,290.4 171.6,290.4 172.7,286.9 
	"/>
<polygon fill="#E1B24C" points="156.2,287.7 152.3,289.7 151,293.6 151.6,297 154.6,297.6 157.4,294 157.8,290 "/>
<polygon fill="#E1B24C" points="151,301.4 149.8,300.4 145.8,302.8 144.8,307.4 145.5,310.6 148.5,312.4 151.1,310 152.1,305.4 "/>
<polygon fill="#E1B24C" points="147.8,320.9 144.2,322.9 146.8,326.6 148.5,323.4 "/>
<polygon fill="#E1B24C" points="157,340.2 156.3,337.8 152.8,340 152.5,343.3 154.2,346.1 157.2,344.7 "/>
<polygon fill="#E1B24C" points="166.4,333.2 162.7,335.8 162.2,339.2 164.9,341.1 167.2,338.2 "/>
<polygon fill="#E1B24C" points="166.2,317.7 165.6,317.6 162.9,319.7 162.7,322.8 164.4,325.4 167.7,323.4 167.9,320.4 "/>
<polygon fill="#E1B24C" points="172.8,304.6 170.7,303.1 167.6,305.6 167.3,308.9 169.3,311.7 172.2,310.7 173.4,307.7 "/>
<polygon fill="#E1B24C" points="184.5,328.5 179.9,329.3 178.1,332.5 179,335.8 182.3,336.2 184.6,328.8 "/>
<polygon fill="#E1B24C" points="184.7,347.7 184.1,347.6 181.8,350.1 181.9,353.5 183.4,356.1 186.7,353.9 186.7,350.5 "/>
<polygon fill="#E1B24C" points="197.6,335.6 195.4,334 192.8,336.7 193,340.3 194.8,342.9 198,342.1 198.7,338.9 "/>
<polygon fill="#E1B24C" points="209.9,308.6 207.1,307.2 204.2,308.3 202.8,311.1 203.9,314 206.7,315.3 209.6,314.3 210.9,311.5 
	"/>
<polygon fill="#E1B24C" points="223.5,288.8 221.3,287.3 218.8,290.2 219,294 220.8,296.8 224,295.9 224.6,292.4 "/>
<polygon fill="#E1B24C" points="205.4,285.4 204.2,282.5 202.4,281.4 199.5,285 199.5,289.7 200.7,292.6 203.8,293.3 205.5,290.1 
	"/>
<polygon fill="#E1B24C" points="213.5,268.7 212.9,268.6 209.9,270 209.1,273.2 211.9,275.4 214.9,274 215.6,270.9 "/>
<polygon fill="#E1B24C" points="234.4,260.2 231.7,256.7 229.8,256.1 226.4,257.2 225.1,261 226.7,265.2 229.2,267.1 232.8,266.7 
	234.8,263.5 "/>
<polygon fill="#E1B24C" points="252.6,240.4 252.5,240.3 248.7,242.6 247.1,245.9 247.6,250 250.4,251.1 253.9,248.3 "/>
<polygon fill="#E1B24C" points="243.6,225.2 241,222.8 238,224.4 236.5,229.2 237.2,234.3 239.9,236.7 242.9,235 244.4,230.3 "/>
<polygon fill="#E1B24C" points="259,204.5 256.7,203.2 253.7,205.1 252.4,210.3 253.5,215.5 255.6,217.7 258.7,216.8 260.4,213.6 
	260.5,208 "/>
<polygon fill="#E1B24C" points="271.7,215.2 268,219.9 269.2,223.1 273.6,223.8 274.6,220.8 "/>
<polygon fill="#E1B24C" points="290.4,196.4 290.1,196.2 285.2,199 284.6,205.7 286.7,208 290,206.7 291.5,203.1 291.6,199.5 "/>
<polygon fill="#E1B24C" points="276.1,178.8 272.4,174 267.8,171.7 264.9,173.3 265.4,177.8 269.1,182.6 273.8,184.8 276.7,183.3 
	"/>
<polygon fill="#E1B24C" points="282.5,158.7 280.7,156 279.3,155.4 276.6,159.3 276.8,164.7 278.9,169 281.9,169.3 283.5,164.1 "/>
<polygon fill="#E1B24C" points="291.3,137.1 288.6,135.4 285.9,138.7 286.6,142.9 288.9,146 292.1,145.6 293,141 "/>
<polygon fill="#E1B24C" points="303.1,141.3 298.5,139.8 298.4,139.8 297.6,142.9 298.4,148.6 300.9,150.7 303.9,150.8 305.2,143.6 
	"/>
<polygon fill="#E1B24C" points="298.2,173 296,170.9 291.1,172.6 292.2,177.6 294.6,180.1 298.2,180.9 300.6,179 "/>
<polygon fill="#E1B24C" points="317.2,178.6 314.1,174.3 309.9,172.1 309.4,172.1 306.7,174.6 307.5,177.8 310.9,182 314.1,183.6 
	317.4,182.5 "/>
<polygon fill="#E1B24C" points="312.1,195.6 308.8,193.7 306,195.5 305.2,199.8 306.9,204.2 310.2,206.1 313,204.4 313.8,200 "/>
<polygon fill="#E1B24C" points="296.6,217.9 294,216.4 291.1,219.4 291.4,223.2 293.4,225.9 296.5,225.5 297.8,221.4 "/>
<polygon fill="#E1B24C" points="284.8,238.4 282.7,236.1 282.4,236.1 279.8,238.6 279.2,243.1 280.5,247 283.6,247.5 285.4,242.9 
	"/>
<polygon fill="#E1B24C" points="263.9,254.1 261.6,252.5 258.2,255.4 257.9,259.2 259.6,261.9 262.8,261.7 264.7,257.6 "/>
<polygon fill="#E1B24C" points="274.1,271.8 271.7,268.6 270.4,268.1 268.7,271.4 269.8,275.8 272.3,278.9 275.3,276.1 "/>
<polygon fill="#E1B24C" points="291.6,258.1 290,256.8 287.6,259.1 287.5,262.1 289.6,264.6 291.9,262.3 "/>
<polygon fill="#E1B24C" points="255.8,289.4 253.6,286.2 251.3,285.1 249.4,288.5 250.8,292 253.4,294.3 256.2,292.8 "/>
<polygon fill="#E1B24C" points="241.3,275.1 238.9,273.5 236.3,276.7 236.6,280.6 238.6,283.4 242,282.4 242.6,278.7 "/>
<polygon fill="#E1B24C" points="240.9,303.4 238.4,301.9 235.8,304.9 236.4,308.7 238.7,311.4 241.7,310.9 242.5,306.9 "/>
<polygon fill="#E1B24C" points="226.9,315.8 224.6,312.3 222.3,311.4 219.7,313.8 220,317.9 222.3,321.4 225.3,322.2 227.2,319.8 
	"/>
<polygon fill="#E1B24C" points="209,325.2 208.4,325.1 205.9,327.9 205.9,331.3 207.9,334 211,331.4 211,327.9 "/>
<polygon fill="#E1B24C" points="191.7,317.6 188.5,314.8 187.4,318.2 187.5,323.4 191,325 192.9,322.5 "/>
<polygon fill="#E1B24C" points="190,296.7 186.9,295.4 184.1,296.7 183.1,299.8 184.6,303 187.7,304.3 190.6,303 191.5,299.9 "/>
<polygon fill="#E1B24C" points="221,342.4 219,339.7 216.1,342 216.1,345.2 218.1,347.9 221.1,345.6 "/>
<polygon fill="#E1B24C" points="207.2,352.3 206.5,351.9 203.4,352 201.2,355 202.4,358.5 205.2,359.6 208,358.3 208.9,354.8 "/>
<polygon fill="#E1B24C" points="193.3,360.7 192.8,360.6 190.5,363 190.5,366.1 192.3,368.7 195.1,366.4 195.1,363.3 "/>
<polygon fill="#E1B24C" points="185.5,368.3 183.5,370.8 183.1,374.1 186.7,377.5 189.2,374.5 "/>
<polygon fill="#E1B24C" points="170.8,363.6 169.6,367.7 173.3,370.4 175.4,367.9 "/>
<polygon fill="#E1B24C" points="217.7,364.2 217.2,363.9 214.1,365.1 213.5,368.1 215,371.3 218.2,371 219.2,367.5 "/>
<polygon fill="#E1B24C" points="228.9,350 226.2,355.5 229.7,359.1 233.9,349.6 233.9,349 "/>
<polygon fill="#E1B24C" points="233,331.9 231,329.4 228.6,332.1 229.2,335.4 231.5,338 233.7,335.3 "/>
<polygon fill="#E1B24C" points="263.7,303.4 260.2,304.8 258.6,308.2 258.8,311.3 261.9,311.9 264,309.2 264.8,305.7 "/>
<polygon fill="#E1B24C" points="278.9,286 278.5,285.7 275.3,286.9 274.2,290.7 277.1,293.8 274.9,296.8 277.9,295.3 279.6,292.3 
	280.5,289.3 "/>
<polygon fill="#E1B24C" points="295.3,274.1 291.5,275.6 289.3,279.4 288.9,283.1 292.1,284 294.9,281.1 296.3,277 "/>
<polygon fill="#E1B24C" points="310.2,257.2 305.1,257.5 303.3,259.9 304.9,266.4 310,263.8 311.5,260.2 "/>
<polygon fill="#E1B24C" points="320.1,244.2 319.7,243.9 316.8,245.3 315.7,248.4 316.4,251.5 319.7,250.4 320.8,247.4 "/>
<polygon fill="#E1B24C" points="305.6,234.6 302.3,236.6 301.3,240.1 302,243.2 305.3,243.2 307,240.2 307.1,236.6 "/>
<polygon fill="#E1B24C" points="318.8,219.9 315,221.9 313.6,225.5 314.3,228.6 317.9,228.7 320,225.7 320.4,222 "/>
<polygon fill="#E1B24C" points="329.9,221.6 329.4,221.4 326.8,223.7 327.6,227.3 329.5,230.2 331.5,224.3 "/>
<polygon fill="#E1B24C" points="325.2,252.6 322.2,254 321.1,256.9 321.9,259.8 325.4,258.6 326.4,254.4 "/>
<polygon fill="#E1B24C" points="313.3,270.8 310,274.8 309.5,278 313.4,275.4 313.9,272.2 "/>
<polygon fill="#E1B24C" points="299.6,286.6 296.6,288.1 295,291.7 295,295.3 298.9,295.2 300.5,291.5 300.5,287.9 "/>
<polygon fill="#E1B24C" points="283.4,300.3 280.1,301.8 277.9,305.6 277.3,309.3 281.3,309.1 283.4,305.3 284,301.6 "/>
<polygon fill="#E1B24C" points="280.8,320.7 280.4,320.3 276.9,321.3 275.4,324 276,327.1 279.9,326.5 281.4,323.8 "/>
<polygon fill="#E1B24C" points="255.8,322.5 252.2,322.1 249.4,324.4 249,328 251.3,330.8 254.9,331.2 257.7,328.9 258.1,325.3 "/>
<polygon fill="#E1B24C" points="248.1,341.1 246.8,339.2 244.3,342.2 244.6,345.4 247.1,347.2 248.4,344.3 "/>
<polygon fill="#E1B24C" points="89.5,168.2 87.3,166.9 84.4,169.9 84.4,173.6 86.1,176.1 89.5,174.9 90.4,171.5 "/>
<polygon fill="#E1B24C" points="82.9,166.1 80.9,163.7 80.4,163.7 78.3,166.3 78.6,169.3 80.6,171.7 83.2,169.2 "/>
<polygon fill="#E1B24C" points="82.7,148.4 79.4,150.7 78.8,154 81.6,155.4 84.3,153.2 84.8,149.9 "/>
<polygon fill="#E1B24C" points="95.9,140 94.9,139.7 92.4,141.9 92.4,145 95.5,146.1 97.3,143 "/>
<polygon fill="#E1B24C" points="69.7,172.6 68,169.3 68.9,166.1 66.5,169.8 66.1,174.3 66.8,177.4 69.8,176.8 "/>
<polygon fill="#E1B24C" points="78.9,141.9 75.6,143.7 75.1,146.7 79.2,146.6 80.9,144 "/>
<polygon fill="#E1B24C" points="327.5,190.8 325,189.5 322.4,193 323.1,197 325.2,199.6 328.2,198.9 329,194.4 "/>
<polygon fill="#E1B24C" points="335.4,175.1 332.5,174 330.1,176.2 331.1,180.2 333.8,182.4 337,181.7 337.5,178 "/>
<polygon fill="#E1B24C" points="318.2,155.8 315,154.8 312.3,157 313.2,161.1 316,163.2 319.1,163 320.5,159.6 "/>
<polygon fill="#E1B24C" points="319.8,143 316.2,142 313.8,144.3 315.7,148.4 319.2,150.5 322.3,150.2 322.7,146 "/>
<polygon fill="#E1B24C" points="300.2,299.8 295.1,305.6 294.5,309.1 297.5,310.2 300.4,307.8 301.2,303.5 "/>
<polygon fill="#E1B24C" points="266.9,328.9 264.4,326.6 263.7,326.5 260.9,328.3 260.6,331.9 262.4,335.1 265.8,335.8 267.7,332.5 
	"/>
<polygon fill="#E1B24C" points="264,342.7 261,341.3 258.1,342.9 258.3,346.7 260.8,349.1 263.8,349.4 265.7,346.6 "/>
<polygon fill="#E1B24C" points="250.1,354.5 247.7,352.9 244.6,355.5 244.6,359.1 246.3,361.8 249.4,361.6 251,357.9 "/>
<polygon fill="#E1B24C" points="204.9,376.1 201.9,377 201.8,380.1 204.9,381.6 208,380.6 208,377.5 "/>
<polygon fill="#E1B24C" points="199.6,383.2 196.6,386.4 200.5,388.3 202,385.7 "/>
<polygon fill="#E1B24C" points="220.8,381.7 218.4,380.7 215.4,381.7 215.1,384.9 218.6,386.4 221.2,384.9 "/>
<polygon fill="#E1B24C" points="230.8,369.5 227,371.4 229.4,374.1 232.4,373.4 "/>
<polygon fill="#E1B24C" points="185.6,382.3 179.7,379.7 180.9,383.4 183,386 186.4,386 "/>
<polygon fill="#E1B24C" points="148.4,356.7 149.4,361.5 153.8,363.4 153.8,358.9 "/>
<polygon fill="#E1B24C" points="167.8,351.8 163.4,350.6 162.9,354 165.8,355.7 168.8,355.2 "/>
<polygon fill="#E1B24C" points="164.6,374.5 162,374 162.6,377.1 166,377.4 "/>
<polygon fill="#E1B24C" points="82.8,246.6 80.6,244.5 80.1,244.5 80.9,249.3 83.1,251.4 "/>
<polygon fill="#E1B24C" points="93.5,265.6 91.2,263.2 88.6,263.1 87.5,266.9 89.2,269.9 91.9,271.3 94.3,268.9 "/>
<polygon fill="#E1B24C" points="71.5,231.4 69.3,230.8 68.3,234.6 70,237.3 72.9,235.1 "/>
</svg>
