<?xml version="1.0" encoding="utf-8"?>
<!-- Generator: Adobe Illustrator 17.0.0, SVG Export Plug-In . SVG Version: 6.00 Build 0)  -->
<!DOCTYPE svg PUBLIC "-//W3C//DTD SVG 1.1//EN" "http://www.w3.org/Graphics/SVG/1.1/DTD/svg11.dtd">
<svg version="1.1" id="Layer_1" xmlns="http://www.w3.org/2000/svg" xmlns:xlink="http://www.w3.org/1999/xlink" x="0px" y="0px"
	 width="400px" height="400px" viewBox="0 0 400 400" enable-background="new 0 0 400 400" xml:space="preserve">
<polygon fill="#3D1511" points="215.1,268.9 212.3,269 213.9,332.6 215.7,331.2 "/>
<polygon fill="#3D1511" points="176.9,263.5 162.4,327.4 165.2,328.1 179.6,264.1 "/>
<polygon fill="#3D1511" points="222.6,278.9 216.3,275.3 201.5,271.6 198.5,271.2 176.6,270.1 163.7,270.4 154,276.9 157.7,278.1 
	172.7,280.9 208.4,284.4 221.7,284.7 225.2,284.5 228.2,283.6 "/>
<polygon fill="#921A1D" points="325.8,112.3 323.8,102.2 320.7,92.5 316.5,83.1 311.4,74.1 305.2,65.6 298.2,57.7 290.3,50.3 
	281.6,43.5 272.2,37.4 262.2,32.1 251.5,27.6 228.5,21.3 209.1,19 195,19 181.3,20.4 168.1,23.1 154.2,27.5 146.9,30.6 133.2,37.9 
	120.9,46.8 110.1,57 101.1,68.6 97.2,74.8 91.2,88 87.3,102.1 85.1,124.2 85.3,133.7 85.9,139.9 87,146.9 91,163.6 98,183.8 
	108.8,207.4 130.5,244.5 153.3,276.2 175.8,276.1 195.9,277.7 210.2,279.7 228.2,283.6 249.4,264.3 275.7,236.1 293.5,213.9 
	306.4,194.1 311.3,185.2 318.4,169.6 322.6,157 323.9,151.9 324.7,147.7 325.4,140.5 325.4,140 326.3,133 326.7,122.5 "/>
<polygon fill="#D23627" points="281.4,43.3 282.443,44.145 283.8,45.1 "/>
<polygon fill="#D23627" points="313.2,100 310.2,86.4 305.8,74.7 300.6,65 295.1,57.1 285.6,46.7 282.443,44.145 276.7,40.1 
	261.1,31.6 239.7,23.8 225.8,20.8 212.7,19.2 198.5,18.9 181.3,20.4 161.8,24.9 146.9,30.6 133.2,37.9 120.9,46.8 110.1,57 
	101.1,68.6 93.9,81.2 91.2,88 87.3,102.1 85.1,124.2 85.3,133.7 85.9,139.9 87,146.9 91,163.6 98,183.8 108.8,207.4 136.3,253.3 
	153.3,276.2 161.2,275.9 183.3,276.5 199.5,278.1 223.9,282.5 251.1,252.2 272.7,224 289.2,198.1 301,174.3 308.8,152.6 
	313.1,133.1 314.4,115.5 "/>
<polygon fill="#E75524" points="274.5,69.3 268.8,52.1 259.1,37.3 245,25.4 234.5,22.5 212.7,19.2 198.5,18.9 181.3,20.4 
	161.8,24.9 146.9,30.6 133.2,37.9 120.9,46.8 110.1,57 101.1,68.6 97.2,74.8 91.2,88 87.3,102.1 85.1,124.2 85.3,133.7 85.9,139.9 
	87,146.9 91,163.6 98,183.8 108.8,207.4 130.5,244.5 153.3,276.2 175.8,276.1 201.1,278.3 210.8,279.9 236.5,231.9 253.1,194.1 
	260.9,173.2 267.6,151.7 272.8,130.1 276,108.8 276.8,88.3 "/>
<polygon fill="#921A1D" points="219.1,26.5 216.3,19.6 212.7,19.2 198.5,18.9 181.3,20.4 161.8,24.9 146.9,30.6 133.2,37.9 
	120.9,46.8 110.1,57 101.1,68.6 93.9,81.2 89,94.9 87.3,102.1 85.1,124.2 85.3,133.7 85.9,139.9 87,146.9 91,163.6 98,183.8 
	108.8,207.4 130.5,244.5 153.3,276.2 175.8,276.1 191.6,277.2 193.4,277.4 219.2,90.1 220.6,37.6 "/>
<polygon fill="#D23627" points="158,75.4 163.2,57 170.8,41.1 181.1,28.3 194.4,19.1 194.1,19.1 185.7,19.8 161.8,24.9 146.9,30.6 
	133.2,37.9 120.9,46.8 110.1,57 101.1,68.6 94,81.2 89,94.9 87.3,102.1 85.1,124.2 85.3,133.7 87,146.9 91,163.6 98,183.8 
	108.8,207.4 130.5,244.5 153.3,276.2 175.3,276.1 163.7,224.2 155.1,161.9 153.7,139.5 153.5,117.2 154.8,95.6 "/>
<polygon fill="none" points="216.2,19.6 191.9,19.2 180.1,20.6 157.8,26.2 147.5,30.3 137.6,35.3 128.5,41 120,47.5 112.4,54.6 
	105.5,62.4 99.6,70.8 94.6,79.8 90.7,89.2 87.9,99.1 85.1,124.2 85.3,133.7 87,146.9 91,163.6 98,183.8 108.8,207.4 130.5,244.5 
	153.3,276.2 176.4,276.1 186.1,276.7 205.5,279 223.9,282.5 228.3,283.6 "/>
<polygon fill="none" points="216.2,19.6 191.9,19.2 180.1,20.6 157.8,26.2 147.5,30.3 137.6,35.3 128.5,41 120,47.5 112.4,54.6 
	105.5,62.4 99.6,70.8 94.6,79.8 90.7,89.2 87.9,99.1 85.1,124.2 85.3,133.7 87,146.9 91,163.6 98,183.8 108.8,207.4 130.5,244.5 
	153.3,276.2 176.4,276.1 186.1,276.7 205.5,279 223.9,282.5 228.3,283.6 "/>
<polygon fill="#E75524" points="136.3,229.9 121.3,193.4 114.9,173.1 109.9,152.2 107,130.9 106.6,110 109.3,89.7 115.6,70.6 
	126.1,53.1 141.3,37.7 161.8,24.9 146.9,30.6 133.2,37.9 120.9,46.8 110.1,57 101.1,68.6 93.9,81.2 89,94.9 87.3,102.1 85.1,124.2 
	85.3,133.7 85.9,139.9 87,146.9 91,163.6 98,183.8 108.8,207.4 130.5,244.5 153.3,276.2 161.2,275.9 150.6,258 "/>
<polygon fill="#D23627" points="168.6,271.1 154.7,332.5 157.4,333.1 171.3,271.7 "/>
<polygon fill="#174453" points="203.6,337.3 199.7,371.2 212.2,363.7 216.1,329.7 "/>
<polygon fill="#1F6C86" points="166.4,324 154.3,331.6 204,337.3 216.1,329.7 "/>
<polygon fill="#2992B6" points="154.4,331.6 150.5,365.6 199.7,371.2 203.6,337.3 "/>
<polygon fill="#174453" points="154.3,331.6 165.4,332.9 166.4,324 "/>
<polygon fill="#E75524" points="206.7,276.5 204,276.6 206.6,337.2 209.3,335.4 "/>
</svg>
