<?xml version="1.0" encoding="utf-8"?>
<!-- Generator: Adobe Illustrator 17.0.0, SVG Export Plug-In . SVG Version: 6.00 Build 0)  -->
<!DOCTYPE svg PUBLIC "-//W3C//DTD SVG 1.1//EN" "http://www.w3.org/Graphics/SVG/1.1/DTD/svg11.dtd">
<svg version="1.1" xmlns="http://www.w3.org/2000/svg" xmlns:xlink="http://www.w3.org/1999/xlink" x="0px" y="0px" width="400px"
	 height="400px" viewBox="0 0 400 400" enable-background="new 0 0 400 400" xml:space="preserve">
	<polygon fill="#817A6D" points="336.209,314.259 335.919,313.283 328.31,297.187 327.222,292.688 326.71,287.731 327.195,276.253 
		329.863,260.92 316.333,269.5 308.221,287.299 311.306,318.441 312.706,320.279 312.863,320.447 324.667,319.833 336.357,316.108 
		336.36,315.199 	"/>
	<polygon fill="#474540" points="335.5,213.995 335.182,212.148 302.935,233.951 309.44,299.602 313.667,288.667 317.833,279 
		322.833,272.833 325.5,270.667 327.971,271.795 335.193,230.287 335.821,219.873 	"/>
	<polygon fill="#5D311E" points="336.209,314.259 335.919,313.283 335.484,312.363 332.167,313.667 323.833,315.833 
		316.833,315.667 311.114,316.501 311.306,318.441 312.706,320.279 314.675,322.385 315.783,323.284 316.34,323.634 316.89,323.894 
		317.423,324.047 329.014,324.024 330.146,323.809 330.679,323.635 331.192,323.411 331.689,323.136 332.172,322.808 
		333.105,321.977 334.011,320.898 335.819,317.909 336.182,317.013 336.357,316.113 336.36,315.199 	"/>
	<polygon fill="#474540" points="178.768,208.889 172.534,208.902 166.447,210.158 160.548,212.473 154.879,215.664 
		149.483,219.544 139.676,228.639 125.18,246.996 119.75,255.738 131.375,290.052 132.329,295.297 146.078,289.719 144.906,283.027 
		144.381,273.881 144.723,269.817 145.177,267.963 145.921,266.174 146.927,264.438 148.169,262.74 151.249,259.399 
		167.494,244.664 171.44,240.061 174.892,235.046 177.785,229.922 182.015,220.303 185.106,210.305 	"/>
	<polygon fill="#817A6D" points="156.719,315.69 156.415,314.216 156.183,313.555 155.893,312.951 155.554,312.404 155.177,311.91 
		154.349,311.075 153.491,310.429 152.682,309.957 152.005,309.64 151.366,309.407 150.979,308.992 150.07,307.68 149.537,306.656 
		149.013,305.371 148.545,303.811 144.906,283.027 144.381,273.881 144.679,270.338 143.667,268.5 141.366,266.98 138.871,267.887 
		134.5,275.167 132,282.667 130.749,288.206 131.375,290.052 134.031,304.65 134.662,316.061 135.224,318.94 135.575,319.902 
		135.764,320.217 135.96,320.405 136.232,320.533 137.827,320.989 141.339,321.633 150.305,322.243 151.437,322.47 152.442,322.531 
		153.328,322.441 154.099,322.215 154.762,321.868 155.32,321.414 155.781,320.867 156.149,320.243 156.43,319.556 156.629,318.821 
		156.752,318.052 156.805,317.264 	"/>
	<polygon fill="#5D311E" points="113.955,160.07 113.659,159.951 113.203,159.937 112.604,160.017 99.379,164.025 97.916,164.193 
		95.963,164.18 57.314,157.017 57.936,158.181 55.455,158.004 56.557,160.531 69.344,165 86.33,168.826 104.438,169.106 
		105.917,169.343 106.599,169.558 107.265,169.852 107.934,170.234 108.622,170.715 109.539,171.511 110.358,172.405 
		111.714,174.355 114.08,160.307 	"/>
	<polygon fill="#817A6D" points="57.936,158.181 57.314,157.017 57.309,157.017 56.243,156.719 55.079,156.274 52.509,154.997 
		10.669,125.182 10.716,125.837 10.838,126.54 11.052,127.282 11.372,128.056 11.815,128.855 12.395,129.67 13.129,130.494 
		20.889,137.099 17.406,137.099 30.289,143.408 26.456,145.523 48.389,157.137 56.557,160.531 55.455,158.004 	"/>
	<polygon fill="#E6DAC0" points="55.356,149.967 58.834,149.967 58.833,149.917 58.728,148.936 58.543,148.159 58.215,147.33 
		57.985,146.929 57.704,146.553 57.367,146.217 56.968,145.933 56.504,145.714 55.968,145.573 55.356,145.523 58.834,145.523 
		55.189,140.264 54.656,140.003 54.656,142.034 41.078,131.794 29.939,125.161 7.667,119.354 14.033,122.566 11.139,122.566 
		11.059,122.754 10.887,123.287 10.723,124.112 10.669,125.182 53.83,155.695 56.243,156.719 57.309,157.017 56.251,155.306 
		56.081,155.117 55.904,154.955 55.722,154.817 55.356,154.606 55.007,154.469 54.695,154.39 54.445,154.353 54.217,154.343 
		54.226,154.335 54.302,154.276 54.473,154.181 54.757,154.075 55.172,153.982 55.738,153.927 56.474,153.932 59.966,154.344 
		60.408,154.329 60.692,154.28 60.785,154.248 60.852,154.215 60.897,154.183 60.924,154.154 60.938,154.13 60.943,154.114 
		60.944,154.108 	"/>
	<polygon fill="#A55735" points="144.478,145.523 127.702,150.172 111.107,152.474 102.034,152.594 92.93,151.638 67.115,145.046 
		55.189,140.264 58.834,145.523 55.356,145.523 55.968,145.573 56.504,145.714 56.968,145.933 57.367,146.217 57.704,146.553 
		57.985,146.929 58.215,147.33 58.399,147.745 58.65,148.561 58.78,149.272 58.834,149.967 55.356,149.967 60.944,154.108 
		60.943,154.114 60.938,154.13 60.924,154.154 60.897,154.183 60.852,154.215 60.785,154.248 60.692,154.28 60.568,154.308 
		60.209,154.342 59.675,154.333 56.083,153.92 55.435,153.948 54.947,154.026 54.599,154.128 54.375,154.231 54.254,154.311 
		54.217,154.343 54.233,154.343 54.561,154.367 54.845,154.423 55.178,154.529 55.539,154.701 55.904,154.955 56.081,155.117 
		56.251,155.306 56.411,155.523 57.309,157.017 57.314,157.017 87.89,163.265 97.916,164.193 99.379,164.025 111.876,160.178 
		113.203,159.937 113.659,159.951 113.955,160.07 114.08,160.307 111.714,174.355 111.715,174.356 111.716,174.357 111.716,174.358 
		111.716,174.358 111.716,174.358 111.716,174.359 111.716,174.359 111.716,174.359 111.715,174.359 111.715,174.36 111.715,174.36 
		111.714,174.36 111.714,174.36 112.679,176.22 113.845,179.415 142.815,150.153 144.061,148.141 144.65,146.57 	"/>
	<polygon fill="#A55735" points="271.939,217.433 271.182,216.671 270.143,216.029 268.875,215.484 265.863,214.586 
		269.634,224.028 269.511,224.178 268.395,225.161 267.315,225.851 269.895,226.691 272.25,220.018 272.43,218.853 	"/>
	<polygon fill="#414042" points="353.737,133.815 322.649,127.156 324.279,131.318 327.161,134.767 329.993,139.029 
		332.486,144.098 334.352,149.967 336.376,152.414 338.501,154.546 340.723,156.302 343.036,157.622 344.226,158.099 
		345.438,158.445 346.67,158.651 347.923,158.711 349.195,158.616 350.487,158.359 351.798,157.933 353.126,157.33 357.617,134.734 
			"/>
	<polygon fill="#817A6D" points="351.798,157.933 350.487,158.359 349.195,158.616 347.923,158.711 346.67,158.651 345.438,158.445 
		344.226,158.099 343.036,157.622 340.723,156.302 338.501,154.546 336.376,152.414 334.352,149.967 335.174,154.602 
		335.477,159.649 335.11,163.621 334.738,165.242 334.274,166.64 333.743,167.83 333.171,168.827 332.583,169.647 331.459,170.813 
		330.326,171.67 331.158,172.398 331.659,173.563 332.127,175.547 332.495,178.563 332.666,188.543 332.125,193.827 
		330.827,199.751 326.368,212.729 320.106,225.892 312.863,237.658 317.201,235.14 322.671,231.115 330.838,223.338 
		338.576,213.831 341.637,208.878 343.813,204.031 344.489,201.703 349.194,167.698 350.148,168.044 350.632,167.091 
		353.126,157.33 	"/>
	<polygon fill="#E6DAC0" points="334.352,149.967 328.738,140.972 324.279,131.318 319.004,126.477 313.547,125.704 
		317.934,148.264 310.377,162.458 290.59,172.8 289.206,174.195 288.509,175.428 287.658,178.405 286.83,179.793 286.15,180.575 
		281.016,185.004 279.883,186.594 279.283,188.275 277.848,218.945 276.903,223.441 276.222,225.136 275.375,226.387 
		274.496,226.902 273.408,227.13 271.725,227.068 269.895,226.691 269.12,229.937 268.273,236.053 271.9,264.02 277.122,287.347 
		278.976,301.474 289.182,310.396 293.434,312.984 295.504,313.892 297.38,314.207 298.818,313.648 299.859,312.307 
		300.543,310.277 300.912,307.65 301.005,304.519 300.529,297.116 295.75,265.848 295.564,263.838 295.561,260.303 295.971,257.371 
		296.7,254.986 298.188,252.314 299.308,251.056 300.42,250.153 301.432,249.549 304.225,241.695 312.863,237.658 321.796,222.67 
		327.683,209.405 331.565,196.722 332.497,191.093 332.328,176.913 331.901,174.44 331.158,172.398 330.573,171.451 
		331.459,170.813 332.583,169.647 333.171,168.827 333.743,167.83 334.274,166.64 334.738,165.242 335.11,163.621 335.364,161.762 
		335.422,157.267 	"/>
	<polygon fill="#414042" points="332.486,144.098 329.993,139.029 327.161,134.767 324.279,131.318 328.738,140.972 
		334.352,149.967 	"/>
	<polygon fill="#817A6D" points="322.649,127.156 319.004,126.477 324.279,131.318 	"/>
	<polygon fill="#A55735" points="313.547,125.704 308.59,128.352 300.705,131.577 282.858,135.491 271.252,139.662 257.822,146.939 
		253.842,149.854 252.589,151.13 251.751,152.345 251.272,153.542 251.097,154.767 251.168,156.065 253.252,165.2 255.281,181.042 
		265.863,214.586 269.534,215.746 270.694,216.337 271.599,217.036 272.195,217.867 272.43,218.853 270.82,226.912 272.593,227.146 
		274.154,227.008 275.108,226.594 275.817,225.861 276.222,225.136 276.903,223.441 277.848,218.945 279.526,187.411 280.373,185.8 
		281.016,185.004 281.831,184.183 286.15,180.575 287.319,179.074 287.888,177.776 288.792,174.826 289.792,173.523 290.59,172.8 
		292.982,171.153 310.377,162.458 317.934,148.264 	"/>
	<polygon fill="#817A6D" points="304.225,241.695 306.064,245.873 309.442,242.157 312.863,237.658 	"/>
	<polygon fill="#817A6D" points="305.933,245.742 304.105,241.737 301.432,249.549 303.699,247.983 306.064,245.873 	"/>
	<polygon fill="#817A6D" points="305.15,319.897 299.055,265.759 299.905,263.083 300.452,259.958 300.944,249.817 299.871,250.563 
		298.743,251.637 297.655,253.093 296.7,254.986 295.971,257.371 295.561,260.303 295.564,263.838 300.864,300.977 300.912,307.65 
		300.543,310.277 299.859,312.307 298.818,313.648 297.38,314.207 295.504,313.892 293.434,312.984 291.319,311.804 
		287.046,308.805 278.976,301.474 280.255,315.197 279.996,318.126 280.361,320.731 282.694,320.42 294.705,324.075 
		302.936,321.464 305.996,321.146 	"/>
	<polygon fill="#1F201D" points="314.478,330.33 311.589,327.957 309.385,325.583 305.996,321.146 302.936,321.464 294.705,324.075 
		282.694,320.42 281.241,320.532 279.415,321.005 278.808,323.779 278.503,326.278 278.564,327.388 278.821,328.386 
		279.314,329.259 280.083,329.992 285.222,332.957 290.682,335.23 293.408,335.989 295.91,336.33 297.026,336.304 298.024,336.127 
		299.798,336.088 300.819,336.257 301.906,336.299 303.017,336.221 304.112,336.032 305.15,335.739 306.089,335.349 
		307.643,335.186 309.298,335.403 311.009,335.15 312.606,334.526 313.921,333.633 314.784,332.569 315.026,331.434 	"/>
	<polygon fill="#414042" points="251.272,137.175 244.497,139.587 241.117,140.242 237.547,140.487 209.438,138.334 
		157.724,139.819 147.993,141.868 144.306,143.241 138.723,146.316 142.29,151.638 149.789,147.241 153.299,145.732 
		157.588,144.629 168.067,143.449 238.567,145.523 242.293,144.755 245.776,143.596 249.011,142.117 251.993,140.39 
		257.176,136.476 261.283,132.425 	"/>
	<polygon fill="#0A0B09" points="265.863,214.586 262.996,213.887 220.122,207.902 231.026,217.629 239.793,223.737 
		244.321,226.084 248.81,227.697 251.007,228.167 253.157,228.378 258.217,228.279 262.189,227.704 265.184,226.834 
		267.315,225.851 268.395,225.161 269.634,224.028 	"/>
	<polygon fill="#E6DAC0" points="214.313,202.382 211.331,200.133 204.857,196.303 198.384,193.631 195.402,192.83 192.726,192.439 
		190.922,192.641 190.017,193.488 189.839,194.866 190.212,196.661 193.734,205.719 220.122,207.902 	"/>
	<polygon fill="#0A0B09" points="194.099,207.066 193.734,205.719 181.979,205.578 190.398,210.91 193.579,212.313 194.814,211.896 
		194.884,210.788 	"/>
	<polygon fill="#1F201D" points="297.9,123.705 291.482,124.237 272.894,128.039 262.328,131.929 261.283,132.425 259.366,134.432 
		254.716,138.486 249.011,142.117 245.776,143.596 242.293,144.755 238.567,145.523 168.067,143.449 157.588,144.629 
		153.299,145.732 149.789,147.241 142.29,151.638 166.434,192.04 168.952,195.361 171.837,198.226 182.615,205.659 193.734,205.719 
		190.551,197.678 189.968,195.718 189.848,194.118 190.368,192.991 191.7,192.452 192.726,192.439 195.402,192.83 198.384,193.631 
		201.57,194.802 208.145,198.093 214.313,202.382 220.122,207.902 262.996,213.887 265.863,214.586 254.736,178.304 
		253.621,167.869 251.168,156.065 251.097,154.767 251.272,153.542 251.751,152.345 252.589,151.13 253.842,149.854 
		257.822,146.939 271.252,139.662 282.858,135.491 300.705,131.577 305.113,129.955 313.51,125.522 	"/>
	<polygon fill="#A55735" points="171.837,198.226 168.952,195.361 166.434,192.04 142.29,151.638 123.672,164.283 106.33,179.415 
		104.755,182.52 104.053,184.364 103.573,186.731 104.821,218.236 104.095,230.076 102.836,237.088 101.306,242.181 
		119.122,228.546 129.455,217.974 130.454,216.748 131.346,215.215 134.274,208.051 135.072,207.149 136.124,206.665 
		137.387,206.902 137.999,206.073 139.142,205.655 140.344,205.78 141.972,206.417 142.965,206.979 145.345,208.691 
		149.511,212.417 152.275,215.474 158.928,200.304 160.084,198.777 161.344,197.74 162.694,197.141 164.119,196.929 165.605,197.05 
		167.139,197.453 168.706,198.087 180.747,205.21 181.979,205.578 	"/>
	<polygon fill="#817A6D" points="164.21,213.64 163.158,213.591 159.278,215.149 158.173,215.77 156.278,217.133 154.505,218.764 
		154.005,217.885 152.275,215.474 146.097,233.95 150.5,229.926 160.668,222.659 166.693,219.485 	"/>
	<polygon fill="#817A6D" points="269.895,226.691 267.315,225.851 265.794,226.592 263.025,227.507 259.307,228.173 254.53,228.408 
		251.007,228.167 248.81,227.697 244.321,226.084 239.793,223.737 235.328,220.852 220.122,207.902 193.734,205.719 
		194.908,211.416 194.175,212.358 192.768,212.065 190.398,210.91 181.979,205.578 180.747,205.21 168.706,198.087 167.139,197.453 
		165.605,197.05 164.119,196.929 162.694,197.141 161.344,197.74 160.084,198.777 158.928,200.304 152.275,215.474 154.629,218.634 
		157.164,216.45 159.278,215.149 163.986,213.539 164.775,214.406 165.811,217.651 166.693,219.485 170.748,217.881 174.84,216.768 
		178.897,216.264 180.89,216.277 182.846,216.487 268.542,244.802 268.273,236.053 268.558,233.139 	"/>
	<polygon fill="#E09A6D" points="138.723,146.316 129.153,153.399 119.969,162.012 112.064,171.052 106.33,179.415 123.672,164.283 
		142.29,151.638 	"/>
	<polygon fill="#E6DAC0" points="149.072,211.983 144.086,207.73 141.972,206.417 140.344,205.78 139.142,205.655 137.999,206.073 
		137.334,207.066 137.222,206.974 136.124,206.665 135.072,207.149 134.274,208.051 133.438,209.586 131.768,214.271 
		130.91,216.033 129.971,217.387 118.214,229.397 101.306,242.181 81.639,281.775 82.161,300.575 80.548,324.039 81.812,323.794 
		83.492,323.939 85.63,324.521 87.862,324.733 92.93,324.08 98.481,284.037 98.286,279.707 97.306,274.464 100.279,273.957 
		101.452,273.581 102.68,273.007 129.224,254.019 146.097,233.95 152.275,215.474 	"/>
	<polygon fill="#817A6D" points="102.68,273.007 101.452,273.581 100.279,273.957 97.306,274.464 98.286,279.707 98.481,284.037 
		92.93,324.08 92.956,324.676 95.478,324.498 96.737,308.756 98.985,297.102 103.783,283.503 106.528,278.384 108.065,276.256 
		109.767,274.345 116.584,268.545 129.224,254.019 	"/>
	<polygon fill="#A55735" points="92.956,324.676 86.697,324.652 83.9,324.08 82.658,323.789 81.389,323.847 80.527,324.963 
		80.99,330.469 81.569,332.488 82.335,333.657 83.527,334.622 85.248,335.327 86.339,335.564 88.443,335.779 90.76,335.567 
		91.824,335.191 92.836,334.483 93.426,333.58 95.039,334.065 	"/>
	<rect x="316.6" y="116.2" fill="#414042" width="18.2" height="15.1"/>
	<polygon fill="#A55735" points="101.6,327.7 95.5,324.5 92.1,324.7 93.7,332.8 95,334.1 98.4,334.4 100.4,333.9 102.3,332.3 
		103,330.4 	"/>
	<polygon fill="#3B1F13" points="385.6,121.1 385.2,117.8 385.7,113.7 386.5,110.8 388.9,104.4 388.3,102.1 384.8,97.5 383.7,95.6 
		374.4,74.5 372.6,72.3 370.4,71 368.3,70.6 366,70.6 368.2,88.8 379.8,124.5 385.6,132.9 387.1,134.5 388.9,135.5 389.4,133.4 	"/>
	<polygon fill="#E09A6D" points="374.432,83.894 372.417,81.394 371.482,80.699 362.296,80.167 363.395,79.042 364.645,78.257 
		365.987,77.762 367.362,77.503 364.944,71.822 364.093,66.203 362.731,65.428 359.394,64.069 355.134,63.046 349.828,62.454 
		338.919,62.491 326.508,63.985 321.749,65.205 317.838,66.654 314.689,68.265 312.213,69.973 310.325,71.712 310.022,75.206 
		312.149,89.197 314.602,98.2 316.207,102.076 318.093,105.299 319.149,106.611 333.146,119.349 333.859,118.613 334.681,118.017 
		336.474,117.127 338.117,116.584 342.574,115.598 344.803,114.574 346.387,113.362 349.619,109.73 352.256,105.603 354.22,101.048 
		355.469,96.065 356.641,87.963 357.242,86.51 358.117,87.009 362.146,93.666 364.047,95.906 366.485,98.253 369.537,100.621 
		373.279,102.925 373.827,94.677 375.105,87.47 375.174,86.277 	"/>
	<polygon points="345.805,139.343 344.917,138.546 343.235,138.178 341.933,137.719 340.692,137.099 341.598,137.89 
		343.155,138.959 344.116,139.451 345.69,139.941 346.776,140.003 	"/>
	<polygon fill="#E6DAC0" points="345.57,96.758 344.047,95.826 341.891,95.123 340.831,95.514 340.084,96.193 339.342,97.008 
		340.642,97.375 345.575,96.763 	"/>
	<polygon points="344.91,95.986 343.374,94.831 342.218,94.601 341.212,94.792 337.841,96.032 338.692,96.664 340.246,96.078 
		341.627,95.144 342.789,95.285 344.047,95.826 345.46,96.606 	"/>
	<polygon points="340.595,91.176 339.313,90.282 338.254,90.12 336.899,90.41 335.384,91.019 333.843,91.816 330.107,94.215 
		332.234,95.325 334.649,96.274 335.956,96.613 337.234,96.772 338.692,96.664 337.841,96.032 341.574,94.703 342.934,94.669 
		344.199,95.344 345.46,96.606 	"/>
	<polygon fill="#916445" points="335.369,101.105 333.245,100.459 331.463,99.683 330.018,98.859 327.49,96.773 327.619,98.619 
		328.023,100.183 328.732,101.428 329.773,102.315 331.176,102.808 332.97,102.867 334.021,102.723 335.182,102.456 
		337.841,101.536 	"/>
	<polygon fill="#F0B48F" points="371.158,77.65 369.407,77.447 367.362,77.503 368.593,79.075 372.104,80.783 	"/>
	<polygon fill="#E6DAC0" points="373.279,102.925 367.929,99.44 365.194,97.072 363.034,94.767 361.374,92.611 358.117,87.009 
		356.919,87.002 356.641,87.963 355.469,96.065 354.22,101.048 352.256,105.603 349.619,109.73 346.387,113.362 344.045,115.003 
		342.574,115.598 338.117,116.584 336.474,117.127 334.681,118.017 333.859,118.613 333.146,119.349 338.301,124.297 
		340.514,130.752 342.656,135.5 344.092,137.622 344.917,138.546 346.63,138.677 348.549,138.54 350.636,138.041 362.242,132.695 
		363.119,132.057 364.503,130.608 365.447,128.98 366.013,127.234 366.263,125.431 366.26,123.632 365.743,120.289 361.879,116.519 
		361.454,115.151 361.478,114.097 361.74,112.999 362.231,111.92 362.945,110.921 363.873,110.064 365.01,109.409 370.34,108.042 
		373.673,107.695 375.131,107.796 376.33,108.147 377.744,108.649 	"/>
	<polygon fill="#F0B48F" points="366.674,77.606 364.645,78.257 363.395,79.042 362.296,80.167 371.482,80.699 	"/>
	<polygon fill="#F0B48F" points="337.744,81.644 335.153,80.756 332.887,80.426 330.924,80.582 329.242,81.149 327.819,82.053 
		326.635,83.222 325.668,84.58 324.895,86.055 324.296,87.572 323.53,90.44 323.125,93.442 323.891,92.135 324.562,91.388 
		326.377,89.782 328.683,88.124 334.104,85.12 336.886,84.01 339.494,83.317 340.682,83.164 	"/>
	<polygon fill="#A29C8F" points="358.564,129.16 355.351,129.586 353.936,129.583 352.648,129.463 351.483,129.249 350.443,128.962 
		348.727,128.253 347.489,127.509 346.41,126.597 346.763,127.918 347.22,129.026 348.429,130.646 350.006,131.54 351.919,131.79 
		352.992,131.699 354.136,131.479 356.626,130.691 362.296,128.013 	"/>
	<polygon fill="#A29C8F" points="359.927,126.746 357.621,126.836 353.494,126.386 350.497,125.619 349.215,125.161 
		350.821,126.397 352.368,127.264 353.889,127.791 355.419,128.007 356.991,127.942 358.638,127.623 362.296,126.342 	"/>
	<polygon points="375.91,130.923 375.148,130.259 374.486,129.109 374.239,127.99 374.26,126.806 374.749,125.849 376.75,123.496 
		377.907,121.824 378.631,120.452 379.292,118.504 379.448,117.083 379.393,115.642 379.168,114.211 378.377,111.497 
		376.804,108.433 375.769,107.937 374.429,107.717 372.875,107.722 371.197,107.902 364.416,109.707 363.383,110.471 
		362.56,111.407 361.957,112.454 361.58,113.55 361.436,114.633 361.533,115.643 362.107,116.843 363.313,118.126 365.743,120.289 
		372.375,125.548 372.559,127.053 372.267,128.972 371.626,129.781 370.17,130.767 368.242,131.558 361.231,133.266 
		350.636,138.041 348.549,138.54 346.63,138.677 344.917,138.546 345.805,139.343 346.776,140.003 367.997,133.898 369.257,133.733 
		370.674,133.964 371.785,134.42 379.492,138.177 380.346,137.51 380.976,136.657 381.364,135.6 381.619,133.146 	"/>
	<polygon fill="#817A6D" points="377.986,130.856 377.7,129.755 377.371,127.4 377.43,122.566 374.836,125.722 374.26,126.806 
		374.239,127.99 374.652,129.501 375.493,130.607 376.408,131.198 378.365,131.882 	"/>
	<polygon fill="#817A6D" points="372.532,126.57 372.375,125.548 365.743,120.289 366.26,123.632 366.263,125.431 365.774,128.118 
		365.027,129.812 363.87,131.358 363.119,132.057 362.242,132.695 361.231,133.266 362.609,132.818 368.242,131.558 370.17,130.767 
		371.626,129.781 372.375,128.697 372.552,127.583 	"/>
	<polygon fill="#E6DAC0" points="381.462,114.905 380.86,113.428 379.973,111.839 377.36,109.076 378.377,111.497 379.168,114.211 
		379.393,115.642 379.448,117.083 379.292,118.504 378.882,119.876 378.186,121.337 377.43,122.566 377.31,126.181 377.498,128.598 
		377.986,130.856 378.365,131.882 381.619,133.146 381.734,116.258 	"/>
	<polygon fill="#A29C8F" points="371.785,134.42 370.674,133.964 369.257,133.733 367.997,133.898 346.776,140.003 353.152,143.408 
		357.446,140.025 359.378,139.027 360.956,138.624 362.886,138.482 373.144,139.323 376.402,139.154 377.789,138.877 
		378.987,138.447 	"/>
	<polygon fill="#A29C8F" points="346.776,140.003 345.69,139.941 344.628,139.656 343.624,139.216 342.714,138.69 340.692,137.099 
		341.933,137.719 343.235,138.178 344.917,138.546 344.092,137.622 343.34,136.599 342.037,134.345 338.068,123.901 337.2,123.254 
		333.146,119.349 332.485,120.263 331.927,121.285 331.085,123.538 330.549,125.89 330.253,128.122 332.53,132.14 337.628,139.091 
		340.325,141.801 343.037,143.85 344.38,144.591 345.703,145.126 347,145.439 348.262,145.517 349.482,145.346 350.651,144.912 
		353.152,143.408 	"/>
	<polygon fill="#916445" points="370.615,76.088 369.103,71.754 368.336,70.357 367.288,68.933 365.894,67.532 364.093,66.203 
		364.944,71.822 367.362,77.503 369.407,77.447 371.158,77.65 	"/>
	<polygon fill="#916445" points="320.284,107.693 319.149,106.611 318.093,105.299 316.207,102.076 314.602,98.2 313.257,93.848 
		310.022,75.206 309.453,102.892 309.964,106.094 310.325,107.312 310.929,108.613 311.707,109.792 312.639,110.874 314.884,112.84 
		323.258,118.935 326.069,121.685 328.627,125.12 330.253,128.122 330.549,125.89 331.085,123.538 331.927,121.285 332.485,120.263 
		333.146,119.349 	"/>
	<polygon points="373.427,88.744 367.499,88.112 366.587,88.62 365.699,89.485 366.065,91.742 366.392,92.899 367.118,94.486 
		367.766,95.271 368.821,95.324 370.214,94.884 371.722,94.203 372.98,93.097 373.312,92.115 373.477,90.589 	"/>
	<polygon fill="#414042" points="339.5,91.2 337.3,90.9 335.4,91.9 334.7,93.8 335.5,95.4 337.3,96.3 339.5,96 341,94.6 341,92.6 	
		"/>
	<polygon fill="#FFFFFF" points="339.698,92.113 338.653,92.315 338.372,93.279 338.439,93.638 339.116,94.397 340.047,94.03 
		340.253,93.026 	"/>
	<polygon fill="#414042" points="370.3,89.7 368,89 365.9,90 366.4,92.9 366.6,93.4 368.5,94.5 370.5,93.6 371.3,91.7 	"/>
	<polygon fill="#FFFFFF" points="370.018,90.375 368.983,90.382 368.664,91.42 368.854,92.09 369.932,92.453 370.388,91.539 	"/>
	<polygon fill="#414042" points="377.217,111.714 376.495,110.785 376.272,110.576 375.326,109.934 374.157,109.609 
		373.058,109.984 372.683,111.083 373.008,112.253 373.649,113.198 374.548,113.993 375.508,114.469 376.809,114.52 
		377.593,113.736 377.608,112.67 	"/>
	<polygon fill="#3B1F13" points="324.3,117.4 322.8,112.6 320.3,107.7 318.3,103.9 317.6,101.9 317.4,99.2 322,72.8 319.8,72.4 
		314.7,71.8 313,88.3 313.1,96.1 313.7,99.5 314.5,102.8 320,116.7 320.6,118.8 325,126.6 325.1,122.1 	"/>
	<polygon fill="#5D311E" points="320.6,118.8 320,116.7 315.5,105.7 313.7,99.5 313.1,96.1 313.2,84.2 314.7,71.8 310.8,72 
		306.6,72.6 302.5,74.1 300.6,75.3 298.8,76.7 295.1,80.3 292.5,83.6 290.523,86.758 290.504,86.744 287,93.6 281.7,102.2 
		280.9,104.8 280.9,107.2 282.1,109.8 283.6,111.6 285.5,115 287.4,122.1 289.3,127 293.1,133.6 295.6,137 298.6,140 300.2,141.2 
		303.7,142.9 307.4,143.2 309.4,142.7 311.4,141.8 320.7,136.4 323,134.2 323.9,131.9 324.5,129.8 325,126.6 	"/>
	<polygon fill="#3B1F13" points="305.004,99.944 303.704,98.144 299.804,94.144 290.504,86.744 287.004,93.544 289.104,95.644 
		291.304,98.744 290.904,100.844 287.904,104.044 286.704,106.544 286.404,109.544 287.704,111.244 291.404,114.144 
		292.804,116.244 294.004,119.344 296.204,127.344 297.904,125.944 299.904,122.344 302.004,117.444 305.104,106.944 
		305.704,101.644 	"/>

</svg>
