<?xml version="1.0" encoding="utf-8"?>
<!-- Generator: Adobe Illustrator 17.0.0, SVG Export Plug-In . SVG Version: 6.00 Build 0)  -->
<!DOCTYPE svg PUBLIC "-//W3C//DTD SVG 1.1//EN" "http://www.w3.org/Graphics/SVG/1.1/DTD/svg11.dtd">
<svg version="1.1" id="Layer_1" xmlns="http://www.w3.org/2000/svg" xmlns:xlink="http://www.w3.org/1999/xlink" x="0px" y="0px"
	 width="400px" height="400px" viewBox="0 0 400 400" enable-background="new 0 0 400 400" xml:space="preserve">
<polygon fill="#993621" points="83.9,218.4 47.9,218.4 67.9,336.9 69.5,340.5 71.7,343.7 74.4,346.4 77.6,348.7 81.1,350.3 
	84.9,351.4 98.6,351.7 99.9,351.6 103.3,349.6 104.7,346 "/>
<polygon fill="#B44926" points="75.8,218.4 39.9,218.4 59.8,336.9 61.4,340.5 63.7,343.7 66.4,346.4 69.5,348.7 73,350.3 
	76.8,351.4 90.5,351.7 91.9,351.6 95.2,349.6 96.7,346 "/>
<polygon fill="#FFFFFF" points="255.7,162.5 255.7,193.4 280.1,193.4 280.1,164.5 "/>
<polygon fill="#CE6B28" points="12.8,167.8 10.5,170 8.4,172.4 6.7,175.2 5.5,178.2 4.7,181.4 4.5,193.4 18.2,193.4 18.2,166 "/>
<polygon fill="#F8991D" points="95.3,151.1 95.7,193.4 241.6,193.4 241.6,72.6 "/>
<polygon fill="#DF6426" points="255.6,69.3 254.1,66.5 251.3,65 250.2,64.9 246,65 243.3,66.5 241.8,69.3 241.6,193.4 255.7,193.4 
	"/>
<polygon fill="#FFFFFF" points="22.1,163.8 18.5,164.7 18.2,193.4 25.8,193.4 25.8,163.4 "/>
<polygon fill="#E06C2F" points="95.3,151.1 35.9,151.3 31.7,153 28.4,156 26.3,160 25.8,193.4 95.7,193.4 95.7,151.1 "/>
<polygon fill="#E5E5E5" points="255.7,193.4 255.7,225.1 280.1,223.1 280.1,193.4 "/>
<polygon fill="#C95D2B" points="18.2,193.4 4.5,193.4 4.7,199.2 5.5,202.5 6.8,205.5 8.5,208.3 10.6,210.8 13,212.9 15.7,214.7 
	18.8,216 "/>
<polygon fill="#E18426" points="202.6,193.4 95.7,193.4 95.7,229.5 241.6,308 241.6,193.4 "/>
<polygon fill="#C95D2B" points="241.6,193.4 241.8,314.2 243.3,317 246,318.5 251.3,318.5 254.1,317 255.6,314.2 255.7,193.4 "/>
<polygon fill="#E5E5E5" points="18.2,193.4 18.3,214.6 22.2,216.9 25.8,217.2 25.8,217.1 25.8,193.4 "/>
<polygon fill="#C95D2B" points="95.3,193.4 25.8,193.4 25.9,217.8 27,222.4 29.7,226.1 33.6,228.6 95.7,229.5 95.7,193.4 "/>
<polygon fill="#D3BD2A" points="392.5,48.2 303.5,84.7 302,87.5 303.5,90.4 305.4,91 392.6,54 394,51.1 "/>
<polygon fill="#D3BD2A" points="391.9,115.7 304,133.9 302,136.5 302.8,139.4 305.9,140.5 392,122.1 394,119.6 394,118.2 "/>
<polygon fill="#D3BD2A" points="391.9,318.3 306.1,281.7 303,282.6 302,285.7 389.7,324.8 392.9,324 394,320.8 "/>
<polygon fill="#D3BD2A" points="305.4,232 302.6,233.5 302.2,236.8 304.7,238.9 390.6,257.1 393.5,255.5 393.8,252.4 "/>
<polygon fill="#D3BD2A" points="393.4,190.9 304.7,189.5 302.2,191.5 302.6,194.8 305.4,196.3 391.3,196.3 393.8,194.2 "/>
</svg>
