<?xml version="1.0" encoding="utf-8"?>
<!-- Generator: Adobe Illustrator 17.0.0, SVG Export Plug-In . SVG Version: 6.00 Build 0)  -->
<!DOCTYPE svg PUBLIC "-//W3C//DTD SVG 1.1//EN" "http://www.w3.org/Graphics/SVG/1.1/DTD/svg11.dtd">
<svg version="1.1" id="Layer_1" xmlns="http://www.w3.org/2000/svg" xmlns:xlink="http://www.w3.org/1999/xlink" x="0px" y="0px"
	 width="400px" height="300px" viewBox="0 0 400 300" enable-background="new 0 0 400 300" xml:space="preserve">
<polygon fill="#3A2717" points="84.5,269.4 83.1,271.4 82.4,273.5 84.6,274.2 84.7,270.6 85.6,268.6 "/>
<polygon fill="#3A2717" points="75.8,268 75.2,269.2 75.8,268 75.8,268 75.8,268 "/>
<polygon fill="#3A2717" points="75.1,269.8 74.5,269.7 74,271.6 74.7,273.4 75.5,274 "/>
<polygon fill="#3A2717" points="204.9,256.5 203.9,256.4 203.8,258.1 204.1,259.6 205.3,259.3 "/>
<polygon fill="#3A2717" points="204.7,254.4 203.9,256.4 204.9,256.5 205.1,254.5 206,252.9 "/>
<polygon fill="#3A2717" points="211.3,255.2 211.4,256.8 211.4,253.9 "/>
<polygon fill="#3A2717" points="211.4,256.8 210.6,256.9 210.5,259.7 211.9,259.5 "/>
<polygon fill="#966736" points="257.8,217.2 257.8,217.1 251.8,200.1 249.1,197.3 253,223.2 252.1,226.4 249.7,231.7 253.9,229.7 
	257.7,224.8 258.6,222.5 258.9,219.6 "/>
<polygon fill="#966736" points="87.2,201.4 97.8,238.6 100,241 "/>
<polygon fill="#C5863F" points="222.7,253.4 219.7,250.4 217.5,249.1 216.3,248.8 204.2,250.2 203.5,251.9 202.7,252.7 202,254.3 
	202.4,255.5 203.9,256.4 204.2,255.4 206,252.9 205.1,254.5 204.9,256.5 210.6,256.9 211.4,253.9 211.3,255.2 211.4,256.8 
	219.8,256.3 222.6,255.5 223.3,254.4 "/>
<polygon fill="#C5863F" points="86.5,264.2 84,262.6 79.7,261.1 78.5,261.4 76.3,262.7 71.2,268.2 70.5,269.5 74.5,269.7 
	75.4,268.7 75.1,269.8 82.3,270 83.6,269.5 87.1,265.2 "/>
<polygon fill="#AD7439" points="203.8,258.1 203.9,256.4 202.8,255.9 202,255.2 204.1,259.6 "/>
<polygon fill="#AD7439" points="204.967,257.283 205.367,260.083 209.267,261.083 210.567,260.483 210.667,257.683 "/>
<polygon fill="#AD7439" points="261.6,214.9 254.7,201 252.9,194.5 252.2,159.8 248.7,156.6 241.5,152.3 234.2,150.3 227.3,150 
	221,151 212,154.5 209.9,156.3 238.6,224.9 232.2,236.6 228.2,241.1 218.1,247.6 207.6,247.8 206.4,248.1 205.5,248.7 204.2,250.2 
	214.2,249.6 216.9,249 218.1,249.4 219.2,250 223.3,254.4 222.6,255.5 220.6,256.2 211.4,256.8 212.4,259.7 221.6,260.3 
	223.7,259.6 225.8,258.6 251.7,236 261.6,219.6 262,217 "/>
<polygon fill="#AD7439" points="70.5,269.5 70.2,271.5 69.8,273 71.1,273.3 72.7,273.5 73.8,273.3 74,271.6 74.5,269.7 "/>
<polygon fill="#AD7439" points="82.7,270 75.1,269.8 75.5,274 77.4,274.1 82.4,273.5 83.9,269.3 "/>
<polygon fill="#AD7439" points="110.1,241.1 95.5,178.5 94.3,177.7 71.1,175.6 92.3,245.1 91.7,248.8 86.3,259.1 85.3,259.9 
	79.7,261.1 82.2,261.8 86.9,264.7 86.9,265.9 83.9,269.3 84.5,269.4 85.6,268.6 84.9,269.8 84.6,271.4 85.3,274.1 86.3,273.7 
	108.7,258.2 109.5,256.8 110.4,253.6 "/>
<polygon fill="#AD7439" points="87.2,201.4 97.3,237.5 99.1,240.8 "/>
<polygon fill="#965724" points="363.8,182.3 363.1,181.2 361.6,182.3 356.3,184.5 346.1,185.9 324.5,183.4 319.9,181.3 315.9,178.6 
	312.4,175.3 306.2,164.8 291.4,102 287.4,96.3 283.1,92.7 278.9,90.6 273.1,89.5 270.7,89.6 292.2,162.8 297.4,170.5 318,188.3 
	324.9,191.9 332.2,193.6 342.2,193.5 362.5,187.7 363.8,186.8 364.4,185.8 364.6,184.2 "/>
<polygon fill="#C5863F" points="327.9,244.7 327.6,206.9 326.1,197.2 325.1,195.4 323.7,194 313.8,188.7 311.1,186.4 295.5,160.9 
	290.1,145.9 288.4,168.7 285.8,173.9 283.9,175.9 281.7,177.3 279.2,178.2 276.1,178.5 268.8,177 259.5,172.3 279.6,192.3 
	309.7,211.9 310.4,212.7 310.9,213.8 312.9,238.2 312,239.4 310.8,240.3 309.5,240.9 304.8,242.2 302.4,243.6 300.4,245.3 
	299.5,246.7 298.4,252.4 299.6,251.8 301.4,252.9 301.6,250.5 302.4,248.4 303.7,246.6 305.3,245.1 304.6,246.1 304.1,247.2 
	303.7,249.5 304.2,253.7 305.9,253.4 310.7,253.9 312.6,253.5 312,247.1 312.3,246 313.2,244.7 312.6,245.8 312.4,247.1 
	312.7,249.8 315.5,254.1 318,253.8 327.9,249.2 328.8,248.3 329,247.1 "/>
<polygon fill="#A87134" points="319.8,197.8 303.4,186.2 301.6,186.3 300.8,187.7 301.7,189.1 316.4,201.7 323.3,217.7 "/>
<polygon fill="#9D6126" points="312.9,250.4 312.4,247.7 312.6,245.5 312.2,246.5 311.9,249 312.6,253.5 313.7,253.5 314.6,254 "/>
<polygon fill="#9D6126" points="304.6,246.1 305.3,245.1 303.7,246.6 302.4,248.4 301.6,250.5 301.9,253 303.2,252.7 304.2,253.7 
	303.7,250.6 303.8,248.3 "/>
<polygon fill="#E79D4D" points="279,99.3 245.2,88 143.9,98.9 132.8,97.1 107.5,83.7 102.3,119.1 115.4,131.2 114.1,147.5 
	112.6,145.3 111.1,161.3 110.4,162.1 108.9,158.3 108.1,161 106.8,167.8 106.6,170.1 106,168.6 104.9,167.6 101.2,187.9 98.2,182.7 
	98.6,195.9 97.9,198.3 96.8,199.9 95.6,200.9 105.1,243.5 108.1,246.5 109.4,246.8 110.6,246.4 111.7,245.6 115.3,241.1 117.9,214 
	112.7,174.7 113,173.5 114.8,172.6 118.3,170.6 124.7,152.4 179.7,153.1 219,141.1 229.7,140.8 230.4,139.9 230.9,140.9 
	231.1,142.4 230.8,143.4 231.7,142.9 232.5,143.7 232.3,144.9 233.6,148 235.1,150.3 259.5,172.3 268.8,177 276.1,178.5 
	279.2,178.2 281.7,177.3 283.9,175.9 285.8,173.9 288.4,168.7 289.9,162 290.1,145.9 "/>
<polygon fill="#F2B060" points="275.4,93.4 270.6,88.5 264.7,84.6 257.7,81.7 241.2,79.1 141,88.5 128.3,86.3 118.1,81.7 
	108.7,75.2 107.5,83.7 113.9,88.3 131,97.2 143.9,98.9 245.2,88 279,99.3 "/>
<polygon fill="#C5863F" points="234.4,145.2 231.3,139.3 230.2,139.8 217,141.3 179.8,152.6 124.7,152.1 118,169.7 117.1,170.7 
	113.3,173.1 112.8,174 112.6,175.5 117.8,211.1 115.6,240.3 114.9,241.8 111.2,246.1 109.4,246.8 108.1,246.5 106.7,245.5 
	105.1,243.5 105.6,247.5 105.4,250.5 103.8,255.4 100.9,259.5 96.2,259.7 94.2,260.3 91.9,261.6 95.7,261.1 110.7,263.3 111,265.4 
	111,266.6 110.6,267.9 109.7,269.1 108.3,270.2 106,271.1 104.2,271.1 102.7,270.6 101.8,269.9 102.4,273.6 104.7,274.1 
	119.1,271.1 120,270.1 120,266.9 123.1,253.1 123.1,250.3 123.6,251.5 125.1,253.1 126.8,253.6 127.7,252.8 124.3,241.1 127.2,182 
	123.3,170.1 124.3,170.3 125.3,171 134.8,181.9 198,173.9 217.9,157.8 222.5,155.5 227.8,154.4 234.1,154.7 240.7,156.8 
	246.8,160.5 "/>
<polygon fill="#9A6429" points="126.7,172.5 121.3,160.9 122.4,171.9 127.2,182 134.8,181.9 "/>
<polygon fill="#C5863F" points="114.6,129.6 102.3,119.1 92.4,186.6 95.6,200.9 96.8,199.9 97.9,198.3 98.6,195.9 98.2,182.7 
	101.2,188 105.2,167.8 106,168.6 106.6,170.1 107,174.7 108.5,168.7 108.9,158.3 111,163.6 111.7,161.9 112.6,145.3 114.8,151.1 
	115.7,132.3 "/>
<polygon fill="#E79D4D" points="110.4,262.4 95.7,261.1 91.9,261.6 87.4,266 86.7,267.6 87,271 89.9,271.1 90,269.8 90.5,268.6 
	91.2,267.4 92.3,266.4 91.9,272.1 92.9,272.3 93.9,272.4 96,272 99.8,270.3 100.7,268.2 102.3,266.2 102.2,270.3 103.4,270.9 
	106,271.1 108.3,270.2 109.7,269.1 110.6,267.9 111,266.6 111,265.4 "/>
<polygon fill="#9A6429" points="100.7,268.2 99.8,270.3 101.8,269.9 102.3,266.2 "/>
<polygon fill="#9A6429" points="101.8,269.9 101.3,269.4 99.8,270.3 99.5,273.7 101.2,273.2 102.4,273.6 "/>
<polygon fill="#C5863F" points="95,272.2 92.9,272.3 91.9,272.1 92.3,274.7 93.8,275.1 95.6,274.9 99.5,273.7 99.8,270.3 "/>
<polygon fill="#9A6429" points="91.9,272.1 91.2,271.7 89.9,271.1 90.3,274.8 91.4,274.1 92.3,274.7 "/>
<polygon fill="#9A6429" points="91.2,267.4 90.5,268.6 90,269.8 90.6,271.1 91.9,272.1 92.3,266.4 "/>
<polygon fill="#C5863F" points="89.9,271.1 86.2,270.8 86.5,273.3 87.6,275.6 88.6,275.6 90.3,274.8 "/>
<polygon fill="#703A17" points="103.2,160 103,160 103,163.8 104,160.85 "/>
<polygon fill="#703A17" points="30.7,139.5 29.6,137.4 28.5,143.4 26.7,139 23.3,120.2 21,126.9 17.7,121.7 19.7,132.4 23,138.9 
	23.1,135 23.7,134.1 24.7,134.8 25.6,136.4 27.3,143.9 33.8,154.1 "/>
<polygon fill="#703A17" points="18.8,58 20,58.4 20.5,57.3 "/>
<polygon fill="#703A17" points="117.7,90.2 113.5,85.1 116,94 117.9,94.5 119.3,95.3 120.7,96.7 "/>
<polygon fill="#703A17" points="115.325,108.4 120.713,111.4 120.506,105.1 119.203,100.2 116.1,94.7 116.6,104.6 111.8,100.8 
	113,105.4 113,120.1 116.3,123.2 116.8,116.6 116.45,112 "/>
<polygon fill="#703A17" points="115.1,128.7 111.1,118.7 108,114.6 110.4,122 112.2,137.6 114.8,138.9 115.6,135.5 "/>
<polygon fill="#703A17" points="16.1,63.7 17,64.2 16.1,63.7 16.1,63.7 16.1,63.7 "/>
<polygon fill="#703A17" points="111.6,141.5 107,138 108.5,143.6 109.3,156.2 111.4,152.5 112.2,148.6 "/>
<polygon fill="#703A17" points="106.6,151.1 106,150.2 105,150.6 104.2,152.5 102.7,162 105.6,165.9 107.9,157.2 "/>
<polygon fill="#703A17" points="96.369,176.898 96.336,177 96.4,177 "/>
<polygon fill="#703A17" points="100.8,168.3 100.4,167.2 99.4,165.8 97.7,165 97.6,165 95.9,168.3 95.4,172.1 95.6,174.4 
	96.369,176.898 96.4,176.8 97.6,177.3 98.5,178.5 99.3,181 103,163.8 "/>
<polygon fill="#703A17" points="95,181.2 96.336,177 95.3,177 93,176.4 88.8,173.65 83.8,168.325 82.4,170.813 82,172 82,173.4 
	82.5,174.9 83.4,176.5 77.3,172.4 74,169.1 72.6,165.5 67.9,168.5 67.2,169.6 57.4,162 53.3,161.9 51.6,162.7 50.7,163.9 
	50.4,165.4 51,166.8 48.3,165.1 38.3,151.2 35.4,156 33.8,154.1 40,166 42.5,159.5 51.8,177.9 54.2,180.1 54,179.1 54.2,177.4 
	55.4,175.5 56.5,174.7 60,173.5 69,184.1 69.1,183 69.5,182 71.2,180.3 73.6,178.7 73.8,179.8 75.1,182.7 78.1,187.1 83.8,192.3 
	83,190.3 82.6,186.4 83.1,183.4 84,181.4 87.7,187.3 91.4,191.2 93.4,192.3 94.5,192.6 95.5,192.5 94.5,186.2 "/>
<polygon fill="#84421D" points="116.7,104.6 116.1,94.7 113.5,85.1 111.6,81.6 113.1,81.8 115.5,83.7 116.4,85 113,75.3 104.3,63.4 
	102.6,61.8 104,61.9 108.3,63.5 106.2,59.7 87.3,44.3 86.8,41.5 87.1,38.4 88.4,35 89.6,33.3 91.3,31.7 87.4,32.8 79.7,37 
	85.7,27.1 79.7,29 69.6,35.5 70,32.9 71.2,30.2 73.6,27.3 69.6,28.3 61.1,32.6 60.9,21.5 59,22.9 57.5,24.6 55.7,28.3 54.8,32.8 
	52.8,29.1 49.9,26.2 48,24.9 45.6,24 47.1,25 48.1,26.3 48.7,27.9 48.9,31.1 48.5,33.2 44.1,31 40.2,30 37.9,30 35.6,30.6 37,30.95 
	39.8,32.475 43.5,36.487 41.6,37.144 29.6,34 28.2,34 25.8,34.35 23.5,35.575 27.1,37.537 31.2,41.019 32.1,42.409 30.7,42.005 
	21.2,43.202 25.8,46.801 11.3,76.301 10.3,81.9 15.6,76.2 12.4,84.3 11.7,87.8 13.7,99.1 17.1,87.6 14.9,113.5 17.6,121.5 21,126.9 
	23.3,120.2 26.7,139 28.5,143.4 28.7,137.3 30.4,138.9 33.8,154.1 35.4,156 38.3,151.2 41.9,157.6 48.3,165.1 51,166.8 50.8,165.4 
	51.3,164.2 52.3,163.4 54.9,162.4 57.4,162 67.2,170 67.6,168.9 72.4,166.1 74,169.1 77.3,172.4 83.5,176.5 82.5,174.9 82,173.4 
	82,172 82.8,169.8 83.7,168.3 87.8,172.8 91.9,175.8 94.1,176.7 95.3,177 96.4,177 95.6,174.4 95.4,172.15 95.9,168.325 
	97.6,165.013 98.9,165.406 99.9,166.403 100.8,168.302 103,163.801 103.2,161.1 103,160.1 104,160.9 105.2,153 109.3,156.2 
	108.5,143.6 107,138 109.9,140.3 111.2,140.9 112.3,135.5 110,120.5 108.2,114.6 113,120.6 113,105.4 111.8,100.8 "/>
<polygon fill="#FDC273" points="32,45.5 28.7,44.4 25.3,44.1 23.6,44.4 21.9,45 20.3,46 17.5,48.9 16.6,50.4 16,51.8 15.8,53.3 
	16,56 17,58.6 20.3,63 23.6,65.9 24.8,62.9 20.8,58.8 19.3,56.2 19,55 19.1,53.7 20.2,51.1 22.8,48 25.9,47.7 29.5,48.7 36.9,52.8 
	40.8,51.8 "/>
<polygon fill="#D98939" points="27.7,48.15 25.9,48 24.3,48 28.2,48.45 25.5,49.175 24.1,50.337 22.7,53.519 22.5,55.109 23,56.805 
	25.8,60.302 24.9,57.701 25,56.601 25.9,56.1 29.1,57.2 32.5,54.8 36.9,52.8 "/>
<polygon fill="#FDC273" points="93.4,39.8 92.6,38.8 91.6,38.1 90.5,37.7 87.7,37.3 82.5,37.7 80.1,38.9 78.9,39.8 74.3,48.3 
	74.2,49.3 77.2,50.5 83.3,42.6 87.2,39.3 89,38.7 94.2,41.1 "/>
<polygon fill="#BC752D" points="90.6,39 89,38.7 86.2,40 77.2,50.5 85.3,53.4 84.6,49.1 83.9,47.7 82.8,47.5 82.3,48 86.6,43.4 
	89.3,41.7 91.8,41 94.1,41 "/>
<polygon fill="#D98939" points="96.5,44.4 96,43 95.2,42 94.1,41 91.8,41 89.3,41.7 86.6,43.4 82.3,48 83.1,47.4 84.3,48.2 
	85.3,53.4 88.7,55.1 91.4,57.4 95.2,50.7 96.6,46.1 "/>
<polygon fill="#BC752D" points="25.897,56.1 24.998,56.6 24.899,57.7 25.8,60.3 22.8,56.4 22.5,54.7 22.9,53.1 24.4,49.9 26.7,48.7 
	28.4,48.4 23.3,47.6 21.6,49.2 20.15,51.1 19,53.7 19,55.6 20.35,58.2 24.775,62.9 26.487,60.1 29.094,57.2 "/>
<polygon fill="#965724" points="107,86.6 105.4,80.5 98.1,70.3 102.2,71.4 91.4,57.4 88.7,55.1 74.2,49.3 74.3,48.3 79.2,39.4 
	71.5,41.7 69.6,43.4 68.1,46 68.4,43.8 70.4,39 67.5,41.2 64.2,45.5 65.5,41 67.3,38.2 61.5,40.9 60.3,42.1 59.7,43 59.8,38 
	57.9,40.1 57,42 56.8,43.4 55,41.3 53.45,40.3 54,41.6 54,43.2 53.45,45.3 48.925,41.5 44.162,41.3 46.881,43.5 47.491,44.5 
	47.795,45.95 41.1,45 38.2,44.95 41,47.025 42.7,49.162 43.1,50.331 43,51.416 36.9,52.808 32.5,54.804 29.1,57.202 26.5,60.101 
	24.1,64.5 23,69.1 17.3,77.6 16,82.5 23.1,76.6 19.1,92.3 20.7,88.9 22.3,86.8 23.6,85.7 20.9,97.6 21,102.7 24.5,96 25.6,94.9 
	24.3,111.5 25.9,108.1 27.3,106.2 28.3,105.5 28.9,121.3 33.4,111.9 34.7,128.8 36.3,124.7 39.2,120.6 44.9,139.6 45.6,137.6 
	47.6,135.2 51.3,132.3 50.3,135 49.8,138 50.1,141.7 50.9,140.1 52.1,139.1 53.4,138.5 56.2,138.2 58.4,138.4 59.4,153.2 59.8,151 
	66.9,139.7 66.3,143.7 66.6,155.2 66.8,153.1 68.3,149.1 72.1,143.8 76.2,155.5 75.9,153.6 76.3,149.9 78.5,144.7 79.6,147.4 
	80,161.8 85.3,145.3 86,137.3 87.9,146.5 91.75,139 94,128.5 94,126.9 96.55,136.1 98.075,128.3 97.537,121.7 95.419,115.6 
	97.609,116.6 99.405,118.8 101.002,122.9 101.801,120 101.401,112.9 97.7,100.4 102.1,104.9 104.9,109.8 105.5,90.4 106.8,92.3 
	107.4,94 "/>
<polygon fill="#965724" points="107.4,96 107.4,94 107.4,96 107.4,96 107.4,96 "/>
<polygon fill="#965724" points="66.6,155.2 66.9,157.2 66.6,155.2 66.6,155.2 66.6,155.2 "/>
<polygon fill="#84421D" points="89.2,86.8 85.5,78.7 37.9,76.4 36.5,78.3 35.5,80.9 35,96.4 37.3,92 39.15,100.6 44,110.8 44,107.5 
	44.15,105.6 45.275,103.7 47.338,108.8 54.319,120.1 55.709,125.9 57.305,123.9 58.102,123.3 59.101,123.2 60.601,124.1 66.3,133.2 
	66.2,131.7 66.3,130.2 66.9,128.6 67.6,127.4 72,134.6 72.9,135.3 73.2,129.3 73.8,127.5 74.8,125.8 75.2,124.4 78.6,131.5 83,120 
	83.8,112.9 86,107.1 86.6,98.3 89.6,90.2 "/>
<path fill="#FDC273" d="M26.4,52.8"/>
<polygon fill="#E79D4D" points="87.4,69.7 79.1,60.5 71.2,55.1 67.5,53.6 64.2,53.1 62.8,53.2 61.5,53.7 60.4,54.4 59.6,55.3 
	58,54.1 56,53.5 53.6,53.7 50.9,54.8 48,56.9 41.8,64.7 38.6,70.8 39.2,80.6 40.9,86.3 44.2,91.4 54.6,101 79.9,94.6 84.5,87.6 
	87.2,79.6 87.7,74.9 "/>
<polygon fill="#CF8540" points="89.4,74.5 87.4,69.7 87.7,74.9 86.1,83.9 80.3,94.2 54.6,101 44.2,91.4 40.9,86.3 39.2,80.6 
	38.6,70.8 36.6,77.9 36.9,84.5 38.9,90.6 45.2,100.6 51.5,107.2 83.5,100 88.3,89.4 90,79.5 "/>
<polygon fill="#FFFFFF" points="80.7,71.8 78.7,71.9 76.2,72.5 74.7,75.6 74.1,78.7 74.7,79.7 75.8,79.4 76.1,78.3 76.8,77.5 
	79.2,76.3 80,75.5 80.4,73.6 82.4,72.8 "/>
<polygon fill="#FFFFFF" points="54.3,79.7 51.5,76.4 48.8,75.4 46.3,75.2 43.7,75.9 44.8,77.1 45.3,78.6 46.1,79.5 47.3,79.9 
	49.2,80 51.9,79.7 53.1,80.3 54.5,81.9 "/>
<polygon fill="#150B0B" points="51.9,74.9 50.2,73.8 48.1,73.5 46.7,73.8 43,75.5 43.6,76.2 45.2,76.7 46.5,78.1 47.6,78.7 
	49.1,78.9 50.3,78.7 51.3,77.9 53.8,80.1 54.7,81.2 55.2,80.3 "/>
<polygon fill="#150B0B" points="81.2,71.3 80.2,70.9 78,70.7 75.8,71.1 74.2,72.2 73.7,73.1 73.5,74.2 73.7,76.6 74.3,79.3 
	75.2,78.8 76.1,76.1 77.8,75.7 79,74.5 78.9,72.9 80.2,72.7 81.2,73 82,72 "/>
<polygon fill="#EFBA87" points="85.5,100.9 82.2,101.8 81.9,103.1 81.3,104.2 85.6,103.4 85.8,102.4 "/>
<polygon fill="#EFBA87" points="51.8,110.2 51.8,110.2 51.8,110.2 "/>
<polygon fill="#EFBA87" points="83.3,94.6 76.7,84.6 73.9,81.7 71.4,79.9 80.2,93.9 81.7,97.9 82.2,101 85.3,99.4 "/>
<polygon fill="#EFBA87" points="84.7,107.5 85.4,105 80.7,104.7 79.6,105.3 78.3,105.5 75.5,105.3 72.8,104.5 70.8,103.4 
	70.3,104.8 68,107.2 64.5,109.6 60.1,111.4 56.5,111.8 53.9,111.2 52.7,112 55.9,115.6 65.7,116.7 73.9,115.4 81.8,112.2 84,109.1 
	76.4,106.3 78.8,107.1 "/>
<polygon fill="#FEDFC1" points="80.2,101.7 82.2,101 81.7,97.9 71.4,79.9 69.5,79.3 68.1,79.2 64.8,80.1 59.7,83 52.2,96 
	50.6,103.4 53.4,103.7 56.3,103.3 53.2,104.2 50.6,104.5 50.8,106.9 57.5,105.3 51.1,108.1 51.8,110.2 57.4,108.3 59.3,107 
	53.9,111.2 56.2,111.8 58.9,111.6 63.4,110.1 67.2,107.9 69.9,105.4 70.6,104.3 72.8,104.5 75.5,105.3 78.3,105.5 79.6,105.3 
	80.7,104.7 77.6,104.1 81.3,104.2 81.9,103.1 82.2,101.8 78.2,102 "/>
<polygon fill="#CA8546" points="53.4,103.7 50.6,103.4 51,104.4 56.3,103.3 "/>
<polygon fill="#CA8546" points="50.8,106.9 51.1,108.1 57.5,105.3 "/>
<polygon fill="#CA8546" points="52.2,110.4 52.7,112 53.9,111.2 "/>
<polygon fill="#CA8546" points="57.4,108.3 52.2,110.4 53.9,111.2 59.3,107 "/>
<polygon fill="#CA8546" points="85.3,99.4 82.1,101 82.2,101.8 85.5,100.9 "/>
<polygon fill="#CA8546" points="82.1,101 80.2,101.7 78.2,102 82.2,101.8 "/>
<polygon fill="#CA8546" points="81.3,104.2 80.7,104.7 85.4,105 85.6,103.4 "/>
<polygon fill="#CA8546" points="77.6,104.1 80.7,104.7 81.3,104.2 "/>
<polygon fill="#CA8546" points="78.8,107.1 76.4,106.3 84,109.1 84.7,107.5 "/>
		<polygon fill="#E6C77A" points="78.5,72.6 77.7,71.7 76.5,71.3 75.3,71.7 74.5,72.6 74.3,73.9 74.9,75.1 76,75.7 77.4,75.5 
			78.3,74.7 78.7,73.5 		"/>
		<polygon fill="#7A5F26" points="78.5,72.6 77.7,71.7 76.5,71.3 75.3,71.7 74.5,72.6 74.3,73.9 74.9,75.1 76,75.7 77.4,75.5 
			78.3,74.7 78.7,73.5 		"/>
<polygon fill="#231815" points="77.3,72.7 76.3,72.7 76,73.7 77,74.2 77.6,73.4 "/>
<polygon fill="#FFFFFF" points="77.7,72.8 77.7,72.8 77.7,72.8 "/>
		<polygon fill="#E6C77A" points="50.5,75.3 49.7,74.3 48.5,74 47.2,74.3 46.4,75.3 46.3,76.6 46.9,77.7 48,78.4 49.3,78.2 
			50.3,77.4 50.7,76.2 		"/>
		<polygon fill="#7A5F26" points="50.5,75.3 49.7,74.3 48.5,74 47.2,74.3 46.4,75.3 46.3,76.6 46.9,77.7 48,78.4 49.3,78.2 
			50.3,77.4 50.7,76.2 		"/>
<polygon fill="#231815" points="49.4,75.5 48.3,75.4 48,76.4 48.9,76.9 49.6,76.1 "/>
<polygon fill="#FFFFFF" points="49.6,75.5 49.6,75.5 49.6,75.5 "/>
<polygon fill="#D9AD80" points="82.2,114.5 80.3,113.1 79.8,114.9 78.9,116.6 77.5,118 74,120.1 69.8,121 66.2,121 63.3,120.5 
	58.4,117.8 57.8,119.1 58.9,120.9 61.2,123.1 62.8,124.1 64.8,124.8 67.3,125.2 73.5,124.5 76.4,123.5 78.8,122.1 80.6,120.6 
	81.8,118.9 82.5,117.3 82.7,115.7 "/>
<polygon fill="#FED2A3" points="77.9,111.7 73.9,110.7 70.6,110.5 69.3,110.7 61.4,114.6 59,116.8 58.4,117.9 62,120.2 64.7,121.2 
	67.7,121.6 71.9,121 75.9,119.3 77.5,118 78.9,116.6 79.8,114.9 80.3,113.1 "/>
<polygon fill="#CC803A" points="69.2,74.1 66.4,70.7 64.9,69.6 63.3,69 61.6,69.1 59.9,69.8 58.7,71.1 57.8,72.7 57.3,74.8 57.6,85 
	61.1,99.1 66.8,98.8 76.8,94.8 "/>
<polygon fill="#FDBE6D" points="70.9,81.075 66.4,73.75 65.2,72.6 63.9,72 62.7,72 61.4,72.7 60.5,73.8 59.9,75.3 59.5,77 
	59.9,86.1 62.6,98.7 67.1,98.394 76,95.688 "/>
<polygon fill="#965724" points="75.7,94.4 70.5,96.8 63.7,96.1 62.8,96.9 62.5,98.8 64,99.1 65.5,98.2 66.7,98.5 68,100.5 70,101.4 
	70.2,98.8 71.2,101.3 72.6,100.5 72.8,98.8 74.8,97.5 76.4,95.2 "/>
<polygon fill="#231815" points="82.2,114.5 81.3,111.2 73.4,107.8 71.6,106.2 71.2,103.8 71.4,102.7 75,99.4 76,98.1 77,95.1 
	75,97.4 73.35,98.1 73,99.1 73,100.3 71.35,101.3 70.475,98.8 70.037,101.4 68.519,100.8 67.309,99.1 66.505,98.4 65.502,98.2 
	64.601,98.9 62.001,98.7 62.2,99.8 68,101.5 69.5,102.6 70.4,103.8 70.8,105.6 70.6,106.9 69.7,108.2 61.9,113 56.8,114 54.5,114 
	55.3,116.5 57.8,119.1 58.8,117.05 60.5,115.275 69.3,110.688 72.2,110.494 75.9,110.997 79.8,112.698 82.4,115.099 "/>
<polygon fill="#653513" points="375.8,185 377.2,185 378.7,184.35 390.1,177.3 389,176.2 387.6,175.5 384.6,174.8 380.9,174.9 
	383.8,173.1 382.6,172.7 381.1,172.6 373.5,173.9 376.8,170.9 374.6,171.3 372.6,172 368.8,174.5 360.9,182.7 361.7,183.5 
	363.9,187.6 379.6,187.875 376.8,186.05 "/>
</svg>
