<?xml version="1.0" encoding="utf-8"?>
<!-- Generator: Adobe Illustrator 17.0.0, SVG Export Plug-In . SVG Version: 6.00 Build 0)  -->
<!DOCTYPE svg PUBLIC "-//W3C//DTD SVG 1.1//EN" "http://www.w3.org/Graphics/SVG/1.1/DTD/svg11.dtd">
<svg version="1.1" id="solid" xmlns="http://www.w3.org/2000/svg" xmlns:xlink="http://www.w3.org/1999/xlink" x="0px" y="0px"
	 width="400px" height="400px" viewBox="0 0 400 400" enable-background="new 0 0 400 400" xml:space="preserve">
<polygon fill="#83C6C4" points="244.8,226.1 243.7,221.2 239.1,212 231.9,203.6 210.6,190.4 182.2,183.2 137.6,185.3 113.9,194 
	101.7,202.3 93.7,210.9 88.6,220.7 86.8,231.1 100.2,231.1 101.1,225.7 105.1,218 113.9,209.8 124.3,203.9 150.8,196.6 166,195.6 
	191.4,198.4 212.3,206.2 220.4,211.5 226.6,217.5 230.5,224.1 231.5,227.6 231.5,234.8 230.5,238.3 226.6,244.9 220.4,251 
	202.5,260.7 179.1,266.1 153,266.1 129.5,260.7 111.6,251 105.5,244.9 101.6,238.3 100.2,231.2 86.8,231.2 88.4,241.2 93,250.5 
	100.2,258.8 121.5,272 149.9,279.3 182.2,279.3 210.6,272 231.9,258.8 239.1,250.5 243.7,241.2 245.2,231.2 "/>
<polygon fill="#83C6C4" points="311,77.5 301.5,86.5 317.6,107.9 279.4,108 279.2,121.5 324.6,121.5 324.6,140.6 291.4,140.7 
	288,142.5 286.2,145.9 286.5,149.9 289,152.8 324.6,154 324.6,170.2 309.1,170.3 305.7,172.1 303.9,175.5 304.3,179.5 306.7,182.4 
	324.6,183.6 324.6,199.8 291.4,199.9 288,201.7 286.2,205.1 286.5,209.1 289,212 324.6,213.2 324.6,229.4 309.1,229.5 305.7,231.4 
	303.9,234.8 304.3,238.7 306.7,241.7 324.6,242.8 324.6,259 291.4,259.1 288,261 286.2,264.4 286.5,268.3 289,271.3 324.6,272.4 
	324.6,288.6 309.1,288.8 305.7,290.6 303.9,294 304.3,297.9 306.7,300.9 324.6,302 324.6,318.2 291.4,318.4 288,320.2 286.2,323.6 
	286.5,327.6 289,330.5 324.6,331.7 324.6,347.9 309.1,348 305.7,349.8 303.9,353.2 304.3,357.2 306.7,360.1 324.6,361.3 
	324.6,376.3 275.4,376.4 275.2,389.6 332.6,389.6 336,387.8 337.9,384.4 338,114.6 "/>
<polygon fill="#83C6C4" points="185.1,24.3 185.1,11.1 102.6,11.1 99.3,12.9 97.4,16.3 97.3,64.1 62.7,112 62.2,384.4 64.1,387.8 
	67.4,389.6 184.6,389.6 184.6,375.9 75.5,376.3 75.5,121.5 185,121.5 185,107.9 81.9,107.9 107.4,72.9 185,72.9 185,59.5 
	110.7,59.5 110.7,24.3 "/>
<polygon fill="#83C6C4" points="301.2,64 301,16.3 299.2,12.9 295.8,11.1 185.1,11.1 185.1,24.3 287.7,24.3 287.7,59.5 185,59.5 
	185,72.9 281.3,72.9 255.8,108 185,107.9 185,121.5 252.5,121.5 252.4,375.7 184.6,375.9 184.6,389.6 275.2,389.6 275.4,376.4 
	266.1,376.4 266.1,121.5 279.2,121.5 279.4,108 272.4,108 294.6,77.5 301.5,86.5 311,77.5 "/>
</svg>
