<?xml version="1.0" encoding="utf-8"?>
<!-- Generator: Adobe Illustrator 17.0.0, SVG Export Plug-In . SVG Version: 6.00 Build 0)  -->
<!DOCTYPE svg PUBLIC "-//W3C//DTD SVG 1.1//EN" "http://www.w3.org/Graphics/SVG/1.1/DTD/svg11.dtd">
<svg version="1.1" id="Layer_1" xmlns="http://www.w3.org/2000/svg" xmlns:xlink="http://www.w3.org/1999/xlink" x="0px" y="0px"
	 width="250px" height="400px" viewBox="0 0 250 400" enable-background="new 0 0 250 400" xml:space="preserve">
<polygon fill="#F8F8D8" points="150.3,68.8 148.7,59.7 148.9,57.6 147.3,54.1 146.5,49.5 146.9,47.9 145.1,48 142.5,42.9 
	140.3,40.6 140.2,39 138.1,38.2 139.3,36.9 137.9,36.1 136.6,35 134.7,33.2 133.5,31 125.3,22.7 123.9,22 120.6,19.1 118.8,18 
	117,17.4 115.7,18.8 113.8,17.9 111.4,16.1 109.9,15.7 107.9,15.6 104.1,14.6 102.4,14.9 100.7,14.3 97.2,13.4 92.3,14 90.2,12.2 
	88.3,12.4 86.5,11.3 83.2,12.6 80.7,12.9 77.3,14.2 72.3,16.9 70.2,17.2 66.4,19.6 62.1,21.3 60.2,22.6 59.6,24 57.4,24.5 
	54.9,28.1 50.2,30.9 48.7,32.8 43.9,38 43.1,40.1 43.1,43.4 44.2,44.7 41.3,46.5 36.3,59.3 35.5,63.4 36.5,64.8 36.1,67.2 
	36.1,69.8 35.3,73.9 36.8,76.4 37.1,79.6 38,83.4 39,85.4 39.7,87.1 41.1,88.1 40.5,90.2 40.8,91.7 44.1,98.2 47.6,104.2 
	50.4,107.9 52.2,108.7 54.7,110.7 56.8,112.7 71.7,122.4 75.4,123.1 78.6,123.3 78.4,120.7 86.9,122.3 92.5,122.6 98,122.3 
	103.3,121.5 108.6,120.1 113.6,118.2 118.4,115.9 124.9,111.6 125.8,113.3 128.3,112.5 126.7,112.9 127.8,111.6 128.2,109.5 
	134.9,101.7 135.6,104.3 134.1,106.3 132.6,106.1 132.6,109.1 131,111 132.8,109.9 134.1,108.4 136.3,106.7 137.7,105.2 
	137.9,101.9 142.5,98.7 143.5,96.6 144.4,93.2 146.3,87.7 147.7,85.2 147.9,83.7 148.4,81.9 149.8,78.9 150.5,77 151.1,74.5 
	151.1,70.2 151.2,70 "/>
<polygon fill="#D0EBE5" points="219.8,111.7 218.9,109.6 216.9,109.1 216.7,106.9 217,103.8 216.6,102.3 215.6,100.5 214.5,96.7 
	213.3,95.3 213,93.5 211.9,89.9 210.1,87.7 208.9,86 209.2,83.2 208.3,81.6 208.1,79.5 205.2,77.3 203.6,75.2 200.8,72.9 
	195.8,69.9 194.4,68.2 190.3,66.2 186.6,63.3 184.4,62.2 182.9,62.4 181.3,60.9 176.8,60.5 171.9,57.9 169.4,57.6 162.3,56.1 
	160.1,56.5 157.2,58.1 156.6,59.7 153.5,58.2 139.7,60.5 135.6,62 134.9,63.7 133.4,64.2 131.9,63.7 130.3,65.8 126.4,67.4 
	124.9,69.9 122.3,71.9 119.3,74.7 118.1,76.6 117,78.1 117,79.6 114.9,80.2 113.6,81.5 106.1,94 106.2,96.2 104.4,98.4 104.6,100.5 
	103.5,106.6 102.8,124.8 104.1,128.3 105.7,131.3 107.7,129.7 110.8,138.1 113.5,143.2 116.6,147.8 120.2,152.1 124.1,156 
	128.4,159.4 133,162.4 137.8,164.9 140.1,165.9 139.2,168.1 141.2,169.2 140,168.1 141.7,168.4 143.7,167.6 154.1,169.5 
	152.2,171.4 149.7,171.1 149,169.7 146.4,171.2 143.9,170.9 145.8,171.8 147.9,172.2 150.5,173.2 152.5,173.5 155.7,172.1 
	157.9,173.2 160.8,174.4 163.1,174.2 172.4,172.1 175.4,172 178.6,170.8 181.9,170.5 185.5,169.8 190.3,167 191.1,165.6 
	198.3,159.5 200.2,158.6 202.4,155.3 204.1,153.7 206.1,152.2 207.3,150.9 207.4,149 209.1,147.3 209.8,145.2 210.6,142.1 
	212,141.1 211.6,138.9 213.3,139.2 213.4,137.6 213.6,136 214.2,133.3 215.5,131.1 218.5,119.5 218.3,118 219,116.2 219.2,113.5 
	219.1,111.4 "/>
<polygon fill="#E2C6C5" points="161.1,145.2 160.2,139.4 159,137.5 155.4,128.4 155.1,126.2 152.7,122.9 150.9,118.3 150,116.5 
	148.1,116.5 147.4,114.8 145.3,112.3 143.3,111.4 141.6,109.7 139.8,108.3 140.7,106.8 139.1,106.2 134.9,103.8 133.5,101.9 
	132.3,100.9 123.1,95.1 121.5,94.7 120,93.5 117.5,92.4 115.5,91.7 113.6,91.3 112,92.8 109.6,92.8 107.3,91.2 105.6,91.1 
	103.5,91.4 99.4,91.2 97.6,91.9 95.8,91.6 91.9,91.6 89.1,92.6 87,93.1 84.4,91.9 82.5,92.3 80.3,91.8 77.1,94 74.7,94.7 74.2,96.2 
	71.9,96.7 66.8,100.6 64.8,101.4 61.4,104.8 57.3,107.5 55.6,109.2 55.2,110.8 53.2,111.9 51.3,116.1 47.7,119.2 46.3,121.4 
	45.3,123.6 42.2,128.9 41.8,131.1 42.4,134.6 44,135.2 42.4,135.4 41.2,138.2 38.9,152.5 39,157 39.5,156.6 40.3,158.2 40.3,159.8 
	39.4,161.1 40.9,163.4 41.1,167.8 42.9,169.2 43.2,170.7 157.1,170.7 157.8,168.4 157.9,166.7 159.1,157.9 159.9,155 159.8,153.4 
	159.9,151.4 "/>
<polygon fill="#E7E0CF" points="90.3,25.5 89.1,27 91.1,27.7 92.2,26 "/>
<polygon fill="#E7E0CF" points="59.8,46.8 59.4,47 59.4,48.6 61.6,47.5 "/>
<polygon fill="#E7E0CF" points="61.9,35.1 60.3,35.8 61.5,37.4 63.5,36.5 "/>
<polygon fill="#E7E0CF" points="80.9,34.6 79.7,35.2 81.5,36 "/>
<polygon fill="#E7E0CF" points="76.5,25.4 76.3,25.4 75.6,27 77.6,26.8 "/>
<polygon fill="#E7E0CF" points="97.2,105.7 96.3,105.9 96.5,107.7 98.5,107 "/>
<polygon fill="#E7E0CF" points="139.2,69.6 138,69.9 138.7,71.4 140.7,70.8 "/>
<polygon fill="#E7E0CF" points="157.6,68.6 156.8,70.1 158.9,69.6 "/>
<polygon fill="#E7E0CF" points="177.1,81.4 175.8,82.4 177.7,83 "/>
<polygon fill="#E7E0CF" points="136.5,83.4 136.2,83.4 135.7,85 137.8,84.5 "/>
<polygon fill="#E7E0CF" points="127.2,81.3 126.6,81.5 126.9,83 128.7,82.3 "/>
<polygon fill="#E7E0CF" points="83,111.5 81.6,112.7 83.2,113.8 84.9,112.4 "/>
<polygon fill="#E7E0CF" points="96.9,121.9 96.4,122 96.2,123.5 98.3,122.9 "/>
<polygon fill="#E7E0CF" points="69.7,124.6 68.9,126 70.9,125.7 "/>
<polygon fill="#E7E0CF" points="71.8,106.6 70.3,107.7 71.2,109.4 73.2,109.1 73.8,107.2 "/>
<polygon fill="#E7E0CF" points="85.6,101.8 84.2,102.4 85.1,104.1 87,103.1 "/>
<polygon fill="#E7E0CF" points="199.9,169.7 198.5,166.3 196.8,164.3 194.7,162.7 192.2,161.7 39.8,161.5 37.2,162.2 34.9,163.5 
	33,165.3 31.6,167.6 30.7,170.5 30.8,194.1 31.1,195.7 31.7,197.2 32.5,198.5 33.5,199.8 34.7,200.8 36,201.7 37.5,202.4 
	44.3,202.4 46.4,208.8 44.9,210.1 45,212.2 47.9,215.2 46.8,217.1 47.7,219.1 49.9,219.6 60,249.5 58.5,251.4 59,253.6 60.9,254.5 
	69.6,278.3 68.1,279.7 68.4,282 71.1,284.8 70,286.8 70.8,288.6 73.1,289.2 83.2,319 81.7,321.2 82.2,323.2 84.3,324 92.8,347.9 
	91.2,349.5 91.7,351.7 94.3,354.3 93.2,356.2 94,358.2 96.3,358.7 104.1,381.7 105.2,383 106.4,384.1 107.8,385.1 109.3,386 
	109.4,388 111.3,389.2 114.5,387.3 116.6,387.3 119,386.9 121.2,386.1 123.2,384.9 126,386.1 128.6,383.1 129,380.9 130,371.9 
	133.6,368.3 134,366 132.4,364.4 137.1,350.4 139.2,350.2 140.3,348.1 138.7,345.6 148.7,315.7 150.8,315.4 151.9,313.4 
	150.3,310.8 153.1,302.3 156.8,298.7 157.2,296.5 155.6,294.8 160.3,280.9 162.4,280.6 163.5,278.6 161.9,276 171.9,246.1 
	174,245.8 175.1,243.8 173.5,241.2 176.3,232.7 179.9,229.1 180.4,226.9 179,225.3 183.5,211.3 185.6,211.1 186.7,209 185.1,206.5 
	186.5,202.4 193.3,202.4 194.7,201.7 196,200.8 197.2,199.8 198.2,198.5 199,197.2 199.6,195.7 200,194.1 200.1,171.2 "/>
<polygon fill="#D8C2A7" points="138.6,258.8 129.6,250.3 124.9,245.3 123.2,243.9 121,241.6 119.2,243.3 117.4,244.8 114.5,247.7 
	113.4,249 105.1,257 103.5,258.9 100.7,261.6 108,268.8 109,270 118.6,279.6 120.3,281.1 118.9,279 102.2,262.2 103,260.3 
	104.5,258.6 106.3,257 112.015,251.195 112,251.2 112.02,251.189 112.1,251.1 112.064,251.166 120.1,243.1 122.4,243.7 124.1,245.5 
	126,247 127.7,249 129.2,250.5 130.6,251.4 132.1,253.2 133.7,254.7 135.4,256 136.8,258.2 138.4,259.3 139.3,260.6 139.5,262.6 
	138.4,263.7 137.1,265.5 135.2,266.9 134.2,268.3 135.6,266.9 137.3,265.5 140.8,261.9 "/>
<polygon fill="#D8C2A7" points="115.9,236.8 114.4,234.8 111.6,232 110.3,230.9 103.9,224.5 102.3,222.7 100.4,221 97.7,218.2 
	90.5,225.6 89.3,226.6 79.7,236.1 78.2,237.8 80.3,236.5 94.6,222.1 96.1,220.4 97.9,219.2 101.4,222.9 103.2,224.6 104.9,226.5 
	108.1,229.6 108,229.6 109.1,230.7 110.9,232.3 116.2,237.6 115.6,239.9 113.7,241.6 113.14,242.36 108.8,246.7 107.9,248.1 
	106,249.6 104.6,251.2 103.3,252.9 101.1,254.3 99.9,256 98.7,256.9 96.7,257 95.6,255.9 93.7,254.6 92.4,252.7 91,251.8 
	97.3,258.4 100.5,256.1 108.9,247.2 114,242.4 115.3,240.8 117.7,238.5 "/>
<polygon fill="#D8C2A7" points="133.7,208 132.7,206.8 123.2,197.2 121.4,195.7 122.8,197.8 127.4,202.4 128.9,204.1 138,213.1 
	139.2,214 140.1,215.4 138.1,217.4 136.4,218.9 134.7,220.7 132.7,222.5 129.7,225.7 129.695,225.603 123.1,232.1 121.7,233.7 
	119.3,233.1 117.7,231.3 115.7,229.8 117,230.7 114.9,228.8 112.5,226.3 111.1,225.4 109.7,223.4 105.8,220.3 107.6,221.3 
	104,218.4 102.4,216.2 102.3,214.2 103.4,213.1 104.7,211.3 106.5,209.9 107.5,208.5 106.1,209.9 104.4,211.3 100.9,214.9 
	103.2,218 105.7,220.2 116.9,231.5 118.6,232.9 120.8,235.2 122.6,233.4 124.4,231.9 136.6,219.8 138.2,217.9 141.1,215.2 "/>
<polygon fill="#D8C2A7" points="92.8,213.6 91.3,211.7 88.4,208.8 87.1,207.7 79.1,199.5 77.2,197.8 74.5,195 56.5,212.9 55,214.6 
	57.1,213.3 71.5,198.9 72.9,197.2 75,196.5 76.7,198 78.2,199.7 85,206.4 84.9,206.4 85.9,207.6 87.7,209.1 93,214.4 92.4,216.8 
	90.6,218.4 89.1,220.3 87.1,222 85.6,223.5 84.7,225 82.6,226.4 79.6,230.3 80.6,228.5 77.7,232.1 75.5,233.7 74.5,234.9 
	72.4,232.7 70.6,231.4 69.2,229.6 67.8,228.6 69.2,230 70.6,231.7 74.2,235.2 77.3,232.9 79.5,230.4 90.8,219.2 92.1,217.6 
	94.5,215.3 "/>
<polygon fill="#D8C2A7" points="110.5,277.6 109.5,276.4 100,266.8 98.3,265.3 99.6,267.3 114,281.7 115.7,283.2 116.9,285 
	113.2,288.5 111.5,290.3 109.6,292 106.5,295.2 106.5,295.1 105.3,296.2 103.8,298 98.5,303.3 96.1,302.7 94.5,300.8 92.6,299.4 
	90.9,297.4 89.4,295.9 87.9,295 86.5,293.1 83.2,290.3 81.8,288.2 80.1,287 79.2,285.8 78,284.8 80.2,282.7 81.5,280.8 83.4,279.5 
	84.3,278.1 83,279.4 81.2,280.9 77.7,284.4 80,287.6 93.7,301.1 95.3,302.4 97.6,304.7 99.4,302.9 101.3,301.5 113.4,289.3 
	115,287.5 117.9,284.8 "/>
<polygon fill="#D8C2A7" points="138.3,309.9 133.7,314.5 132,316 126.9,321.5 125.7,322.4 123.9,324.2 122.1,326.3 120.7,327.2 
	118.7,325.2 117.2,323.4 115.4,321.8 113.6,319.8 110.4,316.8 110.5,316.8 104,310.2 102.4,308.8 102.9,306.4 104.8,304.8 
	106.3,302.8 105.4,304.1 107.3,302 109.8,299.6 110.7,298.2 104.6,304 103.3,305.6 100.9,307.9 102.6,309.6 104.1,311.5 107,314.3 
	108.3,315.4 109.7,316.9 111.5,318.6 116.3,323.7 118.2,325.3 120.9,328.2 138.9,310.2 140.4,308.5 "/>
<polygon fill="#D8C2A7" points="126.2,293.2 124.8,291.5 121.2,288 118.1,290.3 111.7,297 110.7,298.2 112.5,296.7 114,295.2 
	115.3,293.4 117.4,292 118.6,290.4 119.9,289.5 121.9,289.3 123,290.5 124.8,291.7 126.2,293.6 127.6,294.6 "/>
<polygon fill="#D8C2A7" points="161.5,240.3 152.6,249.1 151.5,250.4 147.1,254.7 145.3,256.7 143.6,257.1 141.9,255.6 133.6,247.2 
	133.7,247.2 132.6,246.1 130.8,244.5 129,242.5 125.6,239.2 126.1,236.9 128,235.2 129.4,233.3 131.4,231.6 132.9,230.1 
	133.8,228.7 135.9,227.3 139,223.3 138,225.1 139.6,223.3 141.4,221.9 143.1,219.9 145.1,219.8 146.7,221 148,222.2 149.4,224.1 
	150.8,225 149.4,223.7 148,221.9 144.4,218.4 143,219 136.1,226.1 134.9,227.5 132.8,229.7 127.8,234.4 126.5,236 124.1,238.3 
	125.8,240 127.3,241.9 130.2,244.8 131.5,245.9 144,258.6 145.7,257 163.6,239 "/>
<polygon fill="#D8C2A7" points="167.687,234.925 169.892,232.682 167.676,234.918 164.5,232.9 167.1,235.6 167.153,235.541 
	167.2,235.6 167.491,235.294 167.443,235.264 167.764,234.974 "/>
<polygon fill="#D8C2A7" points="168.024,234.742 168.748,233.985 168.016,234.749 167.764,234.974 167.785,234.989 167.491,235.294 
	167.5,235.3 167.785,234.989 167.8,235 169.3,233.6 "/>
<polygon fill="#D8C2A7" points="161.7,275.8 158,272.1 158.3,272.3 149.7,263.9 152.193,266.811 146.9,261.6 152.2,266.819 
	152.5,267.2 155.9,270.4 150.9,265.2 "/>
<polygon fill="#D8C2A7" points="181.9,203.6 179.4,201 175.4,196.5 170.9,192 179.5,183.6 180,181.3 178.4,179.4 176,179.6 
	167.2,188.2 158.7,179.7 156.7,179.2 154.8,180.5 154.4,182.5 162.3,191 161.1,194.3 162.73,192.685 144.1,211.3 139,206.2 
	141.3,208.4 131.4,198.5 134.9,202.1 124.8,192 133.2,183.6 133.8,181.5 132.6,179.6 130.5,179.2 121.1,187.9 112.5,179.8 
	110.5,179.2 108.5,180.4 108.1,182.6 117,192 103,206.2 104.127,204.968 97.7,211.3 87.201,200.894 93.3,207.1 78.4,192 
	79.242,191.164 79.2,191.2 80.574,189.829 80.372,190.039 86.9,183.5 86.995,182.953 87.2,182.7 87.143,182.212 87.183,182.014 
	87.133,182.103 87.058,181.274 87.248,181.675 87.3,181.3 87.023,180.892 87,180.7 86.716,180.455 86.49,180.136 86.608,180.367 
	85.75,179.674 85.854,179.698 85.716,179.647 85.52,179.492 85.156,179.437 85.154,179.437 85.152,179.437 84.205,179.312 
	84.503,179.188 84.3,179.1 84.045,179.299 84.027,179.3 84.042,179.302 83.844,179.46 84.173,179.325 84.901,179.482 
	83.502,179.736 81.794,181.128 76.338,186.563 79.7,183.1 74.6,188.1 80.444,182.258 74.5,188.1 66.4,180 68.9,182.4 66,179.6 
	63.9,179.1 62,180.4 61.754,181.606 61.7,181.4 61.752,181.616 61.6,182.5 62.115,183.116 62.2,183.5 62.301,183.599 62.187,183.2 
	64.02,185.359 70.5,192 65.457,197.033 69.1,193.5 59.6,202.9 61.4,201.2 51.3,211.3 49,209.1 46.8,208.4 44.9,209.6 46.8,208.3 
	44.8,209.6 44.4,211.7 46.966,214.703 46.707,213.919 45.3,212.5 45,210.2 46.5,208.9 48.5,209.3 51.3,212.1 71.5,192 62.7,183.2 
	62.4,181.2 64.4,179.8 74.5,189.1 77.1,186.5 75.4,188 81.1,182.4 78.868,184.656 83.4,180.1 85.5,179.8 86.7,181.6 77.5,192 
	83.1,197.7 80.8,195.2 84.8,199.2 83.8,198 97.7,212.1 117.7,192 109.2,183.4 108.7,181.2 110.4,179.7 114.3,182.5 120.9,189 
	122.3,187.4 129.7,180.2 131.9,179.9 133.1,181.7 123.8,192 142.9,211.1 144.1,212.1 164.2,192 155.5,183.3 155,181.3 156.7,179.7 
	167.2,189 176,180.3 178.2,179.9 179.5,181.7 177.5,184.7 178.8,183.4 170.3,192 "/>
<polygon fill="#D8C2A7" points="133.466,347.571 126.28,340.496 123.6,337.9 "/>
<polygon fill="#D8C2A7" points="161.774,280.478 153.911,274.217 151.9,272.2 153.768,274.103 153.4,273.8 144.1,264.4 141.7,266.8 
	143.9,264.7 129.416,279.101 131.3,277.2 123.7,284.8 144.1,305.1 153.5,295.6 153.599,295.591 153.163,296.012 153.5,295.7 
	155.8,295.4 154.978,295.399 155.8,295.3 156.567,296.706 156.465,297.777 146.9,308 151,312.1 151.3,314.1 149.4,315.3 
	144.1,310.7 123.7,331.1 139.4,346.7 139.8,349 137.7,350.2 133.6,346.8 134.038,347.243 120.9,334.1 108.8,346.1 110.7,344.3 
	100.7,354.3 120.9,374.4 130.2,365.1 128.8,366.6 130.4,365 132.5,364.7 133.8,366.7 129.5,372.1 124,377.5 125.8,379.3 128.1,380 
	128.8,382.1 126,385.7 120.9,380.6 113.1,388.4 111,388.9 109.5,387.1 117.8,377.5 98.8,358.3 100.661,360.066 98,357.5 95.8,358.4 
	93.9,357.5 93.878,355.631 93.4,356.9 93.743,355.038 93.691,354.947 93.1,356.6 93.741,358.052 95.676,358.89 95.538,358.943 
	96.1,359.1 97.9,358 117.4,377.5 116.3,378.7 116.074,378.421 109.6,385 109,387.1 109.691,388.269 110.5,389.3 112.9,389.1 
	117.3,384.8 115.5,386.7 120.9,381.3 126,386.5 128.8,383.3 129.3,381 127.8,379.2 124.6,377.5 130.7,371.3 129.7,372.6 
	133.6,368.4 134.13,366.582 134.3,367 133.3,369 133.3,369.1 134.4,367 134.185,366.432 134.2,366.4 134.151,366.34 133.6,364.8 
	132.735,364.548 132.7,364.5 132.589,364.508 131.101,364.116 132.553,364.511 130.4,364.7 128,367.1 129.9,364.6 123.5,371 
	125.3,369.4 120.9,373.8 117.7,370.4 114.9,368 109.5,362.5 108.5,361.3 102.017,354.801 104.2,357 101.5,354.3 120.9,334.5 
	132.4,345.8 120.9,334.9 117,338.9 120.9,335.1 118.5,337.6 120.9,335.2 126.28,340.496 136.395,350.294 138.4,350.8 140.3,349.4 
	140.4,347.3 140.4,347.1 127.9,334.2 129.2,335.7 124.1,331.1 129.671,325.824 127.3,328.5 136.1,319.7 134,321.7 141.4,314.4 
	144,311.4 148,315.2 150.4,315.6 151.8,313.9 151.4,311.9 147.5,308 156.8,298.8 157.4,296.8 156.1,294.9 154.983,294.907 
	153.3,295.3 144,304.8 123.9,284.8 125.1,283.7 125.243,283.86 138.743,270.29 136.9,272.1 144.1,264.7 155.9,276.7 
	152.868,273.558 158.202,278.718 157.7,278.4 159.4,280.2 161.4,280.8 160.708,280.362 "/>
<polygon fill="#D8C2A7" points="117.6,331.1 97.7,311.2 88.9,319.9 90.7,318.2 85.6,323.2 83.6,323.7 82,322 83.9,319 94.8,308 
	74.3,287.9 72.2,289 70.5,287.8 70.7,285.6 70.397,285.081 69.7,287.3 71,289.2 73.3,289.4 79.9,294.4 83.546,297.857 
	83.529,297.835 84.974,299.269 83.717,298.033 93.641,307.94 90.9,305.3 93.5,308 87.4,314 92.9,308.7 81.9,319.8 81.2,322 
	82.6,324.1 85,324.3 97.7,311.9 117.1,331.1 97.7,350.6 95.4,348.3 93.326,347.765 94.3,347.6 93.265,347.749 93.1,347.7 
	93.009,347.784 92.2,347.9 92.113,347.995 92.954,347.827 91.447,348.966 91.97,348.169 90.9,349.5 90.9,349.9 91.1,349.526 
	91.101,349.531 91.101,349.524 91.397,349.045 91.389,349.933 91.599,351.484 91.392,350.717 91.397,351.305 91.5,351.8 
	92.233,352.604 91.7,351.8 91.605,351.504 92.014,351.912 91.8,351.5 91.5,349.4 93,348.1 97.7,351.3 115.606,333.293 115.6,333.3 
	115.606,333.293 116.8,332.1 115.65,333.241 "/>
<polygon fill="#D8C2A7" points="91.7,258.6 74.5,241.4 62.2,253.8 60.2,254.1 58.8,252.5 69.4,240.5 71.5,238.4 51.2,218.3 
	49.1,219.4 47.2,218.1 47.4,216.107 47,217.1 47.396,216.082 47.205,215.438 46.5,217.5 47.4,219.4 49.4,220 54.398,222.606 
	60.1,228.2 58.1,226.2 65.595,233.49 64.7,232.7 69.4,237.2 65.8,233.9 70.4,238.4 58.5,250.4 58,252.6 59.4,254.5 61.7,254.8 
	74.5,242.5 84.6,252.7 83.4,251.3 93.7,261.6 86.6,268.6 91.189,263.906 74.5,280.8 72.5,278.7 70.3,277.8 68.3,278.9 67.7,281 
	69.337,283.154 68.7,282 68.4,279.8 70.3,278.4 74.5,281.7 94.7,261.6 "/>
<polygon fill="#D8C2A7" points="125.243,283.86 124.3,284.8 132.851,293.339 "/>
<polygon fill="#D8C2A7" points="106.7,367.2 116.074,378.421 117,377.5 "/>
</svg>
