<?xml version="1.0" encoding="utf-8"?>
<!-- Generator: Adobe Illustrator 17.0.0, SVG Export Plug-In . SVG Version: 6.00 Build 0)  -->
<!DOCTYPE svg PUBLIC "-//W3C//DTD SVG 1.1//EN" "http://www.w3.org/Graphics/SVG/1.1/DTD/svg11.dtd">
<svg version="1.1" id="solid" xmlns="http://www.w3.org/2000/svg" xmlns:xlink="http://www.w3.org/1999/xlink" x="0px" y="0px"
	 width="400px" height="320px" viewBox="0 0 400 320" enable-background="new 0 0 400 320" xml:space="preserve">
<polygon fill="#E12826" points="243.4,236.7 230.4,242.7 225.2,247.1 221.1,252.6 218.4,259.4 217.2,267.8 225.2,267.9 232.2,266.2 
	238.3,263 243.5,258.6 251.9,246.9 258.3,232.9 "/>
<polygon fill="#E12826" points="307.9,198.5 301.5,184.6 294.7,198.3 290.8,212.1 290.7,218.9 292.3,225.6 295.7,232.2 301.3,238.5 
	306.6,232.5 309.8,226.1 311.4,219.4 311.4,212.5 "/>
<polygon fill="#E12826" points="328.8,39.6 325.7,33.5 321.4,28.2 309.8,19.6 296,12.9 299.4,27.8 305.2,40.9 309.5,46.3 
	314.9,50.5 321.7,53.4 330.1,54.7 330.3,46.7 "/>
<polygon fill="#E12826" points="181.6,259.4 178.9,252.6 174.8,247.1 169.6,242.7 156.6,236.7 141.7,232.9 148.1,246.9 156.5,258.6 
	161.7,263 167.8,266.2 174.8,267.9 182.8,267.8 "/>
<polygon fill="#E12826" points="90.2,19.6 78.6,28.2 74.3,33.5 71.2,39.7 69.7,46.7 69.9,54.7 78.3,53.4 85.1,50.5 90.5,46.3 
	94.8,40.9 100.6,27.8 104,12.9 "/>
<polygon fill="#E12826" points="83.1,57 70.7,64.3 65.8,69.2 62.1,74.9 59.8,81.8 59.2,89.8 67.6,89.3 74.7,87.2 80.6,83.6 
	85.4,78.7 92.5,66.3 97.5,51.8 "/>
<polygon fill="#E12826" points="137.6,235.1 135.4,228.7 127.4,216.9 116.5,206 114.8,221.3 116,235.6 118.2,242.1 121.8,248 
	126.9,253 133.9,257.1 137.2,249.3 138.3,242 "/>
<polygon fill="#E12826" points="109.2,212.1 105.3,198.3 98.5,184.6 92.1,198.5 88.6,212.5 88.6,219.4 90.2,226.1 93.4,232.5 
	98.7,238.5 104.3,232.2 107.7,225.6 109.3,218.9 "/>
<polygon fill="#E12826" points="370,116.4 359.6,126.2 356,132 353.9,138.5 353.5,145.9 355,154.3 362.6,151.8 368.8,147.9 
	373.5,143 377,137.1 381.3,123.3 382.9,108.1 "/>
<polygon fill="#E12826" points="351.4,121.1 349.4,114.5 345.9,108.6 335.9,98.2 323.4,89.4 324.3,104.8 327.9,118.6 331.3,124.5 
	336,129.6 342.2,133.5 350.3,136.2 351.8,128.3 "/>
<polygon fill="#E12826" points="372.9,153.9 359.6,159 354.1,163 349.6,168.3 346.4,174.9 344.6,183.2 352.7,183.8 359.8,182.6 
	366,179.8 371.6,175.8 380.7,164.6 388,151.2 "/>
<polygon fill="#E12826" points="332.5,187.2 326.5,174.1 317.6,161.7 313.5,176.4 312.2,190.7 313.4,197.4 316.2,203.7 320.7,209.5 
	327.4,214.7 331.5,207.7 333.5,200.8 333.8,194 "/>
<polygon fill="#E12826" points="344.9,155.1 342.9,148.5 335.4,136.1 325.1,124.8 322.7,139.9 323.1,154.2 325,160.7 328.5,166.7 
	333.7,171.9 340.9,176.4 344.2,169 345.4,161.9 "/>
<polygon fill="#E12826" points="355.3,49.7 351.5,35.8 344.8,22.1 338.3,35.9 334.7,49.8 334.8,56.6 336.5,63.3 340,69.8 345.8,76 
	350.9,69.8 354,63.3 355.4,56.6 "/>
<polygon fill="#E12826" points="340.2,81.8 337.9,74.9 334.2,69.2 329.3,64.3 316.9,57 302.5,51.8 307.5,66.3 314.6,78.7 
	319.4,83.6 325.3,87.2 332.4,89.3 340.8,89.8 "/>
<polygon fill="#E12826" points="370.5,78.1 366.7,63.3 357.5,75.5 351.2,88.4 349.8,95.1 350.1,101.9 352.3,109 356.7,116.3 
	363,111.3 367.3,105.6 370.1,99.3 371.3,92.5 "/>
<polygon fill="#E12826" points="74.9,124.8 64.6,136.1 57.1,148.5 55.1,155.1 54.6,161.9 55.8,169 59.1,176.4 66.3,171.9 
	71.5,166.7 75,160.7 76.9,154.2 77.3,139.9 "/>
<polygon fill="#E12826" points="283.5,206 272.6,216.9 264.6,228.7 262.4,235.1 261.7,242 262.8,249.3 266.1,257.1 273.1,253 
	278.2,248 281.8,242.1 284,235.6 285.2,221.3 "/>
<polygon fill="#E12826" points="289.2,267.8 276.1,262.1 269.4,261 262.5,261.6 255.5,264.1 248.5,268.8 253.8,274.8 259.6,279 
	266,281.4 272.8,282.4 287.2,280.9 301.8,276.5 "/>
<polygon fill="#E12826" points="253,282.3 240.4,275.5 233.8,273.9 226.9,273.9 219.7,275.8 212.3,279.9 217,286.4 222.6,291 
	228.7,293.9 235.4,295.5 249.9,295.2 264.8,292 "/>
<polygon fill="#E12826" points="205.9,270.9 202.7,268.3 200,267.8 196,269 193.4,272.2 193,276.3 195,280 198.6,281.9 202.7,281.5 
	205.9,278.9 207.1,274.9 "/>
<polygon fill="#E12826" points="180.3,275.8 173.1,273.9 166.2,273.9 159.6,275.5 147,282.3 135.2,292 150.1,295.2 164.6,295.5 
	171.3,293.9 177.4,291 183,286.4 187.7,279.9 "/>
<polygon fill="#E12826" points="144.5,264.1 137.5,261.6 130.6,261 123.9,262.1 110.8,267.8 98.1,276.5 112.8,280.9 127.2,282.4 
	134,281.4 140.4,279 146.2,274.8 151.5,268.8 "/>
<polygon fill="#E12826" points="366.3,185.9 352.4,189.4 346.5,192.7 341.4,197.4 337.4,203.6 334.7,211.6 342.6,213.2 349.8,212.8 
	356.4,210.8 362.3,207.4 372.8,197.5 381.6,185 "/>
<polygon fill="#E12826" points="346.8,217.2 332.5,218 326.1,220.1 320.2,223.8 315.1,229.1 310.9,236.5 318.4,239.5 325.5,240.5 
	332.3,239.8 338.8,237.6 351,229.8 362,219.2 "/>
<polygon fill="#E12826" points="320.4,244.5 306.2,242.6 299.5,243.4 293.1,245.9 287,250.2 281.5,256.6 288.3,261 295.1,263.4 
	301.9,263.9 308.7,263 322.1,257.6 335,249.3 "/>
<polygon fill="#E12826" points="53.6,174.9 50.4,168.3 45.9,163 40.4,159 27.1,153.9 12,151.2 19.3,164.6 28.4,175.8 34,179.8 
	40.2,182.6 47.3,183.8 55.4,183.2 "/>
<polygon fill="#E12826" points="46.1,138.5 44,132 40.4,126.2 30,116.4 17.1,108.1 18.7,123.3 23,137.1 26.5,143 31.2,147.9 
	37.3,151.8 45,154.3 46.5,145.9 "/>
<polygon fill="#E12826" points="48.8,88.4 42.5,75.5 33.3,63.3 29.5,78.1 28.7,92.5 29.9,99.3 32.7,105.6 37,111.3 43.3,116.3 
	47.7,109 49.9,101.9 50.2,95.1 "/>
<polygon fill="#E12826" points="113,250.2 106.9,245.9 100.5,243.4 93.8,242.6 79.6,244.5 65,249.3 77.9,257.6 91.3,263 98.1,263.9 
	104.9,263.4 111.7,261 118.5,256.6 "/>
<polygon fill="#E12826" points="86.5,176.4 82.4,161.7 73.5,174.1 67.5,187.2 66.2,194 66.5,200.8 68.5,207.7 72.6,214.7 
	79.3,209.5 83.8,203.7 86.6,197.4 87.8,190.7 "/>
<polygon fill="#E12826" points="61.7,35.9 55.2,22.1 48.5,35.8 44.7,49.7 44.6,56.6 46,63.3 49.1,69.8 54.2,76 60,69.7 63.6,63.3 
	65.2,56.6 65.3,49.8 "/>
<polygon fill="#E12826" points="64.1,98.2 54.1,108.6 50.6,114.6 48.6,121.1 48.2,128.3 49.7,136.2 57.8,133.5 64,129.6 68.7,124.5 
	72.1,118.6 75.7,104.8 76.6,89.4 "/>
<polygon fill="#E12826" points="84.9,229.1 79.8,223.8 73.9,220.1 67.5,218 53.2,217.2 38,219.2 49.1,229.8 61.2,237.6 67.7,239.8 
	74.5,240.5 81.6,239.5 89.1,236.5 "/>
<polygon fill="#E12826" points="62.6,203.6 58.6,197.4 53.5,192.7 47.6,189.4 33.7,185.9 18.4,185 27.2,197.5 37.7,207.4 
	43.6,210.8 50.2,212.8 57.4,213.2 65.3,211.6 "/>
</svg>
