<?xml version="1.0" encoding="utf-8"?>
<!-- Generator: Adobe Illustrator 17.0.0, SVG Export Plug-In . SVG Version: 6.00 Build 0)  -->
<!DOCTYPE svg PUBLIC "-//W3C//DTD SVG 1.1//EN" "http://www.w3.org/Graphics/SVG/1.1/DTD/svg11.dtd">
<svg version="1.1" id="solid" xmlns="http://www.w3.org/2000/svg" xmlns:xlink="http://www.w3.org/1999/xlink" x="0px" y="0px"
	 width="400px" height="400px" viewBox="0 0 400 400" enable-background="new 0 0 400 400" xml:space="preserve">
<polygon fill="#4FA9DB" points="387.6,15.2 386.3,13.5 383.8,12.6 381.4,13.2 380,14.8 379.6,17.4 372.4,26.1 268.6,75.5 
	257.2,86.5 272.1,100.2 275.9,96 279.3,93.8 283,92.3 289,91.4 292.9,91.9 296.6,93 300,94.9 303.1,97.4 305.7,100.5 307.5,104.1 
	308.6,107.8 309,111.7 308.6,115.6 307.5,119.3 305.7,122.8 303.1,126 301.6,127.2 316.4,140.7 325,131.8 374.3,28 381.8,20.4 
	384.4,20.8 386.6,19.7 387.8,17.5 "/>
<polygon fill="#4FA9DB" points="42.6,257 25.3,265.6 33.9,248.4 29.4,244.1 12,278.9 47,261.4 "/>
<polygon fill="#4FA9DB" points="153.2,366.1 134.9,375.2 144,357 139.6,352.7 121.6,388.5 157.6,370.5 "/>
<polygon fill="#4FA9DB" points="224.7,235.6 316.4,140.7 301.6,127.2 299.9,128.6 296.4,130.5 292.6,131.6 288.7,132 284.9,131.6 
	281.1,130.5 277.6,128.6 274.4,126 271.8,122.8 270,119.3 268.8,115.6 268.5,111.7 268.8,107.8 270,104.1 271.8,100.5 272.1,100.2 
	257.2,86.5 164.8,175.7 123.2,187.9 137.2,153.7 97.8,170.7 40.9,221.6 38.4,219 31.8,225.6 36.4,230.2 29.4,244.1 33.9,248.4 
	40.8,234.5 56.4,250.1 42.6,257 47,261.4 60.7,254.5 65.3,259.1 71.9,252.5 69.3,250 75.6,243.6 101.6,248.9 105.4,250.7 108.3,253 
	110.3,255.6 111.7,258.5 112.7,265 110,286.1 111.1,289.3 114.3,290.4 138.8,288 141.9,288.8 144.8,290.1 147.5,292.2 149.7,295 
	151.5,298.8 156.9,324.8 150.5,331.1 148,328.6 141.4,335.2 146,339.8 139.6,352.7 144,357 150.4,344.2 166,359.7 153.2,366.1 
	157.6,370.5 170.3,364.1 174.9,368.7 181.5,362.1 178.8,359.5 229.6,302.5 246.7,263.2 212.6,277 "/>
</svg>
