<?xml version="1.0" encoding="utf-8"?>
<!-- Generator: Adobe Illustrator 17.0.0, SVG Export Plug-In . SVG Version: 6.00 Build 0)  -->
<!DOCTYPE svg PUBLIC "-//W3C//DTD SVG 1.1//EN" "http://www.w3.org/Graphics/SVG/1.1/DTD/svg11.dtd">
<svg version="1.1" id="solid" xmlns="http://www.w3.org/2000/svg" xmlns:xlink="http://www.w3.org/1999/xlink" x="0px" y="0px"
	 width="400px" height="400px" viewBox="0 0 400 400" enable-background="new 0 0 400 400" xml:space="preserve">
<polygon fill="#A48063" points="386,112.2 385.5,102.3 384,92.8 381.6,83.5 378.4,74.7 369.5,58.3 357.7,44 350.8,37.8 335.5,27.4 
	327,23.3 318.2,20.1 308.9,17.7 299.4,16.3 102.6,16.3 93.1,17.7 83.8,20.1 75,23.3 66.6,27.4 58.6,32.3 51.2,37.8 44.3,44 
	32.5,58.3 23.6,74.7 20.4,83.5 18,92.8 16.5,102.3 16.2,294.3 17.2,304 19.1,313.5 22,322.6 25.7,331.3 30.3,339.6 41.5,354.5 
	45.094,358.031 57.844,345.281 52.5,339.5 47.9,333.4 43.9,327 40.5,320.1 35.9,305.2 34.7,297.4 34.3,155.1 129.8,155.1 
	126.7,160.2 121.8,170.9 118.4,182.4 116.6,194.5 116.3,200.7 116.8,209.5 118.1,217.9 120.2,226.1 126.8,241.4 131.1,248.4 
	136.1,255 141.875,261.156 154.688,248.375 150.1,243.5 146.2,238.3 142.8,232.8 139.9,226.9 137.6,220.8 134.9,207.6 134.6,200.7 
	134.9,193.9 135.9,187.3 139.8,174.8 142.6,169 145.9,163.5 149.7,158.4 154,153.7 158.7,149.4 163.8,145.6 169.3,142.3 
	175.1,139.5 187.6,135.6 194.2,134.6 204.5,134.4 211.3,135.1 217.8,136.4 224.2,138.4 230.2,141 235.9,144.1 241.2,147.8 
	248.719,154.375 274,131.188 267.8,123.9 265,118.2 264,115.2 263,108.8 263.2,103.8 264.4,97.6 265.5,94.7 268.5,89.2 272.3,84.5 
	277.1,80.6 279.7,79 285.4,76.6 291.6,75.3 298.2,75.3 304.4,76.6 310.1,79 315.2,82.4 317.5,84.5 321.4,89.2 323,91.9 325.4,97.6 
	326.7,103.8 326.7,110.3 325.4,116.6 323,122.3 319.5,127.4 315.2,131.7 312.8,133.5 307.3,136.5 304.4,137.6 298.2,138.8 
	293.3,139 287.2,138.1 282.9,136.7 278.9,134.7 274.1,131.3 248.8,154.5 252.9,159.2 256.6,164.3 259.8,169.7 264.6,181.4 
	267.1,194.1 267.4,200.7 267.1,207.5 266.1,214.2 264.5,220.5 262.2,226.6 259.4,232.4 256.1,237.9 252.3,243 248,247.7 243.3,252 
	232.7,259.2 220.8,264.2 214.4,265.8 207.8,266.8 201,267.2 187.9,265.9 181.6,264.3 175.7,262.2 169.9,259.5 164.5,256.3 
	154.8,248.5 142,261.3 144.9,264.1 157.8,273.5 165,277.3 172.4,280.4 180.3,282.8 196.7,285.3 209.7,284.9 218,283.7 226.2,281.6 
	233.9,278.7 241.3,275.1 248.3,270.9 260.8,260.6 266.3,254.5 271.2,248 275.4,241 279,233.6 281.8,225.9 283.9,217.8 285.2,209.4 
	285.7,200.7 284.8,188.4 282.1,176.6 277.9,165.5 272.3,155.1 367.7,155.1 367.3,297.3 366.1,305.1 364.2,312.6 361.6,319.8 
	358.3,326.6 354.4,333 349.9,339.1 344.9,344.6 333.3,354.1 326.9,358 320.1,361.3 305.4,365.9 297.6,367 100.7,366.6 93.2,365.1 
	86,362.9 72.5,356.6 60.7,347.9 58,345.4 45.2,358.2 52,364.3 59.3,369.7 67.2,374.4 75.5,378.3 84.3,381.5 93.4,383.8 102.8,385.2 
	299.4,385.2 308.9,383.7 318.2,381.3 327,378.1 335.5,374 343.4,369.2 357.7,357.4 369.5,343.1 374.3,335.2 378.4,326.7 
	381.6,317.9 384,308.7 385.5,299.1 386,112.2 386,112.2 "/>
</svg>
