<?xml version="1.0" encoding="utf-8"?>
<!-- Generator: Adobe Illustrator 17.0.0, SVG Export Plug-In . SVG Version: 6.00 Build 0)  -->
<!DOCTYPE svg PUBLIC "-//W3C//DTD SVG 1.1//EN" "http://www.w3.org/Graphics/SVG/1.1/DTD/svg11.dtd">
<svg version="1.1" id="solid" xmlns="http://www.w3.org/2000/svg" xmlns:xlink="http://www.w3.org/1999/xlink" x="0px" y="0px"
	 width="400px" height="300px" viewBox="0 0 400 300" enable-background="new 0 0 400 300" xml:space="preserve">
<polygon fill="#4FA9DB" points="97.5,224.4 88.4,242.2 89.4,224.4 82.6,224.4 82.6,250 83.7,253.4 86.2,255.4 89.5,255.8 
	92.6,254.1 122.2,224.4 "/>
<polygon fill="#4FA9DB" points="392.7,26.1 389.6,23.9 387.9,23.7 10.9,97.3 7.9,98.9 6.3,101.6 6.4,104.8 8.3,107.6 82.6,167.6 
	82.6,224.4 89.4,224.4 92.7,168.4 388,29.5 116,188 97.5,224.4 122.2,224.4 136,210.7 215.7,275 219,276.3 222.3,275.5 392.8,32.8 
	393.8,29.7 "/>
</svg>
