<?xml version="1.0" encoding="utf-8"?>
<!-- Generator: Adobe Illustrator 17.0.0, SVG Export Plug-In . SVG Version: 6.00 Build 0)  -->
<!DOCTYPE svg PUBLIC "-//W3C//DTD SVG 1.1//EN" "http://www.w3.org/Graphics/SVG/1.1/DTD/svg11.dtd">
<svg version="1.1" id="solid" xmlns="http://www.w3.org/2000/svg" xmlns:xlink="http://www.w3.org/1999/xlink" x="0px" y="0px"
	 width="400px" height="400px" viewBox="0 0 400 400" enable-background="new 0 0 400 400" xml:space="preserve">
<polygon fill="#471515" points="358.9,61.7 355.8,51.8 350.9,42.7 344.4,34.8 336.6,28.3 327.5,23.4 317.5,20.3 306.8,19.2 
	296.1,20.3 286.1,23.4 277,28.3 269.2,34.8 262.7,42.7 257.8,51.8 254.7,61.7 253.6,72.5 254,78.7 256.2,88.7 133.7,159.4 
	125.4,152 115.9,146.5 105.4,143.1 94.3,141.9 83.6,143 73.6,146.1 64.6,151 56.7,157.5 50.2,165.4 45.3,174.4 42.2,184.4 
	41.1,195.1 42.2,205.9 45.3,215.9 50.2,224.9 56.7,232.8 64.6,239.3 73.6,244.2 83.6,247.3 94.3,248.4 106.4,246.9 114.1,244.5 
	124.8,238.7 250.5,311.3 248.6,319.3 248,327.5 249.1,338.3 252.2,348.3 257.1,357.3 263.6,365.2 271.4,371.7 280.5,376.6 
	290.5,379.7 301.2,380.8 311.9,379.7 321.9,376.6 331,371.7 338.8,365.2 345.3,357.3 350.2,348.3 353.3,338.3 354.4,327.5 
	353.3,316.8 350.2,306.8 345.3,297.8 338.8,289.9 331,283.4 321.9,278.5 311.9,275.4 301.2,274.3 295.6,274.6 284.8,276.9 
	274.7,281.4 265.8,287.9 261.8,291.8 140.4,221.7 143.5,215.5 145.7,208.9 147.1,202.1 147.4,191 144.9,178.9 267.4,108.2 
	275.7,115.6 285.3,121.1 295.7,124.5 306.8,125.7 317.5,124.6 327.5,121.5 336.6,116.6 344.4,110.1 350.9,102.2 355.8,93.2 
	358.9,83.2 360,72.5 "/>
</svg>
