<?xml version="1.0" encoding="utf-8"?>
<!-- Generator: Adobe Illustrator 17.0.0, SVG Export Plug-In . SVG Version: 6.00 Build 0)  -->
<!DOCTYPE svg PUBLIC "-//W3C//DTD SVG 1.1//EN" "http://www.w3.org/Graphics/SVG/1.1/DTD/svg11.dtd">
<svg version="1.1" id="Layer_1" xmlns="http://www.w3.org/2000/svg" xmlns:xlink="http://www.w3.org/1999/xlink" x="0px" y="0px"
	 width="400px" height="400px" viewBox="0 0 400 400" enable-background="new 0 0 400 400" xml:space="preserve">
<polygon fill="#FFFFFF" points="378.3,151 377.7,148.9 376.7,147 375.3,145.4 373.7,144 372.7,143.4 371.7,142.9 370.7,142.5 
	364.4,141.1 356.9,140.5 348.8,141.1 344.6,142 340.3,143.3 336.1,145.1 332,147.4 328,150.3 324.2,153.8 320.6,158 317.3,162.8 
	314.4,168.4 295.8,219.8 281.5,248.9 272.9,260.9 268.2,265.9 263.3,270 258.1,273.1 252.6,275 244.2,275.9 242.2,276.5 
	240.3,277.5 237.9,279.6 236.7,281.4 235.9,283.4 235.6,284.4 235.4,285.5 235.4,287.8 235.8,289.9 236.6,291.9 237.8,293.7 
	238.5,294.5 239.3,295.3 240.1,295.9 241,296.5 242,297 244.1,297.6 245.2,297.8 247,297.9 255.5,297.1 263.5,295 271,291.5 
	277.9,286.9 284.4,281.2 290.4,274.7 295.9,267.5 305.7,251.3 334.5,177.9 336.4,174.4 338.4,171.4 340.6,169 342.9,167.1 
	345.3,165.5 347.7,164.4 350.1,163.6 352.4,163.1 356.8,162.7 360.5,163 366.3,164.2 368.5,164.2 370.6,163.8 371.6,163.4 
	373.4,162.4 374.3,161.8 375.1,161.1 375.8,160.3 376.5,159.4 377.1,158.5 377.6,157.5 378,156.4 378.4,154.2 378.5,153.1 "/>
<polygon fill="#75C0CC" points="379,151.4 378.7,150 378.2,148.6 377.6,147.3 376.8,146.1 375.9,145 374.8,144 372.7,142.6 
	370.9,141.9 368,141.2 361.6,140.2 356.1,140 350.6,140.4 345.2,141.4 340,143.1 335,145.3 330.4,148.1 324.2,153.4 320.7,157.4 
	317.6,161.8 313.5,169.4 282.6,245.1 274.7,257.3 269.7,263.3 269.699,263.301 270.064,264.959 272.2,262.9 277.3,256.7 
	286.5,242.2 294.3,225.7 314.5,169.1 316.9,164.5 319.7,160 322.9,155.8 326.6,152 330.8,148.7 335.4,146 340.2,143.8 345.4,142.2 
	350.7,141.4 356.1,141 361.5,141.3 366.8,142.1 370.6,143.2 372.5,144 374,145.1 375.5,146.7 376.4,148 376.9,149.2 377.3,150.4 
	377.6,151.6 377.7,152.9 377.7,154.1 377.1,156.5 376,158.6 375.2,159.8 373.8,161.1 372.2,162.1 370.5,162.8 368.1,163.3 
	366.5,163.3 361,162.1 356.8,161.7 354.1,161.8 351.3,162.3 348.6,163 346,164 343.6,165.4 341.4,167 339.3,168.8 337.5,170.9 
	335.9,173.1 333.3,177.8 316.7,224.5 301.9,256.3 293.6,269.4 284.6,280.2 275.4,288.3 275.226,288.41 275.375,289.086 275.7,288.9 
	280.5,285.2 285.4,280.9 294.7,270.3 303.5,257.2 318.8,225.4 335.4,178.7 336.5,176.4 339.2,172.2 340.9,170.3 342.7,168.6 
	344.8,167.1 346.9,165.9 349.3,164.9 354.2,163.8 356.8,163.7 360.7,164 366.3,165.1 368.2,165.1 369.6,164.9 371,164.5 373,163.6 
	375.1,162.2 376.4,160.9 377.7,159 378.5,157.1 378.9,155.7 379.2,154.3 379.2,152.8 "/>
<polygon fill="#FFFFFF" points="111.3,49.3 86.6,35.5 72,30.1 56.5,26.6 51.5,34.7 47,44.6 42.7,57.9 39.8,74.5 39.4,94.1 
	42.8,116.3 51,141.1 134.4,67.5 "/>
<polygon fill="#75C0CC" points="112.9,49.7 93.8,38.1 73.1,29.4 56,25.4 51.6,32.4 48.1,39.1 42.9,53.2 39.7,67.9 38.3,82.9 
	38.6,94.2 42.2,116.4 51,141.1 44.3,119.8 40.6,97.8 40.7,75.6 43.1,61 47.3,46.8 56.4,27.6 67.2,29.8 77.7,33.1 88,37.2 
	107.6,47.7 134.4,67.5 "/>
<polygon fill="#75C0CC" points="87.2,66.4 84.8,59.6 80.9,52.2 75.8,45.5 73.1,42.8 70.4,40.6 66.1,37.8 64.3,37 69.6,41.6 
	74.3,46.8 79,53.4 83,60.4 88.7,73.4 "/>
<polygon fill="#FFFFFF" points="280.9,275.4 264.2,206.2 262.9,188.3 261.8,156.5 258.3,128.3 251.8,103.7 247.2,92.8 241.7,83 
	235.2,74.2 227.6,66.5 218.8,59.9 208.9,54.4 197.6,50.1 185.1,47 171.1,45.1 155.6,44.4 140.1,45.3 126.1,47.7 113.4,51.7 
	102,57.1 91.9,63.9 82.9,71.9 75,81.2 68.2,91.6 62.3,103 57.3,115.4 49.7,142.8 44.9,173 41.3,258.6 44.9,298.4 48.3,314 
	52.8,326.9 58.5,337.5 65.3,346 73.2,352.6 82.2,357.5 92.3,361.1 103.5,363.5 236.8,364.3 251.4,360.6 257.8,358 263.5,354.7 
	268.5,350.7 272.6,345.9 276,340.4 278.4,333.9 281,323.3 282.6,313.1 283.1,293.7 "/>
<polygon fill="#F4D8D1" points="131.5,136.9 130.2,136.9 127.8,137.2 125.6,137.9 124.422,138.461 123.3,137.9 119.7,137 118.6,137 
	119.6,138.8 120.7,140.3 121.9,141.6 124.1,143.4 127.5,141.9 129.4,140.6 131.2,139 132.1,138.1 132.8,137 "/>
<polygon fill="#F4D8D1" points="136.03,147.501 132.771,147.305 131.464,147.128 129.243,146.363 128.396,145.896 126.946,144.833 
	126.137,143.857 125.137,142.057 124.682,141.8 124.246,142.09 123.684,143.31 122.693,144.3 121.415,145.036 119.975,145.616 
	117.361,146.301 116.062,146.401 115.6,146.905 116.072,147.399 136,148.5 136.499,148.029 "/>
<polygon fill="#FFFFFF" points="127.857,146.737 126.305,145.604 126.213,145.517 125.313,144.417 124.743,143.399 124.554,143.81 
	124.454,143.954 123.354,145.054 123.248,145.134 121.848,145.934 120.076,146.619 128.492,147.084 "/>
<polygon fill="#C19A80" points="98,120.7 97.4,118.9 96.6,117.3 96,116.5 94.7,115.2 93.2,114.2 91.5,113.5 89.7,113.1 88.7,113.1 
	87.7,113.1 85.9,113.5 84.1,114.2 82.6,115.2 81.3,116.5 80.3,118 79.6,119.8 79.2,121.6 79.2,123.6 79.6,125.4 80.3,127.1 
	81.3,128.6 82.6,129.9 84.1,130.9 85.9,131.7 87.7,132 88.7,132.1 89.7,132 91.5,131.7 93.2,130.9 94.7,129.9 96,128.6 97,127.1 
	97.8,125.4 98.1,123.6 98.2,122.6 "/>
<polygon fill="#FFFFFF" points="96.1,119.6 95.5,118.6 94.6,118 93.4,117.8 92.3,118 91.4,118.6 90.8,119.6 90.6,120.7 90.8,121.8 
	91.4,122.7 92.3,123.3 93.4,123.6 94.6,123.3 95.5,122.7 96.1,121.8 96.3,120.7 "/>
<polygon fill="#FFFFFF" points="85.2,126.4 84.3,125.9 83.8,126 83.2,126.8 83.5,127.8 84.5,128.1 85.3,127.4 "/>
<polygon fill="#C19A80" points="176.7,119.8 176,118 175,116.5 173.7,115.2 172.1,114.2 170.4,113.5 168.6,113.1 167.6,113.1 
	166.6,113.1 164.8,113.5 163.1,114.2 161.6,115.2 160.3,116.5 159.2,118 158.5,119.8 158.1,121.6 158.1,123.6 158.5,125.4 
	159.2,127.1 160.3,128.6 161.6,129.9 163.1,130.9 164.8,131.7 166.6,132 167.6,132.1 168.6,132 170.4,131.7 172.1,130.9 
	173.7,129.9 175,128.6 176,127.1 176.7,125.4 177.1,123.6 177.1,121.6 "/>
<polygon fill="#FFFFFF" points="175,119.6 174.4,118.6 173.5,118 172.4,117.8 171.2,118 170.3,118.6 169.7,119.6 169.5,120.7 
	169.7,121.8 170.3,122.7 171.2,123.3 172.4,123.6 173.5,123.3 174.4,122.7 175,121.8 175.2,120.7 "/>
<polygon fill="#FFFFFF" points="164.1,126.4 163.2,125.9 162.8,126 162.1,126.8 162.4,127.8 163.4,128.1 164.2,127.4 "/>
<rect x="52.575" y="108.395" transform="matrix(0.1485 -0.9889 0.9889 0.1485 -93.9209 171.6191)" fill="#75C0CC" width="0.25" height="63.91"/>
<rect x="24.93" y="153.025" transform="matrix(0.9974 -0.0718 0.0718 0.9974 -10.8569 4.134)" fill="#75C0CC" width="54.34" height="0.25"/>
<rect x="30.288" y="162.725" transform="matrix(0.9597 -0.2812 0.2812 0.9597 -43.4569 22.8369)" fill="#75C0CC" width="55.124" height="0.25"/>
<rect x="214.574" y="111.375" transform="matrix(0.1365 -0.9906 0.9906 0.1365 35.6565 343.2071)" fill="#75C0CC" width="0.25" height="79.55"/>
<rect x="172.938" y="135.475" transform="matrix(0.99 -0.1412 0.1412 0.99 -17.1465 29.4685)" fill="#75C0CC" width="52.424" height="0.25"/>
<rect x="201.625" y="134.749" transform="matrix(0.3244 -0.9459 0.9459 0.3244 -19.7309 302.2736)" fill="#75C0CC" width="0.25" height="60.402"/>
<polygon fill="#75C0CC" points="64.3,368.1 64.3,366.8 64.5,365.6 65.1,363.8 65.6,362.8 67.5,360.1 67.4,360.2 65.7,361.5 
	64.9,362.3 64.2,363.4 63.7,364.3 63.2,366.4 63.2,367.8 63.4,369.2 64.5,371.5 65.7,372.9 64.6,370.1 "/>
<polygon fill="#75C0CC" points="260.8,147.3 258.928,135.385 262.098,176.667 262.207,176.667 "/>
<polygon fill="#75C0CC" points="283.1,288.2 263.5,199 262.404,180.629 263.3,199 282.2,288.3 282.7,303.1 281.2,318.7 277.5,334.5 
	276,338.4 274.1,342.2 271.8,345.7 269.1,348.9 265.9,351.8 262.4,354.4 254.6,358.5 246.1,361.3 227.9,364.6 106.1,363.3 90.4,360 
	80.4,356.1 75.6,353.5 71.2,350.5 67,347 63.3,343.1 59.9,338.8 57,334.2 52.2,324.3 48.6,313.8 46.1,303 42,264.2 45.5,175.2 
	53.2,132.2 59.8,111.8 68.8,92.7 77.6,79.8 84.4,72.1 91.9,65.3 100.2,59.6 113.5,52.9 122.8,49.8 132.2,47.6 146.5,45.9 
	165.2,45.8 187.5,48.6 204.1,53.4 211.7,56.9 218.8,61 225.3,65.7 231.1,71 236.3,76.7 244.5,88.9 250.4,101.6 257.5,126 
	258.928,135.385 258.2,125.8 251.4,101.2 245.6,88.3 237.4,75.8 232.3,69.9 226.4,64.4 219.8,59.5 212.6,55.2 204.8,51.6 
	196.6,48.7 179.1,44.9 160.6,43.4 141.5,44 122.2,47.5 112.6,50.7 99,57.5 90.5,63.5 82.7,70.5 75.8,78.4 66.9,91.6 62,101.1 
	54.3,121.3 45.1,164.1 40.7,253.1 44.4,297.6 49.6,319.3 53.7,329.6 59.2,339.3 62.6,343.7 66.4,347.7 70.5,351.3 75.1,354.4 
	79.9,357.1 90.1,361.1 106,364.6 228.1,366.5 246.6,363.1 255.3,360.1 263.4,355.8 267,353.1 270.2,350 273.1,346.6 275.4,342.9 
	277.3,339 278.8,335 282.4,318.8 283.7,303.1 "/>
<polygon fill="#FFFFFF" points="245.9,74.5 243,57.9 238.7,44.6 234.1,34.7 229.1,26.6 218.1,28.8 207.5,32.1 188,41 171.8,51 
	159.7,60.1 234.6,141.1 242.9,116.3 246.2,94.1 "/>
<polygon fill="#75C0CC" points="246.9,75.4 244.6,60.5 240.4,46.1 234,32.4 229.6,25.4 219.3,27.5 200.8,33.9 179.2,45.5 
	159.7,60.1 188.3,41.6 201.4,35.5 219.8,29.4 228.631,27.727 232.2,33.4 235.5,40 240.7,53.8 244,68.3 245.4,83 245.4,94.1 
	242.3,116.2 234.6,141.1 243.4,116.4 247.2,90.5 "/>
<polygon fill="#75C0CC" points="220.2,38 207,47.9 198.8,55.9 191.8,64.6 187.2,72.8 186,76.1 185.1,80 186.6,76.3 189.2,71.5 
	194.9,63.6 202.3,55.4 225.1,35 "/>
<polygon fill="#FFFFFF" points="123.2,59.2 122,54.2 121,51.6 119.6,49.2 117.9,47 115.7,45.2 113,43.9 109.8,43.4 106,43.6 
	101.6,44.8 96.4,47.1 90.6,50.6 98.4,51.4 103.2,52.5 108.3,54.4 110.8,55.7 113.2,57.2 115.4,59 117.3,61.1 119,63.6 120.3,66.3 
	123.6,64.5 "/>
<polygon fill="#75C0CC" points="123.5,59.9 123.1,56.8 122.4,53.8 121.3,50.9 119.7,48.2 118.8,46.9 117.7,45.7 116.4,44.7 
	115,43.8 113.5,43.2 112,42.7 110.3,42.4 107.1,42.4 104,43 100.9,43.9 95.3,46.4 87,51.6 97.1,52.2 103.4,53.6 107.6,55 
	111.5,56.9 115,59.4 116.6,60.9 118,62.5 120.3,66.3 119.5,64.2 118.5,62.2 117.2,60.4 115.7,58.6 114,57.1 112.2,55.7 108.2,53.5 
	104,51.8 99.6,50.6 95.1,49.8 94.168,49.738 97.6,47.7 103.1,45.4 105.9,44.7 108.7,44.3 111.6,44.5 114.3,45.4 115.5,46.1 
	116.6,46.9 117.7,47.9 119.5,50.2 120.8,52.8 121.9,55.6 122.7,58.5 123.6,64.5 "/>
<polygon fill="#FFFFFF" points="202.4,355.7 202.1,353.9 201.7,352.2 201,350.6 200.2,349.2 163,342.9 158.8,346.3 155.7,349.8 
	154.5,351.5 153.5,353.3 152.2,356.7 151.9,358.4 151.8,360 151.8,361.6 152,363.1 152.4,364.6 153,366.1 153.7,367.4 154.6,368.7 
	155.6,369.8 156.8,370.8 158.2,371.5 159.8,372.1 161.5,372.6 165.4,373.1 190.9,372.7 193.2,372.1 195.2,371.3 196.9,370.1 
	198.4,368.7 199.7,367.1 200.7,365.4 201.5,363.5 202,361.6 202.4,359.6 202.5,357.7 "/>
<polygon fill="#75C0CC" points="202.6,355.2 202.1,353 201.5,351.3 200.8,350.1 200.2,349.2 200.2,349.3 200.9,350.5 201.4,351.8 
	201.9,354.1 202.1,356.5 201.9,359.2 201.3,362.2 200.4,364.5 199.6,366 198.6,367.4 197.3,368.7 195.9,369.8 194.2,370.7 
	192.4,371.4 190.5,371.8 166,372.1 161.7,371.5 159.7,371 157,369.7 155.6,368.4 154.5,366.7 153.6,365 153,363.2 152.7,361.4 
	152.6,359.6 152.8,357.8 153.1,356.1 153.7,354.5 155.1,351.7 156.7,349.3 159.9,345.7 163,342.9 157.4,347.2 155.1,349.8 
	153.3,352.5 152.5,354 151.8,355.7 151.3,357.5 151,359.5 151,361.5 151.1,362.6 151.5,364.7 152.8,367.8 154.1,369.7 154.9,370.6 
	156.8,372 159,373 161.3,373.6 163.6,374 190.8,373.7 193,373.2 195,372.3 196.9,371.2 198.4,369.8 199.7,368.3 200.8,366.7 
	201.6,365 202.4,362.5 202.7,360.8 202.9,357.8 "/>
<polygon fill="#75C0CC" points="173.2,370.9 172.6,369.9 172.1,368.1 171.9,366.3 172,365.1 172.2,364 173.5,361 173.4,361 
	172.3,362.3 171.7,363.2 171.2,364.3 170.9,365.6 170.8,367 170.9,368 171.2,369.1 172.1,370.8 173.6,372.5 175.1,373.5 "/>
<polygon fill="#75C0CC" points="186.6,370.6 185.9,369.7 184.9,368.2 184.4,366.5 184.2,365.3 184.2,364.2 184.8,361 183.9,362.5 
	183.3,364.6 183.3,366.6 183.7,368 184.3,369.3 185.6,370.8 187.4,372.1 189.1,372.7 "/>
<polygon fill="#75C0CC" points="158.4,365.6 159,363.8 159.5,362.8 160.1,361.9 161.5,360.1 161.3,360.2 159.6,361.5 158.8,362.3 
	157.7,364.3 157.1,366.4 157.1,367.8 157.4,369.2 157.8,370.3 158.4,371.5 159.6,372.9 158.5,370.1 158.2,368.1 158.2,366.8 "/>
<polygon fill="#FFFFFF" points="108.5,355.7 108.2,353.9 107.7,352.2 107.1,350.6 106.3,349.2 69.1,342.9 64.9,346.3 61.8,349.8 
	60.6,351.5 59.6,353.3 58.8,355 58.3,356.7 57.8,360 57.9,361.6 58.1,363.1 58.5,364.6 59.1,366.1 59.8,367.4 60.7,368.7 
	61.7,369.8 62.9,370.8 64.3,371.5 65.8,372.1 67.6,372.6 71.5,373.1 97,372.7 99.3,372.1 101.3,371.3 103,370.1 104.5,368.7 
	105.7,367.1 106.7,365.4 107.5,363.5 108.1,361.6 108.6,357.7 "/>
<polygon fill="#75C0CC" points="108.7,355.2 108.2,353 107.6,351.3 106.9,350.1 106.3,349.2 106.3,349.3 106.9,350.5 107.4,351.8 
	108,354.1 108.2,356.5 108,359.2 107.3,362.2 106.5,364.5 105.7,366 104.6,367.4 103.4,368.7 102,369.8 100.3,370.7 98.5,371.4 
	96.6,371.8 72.1,372.1 67.8,371.5 65.8,371 63.1,369.7 61.7,368.4 60.5,366.7 59.7,365 59.1,363.2 58.7,361.4 58.7,359.6 
	58.8,357.8 59.2,356.1 59.8,354.5 61.2,351.7 62.8,349.3 66,345.7 69.1,342.9 63.5,347.2 61.1,349.8 59.3,352.5 57.9,355.7 
	57.4,357.5 57.1,359.5 57,361.5 57.6,364.7 57.9,365.7 58.9,367.8 60.1,369.7 60.9,370.6 62.9,372 65,373 67.3,373.6 69.6,374 
	96.9,373.7 99,373.2 101.1,372.3 102.9,371.2 104.5,369.8 105.8,368.3 106.9,366.7 107.7,365 108.5,362.5 108.8,360.8 109,357.8 "/>
<polygon fill="#75C0CC" points="79.2,370.9 78.7,369.9 78.1,368.1 78,366.3 78.1,365.1 78.3,364 78.6,363 79.5,361 78.4,362.3 
	77.8,363.2 77.3,364.3 77,365.6 76.9,367 77,368 77.3,369.1 78.2,370.8 79.7,372.5 81.2,373.5 "/>
<polygon fill="#75C0CC" points="92.7,370.6 92,369.7 91,368.2 90.5,366.5 90.3,365.3 90.3,364.2 90.4,363.1 90.9,361 90,362.5 
	89.4,364.6 89.4,366.6 89.8,368 90.4,369.3 91.7,370.8 92.6,371.5 93.5,372.1 95.2,372.7 "/>
</svg>
