<?xml version="1.0" encoding="utf-8"?>
<!-- Generator: Adobe Illustrator 17.0.0, SVG Export Plug-In . SVG Version: 6.00 Build 0)  -->
<!DOCTYPE svg PUBLIC "-//W3C//DTD SVG 1.1//EN" "http://www.w3.org/Graphics/SVG/1.1/DTD/svg11.dtd">
<svg version="1.1" id="Layer_1" xmlns="http://www.w3.org/2000/svg" xmlns:xlink="http://www.w3.org/1999/xlink" x="0px" y="0px"
	 width="400px" height="400px" viewBox="0 0 400 400" enable-background="new 0 0 400 400" xml:space="preserve">
<polygon fill="#0097D1" points="50.8,66.4 6.3,131.5 141.8,113.5 "/>
<polygon fill="#00A3DE" points="50.8,66.4 102.6,186 282.1,186 "/>
<polygon fill="#00A3DE" points="282.1,186 102.6,186 393.9,368.6 "/>
<polygon fill="#00A3DE" points="186.9,30.4 282.1,186 282.5,186 378.3,30.4 "/>
<polygon fill="#0097D1" points="186.9,30.4 102.6,186 282.1,186 "/>
<polygon fill="#00A3DE" points="282.1,186 263.9,319.3 393.9,368.6 "/>
<polygon fill="#0085BE" points="263.5,287.1 267.5,289.6 282.1,186 "/>
<polygon fill="#00A7E3" points="136.7,111.1 102.2,186 141.4,113.5 "/>
<polygon fill="#0069A4" points="50.4,66.4 69.5,123 73.6,122.5 "/>
<polygon fill="#028ABF" points="197.2,30.4 186.4,30.4 282.1,186 "/>
</svg>
