<?xml version="1.0" encoding="utf-8"?>
<!-- Generator: Adobe Illustrator 17.0.0, SVG Export Plug-In . SVG Version: 6.00 Build 0)  -->
<!DOCTYPE svg PUBLIC "-//W3C//DTD SVG 1.1//EN" "http://www.w3.org/Graphics/SVG/1.1/DTD/svg11.dtd">
<svg version="1.1" id="Layer_1" xmlns="http://www.w3.org/2000/svg" xmlns:xlink="http://www.w3.org/1999/xlink" x="0px" y="0px"
	 width="400px" height="400px" viewBox="0 0 400 400" enable-background="new 0 0 400 400" xml:space="preserve">
<polygon fill="#B0AFB0" points="357.6,253.7 355.9,251.2 335,230.4 331.5,228.9 328.7,38 202.7,38 202.7,15.9 176.8,15.9 176.8,38 
	50.8,38 50.8,371.4 202.6,371.4 199,384.7 192.9,390.9 194.5,394.1 202.3,387.9 240.1,377.8 246.5,371.4 328.7,371.4 328.7,289.2 
	356.9,260.8 358,258 "/>
<rect x="40.2" y="27.3" fill="#585DA3" width="277.8" height="333.4"/>
<rect x="57.9" y="48.6" fill="#FFFFFF" width="242.4" height="290.9"/>
<rect x="93.5" y="27.3" fill="#444C8C" width="171.3" height="35.8"/>
<polygon fill="#F0BD57" points="288.8,245.9 198.3,336.9 198.6,340.3 224.8,366.6 226,367.4 229.4,367.1 319.7,276.8 "/>
<polygon fill="#DECDC0" points="198.5,336.2 187.2,378.5 229.4,367.1 "/>
<polygon fill="#EF5543" points="346.3,241.7 323.9,219.4 319.7,218.2 315.6,219.4 288.8,245.9 319.7,276.8 346.9,248.8 347.4,244.5 
	"/>
<polygon fill="#6D6762" points="190.9,371.6 182.1,380.5 183.7,383.2 185.5,383.4 194.1,373.2 "/>
<polygon opacity="0.2" fill="#6D6762" points="345.9,241.4 344.8,240.1 335.2,230.5 183.1,382.6 191.6,377.3 229.4,367.1 
	345.9,250.5 347.1,247.5 347.1,244.3 "/>
<polygon fill="#585DA3" points="168.9,97.4 166.9,96.4 85.1,97 83.7,98.7 83.5,100.9 84.6,102.8 86.5,103.9 166.2,103.9 
	168.3,103.3 169.7,101.6 169.9,99.4 "/>
<polygon fill="#585DA3" points="256.4,139.1 254.5,138 86.2,138.6 84.9,140.3 84.6,142.5 85.7,144.4 87.6,145.5 253.7,145.6 
	255.9,144.9 257.3,143.2 257.5,141 "/>
<polygon fill="#585DA3" points="256.4,180.7 254.5,179.6 86.2,180.2 84.9,181.9 84.6,184.1 85.7,186.1 87.6,187.1 253.7,187.2 
	255.9,186.5 257.3,184.9 257.5,182.6 "/>
<polygon fill="#585DA3" points="256.4,222.3 254.5,221.3 86.2,221.8 84.9,223.5 84.6,225.8 85.7,227.7 87.6,228.7 253.7,228.8 
	255.9,228.2 257.3,226.5 257.5,224.2 "/>
<polygon fill="#585DA3" points="207.2,263.9 205.3,262.9 86.9,263.5 85.5,265.1 85.3,267.4 86.3,269.3 88.2,270.3 204.5,270.4 
	206.6,269.8 208,268.1 208.2,265.9 "/>
<polygon fill="#585DA3" points="166.2,5.2 166.2,42.5 178.6,42.5 178.6,26.5 174.6,25 172.1,21.8 171.7,17.4 173.7,13.5 177.6,11.5 
	180.6,11.5 183.4,12.6 186.1,16 186.6,20.4 184.7,24.1 181.1,26.3 179.6,42.5 192.1,42.5 192.1,5.2 "/>
</svg>
