<?xml version="1.0" encoding="utf-8"?>
<!-- Generator: Adobe Illustrator 17.0.0, SVG Export Plug-In . SVG Version: 6.00 Build 0)  -->
<!DOCTYPE svg PUBLIC "-//W3C//DTD SVG 1.1//EN" "http://www.w3.org/Graphics/SVG/1.1/DTD/svg11.dtd">
<svg version="1.1" id="solid" xmlns="http://www.w3.org/2000/svg" xmlns:xlink="http://www.w3.org/1999/xlink" x="0px" y="0px"
	 width="400px" height="400px" viewBox="0 0 400 400" enable-background="new 0 0 400 400" xml:space="preserve">
<polygon fill="#D3BA7D" points="98.9,113.6 104.6,111.2 107,105.4 104.6,99.7 98.9,97.3 93.1,99.7 90.7,105.4 93.1,111.2 "/>
<polygon fill="#D3BA7D" points="170,105.4 164.2,107.8 161.8,113.6 164.2,119.3 170,121.7 175.7,119.3 178.1,113.6 175.7,107.8 "/>
<polygon fill="#D3BA7D" points="262.5,97.3 260.1,91.6 254.4,89.2 248.6,91.6 246.2,97.3 248.6,103.1 254.4,105.4 260.1,103.1 "/>
<polygon fill="#D3BA7D" points="94.9,150.8 92.5,145 86.8,142.6 81,145 78.6,150.8 81,156.5 86.8,158.9 92.5,156.5 "/>
<polygon fill="#D3BA7D" points="156.7,179.7 162.4,177.3 164.8,171.6 162.4,165.8 156.7,163.4 150.9,165.8 148.5,171.6 150.9,177.3 
	"/>
<polygon fill="#D3BA7D" points="222.6,134.5 216.8,136.9 214.5,142.6 216.8,148.4 222.6,150.8 228.3,148.4 230.7,142.6 228.3,136.9 
	"/>
<polygon fill="#D3BA7D" points="110.5,183.7 104.8,186.1 102.4,191.9 104.8,197.6 110.5,200 116.3,197.6 118.7,191.9 116.3,186.1 
	"/>
<polygon fill="#D3BA7D" points="201.1,207.9 195.4,210.3 193,216 195.4,221.8 201.1,224.2 206.9,221.8 209.3,216 206.9,210.3 "/>
<polygon fill="#D3BA7D" points="258.3,188 252.6,190.3 250.2,196.1 252.6,201.8 258.3,204.2 264.1,201.8 266.5,196.1 264.1,190.3 
	"/>
<polygon fill="#D3BA7D" points="78.6,233.3 72.9,235.7 70.5,241.4 72.9,247.2 78.6,249.5 84.4,247.2 86.8,241.4 84.4,235.7 "/>
<polygon fill="#D3BA7D" points="170,245.8 164.2,248.2 161.8,253.9 164.2,259.7 170,262.1 175.7,259.7 178.1,253.9 175.7,248.2 "/>
<polygon fill="#D3BA7D" points="258.3,253.9 252.6,256.3 250.2,262.1 252.6,267.8 258.3,270.2 264.1,267.8 266.5,262.1 264.1,256.3 
	"/>
<polygon fill="#D3BA7D" points="98.9,290.7 93.1,293.1 90.7,298.9 93.1,304.6 98.9,307 104.6,304.6 107,298.9 104.6,293.1 "/>
<polygon fill="#D3BA7D" points="156.7,298.9 150.9,301.2 148.5,307 150.9,312.7 156.7,315.1 162.4,312.7 164.8,307 162.4,301.2 "/>
<polygon fill="#D3BA7D" points="219.7,293 214,295.4 211.6,301.1 214,306.9 219.7,309.2 225.5,306.9 227.9,301.1 225.5,295.4 "/>
<polygon fill="#D3BA7D" points="359.1,59.6 34.6,60.2 28.6,62.1 23.2,65 18.5,68.9 14.7,73.6 11.7,78.9 9.9,84.9 9.2,91.3 9.8,97.2 
	11.3,102.8 13.8,108 17,112.7 21,116.7 25.6,120 30.7,122.5 36.3,124.1 49,125.5 48.9,117.1 47.2,113.9 44,112.1 38.5,111.6 
	34.6,110.4 31.1,108.4 28,105.9 25.5,102.8 23.6,99.3 22.4,95.4 22,91.3 22.3,87.4 23.4,83.9 25.2,80.7 27.5,77.8 30.3,75.5 
	33.6,73.8 37.1,72.7 319.1,72.7 322.7,73.8 325.9,75.5 328.7,77.8 331,80.7 332.8,83.9 333.9,87.4 334.3,91.3 333.8,95.4 
	332.6,99.3 330.7,102.8 328.2,105.9 325.1,108.4 321.6,110.4 317.7,111.6 312.3,112.1 309,113.9 307.3,117.1 307.2,125.5 
	319.9,125.5 330.6,120 335.2,116.7 339.2,112.7 342.5,108 344.9,102.8 346.4,97.2 347,91.3 346.5,86 345.3,81.1 343.3,76.5 
	340.6,72.3 362.9,72.7 366.4,73.8 369.7,75.5 372.5,77.8 374.8,80.7 376.6,83.9 377.7,87.4 378,91.3 377.6,95.4 376.4,99.3 
	374.5,102.8 372,105.9 368.9,108.4 365.4,110.4 361.5,111.6 356,112.1 352.8,113.9 351.1,117.1 350.6,315 348.2,320.7 343.9,325 
	338.2,327.4 315,327.7 317.1,324.1 318.6,320.3 319.6,316.1 319.9,126.1 307.2,126.1 306.9,315 304.5,320.7 300.1,325 294.5,327.4 
	61.8,327.4 56.1,325 50.3,318 49,126.1 37.117,125.283 36.9,317.5 38.6,322.9 41.2,327.8 44.7,332 49,335.5 53.8,338.2 59.2,339.8 
	340.8,339.8 346.2,338.2 351,335.5 355.3,332 358.8,327.8 361.4,322.9 363.1,317.5 363.7,124.1 369.3,122.5 374.4,120 379,116.7 
	383,112.7 386.2,108 388.7,102.8 390.2,97.2 390.8,91.3 390.1,84.9 388.3,78.9 385.3,73.6 381.5,68.9 376.8,65 371.4,62.1 
	365.4,60.2 "/>
</svg>
