<?xml version="1.0" encoding="utf-8"?>
<!-- Generator: Adobe Illustrator 17.0.0, SVG Export Plug-In . SVG Version: 6.00 Build 0)  -->
<!DOCTYPE svg PUBLIC "-//W3C//DTD SVG 1.1//EN" "http://www.w3.org/Graphics/SVG/1.1/DTD/svg11.dtd">
<svg version="1.1" id="Layer_1" xmlns="http://www.w3.org/2000/svg" xmlns:xlink="http://www.w3.org/1999/xlink" x="0px" y="0px"
	 width="400px" height="400px" viewBox="0 0 400 400" enable-background="new 0 0 400 400" xml:space="preserve">
<polygon fill="#DCEFE1" points="356.968,170.442 351.425,163.043 344.649,156.337 336.416,150.301 327.079,145.014 316.638,140.476 
	292.867,133.911 266.067,130.877 236.92,131.754 206.331,136.942 175.04,146.689 145.43,160.505 119.316,177.257 97.169,196.227 
	79.39,216.509 66.228,237.363 61.561,247.747 58.214,257.941 56.188,267.947 55.69,277.468 56.57,286.67 59.035,295.259 
	62.884,302.991 68.175,309.737 74.591,315.51 82.282,320.147 91.042,323.942 100.797,326.708 111.527,328.669 135.473,329.59 
	162.205,327.181 191.019,321.287 221.393,312.216 280.831,286.537 306.109,271.503 327.501,255.292 344.59,238.493 351.207,229.821 
	356.56,221.209 360.484,212.507 363.052,203.901 363.91,195.312 363.283,186.763 360.926,178.453 "/>
<polygon fill="#D8C2BA" points="352.114,162.884 350.406,156.253 347.134,150.014 342.313,144.481 336.186,139.453 328.732,135.153 
	325.628,133.781 48.731,240.916 45.376,246.932 44.918,251.291 45.372,255.512 44.893,260.093 45.232,264.573 47.574,272.566 
	50.293,278.484 54.411,280.536 56.221,284.661 59.265,288.094 63.581,295.645 68.794,296.094 69.678,300.041 80.571,300.759 
	83.555,299.604 90.107,301.573 94.631,302.181 104.083,300.561 107.122,301.208 118.261,299.793 131.158,300.701 135.289,298.352 
	140.409,298.837 148.923,294.792 161.266,295.378 166.245,293.559 180.636,291.957 184.617,289.774 189.69,284.595 188.914,280.927 
	197.268,282.842 234.007,272.487 235.586,269.088 238.902,268.234 241.798,269.901 244.497,266.069 248.411,266.485 
	254.308,263.989 272.263,252.753 275.955,249.823 281.749,246.509 282.138,243.357 289.469,243.737 296.352,239.358 
	301.208,236.943 316.54,227.794 319.106,225.836 323.445,223.193 335.236,210.16 347.648,194.849 359.344,177.135 356.516,174.262 
	358.861,168.959 357.647,161.387 357.075,159.356 "/>
<polygon fill="#DCEFE1" points="333.008,108.515 327.465,101.117 320.688,94.41 312.456,88.375 303.119,83.088 292.678,78.549 
	268.907,71.985 242.107,68.951 212.96,69.828 182.371,75.015 151.08,84.763 121.47,98.579 95.356,115.331 73.209,134.3 
	55.429,154.582 42.268,175.437 37.6,185.82 34.254,196.015 32.227,206.02 31.729,215.541 32.609,224.744 35.075,233.333 
	38.924,241.065 44.215,247.81 50.631,253.584 58.322,258.221 67.081,262.016 76.837,264.782 87.567,266.742 111.513,267.664 
	138.245,265.255 167.059,259.36 197.432,250.289 256.871,224.611 282.149,209.577 303.54,193.365 320.63,176.567 327.247,167.895 
	332.6,159.283 336.524,150.581 339.092,141.974 339.95,133.386 339.323,124.836 336.966,116.527 "/>
</svg>
