<?xml version="1.0" encoding="utf-8"?>
<!-- Generator: Adobe Illustrator 17.0.0, SVG Export Plug-In . SVG Version: 6.00 Build 0)  -->
<!DOCTYPE svg PUBLIC "-//W3C//DTD SVG 1.1//EN" "http://www.w3.org/Graphics/SVG/1.1/DTD/svg11.dtd">
<svg version="1.1" id="solid" xmlns="http://www.w3.org/2000/svg" xmlns:xlink="http://www.w3.org/1999/xlink" x="0px" y="0px"
	 width="400px" height="400px" viewBox="0 0 400 400" enable-background="new 0 0 400 400" xml:space="preserve">
<polygon fill="#F0638F" points="179,40.8 177.5,35.6 175,30.9 171.8,26.8 168,23.5 163.5,20.9 158.6,19.3 153.3,18.8 148,19.3 
	143.1,20.9 138.6,23.5 134.8,26.8 131.5,30.9 129.1,35.6 127.6,40.8 127.1,46.4 127.6,51.9 129.1,57.1 131.5,61.8 134.8,65.9 
	138.6,69.3 143.1,71.8 148,73.4 153.3,74 158.6,73.4 163.5,71.8 168,69.3 171.8,65.9 175,61.8 177.5,57.1 179,51.9 179.5,46.4 "/>
<polygon fill="#F0638F" points="289.4,40.8 287.9,35.6 285.5,30.9 282.3,26.8 278.4,23.5 273.9,20.9 269,19.3 263.7,18.8 
	258.5,19.3 253.5,20.9 249.1,23.5 245.2,26.8 242,30.9 239.6,35.6 238,40.8 237.5,46.4 238,51.9 239.6,57.1 242,61.8 245.2,65.9 
	249.1,69.3 253.5,71.8 258.5,73.4 263.7,74 269,73.4 273.9,71.8 278.4,69.3 282.3,65.9 285.5,61.8 287.9,57.1 289.4,51.9 290,46.4 
	"/>
<polygon fill="#F0638F" points="328.5,108.4 327.5,105.4 324.8,100.4 321.3,96.7 317.2,94 309.8,91.5 304.3,90.8 298.3,90.5 
	222,90.9 216.9,91.7 212.6,93.2 208.9,95 205.8,97.3 203.4,99.9 200.8,104.2 195.6,96.1 192.6,93.1 188.6,91.4 185.1,90.7 
	113.3,90.7 108.7,91.6 105,93.5 102.1,96.2 98.7,101.5 95.5,110.4 72.7,208.3 72.6,211.6 73.8,214.4 77.4,216.9 80.4,216.9 
	83.7,215.4 86.9,212.1 89.8,206.5 110.5,144.4 112.1,141.8 114.5,139.6 117.5,139.8 117.8,143.4 89.8,256.2 117.4,254.8 
	117.4,366.6 119.9,371.2 122.7,373.1 126.4,374.6 130.7,375.9 141,377.5 152.2,377.9 163.1,377 168.1,376.2 172.5,374.9 
	176.2,373.4 179.1,371.6 180.9,303.1 163,303.1 181.1,233.4 179.9,230.5 177.4,232.4 164.3,272.8 162.6,276.2 160.5,278.4 
	157.2,279.6 153.8,278 152.9,274 167.1,216.2 170.1,207.7 172.2,204.5 175.1,202.2 179.2,201.1 200.3,201 200.3,189.9 195.7,189.4 
	191.3,188 187.3,185.8 183.8,182.9 180.9,179.4 178.7,175.4 177.3,171 176.8,166.5 177.2,161.5 178.5,157 180.6,153 183.3,149.6 
	186.7,146.8 190.7,144.7 195.3,143.4 200.2,143 204.8,143.5 209.1,144.9 213.1,147.1 216.6,150.1 219.6,153.6 221.8,157.6 
	223.2,161.9 223.7,166.5 223.2,171 221.8,175.4 219.6,179.4 216.6,182.9 213.1,185.8 209.1,188 204.8,189.4 200.8,189.9 200.8,201 
	224,201 228,201.8 230.6,203.6 236.1,216.2 250.3,274 249.8,277.2 247.5,279.2 244.3,279.4 241.2,277.5 239.5,274.7 227.8,235.5 
	225.3,233.1 222.4,234.5 241.7,304.5 225.1,304.5 225.1,368 228.2,373 231.8,375 236.5,376.6 248.2,378.7 261.7,379.4 275.1,378.7 
	286.8,376.6 291.5,375 295.1,373 297.4,370.7 298.3,144.4 301.1,140.5 304.4,139.3 307.8,142.1 309.3,216.2 311.3,221.3 
	313.9,224.3 316.9,225.7 320.2,225.7 323.3,224.5 326.2,222.6 328.5,220.1 330,217.5 330,115.4 "/>
</svg>
