<?xml version="1.0" encoding="utf-8"?>
<!-- Generator: Adobe Illustrator 17.0.0, SVG Export Plug-In . SVG Version: 6.00 Build 0)  -->
<!DOCTYPE svg PUBLIC "-//W3C//DTD SVG 1.1//EN" "http://www.w3.org/Graphics/SVG/1.1/DTD/svg11.dtd">
<svg version="1.1" id="solid" xmlns="http://www.w3.org/2000/svg" xmlns:xlink="http://www.w3.org/1999/xlink" x="0px" y="0px"
	 width="400px" height="200px" viewBox="0 0 400 200" enable-background="new 0 0 400 200" xml:space="preserve">
<polygon fill="#4477BC" points="68.1,115.6 65.2,117.6 52.9,126.7 44.5,132.5 34.1,138.7 26.8,142.6 9.9,150.7 7.2,152.3 6.1,153.7 
	9.2,154.2 12.4,153.8 15.7,153.2 19.5,152.3 23.8,151.1 28.4,149.5 32.7,147.8 36.8,146 40.9,143.9 45.1,141.6 48.7,139.4 52,137.2 
	55,135 57.8,132.7 60.3,130.5 62.5,128.4 65.4,125.3 67.6,122.5 69.3,120 70.8,117.1 "/>
<polygon fill="#4477BC" points="81.2,170.5 78.1,168 75.2,166 71.6,164 68.9,162.6 65.9,161.2 62.7,159.8 59.2,158.5 55.5,157.2 
	47.2,154.9 42.6,153.9 33.6,152.6 29,152.2 24.3,152 20.1,152 16.5,152.2 13.5,152.5 10.2,153.1 8.6,154.2 12.1,155.6 35.8,159.8 
	39.9,160.7 48.2,162.8 55.3,164.8 61.8,166.9 76.7,172.2 79.9,173.2 82.9,173.2 "/>
<polygon fill="#4477BC" points="76.9,157.8 75.4,153.4 74.4,149.9 73.6,146.1 73,141.9 72.6,137.6 72.6,133.7 73.1,123.6 
	72.8,120.6 71.7,119.3 68.9,120.5 66.8,122.7 65,125.2 63.4,128.4 62.3,131.3 61.5,134.3 61.1,137.9 61,140.9 61.3,144.1 62,147.7 
	63,151 64.4,154.2 66.3,157.7 68.4,160.9 70.6,163.6 72.9,166 75.7,168.3 78.3,170 80.6,168 "/>
<polygon fill="#4477BC" points="377.2,72.6 374.3,67.4 372.4,65 370.4,62.7 364.2,56.6 352.3,43.9 349.8,41.4 347.2,39 344.7,36.8 
	342.2,35 337.5,32.5 333.2,32.1 329.5,34.5 330,39.2 332.6,42.1 336.3,45.4 350.8,56.7 355.6,60.9 359.8,65.1 363.1,69.5 
	365.1,73.8 365.4,78.2 363.8,82.5 359.9,86.7 353.4,90.7 343.8,94.6 333,98.1 322.8,101.1 304,105.8 295.4,107.6 287.2,109.1 
	279.4,110.3 271.9,111.3 257.7,112.8 224.7,115.5 122.7,127.5 107.8,129.8 101.5,131 96.2,132.2 92,133.4 81.1,137 78.1,138.2 
	74.6,140 79.9,141.1 85.5,140.8 93.4,140.2 117.4,137.6 313.2,112.4 320.3,111.2 326.8,109.9 332.7,108.5 338.4,107 344,105.2 
	349.9,103.1 356.2,100.6 362.3,97.9 367.3,95.2 371.2,92.4 374.2,89.5 376.4,86.6 377.8,83.8 378.6,78.1 "/>
</svg>
