<?xml version="1.0" encoding="utf-8"?>
<!-- Generator: Adobe Illustrator 17.0.0, SVG Export Plug-In . SVG Version: 6.00 Build 0)  -->
<!DOCTYPE svg PUBLIC "-//W3C//DTD SVG 1.1//EN" "http://www.w3.org/Graphics/SVG/1.1/DTD/svg11.dtd">
<svg version="1.1" id="Layer_1" xmlns="http://www.w3.org/2000/svg" xmlns:xlink="http://www.w3.org/1999/xlink" x="0px" y="0px"
	 width="400px" height="400px" viewBox="0 0 400 400" enable-background="new 0 0 400 400" xml:space="preserve">
<polygon fill="#A8C887" points="284.4,183.8 255.3,241.2 321.4,219.3 "/>
<polygon fill="#A3C581" points="216.2,183.8 255.3,241.2 284.4,183.8 "/>
<polygon fill="#95BB70" points="96.8,162 43.5,185.4 139,206.9 "/>
<polygon fill="#8FB665" points="43.5,185.4 51.1,223.6 139,206.9 "/>
<polygon fill="#86B059" points="139,206.9 51.1,223.6 158.2,261 "/>
<polygon fill="#9DC179" points="96.8,162 139,206.9 160.7,160.8 "/>
<polygon fill="#95BB70" points="160.7,160.8 139,206.9 216.2,183.8 "/>
<polygon fill="#8FB665" points="139,206.9 158.2,261 216.2,183.8 "/>
<polygon fill="#9DC179" points="216.2,183.8 158.2,261 255.3,241.2 "/>
<polygon fill="#95BB70" points="158.2,261 234.5,286.8 255.3,241.2 "/>
<polygon fill="#8FB665" points="158.2,261 147.9,306.9 234.5,286.8 "/>
<polygon fill="#8FB665" points="90.6,276.2 147.9,306.9 158.2,261 "/>
<polygon fill="#8FB665" points="51.1,223.6 90.6,276.2 158.2,261 "/>
<polygon fill="#86B059" points="51.1,223.6 15.8,262 90.6,276.2 "/>
<polygon fill="#9BBE7A" points="255.3,241.2 283.2,306.5 321.4,219.3 "/>
<polygon fill="#A8C887" points="255.3,241.2 234.5,286.8 283.2,306.5 "/>
<polygon fill="#8DB467" points="234.5,286.8 232,362.4 283.2,306.5 "/>
<polygon fill="#7DA958" points="147.9,306.9 183.7,388.3 232,362.4 234.5,286.8 "/>
<polygon fill="#77A353" points="147.9,306.9 113.5,383.9 183.7,388.3 "/>
<polygon fill="#6F9451" points="90.6,276.2 71.4,346.6 113.5,383.9 147.9,306.9 "/>
<polygon fill="#6B8751" points="15.8,262 71.4,346.6 90.6,276.2 "/>
<polygon fill="#556748" points="188.5,197.4 194.7,194 97.5,170.4 103.1,168.4 97.2,168.9 93.1,166.1 93,165 73.9,173.6 71.4,177.3 
	76.4,178.2 79.6,177 112.8,183.1 180.7,204.1 184.9,199.3 86.1,174.6 91.1,172.8 "/>
<polygon fill="#556748" points="261.7,209.7 205.1,199.7 217.5,194.2 213.2,193 210.6,188.3 210.8,185.5 184.9,199.3 178.8,206.1 
	183.4,207.4 188,207.4 195,204.3 230.6,208.2 255.9,215.1 277.9,224.9 288.4,220.9 "/>
<polygon fill="#556748" points="306.1,215.9 307.3,211.9 279.7,225.1 277.1,229.3 280.2,231.2 285.7,229.2 280.2,233 292.3,228.9 
	293.9,226.3 312.4,219.9 "/>
<polygon fill="#556748" fill-opacity="0.502" points="237,268.6 236.7,273.5 242.4,269.5 244.8,264.1 "/>
<polygon fill="#556748" points="265.3,264.6 244.8,264.1 242.4,269.5 270.5,276.5 "/>
<polygon fill="#556748" points="280.2,233 265.3,264.6 270.5,276.5 292.3,228.9 "/>
<polygon fill="#6F5F55" points="221.2,170 220.9,180 248.4,180.6 "/>
<polygon fill="#999898" points="222.4,168.3 221.2,170 248.4,180.6 253.6,180 "/>
<polygon fill="#776A62" points="220.9,180 246.9,186.2 248.4,180.6 "/>
<polygon fill="#6F5F55" points="248.4,180.6 246.9,186.2 278.3,191.8 "/>
<polygon fill="#72655C" points="248.4,180.6 278.3,191.8 278.8,185.8 "/>
<polygon fill="#A7A09E" points="276.9,183.8 253.6,180 248.4,180.6 278.8,185.8 "/>
<polygon fill="#928C89" points="276.9,183.8 278.8,185.8 315.1,185.9 315.5,184.1 "/>
<polygon fill="#72655C" points="278.8,185.8 278.3,191.8 315.1,185.9 "/>
<polygon fill="#776A62" points="278.3,191.8 308.2,193.3 314.3,188.4 315.1,185.9 "/>
<polygon fill="#A7A09E" points="99.3,144.5 98.1,145.5 128.2,155 130.5,154.1 "/>
<polygon fill="#776A62" points="98.1,145.5 98.5,150 128.2,155 "/>
<polygon fill="#72655C" points="98.5,150 127,160.8 128.2,155 "/>
<polygon fill="#776A62" points="128.2,155 127,160.8 172.6,168.3 "/>
<polygon fill="#928C89" points="130.5,154.1 128.2,155 166.5,161.2 168.7,160.3 "/>
<polygon fill="#817770" points="166.5,161.2 128.2,155 172.6,168.3 "/>
<polygon fill="#81736A" points="166.5,161.2 172.6,168.3 212.5,163.1 "/>
<polygon fill="#877F7A" points="168.7,160.3 166.5,161.2 212.5,163.1 212.6,161.7 "/>
<polygon fill="#72655C" points="172.6,168.3 212.2,167.9 212.5,163.1 "/>
<polygon fill="#8A827E" points="144,168.9 141.2,169.4 211.8,172.7 211.8,171.4 "/>
<polygon fill="#776A62" points="141.2,169.4 211.4,178.2 211.8,172.7 "/>
<polygon fill="#6F5F55" points="141.2,169.4 141.5,173.8 211.4,178.2 "/>
<polygon fill="#72655C" points="141.2,169.4 100.8,162.5 141.5,173.8 "/>
<polygon fill="#7B6F68" points="99.6,154.4 100.8,162.5 141.2,169.4 "/>
<polygon fill="#999898" points="100.9,154.2 99.6,154.4 141.2,169.4 144,168.9 "/>
<polygon fill="#999898" points="30.9,229 28.7,231.6 79.3,255.6 86.2,255.9 "/>
<polygon fill="#7B6F68" points="28.7,231.6 32,239.9 55.6,253.7 79.3,255.6 "/>
<polygon fill="#77695F" points="79.3,255.6 55.6,253.7 93.3,268.3 "/>
<polygon fill="#7B6F68" points="79.3,255.6 93.3,268.3 143.1,285.3 "/>
<polygon fill="#83756B" points="142.1,279.8 79.3,255.6 143.1,285.3 "/>
<polygon fill="#8D8783" points="141.5,276.4 86.2,255.9 79.3,255.6 142.1,279.8 "/>
<polygon fill="#B59484" points="278.8,258.4 274.2,273.5 283,261.1 "/>
<polygon fill="#A78373" points="283,261.1 274.2,273.5 275.8,276.3 283.4,263 "/>
<polygon fill="#AD8A7A" points="284.1,243.8 278.8,258.4 283,261.1 286.4,246.5 "/>
<polygon fill="#A68473" points="276.6,240.5 278.8,258.4 284.1,243.8 "/>
<polygon fill="#A78373" points="283,261.1 283.4,263 286.4,246.5 "/>
<polygon fill="#A88676" points="284.1,243.8 286.4,246.5 294.2,226.2 "/>
<polygon fill="#A78373" points="290.1,223.1 287.4,224.5 284.1,243.8 294.2,226.2 "/>
<polygon fill="#AA8978" points="276.1,230.4 276.6,240.5 284.1,243.8 287.4,224.5 "/>
<polygon fill="#AE8D7D" points="293.1,221.5 290.1,223.1 294.2,226.2 "/>
<polygon fill="#AA8978" points="303.8,211.9 300.3,215.9 309.1,222 "/>
<polygon fill="#A48170" points="305.3,230.6 306.2,231.3 309.1,222 "/>
<polygon fill="#A58472" points="241.8,221.4 224.1,224 229.4,225.4 243.6,224.1 "/>
<polygon fill="#A58472" points="241.8,221.4 243.6,224.1 267.7,196.9 "/>
<polygon fill="#9B7967" points="267.7,196.9 243.6,224.1 272.9,198 "/>
<polygon fill="#81604E" points="243.6,224.1 271.3,222.7 272.9,198 "/>
<polygon fill="#89675A" points="272.9,198 271.3,222.7 278.7,216.9 291.1,195.5 "/>
<polygon fill="#987566" points="278.7,216.9 290.3,207.5 291.1,195.5 "/>
<polygon fill="#A1816F" points="273.8,167.7 267.7,196.9 272.9,198 276.6,169.4 "/>
<polygon fill="#7F5E4F" points="276.6,169.4 272.9,198 286,164.1 "/>
<polygon fill="#836255" points="286,164.1 272.9,198 291.1,195.5 "/>
<polygon fill="#997664" points="286,164.1 291.1,195.5 295.1,164.4 "/>
<polygon fill="#A48170" points="295.1,164.4 291.1,195.5 303.9,170.7 "/>
<polygon fill="#A68473" points="291.1,195.5 290.3,207.5 299.6,200.1 "/>
<polygon fill="#AA8978" points="291.1,195.5 299.6,200.1 303.2,197.3 303.9,170.7 "/>
<polygon fill="#B59484" points="303.9,170.7 303.2,197.3 304.3,196.4 309.4,173.4 "/>
<polygon fill="#79594B" points="264.8,120.4 272.5,143.5 277.1,121.8 "/>
<polygon fill="#846253" points="277.1,121.8 272.5,143.5 284.1,136.7 "/>
<polygon fill="#806052" points="284.1,136.7 272.5,143.5 286,164.1 "/>
<polygon fill="#846253" points="272.5,143.5 276.6,169.4 286,164.1 "/>
<polygon fill="#A48272" points="272.5,143.5 273.8,167.7 276.6,169.4 "/>
<polygon fill="#78584C" points="284.1,136.7 286,164.1 292.9,126.1 "/>
<polygon fill="#89675A" points="292.9,126.1 286,164.1 296.3,133 "/>
<polygon fill="#D1B6A8" points="292.9,126.1 296.3,133 302.2,127.1 "/>
<polygon fill="#A48170" points="296.3,133 295.1,164.4 302.2,127.1 "/>
<polygon fill="#93705D" points="286,164.1 295.1,164.4 296.3,133 "/>
<polygon fill="#997664" points="302.2,127.1 295.1,164.4 303.9,170.7 "/>
<polygon fill="#957261" points="302.6,134.3 303.9,170.7 309.3,135.3 "/>
<polygon fill="#AE8D7C" points="309.3,135.3 303.9,170.7 309.4,173.4 315.4,145.3 "/>
<polygon fill="#AA8978" points="309.3,135.3 315.4,145.3 333.3,127.3 "/>
<polygon fill="#967260" points="328.3,125.5 309.3,135.3 333.3,127.3 "/>
<polygon fill="#98BB76" points="249.9,192.7 255.4,196.1 260.9,193.4 "/>
<polygon fill="#87A46C" points="260.9,193.4 255.4,196.1 258.6,205.4 267.7,196.9 268.2,194.2 "/>
<polygon fill="#89A86B" points="210.3,234.3 229,231.5 229.4,225.4 "/>
<polygon fill="#9DC179" points="224.1,224 210.3,234.3 229.4,225.4 "/>
<polygon fill="#7C9663" points="229.4,225.4 229,231.5 241.8,233.2 "/>
<polygon fill="#819D65" points="229.4,225.4 241.8,233.2 243.6,224.1 "/>
<polygon fill="#70865A" points="243.6,224.1 241.8,233.2 243.6,233.9 271.3,222.7 "/>
<polygon fill="#7D9D62" points="270.4,233.7 262.5,238.3 272,244.1 "/>
<polygon fill="#88A16A" points="269.3,273.8 273.9,284.6 274.2,273.5 "/>
<polygon fill="#98A67C" points="274.2,273.5 273.9,284.6 275.8,276.3 "/>
<polygon fill="#879D6D" points="272.7,261 269.3,273.8 274.2,273.5 278.8,258.4 "/>
<polygon fill="#819C69" points="276.1,230.4 270.4,233.7 272,244.1 276.6,240.5 "/>
<polygon fill="#7E9666" points="276.6,240.5 272,244.1 272.7,261 278.8,258.4 "/>
<polygon fill="#7F9B68" points="300.3,215.9 297.2,219.4 296,220 303.8,225.1 309.1,222 "/>
<polygon fill="#86A56C" points="303.8,225.1 302.7,231.5 305.3,230.6 309.1,222 "/>
<polygon fill="#819C69" points="305.3,230.6 302.7,231.5 307.3,236.5 "/>
<polygon fill="#556748" points="220.9,278.2 221.4,272.9 183.5,284.3 182.6,287.5 154,295 154.2,297.1 183.7,289.7 190.8,290.4 
	232.1,284.1 "/>
<polygon fill="#81736A" points="32.1,222.5 26.5,228.6 34.1,250.8 "/>
<polygon fill="#A7A09E" points="17.7,224.2 26.5,228.6 32.1,222.5 "/>
<polygon fill="#999898" points="24,217.7 17.7,224.2 32.1,222.5 "/>
<polygon fill="#6A594D" points="17.7,224.2 26.2,258.4 26.5,228.6 "/>
<polygon fill="#756457" points="26.5,228.6 26.2,258.4 31.4,259.9 "/>
<polygon fill="#877669" points="26.5,228.6 31.4,259.9 34.1,250.8 "/>
<polygon fill="#79695E" points="140.1,269.2 148.9,302 151.7,275.9 "/>
<polygon fill="#6F5F55" points="140.1,269.2 146.1,301.4 148.9,302 "/>
<polygon fill="#907F71" points="151.7,275.9 148.9,302 154.2,297.1 "/>
<polygon fill="#ADA4A0" points="149.2,262.6 140.1,269.2 151.7,275.9 "/>
<polygon fill="#556748" fill-opacity="0.502" points="26.2,258.4 25.2,254.5 21.1,256.2 15.8,262 23.5,263.5 31.4,259.9 "/>
<polygon fill="#556748" fill-opacity="0.502" points="146.1,301.4 145.4,298 136.9,301 144.9,305.2 148.9,302 "/>
<polygon fill="#72655C" points="90.7,140.8 93.1,166.1 97.2,168.9 "/>
<polygon fill="#7B6F68" points="90.7,140.8 97.2,168.9 98.3,137.8 "/>
<polygon fill="#999898" points="90.7,134.9 90.7,140.8 98.3,137.8 "/>
<polygon fill="#877A70" points="98.3,137.8 97.2,168.9 103.1,168.4 "/>
<polygon fill="#999898" points="213.2,154.5 214.8,158.6 223,158.2 "/>
<polygon fill="#B2A8A3" points="219.1,153.3 213.2,154.5 223,158.2 "/>
<polygon fill="#776A62" points="213.2,154.5 210.6,188.3 214.8,158.6 "/>
<polygon fill="#6A594D" points="210.6,188.3 212.4,193.4 214.8,158.6 "/>
<polygon fill="#72655C" points="214.8,158.6 212.4,193.9 217.5,194.2 223,158.2 "/>
<polygon fill="#8A7A6E" points="217.5,194.2 221.1,190.1 223,158.2 "/>
<polygon fill="#776A62" points="225.2,237.9 232.1,284.1 238.1,240 "/>
<polygon fill="#999898" points="235.8,231.3 225.2,237.9 238.1,240 "/>
<polygon fill="#6A594D" points="225.2,237.9 220.9,278.2 232.1,284.1 "/>
<polygon fill="#907F71" points="232.1,284.1 236.7,273.5 238.1,240 "/>
<polygon fill="#776A62" points="317.2,178.5 306.1,215.9 324.6,184 "/>
<polygon fill="#6F5F55" points="306.1,215.9 312.4,219.9 324.6,184 "/>
<polygon fill="#7F6D60" points="312.4,219.9 317.7,218.4 324.6,184 "/>
<polygon fill="#8E7F77" points="324.6,184 317.7,218.4 329.5,176 "/>
<polygon fill="#999898" points="317.2,178.5 324.6,184 329.5,176 "/>
<polygon fill="#7B6F68" points="152,277.7 225.4,255.5 226.6,246.4 "/>
<polygon fill="#90817A" points="151.5,274.6 152,277.7 226.6,246.4 "/>
<polygon fill="#B9ADA7" points="225.4,245 151.2,272.6 151.5,274.6 226.6,246.4 "/>
<polygon fill="#999898" points="178.9,275.9 152.3,280.3 152.5,282.1 180.7,277.4 "/>
<polygon fill="#776A62" points="152.5,282.1 153.2,287.9 180.7,277.4 "/>
<polygon fill="#72655C" points="180.7,277.4 153.2,287.9 182.1,286.9 "/>
<polygon fill="#928C89" points="197.3,271.5 178.9,275.9 180.7,277.4 203.6,271.8 "/>
<polygon fill="#786A60" points="180.7,277.4 182.1,286.9 203.6,271.8 "/>
<polygon fill="#6F6258" points="203.6,271.8 182.1,286.9 205.2,277.6 "/>
<polygon fill="#8B8484" points="224,259.7 197.3,271.5 203.6,271.8 225.6,259.7 "/>
<polygon fill="#72655C" points="203.6,271.8 205.2,277.6 225.6,259.7 "/>
<polygon fill="#6F5F55" points="205.2,277.6 224.7,274.9 225.6,259.7 "/>
<polygon fill="#B2A8A3" points="271.3,222.7 237.2,236.5 238.1,240 276.6,223.1 "/>
<polygon fill="#857870" points="238.1,240 237.6,252.7 276.6,223.1 "/>
<polygon fill="#776A62" points="237.6,252.7 274.4,231.3 276.6,223.1 "/>
<polygon fill="#74665D" points="276.6,223.1 274.4,231.3 297.2,219.4 "/>
<polygon fill="#999898" points="317.1,186.2 271.3,222.7 276.6,223.1 319.5,188.4 "/>
<polygon fill="#7C6E64" points="276.6,223.1 297.2,219.4 319.5,188.4 "/>
<polygon fill="#72655C" points="297.2,219.4 313.2,201.4 319.5,188.4 "/>
<polygon fill="#627455" points="252.5,130.1 264,141.7 264.8,120.4 "/>
<polygon fill="#556748" points="264.8,120.4 264,141.7 272.5,143.5 "/>
<polygon fill="#4D5B42" points="280.7,121.4 277.1,121.8 284.1,136.7 290.6,128.9 "/>
<polygon fill="#4D5B42" points="296.5,119.9 280.7,121.4 290.6,128.9 292.9,126.1 295.8,126.4 298.9,118.1 "/>
<polygon fill="#647B53" points="304.1,113.8 298.9,118.1 295.8,126.4 302.2,127.1 302.3,128.8 312,125 "/>
<polygon fill="#5D724E" points="311.8,107.7 304.1,113.8 312,125 320.5,117.1 "/>
<polygon fill="#596E49" points="302.3,128.8 302.6,134.3 309.3,135.3 312,133.9 312,125 "/>
<polygon fill="#586C48" points="320.5,117.1 312,125 312,133.9 322.4,119.1 "/>
<polygon fill="#516145" points="322.4,119.1 312,133.9 328.3,125.5 "/>
<polygon fill="#516145" points="329.7,132.6 320.6,140.7 328.5,156.4 330.4,135.6 "/>
<polygon fill="#627455" points="333.3,127.3 331.3,131.2 329.7,132.6 330.4,135.6 345.3,131.6 "/>
<polygon fill="#5D724E" points="330.4,135.6 328.5,156.4 345.3,131.6 "/>
<polygon fill="#798A6B" points="328.5,156.4 344.8,148.2 345.3,131.6 "/>
<polygon fill="#556748" points="320.6,140.7 315.4,145.3 314.8,148.5 328.5,156.4 "/>
<polygon fill="#556748" fill-opacity="0.502" points="82.4,188.7 83.4,191 90.3,188 "/>
<polygon fill="#556748" fill-opacity="0.502" points="83.4,191 83.3,191 82.4,188.7 80,187.4 67.1,184.7 50.8,186.9 45,193.3 
	46.8,202.1 64.3,206.6 86,197.1 "/>
<polygon fill="#7C9B62" points="211.3,110 248.9,132.9 264.8,120.4 "/>
<polygon fill="#87A869" points="243.6,102.3 211.3,110 264.8,120.4 "/>
<polygon fill="#97BF74" points="242.7,78.8 211.3,110 243.6,102.3 "/>
<polygon fill="#A7C889" points="212.9,59.8 211.3,110 242.7,78.8 "/>
<polygon fill="#C1DFA7" points="212.9,59.8 242.7,78.8 253.7,53.6 "/>
<polygon fill="#8BA973" points="242.7,78.8 243.6,102.3 265.5,85.8 "/>
<polygon fill="#ABD487" points="253.7,53.6 242.7,78.8 265.5,85.8 "/>
<polygon fill="#92AB7B" points="265.5,85.8 243.6,102.3 268,113.1 "/>
<polygon fill="#799860" points="243.6,102.3 264.8,120.4 268,113.1 "/>
<polygon fill="#677D53" points="268,113.1 264.8,120.4 277.1,121.8 "/>
<polygon fill="#6F8759" points="274.5,105.2 268,113.1 277.1,121.8 "/>
<polygon fill="#728D5B" points="274.5,105.2 277.1,121.8 296.5,119.9 "/>
<polygon fill="#6A8156" points="265.5,85.8 268,113.1 274.5,105.2 "/>
<polygon fill="#6E8558" points="265.5,85.8 274.5,105.2 285.6,63.1 "/>
<polygon fill="#778866" points="285.6,63.1 274.5,105.2 319.3,101.6 "/>
<polygon fill="#677E53" points="274.5,105.2 296.5,119.9 319.3,101.6 "/>
<polygon fill="#799660" points="253.7,53.6 265.5,85.8 285.6,63.1 "/>
<polygon fill="#9BC875" points="241.9,55.4 253.7,53.6 255.6,34.3 "/>
<polygon fill="#B8DB9A" points="255.6,34.3 253.7,53.6 277.8,31.1 "/>
<polygon fill="#83A466" points="277.8,31.1 253.7,53.6 285.6,63.1 "/>
<polygon fill="#86AA66" points="277.8,31.1 285.6,63.1 331.5,28.9 "/>
<polygon fill="#BCDC9F" points="311.7,13.4 277.8,31.1 331.5,28.9 "/>
<polygon fill="#9EBA85" points="285.6,63.1 316.5,78.2 331.5,28.9 "/>
<polygon fill="#71875C" points="316.5,78.2 285.6,63.1 319.3,101.6 "/>
<polygon fill="#98BF76" points="331.5,28.9 316.5,78.2 339.9,50.3 "/>
<polygon fill="#89AD6C" points="339.9,50.3 316.5,78.2 378.4,73.7 "/>
<polygon fill="#B8DB9A" points="331.5,28.9 339.9,50.3 370,42.8 "/>
<polygon fill="#ABD487" points="339.9,50.3 358.5,61.7 370,42.8 "/>
<polygon fill="#C4E0AA" points="358.5,61.7 365.2,65.6 370,42.8 "/>
<polygon fill="#98B87C" points="316.5,78.2 319.3,101.6 328.3,125.5 347.7,108.6 "/>
<polygon fill="#A6D281" points="316.5,78.2 347.7,108.6 378.4,73.7 "/>
<polygon fill="#6A8156" points="319.3,101.6 311.8,107.7 328.3,125.5 "/>
<polygon fill="#799660" points="347.7,108.6 328.3,125.5 356.6,135.5 "/>
<polygon fill="#83A466" points="347.7,108.6 356.6,135.5 385.5,117.5 "/>
<polygon fill="#B8DB9A" points="378.4,73.7 347.7,108.6 385.5,117.5 "/>
<polygon fill="#556748" fill-opacity="0.502" points="106.7,233.2 93.3,237.4 91.7,241.7 80.9,241.9 80.2,246.7 89.2,248.4 
	98.7,259.7 116.3,259.5 130.8,249.6 131.6,237.5 "/>
<polygon fill="#E7CFD5" points="82.1,218.9 86.5,224.5 98.7,225.1 "/>
<polygon fill="#FCE2EB" points="82.1,218.9 98.7,225.1 99.7,204.7 "/>
<polygon fill="#FCE2EB" points="91.4,213.5 97.7,207.5 98.1,215.1 "/>
<polygon fill="#2C2A29" points="90.5,208.8 90.4,210.9 92.2,209.6 "/>
<polygon fill="#FFFFFF" points="90.5,207.5 90.5,208.8 92.2,209.6 90.4,210.9 90.3,212.3 96.1,207.7 "/>
<polygon fill="#444343" points="95.6,209.7 93,211.9 95.8,212.3 "/>
<polygon fill="#FFFFFF" points="97.7,207.5 95.6,209.7 95.8,212.3 93.2,212 91.4,213.5 98.1,215.1 "/>
<polygon fill="#BCBDBD" points="100,200.3 98.7,226.5 102,218.7 "/>
<polygon fill="#C2C3C3" points="100,200.3 102,218.7 127.2,198.8 "/>
<polygon fill="#DCDBDB" points="102,218.7 98.7,226.5 116.6,241.8 "/>
<polygon fill="#737372" points="104.2,231.2 98.7,226.5 104.7,242.6 "/>
<polygon fill="#C2C3C3" points="102,218.7 116.6,241.8 132.4,231.9 "/>
<polygon fill="#DCDBDB" points="116.6,241.8 130.4,239.3 132.4,231.9 "/>
<polygon fill="#919191" points="123.5,240.5 127.1,247.5 130.4,239.3 "/>
<polygon fill="#C2C3C3" points="132.4,231.9 130.4,239.3 147.9,213.9 "/>
<polygon fill="#B3B4B4" points="134.2,233.9 135.8,238.8 139.1,226.6 "/>
<polygon fill="#E1E1E1" points="127.2,198.8 132.4,231.9 147.9,213.9 "/>
<polygon fill="#B0B0B0" points="127.2,198.8 102,218.7 132.4,231.9 "/>
<polygon fill="#D3D4D3" points="100,200.3 127.2,198.8 128.4,193.9 "/>
<polygon fill="#EBECEB" points="128.4,193.9 127.2,198.8 147.9,213.9 "/>
<polygon fill="#FFFFFF" points="42.6,172.3 42.6,175 43.7,175 45.6,172.5 "/>
<polygon fill="#2C2A29" points="42.6,175 42.6,176.5 43.7,175 "/>
<polygon fill="#FCE2EB" points="47.5,170.1 37.4,183.6 40.3,186.2 51.6,180.9 "/>
<polygon fill="#FFFFFF" points="45.5,173.4 48.8,176.3 44.5,178.1 "/>
<polygon fill="#2C2A29" points="44.9,176.3 44.5,178.1 46.3,177.3 "/>
<polygon fill="#FFFFFF" points="45.5,173.4 44.9,176.3 46.3,177.3 48.8,176.3 "/>
<polygon fill="#E7CFD5" points="51.6,180.9 40.3,186.2 52.2,182.6 "/>
<polygon fill="#C2C3C3" points="45.5,165 52.9,184.5 56,169.3 "/>
<polygon fill="#A5A6A6" points="56,169.3 52.9,184.5 74.9,187.2 "/>
<polygon fill="#898989" points="53.8,184.6 56.9,194.4 59.7,185.4 "/>
<polygon fill="#D9DADA" points="74.9,187.2 79.9,194.9 80.2,185 "/>
<polygon fill="#EBECEB" points="86.2,182.4 90.3,188 90.3,180.8 "/>
<polygon fill="#C2C3C3" points="80.2,157.8 74.9,187.2 91.4,180.3 "/>
<polygon fill="#EBECEB" points="83.6,153.6 80.2,157.8 91.4,180.3 "/>
<polygon fill="#B0B0B0" points="56,169.3 74.9,187.2 80.2,157.8 "/>
<polygon fill="#C2C3C3" points="60.3,151.2 56,169.3 80.2,157.8 "/>
<polygon fill="#D3D4D3" points="60.3,151.2 80.2,157.8 83.6,153.6 "/>
<polygon fill="#BCBDBD" points="45.5,165 56,169.3 60.3,151.2 "/>
<polygon fill="#B29081" points="315.4,145.3 331.3,131.2 333.3,127.3 "/>
</svg>
