<?xml version="1.0" encoding="utf-8"?>
<!-- Generator: Adobe Illustrator 17.0.0, SVG Export Plug-In . SVG Version: 6.00 Build 0)  -->
<!DOCTYPE svg PUBLIC "-//W3C//DTD SVG 1.1//EN" "http://www.w3.org/Graphics/SVG/1.1/DTD/svg11.dtd">
<svg version="1.1" id="Layer_2" xmlns="http://www.w3.org/2000/svg" xmlns:xlink="http://www.w3.org/1999/xlink" x="0px" y="0px"
	 width="400px" height="400px" viewBox="0 0 400 400" enable-background="new 0 0 400 400" xml:space="preserve">
<polygon fill="#010101" points="360.6,260.2 359.9,254.8 359.9,212.5 348.9,172 324.5,132 270.2,91.2 253.4,85.3 245.8,84.8 
	260,67.9 260.897,66.339 246.516,61.424 246.5,61.9 244.4,66.7 239.1,73.1 230.1,78.3 223.2,79.4 218.1,78.8 218.1,72.5 212.6,66.1 
	217.6,61.6 217.6,53.4 238.1,45.2 243.6,50.2 245.5,52.8 246.7,56 246.521,61.294 260.96,66.229 262.7,63.2 264.2,58 263.7,52.2 
	260.8,45.6 253.7,37.9 244.9,32.9 239.3,31 234.1,26.2 231.3,25.1 226.1,24.5 229.9,18.4 228.1,15.9 225.9,14 220.5,11.4 
	171.6,13.4 168.9,14.3 166.9,15.8 165.9,18.4 168.2,27.3 171,27.6 147.7,38.6 144.1,41.5 141.1,45 137.2,52.7 136.4,57.9 137,62.6 
	138.7,67 139.451,67.931 150.457,63.926 150.2,63.3 149.4,59.4 149.5,55.6 150.4,52.2 152.1,49.5 154.5,47.7 157.6,47 177.1,55.7 
	178.2,58.7 178.4,60.8 179.8,64.8 181.2,66.5 182.1,68.4 180.1,71.5 179,77 178.3,79.6 159.4,74 154.4,70.7 151.8,67.2 
	150.552,64.158 139.617,68.137 151.2,82.5 149.4,83.8 132.1,92 129.4,94.6 122.5,98.3 118.5,99.3 81.7,129 67.2,146.9 45.8,191.3 
	41.6,210.2 47.1,280.8 56.1,302.5 75.7,332.8 103.5,360.8 133.4,378.3 141.2,387.6 152.2,386.8 156.2,387.6 162.1,390.8 260,387.5 
	270.6,382.4 308.9,353.1 315.8,343.1 324,337.1 334,323.9 341.9,308.2 348.6,300.8 350.7,293.2 356.2,282.7 360.8,260.6 "/>
<polygon fill="#CDECFC" points="287.3,142.3 283.5,157.5 284.5,188 285.2,190.3 286.4,191.8 286.5,192.1 286.7,192.3 286.7,192.6 
	286.8,193 286.3,195.7 278.5,198.4 282,202.9 282.3,203.1 286.7,203.9 282.6,206.6 282,214.7 279.9,221.2 278,223.9 272.4,228.4 
	268.5,230.3 266.4,230.9 264.2,231 261.1,230.2 259,230.4 258.1,230.7 261.1,250.6 260.7,254.8 256.3,266.2 243.6,285.5 
	228.1,300.5 169.9,328 170.5,330.1 170.5,330.4 170.6,330.4 173.5,332.1 170.6,335 170.6,335.9 169.4,339.9 176.1,338.4 
	176.5,338.2 176.8,337.9 179.4,333 180.8,336.7 190.3,329.9 194.1,325 195.4,323.9 198.5,322.6 200.7,324.1 202.3,325.7 
	203.4,327.4 204,329.2 203.9,332.8 202.6,336.3 195.8,345.3 205.2,344.5 214.6,341.5 222.2,336 224.8,332.3 225.7,330.3 226.2,328 
	218.5,324.4 218.2,320.6 219.2,314.9 219.8,313.9 221.5,312.2 223.7,311.1 232.2,310.8 233.6,306.7 233.6,305.9 233.4,305.7 
	230.3,303.9 234.4,302.5 235.3,302 235.6,301.7 235.8,301.4 236,301.2 236.1,300.9 236.8,300 240.5,298 242.6,297.6 243.1,297.7 
	243.6,297.9 244.8,299 247.2,302.6 257.2,297.6 262.9,301.9 263.9,302.2 267.7,301.1 276.5,302.3 279.5,301.7 279.2,299.7 
	277,294.3 276.6,291.7 277.8,283.9 279.9,278 282.3,277.2 282.6,277.2 282.7,277.1 282.8,277.2 283.3,277.2 283.5,277.1 
	284.9,276.7 283.3,273.5 280.7,270.4 272.7,265.5 271.3,263.5 273.2,261.5 275.3,260.4 277.8,259.9 280.4,259.9 290.8,262.6 
	292.3,267.2 292.3,267.5 292.4,267.8 292.2,273 294.9,273.9 294.6,269.1 294.9,268.1 296.7,265.3 302.2,270.3 303,268.5 303.1,267 
	303,266.3 296.7,257.6 289.9,259.4 288.5,242.1 290.6,241.6 292.3,241.5 293.9,241.7 295.2,242.2 298.5,245.1 306.7,258 
	308.3,252.1 310.4,248.9 304,236.9 288.5,222.1 292.7,218.6 295.7,217.1 302.6,215.7 302.6,214.8 300.6,203.6 300.8,195.7 
	303.2,187.7 313.8,169.5 314.5,167.5 311.7,167.5 311.3,164.8 305.4,167.1 304,172.1 300.4,169.8 305.4,167.1 308.1,162.1 
	309.9,162.3 310.3,162.2 310.5,162.2 310.6,162.1 310.7,162.1 310.7,162.9 311.3,164.8 314,164.8 314.5,167.5 318.6,164.8 
	327.2,155.2 324,151.1 322.9,154 322.9,154.4 323.4,154.4 323.4,154.5 323.5,154.8 323.1,156.6 317.6,155.6 313.1,152.5 
	315.4,143.7 315.8,142.9 316,142.8 316.1,142.7 315.4,138.4 312.8,138 311.4,137.3 309.9,135.8 309.5,135.2 313.6,133 311.4,131.1 
	311.3,130.9 311.2,130.8 309.9,128.9 305.4,128.9 307.5,132 307.5,132.2 307.6,132.3 307.5,132.4 306.3,134.8 302.8,133.7 
	302.1,133.3 301.9,133 301.9,132.4 302.5,131.5 305.4,128.9 303.5,126.7 302.9,126.3 302.4,126.1 300.2,125.8 297.6,124.8 
	291.8,132.4 "/>
<polygon fill="#CDECFC" points="134,263.9 134.2,263.9 134.4,264 137.6,266.7 145.5,262.7 152.6,263.9 150.3,273.9 160.8,280.7 
	156.1,284.3 143.9,289.8 154.8,294.8 156.5,296.1 156.7,296.8 156.8,297 157,297.2 168.1,300.9 170.4,302.5 173.8,306.5 
	177.6,309.4 191.6,296.5 195.6,289.4 196.6,285.3 196.7,283 193.9,284.9 183,298.4 179.1,300.9 174,303 192.6,282.6 192.6,278.7 
	194.2,270.7 194.2,270.2 194.1,269.9 192.6,268 191.2,270.3 189.9,268.5 188.1,268 189,267.1 189.9,268.5 192.6,268 193.2,265.9 
	193.2,265.1 193.1,264.8 193.1,264.4 192.1,259.4 196.2,259.4 196.6,259.5 196.9,259.5 197.1,259.7 197.4,259.8 202.4,264.4 
	203,265.4 204.4,274.8 206.5,270.7 207.1,265.5 206.7,263 202.6,254.4 209.9,253.5 209.7,254.1 209.7,255.8 209.9,256.3 210,256.9 
	211.1,259 213.5,262.1 215.8,261 219.4,257.4 221.7,252.5 222.3,249.7 222.1,242.5 222,242.1 222,241.7 219.9,234.4 216.9,230 
	213.3,227.3 209.2,225.9 195.3,225.7 193.8,221.8 193.6,220.3 193.7,218.9 194.4,216.8 196.7,213.9 206.2,206.2 191.7,205.8 
	189.2,206.8 188.1,207.6 186.6,210.1 185.8,213.9 193.1,210.3 189.7,219.1 189.6,220.7 191.7,229.8 205,228.5 207.1,229.2 
	208.2,229.8 210.3,231.9 213.5,237 213.9,238.3 213.9,238.7 214,238.7 214.3,238.8 217.6,240.7 217.8,249 216.9,252.4 215.3,255.7 
	200.3,244.8 190.1,247.1 189,247.7 187.6,249 186.7,250.3 190.3,251.6 189.4,257.6 187.1,255 187,254.8 186.7,250.3 184,249.8 
	192.1,240.7 189,241.2 187.6,243 186.2,241.2 183,241.6 182.1,238.9 178.8,240.8 178.8,241 178.9,241.1 178.9,241.7 178.5,243.5 
	180.3,243.5 179,244.8 179,248 176.2,248 175.8,245.3 172.6,245.3 168.5,250.7 163.5,246.2 160.8,246.2 157.6,248 158,251.2 
	160.8,250.7 159.4,253 158,251.2 156.2,251.2 154.9,253 153.5,251.6 150.3,251.6 149.9,247.6 153.9,231.6 160,237 162.4,238.1 
	175.8,240.3 177.8,237.6 178,237.5 178.1,237.3 178.3,237.3 180.1,236.7 182.6,235.3 184.8,237.6 184.9,237.6 184.9,237.7 
	185,237.6 185.8,237.6 187.6,238 189,234.8 186.2,233.1 186,232.9 185.9,232.7 185.9,232.3 186.7,228.9 179.1,234.6 175,236 
	167.4,236 163.4,235.1 160.1,233.5 157.5,231.4 153.5,225.9 147,211 145.4,208.8 143.5,207 141.2,205.8 138.3,205.3 134.8,205.7 
	130.9,207.4 129.3,208.6 127.7,210.8 126.2,213.9 129.8,222.5 135.1,222.6 136,222.4 136.4,222.2 137.2,221.6 139.8,218.4 
	135,214.1 133.2,213.5 132.9,213.5 132.6,213.4 132.1,213.4 133.4,212 134.8,211.1 136.2,210.7 137.7,210.8 139.2,211.3 142,213.6 
	143.2,215.2 145.1,219.4 145.9,224.6 145.3,230.6 143,237.1 137.5,245.6 130.2,252.2 121.8,256.9 112.6,259.7 103.1,260.8 
	84.9,258.1 77.1,254.4 73.1,251.2 69.9,247.4 67.8,243.2 67,239 67.6,235 68.5,233.3 71.6,230.3 76.6,228.4 79.8,228 78.7,231.2 
	78.4,231.5 73.5,234.8 73.9,242.6 79.1,242.6 81.8,241.8 84.1,240.4 85.1,239.5 85.8,238.4 86.3,237.1 86.3,234 85.8,232.2 
	80.7,223.9 75.5,223 72.3,223.4 69.4,224.6 66.7,226.4 64.4,228.8 62.6,231.7 60.7,237.1 62,245.3 66,252.7 72.5,259 80.7,263.9 
	90.4,267.1 100.9,268.3 111.8,267.2 122.6,263.5 142.6,250.7 139.1,255.5 132.5,260.7 129.8,263.9 133.8,263.8 "/>
<polygon fill="#CDECFC" points="346.4,246.1 346.2,246 343.6,243.9 349,242.1 337.8,238.3 333.6,238 335.9,241.3 336.2,241.6 
	338.6,243 340.4,244.8 340.4,249.4 340.1,250.9 337.7,255.3 330.4,256 328.7,256.6 325.8,259.8 327,260.4 327.1,260.4 327.2,260.5 
	327.3,260.5 327.3,260.4 327.7,260.2 327.9,260 329,259.4 329,262.1 324.6,262.7 323.9,263.1 323.5,264 323.6,271.7 320.3,274.3 
	319.9,275.2 320.4,286.2 311.3,286.7 314.5,274.8 310.4,271.2 306.2,274.2 297.6,285.3 299.6,285.8 299.9,285.8 300.4,285.5 
	303.6,284.8 301.3,287.6 301.3,287.8 301.6,288.5 301.6,288.9 301.7,289.4 304.4,289.8 315.1,287.7 321.3,288.5 322.7,293.5 
	321.9,294 321.5,294.4 310.4,300 300.4,308.9 305.2,310.4 307.6,310.6 309.7,311.3 311.1,312.5 314.9,318 311.8,320.5 311,320.9 
	309.5,321.3 306.2,321.3 293.9,319.1 292.9,319.1 285.4,322.6 285.4,326.7 298.7,324.7 299.6,324.3 300.4,323.6 300.6,323.3 
	300.6,323.1 300.7,323 301.3,323 304.9,323.9 296.8,330.7 296.2,330.9 287.6,331.2 281.5,339.5 280.2,340.3 269.9,341.7 267,343.2 
	266.8,343.4 266.8,343.6 266.6,343.8 264.4,344.9 264.8,339.7 264.4,338.9 259,334.4 250.8,337.6 252.1,340.5 253.4,342.4 
	254.1,343.1 259.8,345.7 262.6,348.1 246.2,348.8 240.3,350.3 233.8,354.5 219.4,358.1 221.4,360.7 221.4,360.9 220.4,361.7 
	219,363.5 210.8,360.5 206.8,360.1 196.2,361.5 195.9,361.4 195.7,361.4 195.7,361.3 195.6,361.2 194,362.6 198.5,366.2 
	195.8,367.2 200.3,371.7 206.1,367 208,366.1 211,365.5 215.5,366.8 216.7,367.6 215.5,368 215.1,368 214.6,368.1 212.4,368.1 
	208.1,369.9 212.6,375.3 214.4,371.7 211.2,370.3 219.9,373.1 218.5,367.2 227.2,358.5 227.2,357.1 228.5,358.1 227.2,358.5 
	224.4,364.9 232.8,361.3 236.3,360.8 238.5,356.2 239,359 242.2,359 239.9,362.1 239,359 236.3,360.8 239.2,363.7 239.8,364 
	240.7,364.2 241.6,364 244.6,362 245.3,361.7 245.3,359 248.1,358.5 250.8,351.7 251.5,352.7 251.8,353 252,353.3 252.4,353.5 
	252.6,353.7 252.6,354 252.7,354.3 252.6,358.1 248.1,358.5 245.3,361.7 246.4,363 246.7,363.2 246.8,363.3 247.2,363.3 
	247.8,362.8 248.2,362.6 248.6,362.3 251.7,361.2 260.8,360.3 260.8,351.2 263.1,358.5 260.8,360.3 263.5,364 264.9,361.6 
	269.3,357.5 269.9,356 270,353.8 269,348.1 272.6,348.4 275.9,349.6 276.5,350 281.3,357.1 278.5,359 281.7,360.8 284.5,355.8 
	278.1,347.6 281.8,347.8 282.2,348 282.3,348 284,346.7 281,345 280.8,344.8 280.8,344.5 281.6,342.8 281.7,342.1 284,346.7 
	286.7,348.5 285,350 284.9,350.2 284.8,350.2 284.8,350.3 284.9,350.4 284.9,350.8 284.5,352.6 284.5,355.8 288.5,351.4 
	291.4,349.9 297.6,348.1 293.1,344.9 295.1,342.3 295.4,341.7 295.4,341.6 295.3,341.5 295.1,341.5 294.7,341.3 294.5,341 
	294.4,340.6 294.4,340.1 295.4,336.7 295.9,336.4 296.1,336.2 296.4,336 296.5,335.9 296.6,335.9 296.6,336 298.1,337.6 
	300.4,333.5 304,339 313.1,333.5 312.1,333.1 311.1,332.9 310,332.9 309.5,333 309,333 304.5,334 304,328.5 307.8,331 308,331 
	308.1,330.9 308.2,330.7 308.6,326.7 310.8,330.8 317.4,314.6 317.7,312.6 309.9,307.1 313.9,306.7 314.3,306.8 314.6,306.8 
	315,307 315.4,307.1 319,308.9 317.7,306.4 316.9,305.6 316.6,305.4 314,304.6 311.3,302.1 314.6,302.7 323.1,307.1 322.7,304.1 
	322.6,304 322.5,303.8 319.9,301.2 318.6,300.8 319.5,299.8 319.9,301.2 323.6,301.7 328.6,308 331.1,304 332,303.1 336.8,300.3 
	330.4,298.9 328.6,303.9 323.1,296.2 329,297.6 328.6,293 332.9,292.9 335.3,293.4 335.5,293.4 335.9,293.3 338.1,292.1 
	334.3,291.1 327.7,291.4 325.8,290.8 328.8,288.7 329.5,288.4 332.1,288.2 337.7,289.4 343.1,283.9 337.1,280.8 333.1,279.7 
	325.8,279.4 339.5,277.1 325.8,274.8 326,274.3 327.1,273.1 329.3,272 335.2,271.2 340.3,272.4 344.5,274.8 344.6,274.5 
	344.8,274.2 345.3,272.5 345.3,272.3 345.7,271.4 347.7,268.5 347.8,268.5 347.9,268.4 348.1,268.4 348.2,268.3 348.3,268.2 
	348.4,268.2 348.6,268 348.6,267.9 348.8,267.7 348.9,267.6 348.9,267.5 349,267.4 349,267.1 342.2,265.7 344.9,268 344.8,268.1 
	344.6,268.1 344.4,268.2 344.3,268.2 344.1,268.4 344,268.6 344,269.4 341.2,270 329.9,269.8 330.8,265.3 331.5,263.6 333.4,261 
	335.6,259.3 346.1,255.6 347.2,254.8 341.3,255.3 343,252.8 343.6,252.4 343.8,252.2 344.1,252.2 348.6,250.7 350.8,245.7 
	346.5,246.2 "/>
<polygon fill="#CDECFC" points="179.1,313.5 178.9,313.8 178,316.7 193.6,313.4 225.4,296.7 249.9,272.2 256.5,259.1 257.8,252.6 
	257.7,246.5 255.8,240.7 251.1,234.1 249,232.3 246,231 244.1,230.8 240,231.8 235.3,233.9 233.1,242.1 236.5,245.2 237.5,245.7 
	240,246 242.6,245.7 239.4,238.5 247.6,236.6 250.6,240.8 251.4,242.6 252.6,253 245.1,250.5 242.6,250.5 235.5,253.1 230.3,256.2 
	231.4,237 229.5,228.4 224.4,219.9 221.1,216.8 217.3,214.4 211.1,212.4 206.9,212.4 204.9,212.8 201.2,214.7 199.5,216.1 
	196.7,220.3 208.2,218.6 212,218.9 215.9,220.1 219.7,222.6 223.2,226.6 225.9,231.6 227.3,236.5 227.3,247.7 224.3,259.4 
	203.5,291.7 207.5,289.6 214.7,282 229,258.5 251.3,254.8 249.9,262.1 234.2,264.2 228.4,267.3 224.9,271.7 236.7,267.7 
	239.1,267.6 241.5,268.1 244,269.4 243.6,271.3 242.8,272.8 241.7,273.9 240.3,274.7 221.7,278.5 219.8,279.6 218.1,281.1 
	216.7,283 236.3,280.3 233.5,283.8 230.1,286 211.1,291.3 208.5,293.9 209.5,293.8 214.3,292.2 216.7,292.4 219.4,293.5 217.5,296 
	215.9,297.4 214.5,298.1 206.4,298.1 194.4,301.1 193.4,301.7 192.6,302.4 191.2,304.4 205.8,302.6 202.3,305.1 179.2,313.4 "/>
<polygon fill="#CDECFC" points="106.2,313 106.2,309.9 110.7,313 114.5,305.4 114.9,303.8 116.2,301.7 118.1,299.6 120,298.2 
	121.9,297.4 123.7,297.2 125.4,297.5 128.5,299.1 131.2,301.7 135.8,308.9 136.8,306.8 137,305.7 137,304.8 136.5,302.4 
	136.5,300.3 136.7,299.4 142,298 144,298.1 145.6,298.8 147.1,299.9 151.2,305.3 152.5,303.9 153.4,302.5 153.8,301.1 153.8,299.7 
	153.4,298.4 152.6,297.1 151.4,295.9 148.2,293.8 145.7,292.9 142.4,292.7 136.7,293.9 134.4,297.1 131,296.2 130.9,296 
	130.7,295.9 122.9,287.9 117.9,284.8 115,283.9 111.9,283.6 106.7,284.8 106.2,289.8 108.6,291.7 109.9,293.5 111.2,298.9 
	113,298.9 111.7,300.3 106.2,289.8 98.5,292.6 92.6,288.4 91.1,286.2 90.4,283.9 90.4,281.5 92.2,275.8 93.9,272.6 88,276.2 
	87.6,283.5 89.4,291.2 91.8,294.1 96.4,302.3 96.7,303.5 96.7,303.8 96.6,304.1 96.4,304.2 95.1,304.2 95,304.3 94.8,304.4 
	86.6,286.7 86,286.8 78.5,290.3 78.1,290.4 68,289.8 72.5,298.9 "/>
<polygon fill="#CDECFC" points="186.6,203.8 194.9,199.8 179.4,201.2 177.4,205.3 177.4,205.6 177.3,206 177.1,209.8 171.3,211.2 
	169.3,212.1 167.9,213.4 167.2,214.9 167.2,215.9 168,218.1 168.7,219.3 169.9,220.7 172.3,220.1 173.5,219.5 173.7,219.2 
	173.8,218.9 173.3,217.7 173.3,217.4 173.4,217 173.7,216.6 174.2,216.2 176.2,215.3 177.4,216.9 178.1,218.5 178.4,220 
	178.3,221.4 177.1,223.7 176.1,224.7 173.4,226 170.2,226.5 165.1,225.3 162.1,223 160.6,220.7 159.6,218.2 159.1,215.4 
	159.8,209.4 162.4,203.3 166.8,197.5 172.6,192.4 179.8,188.6 188.1,186.5 200.5,186.6 221.7,191.6 219,184.8 198.9,181.2 
	179.9,182.8 171.5,186.2 164.2,191.6 158.4,199.4 154.4,209.8 153.8,213.1 153.9,216.3 156,222.1 164.4,232.1 170.6,231.5 
	176.1,229.8 179.5,227.5 181.2,225.5 182.6,223 183,221.6 182.4,216.5 179,211.6 183.1,206.4 "/>
<polygon fill="#CDECFC" points="174.4,45.6 176.6,47.1 178,47.5 178.3,47.5 178.6,47.4 181.4,45.8 182.1,45.6 199.6,46.6 
	202.8,46.1 205.8,44.8 207.2,43.8 207.6,44.4 208.1,44.7 208.4,45 208.7,45.2 209.2,45.4 209.3,45.5 209,45.7 208.7,45.8 
	206.7,47.5 211.7,48.8 213.7,46.3 214.2,45.9 214.6,45.7 215,45.6 215.8,45.6 216.6,45.8 217.7,45.8 218.4,45.6 221.2,43.8 
	210.8,44.7 210.8,42.9 221.2,42.5 221.8,42.1 222.2,41.7 222.4,41.4 222.6,41.2 222.7,41 222.8,40.9 222.9,40.7 223,40.6 
	223.1,40.6 223.3,40.5 227.2,40.2 227.6,38.8 228.5,39.7 227.2,40.2 227.2,42 232.2,40.6 232.7,37.4 232.6,34.8 232,32.8 
	230.7,31.4 229.1,30.6 227,30.1 194.4,36.8 170.4,33 169.7,33.4 162.6,34.7 163.9,43.8 "/>
<polygon fill="#CDECFC" points="167.6,331.2 163.4,327.1 161,325.6 156.2,324.4 156.8,326.7 157,327.1 157.1,327.5 157.3,327.7 
	157.4,327.9 162.1,330.3 160.7,333.1 157.7,336.4 149.4,341.7 146.7,331.2 154.9,330.3 151.2,326.7 141.2,328.5 136.7,321.2 
	140,315.6 140.7,314.9 141.7,314.7 142.2,314.8 145.8,316.7 141.4,318.5 141.1,318.8 140.9,319.1 140.7,319.9 140.8,323.5 
	142.2,324.2 145.1,324.8 148,324.5 150.8,323.4 155.9,319.5 160.8,313.5 156.7,313.9 151.1,316 148.5,316.2 148.5,310.3 
	141.2,305.8 141.2,313 136.8,313.4 133.9,313.1 132.9,313.3 126.2,316.2 133.4,319.9 136.2,322.6 131.5,328.2 131.3,328.6 
	131.2,329 131.2,329.4 132.6,333.5 136,333.3 137.6,332.9 138,332.7 138.2,332.5 137.8,331.6 138.1,331.1 138.5,330.9 142.1,330.3 
	142.9,331.4 145.8,342.4 147.1,344.8 148,345.7 149.1,346.2 150.5,346.3 152.2,345.9 160,341.2 160.4,341.1 160.7,340.9 
	165.3,339.4 "/>
<polygon fill="#CDECFC" points="86.1,245.4 85.1,246.5 82.8,247.7 80.2,247.8 72.5,245.7 81.2,252.1 86.7,250.2 87.6,249.4 
	93,240.3 97.8,243.6 99,245 103.5,253.5 110.4,252.8 116.6,250.6 118.2,249.4 120.9,245.5 121.7,243.3 121.9,241.3 121,237.7 
	118,231.6 108.6,232.7 108.1,233.1 107.8,233.5 107.4,237.7 107,239.1 103.5,244.4 93.7,239.4 92.9,239.2 92.4,239.2 92,239.3 
	91.8,239.4 91.7,239.5 91.5,239.5 90.9,239.2 88.5,236.6 87.7,242 87,243.9 "/>
<polygon fill="#CDECFC" points="129.7,281.9 128.1,279.3 125.8,273 129.8,263.9 107.6,270.3 109.5,271 117.3,272.3 119,273.1 
	120.5,274.3 121.7,276.2 103.6,275 98.7,276.1 96.7,277.2 95.2,278.5 94.2,280.3 93.9,282.6 94.4,285.3 98.8,286.2 100,286 
	100.5,285.8 100.9,285.5 103.9,279.8 116.3,280.6 121,282.1 125.4,284.6 133.3,292.8 136.7,293.9 136.2,286.7 "/>
<polygon fill="#CDECFC" points="230.5,341.7 232.4,339 234.7,332.4 234,318.9 228.9,315.3 227.7,314.9 225.7,314.9 223.1,315.8 
	222.2,320.8 230.3,322.6 228.4,332.3 226.4,336.3 220.7,342.5 213.3,346.9 171.7,353.5 171.7,354.9 192.9,355.2 212,351.7 
	225.5,346.1 "/>
<polygon fill="#CDECFC" points="181.3,54.8 181.2,57 182.6,62.5 212.2,62.9 209.8,60.9 209.3,59.9 208.5,57 206.7,59.6 206.5,59.7 
	206.4,59.7 206.3,59.6 205.3,55.7 203.9,58 203.9,58.2 203.9,58.3 203.8,58.3 203.8,58.2 203.5,58.2 203.3,58.3 202.4,58.5 
	201.7,58.8 202.6,51.6 204.5,53.7 204.5,53.5 204.6,53.4 204.6,53.2 205,52.8 205.3,52.6 205.8,52.5 204,49.3 196,48 187.5,48.7 
	184.1,50.3 182.8,51.5 181.8,53 "/>
<polygon fill="#CDECFC" points="271.1,305.1 269.3,305 266,306.3 259.9,310.3 258.5,302.1 257.4,302 255.4,302.2 254.5,302.5 
	253,303.5 250.7,306.4 248.1,312.6 251.4,311.4 254.9,307.6 258.5,312.1 255.8,318 244,316.2 238.1,325.8 244.4,333.5 249.1,331.9 
	252,330.2 253,329.3 253.7,328.3 254.4,326.5 254.9,321.3 255.2,320.6 255.8,319.9 272.2,315.1 274.8,313.5 275.9,312.4 
	277.6,309.5 278.1,307.6 "/>
<polygon fill="#CDECFC" points="332.2,198.4 329.2,201.7 323.1,211.5 320.5,218.8 319,229.6 320.4,242.2 323.1,247.3 325.2,249.3 
	327.7,250.7 330.8,251.5 334.5,251.6 335.8,246.6 333.8,244.9 329,242.4 327.4,240.8 326.7,239.8 325,231.8 325.4,218.5 "/>
<polygon fill="#CDECFC" points="316.9,186.4 314.5,192.8 314.2,197.7 314.5,199.3 318.4,201.6 318.8,202 319.1,202.2 321.7,205.3 
	335.8,184.9 338,183.2 338.2,182.9 338.5,182.7 339.1,181.8 339.9,179.3 332.2,177.7 329.6,177.9 328.1,178.4 325.8,176.2 
	320.9,180.7 "/>
<polygon fill="#CDECFC" points="145.9,73.3 151.2,78.9 154.1,80.9 157,82.2 159.7,82.7 162.2,82.4 164.4,81.1 164.2,81 164,80.6 
	163.9,80.5 163.6,79.9 163.5,79.8 163.3,79.4 163.1,79.3 162.4,78.6 162.1,78.4 162,78.4 161.9,78.3 161.7,78.3 159.2,77.2 
	159.1,77.1 153,73.2 149.7,70.1 147.2,66.4 145.6,62.5 145.2,60.5 145.5,56.3 147.1,52.1 151.5,46.6 154.4,44.3 158.2,43 159,42.1 
	160.3,39.3 160.2,39.2 159.7,38.1 159.5,37.9 159.2,37.7 157.7,37.8 147.1,43.6 143.8,47 141.6,50.6 140.5,54.5 140.2,58.4 
	142,66.2 "/>
<polygon fill="#CDECFC" points="349.4,234.7 348.7,234.5 344,235.3 342.1,235 339.9,234 337.2,231.6 335.9,229.8 334.9,227.6 
	334.4,225.4 334.4,223.1 335.3,220 336.6,218.3 337.4,217.6 338.4,217 339.5,216.6 337.4,224.3 337.7,227.1 338.6,228.8 
	339.2,229.5 341,230.7 342.2,231.2 340.1,225.9 340.1,225.1 341.3,221.6 344.9,228.9 347.6,229.1 347.8,229.2 348.1,229.2 
	349.3,228.4 354.9,223 353.5,222.1 346.4,219.8 343.6,217.5 337.2,208.4 334.7,211 331.5,217.1 330.4,223.8 331.7,233.5 
	342.2,236.6 351.8,236.6 350.1,235.1 "/>
<polygon fill="#CDECFC" points="250.1,66.9 247.4,70.7 234.3,80.2 232.6,82.7 232.2,84.3 237.3,83.4 241.9,81.6 249.4,75.8 
	254.5,68 256.9,59.5 256.4,51.1 254.9,47.4 252.7,44.1 249.6,41.4 245.6,39.5 240.7,38.4 234.9,38.4 246.5,45.3 250.5,48.9 
	252.2,52.1 252.8,56.3 252.2,61.6 "/>
<polygon fill="#CDECFC" points="312.3,185.4 320.8,170.2 316.4,172.7 312.5,176.4 309.3,181.1 305.1,192.4 303.9,204.1 304.5,209.4 
	313.6,215.3 319.9,210.3 317.3,207.6 315.4,206.3 314.6,206 313,205.9 312.2,206.1 311.9,206.1 311.5,205.9 311.1,205.6 309.5,203 
	309.9,193.2 "/>
<polygon fill="#CDECFC" points="211.2,78.3 210.4,78 205.8,78.4 206.7,75.7 207.3,74.7 207.5,74.6 207.7,74.7 207.9,74.9 208.4,76 
	208.6,76.2 208.9,76.3 209.3,76.1 210.5,75 211.2,73.8 208.6,72.7 201.2,71.8 181.7,73.8 181.2,78.8 182.8,79.8 186.3,81 
	213.1,79.8 "/>
<polygon fill="#CDECFC" points="136.7,136.6 136.7,137.6 137.6,138.4 137.7,138.4 137.7,138.4 137.8,138.5 137.9,138.5 137.9,138.6 
	138,138.6 138,138.7 138,138.9 140.8,141.6 141.3,142.5 141.3,142.6 142.1,144.3 151.2,142.1 154.3,139.9 155.2,139.7 156.2,139.7 
	157.2,140.1 158.4,141 158.9,141.6 165,140.6 170.5,138 175.3,137.1 176.2,133.4 "/>
<polygon fill="#CDECFC" points="136.2,137.8 136.2,137.9 136.3,137.9 136.4,138 136.5,138 136.6,137.9 136.6,137.8 136.7,137.6 
	136.5,137.4 136.3,137.3 136.1,137.3 136,137.4 136,137.5 136.1,137.7 "/>
<polygon fill="#CDECFC" points="172.6,361.2 153,356.7 152.1,356.7 153.9,359.4 155.5,359.6 156.7,360.2 157.5,361.1 160.2,367.7 
	160.8,368.5 164.9,365.3 166.6,364.5 168.3,364.2 177.1,365.3 177.1,366.7 179,367.2 177.6,368.1 177.1,366.7 171.2,367.2 
	171.2,369 179,371.7 182.4,368.1 182.7,367.9 182.9,367.7 186.2,366.2 195.8,367.2 194,362.6 "/>
<polygon fill="#CDECFC" points="265.6,371.6 265.5,371.5 264.4,370.8 262.8,369.1 261.3,366.7 261.3,370.8 221.2,377.6 223.5,385.3 
	224.8,382.8 225.4,380.7 225.4,380 225.3,379.8 225.3,379.6 228.5,378.1 256.9,378.2 261.6,376.9 265.6,374.6 267.2,373.1 
	265.9,371.8 "/>
<polygon fill="#CDECFC" points="181.7,19.8 193.5,20.2 194.6,29.6 194.3,30.4 192.6,32.5 188.5,23.4 187.1,33.8 206.7,32.9 
	204.4,30.2 203.7,29 203.1,26.2 203.1,19.7 208.7,20.1 209,20 209.2,19.8 209.6,19.1 210.3,15.6 204.3,16.8 203.1,16.4 202.8,16.1 
	202.7,15.8 202.5,15.6 202.4,15.4 202.2,15.3 201.8,15.4 198.1,18.4 194.9,15.2 193.3,17.5 193.2,17.8 193.2,17.9 193.1,18 
	192.6,18 190.3,18.8 188.5,17.2 187.8,16.8 187.3,16.7 186.9,16.7 186.5,16.9 185.1,18.2 184.7,18.3 184.1,18.3 183.4,18.1 
	180.3,15.6 175.8,17.9 177.5,18.8 "/>
<polygon fill="#CDECFC" points="61.3,283.2 66.5,285.7 72.1,287.1 77.6,287.1 80.3,286.4 82.9,285.2 85.3,283.5 85.5,278.3 
	85.3,277.8 85.2,277.3 84.6,276.4 80.3,273.5 77.9,276 76.6,278.4 72.1,282.1 63.3,279.9 50.3,271.7 50.8,273.2 53.1,276.6 "/>
<polygon fill="#CDECFC" points="115.6,329.2 116.2,329.5 117.6,329.9 118.1,329 118.4,328.1 118.5,326.6 118,325.2 117,323.9 
	80.6,304.5 68.6,302.1 65.7,302.1 106.2,321.2 "/>
<polygon fill="#CDECFC" points="105.3,343.9 105.1,344.2 103,346.2 123.9,348.1 119.4,337.1 109.3,331.1 104.4,329.9 108,335.8 
	111.7,339.6 112.3,341.5 112,342.6 111.3,343.8 110.7,344.4 108.8,342.2 108.1,340.4 108,335.8 101.6,333 103.5,337.6 107.1,339.9 
	105.6,343.6 "/>
<polygon fill="#CDECFC" points="182.1,378.5 182.4,378.6 182.6,378.6 183,378.7 183.8,378.7 185.1,378.3 187.1,377.2 143.5,375.3 
	139.4,369.9 139.4,372.9 139.3,373.1 139.3,373.3 139.2,373.5 139,373.6 137.1,375.3 143.5,381.7 169.4,378.9 173.8,379.4 
	177.5,380.7 179,381.7 181.3,378.9 181.9,378.5 "/>
<polygon fill="#CDECFC" points="65.3,273 61.6,261.2 60.2,264.1 59.9,265.2 59.9,265.6 61.2,268.8 61.6,272.1 59.3,268.4 
	55.3,257.6 55.3,266.2 51.2,260.7 50.7,261.9 50.5,263.1 51.1,265.5 52.7,267.9 64.4,277.6 65.6,277.2 66,277.2 66.3,277.1 
	66.5,277.2 66.7,277.2 68,274.8 70.1,278 70.3,278.7 70.3,279 70.4,279.1 70.5,279.1 71,278.9 74.4,278.5 72.6,276.7 71.5,275 
	69.3,266.2 67.1,263 64.8,267.1 65.1,267.6 65.5,267.9 65.7,268.2 66.5,269 66.6,269.2 66.6,269.7 "/>
<polygon fill="#CDECFC" points="275.6,321 270.9,320.3 260.8,321.2 269,322.6 262.6,325.8 267.6,329 262.1,328.9 261.6,329 
	261.2,329 259.9,329.4 265.8,332.2 268,332.5 279.5,330.3 280.4,323 "/>
<polygon fill="#CDECFC" points="291.3,293 290.9,293.3 290.6,293.7 288.5,299.4 286.4,307.4 286.7,311.7 288.5,311.8 290.1,311.6 
	292.8,310.4 293.9,309.5 295.7,307.1 297.7,300.8 298.1,292.1 291.7,292.8 "/>
<polygon fill="#CDECFC" points="165.9,323.6 168.1,323.2 169.4,322.5 173.5,318.5 172.6,313.8 170.9,309.7 168.4,306.5 165.5,304.1 
	164,303.3 162.4,302.8 159.2,302.8 157.6,303.3 156.1,304.2 153.5,307.1 155.2,307.8 162.4,308.4 164.4,309.4 165.4,310.2 
	167.1,312.7 168.5,316.7 160.3,323 "/>
<polygon fill="#CDECFC" points="192.4,340.9 195.9,337.1 197.2,334.8 198.1,332.2 198.5,325.8 196.3,327.5 187,338.2 182.6,341.3 
	177,343.9 165.3,346.2 165.3,348.1 187.9,343.6 "/>
<polygon fill="#CDECFC" points="137.6,348.5 140.3,343.6 140.3,341.2 139.4,336.2 137.8,339.7 137.6,340.7 137.5,340.9 137.3,341.1 
	137.1,341.4 134.4,343 124.8,333.5 128.6,329.2 129,328.4 129.4,324.9 125,328.5 124.7,328.9 124.3,329.2 121.7,333.5 128.9,347.6 
	"/>
<polygon fill="#CDECFC" points="199.7,194.7 222.6,203.4 221.6,201.4 219.9,199.5 214.6,196.4 199.5,192.9 183.4,194.2 180,195.3 
	174.5,198.8 172.6,201.2 195.9,194.5 "/>
<polygon fill="#CDECFC" points="231.5,162.3 231.9,164 232.7,165.5 233.7,166.7 236.2,168.5 244.9,171.6 236.5,153.7 235.3,146.1 
	231.4,157.9 "/>
<polygon fill="#CDECFC" points="126.7,302.6 124,302.8 121.9,303.5 120.4,304.6 119.1,306 113.9,315.3 115.8,319.2 118.8,322.6 
	119.9,323.2 122,323.7 124,323.5 125.7,322.8 127.1,321.8 128,320.8 126.2,319.8 124.8,319.7 124.7,319.9 124.5,320.1 124.4,320.4 
	124,320.8 123.7,320.9 122.7,320.7 119.4,318.9 120.3,314.5 "/>
<polygon fill="#CDECFC" points="145,356.3 152.1,356.7 150.1,354.6 142.1,351.7 137.8,354.4 137.5,354.4 137.2,354.5 133.5,354 
	129.1,352.4 124.9,348.6 123.9,348.1 125.8,352.1 117.1,357.6 124.2,355.6 128.9,355.3 140.3,359 144,356.5 "/>
<polygon fill="#CDECFC" points="256.7,104.8 254.6,107 253.2,109.4 252.6,111.9 252.5,114.4 253.6,119.4 255.8,124.3 264,124.3 
	261.4,121.4 259.9,118.8 259.1,116.5 258.6,109.7 257.5,106.1 "/>
<polygon fill="#CDECFC" points="319.8,263.9 321.2,262.9 321.7,262.3 322.3,261 323.6,252.6 316.3,248 313.2,252.9 311.8,256.5 
	311.2,260.2 311.3,262.1 317.7,254.4 317.7,264.8 "/>
<polygon fill="#CDECFC" points="286.7,294.4 288.1,290.7 288.5,286.7 285.6,283.3 284.8,282.7 283.5,282.1 280.8,281.7 282.2,300.8 
	"/>
<polygon fill="#CDECFC" points="135.8,363.1 146.9,361.4 149,361.9 150.9,363 153.9,366.2 152,366.9 151.7,366.9 151.7,366.8 
	151.7,366.7 151.7,366.6 151.6,366.7 149.9,367.6 152.6,373.1 158,367.2 153.9,359.4 140.3,359 "/>
<polygon fill="#CDECFC" points="110.2,224.6 110.9,224.4 111.1,224.3 111.3,224.4 111.5,224.4 112.2,224.6 112.6,224.8 116.2,225.3 
	112.6,216.6 106.4,217.8 105.1,217.8 104.7,217.7 103.4,217.1 98.9,216.2 107.1,226.2 "/>
<polygon fill="#CDECFC" points="88.8,319.8 91.2,318 89.6,316.4 87.4,315 85.4,314.6 82.5,315.2 78.9,316.7 78.8,316.3 78.7,316.1 
	78.4,315.8 78.2,315.8 78.1,315.7 77.9,315.8 77.9,315.7 80.3,313.5 71.2,310.8 77.1,319.4 84.8,316.2 84.6,318.6 84.2,320 
	83.9,320.4 83.2,320.8 82.8,320.9 79.6,321.1 76.6,322.1 84.4,323.5 86.3,320.7 "/>
<polygon fill="#CDECFC" points="299,222.8 298,222.7 297.4,222.8 297,223 296.8,223.3 296.7,223.7 297.2,224.8 301.3,229.4 
	308.1,236.6 312.2,234.4 308,227.9 306.6,226.4 303.4,224.1 "/>
<polygon fill="#CDECFC" points="93.5,220.7 87.6,224.8 89.6,225.5 90.4,225.6 91.3,225.4 91.7,225.2 91.9,225 92.2,224.5 
	92.3,224.4 92.7,224.2 93.5,224.6 96.4,227.5 96.9,228.6 97.3,232.6 98.9,236.2 101.1,232.9 101.7,230.7 100.7,222.1 94,220.7 "/>
<polygon fill="#CDECFC" points="343.6,190.3 341.7,190.7 341.3,190.6 340.9,190.4 340.8,190.3 340.8,190.2 340.4,195.3 339.7,198.4 
	339.9,203.9 341.3,208 343.2,210.8 348.6,215.3 349.3,212.6 349.3,212.1 349.2,211.7 348.2,210 344.9,206.2 343.3,202.7 
	342.5,198.6 342.6,194.3 "/>
<polygon fill="#CDECFC" points="147.2,269.2 148.5,265.3 142.6,268.1 140.3,269.8 138.5,271.8 137.2,274.1 135.8,279.6 135.8,283 
	144.4,273.7 "/>
<polygon fill="#CDECFC" points="245.7,339.2 245.5,339.1 245.4,339.1 245.3,339 244.9,339 240.5,336.3 239.4,336 238.2,336.3 
	235.3,337.6 235.3,344.9 244,345.3 246.7,339.9 246.3,339.5 245.8,339.2 "/>
<polygon fill="#CDECFC" points="244.4,314.4 244.9,313.5 245.5,311.7 245.7,309.9 245.2,307.3 243.8,305 241.5,303.3 239.4,302.6 
	237.5,305 236.4,307.7 235.8,313.5 241.3,310.8 "/>
<polygon fill="#CDECFC" points="56,243.1 56.2,243.1 56.2,243 56.3,242.9 56.3,242.6 56.2,242.4 56.2,242.3 56.1,242.3 56,242.2 
	55.8,242.4 55.7,242.6 55.8,242.9 "/>
<polygon fill="#CDECFC" points="52.1,243.9 54.6,244.8 54.8,244.8 54.9,244.7 54.9,244.6 54.8,244.3 54.8,244.2 54.9,244 
	54.9,243.8 55.1,243.6 55.3,243.5 55.7,242.6 55.4,242 55.3,241.6 55,241.3 54.9,241.3 54.8,241.2 54.7,241.2 54.6,241.1 
	54.5,241.1 54.4,240.9 54.3,240.8 54.2,240.6 54.2,240.3 53.6,237.6 53.6,237 53.5,236.5 53.6,236.1 53.6,235.7 53.9,234.6 
	55.7,231.6 48.4,232.1 48.1,238.2 48.9,241.2 49.3,241.8 51.2,243.5 "/>
<polygon fill="#CDECFC" points="180.8,167.5 186.7,170.7 179.4,172.5 185.5,172.8 190,172.2 197.6,168.9 199,168.1 199.3,168 
	199.5,167.8 199.8,167.6 200.3,167.1 "/>
<polygon fill="#CDECFC" points="97.1,334.9 94.3,333.4 93.5,333.4 93.5,333.1 92.1,329.9 103.9,325.3 101.2,322.1 97.7,324 
	95.3,326 92.5,327.2 88.9,328 89.9,333.2 90.2,333.9 90.4,334.2 90.8,334.6 92,335.2 92.6,335.3 "/>
<polygon fill="#CDECFC" points="346.4,204.4 349.5,208 351.8,205.7 352,205.4 352.1,205.1 352.1,204.9 351.9,204.6 347.2,200.3 
	352.2,197.6 352.9,196.9 353.1,196.5 353.1,196.1 352.8,195 350.8,192.5 349.9,194.1 348.5,195.7 347.5,196.3 345.4,197.1 
	345.3,201.8 345.4,202.4 "/>
<polygon fill="#CDECFC" points="306.7,220.3 314,233 314.7,231.8 315.1,229.3 313.6,221.2 "/>
<polygon fill="#CDECFC" points="188.7,67.1 188.1,67.5 189.7,68.9 191.6,69.8 193.7,70.3 197.9,70.2 201.8,68.9 203.5,67.9 
	195.6,66.2 191.3,66.3 "/>
<polygon fill="#CDECFC" points="62.1,290.9 64.2,292.8 65.6,294.9 65.8,295.8 66,296.2 66.2,296.4 67.1,296.7 69.8,297.1 
	65.7,291.7 68,289.8 67.3,289.4 66.7,288.9 64.3,287.7 57.1,286.2 59.9,290.3 60.1,290.5 60.4,290.5 60.8,290.4 61.2,290.4 "/>
<polygon fill="#CDECFC" points="288.2,267.6 287.9,267.2 287.1,266.6 285.9,266.2 280.8,266.2 292.2,277.6 292.2,273 289.1,269.4 
	"/>
<polygon fill="#CDECFC" points="318,292.5 319,291.2 316.5,289.3 316.3,289.2 316.1,289.2 312.2,291.7 307.8,295 306.3,297.1 
	309.5,296.7 316.6,293.7 "/>
<polygon fill="#CDECFC" points="199.1,373.4 196.2,371.2 193.6,369 192,368.1 191,367.9 189.5,368.2 187.1,369.9 188.6,370.4 
	191.6,370.4 192,370.5 196.5,374.1 197.9,376.2 198.3,377.2 198.5,377.4 198.7,377.7 199.1,377.9 202.1,378.5 200.6,375.3 "/>
<polygon fill="#CDECFC" points="98.6,173.1 97.6,173.9 103.4,177 105,179.3 108,181.6 107.6,177.9 106.8,175.8 105.7,174 
	104.3,172.7 103.5,172.3 101.7,172 99.7,172.5 "/>
<polygon fill="#CDECFC" points="168.8,85.5 166.7,86.3 165.3,87.5 186.7,86.1 186.2,84.3 "/>
<polygon fill="#CDECFC" points="148,277.1 138.9,285.3 152.6,281.2 "/>
<polygon fill="#CDECFC" points="276.9,353.7 276,353.2 272.2,352.6 274,354.5 274.3,354.7 274.5,354.9 274.6,354.9 274.7,355 
	274.7,355.1 275.4,357.6 273.1,357.1 272.7,357.1 272.4,357.2 272.2,357.2 272,357.4 271.7,357.6 269.9,361.2 278.5,359 
	277.4,354.4 "/>
<polygon fill="#CDECFC" points="212,128 219.9,123.4 215.3,123.9 211,125.2 203.5,129.8 "/>
<polygon fill="#CDECFC" points="61.3,175.3 66.2,163.4 65.3,164.1 62.4,167.6 60.2,171.8 58,179.3 58.7,178.8 "/>
<polygon fill="#CDECFC" points="155.1,192.3 158,194.8 160.8,190.7 157.7,187.7 157.2,187.5 157,187.5 156.7,187.4 153.5,187.5 
	153.6,191.1 153.8,191.6 153.9,191.7 "/>
<polygon fill="#CDECFC" points="292.2,250.7 299.5,255.3 297.9,250.3 297.1,249.1 296.2,248.2 295.1,247.6 293.6,247.2 291.7,247.1 
	291.9,247.9 291.9,250.2 "/>
<polygon fill="#CDECFC" points="137.6,102 133.1,102.8 129.3,104.3 125.9,106.5 123,109.3 130.8,106.5 "/>
<polygon fill="#CDECFC" points="96.2,319.9 93.2,319.3 92.8,319.3 92.6,319.5 92.3,319.7 92.2,320 91.4,321.1 90.3,322 87.1,323.5 
	84.4,323.5 88,326.2 93.5,323 "/>
<polygon fill="#CDECFC" points="172.7,164.9 177.6,165.4 182.3,164.6 184.4,163.7 186.2,162.5 168,163.4 "/>
<polygon fill="#CDECFC" points="124.3,136.2 124.6,136 125.8,135.7 128,135.6 128.8,135.8 129,135.9 129.2,136.1 129.2,136.2 
	129.3,136.2 129.4,136 130.8,134.3 127.3,133 125.7,132.8 124.2,132.9 123.5,133.1 122.9,133.4 122.4,133.8 121.9,134.4 
	121.1,135.9 120.7,138 123.9,136.3 "/>
<polygon fill="#CDECFC" points="339.5,260.8 338.1,261.6 335.7,264.2 334.5,266.2 347.2,259.8 341,260.3 "/>
<polygon fill="#CDECFC" points="329.9,161.8 330.8,160.2 326.5,162.3 323.7,164.5 322.1,166.6 321.3,168.3 320.8,170.2 326.3,165.9 
	"/>
<polygon fill="#CDECFC" points="112.9,169.3 113.5,168.5 113.9,167.4 114.4,163.4 113.7,163.6 111.4,165 109.6,166.9 108.7,168.5 
	108,170.7 110,170.5 112,169.9 "/>
<polygon fill="#CDECFC" points="276.9,333.5 276.6,333.8 272.6,336.2 280.8,335.8 282.2,330.8 279.5,330.3 277.3,333.3 "/>
<polygon fill="#CDECFC" points="330.3,174.9 331.6,174.8 339.5,176.2 331.7,171.2 325.8,176.2 "/>
<polygon fill="#CDECFC" points="170.1,159.5 167.5,158.3 164.4,158 160.8,157.7 160.4,157.8 160.1,157.8 159.6,158 157.6,160.2 
	170.8,160.2 "/>
<polygon fill="#CDECFC" points="127.5,359.8 127.1,359.4 126.6,359.2 123.5,359 126.2,363.5 126.6,365.4 126.6,365.9 126.5,366 
	126.3,366 126.2,365.9 126.2,366.1 127.1,368.1 130.3,362.6 127.8,360 "/>
<polygon fill="#CDECFC" points="113.6,176.2 116.7,172.5 115.8,172 114.2,171.5 112.9,171.6 112.4,171.8 111.5,172.6 110.4,175.1 
	109.8,178.4 111.8,177.5 "/>
<polygon fill="#CDECFC" points="57.5,194.8 60.1,190.8 62.4,183.7 62.5,180.7 58.4,188.9 "/>
<polygon fill="#CDECFC" points="301.8,315.3 307.4,315.3 309,314.8 310.4,313.9 303.6,312.9 296.7,313.9 "/>
<polygon fill="#CDECFC" points="181.4,32.8 181.5,32.9 185.8,32.5 180.8,22.5 "/>
<polygon fill="#CDECFC" points="136,270.7 135.9,270.3 135.7,269.9 135.3,269.5 134.1,268.9 132.1,268.5 132.6,277.1 135.8,271.8 
	"/>
<polygon fill="#CDECFC" points="174.9,26.7 175,27.3 178,32 178.5,30.8 178.6,29.4 177.8,26.6 174.4,21.5 174.7,26.2 "/>
<polygon fill="#CDECFC" points="81.8,138 78.9,140.6 76.7,143.9 75.3,147.5 85.3,136.1 "/>
<polygon fill="#CDECFC" points="78.3,269.1 76.3,269.4 75.2,270 74.7,270.4 73.9,271.4 73,273.9 83,269.4 "/>
<polygon fill="#CDECFC" points="104.5,166 105,165.8 105.3,165.8 105.4,165.9 105.8,165.9 107.6,165.2 103.9,162.1 101.5,164.3 
	101.3,164.6 101.2,164.7 101.1,164.9 101.1,165.3 101.6,167.6 101.6,168.4 "/>
<polygon fill="#CDECFC" points="232.8,350.6 235.3,349 232,347.4 231.1,347.4 230.2,347.6 226.2,350.8 231.6,350.9 "/>
<polygon fill="#CDECFC" points="242.6,370.8 242,368.1 241.3,367 241,366.7 239.4,365.9 236.7,365.3 239,369.8 239.4,370.2 "/>
<polygon fill="#CDECFC" points="112.9,350.8 110.9,348.7 109.4,347.6 112.2,356 112.6,356.7 113.5,354 113.5,353.4 113.6,352.9 
	113.4,351.8 "/>
<polygon fill="#CDECFC" points="334.9,167.5 331.7,171.2 340.8,171.6 "/>
<polygon fill="#CDECFC" points="200.3,126.1 204.4,125.7 207.6,121.1 203.9,122.2 202.4,123.1 "/>
<polygon fill="#CDECFC" points="147.6,154.3 150.7,155.8 152.8,156.2 154.2,156.1 157,155.2 159.4,153.9 "/>
<polygon fill="#CDECFC" points="239.1,222.2 235.3,222.5 235.8,225.3 235.8,225.6 235.9,225.8 236,225.9 236.2,226 236.4,226 
	236.7,226.1 239.4,226.2 239.4,222.7 239.3,222.5 239.3,222.3 "/>
<polygon fill="#CDECFC" points="150,197.9 149.8,197.7 146.7,197.5 146.6,201.3 146.8,201.5 150.8,201.2 150.1,198.4 150.1,198.1 
	"/>
<polygon fill="#CDECFC" points="127.9,99.8 126.3,100.4 124.5,102.1 123,104.8 131.2,100.2 "/>
<polygon fill="#CDECFC" points="300.7,121.6 301,121.8 301.9,122.1 304.9,122.5 302.2,117 300.8,119.2 300.3,120.6 300.5,121.3 "/>
<polygon fill="#CDECFC" points="96.6,125.6 96.9,125.5 97.1,125.3 97.3,125.2 99.4,122 95.3,122.8 95.1,123 94.8,123.1 94.4,123.7 
	93.5,126.6 96.3,125.8 "/>
<polygon fill="#CDECFC" points="289,115.6 289,115.5 288,113.9 287.2,110.2 285.8,112.8 285.8,113.2 285.7,113.6 286,114.7 
	288.1,118 289.1,115.8 "/>
<polygon fill="#CDECFC" points="209.8,30.8 209.8,30.7 209.9,30.6 209.9,30.3 210,30.2 210.1,30.1 210.1,30 210.3,29.8 210.3,29.7 
	209.2,23.6 209.1,23.6 208.9,23.4 208.1,22 207.7,26.6 208.1,28.2 209.7,30.9 209.7,30.8 "/>
<polygon fill="#CDECFC" points="209.7,31.1 209.9,31.1 209.7,30.9 209.7,31 "/>
<polygon fill="#CDECFC" points="205.9,83 203.1,83.1 197.1,84.8 209.4,84.3 207.2,83.3 206.5,83.2 "/>
<polygon fill="#CDECFC" points="200.6,121.9 201,121.5 202.6,118.4 200.3,119.1 200,119.3 199.4,119.5 199,119.9 197.1,123.4 
	200.3,122.1 "/>
<polygon fill="#CDECFC" points="151.2,143.4 155.9,143.4 156.2,143.3 156.5,143.3 156.8,143.1 157.2,143 158.9,141.6 151.2,142.1 
	"/>
<polygon fill="#CDECFC" points="119.5,351.8 119.5,351.6 119.4,351.4 118.9,350.9 115.3,349 117.6,354.9 "/>
<polygon fill="#CDECFC" points="213,385.6 214.6,385.4 216.8,384.4 218.1,383.5 207.6,384.9 "/>
<polygon fill="#CDECFC" points="169.9,248.5 169.9,245.7 166.7,245.7 166.7,248.9 "/>
<polygon fill="#CDECFC" points="153,248.5 153.5,251.6 156.2,251.2 156.2,248 "/>
<polygon fill="#CDECFC" points="98.8,329.9 97.9,330.2 95.7,331.7 101.6,333 99.5,330.3 "/>
<polygon fill="#CDECFC" points="214.2,28.5 216,28.5 217.2,28.8 214,23.4 214,28.1 214.1,28.4 "/>
<polygon fill="#CDECFC" points="221.2,43.8 225.2,43.7 225.4,43.6 225.6,43.6 225.7,43.5 225.8,43.5 226.1,43 227.2,42 221.2,42.5 
	"/>
<polygon fill="#CDECFC" points="273.5,107.5 274.2,107.7 274.4,107.9 274.7,108.1 274.9,108.4 276.5,106.3 276.5,106.1 274,103.9 
	273.1,106.8 273.1,107 273.2,107.2 "/>
<polygon fill="#CDECFC" points="134.3,361.2 134.1,360.8 132.1,358.5 131.2,361.1 131.2,361.3 131.3,361.5 131.5,361.7 131.7,361.8 
	131.8,361.9 132.1,362 132.8,362.7 133,363.1 133.4,362.2 134.3,361.3 "/>
<polygon fill="#CDECFC" points="187.5,386 188.7,385.5 190.8,384 181.7,385.3 "/>
<polygon fill="#CDECFC" points="337.6,296.3 337.5,296.1 337.4,295.7 337.1,295.4 336.8,295.3 336.6,295.4 335.7,295.6 333.6,296.7 
	336.6,298.6 337,298.6 337,298.5 337.1,298.4 337.2,298 337.2,297.8 337.3,297.5 337.5,297.2 337.8,296.9 338.1,296.7 337.9,296.6 
	"/>
<polygon fill="#CDECFC" points="127.4,140.5 127.5,140.1 127.8,139.5 128,139.3 127.7,139.1 127.4,138.8 127.2,138.5 126.9,137.6 
	126.8,137.5 126.6,137.5 126.4,137.6 123.9,139.8 126.8,140.9 127.1,140.9 127.4,140.6 "/>
<polygon fill="#CDECFC" points="151.9,89.9 151.6,90.1 151.2,90.2 148.9,92 156.2,91.1 153,89.9 "/>
<polygon fill="#CDECFC" points="161.7,89.7 162,89.6 162.4,89.6 162.7,89.4 163,89.3 165.3,87.5 158,88.4 "/>
<polygon fill="#CDECFC" points="91.4,127.1 91,127.1 90.7,127.3 90.4,127.4 90.2,127.6 89.9,128.1 89.4,131.6 93.5,126.6 "/>
<polygon fill="#CDECFC" points="172.6,373.5 171.2,369 168.5,369.4 "/>
<polygon fill="#CDECFC" points="355.6,228.9 355.1,228.7 354.9,228.7 354.8,228.8 354.6,228.9 354.5,229.2 353.1,231.2 354.9,231.3 
	355.2,231.2 355.5,231.2 355.8,231 356,230.8 356.3,230.6 356.6,230.3 357.2,228.9 356.7,229 356.2,229 355.9,228.9 "/>
<polygon fill="#CDECFC" points="183.4,135.9 183.7,136 184.2,135.8 184.4,135.6 185,135.2 187.1,133 181.2,135.2 183,135.9 "/>
<polygon fill="#CDECFC" points="234.4,385.3 235.3,385.3 235.9,385.1 238.1,383.5 230.3,384.4 "/>
<polygon fill="#CDECFC" points="301.3,342.3 297.6,343 301.7,345.3 301.5,344.8 301.4,344.3 301.4,343.8 301.7,342.6 301.7,342.4 
	301.6,342.3 "/>
<polygon fill="#CDECFC" points="279.4,363.8 279.7,363.7 280,363.5 280.3,363.4 282.2,362.1 274.5,363.1 "/>
<polygon fill="#CDECFC" points="58,179.3 55.7,185.7 58,183.9 "/>
<polygon fill="#CDECFC" points="223.8,91.1 224,91.2 224.5,91.2 225.2,90.9 227.6,89.3 221.7,89.3 222.2,89.6 "/>
<polygon fill="#CDECFC" points="102.6,340.3 103.5,337.6 100.3,336.2 "/>
<polygon fill="#CDECFC" points="324,148.2 323.9,148.4 323.9,148.6 324,148.6 324.1,148.5 324.3,148.4 326.3,148.4 326.1,146.2 
	326,146.1 326,146 325,146 323.6,145.7 324,147.6 "/>
<polygon fill="#CDECFC" points="321.6,312.4 322.2,311.2 322.2,310.9 322.1,310.8 322,310.6 321.7,310.5 319,308.9 321.3,313.5 "/>
<polygon fill="#CDECFC" points="230.6,215.9 231.3,216.6 231.9,215.8 232.2,215.6 232.4,215.4 232.6,215.3 232.8,215.3 233,215.2 
	231.7,214 231.3,213.4 230.9,214.1 230.5,214.5 230.3,214.9 230,215.1 229.7,215.4 230,215.4 230.4,215.6 "/>
<polygon fill="#CDECFC" points="216.2,18.4 216.6,17.8 217,17.4 217.2,17.1 217.5,16.9 217.8,16.6 217.7,16.6 217.6,16.5 
	217.5,16.5 217.3,16.4 216.2,15.2 215.8,16.1 215.2,16.7 215,16.7 214.9,16.8 215.9,17.8 "/>
<polygon fill="#CDECFC" points="199.9,233.2 200.2,233.4 200.5,233.8 200.8,234.4 201,233.9 201.3,233.6 201.5,233.3 202.1,232.7 
	202.1,232.6 202,232.6 200.3,230.7 199.8,231.8 199.5,232.1 199.2,232.6 199.2,232.7 199.4,232.8 199.5,232.8 "/>
<polygon fill="#CDECFC" points="175.8,245.3 179,244.8 178.5,243.5 175.8,243.5 "/>
<polygon fill="#CDECFC" points="189,241.2 187.6,238 186.2,241.2 "/>
<polygon fill="#CDECFC" points="186.5,46.4 186.1,46.2 185.7,46.2 184.7,46.5 182.1,47.9 186.7,47.9 186.6,47.8 186.6,46.6 "/>
<polygon fill="#CDECFC" points="206.2,113.6 206.1,113.6 206,113.5 205.8,113.6 205.6,113.8 204,116.6 208.1,114.3 "/>
<polygon fill="#CDECFC" points="54.8,283.3 54.7,283.2 54.5,283.3 54.4,283.4 52.5,284.4 57.1,286.2 54.9,283.3 "/>
<polygon fill="#CDECFC" points="169.9,245.7 172.6,245.3 170.8,242.6 "/>
<polygon fill="#CDECFC" points="355.9,211.6 355.7,211.5 355.6,211.4 355.5,211.2 355.4,210.8 355.2,210.4 355.1,210.3 354.7,210.1 
	354.4,210.1 351.3,211.6 "/>
<polygon fill="#CDECFC" points="320.3,143.4 320,143.3 319.7,143.3 319.5,143.5 319.3,143.8 318.9,144.2 318.6,144.3 323.6,145.7 
	"/>
<polygon fill="#CDECFC" points="172.5,385.5 172.7,385.3 172.7,385.2 172.8,385 173.5,384.3 174,384 168,384.9 "/>
<polygon fill="#CDECFC" points="218.3,83.6 218,83.6 214,84.8 219.9,85.2 219,84.6 218.7,84.3 218.5,83.9 218.4,83.8 218.4,83.7 "/>
<polygon fill="#CDECFC" points="216,356.2 216.1,356.1 216.2,356 216.3,355.8 217.6,354.9 211.7,355.8 "/>
<polygon fill="#CDECFC" points="180.3,383.5 180,383.3 179.6,383.2 179.2,383.2 178.5,383.4 177.5,384 177.3,384.2 177.2,384.4 
	177.1,384.5 177.2,384.7 177.6,384.7 178.5,384.4 179.6,384.6 179.8,384.6 180.1,384.7 180.3,384.6 180.5,384.6 180.7,384.5 
	180.8,384.4 180.8,384.1 180.6,383.8 "/>
<polygon fill="#CDECFC" points="145.8,151.6 145.5,151.4 145.2,151.3 144.8,151.3 143.7,151.6 143.4,151.8 142.9,152.3 142.8,152.5 
	142.7,152.6 142.7,152.8 143,152.8 143.9,152.5 146.2,152.7 146.4,152.5 146.4,152.4 146.1,151.9 "/>
<polygon fill="#CDECFC" points="145.1,156.5 144.9,156.1 143.7,155.8 143,156 142.3,156.4 141.7,157 141.7,157.3 141.9,157.4 
	142.1,157.4 143,157.1 144.1,157.3 144.9,157.3 145.1,157.2 145.2,157.2 145.3,157.1 145.4,156.9 145.3,156.7 "/>
<polygon fill="#CDECFC" points="195.7,383.9 195.3,383.5 195,383.4 194.4,383.4 194,383.5 193,384.1 192.3,384.8 192.2,385 
	192.4,385.2 192.6,385.2 193.5,384.9 194.4,385 194.7,385.1 195.3,385.1 195.5,385 195.8,385 195.9,384.8 196,384.7 196,384.5 
	195.9,384.2 "/>
<polygon fill="#CDECFC" points="207.8,377.6 207.8,377.5 207.5,377 207.2,376.7 206.8,376.5 206.4,376.4 206,376.4 204.9,376.7 
	204.6,376.9 204.4,377.2 204,377.6 204,377.9 204.4,377.9 205.3,377.6 207.6,377.8 "/>
<polygon fill="#CDECFC" points="356.3,255.7 356,255.5 355.7,255.4 355.4,255.4 354.6,255.6 353.7,256.2 353.3,256.6 353.2,256.8 
	353.2,256.9 353.4,257 354.5,256.6 355.1,256.8 355.7,256.8 356,256.9 356.5,256.9 356.7,256.8 356.9,256.8 357,256.6 357,256.5 
	356.7,256 "/>
<polygon fill="#CDECFC" points="355.5,251 356.1,251 356.3,250.9 356.5,250.7 356.5,250.6 356.2,250.1 355.9,249.8 355.6,249.6 
	355.3,249.5 354.9,249.5 354.2,249.7 353.2,250.3 352.8,250.7 352.8,251 353.1,251 354,250.7 "/>
<polygon fill="#CDECFC" points="169.6,351.8 169.2,351.8 168.4,352 167.5,352.6 167.3,352.8 167.1,353.2 167.3,353.4 167.6,353.3 
	168,353.3 168.5,353.1 169,353.2 169.6,353.2 169.8,353.3 170.3,353.3 170.5,353.2 170.7,353.2 170.8,353.1 170.8,352.7 
	170.3,352.1 170,351.9 "/>
<polygon fill="#CDECFC" points="165.3,373.1 167.3,373.3 167.6,373.2 167.7,373.2 167.8,373.1 167.8,372.9 167.7,372.7 167.1,372.2 
	166.9,372 166.2,371.8 165.5,372 164.5,372.6 164.1,373 164.1,373.3 164.2,373.4 164.4,373.4 "/>
<polygon fill="#CDECFC" points="161.9,350.9 161.5,350.9 160.7,351.1 159.8,351.7 159.6,351.9 159.4,352.3 159.5,352.4 159.9,352.4 
	160.8,352.1 161.4,352.3 161.9,352.3 162.2,352.4 162.8,352.4 163,352.3 163.2,352.3 163.3,352.1 163.3,352 163.2,351.8 
	162.6,351.2 "/>
<polygon fill="#CDECFC" points="355.5,217.5 355.6,217.3 355.6,217.1 355.3,216.6 354.9,216.2 354.2,216 353.4,216.2 352.4,216.8 
	352.2,217 352,217.3 351.8,217.5 351.8,217.8 352.2,217.8 353.1,217.5 354,217.7 355.1,217.7 355.4,217.6 "/>
<polygon fill="#CDECFC" points="166.7,166.6 166.4,166.4 166.1,166.3 165.7,166.3 165,166.5 164.3,166.9 164.1,167.1 163.8,167.3 
	163.7,167.5 163.6,167.6 163.6,167.8 164,167.8 164.9,167.5 166,167.7 167.1,167.7 167.3,167.6 167.4,167.5 167.4,167.4 
	167.3,167.2 "/>
<polygon fill="#CDECFC" points="324.8,319.3 324.5,318.9 324.2,318.8 323.9,318.8 322.8,319.1 321.6,320 321.4,320.4 321.4,320.5 
	321.5,320.6 321.8,320.6 322.7,320.3 323.3,320.4 323.5,320.5 324.4,320.5 324.7,320.4 324.9,320.4 325.1,320.3 325.1,320.1 
	325.2,319.9 325,319.7 "/>
<polygon fill="#CDECFC" points="197.7,357.4 197.3,357.3 196.9,357.3 195.8,357.6 195.5,357.8 195.3,358.1 194.9,358.5 194.9,358.8 
	195.3,358.8 196.2,358.5 198.5,358.7 198.7,358.5 198.7,358.4 198.4,357.9 198.1,357.6 "/>
<polygon fill="#CDECFC" points="163.3,107.6 164,107.8 164.7,107.8 165,107.7 165.3,107.5 165.8,106.8 165.8,106.4 165.7,106.3 
	165.5,106.2 164.8,106.2 163.5,106.6 162.6,106.4 162.4,106.4 162.2,106.5 162.2,106.7 162.7,107.2 "/>
<polygon fill="#CDECFC" points="250.4,369.9 251.5,370.1 252.6,370.1 252.8,370 252.8,369.7 252.7,369.5 252.2,369 251.9,368.8 
	251.6,368.7 250.9,368.7 249.8,369.2 249.6,369.4 249.3,369.6 249.1,370 249.1,370.1 249.2,370.2 249.5,370.2 "/>
<polygon fill="#CDECFC" points="65.1,301.4 65,301 64.7,300.7 64.2,300.7 61.2,302.1 65.7,302.1 65.2,301.6 "/>
<polygon fill="#CDECFC" points="57.2,195.2 56.8,195.4 56.4,195.5 56.2,195.7 56.1,195.9 56.1,196.4 56.3,196.7 56.4,197.2 
	57.5,199.3 57.5,194.8 57.4,195 "/>
<polygon fill="#CDECFC" points="54,205.9 55.3,208.4 55.3,203.9 55.1,204.2 54.7,204.6 54.5,204.7 54.1,204.8 53.8,205.1 
	53.8,205.3 53.9,205.5 "/>
<polygon fill="#CDECFC" points="55.3,190.3 55.7,185.7 55.5,186 55.1,186.4 54.9,186.5 54.5,186.6 54.1,186.8 54,186.9 54,187.4 
	54.2,188.1 "/>
<polygon fill="#CDECFC" points="175.7,137.4 176.1,138.5 176.3,138.7 176.5,138.7 179.4,137.1 175.3,137.1 175.5,137.2 "/>
<polygon fill="#CDECFC" points="192.9,129.6 192.5,129.6 192.3,129.8 192.3,130 192.2,130.4 192.1,130.6 192.1,130.8 191.9,131 
	191.7,131.1 195.8,130.7 "/>
<polygon fill="#CDECFC" points="256.3,367.5 253.5,367.6 257.6,370.3 256.5,367.7 "/>
<polygon fill="#CDECFC" points="98.8,341.3 98.8,341.2 98.7,341.2 98.6,341.1 96.2,341.2 98.9,344 98.7,341.7 "/>
<polygon fill="#CDECFC" points="94.1,342.9 92.1,343 94.4,345.8 94.4,343 94.3,343 "/>
<polygon fill="#CDECFC" points="278.3,150.4 278.8,150.1 279.4,150.1 279.5,149.9 279,146.1 278.1,150.7 "/>
<polygon fill="#CDECFC" points="106.7,358.5 106.8,358.2 107.2,358 107.3,357.9 107.4,357.9 107.6,358 107.7,358 107.8,357.9 
	107.9,357.9 107.6,354 "/>
<polygon fill="#CDECFC" points="253.2,92.2 251.5,92.2 251.3,92 251.3,92.1 251.4,92.3 251.4,92.5 251.5,92.9 251.3,94.8 254,92 "/>
<polygon fill="#CDECFC" points="344.7,277.1 344.6,277 344.5,277 344.5,277.1 344.6,277.2 344.7,277.4 344.5,279.4 347.2,276.7 
	345.3,277.1 "/>
<polygon fill="#CDECFC" points="165.3,243.9 163.5,246.2 166.7,245.7 "/>
<polygon fill="#CDECFC" points="106.2,326.7 103.9,325.3 104.4,328 "/>
<polygon fill="#CDECFC" points="192.1,238 192.1,240.7 194,239.4 "/>
<polygon fill="#CDECFC" points="72.3,154.9 72.3,154.8 72.4,154.7 72.4,154.2 73,152.5 69.8,155.2 72.2,155 "/>
<polygon fill="#CDECFC" points="316,134.6 315.9,133.5 315.8,133.4 315.8,133.3 315.2,133.3 314.9,133.2 314.6,133.2 313.6,133 
	316.3,135.7 "/>
<polygon fill="#CDECFC" points="257.5,95.4 257.7,95.3 258.1,95.2 258.2,95.2 258.2,94.9 258.1,94.4 258.1,92.9 255.8,96.1 
	256.8,95.6 "/>
<polygon fill="#CDECFC" points="200.5,297.3 200.5,296.4 200.6,296 200.6,295.5 200.8,294.8 198.1,297.6 200.4,297.5 200.4,297.4 
	"/>
<polygon fill="#CDECFC" points="318.2,325.2 318.2,325.1 318.3,324.9 318.3,323.7 318.6,322.6 315.8,325.3 "/>
<polygon fill="#CDECFC" points="233.8,90.5 233.9,90.4 234,90.2 234.1,90.2 234.1,90.1 233.7,90.1 229.4,91.1 234,91.6 233.7,91.3 
	233.6,91.1 233.6,90.9 "/>
<polygon fill="#CDECFC" points="279.1,366.9 279.5,366.7 274.9,367.6 279.4,368.1 279.4,368 279.2,367.8 279,367.7 278.9,367.5 
	278.9,367.2 "/>
<polygon fill="#CDECFC" points="146.8,372.2 147,372.4 147.1,372.4 147.2,372.3 147.1,370.8 146.9,369.7 146.7,369.2 146.5,369.1 
	146.3,369.1 146.2,369.3 146.1,369.4 145.9,369.9 145.9,370.3 146.1,370.7 146.2,370.8 "/>
<polygon fill="#CDECFC" points="72.8,317.1 72.7,316.9 72.6,316.8 72.3,316.8 72.2,317 72.1,317.1 71.9,317.6 71.9,317.8 71.8,318 
	72,318.4 72.1,318.5 72.7,319.9 72.9,320.1 73,320.1 73.1,320 73,317.9 "/>
<polygon fill="#CDECFC" points="48.2,223.1 48.8,224.3 49,224.5 49.1,224.5 49.3,224.1 49.4,222.5 49.3,222 49,221.4 48.7,221.1 
	48.3,221.3 48,221.6 47.8,222 47.8,222.3 47.7,222.5 47.9,222.9 48,223 48.1,223 "/>
<polygon fill="#CDECFC" points="264.3,102.4 264.5,102.6 264.6,102.8 264.7,102.9 264.9,103 265,103.1 265.2,103.1 265.3,103 
	265.4,102.8 265.4,101.6 265.2,100.4 265,99.9 264.9,99.8 264.7,100 264.7,100.3 264.6,100.5 264.4,101.6 264.2,101.8 264.2,102 
	264.3,102.2 "/>
<polygon fill="#CDECFC" points="335.9,306.3 335.2,306 335,305.5 335.1,305.2 335.4,304.9 332.7,307.1 335.9,306.5 336.1,306.5 
	336.2,306.4 336.1,306.3 "/>
<polygon fill="#CDECFC" points="220.1,26.6 220.4,26.5 221,26.5 221,26.4 220.9,26 220.9,25.8 220.8,25.4 220.8,24.3 218.5,27 
	219.7,26.6 "/>
<polygon fill="#CDECFC" points="233.1,369.5 233.2,369.6 234.4,369.6 235.3,369.9 232.6,367.2 232.9,368.3 233,369.4 "/>
<polygon fill="#CDECFC" points="329.7,150.8 329.9,150.9 330.3,150.9 331.3,151.1 329,148.4 329.1,150.8 "/>
<polygon fill="#CDECFC" points="318.5,151.2 318.6,151.3 318.6,151.4 318.7,151.5 320.3,151.5 320.8,151.6 318.1,148.9 318.4,150 
	"/>
<rect x="156.2" y="246.6" fill="#CDECFC" width="1.4" height="1.4"/>
<polygon fill="#CDECFC" points="157.6,246.6 160.8,246.2 160.3,244.8 "/>
<polygon fill="#CDECFC" points="216.2,284.8 216.7,283 215.3,283.5 "/>
<polygon fill="#CDECFC" points="259.4,366.2 261.3,366.7 260.4,365.3 "/>
<polygon fill="#CDECFC" points="269.4,363.1 269.9,361.2 268.5,361.7 "/>
<polygon fill="#CDECFC" points="197.1,123.4 195.8,123.9 196.7,124.8 "/>
<polygon fill="#CDECFC" points="187.1,227.5 186.7,228.9 188.1,228.5 "/>
<polygon fill="#CDECFC" points="318.6,322.6 319.9,322.1 319,321.2 "/>
<polygon fill="#CDECFC" points="282.2,142.5 281.3,141.1 280.8,143 "/>
<polygon fill="#CDECFC" points="109.4,112.9 108,113.9 108.9,114.8 "/>
<polygon fill="#CDECFC" points="347.2,253.5 347.2,254.8 348.6,254.4 "/>
<polygon fill="#CDECFC" points="107.6,313 106.2,313 106.7,314.4 "/>
<polygon fill="#CDECFC" points="334.5,195.3 334.9,193.4 333.6,193.9 "/>
<polygon fill="#CDECFC" points="342.2,172.1 340.8,171.6 341.3,173 "/>
<polygon fill="#CDECFC" points="224,366.2 224.4,364.9 223.1,365.3 "/>
<polygon fill="#CDECFC" points="341.3,277.1 339.5,277.1 339.9,278.5 "/>
<polygon fill="#CDECFC" points="119.8,104.8 119.4,106.1 121.2,105.7 "/>
<polygon fill="#CDECFC" points="105.3,115.2 105.3,116.6 106.7,116.1 "/>
<polygon fill="#CDECFC" points="334.9,193.4 336.3,193 335.4,192.1 "/>
<polygon fill="#CDECFC" points="341.8,167.5 340.4,167.1 340.8,168.4 "/>
<polygon fill="#CDECFC" points="284.9,328 285.4,326.7 284,327.1 "/>
<polygon fill="#CDECFC" points="86.2,271.7 84.8,273 86.6,273 "/>
<polygon fill="#CDECFC" points="94.4,271.2 93.9,272.6 95.3,272.1 "/>
<polygon fill="#CDECFC" points="199.9,127.5 200.3,126.1 199,126.6 "/>
<polygon fill="#CDECFC" points="138,369.4 139.4,369.9 138.9,368.5 "/>
<polygon fill="#CDECFC" points="78.5,329.9 80.3,329.9 79.8,328.5 "/>
<polygon fill="#CDECFC" points="280.4,144.3 280.8,143 279.5,143.4 "/>
<polygon fill="#CDECFC" points="174,243.5 175.8,243.5 175.3,242.1 "/>
<polygon fill="#CDECFC" points="116.7,359.4 117.1,357.6 115.7,358.1 "/>
<polygon fill="#CDECFC" points="190.3,237.5 192.1,238 191.2,236.6 "/>
<polygon fill="#CDECFC" points="154.4,246.2 156.2,246.6 155.8,245.3 "/>
<polygon fill="#CDECFC" points="66.6,162.1 66.2,163.4 67.5,163 "/>
<polygon fill="#CDECFC" points="151.7,248 153,248.5 152.6,247.1 "/>
<polygon fill="#CDECFC" points="287.6,108.9 287.2,110.2 289,109.8 "/>
<polygon fill="#CDECFC" points="292.2,110.2 292.2,111.6 293.6,111.1 "/>
<polygon fill="#CDECFC" points="136.7,129.8 134.8,129.3 135.3,130.7 "/>
<polygon fill="#CDECFC" points="292.2,111.6 290.4,112 291.7,112.9 "/>
<polygon fill="#CDECFC" points="160.8,243.5 160.3,244.8 161.7,244.4 "/>
<polygon fill="#CDECFC" points="349.9,274.7 349.8,274.7 349.8,274.8 349.6,275 349.7,275 349.8,274.9 350,274.9 350.1,274.8 
	349.9,274.8 "/>
<polygon fill="#CDECFC" points="345.8,281.1 345.7,281.1 345.7,281.2 345.5,281.4 345.4,281.7 345.7,281.5 345.8,281.4 345.9,281.4 
	345.9,281.3 346,281.3 346,281.2 345.8,281.2 "/>
<polygon fill="#CDECFC" points="106,351.2 106.1,351.1 106.1,351 106.2,351 106.2,350.9 106.2,350.8 105.7,351.2 "/>
<polygon fill="#CDECFC" points="134.4,99.2 134.3,99.1 134.3,99 134.2,99 134.2,98.9 133.9,98.9 134.4,99.3 "/>
<polygon fill="#CDECFC" points="70.1,157.4 70.2,157.4 70.2,157.3 70.3,157.2 70.3,157.1 69.8,157.5 70,157.5 "/>
<polygon fill="#CDECFC" points="235.3,88.2 235.2,88.1 234.9,87.9 235.3,88.4 235.5,88.4 235.5,88.3 235.4,88.3 235.4,88.2 "/>
<polygon fill="#CDECFC" points="189.3,305.2 189.3,305.1 189.4,305.1 189.4,304.9 189,305.3 189.1,305.3 189.2,305.2 "/>
<polygon fill="#CDECFC" points="168,142.3 168,142.1 167.6,142.5 167.8,142.5 167.9,142.4 "/>
<polygon fill="#CDECFC" points="54.3,192.3 54.4,192.3 54.4,192.2 54.5,192.2 54.5,192.1 54.4,192.1 53.9,192.5 54.2,192.4 "/>
<polygon fill="#CDECFC" points="161.9,164.3 162,164.2 162.1,164.1 162.1,164 162.1,163.9 161.7,164.3 "/>
<polygon fill="#CDECFC" points="158.6,163 158.6,162.9 158.8,162.9 158.8,162.8 158.9,162.8 158.9,162.7 158.9,162.5 158.5,163 "/>
<polygon fill="#CDECFC" points="224,85.7 224.4,86.1 224.6,86.1 224.6,86 224.5,86 224.4,85.9 "/>
<polygon fill="#CDECFC" points="61.9,292 62,292 62,291.9 62.1,291.8 62.1,291.7 61.6,292.1 61.9,292.1 "/>
<polygon fill="#CDECFC" points="134.5,365.4 134.4,365.3 133.9,365.8 134.4,365.8 134.5,365.7 134.6,365.7 134.6,365.6 134.6,365.5 
	134.5,365.5 "/>
<polygon fill="#CDECFC" points="85.7,331.7 86,331.5 86.1,331.5 86.2,331.4 86.3,331.3 86.3,331.2 86.2,331.2 "/>
<polygon fill="#CDECFC" points="266.4,158.2 264.3,157.2 263.8,157.1 251.9,158.4 252.1,158.2 252.1,158.1 252.2,157.9 252,157.5 
	251.3,157.1 252.1,156.6 257.3,155.1 263.9,154.6 268.3,155.4 270.3,156.7 270.9,157.7 271.3,158.9 279.9,133.9 274,132.5 
	274,135.7 275.8,136.1 274.5,137.1 274,135.7 272.2,134.3 274,132.5 277.2,130.7 279.9,133.9 287.9,118.9 288.1,118 286.1,117.7 
	284.7,117 283.7,115.8 283.4,115.2 283,112.8 283.7,109.2 284.5,107.5 281.7,105.2 281.5,105.2 281.5,105.1 281.4,105.1 
	281.2,104.9 281.1,104.9 281.1,104.8 280.8,104.8 280.5,104.5 280.3,104.2 280.1,104 280,103.8 279.9,103.7 279.9,103.6 
	279.8,103.4 279.7,103.3 279.7,103.2 279.6,103.1 279.4,103 278.1,102 279.9,109.8 275.4,109.8 278.3,113.4 278.3,113.6 
	278.1,113.6 278,113.5 277.8,113.5 277.4,113.7 277.2,114.3 274.5,112.6 272.6,110.8 269,105.7 270.8,114.3 263.5,106.1 263.4,117 
	264.8,121.7 270.4,129.3 261.3,130.7 268.1,136.1 256.4,132.1 252.6,131.6 253,136.2 256.3,146.1 254.6,145.8 253.2,145.1 
	252.1,144.1 251.2,142.9 247.4,128.3 245.7,126.3 243.9,125.5 243.8,125.5 243.7,125.4 243.6,125.3 243.5,125.2 242.2,125.2 
	240.9,132.6 241.2,137.1 245.3,146.1 254.9,147.7 258,148.9 259.9,150.7 258.5,151.5 255.3,152.5 249.3,152.4 246.7,151.6 
	248.5,160.2 246.2,157.6 245.1,154.8 244.9,154.5 244.2,153.8 240.8,152.1 241.3,158.6 243.4,163.3 250.8,172.1 247.6,174.4 
	244,175.9 241.2,176.3 237.3,175.6 236.3,175.2 238.1,179.9 239.3,181.7 242.1,184.1 245.3,185.4 256.1,187.5 257.2,188.1 
	258.1,188.9 248,189.1 244.5,188.4 238.5,185.3 228.7,172.5 228.1,171.2 227.7,161 234.3,137.5 255.8,96.1 250.8,100.9 237.4,120.5 
	235.8,121.6 234.9,122 236.1,118.2 251.3,94.8 248.9,95.8 247.5,96.7 246.8,97.4 246.7,97.6 246.5,97.8 246,98 240.3,97 
	240.3,100.2 189.3,96.1 174.125,97.736 191.8,93.6 236.3,97.5 231.2,95.1 209.4,91.7 186.677,92.239 221.7,89.3 216.5,87.2 
	156.7,92.9 138.9,98.9 137.6,102 165.7,94 173.663,93.332 115.7,117 123,109.3 118.9,110.1 117.2,111 83.8,142.5 77.5,152.1 
	81.6,150.2 80.7,153.8 78.2,157.7 76.6,163 82.6,158 82.8,154.8 83,154.3 83.2,154 86.2,151.6 86,154.5 85.6,155.5 85.4,155.8 
	82.6,158 81.5,161.2 80.7,162.5 77.5,165.7 76.6,163 72.1,166.2 76.2,155.2 72,160.1 64.2,174.6 62.5,180.7 69.8,171.2 60,201.7 
	59.8,203.9 61.4,202 68.9,183 64.8,201.6 65.8,202 66.7,202 67.4,201.7 67.6,201.7 67.8,201.6 69.9,201.9 70.3,202.3 70.5,202.8 
	70.7,202.8 74.4,199.8 74.4,203.9 87.1,198.4 86.6,202.1 80,206.3 79.2,207.1 75.3,213 71.7,210.3 68.9,209.2 65.9,209 61.4,210 
	59.6,211 56.5,214 55.5,216 55,218.2 55,220.7 57.3,228.2 57.5,228.3 57.6,228.3 58.7,227.9 60.3,228 61,225.8 61,225.5 60.4,224.3 
	59.8,219.4 62.4,216.5 65.5,214.2 67.3,213.7 69.1,213.8 77.5,216.2 83,210.5 84,209.9 86.5,209.4 88.9,209.4 90.6,211.6 
	91.1,212.7 91.1,213 91.2,213.3 91.6,218 95.3,212.5 93.6,210 93.4,209.8 93.1,209.1 93.1,208.9 93,208.6 93,206.6 97,205.4 
	100.3,205.4 103,206.2 112.7,213.1 113.9,213.4 113.8,209.4 113.6,208.6 100.4,198.7 98.6,196.2 97.1,190.3 102.5,191.9 
	115.7,202.5 114.5,198.9 107.6,188 97.7,182.6 94.9,179.4 94,177.7 93.3,174.1 93.8,170 101.2,158.4 113.9,158.9 120.3,166.6 
	119.8,171.2 118.7,174.9 114,183.3 113.8,184.3 113.8,185.2 114.1,186.2 114.7,187.3 115.7,188.4 117.8,186.2 120.8,179.5 
	122.2,178.1 123.2,177.4 130.8,175.7 128.6,181.9 116.7,194.8 119.4,198.9 127.7,190.2 134.4,187.5 133.1,195.5 132.1,197.4 
	130.7,198.8 128.9,200 121.7,203 120.1,215.4 120.6,219.4 122.9,224.7 125.6,228.6 125.8,229.4 126.5,246.8 126.7,247.6 
	129.1,247.2 130.5,246.7 133.4,245 136.2,242.6 139.7,238 141.1,234.4 141.6,230.6 140.8,226.6 133,227 130.8,226.7 124.8,223.5 
	123,218.3 122.4,213.9 122.8,210.2 124.3,207.3 126.8,204.8 134.6,201.4 139.8,200.3 152.7,182.9 155.7,180.8 161.2,179.3 
	161.2,188 183.352,179.217 183.75,177.625 182.428,176.752 172.9,178 156.8,176.9 145.3,173.2 142,170.8 139.7,168.1 133.2,155.6 
	127.4,150.5 107.1,142.5 110.5,139.9 116.2,137.5 118,131.8 122.6,127 134.8,129.3 136.3,121.8 137,120.3 138,119 139.4,117.9 
	141.2,117 139,127.1 139.3,128.8 140.5,130.4 142.8,131.6 144.4,132 143.5,123.8 143.8,121.2 145,118.5 147.2,115.6 169,99.8 
	163.7,100.7 159.5,102.3 144.9,113.7 141.7,115.2 142.4,112.9 145.4,108.7 155.9,102 172.488,98.119 166.7,109.4 165.7,110.3 
	165.3,110.3 163.9,110 162.4,110.4 158,113.9 165.3,112.5 164.4,118 159.1,117.5 155.1,118.5 154,119.1 151.9,120.8 149.9,123.4 
	156.3,121.8 159.2,120.2 159.5,120.2 162.1,121.1 148.5,129.3 152.5,129.1 154.6,128.5 155.1,128.2 155.7,128 158,126.6 160,128 
	162.1,128.7 174.2,130 179.4,132.5 186.5,128.4 211.7,104.3 213.2,106.6 214.7,113.7 215.5,115.4 217.5,117.9 219.2,119.1 
	227.9,121.6 229.8,122.9 230.8,123.9 223.1,127.5 227.6,127 226,129.4 223.5,131.9 213.9,136.6 207.2,138.1 178,155.2 178,155.3 
	177.8,155.5 177.8,155.6 177.7,155.7 177.7,155.8 177.6,155.9 177.6,156.1 177.5,156.2 177.3,156.2 177.3,156.3 177.2,156.3 
	177,156.5 176.9,156.6 176.7,156.6 179.4,158.4 210.8,165.7 204.7,170 189.7,175.8 185.058,176.408 185,177.75 185.868,178.924 
	199.5,178.4 219.4,181.2 218.3,176.1 218,175.6 217.6,175.2 217.2,175.1 216.8,175.1 212.5,176.5 210.3,176.6 208.1,176.2 
	207.8,175.9 207.8,175.6 207.7,175.5 207.2,175.3 204.3,175.2 203.6,175.5 203.5,175.6 203.5,175.8 203.3,176 202.9,176.2 
	202.5,176.1 202,176.1 199.4,175.2 202.3,172.9 205,171.6 207.5,171 215.8,171.3 219.4,170.7 229.3,130.7 233.1,123.9 234.2,125.5 
	234.6,126.7 234.3,127.8 230.6,134.1 223,168.5 227.2,195.7 231.3,205.3 239.2,215.8 247.5,222.2 255.7,225.2 263.3,225.3 
	269.9,223.2 275,219.5 276.9,217.2 278.2,214.8 278.9,212.3 279,209.8 278.6,207.2 276.3,202.7 272.4,199.4 270.1,198.2 
	264.9,197.1 259.4,202.5 259.9,213 263.7,213.8 263.8,213.8 264,213.9 264.1,213.8 264.3,213.8 266.7,213 266.8,211.9 266.5,210.1 
	266.2,209.4 264.5,206.9 264.4,206.5 264.5,206 264.7,205.6 268.5,203 273.5,210.3 270.8,214.2 267.8,217.1 264.6,219.1 
	261.2,220.1 257.6,220.2 254,219.4 250.3,217.8 243.8,212.5 233.9,198.2 231.5,190.1 231.3,186.2 237.9,193 240.8,194.5 242.5,195 
	246.7,195.1 251.9,193.6 258.5,190.3 257.9,193.3 256.6,195.5 254.6,197.2 252.3,198.2 247.2,198.6 242.6,197.5 243.6,203.9 
	244.8,206.5 246.4,208.6 249.6,211 252.2,212 256.7,212.5 255.9,210.8 255.6,209.1 256.1,205.5 257.7,202.1 261.9,196.6 
	263.4,195.3 264.8,194.6 268.8,193.6 270.7,192.6 273.1,190.7 282.6,194.8 278.6,185.1 277,174.3 278.5,152.1 277.4,153.2 
	275.5,156.4 273.5,165.2 273.1,185.7 272.2,184.6 271.1,181.9 271.3,158.9 "/>
</svg>
