<?xml version="1.0" encoding="utf-8"?>
<!-- Generator: Adobe Illustrator 17.0.0, SVG Export Plug-In . SVG Version: 6.00 Build 0)  -->
<!DOCTYPE svg PUBLIC "-//W3C//DTD SVG 1.1//EN" "http://www.w3.org/Graphics/SVG/1.1/DTD/svg11.dtd">
<svg version="1.1" id="solid" xmlns="http://www.w3.org/2000/svg" xmlns:xlink="http://www.w3.org/1999/xlink" x="0px" y="0px"
	 width="240px" height="400px" viewBox="0 0 240 400" enable-background="new 0 0 240 400" xml:space="preserve">
<polygon fill="#FFFFFF" points="148,190.3 146.4,186 144,182.4 140.7,179.9 136.5,178.7 131.4,179 124.9,183.6 121,184 111.6,179.3 
	108,178.8 102.2,180.3 99,182.8 96.5,186.1 94.1,193.3 94.1,197.7 95.1,202.2 96.9,206.6 99.3,210.8 115,228.6 120.9,231.8 
	124.4,231 129.8,227.5 139.6,218.5 144.4,212.5 147.9,205.3 148.7,200.3 148.8,195.2 "/>
<polygon fill="#FFFFFF" points="202.1,332.6 119.5,332.6 119.5,344.1 123,344.4 126,345.3 128.7,346.7 131.2,348.6 133.3,351 
	134.9,353.8 136,357 136.4,360.5 136.1,363.6 135.2,366.6 133.8,369.3 131.8,371.8 129.5,373.9 126.7,375.5 123.5,376.6 119.9,377 
	116.4,376.7 113.2,375.8 110.4,374.4 108,372.4 104.7,367.2 103.8,364.1 103.5,360.5 104.3,357.1 105.5,354 107.1,351.2 
	111.2,346.9 116.3,344.5 119.2,344 119.2,332.6 39.4,332.6 39.4,67.9 202.1,67.9 202.1,75.1 220.2,75.1 219.7,34.5 218.2,29.6 
	215.8,25.1 212.6,21.2 208.7,18 204.3,15.6 199.3,14.1 120.1,13.6 120.1,38.3 137.3,38.3 138,42.5 104.2,43.2 105.1,38.3 
	119.8,38.3 119.8,13.6 42.2,14.1 37.2,15.6 32.8,18 28.9,21.2 25.7,25.1 23.3,29.6 21.8,34.5 21.8,365.9 23.3,370.9 25.7,375.3 
	28.9,379.2 32.8,382.4 37.2,384.8 42.2,386.3 199.3,386.3 204.3,384.8 208.7,382.4 212.6,379.2 215.8,375.3 218.2,370.9 
	219.7,365.9 220.2,75.4 202.1,75.4 "/>
</svg>
