<?xml version="1.0" encoding="utf-8"?>
<!-- Generator: Adobe Illustrator 17.0.0, SVG Export Plug-In . SVG Version: 6.00 Build 0)  -->
<!DOCTYPE svg PUBLIC "-//W3C//DTD SVG 1.1//EN" "http://www.w3.org/Graphics/SVG/1.1/DTD/svg11.dtd">
<svg version="1.1" id="Layer_1" xmlns="http://www.w3.org/2000/svg" xmlns:xlink="http://www.w3.org/1999/xlink" x="0px" y="0px"
	 width="400px" height="400px" viewBox="0 0 400 400" enable-background="new 0 0 400 400" xml:space="preserve">
<polygon fill="#41140F" points="384.4,168 379.5,155 375.9,148.9 366.4,137.7 360.6,132.7 348,124.5 333.9,118.5 318.6,114.8 
	302.5,113.5 290.4,114.3 278.6,116.6 267.2,120.1 256.1,124.7 255.7,114.9 252,101.2 248.9,94.9 245.1,89.1 235.4,79.2 229.7,75.1 
	231.8,68.9 234.6,63 237.9,57.5 241.9,52.3 246.3,47.5 251.3,43.3 256.8,39.5 263.6,35.9 266.7,33.1 268.4,29.4 268.6,25.4 
	267.2,21.3 264.4,18.3 260.8,16.5 256.7,16.3 249.8,19.2 242.3,23.7 235.5,28.9 229.2,34.7 223.6,41.1 218.7,48.1 214.6,55.6 
	209.9,67.5 199.7,66.6 187.9,67.8 185,59.7 181.3,52 176.7,44.7 171.5,38 165.5,31.8 159,26.2 151.8,21.3 144.1,17.2 140,16.2 
	136,16.8 131.8,19.7 129.6,23.3 129,27.4 130,31.3 149.2,45.5 154,50.2 158.2,55.2 161.9,60.7 164.9,66.6 168.2,76 158,84.7 
	153.7,89.9 150.1,95.6 145,108.3 143.7,115.1 143.3,124.4 132.3,119.9 121,116.5 109.3,114.3 97.4,113.5 81.3,114.8 66,118.5 
	51.9,124.5 39.3,132.7 28.4,143.2 20.4,155 15.6,168 14.3,174.7 14.3,188.6 17.6,202 20.4,208.3 28.4,220.2 39.3,230.7 51.9,238.9 
	66,244.9 81.3,248.5 97.4,249.8 109.5,248.9 121.4,246.5 117.9,255.5 115.4,265.1 113.8,275 113.2,285.3 113.6,292.9 116.4,308.5 
	121.9,324.3 130.1,340.4 135.2,348.4 141.7,356.9 148.9,364.5 156.8,371 165.1,376.6 173.9,381 182.9,384.3 192.1,386.3 
	201.4,386.9 209.9,386.3 218.1,384.5 226.3,381.4 234.2,377.1 241.9,371.5 249.4,364.7 263.7,347.6 273.7,331.6 280.9,316 
	285.3,300.5 286.4,292.9 286.7,285.2 286.2,275 284.6,265.1 282.1,255.6 278.6,246.5 290.4,248.9 302.5,249.8 318.6,248.5 
	333.9,244.9 348,238.9 360.7,230.7 371.5,220.2 379.5,208.3 384.4,195.4 386,181.7 "/>
<polygon fill="#FFC711" points="234.8,118.7 233.4,111.9 232.2,108.8 228.9,102.9 224.6,97.8 219.4,93.6 213.4,90.4 206.8,88.4 
	199.7,87.7 192.6,88.4 186,90.4 180,93.6 174.8,97.8 170.4,102.9 167.2,108.8 165.1,115.2 164.4,122.2 165.1,129.7 167.1,138.1 
	200.1,165.4 232.2,138.6 234.1,131 234.9,123.1 "/>
<polygon fill="#FFC711" points="258.9,254.4 253.7,244.9 247.1,236.4 239.4,229.1 230.7,223.1 221.1,218.7 210.8,215.9 205.5,215.2 
	200,214.9 194.5,215.2 189.1,215.9 178.9,218.7 169.3,223.1 160.6,229.1 152.9,236.4 146.3,244.9 141,254.4 137.2,264.8 
	151.4,258.9 167,254.4 183.3,251.7 200,250.8 216.7,251.7 233,254.4 248.6,258.9 262.8,264.8 "/>
<polygon fill="#FFC711" points="168.5,165.7 149.3,151.7 130.7,141.9 117.6,137.5 104.2,135 97.4,134.7 84.8,135.7 73,138.5 
	62.1,143.1 52.4,149.3 45,156.4 39.5,164.3 36.2,172.8 35.1,181.7 36.2,190.6 39.5,199.1 45,207 52.4,214 62.1,220.3 73,224.9 
	84.8,227.7 97.4,228.6 103.4,228.4 109.3,227.5 121,224.5 132.5,219.7 143.8,213.6 165.3,198.2 185,180.8 "/>
<polygon fill="#FFC711" points="232.7,336.3 227.1,333.2 220.9,330.6 214.5,328.7 208.1,327.5 201.6,327 193.5,327.3 186.7,328.4 
	180.1,330.2 174.1,332.6 168.1,335.8 162.3,339.7 158,343.3 162.6,348.2 167.7,352.7 173,356.5 178.5,359.7 184.1,362.3 
	189.9,364.2 195.7,365.4 201.4,365.8 206.5,365.4 211.5,364.3 216.6,362.5 221.5,359.9 226.5,356.6 231.4,352.6 241,342.4 "/>
<polygon fill="#FFC711" points="260.3,287.5 243.5,279.6 225.5,274.5 207,272.1 186,272.7 167.1,276.2 150.2,282.2 134.6,290.6 
	136.1,299.9 138.8,309.5 146.1,325.6 151.1,321.7 158.8,316.8 168.9,311.9 177.4,309 186.2,307 195.3,305.9 209,306.3 217.9,307.7 
	226.5,310.2 234.9,313.5 244.5,318.7 253.2,325 257.6,316.7 261.1,308.6 263.8,299.5 265.3,290.6 "/>
<polygon fill="#FFC711" points="364.6,177.2 363.7,172.8 360.4,164.3 357.9,160.2 351.5,152.7 342.9,146 332.6,140.6 321.1,136.9 
	308.9,135 295.6,135 288.8,136 275.3,139.6 262.3,145.1 249.6,153.1 227.2,169.3 214.9,180.8 239.8,202.4 261.7,216.8 273.1,222.3 
	284.8,226.2 296.6,228.3 302.5,228.6 315.1,227.7 327,224.9 337.9,220.3 347.5,214 355,207 360.4,199.1 362.3,194.9 364.6,186.2 
	364.9,181.7 "/>
<polygon fill="#F89521" points="353.5,177.9 352.3,173.4 350.5,169.1 348.7,166 349.5,173.3 349.3,177.1 348.6,180.9 347.4,184.6 
	343.6,191.6 338.1,198 330.7,203.8 326.4,206.3 317.1,210.2 306.9,212.6 296.2,213.5 287.2,212.7 278.3,210.7 269.6,207.4 
	252.6,198.1 228.9,179.7 225.7,182.8 242.6,197.8 261,210.9 270.6,216.2 280.5,220.2 290.5,222.8 295.6,223.5 303.4,223.7 
	314.1,222.5 324.1,219.7 333.2,215.4 341,209.9 346.9,203.6 349.3,200.2 352.6,193.1 354,185.5 354.1,182.4 "/>
<polygon fill="#F89521" points="353.5,177.9 352.3,173.4 350.5,169.1 348.7,166 349.5,173.3 349.3,177.1 348.6,180.9 347.4,184.6 
	343.6,191.6 338.1,198 330.7,203.8 326.4,206.3 317.1,210.2 306.9,212.6 296.2,213.5 287.2,212.7 278.3,210.7 269.6,207.4 
	252.6,198.1 228.9,179.7 225.7,182.8 242.6,197.8 261,210.9 270.6,216.2 280.5,220.2 290.5,222.8 295.6,223.5 303.4,223.7 
	314.1,222.5 324.1,219.7 333.2,215.4 341,209.9 346.9,203.6 349.3,200.2 352.6,193.1 354,185.5 354.1,182.4 "/>
<polygon fill="#F89521" points="168.3,179.7 144.6,198.1 127.6,207.4 118.9,210.7 110,212.7 101,213.5 90.3,212.6 80.1,210.2 
	70.7,206.3 66.5,203.8 59.1,198 53.6,191.6 49.8,184.6 48.6,180.9 47.6,173.3 48.5,166 44.8,173.4 43.6,177.9 43.1,182.4 
	43.2,185.5 44.6,193.1 46,196.7 50.3,203.6 56.2,209.9 64,215.4 73.1,219.7 83.1,222.5 93.8,223.7 101.6,223.5 106.6,222.8 
	116.7,220.2 126.6,216.2 136.2,210.9 154.6,197.8 171.5,182.8 "/>
<polygon fill="#F89521" points="226,116.2 223.3,110 219.5,104.5 214.7,99.8 209.1,96.1 202.8,93.5 195.9,92.1 188.7,92.1 
	181.8,93.5 178.4,94.9 174.8,97.8 170.4,102.9 167.2,108.8 165.1,115.2 164.4,122.2 165.1,129.7 167.1,138.1 198.9,164.4 
	224.8,142.8 226.8,134.2 227.4,122.9 "/>
<polygon fill="#F89521" points="246.3,249.1 239.7,240.6 232,233.3 223.3,227.3 213.7,222.9 203.4,220.1 198.1,219.4 192.6,219.2 
	187.1,219.4 181.7,220.1 171.4,222.9 165.7,225.6 160.6,229.1 152.9,236.4 146.3,244.9 141,254.4 137.2,264.8 151.4,258.9 
	167,254.4 183.3,251.7 200,250.8 216.7,251.7 233,254.4 248.6,258.9 252.2,260.4 "/>
<polygon fill="#F89521" points="243.3,285.3 226.2,279.6 207.4,276.3 186.7,275.9 168.4,278.3 150.2,283.7 134.7,291.2 147.5,286.7 
	166.2,282.6 187.1,281.2 205.6,282.9 224.1,287.4 241.2,294.7 250.1,299.9 248.6,308.8 245.1,319.2 250.8,323.3 252.3,320.4 
	255.8,312.3 258.5,303.2 260,294.3 "/>
<polygon fill="#F89521" points="226.9,341.6 221,338.1 214.9,335.4 208.7,333.3 202.5,332 195.7,331.3 187.8,331.4 180.9,332.3 
	174.4,333.9 168.3,336.2 165.6,337.5 162.3,339.7 158,343.3 162.6,348.2 167.7,352.7 173,356.5 178.5,359.7 184.1,362.3 
	189.9,364.2 195.7,365.4 201.4,365.8 206.5,365.4 211.5,364.3 216.6,362.5 219.1,360.9 228.8,352.1 233.6,346.7 "/>
</svg>
