<?xml version="1.0" encoding="utf-8"?>
<!-- Generator: Adobe Illustrator 17.0.0, SVG Export Plug-In . SVG Version: 6.00 Build 0)  -->
<!DOCTYPE svg PUBLIC "-//W3C//DTD SVG 1.1//EN" "http://www.w3.org/Graphics/SVG/1.1/DTD/svg11.dtd">
<svg version="1.1" id="Layer_1" xmlns="http://www.w3.org/2000/svg" xmlns:xlink="http://www.w3.org/1999/xlink" x="0px" y="0px"
	 width="400px" height="320px" viewBox="0 40 400 320" enable-background="new 0 40 400 320" xml:space="preserve">
<polygon fill="#ECF2EF" points="189.2,118.5 171.8,114.2 177.8,126.8 214.5,121.7 "/>
<polygon fill="#E6DEC9" points="214.5,121.7 206.1,130.8 248,114.2 "/>
<polygon fill="#70665B" points="331.2,160 321.7,180 321.3,193.5 345.4,183.6 "/>
<polygon fill="#5C574C" points="365.5,188.4 330,209.2 394.7,180 "/>
<polygon fill="#39311F" points="391.1,171 388,164.7 365.5,188.4 394.7,180 "/>
<polygon fill="#6C6356" points="356.8,181.6 365.5,188.4 388,164.7 "/>
<polygon fill="#434138" points="375,165.9 362.7,165.1 356.8,181.6 388,164.7 "/>
<polygon fill="#3D362C" points="356.8,181.6 341,192.7 341.4,195.4 365.5,188.4 "/>
<polygon fill="#453927" points="345.4,183.6 341,192.7 356.8,181.6 362.7,165.1 "/>
<polygon fill="#3C3323" points="345.438,183.583 322.775,198.517 341.4,195.4 341,192.7 "/>
<polygon fill="#564F44" points="330,209.2 306.3,225.4 394.7,180 "/>
<polygon fill="#3C3123" points="341.4,195.4 308.7,214 331.6,207.7 331.9,208.2 365.5,188.4 "/>
<polygon fill="#3B382C" points="278.4,236.4 278.3,236.5 269.3,249.5 306.3,225.4 "/>
<polygon fill="#372C1F" points="331.6,207.7 308.7,214 279,236.1 278.3,236.5 306.3,225.4 331.8,208.2 "/>
<polygon fill="#302316" points="277.5,230.9 278.3,236.5 279,236.1 308.7,214 "/>
<polygon fill="#241B14" points="341.4,195.4 322.646,198.479 282.7,225 257.8,245.1 251.1,254.6 278.375,236.542 277.5,230.9 
	311.333,212.75 "/>
<polygon fill="#2F2A20" points="251.1,254.6 265.7,257.3 269.3,249.5 "/>
<polygon fill="#2F2922" points="251.1,254.6 269.3,249.5 278.3,236.5 "/>
<polygon fill="#7F7D71" points="274,273.5 322.1,266.4 323.3,245.5 "/>
<polygon fill="#8E8B82" points="323.3,245.5 322.1,266.4 350.9,227.8 "/>
<polygon fill="#938F84" points="350.9,227.8 322.1,266.4 349.3,244.3 351.5,227.8 "/>
<polygon fill="#949084" points="322.1,266.4 329.6,281 349.3,244.3 "/>
<polygon fill="#959287" points="264.1,297.2 298.8,310.2 329.6,281 "/>
<polygon fill="#939085" points="322.1,266.4 264.1,297.2 329.6,281 "/>
<polygon fill="#828279" points="274,273.5 264.1,297.2 322.1,266.4 "/>
<polygon fill="#7B7569" points="246.9,280.2 243.6,291.3 264.1,297.2 274,273.5 "/>
<polygon fill="#64594B" points="283.9,254.6 249.6,271.2 246.9,280.2 274,273.5 323.3,245.5 350.9,227.8 351.5,227.8 353.4,212.9 
	"/>
<polygon fill="#3C3930" points="352.167,201.25 306.3,225.4 269.3,249.5 265.7,257.3 255.9,264.1 249.6,271.2 283.9,254.6 
	353.4,212.9 353.367,210.367 "/>
<polygon fill="#24241E" points="251.1,247.5 221,262.4 251.1,254.6 257.8,245.1 "/>
<polygon fill="#2D2D27" points="251.1,254.6 237.7,270 265.7,257.3 "/>
<polygon fill="#3E3E39" points="237.7,270 249.6,271.2 255.9,264.1 265.7,257.3 "/>
<polygon fill="#5B696B" points="237.7,270 229.4,284.6 249.6,271.2 "/>
<polygon fill="#687474" points="229.4,284.6 246.9,280.2 249.6,271.2 "/>
<polygon fill="#9F9F9C" points="253.4,326.3 253.1,332.7 298.8,310.2 "/>
<polygon fill="#A2A6A9" points="215.6,339.8 217.2,342.6 253.1,332.7 "/>
<polygon fill="#ADB0B2" points="215.6,339.8 253.1,332.7 253.4,326.3 "/>
<polygon fill="#8B897F" points="264.1,297.2 230.6,309.8 298.8,310.2 "/>
<polygon fill="#5B4E39" points="243.6,291.3 230.6,309.8 264.1,297.2 "/>
<polygon fill="#573D21" points="223.9,309 230.6,309.8 243.6,291.3 "/>
<polygon fill="#202321" points="229.4,284.6 244.4,286.5 245,286.7 246.9,280.2 "/>
<polygon fill="#202321" points="244.4,286.5 219.2,302.3 223.9,309 243.6,291.3 245,286.7 "/>
<polygon fill="#1A1D1C" points="219.2,302.3 199.1,307.9 192,319.7 223.9,309 "/>
<polygon fill="#2B2E2A" points="229.4,284.6 202.6,286.5 200.2,286.4 199.8,306.7 199.1,307.9 219.2,302.3 244.4,286.5 "/>
<polygon fill="#333835" points="199.5,286.4 162.4,318.1 199.1,307.9 199.8,306.7 200.2,285.7 "/>
<polygon fill="#1D221F" points="162.4,318.1 152.1,324 192,319.7 199.1,307.9 "/>
<polygon fill="#73878B" points="152.1,324 135.2,319.3 160.8,328.3 192,319.7 "/>
<polygon fill="#29211C" points="192,319.7 160.8,328.3 175.4,325.2 205.4,320.5 "/>
<polygon fill="#271E15" points="223.9,309 192,319.7 205.4,320.5 230.6,309.8 "/>
<polygon fill="#999D98" points="298.8,310.2 230.6,309.8 205.4,320.5 253.5,325.6 253.4,326.3 "/>
<polygon fill="#B0B9BA" points="205.4,320.5 215.6,339.8 253.4,326.3 253.5,325.6 "/>
<polygon fill="#B0B8B9" points="205.4,320.5 175.4,325.2 160.8,328.3 215.6,339.8 "/>
<polygon fill="#574D3E" points="321.3,193.5 282.7,225 345.4,183.6 "/>
<polygon fill="#918F8A" points="310.7,143 321.7,180 331.2,160 "/>
<polygon fill="#878987" points="310.7,143 305.6,158.9 321.7,180 "/>
<polygon fill="#C2D8E6" points="305.6,158.9 301.3,172.3 312.2,182.8 321.3,193.5 321.7,180 "/>
<polygon fill="#5F492E" points="312.2,182.8 301.3,172.3 298.4,181.2 306.5,198.6 321.3,193.5 "/>
<polygon fill="#5D482C" points="283.7,206.4 282.7,225 321.3,193.5 "/>
<polygon fill="#816752" points="315,113.8 309.5,139.8 310.7,143 315.4,119.7 "/>
<polygon fill="#BBB9B1" points="307.9,93.7 305.9,129.6 315,113.8 "/>
<polygon fill="#A4A098" points="305.9,129.6 309.5,139.8 315,113.8 "/>
<polygon fill="#554230" points="309.5,139.8 293.3,177.3 305.5,158.8 305.6,158.9 310.7,143 "/>
<polygon fill="#B7B5A2" points="305.9,129.6 290.2,152.9 309.5,139.8 "/>
<polygon fill="#573D26" points="293.5,157.7 293.7,158 292.9,158.3 282.3,170.2 293.3,177.3 309.5,139.8 "/>
<polygon fill="#ADA192" points="290.2,152.9 293.5,157.7 309.5,139.8 "/>
<polygon fill="#BFB697" points="291.7,84.2 307.1,103.9 307.9,93.7 "/>
<polygon fill="#C49E5C" points="285.4,75.1 291.7,84.2 307.9,93.7 "/>
<polygon fill="#AE7F43" points="291.7,84.2 268.1,99.2 307.1,103.9 "/>
<polygon fill="#B58D4C" points="289.2,116.1 305.9,129.6 307.1,103.9 "/>
<polygon fill="#AA7C3F" points="268.1,99.2 289.2,116.1 307.1,103.9 "/>
<polygon fill="#5D5244" points="306.3,198.2 298.4,181.2 283.7,206.4 306.5,198.6 "/>
<polygon fill="#A06B31" points="254.3,139.8 290.2,152.9 305.9,129.6 "/>
<polygon fill="#AA7B42" points="289.2,116.1 254.3,139.8 305.9,129.6 "/>
<polygon fill="#493725" points="305.5,158.8 293.3,177.3 283.7,206.4 298.4,181.2 301.3,172.3 305.6,158.9 "/>
<polygon fill="#AE8F7E" points="290.2,152.9 262.2,171.4 292.9,158.3 293.5,157.7 "/>
<polygon fill="#49392D" points="273.2,196.2 283.7,206.4 293.3,177.3 "/>
<polygon fill="#4C2A1A" points="282.3,170.2 273.2,196.2 293.3,177.3 "/>
<polygon fill="#867262" points="262.2,171.4 282.3,170.2 292.9,158.3 "/>
<polygon fill="#B58F4D" points="285.4,75.1 272.4,71.6 291.7,84.2 "/>
<polygon fill="#B48B50" points="272.4,71.6 261.8,77.5 268.1,99.2 291.7,84.2 "/>
<polygon fill="#986127" points="254.3,139.8 262.2,171.4 290.2,152.9 "/>
<polygon fill="#AB763B" points="268.1,99.2 254.3,139.8 289.2,116.1 "/>
<polygon fill="#CEA766" points="253.5,60.6 272.4,71.6 285.4,75.1 "/>
<polygon fill="#5F492E" points="271.6,227 282.7,225 283.7,206.4 "/>
<polygon fill="#483A30" points="273.2,196.2 249.2,227.4 283.5,206.5 283.6,206.6 283.7,206.4 "/>
<polygon fill="#483A30" points="283.5,206.5 249.2,227.4 251.1,247.5 271.6,227 283.6,206.6 "/>
<polygon fill="#5B462F" points="271.6,227 251.1,247.5 257.8,245.1 282.7,225 "/>
<polygon fill="#43291D" points="248,186.4 273.2,196.2 282.3,170.2 "/>
<polygon fill="#87776D" points="230.6,185.2 248,186.4 282.3,170.2 "/>
<polygon fill="#A89E98" points="262.2,171.4 230.6,185.2 282.3,170.2 "/>
<polygon fill="#514138" points="234.5,217.1 249.2,227.4 273.2,196.2 "/>
<polygon fill="#493028" points="248,186.4 234.5,217.1 273.2,196.2 "/>
<polygon fill="#D0AF74" points="246.8,61.7 261.8,77.5 272.4,71.6 "/>
<polygon fill="#BE9C5A" points="253.5,60.6 246.8,61.7 272.4,71.6 "/>
<polygon fill="#BA8A48" points="261.8,77.5 256.3,92.5 256.6,102 268.1,99.2 "/>
<polygon fill="#C69657" points="243.6,128.4 254.3,139.8 268.1,99.2 "/>
<polygon fill="#BD8B49" points="256.6,102 248,114.2 243.6,128.4 268.1,99.2 "/>
<polygon fill="#AD773E" points="254.3,139.8 214.1,169.8 262.2,171.4 "/>
<polygon fill="#B47F45" points="214.1,169.8 230.6,185.2 262.2,171.4 "/>
<polygon fill="#C0985A" points="246.8,61.7 241.6,72 261.8,77.5 "/>
<polygon fill="#D1A362" points="251.5,85.8 242.4,94.5 256.3,92.5 261.8,77.5 "/>
<polygon fill="#C19151" points="239.2,75.8 234.9,82.7 251.5,85.8 261.8,77.5 "/>
<polygon fill="#D3AB6D" points="241.6,72 239.2,75.8 261.8,77.5 "/>
<polygon fill="#E9E0C5" points="256.3,92.5 242.4,94.5 256.6,102 "/>
<polygon fill="#C18F4C" points="233.1,103.2 248,114.2 256.6,102 "/>
<polygon fill="#E7E9DB" points="242.4,94.5 233.6,96.5 233,103.2 256.6,102 "/>
<polygon fill="#D8BC88" points="243.6,128.4 214.1,169.8 254.3,139.8 "/>
<polygon fill="#B89B6D" points="210.5,55.4 246.8,61.7 253.5,60.6 "/>
<polygon fill="#EBE7D1" points="234,91.9 233.6,96.5 242.4,94.5 251.5,85.8 "/>
<polygon fill="#EBF2E9" points="234.9,82.7 234,91.9 251.5,85.8 "/>
<polygon fill="#5E5550" points="249.2,227.4 205.8,241.2 233.8,246.3 251.1,247.5 "/>
<polygon fill="#2F322F" points="221,262.4 219.2,263.3 214.6,264.1 237.7,270 251.1,254.6 "/>
<polygon fill="#6C7779" points="233.8,246.3 215.6,254.6 214.5,264.1 219.25,263.375 251.1,247.5 "/>
<polygon fill="#5C504A" points="234.5,217.1 210.4,222.8 205.8,241.2 249.2,227.4 "/>
<polygon fill="#CB995A" points="206.1,130.8 243.6,128.4 248,114.2 "/>
<polygon fill="#4E372E" points="205.4,197.8 234.5,217.1 248,186.4 "/>
<polygon fill="#CC9B56" points="183.3,115 171.8,114.2 189.2,118.5 214.5,121.7 248,114.2 "/>
<polygon fill="#C3924E" points="233.1,103.2 232.8,103.2 221.2,108.3 223.5,114.2 248,114.2 "/>
<polygon fill="#A69E97" points="194.3,193.5 205.4,197.8 248,186.4 "/>
<polygon fill="#B59678" points="230.6,185.2 194.3,193.5 248,186.4 "/>
<polygon fill="#C79E60" points="198.3,65.7 241.6,72 246.8,61.7 "/>
<polygon fill="#C9A867" points="208.5,57.8 173,59.8 198.3,65.7 246.8,61.7 "/>
<polygon fill="#C4A19D" points="210.5,55.4 208.5,57.8 246.8,61.7 "/>
<polygon fill="#E3DBC6" points="209.3,145.7 214.1,169.8 243.6,128.4 "/>
<polygon fill="#D3B075" points="206.1,130.8 209.3,145.7 243.6,128.4 "/>
<polygon fill="#CFA667" points="230.3,75.1 239.2,75.8 241.6,72 "/>
<polygon fill="#C79B59" points="199.4,72.8 230.3,75.1 241.6,72 "/>
<polygon fill="#DDBF8A" points="198.2,65.7 199.4,72.8 241.6,72 "/>
<polygon fill="#C49A59" points="230.3,75.1 221.5,77.5 208.1,86.6 234.9,82.7 239.2,75.8 "/>
<polygon fill="#464C4C" points="214.6,264.1 214.5,264.1 219.6,275.9 229.4,284.6 237.7,270 "/>
<polygon fill="#EBF2F2" points="196.7,105.1 234,91.9 234.9,82.7 "/>
<polygon fill="#C79B59" points="208.1,86.6 183.3,104.7 196.7,105.1 234.9,82.7 "/>
<polygon fill="#56413A" points="234.5,217.1 205.4,197.8 210.5,222.2 210.4,222.8 "/>
<polygon fill="#EDF5EE" points="196.7,105.1 233.6,96.5 234,91.9 "/>
<polygon fill="#5A5351" points="205.8,241.2 215.6,254.6 233.8,246.3 "/>
<polygon fill="#EAEBDD" points="196.7,105.1 232.8,103.2 233,103.2 233.6,96.5 "/>
<polygon fill="#E7EBE9" points="196.7,105.1 183.3,104.7 189.6,111 221.2,108.3 232.8,103.2 "/>
<polygon fill="#B6864F" points="214.1,169.8 194.3,193.5 230.6,185.2 "/>
<polygon fill="#C79B5C" points="199.4,72.8 184.9,82.7 221.5,77.5 230.3,75.1 "/>
<polygon fill="#373733" points="219.6,275.9 214.5,264.1 186,269.2 200.2,285.7 200.2,286.4 202.6,286.5 229.4,284.6 "/>
<polygon fill="#E6E2D6" points="221.2,108.3 189.6,111 183.3,115 223.5,114.2 "/>
<polygon fill="#E1EBE8" points="189.2,86.6 188,90.9 208.1,86.6 221.5,77.5 "/>
<polygon fill="#EBE8CF" points="184.9,82.7 189.2,86.6 221.5,77.5 "/>
<polygon fill="#A2AAAC" points="215.6,339.8 166.3,342.9 217.2,342.6 "/>
<polygon fill="#B8C8CF" points="166.3,342.9 166.7,345.7 217.2,342.6 "/>
<polygon fill="#595653" points="205.8,241.2 199.9,249.5 215.6,254.6 "/>
<polygon fill="#535C5D" points="186,269.2 214.5,264.1 215.6,254.6 "/>
<polygon fill="#585A58" points="199.9,249.5 186,269.2 215.6,254.6 "/>
<polygon fill="#C5D3D8" points="160.8,328.3 166.3,342.9 215.6,339.8 "/>
<polygon fill="#EBDFBD" points="177.8,126.8 206.1,130.8 214.5,121.7 "/>
<polygon fill="#E3D0AF" points="209.3,145.7 184.6,150.8 214.1,169.8 "/>
<polygon fill="#A9753F" points="178.7,186.1 194.3,193.5 214.1,169.8 "/>
<polygon fill="#A9753D" points="164.3,179.3 178.7,186.1 214.1,169.8 "/>
<polygon fill="#DBB27E" points="184.6,150.8 183.8,150.9 164.3,179.3 214.1,169.8 "/>
<polygon fill="#CEC9B7" points="175.8,57 208.5,57.8 210.5,55.4 "/>
<polygon fill="#634E48" points="205.4,197.8 184.1,229 210.4,222.8 210.5,222.2 "/>
<polygon fill="#6E6560" points="184.1,229 168.3,239.2 205.8,241.2 210.4,222.8 "/>
<polygon fill="#DBAD6D" points="206.1,130.8 177.8,126.8 209.3,145.7 "/>
<polygon fill="#E5D3A9" points="177.8,126.8 184.1,150.5 184.6,150.8 209.3,145.7 "/>
<polygon fill="#C8CECC" points="175.8,57 173,59.8 208.5,57.8 "/>
<polygon fill="#EAF1EA" points="188,90.9 176.6,107.1 183.3,104.7 208.1,86.6 "/>
<polygon fill="#737271" points="168.3,239.2 199.9,249.5 205.8,241.2 "/>
<polygon fill="#705D57" points="160.4,203.7 184.1,229 205.4,197.8 "/>
<polygon fill="#B6B3AF" points="154.9,197 160.4,203.7 205.4,197.8 "/>
<polygon fill="#B5A79C" points="194.3,193.5 154.9,197 205.4,197.8 "/>
<polygon fill="#34342F" points="186,269.2 155.3,284.6 199.5,286.4 200.2,285.7 "/>
<polygon fill="#686462" points="168.3,239.2 186,269.2 199.9,249.5 "/>
<polygon fill="#282A27" points="155.3,284.6 162.4,318.1 199.5,286.4 "/>
<polygon fill="#DFC189" points="198.3,65.7 157.7,71.6 171.5,77.1 199.5,72.8 "/>
<polygon fill="#D0A462" points="171.4,77.1 162,94.5 184.9,82.7 199.4,72.8 "/>
<polygon fill="#C6A060" points="173,59.8 157.6,71.6 198.2,65.7 "/>
<polygon fill="#B58450" points="178.7,186.1 154.9,197 194.3,193.5 "/>
<polygon fill="#E9EAE0" points="176.6,107.1 183.3,115 189.6,111 "/>
<polygon fill="#EBE0C1" points="183.3,104.7 176.6,107.1 189.6,111 "/>
<polygon fill="#E8EAEB" points="171.4,103.9 176.6,107.1 188,90.9 189.2,86.6 "/>
<polygon fill="#ECE7D2" points="184.9,82.7 162,94.5 171.4,103.9 189.2,86.6 "/>
<polygon fill="#737271" points="168.3,239.2 153.3,240.8 155.3,257.3 186,269.2 "/>
<polygon fill="#95AFB6" points="165.5,268.8 155.3,284.6 186,269.2 "/>
<polygon fill="#859A9E" points="155.3,257.3 130,255.4 165.5,268.8 186,269.2 "/>
<polygon fill="#DEB677" points="177.8,126.8 164.7,154.8 183.8,150.9 184.1,150.5 "/>
<polygon fill="#7E726D" points="160.4,203.7 133.6,227 184.1,229 "/>
<polygon fill="#75706D" points="153.3,240.8 168.3,239.2 184.1,229 "/>
<polygon fill="#807F7D" points="133.6,227 153.3,240.8 184.1,229 "/>
<polygon fill="#E4DBC7" points="164.7,154.8 164.3,179.3 183.8,150.9 "/>
<polygon fill="#E8E3D3" points="176.6,107.1 171.4,103.9 171.8,114.2 183.3,115 "/>
<polygon fill="#B17F4A" points="164.3,179.3 154.9,197 178.7,186.1 "/>
<polygon fill="#E8ECE9" points="171.8,114.2 153.3,119.3 177.8,126.8 "/>
<polygon fill="#E4E2C4" points="153.3,119.3 164.7,154.8 177.8,126.8 "/>
<polygon fill="#C3CBBD" points="140.7,64.1 173,59.8 175.8,57 "/>
<polygon fill="#C7A467" points="137.5,67.7 157.6,71.6 173,59.8 "/>
<polygon fill="#CECEC9" points="140.7,64.1 137.5,67.7 173,59.8 "/>
<polygon fill="#E4DFCC" points="171.4,103.9 152.5,111.8 153.3,119.3 171.8,114.2 "/>
<polygon fill="#E8D5AE" points="137.5,94.1 162,94.5 171.4,77.1 "/>
<polygon fill="#EAE1CF" points="116.6,88.2 137.5,94.1 171.4,77.1 "/>
<polygon fill="#DDC087" points="157.6,71.6 157,71.8 117.3,87.8 116.6,88.2 171.4,77.1 "/>
<polygon fill="#EAE6D3" points="162,94.5 152.5,111.8 171.4,103.9 "/>
<polygon fill="#B0C1C8" points="166.3,342.9 127.688,335.833 166.7,345.7 "/>
<polygon fill="#BAC9CD" points="127.708,335.75 119.296,338.579 166.596,345.679 "/>
<polygon fill="#BDCDCF" points="160.8,328.3 135.2,319.3 166.3,342.9 "/>
<polygon fill="#B4CAD2" points="135.2,319.3 127.7,335.8 130.4,336.5 166.3,342.9 "/>
<polygon fill="#AFCED9" points="132.4,276.7 155.3,284.6 165.5,268.8 "/>
<polygon fill="#B9D9E2" points="130,255.4 132.4,276.7 165.5,268.8 "/>
<polygon fill="#E9EEEC" points="153.3,119.3 145.8,130 164.7,154.8 "/>
<polygon fill="#ECE8D4" points="145.8,130 133.6,147.3 164.7,154.8 "/>
<polygon fill="#E7DBC3" points="133.6,147.3 132.7,148.4 164.3,179.3 164.7,154.8 "/>
<polygon fill="#A97742" points="138.1,181.7 154.9,197 164.3,179.3 "/>
<polygon fill="#D3B483" points="119,164.3 138.1,181.7 164.3,179.3 "/>
<polygon fill="#E2C494" points="132.7,148.4 119,164.3 164.3,179.3 "/>
<polygon fill="#292E2A" points="155.3,284.6 134.4,304.7 162.4,318.1 "/>
<polygon fill="#2E3936" points="151.7,318.1 135.2,319.3 152.1,324 162.4,318.1 "/>
<polygon fill="#35403C" points="134.4,304.7 135.2,319.3 151.7,318.1 162.4,318.1 "/>
<polygon fill="#CD9F5F" points="145.3,103.3 152.5,111.8 162,94.5 "/>
<polygon fill="#EBF0E9" points="137.5,94.1 145.3,103.3 162,94.5 "/>
<polygon fill="#B3B0AE" points="154.9,197 111.9,193.5 160.4,203.7 "/>
<polygon fill="#857B79" points="120.8,210.4 133.6,227 160.4,203.7 "/>
<polygon fill="#929594" points="113.5,201 120.8,210.4 160.4,203.7 "/>
<polygon fill="#BBC3C7" points="111.9,193.5 113.5,201 160.4,203.7 "/>
<polygon fill="#C4A063" points="137.5,67.7 116.7,88.2 117.3,87.8 157,71.8 157.7,71.6 "/>
<polygon fill="#889192" points="153.3,240.8 108.1,237.7 130,255.4 155.3,257.3 "/>
<polygon fill="#B1CED8" points="132.4,276.7 134.4,304.7 155.3,284.6 "/>
<polygon fill="#B28452" points="138.1,181.7 89,186.4 111.9,193.5 154.9,197 "/>
<polygon fill="#EAE6D3" points="152.5,111.8 138.3,120.1 153.3,119.3 "/>
<polygon fill="#D9CAAB" points="138.3,120.1 145.8,130 153.3,119.3 "/>
<polygon fill="#8C9292" points="133.6,227 107.6,237.3 108.1,237.7 153.3,240.8 "/>
<polygon fill="#E6C892" points="145.3,103.3 137.9,107.1 138.2,114.4 152.5,111.8 "/>
<polygon fill="#CEA261" points="138.2,114.4 138.3,120.1 152.5,111.8 "/>
<polygon fill="#EAE9D8" points="138.3,120.1 133.6,147.3 145.8,130 "/>
<polygon fill="#EBF5F6" points="137.5,94.1 137.9,107.1 145.3,103.3 "/>
<polygon fill="#D5D3C9" points="108,75.5 137.5,67.7 140.7,64.1 "/>
<polygon fill="#EDEEE3" points="138.2,114.4 117,118.2 110.3,131.6 138.3,120.1 "/>
<polygon fill="#ECE7CE" points="110.3,131.6 133.6,147.3 138.3,120.1 "/>
<polygon fill="#ECF5F6" points="137.9,107.1 117,118.2 138.2,114.4 "/>
<polygon fill="#A57844" points="119,164.3 89,186.4 138.1,181.7 "/>
<polygon fill="#E5DCBF" points="137.5,94.1 117,118.2 137.9,107.1 "/>
<polygon fill="#C89E5D" points="83.9,136.7 110.3,131.6 117,118.2 137.5,94.1 "/>
<polygon fill="#BA985A" points="110.3,77.5 89,90.1 116.6,88.2 137.5,67.7 "/>
<polygon fill="#CBD4C6" points="108,75.5 89,90.1 110.3,77.5 137.5,67.7 "/>
<polygon fill="#E2D9B8" points="116.6,88.2 104,99.6 113.6,113.1 137.5,94.1 "/>
<polygon fill="#A2BAC4" points="134.4,304.7 91.8,319.7 135.2,319.3 "/>
<polygon fill="#ABC3CD" points="91.8,319.6 127.7,335.8 135.2,319.3 "/>
<polygon fill="#A2BFC7" points="132.4,276.7 96.1,289.7 134.4,304.7 "/>
<polygon fill="#9AB2BA" points="96.1,289.7 91.8,319.7 134.4,304.7 "/>
<polygon fill="#938B89" points="120.8,210.4 94.5,214.8 133.6,227 "/>
<polygon fill="#E5DECC" points="110.3,131.6 93.6,147.5 94.2,148.1 132,147.7 133.6,147.3 "/>
<polygon fill="#99A2A3" points="94.5,214.8 105.9,236 107.6,237.3 133.6,227 "/>
<polygon fill="#DBBD8A" points="132,147.7 94.2,148.1 94.5,148.5 119,164.3 132.7,148.4 "/>
<polygon fill="#B3D3DC" points="130,255.4 108.1,237.7 106.8,237.6 132.4,276.7 "/>
<polygon fill="#A3C3CA" points="106.8,237.6 88.6,248.7 132.4,276.7 "/>
<polygon fill="#A7C4CE" points="88.6,248.7 96.1,289.7 132.4,276.7 "/>
<polygon fill="#C6D9E7" points="91.583,319.521 119.4,338.6 127.875,335.792 "/>
<polygon fill="#958A8A" points="113.5,201 94.5,214.8 120.8,210.4 "/>
<polygon fill="#C7DCE3" points="91.8,319.7 84.7,321.2 119.4,338.6 "/>
<polygon fill="#B2834D" points="92.5,162.8 89,186.4 119,164.3 "/>
<polygon fill="#BE8E54" points="94.5,148.5 92.5,162.8 119,164.3 "/>
<polygon fill="#C7A466" points="89,90.1 91.8,110.6 92,110.5 116.6,88.2 "/>
<polygon fill="#E7D19E" points="113.5,113 104,99.6 91.8,110.6 91.5,111.1 91.1,112 83.9,136.7 113.6,113.1 "/>
<polygon fill="#B8BCB9" points="111.9,193.5 89,186.4 113.5,201 "/>
<polygon fill="#A39694" points="72.7,201.2 94.5,214.8 113.5,201 "/>
<polygon fill="#AAABA9" points="79.2,188 72.7,201.2 113.5,201 "/>
<polygon fill="#C2D0D7" points="89,186.4 79.2,188 113.5,201 "/>
<polygon fill="#E1C38A" points="83.9,136.7 93.6,147.5 110.3,131.6 "/>
<polygon fill="#CCD5CC" points="81.1,90.9 89,90.1 108,75.5 "/>
<polygon fill="#859EA3" points="105.9,236 89.8,223 68.9,223 67.1,222.5 67,223 88.6,248.7 106.8,237.6 "/>
<polygon fill="#A0ADAD" points="94.5,214.8 72.7,201.2 89.8,223 105.9,236 "/>
<polygon fill="#8CA1A8" points="88.6,248.7 46.8,261.3 96.1,289.7 "/>
<polygon fill="#B1C9D3" points="56.3,283.8 72.9,305.1 91.8,319.7 96.1,289.7 "/>
<polygon fill="#A3B9C2" points="46.8,261.3 56.3,283.8 96.1,289.7 "/>
<polygon fill="#C29A61" points="94.2,148.1 93,148.1 94.5,148.5 "/>
<polygon fill="#B78B4E" points="66.9,157.3 70.1,161.5 92.5,162.8 94.5,148.5 "/>
<polygon fill="#B78F55" points="52.3,138.2 66.9,157.3 94.5,148.5 "/>
<polygon fill="#C29A61" points="83.9,136.7 52.3,138.2 93,148.1 93.6,147.5 "/>
<polygon fill="#B48E59" points="70.1,161.5 89,186.4 92.5,162.8 "/>
<polygon fill="#C8AA72" points="89,90.1 65,110.6 91.8,110.6 "/>
<polygon fill="#C2A167" points="65,110.6 83.9,136.7 91.1,112 91.5,111.1 91.8,110.6 "/>
<polygon fill="#CEE3EE" points="72.9,305.1 84.7,321.2 91.8,319.7 "/>
<polygon fill="#AAC4CB" points="72.7,201.2 67.1,222.5 68.9,223 89.8,223 "/>
<polygon fill="#A98753" points="70.1,161.5 55.9,160.7 68.1,175.3 89,186.4 "/>
<polygon fill="#CFD7D5" points="81.1,90.9 65,110.6 89,90.1 "/>
<polygon fill="#E0ECF0" points="68.1,175.3 79.2,188 89,186.4 "/>
<polygon fill="#92A6AD" points="87.7,247.6 67,223 46.8,261.3 88.6,248.7 "/>
<polygon fill="#D1E7F1" points="72.9,305.1 57.5,294.8 84.7,321.2 "/>
<polygon fill="#BE9961" points="65,110.6 52.3,138.2 83.9,136.7 "/>
<polygon fill="#C6D0C7" points="57.1,114.2 65,110.6 81.1,90.9 "/>
<polygon fill="#F3FAFB" points="68.1,175.3 55.9,160.7 57.9,173.4 79.2,188 "/>
<polygon fill="#C0ABA7" points="59.8,184.8 72.7,201.2 79.2,188 "/>
<polygon fill="#C8D4D9" points="57.9,173.4 59.8,184.8 79.2,188 "/>
<polygon fill="#D9F0F7" points="56.3,283.8 57.5,294.8 72.9,305.1 "/>
<polygon fill="#A6BBC4" points="59.8,184.8 52.6,195.8 56.7,197.4 72.7,201.2 "/>
<polygon fill="#8B9EA3" points="56.7,197.4 52.6,195.8 52.3,196.2 66.6,222.3 67.1,222.5 72.7,201.2 "/>
<polygon fill="#B99663" points="66.9,157.3 55.9,160.7 70.1,161.5 "/>
<polygon fill="#AFC7CE" points="66.6,222.3 46.6,216.3 46.4,216.7 44.1,240 46.8,261.3 67,223 "/>
<polygon fill="#B59461" points="52.3,138.2 55.9,160.7 66.9,157.3 "/>
<polygon fill="#8A9C9F" points="52.3,196.2 41.3,214.8 66.6,222.3 "/>
<polygon fill="#C8D7D5" points="57.1,114.2 52.3,138.2 65,110.6 "/>
<polygon fill="#DDEFF6" points="57.9,173.4 44.9,142.2 47.2,162.3 50.4,169.8 59.8,184.8 "/>
<polygon fill="#C0CBCA" points="55.9,160.7 44.9,142.2 57.9,173.4 "/>
<polygon fill="#D8F0F6" points="56.3,283.8 43.7,266.4 57.5,294.8 "/>
<polygon fill="#CBD9D8" points="44.9,142.2 52.3,138.2 57.1,114.2 "/>
<polygon fill="#E7F5FA" points="46.8,261.3 39.7,235.7 43.7,266.4 56.3,283.8 "/>
<polygon fill="#B9C3BC" points="52.3,138.2 44.9,142.2 55.9,160.7 "/>
<polygon fill="#788382" points="41.3,191.1 28.3,181.6 22.8,173 20,203.3 52.3,196.2 52.6,195.8 "/>
<polygon fill="#778486" points="20,203.3 41.3,214.8 52.3,196.2 "/>
<polygon fill="#898583" points="47.2,162.3 36.6,167.8 50.4,169.8 "/>
<polygon fill="#BBD8DE" points="44.9,142.2 24.3,144.9 24.3,160.4 47.2,162.3 "/>
<polygon fill="#97A0A3" points="24.3,160.4 22.8,173 36.6,167.8 47.2,162.3 "/>
<polygon fill="#F2FAFB" points="44.1,240 46.4,216.7 46.6,216.3 43.3,215.4 39.7,235.7 46.8,261.3 "/>
<polygon fill="#EFF8FA" points="17.6,145.7 7.4,185.6 24.3,160.4 24.3,145 24.3,144.9 "/>
<polygon fill="#898987" points="7.4,185.6 22.8,173 24.3,160.4 "/>
<polygon fill="#727C7A" points="7.4,185.6 20,203.3 22.8,173 "/>
<polygon fill="#D8EDF6" points="7.4,163.1 7.4,185.6 17.6,145.7 "/>
</svg>
