<?xml version="1.0" encoding="utf-8"?>
<!-- Generator: Adobe Illustrator 17.0.0, SVG Export Plug-In . SVG Version: 6.00 Build 0)  -->
<!DOCTYPE svg PUBLIC "-//W3C//DTD SVG 1.1//EN" "http://www.w3.org/Graphics/SVG/1.1/DTD/svg11.dtd">
<svg version="1.1" id="Layer_1" xmlns="http://www.w3.org/2000/svg" xmlns:xlink="http://www.w3.org/1999/xlink" x="0px" y="0px"
	 width="400px" height="400px" viewBox="0 0 400 400" enable-background="new 0 0 400 400" xml:space="preserve">
<polygon fill="#DECDC0" points="381.5,94.7 343.2,56.4 322.9,75.8 326.5,82.5 326.8,85.5 326.5,88.5 324.3,93.7 320.3,97.7 
	315,99.9 312,100.2 306.3,99.1 301.6,95.9 298.4,91.2 297.3,85.5 297.6,82.5 299.8,77.2 303.8,73.2 309.1,71 315,71 320.3,73.2 
	322.5,75.4 342.7,55.9 302.1,15.3 209.2,15 12.1,212.2 184.6,384.7 381.8,187.6 "/>
<rect x="90.956" y="158.624" transform="matrix(0.7071 -0.7071 0.7071 0.7071 -164.38 164.3516)" fill="#A09288" width="50.487" height="243.952"/>
<polygon fill="#DC4F72" points="386.3,278.7 381.7,264.1 374.5,250.8 365,239.3 353.4,229.7 340.2,222.5 325.5,218 309.8,216.4 
	294.1,218 279.4,222.5 266.2,229.7 254.6,239.3 245.1,250.8 237.9,264.1 233.4,278.7 231.8,294.4 233.4,310.2 237.9,324.8 
	245.1,338.1 254.6,349.6 266.2,359.1 279.4,366.3 294.1,370.9 309.8,372.5 325.5,370.9 340.2,366.3 353.4,359.1 365,349.6 
	374.5,338.1 381.7,324.8 386.3,310.2 387.8,294.4 "/>
<polygon fill="#FFFFFF" points="358.5,270.7 355.6,269.5 294.5,328.8 266.4,300.8 263.3,300.1 260.6,301.9 260,305 290.6,336.7 
	293.5,338.9 297,338.3 359,275.9 359.7,272.8 "/>
<polygon fill="#A09288" points="325.3,90.7 322.1,95.6 317.2,98.9 311.6,99.9 306.1,98.9 301.2,95.6 297.9,90.7 296.8,85.1 
	297.9,79.6 301.2,74.7 306.1,71.4 311.6,70.4 317.2,71.4 322.1,74.7 325.3,79.6 326.3,84.7 344.6,84.7 344,78.8 342.2,72.7 
	339.2,67 335,61.8 329.8,57.6 324.1,54.6 317.9,52.8 311.6,52.2 305.3,52.8 299.2,54.6 293.5,57.6 288.3,61.8 284.1,67 281.1,72.7 
	279.2,78.8 278.6,85.1 279.2,91.5 281.1,97.6 284.1,103.3 288.3,108.5 293.5,112.7 299.2,115.7 305.3,117.5 311.6,118.1 
	317.9,117.5 324.1,115.7 329.8,112.7 335,108.5 339.2,103.3 342.2,97.6 344,91.5 344.6,85.7 326.3,85.7 "/>
</svg>
