<?xml version="1.0" encoding="utf-8"?>
<!-- Generator: Adobe Illustrator 17.0.0, SVG Export Plug-In . SVG Version: 6.00 Build 0)  -->
<!DOCTYPE svg PUBLIC "-//W3C//DTD SVG 1.1//EN" "http://www.w3.org/Graphics/SVG/1.1/DTD/svg11.dtd">
<svg version="1.1" id="Layer_1" xmlns="http://www.w3.org/2000/svg" xmlns:xlink="http://www.w3.org/1999/xlink" x="0px" y="0px"
	 width="400px" height="400px" viewBox="0 0 400 400" enable-background="new 0 0 400 400" xml:space="preserve">
<polygon fill="#CF3B27" points="99,224.3 110.4,240.6 215.3,302.5 229,301.5 "/>
<polygon fill="#FFE8B9" points="182.6,262.4 181.4,258.9 179.5,255.7 176.9,252.9 173.8,250.5 170.2,248.9 166.5,248 162.7,247.9 
	159.1,248.5 155.6,249.8 152.4,251.7 149.5,254.2 93.5,349.1 92.7,352.8 92.5,356.6 93.1,360.2 94.4,363.7 96.3,367 98.9,369.8 
	102,372.1 105.6,373.7 109.3,374.6 113,374.7 116.7,374.2 120.2,372.9 123.4,371 126.2,368.4 182.2,273.5 183.1,269.8 183.2,266.1 
	"/>
<polygon fill="#F26623" points="342.9,63.9 335.7,56.8 323.9,47.8 262.6,13.2 252.1,10.1 248.7,10 244.6,12.9 99,224.3 229,301.5 
	343.4,70.9 "/>
<polygon fill="#E85824" points="260,44.4 257.8,42.2 255,41.1 250.6,41.5 248.1,43.2 145.3,199.5 146.5,203.7 148.7,205.9 
	151.5,207.1 154.5,207 158.4,205 260.7,51.6 261.3,48.6 "/>
<polygon fill="#E85824" points="288.6,61.1 286.4,59 283.5,58 280.5,58.1 276.7,60.3 179.5,220.2 180.9,224.4 183.2,226.5 
	186.1,227.5 190.4,226.9 192.9,225.2 289.6,68.3 290,65.3 "/>
<polygon fill="#E85824" points="313.8,75.8 311.4,73.9 308.5,73 304.2,73.9 301.8,75.8 215.3,238.6 215.1,241.6 216.7,245.6 
	219.1,247.6 222,248.5 225,248.2 228.7,245.7 315.2,82.9 315.5,79.9 "/>
<polygon fill="#EFD9B1" points="144.7,270.2 144.3,270 113.5,322.1 113.9,322.4 114.1,322.9 145.2,270 "/>
<polygon fill="#EFD9B1" points="155.2,262.4 155.1,261.9 102.9,350.1 103.4,350.2 103.8,350.4 155.6,262.7 "/>
<polygon fill="#EFD9B1" points="139.8,302.5 139.7,302 118.8,336.9 119.2,337.2 119.3,337.7 140.2,302.8 "/>
<polygon fill="#EFD9B1" points="161.2,280 160.8,279.8 148.5,300.5 148.9,300.8 149,301.3 161.7,280.1 "/>
<path fill="#F26623" d="M181,266.7l-3.303,7.537L175.7,276.9l-10.4,8.6l-2.3,2.4l-1.9,3.1l-1.1,4.3v3.3l0.6,3.3l1.3,3l3.2,3l3,0.6
	l3.8-0.8l2.9-2.8l1.2-4l1-10.8l4-13l0.7-5.5L181,266.7z M177.8,274.1l-0.066,0.088l1.566-3.488L177.8,274.1z"/>
</svg>
