<?xml version="1.0" encoding="utf-8"?>
<!-- Generator: Adobe Illustrator 17.0.0, SVG Export Plug-In . SVG Version: 6.00 Build 0)  -->
<!DOCTYPE svg PUBLIC "-//W3C//DTD SVG 1.1//EN" "http://www.w3.org/Graphics/SVG/1.1/DTD/svg11.dtd">
<svg version="1.1" id="solid" xmlns="http://www.w3.org/2000/svg" xmlns:xlink="http://www.w3.org/1999/xlink" x="0px" y="0px"
	 width="400px" height="100px" viewBox="0 0 400 100" enable-background="new 0 0 400 100" xml:space="preserve">
<polygon fill="#4477BC" points="370.2,48.6 365.8,48.1 359.7,47.6 343,46.6 229.5,43.9 92,44 43.1,45.2 26.4,46 20.3,46.4 
	15.8,46.9 12.2,47.9 15.8,49 20.3,49.5 26.3,50 43,51 156.5,53.7 294,53.6 342.9,52.4 359.6,51.6 365.7,51.2 370.2,50.7 373.9,49.7 
	"/>
<polygon fill="#4477BC" points="385.5,49.1 381.1,49 377.3,49.2 367.9,50.7 357.8,53.2 348,56.7 338.8,60.9 327.8,67.5 321.8,72 
	319.3,74.1 314.3,79.1 312.3,81.7 310.6,84.3 313.1,86.1 339,71.4 355.2,63.7 383.8,53.2 386.7,51.9 388.6,50.2 "/>
<polygon fill="#4477BC" points="383.3,47 353.4,35.5 345.3,31.7 315.2,14.3 312.2,13.7 312.7,16.7 314.7,19.6 317,22.3 322.3,27.3 
	324.9,29.5 330.9,33.9 334.3,36.1 341.9,40.2 351.2,44.3 360.2,47.3 370,49.4 374.3,50 381.2,50.4 384.5,50.1 386.1,49.2 "/>
</svg>
