<?xml version="1.0" encoding="utf-8"?>
<!-- Generator: Adobe Illustrator 17.0.0, SVG Export Plug-In . SVG Version: 6.00 Build 0)  -->
<!DOCTYPE svg PUBLIC "-//W3C//DTD SVG 1.1//EN" "http://www.w3.org/Graphics/SVG/1.1/DTD/svg11.dtd">
<svg version="1.1" id="solid" xmlns="http://www.w3.org/2000/svg" xmlns:xlink="http://www.w3.org/1999/xlink" x="0px" y="0px"
	 width="400px" height="400px" viewBox="0 0 400 400" enable-background="new 0 0 400 400" xml:space="preserve">
<polygon fill="#33B8EB" points="371.5,129.9 364.2,110.5 379.1,90.7 358.2,100.6 378.1,80.8 353.3,87.7 351.3,82.8 348.8,78.1 
	342.7,69.5 335.2,62 331,58.8 323.2,54.2 316.4,51.4 309.3,49.5 302,48.4 298.4,48.2 292.6,48.4 281.4,50.3 276,52.1 270,54.9 
	264.4,58.3 259.3,62.4 254.7,67 250.6,72.1 247.1,77.6 244.2,83.5 242.2,89.7 240.8,96.8 240.3,104.1 240.8,111.4 242.9,120.4 
	244.9,125.8 214.7,126.8 184.5,124.3 154.8,118.2 126.1,108.5 87.4,88.9 52.7,62.9 48.5,73.6 45.8,84.7 44.5,96.1 44.7,107.5 
	47.8,124.6 50.6,132.9 54.2,140.8 58.5,148.4 63.5,155.5 69.2,162.1 75.5,168.1 72.9,166.9 67.5,165.5 64.7,165.3 59.1,165.7 
	56.4,166.4 53.8,167.4 51.3,168.7 49,170.2 46.8,172.1 44.9,174.1 43.2,176.3 41.8,178.7 40.6,181.3 39.2,186.6 39,192 39.2,194.7 
	40.5,200.1 42.6,205.1 45.4,209.8 48.7,214.1 56.6,221.6 64.1,227 72.1,231.4 80.6,235 89.4,237.5 86.9,237.2 84.5,237.2 79.7,238 
	77.3,238.7 75.1,239.7 73,240.9 71,242.3 69.2,244 67.6,245.8 66.2,247.8 65,249.9 64,252.2 63.3,254.5 62.8,256.9 62.6,259.3 
	62.8,263.4 63.7,267.3 65.1,271 67.1,274.6 69.5,277.8 72.2,280.7 78.6,285.7 85.6,289.6 125.2,304.8 100.6,317.9 74.8,328.6 
	48.2,336.9 20.9,342.7 93.7,348.9 166.8,346.7 216.8,339.6 265.2,325.6 288.2,315 309.8,301.8 329.4,285.9 346.3,267.3 357.8,250.1 
	366.9,231.4 373.4,211.8 377.2,191.4 378.1,170.7 376.2,150.1 371.5,129.9 "/>
</svg>
