<?xml version="1.0" encoding="utf-8"?>
<!-- Generator: Adobe Illustrator 17.0.0, SVG Export Plug-In . SVG Version: 6.00 Build 0)  -->
<!DOCTYPE svg PUBLIC "-//W3C//DTD SVG 1.1//EN" "http://www.w3.org/Graphics/SVG/1.1/DTD/svg11.dtd">
<svg version="1.1" id="solid" xmlns="http://www.w3.org/2000/svg" xmlns:xlink="http://www.w3.org/1999/xlink" x="0px" y="0px"
	 width="400px" height="320px" viewBox="0 0 400 320" enable-background="new 0 0 400 320" xml:space="preserve">
<polygon fill="#CE9013" points="241.7,29.4 238.5,30.2 236.1,32.3 234.5,35.1 233.6,39.5 234,43.9 235.8,48.8 257.9,79.3 
	250.3,81.7 235.1,88.6 220.8,98.2 207.8,109.9 200.2,118.6 186.8,104.4 173.1,93.8 158.3,85.4 150.6,82.3 142.9,80 165.1,49.4 
	166.9,44.5 167.3,40.1 166.4,35.7 164.8,32.9 162.4,30.8 159.1,30 8.1,55 105.3,175 108,176.9 111.2,177.5 114.3,177.1 117.2,175.7 
	119.8,173.3 123.5,166.1 125.9,131.3 130.6,131.5 135.2,132.5 141.5,135.8 145.4,138.8 159.7,155.3 166,164.6 168.5,169.5 
	170.5,174.5 173.2,185.4 174.4,294.3 226.5,294.9 227.6,184.8 230.4,173.9 232.4,168.8 234.8,164 248.2,145.9 255.5,138.2 
	259.3,135.1 263.5,132.8 267.9,131.2 275,130.7 277.4,165.5 279.6,170.6 281.9,173.7 284.6,175.7 287.6,176.8 290.8,176.8 
	294,175.7 392.7,54.4 "/>
</svg>
