<?xml version="1.0" encoding="utf-8"?>
<!-- Generator: Adobe Illustrator 17.0.0, SVG Export Plug-In . SVG Version: 6.00 Build 0)  -->
<!DOCTYPE svg PUBLIC "-//W3C//DTD SVG 1.1//EN" "http://www.w3.org/Graphics/SVG/1.1/DTD/svg11.dtd">
<svg version="1.1" id="solid" xmlns="http://www.w3.org/2000/svg" xmlns:xlink="http://www.w3.org/1999/xlink" x="0px" y="0px"
	 width="400px" height="340px" viewBox="0 30 400 340" enable-background="new 0 30 400 340" xml:space="preserve">
<polygon fill="#010101" points="302.9,156.3 296.4,168.5 294.9,172.6 294.7,175.3 295.3,177.8 296.5,179.9 298.3,181.8 355.6,205.3 
	357.7,205.4 359.7,204.3 391.1,122.2 391.1,119.6 390.3,117.2 385.9,114 332.6,96.3 328.9,97.1 326.8,98.7 318.1,119.9 308.8,120.7 
	301.1,122.9 299,124 291.1,133 289.4,134.2 254.5,134.8 254.7,130.3 256.5,125.3 264.6,113.7 280.5,114.5 282.3,113.3 284.1,110.4 
	286.5,99.4 289.3,99.3 291.1,98 286.4,60.7 284.7,58.1 250.5,50.3 246.6,50.6 243.1,51.9 240.2,54.2 237.8,57.5 234.2,70.9 
	233.1,92.3 231.3,95.5 228.7,97.4 226,97.6 223.5,97 191.8,81.3 181.5,79.9 170.2,81.7 159.4,87 158.4,89.1 159.2,91 169.6,91.8 
	193.5,95 215.1,104.5 210.2,104.8 203,107.9 113.2,188.7 105.2,200.4 102.9,200.1 99.4,200.7 95.7,202.6 78,221.3 72.8,230.8 
	72.5,233.9 73.6,235.7 72.8,238.8 73.2,241.8 75,243.9 77.5,244.6 83.3,241.9 87,241.8 89.3,240.8 106.8,227.6 109.3,226.7 
	108.2,235.1 108.5,241 109.2,243.1 110.9,245.1 114.5,245.7 117.2,244.1 119.7,237.9 120.8,226.7 119.7,218.6 121.9,215.3 
	179.1,169.6 160.6,193.7 143.9,231.4 142.8,244.8 146.9,278.2 146.3,283.4 142.7,289.6 143,309.7 75.8,297.7 73,295.9 71.3,293.4 
	69.4,282.4 67.4,276.7 64.3,272.2 62.7,270.8 40.1,284.4 38.2,286.5 37.1,288.4 37.3,291 20.3,302.6 14.7,309 11.2,316 10.5,320.2 
	11.3,323.5 13.6,325.9 17.5,327.3 20.4,326.8 23.2,325.3 30.3,316.9 33.3,315.2 50.4,317.1 56.2,316.2 57.3,318.7 56.8,326.3 
	60.1,329.2 156,350.7 159.8,349.5 164.2,346 174.9,331.9 210.9,250.6 268.9,229.8 271.8,229.5 274.2,230 311.3,305.4 312.6,319.3 
	315.2,325.3 314.1,328.8 314.5,331.5 316.6,333.1 328.3,331.7 335.4,329.1 337.7,327.6 339.1,325.9 384.2,313.6 387.1,311.8 
	388.6,310.1 388.5,307.5 387,306.1 382.1,304.8 361.9,306.6 356.8,305.8 333.5,292.9 331.7,291.1 330.3,287.9 332.6,287.5 
	334.5,286.8 336.3,285.1 336.9,282.3 336.3,279 296.2,192.3 225.2,198.1 231.5,183.6 239.9,175.1 246.3,157.8 250.6,155.9 
	297.2,154.1 300.9,154.7 302.7,155.9 308.5,145.4 311.2,127.8 318.4,127.6 308,148.6 308.4,146.3 "/>
</svg>
