<?xml version="1.0" encoding="utf-8"?>
<!-- Generator: Adobe Illustrator 17.0.0, SVG Export Plug-In . SVG Version: 6.00 Build 0)  -->
<!DOCTYPE svg PUBLIC "-//W3C//DTD SVG 1.1//EN" "http://www.w3.org/Graphics/SVG/1.1/DTD/svg11.dtd">
<svg version="1.1" id="Layer_1" xmlns="http://www.w3.org/2000/svg" xmlns:xlink="http://www.w3.org/1999/xlink" x="0px" y="0px"
	 width="400px" height="400px" viewBox="0 0 400 400" enable-background="new 0 0 400 400" xml:space="preserve">
<polygon fill="#3D5741" points="350.1,100.7 334.8,65.2 321.5,73 345.4,140.5 348.6,170.3 345.9,197.3 338.2,224.5 326.1,248.2 
	309.5,268.4 274.1,293.6 208.8,317.2 171.5,321 148.1,317.8 122.9,307.9 46.2,245.7 34.9,255.2 100.5,312.2 128.4,327.7 
	169.6,336.3 209,332.8 280.7,307.5 321.8,277.8 340.8,253.7 354.3,225.2 362.2,192.4 363.8,164.3 "/>
<polygon fill="#E2E0C4" points="351.3,141.8 331.2,67.5 321.3,73 340.6,145.9 342.7,176 339.8,201.9 331.8,225.5 319.4,246.6 
	302.6,265.3 281.4,281.6 228.6,303.8 159.2,310.8 146.2,309.8 120.3,302.9 96.6,289.9 50.6,242.4 42.2,249 89.4,298.5 114.2,312.7 
	164.7,322.2 202.5,320.4 259.7,304.7 287.3,291 311.2,272.6 329.8,251.2 343.3,227 351.5,200 "/>
<polygon fill="#DD5857" points="326.5,70.5 313.7,77.1 85.6,214.9 77.4,224.2 51.8,241.4 48.3,244.2 88.5,289.7 116.9,305.9 
	162.3,316.5 211.1,313.2 248.1,301.7 291.4,276.5 322.7,242.9 338.5,208.4 343.2,169.9 "/>
<polygon fill="#F28273" points="272.2,143.1 271.8,143.1 290.9,162.5 "/>
<polygon fill="#F28273" points="278.6,133.1 278.3,133 290.2,149.7 "/>
<polygon fill="#F28273" points="258.3,158.7 258.1,158.6 268.3,175.9 "/>
<polygon fill="#F28273" points="240,157.6 239.7,157.6 255.9,192.7 "/>
<polygon fill="#F28273" points="224.6,181.3 224.3,181.2 239.4,203.8 "/>
<polygon fill="#F28273" points="206.3,185.7 206,185.7 222,214.8 "/>
<polygon fill="#F28273" points="190.5,198 190.3,198 209.7,229.5 "/>
<polygon fill="#F28273" points="184.3,213.8 181.4,204.1 181.1,204 184.4,215.4 200.5,245.1 "/>
<polygon fill="#F28273" points="173,212.9 172.1,207.7 171.8,207.5 172,211.1 185.2,241.5 "/>
<polygon fill="#F28273" points="162.3,228 162,228 170.4,242.2 "/>
<polygon fill="#F28273" points="148.3,214.7 148.1,214.7 164.3,250.5 "/>
<polygon fill="#F28273" points="138.3,228.7 138.1,228.7 148.2,250.2 "/>
<polygon fill="#F28273" points="123.9,234.9 123.6,234.8 137.7,264.5 "/>
<polygon fill="#F28273" points="113.9,239.9 113.9,237.8 113.6,237.7 113.4,239.7 127.2,267.3 132.1,274.3 "/>
<polygon fill="#F28273" points="106.1,241.4 105.8,241.3 123.2,276.5 "/>
<polygon fill="#F28273" points="94,236.8 93.8,236.7 104.1,259.9 "/>
<polygon fill="#F28273" points="83.7,250.5 83.4,250.4 90.2,265.6 "/>
<polygon fill="#F28273" points="123.8,221.4 123.5,221.4 135.6,251 "/>
<polygon fill="#F28273" points="147.4,214.6 147.1,214.5 156.9,236.6 "/>
<polygon fill="#F28273" points="167.3,199.9 167,199.9 182.9,229.6 "/>
<polygon fill="#F28273" points="190.9,183.2 190.6,183.1 201,203.5 "/>
<polygon fill="#F28273" points="214.8,177.6 214.6,177.6 222.7,190.8 "/>
<polygon fill="#F28273" points="230.2,168.7 230,168.7 235.6,175.7 "/>
<polygon fill="#F28273" points="292.8,132.1 292.5,132 304.8,158.7 "/>
<polygon fill="#F28273" points="307.1,138.8 306.9,138.6 310,151.2 "/>
<polygon fill="#F28273" points="319.4,120.9 319.1,120.7 321.9,129.5 "/>
<polygon fill="#F28273" points="328.7,128.8 329,141.1 329,129 "/>
<polygon fill="#F28273" points="279.2,159 279,158.9 280.4,166.8 "/>
<polygon fill="#F28273" points="170.5,265.4 170.2,265.3 174.9,281.1 "/>
<polygon fill="#F28273" points="153,267.1 152.7,267 154.5,270.5 "/>
<polygon fill="#F28273" points="133.7,256.8 133.4,256.7 145.5,288.4 "/>
<polygon fill="#F28273" points="134.2,275.4 133.9,275.3 138.7,287.7 "/>
<polygon fill="#F28273" points="230.6,252.3 230.4,252.3 242.2,275.9 "/>
<polygon fill="#F28273" points="252.6,252.9 252.4,252.9 259.4,264.2 "/>
<polygon fill="#F28273" points="278.1,240.3 274.9,236.9 274.7,236.8 278.4,241.7 280.3,245.1 "/>
<polygon fill="#F28273" points="303.5,218.6 303.2,218.4 305.5,225.8 "/>
<polygon fill="#F28273" points="308.2,180.1 307.2,179.1 311,189.9 "/>
<polygon fill="#F28273" points="314.7,160.4 314.4,160.2 317.7,171.9 "/>
<polygon fill="#F28273" points="324.4,146.7 324.1,146.5 326.7,157.8 "/>
<polygon fill="#F28273" points="278.6,142.4 278.4,142.3 284.5,159.7 "/>
<polygon fill="#F28273" points="254.9,145.6 254.6,145.4 261,171.4 "/>
<polygon fill="#F28273" points="217.1,148.2 216.8,148.1 220.7,180.1 "/>
<polygon fill="#F28273" points="180.2,172 180,171.9 186.3,199.5 "/>
<polygon fill="#F28273" points="158.4,187 158.1,186.8 163.7,216.3 "/>
<polygon fill="#F28273" points="127.9,211.3 127.6,211.2 135.1,234.7 "/>
<polygon fill="#F28273" points="120.8,210.8 120.6,210.7 130.4,237.1 "/>
<polygon fill="#29100E" points="216.3,243.2 215.2,241.5 212.8,244 207.2,245.1 211.4,248.3 212.4,251.5 211.9,254.3 213.6,256.2 
	215.7,254.4 216.3,251.9 214.3,249 "/>
<polygon fill="#29100E" points="203.3,261.1 200.5,257.9 198,258.2 199.4,259.9 200.6,265.3 203.1,268.3 204.1,264.9 "/>
<polygon fill="#29100E" points="248.4,223 247.4,222.6 245.4,223 242.3,224.1 241.7,226.3 243.6,227 246.3,230.2 249.6,229.5 
	250,226.6 "/>
<polygon fill="#29100E" points="266.5,217.8 263.3,217.1 261.6,215.2 261.1,211.2 261.2,211.1 259.5,212.3 258.9,214.9 256.6,214.2 
	255.2,215.9 256.2,218.4 261.1,219.1 264,222.5 266.6,223.9 268.6,222.2 "/>
<polygon fill="#29100E" points="284,214.7 280.7,212.6 278,210.4 276.6,208.4 277.7,207.3 275.8,208.3 275.6,211.7 276.9,213.6 
	278.9,213.6 279.8,215.7 281.9,217 283.7,218.6 285.9,218.8 "/>
<polygon fill="#29100E" points="293.8,194.2 290.8,192.7 289.3,192.7 290.1,194.7 292.9,197.2 295.9,198.7 296.6,196.6 "/>
<polygon fill="#D16558" points="171.8,237.6 173,243.8 173,245.8 173.9,248.3 175.2,250.5 176.7,251.9 177.8,250.1 "/>
<g>
	<polygon fill="#D16558" points="95.1,264 91.9,264.6 97.6,266.3 	"/>
	<polygon fill="#D16558" points="77.7,257.4 70.4,258.2 70.3,258.2 90.3,264.2 80.2,257.7 	"/>
</g>
<polygon fill="#D16558" points="291.2,132.8 261.2,152.1 293.7,132.9 "/>
<polygon fill="#D16558" points="280.7,189.8 277,183.1 274.6,180.4 260.1,171.4 260,171.4 281.4,192 "/>
<polygon fill="#D16558" points="306.6,153.5 305.2,151.8 296.9,145.7 292.6,144.1 306.9,155.6 "/>
<polygon fill="#D16558" points="238.3,176.8 237.1,175 235.3,173.2 233.4,172.1 232.5,171.9 236.9,183.6 239,180.2 "/>
<polygon fill="#D16558" points="239.9,168.4 239.8,168.4 257.8,189.5 "/>
<polygon fill="#D16558" points="214.3,194 214.1,194 231.3,218.9 "/>
<polygon fill="#D16558" points="198.8,200.2 198.7,200.2 213.8,217.3 "/>
<polygon fill="#D16558" points="192.6,197.1 192.4,197 212.4,227 "/>
<polygon fill="#D16558" points="182.2,207.5 182.1,207.5 194.7,224.6 "/>
<polygon fill="#D16558" points="199.2,181.3 199,181.3 217.7,203.1 "/>
<polygon fill="#D16558" points="214.4,180.9 214.3,180.9 228.9,196.8 "/>
<polygon fill="#D16558" points="225.5,171.6 225.3,171.6 241.1,193.7 "/>
<polygon fill="#D16558" points="235.6,161.6 235.4,161.6 248.8,185 "/>
<polygon fill="#D16558" points="241.2,155.3 241.1,155.3 256.9,181.1 "/>
<polygon fill="#D16558" points="250.2,150 250,149.9 268.7,172.6 "/>
<polygon fill="#D16558" points="261.2,148.9 261.1,148.9 279,168.4 "/>
<polygon fill="#D16558" points="267.4,148.7 267.3,148.7 280.6,164.3 "/>
<polygon fill="#D16558" points="270.1,140.7 269.9,140.7 292.9,168.8 "/>
<path fill="#D16558" d="M271.3,137.6l22.7,21L271.3,137.6"/>
<polygon fill="#D16558" points="280.4,138.7 280.3,138.7 302.6,157.3 "/>
<polygon fill="#D16558" points="284.2,133.5 284.1,133.5 313.4,151.7 "/>
<polygon fill="#D16558" points="287.9,146.7 288,146.8 316.3,168 "/>
<polygon fill="#D16558" points="281.2,155.6 281.1,155.6 286.5,159.8 "/>
<polygon fill="#D16558" points="168.6,210.7 168.3,210.6 185.9,251.8 "/>
<polygon fill="#D16558" points="165.2,223.2 164.8,223.1 175.7,243.9 "/>
<g>
	<polygon fill="#D16558" points="166.4,213.3 166,217 168.211,222.75 166.5,214.3 	"/>
	<polygon fill="#D16558" points="185.3,267.2 168.211,222.75 169.8,230.6 	"/>
</g>
<polygon fill="#D16558" points="153.8,219.1 153.4,218.9 176,266.9 "/>
<polygon fill="#D16558" points="142.2,224.3 141.9,224.1 163.9,269 "/>
<polygon fill="#D16558" points="130.5,212.8 130.1,212.7 149.6,268.4 "/>
<polygon fill="#D16558" points="114.7,225.9 114.3,225.8 132.7,270.7 "/>
<polygon fill="#D16558" points="102,241.9 101,236.4 100.6,236.2 101.1,240.8 114.4,266.7 "/>
<g>
	<polygon fill="#D16558" points="159.4,207.2 162.8,219.5 162.962,219.85 159.3,205.6 	"/>
	<polygon fill="#D16558" points="172.8,241.1 162.962,219.85 163.9,223.5 	"/>
</g>
<polygon fill="#D16558" points="170.2,188 169.9,187.9 185.6,223 "/>
<polygon fill="#D16558" points="180.3,180.8 179.9,180.7 200.9,221.6 "/>
<polygon fill="#D16558" points="194.3,192.1 194,192.1 212.5,219.5 "/>
<polygon fill="#D16558" points="190.3,179.8 190,179.7 209.2,207.3 "/>
<polygon fill="#D16558" points="193.7,170.6 193.4,170.6 232.8,218.9 "/>
<polygon fill="#D16558" points="202,169.2 201.8,169.2 225.9,197 "/>
<polygon fill="#D16558" points="211.1,155.2 210.9,155.2 226.3,178.2 "/>
</svg>
