<?xml version="1.0" encoding="utf-8"?>
<!-- Generator: Adobe Illustrator 17.0.0, SVG Export Plug-In . SVG Version: 6.00 Build 0)  -->
<!DOCTYPE svg PUBLIC "-//W3C//DTD SVG 1.1//EN" "http://www.w3.org/Graphics/SVG/1.1/DTD/svg11.dtd">
<svg version="1.1" id="solid" xmlns="http://www.w3.org/2000/svg" xmlns:xlink="http://www.w3.org/1999/xlink" x="0px" y="0px"
	 width="400px" height="160px" viewBox="0 0 400 160" enable-background="new 0 0 400 160" xml:space="preserve">
<polygon fill="#EA687E" points="192.4,31.2 189.2,29 188.1,28.9 144,30.1 131.8,33.6 120.4,39.4 110.1,47.2 108.6,49.8 109.2,53.7 
	111.6,55.8 114.6,56.1 125.9,48.2 135.6,43.3 146,40.4 189.2,39.2 192.4,37 193.3,34.1 "/>
<polygon fill="#EA687E" points="107.9,56.6 104.1,55.6 99.6,59.3 98.5,62.5 100,66.1 102.9,67.6 106.1,67.1 109.6,62.9 110,59.9 "/>
<polygon fill="#EA687E" points="321.5,55.9 317.7,53.8 314.7,53.8 310.8,55.9 308.8,59.7 308.8,62.8 310.8,66.6 314.7,68.7 
	316.2,68.8 320.4,67.5 323.2,64.2 323.6,59.7 "/>
<polygon fill="#EA687E" points="322.9,90.1 319.1,88 317.6,87.9 314.6,88.5 311.3,91.2 310,95.5 311.3,99.7 314.6,102.4 317.6,103 
	321.8,101.7 324.6,98.4 325,93.9 "/>
<polygon fill="#EA687E" points="349.8,43.7 346.4,41 342,40.5 338.1,42.6 336.1,46.4 336.1,49.5 338.1,53.3 342,55.4 343.5,55.5 
	347.7,54.2 350.5,50.9 351.1,47.9 "/>
<polygon fill="#EA687E" points="357.3,77.9 354,75.2 351.1,74.6 348.1,75.2 344.8,77.9 343.5,82.1 344.1,85.1 346.8,88.4 
	351.1,89.7 355.3,88.4 358,85.1 358.6,82.1 "/>
<polygon fill="#EA687E" points="341.3,111 337.4,108.9 335.9,108.8 331.7,110.1 328.9,113.4 328.5,117.9 330.6,121.7 334.4,123.8 
	337.4,123.8 341.3,121.7 343.3,117.9 343.3,114.8 "/>
<polygon fill="#EA687E" points="297.1,42.6 293.2,40.5 291.7,40.4 287.5,41.7 284.7,45 284.3,49.5 286.3,53.3 290.2,55.4 
	293.2,55.4 297.1,53.3 299.1,49.5 299.1,46.4 "/>
<polygon fill="#EA687E" points="290.4,75.8 287.1,73 284.1,72.4 279.9,73.7 277.2,77.1 276.7,81.5 278.8,85.4 282.6,87.4 
	285.7,87.4 289.5,85.4 291.5,81.5 291.7,80 "/>
<polygon fill="#EA687E" points="297.1,105.2 293.2,103.2 291.7,103 287.5,104.3 284.7,107.7 284.3,112.1 286.3,116 290.2,118 
	293.2,118 297.1,116 299.1,112.1 299.1,109.1 "/>
<polygon fill="#EA687E" points="388.3,77.8 374.5,77.8 374.7,80 373.5,91.5 370.2,102.2 364.9,111.9 357.9,120.4 349.4,127.4 
	339.7,132.7 329,136 316.3,137.2 304.7,136 293.9,132.7 284.2,127.4 275.8,120.4 268.8,111.9 263.5,102.2 260.2,91.5 259.1,77.8 
	245.3,77.8 247.2,97 253,112.5 262.2,126.1 274.1,137.2 132.3,136 121.5,132.7 111.8,127.4 103.4,120.4 96.4,111.9 91.1,102.2 
	87.8,91.5 86.5,79.4 86.7,77.8 70.5,77.8 70.5,89.6 66.9,85.4 65.4,79.3 65.9,77.8 48.4,77.8 48.2,85.9 45,97 38.9,106.7 
	30.5,114.3 25.5,117.3 25.5,103.9 30.8,103.8 34.1,101.7 34.9,98.7 34.1,95.8 30.8,93.7 25.5,93.5 25.5,89.7 11.9,89.7 11.8,128.7 
	13.2,131.5 16.3,133.7 19.8,133.9 33.4,128.8 44.6,120.8 53.3,110.5 59.4,98.3 67.5,103.7 72.3,105.2 77.4,105.7 88,123.9 
	103.2,138.3 122.2,147.7 132.7,150.2 331.8,149.6 345.1,145.5 357.2,138.9 367.7,130.2 376.4,119.7 382.9,107.6 387.1,94.3 
	388.5,80 "/>
<polygon fill="#EA687E" points="387.1,65.7 382.9,52.4 376.4,40.3 367.7,29.8 357.2,21.1 345.1,14.5 331.8,10.4 129.1,10.5 
	115.5,14.8 103.2,21.7 92.6,30.8 83.8,42 77.5,54.3 72.3,54.8 67.5,56.3 59.4,61.7 53.3,49.5 44.6,39.2 33.4,31.2 19.5,26 
	16.4,26.3 13.7,28 12.1,30.6 11.9,89.7 25.5,89.7 25.5,85.2 40.4,85.1 43.1,83.7 44.5,81 44.2,78 41.4,75.2 25.5,74.8 25.5,69 
	30.8,68.9 34.1,66.7 34.9,63.8 34.1,60.9 30.8,58.7 25.5,58.6 25.5,42.7 34.7,48.9 41.8,57.2 46.6,67.2 48.4,77.8 65.9,77.8 
	67.3,73.8 70.5,70.4 70.5,77.8 86.7,77.8 87.9,67.8 91,58 95.8,49 102.4,40.6 111,33.2 120.9,27.6 131.9,24.1 274.1,22.8 
	262.4,33.6 253.4,46.8 247.5,61.8 245.3,77.8 259.1,77.8 260.5,67.1 264,56.7 269.4,47.2 276.3,39 284.7,32.3 294.3,27.2 
	304.9,23.9 317.3,22.8 329,24 339.7,27.3 349.4,32.6 357.9,39.6 364.9,48.1 370.2,57.8 373.5,68.5 374.5,77.8 388.3,77.8 "/>
</svg>
