<?xml version="1.0" encoding="utf-8"?>
<!-- Generator: Adobe Illustrator 17.0.0, SVG Export Plug-In . SVG Version: 6.00 Build 0)  -->
<!DOCTYPE svg PUBLIC "-//W3C//DTD SVG 1.1//EN" "http://www.w3.org/Graphics/SVG/1.1/DTD/svg11.dtd">
<svg version="1.1" id="solid" xmlns="http://www.w3.org/2000/svg" xmlns:xlink="http://www.w3.org/1999/xlink" x="0px" y="0px"
	 width="400px" height="400px" viewBox="0 0 400 400" enable-background="new 0 0 400 400" xml:space="preserve">
<polygon fill="#565656" points="219.5,196 218.4,192.2 216.5,188.9 214.1,185.9 211.1,183.5 207.8,181.6 204,180.5 200,180.1 
	196,180.5 192.2,181.6 188.9,183.5 185.9,185.9 183.5,188.9 181.6,192.2 180.5,196 180.1,200 180.5,204 181.6,207.8 183.5,211.1 
	185.9,214.1 188.9,216.5 192.2,218.4 196,219.5 200,219.9 204,219.5 207.8,218.4 211.1,216.5 214.1,214.1 216.5,211.1 218.4,207.8 
	219.5,204 219.9,200 "/>
<polygon fill="#565656" points="318,138.3 315.2,134.1 311,131.2 305.8,130.2 300.6,131.2 296.4,134.1 293.5,138.3 292.5,143.4 
	293.5,148.6 296.4,152.8 300.6,155.7 305.8,156.7 311,155.7 315.2,152.8 318,148.6 319.1,143.4 "/>
<polygon fill="#565656" points="183.5,304.8 180.7,300.6 176.5,297.7 171.3,296.7 166.1,297.7 161.9,300.6 159.1,304.8 158,310 
	159.1,315.1 161.9,319.3 166.1,322.2 171.3,323.2 176.5,322.2 180.7,319.3 183.5,315.1 184.6,310 "/>
<polygon fill="#565656" points="119.4,150.3 116.5,146 112.3,143.2 107.1,142.1 102,143.2 97.8,146 94.9,150.3 93.9,155.4 
	94.9,160.6 97.8,164.8 102,167.7 107.1,168.7 112.3,167.7 116.5,164.8 119.4,160.6 120.4,155.4 "/>
<polygon fill="#565656" points="152.464,100.716 134.623,92.777 118.793,88.644 111.661,88.147 105.109,88.856 102.106,89.706 
	99.315,90.911 96.757,92.487 94.456,94.452 92.491,96.753 90.914,99.311 89.71,102.102 88.346,108.297 88.257,115.161 
	90.45,127.303 96.14,142.934 97.831,141.618 99.68,140.521 101.671,139.667 103.784,139.077 99.435,127.558 97.097,117.581 
	96.674,111.843 97.146,107.109 97.696,105.105 98.443,103.338 99.378,101.8 100.493,100.488 102.546,98.882 105.11,97.692 
	108.205,96.945 113.186,96.69 124.261,98.476 139.835,104.101 183.61,130.654 188.848,123.892 "/>
<polygon fill="#565656" points="344.739,164.343 344.188,161.367 343.178,158.514 341.751,155.871 339.936,153.432 335.254,149.154 
	329.353,145.646 322.464,142.87 322.349,145.524 321.97,147.523 320.53,151.237 328.019,154.594 331.882,157.37 333.342,158.847 
	334.499,160.378 335.363,161.956 335.942,163.578 336.252,165.272 336.293,167.071 336.056,168.975 334.706,173.1 332.12,177.647 
	323.073,187.789 296.218,206.668 279.284,215.477 278.977,215.055 270.957,218.565 271.369,219.122 239.803,231.464 
	240.319,230.588 227.748,234.778 227.278,235.539 187.726,245.831 149.233,206.687 171.409,166.613 158.883,170.788 
	143.202,199.584 128.639,180.878 160.207,168.535 160.208,168.535 159.654,169.477 172.227,165.286 172.736,164.461 
	212.288,154.171 249.197,191.523 253.003,182.933 222.682,152.1 267.655,146.524 270.49,137.836 214.762,144.928 213.917,144.193 
	203.572,146.548 204.318,147.18 179.913,153.413 191.685,136.806 202.618,145.74 212.983,143.38 196.892,130.023 225.985,98.096 
	240.302,86.523 252.981,79.27 259.042,77.219 264.171,76.579 264.172,76.579 267.537,76.985 269.02,77.466 270.372,78.123 
	271.788,79.102 273.089,80.346 274.268,81.86 276.228,85.732 277.614,90.776 278.389,104.344 272.449,137.744 271.559,137.786 
	268.728,146.464 269.86,146.4 254.766,184.896 253.736,183.748 249.925,192.347 250.781,193.315 228.567,233.45 241.09,229.276 
	256.806,200.417 270.347,217.74 278.375,214.228 260.904,191.985 278.892,146.14 289.353,146.283 289.093,143.45 289.361,140.526 
	290.117,137.765 281.344,137.592 286.656,109.098 286.549,92.736 285.184,85.719 282.804,79.573 281.206,76.893 279.32,74.509 
	277.136,72.447 273.466,70.107 271.026,69.114 268.478,68.454 264.477,68.057 264.475,68.055 257.219,68.891 249.626,71.419 
	235.405,79.508 205.317,106.797 190.107,124.819 189.653,124.485 184.416,131.247 184.9,131.603 167.196,157.244 123.613,173.763 
	119.122,167.021 117.532,168.464 115.769,169.696 113.851,170.696 111.799,171.445 115.75,177.426 115.268,177.663 120.347,184.713 
	120.73,184.527 139.109,208.019 138.986,208.285 145.078,215.477 145.246,215.105 177.33,247.901 130.152,253.602 144.623,216.486 
	138.524,209.286 121.124,253.864 91.271,251.748 77.176,247.912 71.994,245.409 68.131,242.633 66.67,241.156 65.513,239.625 
	64.649,238.047 64.069,236.425 63.76,234.731 63.719,232.932 63.956,231.028 65.307,226.903 67.893,222.356 76.94,212.215 
	103.372,193.58 119.434,185.157 114.358,178.111 74.457,203.011 62.963,214.655 58.966,220.583 56.303,226.611 55.537,229.637 
	55.184,232.656 55.27,235.659 55.822,238.634 56.832,241.487 58.259,244.131 60.075,246.57 64.759,250.849 70.66,254.357 
	85.469,259.307 118.668,262.412 113.356,290.906 113.461,307.267 114.827,314.285 117.208,320.431 118.806,323.112 120.692,325.496 
	122.876,327.559 125.37,329.273 128.102,330.575 130.98,331.436 133.988,331.876 140.325,331.59 146.979,329.898 160.895,322.961 
	159.301,321.503 157.907,319.853 156.733,318.031 155.797,316.06 147.029,320.733 141.595,322.628 136.9,323.398 134.823,323.386 
	132.922,323.122 131.195,322.617 129.638,321.88 128.222,320.901 126.921,319.658 125.743,318.143 123.782,314.272 122.397,309.227 
	121.622,295.658 127.561,262.256 185.249,255.072 185.66,255.43 196.28,253.322 195.689,252.822 220.095,246.588 220.096,246.588 
	209.265,261.919 216.068,267.09 232.814,242.758 276.396,226.236 291.711,251.47 299.186,268.295 302.911,282.42 303.335,288.159 
	302.863,292.892 302.313,294.895 301.567,296.663 300.632,298.2 299.517,299.512 298.204,300.627 296.667,301.562 294.899,302.309 
	290.652,303.203 285.421,303.236 272.114,300.473 238.429,284.316 215.108,268.398 215.476,267.897 208.671,262.724 
	208.323,263.195 197.255,254.148 186.613,256.259 203.117,269.979 180.284,295.911 182.021,297.191 183.579,298.679 
	184.935,300.353 186.069,302.196 209.904,275.183 247.547,299.286 265.387,307.226 281.216,311.359 288.349,311.855 
	294.901,311.147 297.905,310.296 300.696,309.092 303.253,307.516 305.555,305.55 307.52,303.249 309.096,300.691 310.301,297.9 
	311.665,291.704 311.754,284.84 308.635,269.539 294.279,238.444 284.259,222.578 309.759,208.473 325.556,196.993 337.051,185.35 
	341.047,179.421 343.709,173.392 344.474,170.366 344.826,167.346 "/>
</svg>
