<?xml version="1.0" encoding="utf-8"?>
<!-- Generator: Adobe Illustrator 17.0.0, SVG Export Plug-In . SVG Version: 6.00 Build 0)  -->
<!DOCTYPE svg PUBLIC "-//W3C//DTD SVG 1.1//EN" "http://www.w3.org/Graphics/SVG/1.1/DTD/svg11.dtd">
<svg version="1.1" id="Layer_1" xmlns="http://www.w3.org/2000/svg" xmlns:xlink="http://www.w3.org/1999/xlink" x="0px" y="0px"
	 width="400px" height="400px" viewBox="0 0 400 400" enable-background="new 0 0 400 400" xml:space="preserve">
<polygon fill="#0F8140" points="297.1,236.5 264.6,99.1 249.3,59.5 235.5,35 232.9,33.4 230.1,34.9 227.2,35.1 114.2,205 
	106.9,235.4 109.3,233.6 196.8,82.7 220.6,51.8 223.9,49.6 227.1,46.8 231.2,41.3 234.3,39.7 237,43.7 239.6,50 242.3,53.8 
	269.8,130 285,244.4 289.8,259.1 292.7,264.8 297.7,272 300,268.6 "/>
<polygon fill="#D31F26" points="367.7,301.9 364.3,290.1 349.3,263.6 340.1,252.7 329.3,244 316.4,237.9 312.9,236.8 277,234.4 
	261.5,236.5 256.6,238.1 252.1,240.3 235.8,253.6 217.8,275 211.2,287.5 209.1,294 208,300.5 208.1,314 210.8,327.3 216,339.8 
	223.4,351.1 228.7,356.9 241.7,366.5 256.6,373.5 272.4,378 288,380 302.9,379.5 317.1,376.2 330.6,370 342.7,361.5 352.4,351.6 
	360.2,340.1 365.7,327.4 368.4,314.3 "/>
<polygon fill="#D31F26" points="175.5,272.5 167.3,245.8 157.5,227.1 154.2,223.3 150.4,219.9 137,211.8 103,200 92.1,199.4 
	85.1,200.1 78.4,201.7 65.3,206.8 39.4,224.4 30.6,233.4 23.9,243.6 21.6,249.4 18.9,262.6 18.9,276.4 21.5,290.1 26.6,303 
	34.5,315.5 45.1,326.2 57.8,334.4 72,340.4 87.1,344.7 102.7,347.1 118.3,346.9 133.3,343.4 140.4,340.2 151.7,332.8 161.3,323.3 
	169,312.2 174.4,299.7 175.9,293.3 176.5,286.6 "/>
<polygon fill="#50451A" points="239.5,25.2 236.9,23.4 235.6,23.1 232.5,23.8 230.3,26.7 228.8,29.4 228.3,32.4 225.9,38.4 
	227.9,41 230.9,42.7 234.2,43.2 237.1,42.3 239.5,40.2 241,28.1 "/>
<polygon fill="#EF3733" stroke="#EF3733" stroke-width="0.6268" points="150.3,236.3 147.2,233.6 140.1,230.7 134,230.3 
	129.8,231.2 123.8,235.6 122.4,242.3 126.2,248.7 129.6,251.2 135.4,253.3 141.6,253.7 149.2,251 153.1,245.2 153.3,242.9 "/>
<polygon fill="#EF3733" stroke="#EF3733" stroke-width="0.5869" points="334.4,260.2 331.4,257.1 325.9,254.1 319.2,252.7 
	313,253.3 309,254.9 304,260.6 304.4,267.9 306.7,271.3 310,274.2 315.9,276.9 322.6,277.8 328.6,276.7 332.3,274.8 336.5,268.7 
	336.7,267.4 "/>
<polygon fill="none" stroke="#241C1C" stroke-width="0.5" points="231.6,26.7 234.5,28.5 237.9,29.1 "/>
<polygon fill="none" stroke="#241C1C" stroke-width="0.5" points="229.4,31.9 231.8,34 234.7,35.1 238.1,34.4 "/>
<polygon fill="none" stroke="#241C1C" stroke-width="0.5" points="227.7,36.2 230,39 233.3,40.5 236.3,39.9 "/>
</svg>
