<?xml version="1.0" encoding="utf-8"?>
<!-- Generator: Adobe Illustrator 17.0.0, SVG Export Plug-In . SVG Version: 6.00 Build 0)  -->
<!DOCTYPE svg PUBLIC "-//W3C//DTD SVG 1.1//EN" "http://www.w3.org/Graphics/SVG/1.1/DTD/svg11.dtd">
<svg version="1.1" id="solid" xmlns="http://www.w3.org/2000/svg" xmlns:xlink="http://www.w3.org/1999/xlink" x="0px" y="0px"
	 width="400px" height="220px" viewBox="0 0 400 220" enable-background="new 0 0 400 220" xml:space="preserve">
<polygon fill="#2B4A59" points="315.5,34.7 307.1,29.9 297.5,25.9 286.4,22.6 257.6,18.8 221.3,18.9 191,23.2 166.2,30.9 
	146.3,40.7 137.9,46.2 178.8,46.2 199,40.5 213.5,38.8 225.9,38.6 229.2,39.2 232.2,40.8 234.4,43.2 235.8,46.2 258.2,46.2 
	260.2,42.6 262.5,40.2 265.6,38.4 269.7,37.8 277.3,38.3 285.4,40 293.7,42.7 301.7,46.2 331.1,46.2 "/>
<polygon fill="#2B4A59" points="387.9,80.6 387.3,77.6 385.3,72.5 382.5,68.7 379.2,65.9 376,64 373.2,62.9 360,61.7 355.2,60.7 
	349.9,59 344.3,56.3 331.1,46.2 301.7,46.2 311.3,51.6 315.4,54.6 319,57.8 322,61.2 324.3,64.6 325.7,68 326.2,71.5 325.7,74.5 
	323.3,78.8 318.6,83 314.4,85.4 309.6,87.4 304.5,88.6 299.3,89.3 262.7,89.3 259.4,88.1 257.3,85.3 256.9,82.1 257.3,49.6 
	258.2,46.2 235.8,46.2 236,80.9 235,84.3 232.7,87.7 144,89.3 139.2,87.8 135.8,85.5 133.9,81.8 134.3,78.5 136.7,74.4 141.2,69.3 
	151,60.6 161.8,53.7 178.8,46.2 137.9,46.2 96.6,82.5 92.8,84.3 52.7,92.9 46.3,95.2 40.2,98.1 34.5,101.6 29.2,105.7 24.3,110.3 
	20,115.5 13.2,126.4 11.1,131.6 10,137.2 10.1,144.4 10.6,149.4 11.6,153.7 12.9,157.5 14.5,160.6 16.2,163.3 20.1,167.2 24,169.5 
	28.8,171 50.5,171.2 49.6,166 49.2,160.5 49.5,155.7 50.2,151 51.4,146.4 52.9,142.1 54.9,138 57.3,134.1 60,130.4 63.1,127 
	66.5,124 70.1,121.3 74,118.9 78.1,116.9 82.5,115.3 87,114.1 91.7,113.4 96.6,113.2 101.4,113.4 106.1,114.1 110.6,115.3 
	115,116.9 119.1,118.9 123,121.3 126.7,124 130,127 133.1,130.4 135.8,134.1 138.2,138 140.2,142.1 141.8,146.4 142.9,151 
	143.6,155.7 143.8,162.6 143.3,168 142.6,171.2 265.5,171.2 264.6,166 264.2,160.5 264.5,155.7 265.2,151 266.3,146.4 267.9,142.1 
	269.9,138 272.3,134.1 275,130.4 278.1,127 281.4,124 285.1,121.3 289,118.9 293.1,116.9 297.5,115.3 302,114.1 306.7,113.4 
	311.6,113.2 316.4,113.4 321.1,114.1 325.6,115.3 330,116.9 334.1,118.9 338,121.3 341.7,124 345,127 348.1,130.4 350.8,134.1 
	353.2,138 355.2,142.1 356.8,146.4 357.9,151 358.6,155.7 358.8,162.6 358.3,167.9 357.6,171.2 363.3,170.7 368.2,169.7 
	372.5,168.3 376.1,166.6 379.1,164.7 381.5,162.5 383.5,160.2 386.2,155.6 387.9,149.4 388,145.6 "/>
<polygon fill="#2B4A59" points="79.1,153.1 80.8,149.9 83.1,147.1 85.9,144.8 89.2,143 92.7,141.9 96.6,141.5 96.6,120.3 
	92.5,120.5 88.5,121.1 84.6,122.1 80.9,123.5 77.4,125.2 74.1,127.2 71,129.5 68.1,132.1 65.5,135 63.2,138 61.2,141.4 59.5,144.9 
	58.2,148.6 57.2,152.4 56.6,156.4 56.4,160.5 56.6,164.6 57.2,168.6 58.2,172.5 59.5,176.2 61.2,179.7 63.2,183 65.5,186.1 
	68.1,188.9 71,191.5 74.1,193.8 77.4,195.9 80.9,197.5 84.6,198.9 88.5,199.9 92.5,200.5 96.6,200.7 96.6,179.5 92.7,179.1 
	89.2,178 85.9,176.3 83.1,173.9 80.8,171.1 79.1,167.9 78,164.3 77.6,160.5 78,156.7 "/>
<polygon fill="#2B4A59" points="136.5,156.4 135.9,152.4 134.9,148.6 133.6,144.9 131.9,141.4 129.9,138 127.6,135 125,132.1 
	122.1,129.5 119,127.2 115.7,125.2 112.2,123.5 108.5,122.1 104.7,121.1 100.7,120.5 96.6,120.3 96.6,141.5 100.4,141.9 104,143 
	107.2,144.8 110,147.1 112.3,149.9 114.1,153.1 115.2,156.7 115.6,160.5 115.2,164.3 114.1,167.9 112.3,171.1 110,173.9 
	107.2,176.3 104,178 100.4,179.1 96.6,179.5 96.6,200.7 100.7,200.5 104.7,199.9 108.5,198.9 112.2,197.5 115.7,195.9 119,193.8 
	122.1,191.5 125,188.9 127.6,186.1 129.9,183 131.9,179.7 133.6,176.2 134.9,172.5 135.9,168.6 136.5,164.6 136.7,160.5 "/>
<polygon fill="#2B4A59" points="351.5,156.4 350.9,152.4 349.9,148.6 348.6,144.9 346.9,141.4 344.9,138 342.6,135 340,132.1 
	337.1,129.5 334,127.2 330.7,125.2 327.2,123.5 323.5,122.1 319.6,121.1 315.7,120.5 311.6,120.3 311.6,141.5 315.4,141.9 
	318.9,143 322.2,144.8 325,147.1 327.3,149.9 329.1,153.1 330.2,156.7 330.5,160.5 330.2,164.3 329.1,167.9 327.3,171.1 325,173.9 
	322.2,176.3 318.9,178 315.4,179.1 311.6,179.5 311.6,200.7 315.7,200.5 319.6,199.9 323.5,198.9 327.2,197.5 330.7,195.9 
	334,193.8 337.1,191.5 340,188.9 342.6,186.1 344.9,183 346.9,179.7 348.6,176.2 349.9,172.5 350.9,168.6 351.5,164.6 351.7,160.5 
	"/>
<polygon fill="#2B4A59" points="294,153.1 295.8,149.9 298.1,147.1 300.9,144.8 304.2,143 307.7,141.9 311.6,141.5 311.6,120.3 
	307.4,120.5 303.5,121.1 299.6,122.1 295.9,123.5 292.4,125.2 289.1,127.2 286,129.5 283.1,132.1 280.5,135 278.2,138 276.2,141.4 
	274.5,144.9 273.2,148.6 272.2,152.4 271.6,156.4 271.4,160.5 271.6,164.6 272.2,168.6 273.2,172.5 274.5,176.2 276.2,179.7 
	278.2,183 280.5,186.1 283.1,188.9 286,191.5 289.1,193.8 292.4,195.9 295.9,197.5 299.6,198.9 303.5,199.9 307.4,200.5 
	311.6,200.7 311.6,179.5 307.7,179.1 304.2,178 300.9,176.3 298.1,173.9 295.8,171.1 294,167.9 292.9,164.3 292.6,160.5 
	292.9,156.7 "/>
</svg>
