<?xml version="1.0" encoding="utf-8"?>
<!-- Generator: Adobe Illustrator 17.0.0, SVG Export Plug-In . SVG Version: 6.00 Build 0)  -->
<!DOCTYPE svg PUBLIC "-//W3C//DTD SVG 1.1//EN" "http://www.w3.org/Graphics/SVG/1.1/DTD/svg11.dtd">
<svg version="1.1" id="Layer_1" xmlns="http://www.w3.org/2000/svg" xmlns:xlink="http://www.w3.org/1999/xlink" x="0px" y="0px"
	 width="400px" height="400px" viewBox="0 0 400 400" enable-background="new 0 0 400 400" xml:space="preserve">
<polygon fill="#6F7071" points="362.9,241.6 361.8,240.3 340.8,219.5 337.5,218.2 335.7,23.1 47.1,23.1 47.1,369.4 202,369.4 
	199.3,379.4 193.1,385.7 194.6,389 202.7,382.8 241.9,372.2 244.8,369.4 335.7,369.4 335.7,278.5 362.9,251.1 364.1,248 
	364.1,244.7 "/>
<rect x="34.3" y="10.3" fill="#85786F" width="59.4" height="346.3"/>
<rect x="93.7" y="10.3" fill="#DECDC0" width="229.2" height="346.3"/>
<rect x="148" y="66.9" fill="#BCA99C" width="128.7" height="58"/>
<polygon fill="#C6B8B0" points="197,327.3 185.3,371.2 229.1,359.4 "/>
<polygon fill="#DDAE64" points="290.8,233.5 196.8,328.6 197.5,331.8 223.9,358.4 226.2,359.6 229.4,359 322.9,265.6 "/>
<polygon fill="#C7584F" points="349.7,228.5 328,206.7 324.7,205.4 321.2,205.4 317.9,206.7 290.8,233.5 322.9,265.6 349.7,238.6 
	351.1,235.3 351.1,231.8 "/>
<rect x="160.7" y="109.1" fill="#85786F" width="108" height="4.2"/>
<polygon fill="#DECDC0" points="197,327.3 185.328,371.079 213.062,343.356 "/>
<polygon fill="#F0BD57" points="290.8,233.5 196.8,328.6 197.5,331.8 210.99,345.428 306.874,249.577 "/>
<polygon fill="#EF5543" points="328,206.7 324.7,205.4 321.2,205.4 317.9,206.7 290.8,233.5 306.874,249.577 338.876,217.621 "/>
<polygon fill="#6D6762" points="189,364.1 180.3,372.9 181.4,375.9 183.6,376.2 192.3,365.6 "/>
</svg>
