<?xml version="1.0" encoding="utf-8"?>
<!-- Generator: Adobe Illustrator 17.0.0, SVG Export Plug-In . SVG Version: 6.00 Build 0)  -->
<!DOCTYPE svg PUBLIC "-//W3C//DTD SVG 1.1//EN" "http://www.w3.org/Graphics/SVG/1.1/DTD/svg11.dtd">
<svg version="1.1" id="solid" xmlns="http://www.w3.org/2000/svg" xmlns:xlink="http://www.w3.org/1999/xlink" x="0px" y="0px"
	 width="400px" height="300px" viewBox="0 0 400 300" enable-background="new 0 0 400 300" xml:space="preserve">
<polygon fill="#94AC4F" points="390.6,93.3 369.5,97.2 364.8,96.8 361.2,95.3 359.1,92.3 358,87.3 358.5,82.4 361.3,78.3 383,64.8 
	386.5,60.5 386.3,57 382.9,54.2 378.5,54.2 375.2,56 362,69.4 358.8,71.5 355.3,72.9 351.8,73.6 348.4,73.4 345.3,72.4 342.7,70.3 
	340.8,67.3 339.7,63.1 339.9,59.4 341.4,55.5 350.2,39.6 350.6,36.1 349.2,32.9 346.4,31.1 342.7,32.1 339.7,36.1 331.8,58.1 
	329.4,60.9 324.7,63.5 318.9,64.4 310.2,62.2 304.6,58.4 301.9,55 300,51.2 298.9,47.3 298.4,43.1 299.4,34.5 303.5,23.4 
	304.4,18.6 303.8,15.6 301.3,13.9 297.3,14.3 294.1,17.5 293,26.7 300,59.9 298.3,64.4 295,67.3 290.5,68.6 285.5,68.6 280.3,67.5 
	275.6,65.3 271.9,62.2 269.5,57.4 267.9,36.3 266.8,32.3 264.8,28.5 261.8,24.9 257.9,23.5 254.7,24 253,26.3 253.5,31.5 
	259.6,60.2 259.2,64.9 258,69 255.9,72.5 252.9,75.2 248.9,77.3 241.2,79 236.4,78.7 232,77.6 228.2,75.6 225.3,72.6 223.4,68.8 
	222.5,64.7 222.3,41.7 220.7,38.2 217.8,35.1 214.1,33.1 210.3,32.7 206.4,34.9 204.6,38.2 204.1,44.8 205.3,49.4 207,53.2 
	209,56.2 212.5,59.9 215.7,66.1 217.9,72.6 218.6,79.1 218.2,82.3 217.3,85.3 215.7,88.2 213.4,90.6 210.5,92.5 207.4,93.9 
	204.1,94.6 200.8,94.5 197.7,93.6 195.1,91.7 193.7,84.3 193.5,63.7 191.1,58.1 188.4,54.9 184.9,52.5 181,51.6 178,52.6 175,56.5 
	174.2,61.7 175.4,67.2 187.1,83.4 188.6,88.6 188.2,93.5 185,99.3 181.8,102.5 178.3,105 174.3,106.6 153.9,109.9 149.4,108.5 
	145.8,104.9 135.9,81.7 132,77.9 128.7,76.7 125.1,77.4 123.6,80.3 123.5,83.7 124.7,87.2 126.7,90.1 134.5,96 137.2,98.8 
	140.7,106.8 140.2,115.1 137.8,120.7 134.3,125.7 129.9,129.8 124.4,131.3 121.3,131.4 118.2,131 115.1,130.2 112.2,128.9 
	109.7,127.2 106.1,122.6 102.9,102.8 100.9,97 99.3,94.4 95.5,90.2 92.1,88.6 88.6,88.5 85.3,90.5 83,93.9 81.9,98.1 82.9,105.1 
	97.7,130.8 99.7,137.8 99.7,144.1 97.1,147.5 93.4,148.8 87.5,147.9 84.5,146.6 81.6,144.8 79,142.6 65.7,117.4 63.4,115.3 
	58.5,113.2 53.8,113.4 49.8,115.5 47.1,119.2 46.2,123.9 47.7,129.2 49.4,131.9 67.9,147.3 70,150.5 71.5,154 72.4,157.7 
	72.7,161.4 72.4,165.1 71.5,168.6 70,171.7 67.9,174.3 65.2,176.6 62.1,178.4 55,180.9 51.2,181.4 47.6,181.3 44.1,180.5 
	40.9,179.1 25.6,167.4 21.4,166 16.9,166.2 12.9,168.2 10.7,171.2 10,174.7 11.8,179 15.8,182.2 20.6,183.8 38.7,183.3 43.9,184.2 
	49,186.6 53.1,190.2 56.4,194.6 58.9,199.4 60.6,204.6 63.1,220.4 62.9,225.8 62.1,229.2 59.6,231.6 56.7,233.1 52.3,233.7 
	41.8,230.4 35.6,229.8 31.5,230.2 27.7,231.5 24.2,233.5 21.2,236.2 18.9,239.4 17.4,243 16.9,247 17.2,250.8 18.8,255.1 
	20.8,257.6 23.6,259.1 26.8,259.9 32.9,260.2 37.6,259.2 41.9,257.4 50,252 69.2,233.9 73,231.4 77.2,229.5 81.8,228.1 86.5,228.2 
	90.8,229.7 94.4,232.3 96.5,234.7 97.3,237.7 96.6,243 81,260.2 78.2,264.2 76.2,268.5 75.4,273.4 76.4,278.3 78.8,282.5 
	82.6,285.2 86.7,285.8 91.9,284.4 96.1,280.8 98.9,275.8 100.1,270 101,252.1 102.4,246 104.4,241.8 107.2,238.1 110.6,234.9 
	114.6,232.5 118.9,230.7 123.6,229.9 128.3,230 131.2,230.8 136.4,233.6 140.6,237.8 143.4,243 144.2,245.9 144.2,249.7 
	143.3,252.9 141.8,255.7 134.1,265.3 132.7,269.4 133.7,273.5 136.7,276.9 140.4,278.3 145.7,277.2 148.4,274.3 149.2,270.8 
	148.9,267.5 147.4,263.4 146.5,258.6 146.4,253.8 147.1,249.1 150,242.2 152.7,238.2 156.2,234.5 160.3,231.5 164.7,229.5 
	169.4,228.6 174.1,229.1 178.6,231.3 182.3,235 184.2,239.1 184.7,243.6 180.7,265.3 180.8,269.7 181.8,272.8 184.4,275.8 
	187.5,276.7 190.3,275.3 191.9,271.8 190.3,234.7 192.5,230.6 196.4,227.6 201.2,225.8 206.2,225.2 210.9,227 215.1,229.8 
	218.5,233.5 223.7,255.4 225.7,258.9 228.8,261.6 232.6,262.8 236.4,261.8 238.2,259.1 239,256.2 238.5,251.9 226.8,236.8 
	224.5,231.4 223.3,225.7 223.7,220.4 226.4,216.1 231.2,213.1 236.6,212.2 240.2,213.3 243.4,216.2 245.5,221.6 246.7,238.4 
	248.1,242.4 250.3,245.9 252.9,247.9 256.8,248.5 260,246.6 262.1,242.9 262.4,239.8 261.1,234.5 250.5,216.1 249.7,212.2 
	250,208.2 251.4,204.6 253.8,201.7 257.1,199.1 265.4,195 269.8,193.9 274,193.6 277.7,194.3 280.9,196.3 284.2,201.5 289.4,217.4 
	291.7,220.2 296.1,222.3 299.9,222.2 303.3,220.8 305.7,218.2 306.4,213.9 305.7,210.7 303.9,207.8 289.8,193.6 288.3,190.6 
	287.2,185.5 287.7,180.4 289.7,175.7 293,171.9 297.6,169.7 302.9,169.2 308,170.6 313.5,175.6 322.2,190.2 326.5,193.1 
	331.6,194.4 336.3,193.6 339,191.3 340.2,187.4 339.2,182.6 323.7,167.4 321.3,162.8 321.2,157.1 322.9,152.1 326.9,145.4 
	332.5,138.9 335.7,136.2 339.1,134.2 342.7,133.2 346.7,133.4 349.6,135.3 357.2,145.7 360.1,147.5 363.2,147.5 366,146.1 
	367.9,143.7 368.2,138 366.5,135 363.4,133.2 353.4,130.4 350.8,128.9 348.8,126.4 348,123.5 348.8,118.7 350.4,115.5 354.8,109.7 
	359.1,105.5 363.6,102.9 368.7,102.3 380.1,105.8 383.4,106.2 387.2,105.5 389.7,102.9 390.8,98.8 "/>
</svg>
