<?xml version="1.0" encoding="utf-8"?>
<!-- Generator: Adobe Illustrator 17.0.0, SVG Export Plug-In . SVG Version: 6.00 Build 0)  -->
<!DOCTYPE svg PUBLIC "-//W3C//DTD SVG 1.1//EN" "http://www.w3.org/Graphics/SVG/1.1/DTD/svg11.dtd">
<svg version="1.1" id="solid" xmlns="http://www.w3.org/2000/svg" xmlns:xlink="http://www.w3.org/1999/xlink" x="0px" y="0px"
	 width="400px" height="400px" viewBox="0 0 400 400" enable-background="new 0 0 400 400" xml:space="preserve">
<polygon fill="#CE9013" points="235.8,176.2 232.1,175.3 228.2,175.7 225.2,176.9 222.9,178.9 221.5,181.6 220.8,185.1 221.1,188.4 
	233.6,230.4 178.9,231.1 165,233.9 151.8,238.6 139.4,245.2 138.8,146.7 180.2,158.5 183.3,159.1 188.3,158.5 191.1,157.3 
	193.5,154.5 194.4,151.6 194.5,147.6 193.4,144.6 114.3,12.8 36.6,143.4 35.8,147.2 36.2,151 37.4,154.1 40.2,156.9 43.2,158.1 
	47.5,158.5 91,145.6 91.4,389.4 139.8,389.4 140.3,326.7 141,321.5 142.3,316.4 144,311.6 146.2,307 148.9,302.6 152.1,298.3 
	159.7,290.6 163.9,287.3 168.3,284.6 172.9,282.3 177.8,280.6 182.9,279.4 188.2,278.6 232.5,278.6 220.8,319.7 220.1,322.8 
	220.7,327.8 222,330.6 224.7,333.1 227.6,334 231.6,334 234.7,332.9 366.4,253.9 "/>
</svg>
