<?xml version="1.0" encoding="utf-8"?>
<!-- Generator: Adobe Illustrator 17.0.0, SVG Export Plug-In . SVG Version: 6.00 Build 0)  -->
<!DOCTYPE svg PUBLIC "-//W3C//DTD SVG 1.1//EN" "http://www.w3.org/Graphics/SVG/1.1/DTD/svg11.dtd">
<svg version="1.1" id="Layer_1" xmlns="http://www.w3.org/2000/svg" xmlns:xlink="http://www.w3.org/1999/xlink" x="0px" y="0px"
	 width="400px" height="230px" viewBox="0 0 400 230" enable-background="new 0 0 400 230" xml:space="preserve">
<polygon fill="#C1282D" points="301.7,20.6 300.4,17.5 298.1,15.2 295,13.9 266.8,13.9 263.8,15.2 261.4,17.5 260.1,20.6 
	260.1,29.6 261.4,32.7 263.8,35 266.8,36.3 296.6,35.8 299.4,33.9 301.2,31.2 301.9,27.8 "/>
<polygon fill="#CADDF2" points="392.9,105.1 391.6,102 389.2,99.7 386.1,98.4 13.9,98.4 10.8,99.7 8.4,102 7.1,105.1 7.1,177.6 
	8.4,180.7 10.8,183.1 13.9,184.4 387.8,183.9 390.5,182 392.4,179.3 393,175.9 "/>
<polygon fill="#ED2224" points="392.4,121.6 387.8,120.5 12.2,120.5 7,122.3 7.6,138.4 12.2,139.4 387.8,139.4 393,137.7 "/>
<polygon fill="#CADDF2" points="321.7,39.1 321.1,35.7 319.4,33 315.6,30.6 13.1,30.6 10.3,31.9 8.3,34.3 7.1,37.4 7.1,109.9 
	8.3,113 10.3,115.3 13.1,116.6 345.8,116.1 348.2,114.3 349.9,111.5 350.5,108.2 "/>
<polygon fill="#2AAAE2" points="314.5,46.3 313.8,42.9 312,40.2 309.2,38.3 266.8,37.8 263.8,39.1 261.4,41.5 260.1,44.6 
	259.9,90.2 260.6,93.5 262.5,96.3 265.2,98.1 324.6,98.6 327.7,97.3 330.1,95 331.4,91.9 "/>
<polygon fill="#4E4E4E" points="87.6,175.3 85.9,169.8 83.2,164.8 79.6,160.5 75.2,156.9 70.2,154.2 64.7,152.5 58.8,151.9 
	52.9,152.5 47.4,154.2 42.4,156.9 38.1,160.5 34.5,164.8 31.8,169.8 30,175.3 29.4,181.2 30,187.2 31.8,192.7 34.5,197.7 38.1,202 
	42.4,205.6 47.4,208.3 52.9,210 58.8,210.6 64.7,210 70.2,208.3 75.2,205.6 79.6,202 83.2,197.7 85.9,192.7 87.6,187.2 88.2,181.2 
	"/>
<path fill="#010101" d="M93.2,174.2l-2.1-6.6l-3.2-6l-4.3-5.2l-5.2-4.2l-5.9-3.3l-6.6-2l-7.1-0.7l-7,0.7l-6.6,2l-6,3.3l-5.2,4.2
	l-4.3,5.2l-3.2,6l-2,6.6l-0.8,7l0.8,7.1l2,6.6l3.2,6L34,206l5.2,4.3l6,3.3l6.6,2l7,0.7l7.1-0.7l6.6-2l5.9-3.3l5.2-4.3l4.3-5.1l3.2-6
	l2.1-6.6l0.7-7.1L93.2,174.2z M82,186l-1.4,4.5l-2.2,4l-2.8,3.5l-3.6,2.9l-4,2.2l-4.4,1.3l-4.8,0.5l-4.7-0.5l-4.5-1.3l-4-2.2
	l-3.5-2.9l-2.9-3.5l-2.2-4l-1.4-4.5l-0.5-4.8l0.5-4.7L37,172l2.2-4l2.9-3.5l3.5-2.9l4-2.2l4.5-1.4l4.7-0.4l4.8,0.4l4.4,1.4l4,2.2
	l3.6,2.9l2.8,3.5l2.2,4l1.4,4.5l0.5,4.7L82,186z"/>
<polygon fill="#4E4E4E" points="361.6,175.3 359.9,169.8 357.1,164.8 353.5,160.5 349.2,156.9 344.2,154.2 338.7,152.5 332.8,151.9 
	326.9,152.5 321.4,154.2 316.4,156.9 312,160.5 308.4,164.8 305.7,169.8 304,175.3 303.4,181.2 304,187.2 305.7,192.7 308.4,197.7 
	312,202 316.4,205.6 321.4,208.3 326.9,210 332.8,210.6 338.7,210 344.2,208.3 349.2,205.6 353.5,202 357.1,197.7 359.9,192.7 
	361.6,187.2 362.2,181.2 "/>
<path fill="#010101" d="M367.1,174.2l-2-6.6l-3.2-6l-4.3-5.2l-5.2-4.2l-6-3.3l-6.5-2l-7.1-0.7l-7.1,0.7l-6.6,2l-5.9,3.3l-5.2,4.2
	l-4.3,5.2l-3.2,6l-2.1,6.6l-0.7,7l0.7,7.1l2.1,6.6l3.2,6l4.3,5.1l5.2,4.3l5.9,3.3l6.6,2l7.1,0.7l7.1-0.7l6.5-2l6-3.3l5.2-4.3
	l4.3-5.1l3.2-6l2-6.6l0.8-7.1L367.1,174.2z M356,186l-1.4,4.5l-2.2,4l-2.9,3.5l-3.5,2.9l-4,2.2l-4.4,1.3l-4.8,0.5l-4.8-0.5l-4.4-1.3
	l-4-2.2l-3.5-2.9l-2.9-3.5l-2.2-4l-1.4-4.5l-0.5-4.8l0.5-4.7l1.4-4.5l2.2-4l2.9-3.5l3.5-2.9l4-2.2l4.4-1.4l4.8-0.4l4.8,0.4l4.4,1.4
	l4,2.2l3.5,2.9l2.9,3.5l2.2,4l1.4,4.5l0.5,4.7L356,186z"/>
<rect x="102.6" y="44.3" fill="#ED2224" width="19.2" height="68.3"/>
<rect x="78" y="68.8" fill="#ED2224" width="68.3" height="19.2"/>
</svg>
