<?xml version="1.0" encoding="utf-8"?>
<!-- Generator: Adobe Illustrator 17.0.0, SVG Export Plug-In . SVG Version: 6.00 Build 0)  -->
<!DOCTYPE svg PUBLIC "-//W3C//DTD SVG 1.1//EN" "http://www.w3.org/Graphics/SVG/1.1/DTD/svg11.dtd">
<svg version="1.1" id="solid" xmlns="http://www.w3.org/2000/svg" xmlns:xlink="http://www.w3.org/1999/xlink" x="0px" y="0px"
	 width="400px" height="400px" viewBox="0 0 400 400" enable-background="new 0 0 400 400" xml:space="preserve">
<polygon fill="#010101" points="43.4,354.7 44.1,361.6 46,368 49.2,373.8 53.4,378.9 58.4,383.1 64.2,386.2 70.7,388.2 304.3,388.9 
	311.1,388.2 317.6,386.2 323.4,383.1 328.4,378.9 332.6,373.8 335.8,368 337.7,361.6 338.4,354.7 "/>
<polygon fill="#010101" points="163.4,81.9 162.5,76 161.2,72 159.1,67.5 156.2,62.9 152.6,59.1 148.4,56 149.5,57.6 151,60.5 
	152.6,64.8 154.2,72.6 154.2,81 152.5,89.8 130.6,148.9 129.4,155.5 128.8,162.2 128.9,165.5 129.6,171.7 130.6,175.9 132.2,179.8 
	134.8,184.1 137.5,187.5 141.1,191.1 145.4,193.8 143,190.1 140.7,185.4 139.4,181.8 138.5,177.8 138.2,172.2 138.6,166 
	139.1,163.4 159.3,112 162.7,98.3 163.7,88.2 "/>
<polygon fill="#010101" points="210,40.9 209.1,34.6 207.5,28.9 205.3,24 202.8,20 200.3,17 194.9,12.3 195.8,13.7 197.9,18.4 
	199.9,25.8 200.4,30.3 200.3,38 199.4,43.5 178.6,108.4 175.6,123 175.1,130.2 175.3,137 176.3,143.5 178.1,149.2 180.5,154.1 
	181.8,156.1 184.5,159.4 187,161.9 191.6,165.2 188.2,159.1 185.7,151.4 185.2,148.8 185,143.8 185.3,137.2 186.2,131.4 206.7,69.4 
	209.6,54.9 210.2,47.7 "/>
<polygon fill="#010101" points="242.4,82.9 240.1,76.8 237.9,72.9 236.1,70.6 233.2,67.5 228.5,63.9 228.9,65.6 232,72.9 
	233.5,80.2 233.7,83.4 233.5,87.7 232.8,92.4 229.9,102.3 215.2,136.1 211.4,148.5 210.3,154.8 210,158.4 210.1,164.3 210.6,167.3 
	212,172.8 213,175.3 215.3,179.5 216.6,181.3 219.3,184.1 221.8,186.3 226.9,189.1 224.2,184.3 221.7,178.4 220.7,174.6 
	220.2,170.6 220.3,166.3 222,156.8 239.8,114.9 243.5,99.1 243.8,91.5 "/>
<polygon fill="#010101" points="357.7,252.4 355,243.5 350.7,235.3 344.7,228 337.5,222.1 329.4,217.7 320.5,215.1 299.6,214.2 
	298.6,211.5 296.7,209.4 293.6,207.8 85.4,207.7 83.2,208.5 80.2,211.2 79,214.1 79,321.8 80.3,328.2 82.8,334.2 86.3,339.4 
	90.8,343.9 96.1,347.5 102,350 108.5,351.3 273.3,350.8 279.6,348.9 285.2,345.8 290.1,341.8 294.1,336.9 297.2,331.3 299.1,325 
	299.8,309 300.319,308.977 300.319,292.082 299.8,292.1 299.8,230.9 317.3,231.5 322.9,233.2 328.2,236.1 332.9,239.9 336.7,244.6 
	339.5,249.8 341.3,255.5 341.9,261.5 341.3,267.5 339.5,273.2 336.7,278.4 332.9,283.1 328.2,286.9 322.9,289.7 317.3,291.5 
	300.983,292.059 300.983,308.949 320.5,308.1 329.4,305.4 337.5,301.1 344.7,295.1 350.7,287.9 355,279.8 357.7,271 358.6,261.7 "/>
</svg>
