<?xml version="1.0" encoding="utf-8"?>
<!-- Generator: Adobe Illustrator 17.0.0, SVG Export Plug-In . SVG Version: 6.00 Build 0)  -->
<!DOCTYPE svg PUBLIC "-//W3C//DTD SVG 1.1//EN" "http://www.w3.org/Graphics/SVG/1.1/DTD/svg11.dtd">
<svg version="1.1" id="Layer_1" xmlns="http://www.w3.org/2000/svg" xmlns:xlink="http://www.w3.org/1999/xlink" x="0px" y="0px"
	 width="400px" height="400px" viewBox="0 0 400 400" enable-background="new 0 0 400 400" xml:space="preserve">
<polygon fill="#DCEEF0" points="358,235.8 355.5,226.9 351.6,218.2 346.1,209.6 339.3,201.3 331.2,193.3 311.4,178.6 287.5,166.1 
	260,156.4 229.6,150.2 196.9,148 164.3,150.2 133.9,156.4 106.4,166.1 82.5,178.6 62.7,193.3 54.6,201.3 47.8,209.6 42.3,218.2 
	38.4,226.9 35.9,235.8 35.1,244.7 35.9,253.3 38.4,261.5 42.3,269.2 47.8,276.3 54.6,283 62.7,289.1 72,294.8 94,304.3 119.8,311.7 
	148.8,316.6 180.4,319.1 245.1,316.6 274.1,311.7 299.9,304.3 321.9,294.8 331.2,289.1 339.3,283 346.1,276.3 351.6,269.2 
	355.5,261.5 358,253.3 358.8,244.7 "/>
<polygon fill="#C59EBF" points="356.2,227 357,220.2 356.2,213.2 353.7,206.3 349.8,199.4 344.4,192.7 342,190.3 45.1,190.3 
	39.8,194.7 37.8,198.6 36.7,202.7 34.6,206.8 33.3,211.1 32.6,219.4 33,225.9 36.1,229.3 36.3,233.8 37.9,238.1 39.2,246.7 
	43.9,249 43.3,253 53.2,257.6 56.4,257.6 61.8,261.8 65.8,264 75.2,265.9 77.8,267.6 88.7,270.3 100.4,275.8 105.1,275.1 
	109.7,277.4 119.1,276.7 130.4,281.7 135.7,281.8 149.7,285.5 154.2,284.9 160.8,281.9 161.4,278.2 168.5,283 206.5,286.6 
	209.2,284 212.6,284.4 214.7,287 218.6,284.4 222.1,286.2 228.5,286 249.3,282 253.8,280.6 260.4,279.6 261.9,276.8 268.6,279.8 
	276.6,278.2 282,277.7 299.6,274.7 302.7,273.8 307.7,272.9 323.4,265 340.5,255.2 357.8,242.9 356.2,239.2 360.3,235.1 
	361.9,227.6 362.1,225.5 "/>
<polygon fill="#DCEEF0" points="358,169.4 355.5,160.5 351.6,151.8 346.1,143.2 339.3,134.9 331.2,126.9 311.4,112.2 287.5,99.7 
	260,90 229.6,83.8 196.9,81.6 164.3,83.8 133.9,90 106.4,99.7 82.5,112.2 62.7,126.9 54.6,134.9 47.8,143.2 42.3,151.8 38.4,160.5 
	35.9,169.4 35.1,178.3 35.9,186.9 38.4,195.1 42.3,202.8 47.8,209.9 54.6,216.6 62.7,222.7 72,228.4 94,237.9 119.8,245.3 
	148.8,250.2 180.4,252.7 245.1,250.2 274.1,245.3 299.9,237.9 321.9,228.4 331.2,222.7 339.3,216.6 346.1,209.9 351.6,202.8 
	355.5,195.1 358,186.9 358.8,178.3 "/>
</svg>
