<?xml version="1.0" encoding="utf-8"?>
<svg width="40" height="40" xmlns="http://www.w3.org/2000/svg" xmlns:svg="http://www.w3.org/2000/svg">
<g>
	<path fill="#000000" d="M2.9,20c0-9.45,7.65-17.1,17.1-17.1S37.1,10.55,37.1,20S29.45,37.1,20,37.1S2.9,29.45,2.9,20z M4.61,20
		c0,8.499,6.891,15.39,15.39,15.39S35.39,28.499,35.39,20S28.499,4.61,20,4.61S4.61,11.501,4.61,20z M12.222,14.343l2.121-2.121
		L20,17.879l5.657-5.657l2.121,2.121L22.121,20l5.657,5.657l-2.121,2.121L20,22.121l-5.657,5.657l-2.121-2.121L17.879,20
		L12.222,14.343z"/>
</g>
</svg>