<?xml version="1.0" encoding="utf-8"?>
<!-- Generator: Adobe Illustrator 17.0.0, SVG Export Plug-In . SVG Version: 6.00 Build 0)  -->
<!DOCTYPE svg PUBLIC "-//W3C//DTD SVG 1.1//EN" "http://www.w3.org/Graphics/SVG/1.1/DTD/svg11.dtd">
<svg version="1.1" id="Layer_2" xmlns="http://www.w3.org/2000/svg" xmlns:xlink="http://www.w3.org/1999/xlink" x="0px" y="0px"
	 width="33.167px" height="30px" viewBox="0 0 33.167 30" enable-background="new 0 0 33.167 30" xml:space="preserve">
<path fill="#FFFFFF" d="M25.237,3.195c3.714-4,7.223-6.734,7.837-6.105c0.615,0.627-1.898,4.378-5.61,8.379
	c-1.754,1.889-3.458,3.49-4.837,4.592l-1.673-1.622C21.968,6.955,23.465,5.104,25.237,3.195z M22.042,10.57l-1.521-1.475
	c-0.011,0.017-0.022,0.035-0.033,0.052c-0.535,0.003-2.613,0.149-2.809,2.269c0,0-1.179,3.507-2.275,3.61
	c-1.086,0.103,3.287,0.139,3.843-0.036C19.793,14.818,22.618,14.718,22.042,10.57z M8.75,25H3.167V13.615H8.75V25z M13.234,15.15
	c-0.027-0.586,0.261-1.665,1.456-2.018c0.287-0.401,0.73-1.33,1.029-2.169c0.026-0.177,0.072-0.338,0.114-0.502V8.25H10.25V25h5.583
	v-7.905C14.526,17.042,13.309,16.753,13.234,15.15z M23.167,18.925h-5.583V25h5.583V18.925z"/>
</svg>
