<?xml version="1.0" encoding="utf-8"?>
<!-- Generator: Adobe Illustrator 17.0.0, SVG Export Plug-In . SVG Version: 6.00 Build 0)  -->
<!DOCTYPE svg PUBLIC "-//W3C//DTD SVG 1.1//EN" "http://www.w3.org/Graphics/SVG/1.1/DTD/svg11.dtd">
<svg version="1.1" id="레이어_1" xmlns:svg="http://www.w3.org/2000/svg"
	 xmlns="http://www.w3.org/2000/svg" xmlns:xlink="http://www.w3.org/1999/xlink" x="0px" y="0px" width="40px" height="40px"
	 viewBox="0 0 40 40" enable-background="new 0 0 40 40" xml:space="preserve">
<g>
	<path fill="#999999" d="M27.087,14.252l1.782-1.902l-2.184-2.177l-1.894,1.78c-0.939-0.639-2.015-1.082-3.17-1.304l-0.082-2.607
		h-3.084l-0.082,2.608c-1.152,0.225-2.226,0.666-3.167,1.304l-1.901-1.78l-2.177,2.177l1.775,1.902
		c-0.631,0.934-1.077,2.008-1.302,3.17l-2.606,0.082v3.082l2.606,0.082c0.225,1.152,0.67,2.226,1.302,3.17l-1.775,1.895l2.177,2.177
		l1.898-1.78c0.939,0.636,2.015,1.082,3.169,1.307l0.082,2.606h3.082l0.082-2.609c1.156-0.225,2.228-0.669,3.17-1.307l1.894,1.778
		l2.184-2.176l-1.782-1.895c0.639-0.941,1.081-2.015,1.302-3.171L31,20.579V17.5l-2.611-0.082
		C28.167,16.259,27.726,15.19,27.087,14.252z M20.001,23.454c-2.431,0-4.412-1.976-4.412-4.412s1.981-4.411,4.412-4.411
		c2.435,0,4.406,1.973,4.406,4.411S22.439,23.454,20.001,23.454z"/>
</g>
</svg>
