<?xml version="1.0" encoding="utf-8"?>
<svg width="40" height="40" xmlns="http://www.w3.org/2000/svg" xmlns:svg="http://www.w3.org/2000/svg">
<path fill="#000000" d="M31.648,21.042c0,5.858-4.749,10.607-10.607,10.607c-5.858,0-10.607-4.749-10.607-10.607
	c0-0.225,0.02-0.445,0.034-0.667h4.462c-0.024,0.219-0.038,0.441-0.038,0.667c0,3.396,2.753,6.148,6.148,6.148
	c3.396,0,6.148-2.753,6.148-6.148c0-2.746-1.8-5.069-4.284-5.859l-0.031,2.525l-7.958-5.167L23,7.417l-0.039,3.214
	C27.9,11.535,31.648,15.841,31.648,21.042z"/>
</svg>