<?xml version="1.0" encoding="utf-8"?>
<!-- Generator: Adobe Illustrator 17.0.0, SVG Export Plug-In . SVG Version: 6.00 Build 0)  -->
<!DOCTYPE svg PUBLIC "-//W3C//DTD SVG 1.1//EN" "http://www.w3.org/Graphics/SVG/1.1/DTD/svg11.dtd">
<svg version="1.1" id="레이어_1" xmlns:svg="http://www.w3.org/2000/svg"
	 xmlns="http://www.w3.org/2000/svg" xmlns:xlink="http://www.w3.org/1999/xlink" x="0px" y="0px" width="40px" height="40px"
	 viewBox="0 0 40 40" enable-background="new 0 0 40 40" xml:space="preserve">
<path fill="#FFFFFF" d="M13.262,21.013h10.725l-4.666,4.666c-0.77,0.77-0.77,2.017,0,2.787s2.017,0.77,2.787,0l8.024-8.025
	c0.386-0.386,0.578-0.892,0.576-1.398c0.002-0.506-0.191-1.012-0.576-1.398L22.108,9.62c-0.77-0.77-2.017-0.77-2.787,0
	c-0.77,0.77-0.77,2.017,0,2.787l4.666,4.666H13.262c-1.089,0-1.971,0.882-1.971,1.971C11.292,20.132,12.175,21.013,13.262,21.013z"
	/>
</svg>
