<?xml version="1.0" encoding="utf-8"?>
<svg width="40" height="40" xmlns="http://www.w3.org/2000/svg" xmlns:svg="http://www.w3.org/2000/svg">
<g>
	<path fill="#FFFFFF" d="M12.917,29H9.5V11.809h3.417V29z
		M17.85,16.362c-4.124,4.839-2.97,10.96-2.97,10.96s0.152-0.148,0.411-0.385c0.261-1.459,1.129-4.369,4.022-7.61
		c3.825-4.285,8.928-5.088,8.928-5.088s-4.186,0.801-7.718,5.088c-1.717,2.085-2.585,4.204-3.026,5.818
		c0.624-0.451,1.307-0.902,2.017-1.275c1.853-0.973,4.588,0.621,9.235-2.787c3.733-2.737,4.182-8.298,4.182-8.298
		S24.132,8.991,17.85,16.362z"/>
</g>
</svg>