<?xml version="1.0" encoding="utf-8"?>
<!-- Generator: Adobe Illustrator 17.0.0, SVG Export Plug-In . SVG Version: 6.00 Build 0)  -->
<!DOCTYPE svg PUBLIC "-//W3C//DTD SVG 1.1//EN" "http://www.w3.org/Graphics/SVG/1.1/DTD/svg11.dtd">
<svg version="1.1" id="레이어_1" xmlns="http://www.w3.org/2000/svg" xmlns:xlink="http://www.w3.org/1999/xlink" x="0px"
	 y="0px" width="30px" height="30px" viewBox="0 0 30 30" enable-background="new 0 0 30 30" xml:space="preserve">
<path fill="#FFFFFF" d="M21.997,18.863c0,0.597-0.486,1.083-1.083,1.083H9.11c-0.598,0-1.083-0.486-1.083-1.083V7.058
	c0-0.598,0.486-1.083,1.083-1.083h11.805c0.597,0,1.083,0.486,1.083,1.083V18.863z"/>
<path fill="#555555" d="M20.902,4.514H9.098c-1.427,0-2.583,1.157-2.583,2.583v11.805c0,1.427,1.157,2.583,2.583,2.583h11.805
	c1.427,0,2.583-1.157,2.583-2.583V7.098C23.486,5.671,22.329,4.514,20.902,4.514z M21.985,18.902c0,0.597-0.486,1.083-1.083,1.083
	H9.098c-0.598,0-1.083-0.486-1.083-1.083V7.098c0-0.598,0.486-1.083,1.083-1.083h11.805c0.597,0,1.083,0.486,1.083,1.083V18.902z"/>
<polygon fill="#555555" points="20.566,10.774 18.651,8.626 13.254,13.436 11.311,10.464 8.902,12.039 12.676,17.812 "/>
</svg>
