<?xml version="1.0" encoding="utf-8"?>
<!-- Generator: Adobe Illustrator 17.0.0, SVG Export Plug-In . SVG Version: 6.00 Build 0)  -->
<!DOCTYPE svg PUBLIC "-//W3C//DTD SVG 1.1//EN" "http://www.w3.org/Graphics/SVG/1.1/DTD/svg11.dtd">
<svg version="1.1" id="Layer_1" xmlns="http://www.w3.org/2000/svg" xmlns:xlink="http://www.w3.org/1999/xlink" x="0px" y="0px"
	 width="35px" height="35px" viewBox="0 0 35 35" enable-background="new 0 0 35 35" xml:space="preserve">
<path fill="#7F7F7F" d="M16.979-0.042c-9.401,0-17.021,7.62-17.021,17.021S7.578,34,16.979,34S34,26.38,34,16.979
	S26.38-0.042,16.979-0.042z M16.979,32.524c-8.586,0-15.546-6.959-15.546-15.546S8.393,1.434,16.979,1.434
	S32.525,8.393,32.525,16.98S25.565,32.524,16.979,32.524z M23.888,21.585v2.303h-6.909h-6.91v-2.303H7.766v4.606H26.19v-4.606
	C26.19,21.585,23.888,21.585,23.888,21.585z M18.131,16.979V7.766h-2.303v9.212h-3.455l4.606,5.758l4.606-5.758L18.131,16.979
	L18.131,16.979z"/>
</svg>
