<?xml version="1.0" encoding="utf-8"?>
<!-- Generator: Adobe Illustrator 17.0.0, SVG Export Plug-In . SVG Version: 6.00 Build 0)  -->
<!DOCTYPE svg PUBLIC "-//W3C//DTD SVG 1.1//EN" "http://www.w3.org/Graphics/SVG/1.1/DTD/svg11.dtd">
<svg version="1.1" id="Layer_1" xmlns="http://www.w3.org/2000/svg" xmlns:xlink="http://www.w3.org/1999/xlink" x="0px" y="0px"
	 width="120px" height="29px" viewBox="0 0 120 29" enable-background="new 0 0 120 29" xml:space="preserve">
<path fill="#ED1F24" d="M88.313,14.403h-4.509V9.895c0-0.801-0.649-1.45-1.45-1.45s-1.45,0.649-1.45,1.45v4.508h-4.509
	c-0.801,0-1.45,0.649-1.45,1.45s0.649,1.45,1.45,1.45h4.509v4.509c0,0.801,0.649,1.45,1.45,1.45s1.45-0.649,1.45-1.45v-4.509h4.509
	c0.801,0,1.45-0.649,1.45-1.45S89.114,14.403,88.313,14.403z"/>
<path fill="#FFFFFF" d="M12.664,15.804l-0.001,1.561h3.103v1.907h-3.105v1.564h3.609v2.092h-6.004v-9.213h6.004v2.09L12.664,15.804
	L12.664,15.804z M26.532,22.864c0.395,0.064,1.574,0.318,3.087,0.19c1.332-0.114,3.003-0.9,3.032-2.994
	c0.012-0.902-0.265-1.951-1.574-2.469l-1.967-0.702c-0.212-0.086-0.387-0.277-0.393-0.451c-0.012-0.343,0.265-0.664,0.886-0.74
	c0.554-0.069,1.424,0.017,2.5,0.268l-0.013-2.143c-0.372-0.099-1.262-0.33-2.462-0.367c-1.587-0.05-3.177,0.973-3.274,2.961
	c-0.049,0.986,0.401,2.091,1.566,2.51l1.812,0.657c0.451,0.194,0.464,0.385,0.477,0.537c0.021,0.278-0.249,0.489-0.606,0.629
	c-0.47,0.185-1.862,0.197-3.061-0.165L26.532,22.864z M20.47,17.489c1.062,0.183,2.222-0.104,2.222-0.853
	c0-0.754-1.159-1.041-2.222-0.857V17.489z M20.47,19.176v1.711c1.062,0.185,2.222-0.104,2.222-0.855
	C22.692,19.281,21.533,18.993,20.47,19.176 M18.072,13.716h3.564c2.799,0,3.346,1.744,3.346,2.61c0,1.007-0.437,1.655-1.07,1.999
	c0.736,0.343,1.195,0.981,1.195,2.066c0,0.729-0.487,2.539-3.448,2.539h-3.587V13.716 M53.762,8.535
	c-0.542-0.226-1.167-0.1-1.581,0.316l-6.006,6.023L40.15,8.85c-0.414-0.414-1.039-0.54-1.58-0.314
	c-0.542,0.225-0.896,0.753-0.896,1.34v11.938c0,0.801,0.649,1.45,1.45,1.45s1.45-0.649,1.45-1.45v-8.437l4.577,4.577
	c0.272,0.271,0.641,0.425,1.025,0.425h0.001c0.385,0,0.754-0.154,1.026-0.427l4.554-4.567v8.43c0,0.801,0.649,1.45,1.45,1.45
	s1.45-0.649,1.45-1.45V9.875C54.659,9.288,54.305,8.759,53.762,8.535z M107.45,8.425c-0.801,0-1.45,0.649-1.45,1.45v4.519H95.013
	V9.875c0-0.801-0.649-1.45-1.45-1.45s-1.45,0.649-1.45,1.45v11.938c0,0.801,0.649,1.45,1.45,1.45s1.45-0.649,1.45-1.45v-4.519H106
	v4.519c0,0.801,0.649,1.45,1.45,1.45s1.45-0.649,1.45-1.45V9.875C108.9,9.074,108.251,8.425,107.45,8.425z M69.2,13.821
	l-2.809-4.719c-0.262-0.439-0.735-0.708-1.246-0.708c-0.004,0-0.009,0-0.013,0c-0.516,0.004-0.99,0.283-1.246,0.73l-2.684,4.696
	L69.2,13.821L69.2,13.821z M73.497,21.04l-2.633-4.424H59.605l-2.552,4.466c-0.397,0.695-0.156,1.581,0.54,1.979
	c0.227,0.13,0.474,0.191,0.718,0.191c0.503,0,0.993-0.263,1.26-0.73l1.88-3.29h7.595l1.959,3.291
	c0.409,0.689,1.301,0.914,1.987,0.505C73.681,22.617,73.906,21.728,73.497,21.04z"/>
</svg>
