<?xml version="1.0" encoding="utf-8"?>
<!-- Generator: Adobe Illustrator 17.0.0, SVG Export Plug-In . SVG Version: 6.00 Build 0)  -->
<!DOCTYPE svg PUBLIC "-//W3C//DTD SVG 1.1//EN" "http://www.w3.org/Graphics/SVG/1.1/DTD/svg11.dtd">
<svg version="1.1" id="Layer_1" xmlns="http://www.w3.org/2000/svg" xmlns:xlink="http://www.w3.org/1999/xlink" x="0px" y="0px"
	 width="125.5px" height="39.25px" viewBox="0 93.75 125.5 39.25" enable-background="new 0 93.75 125.5 39.25"
	 xml:space="preserve">
<path fill="#FFFFFF" d="M38.116,104.657c1.928,0,3.489-1.563,3.489-3.489s-1.563-3.489-3.489-3.489H20.354
	c-8.87,0-16.063,7.191-16.063,16.063s7.191,16.062,16.063,16.062c1.928,0,3.489-1.563,3.489-3.49c0-1.927-1.563-3.489-3.489-3.489
	c-5.015,0-9.082-4.066-9.082-9.082c0-5.016,4.066-9.082,9.082-9.082l6.923-0.001v21.655c0,1.928,1.563,3.489,3.489,3.489
	s3.489-1.563,3.489-3.489v-21.664L38.116,104.657z"/>
<circle fill="#FFFFFF" cx="19.488" cy="113.74" r="4.169"/>
<path fill="#FFFFFF" d="M113.325,101.951c1.18,0,2.137,0.957,2.137,2.137s-0.957,2.137-2.137,2.137s-2.137-0.957-2.137-2.137
	S112.145,101.951,113.325,101.951z M93.833,101.951c1.18,0,2.137,0.957,2.137,2.137s-0.957,2.137-2.137,2.137
	s-2.137-0.957-2.137-2.137C91.695,102.908,92.653,101.951,93.833,101.951z M58.861,114.146c0,1.709-0.518,3.056-1.553,4.044
	s-2.427,1.483-4.177,1.483s-3.14-0.493-4.175-1.483c-1.035-0.988-1.553-2.336-1.553-4.044c0-1.694,0.521-3.039,1.564-4.035
	c1.042-0.996,2.43-1.493,4.165-1.493c1.748,0,3.14,0.498,4.177,1.493C58.346,111.106,58.861,112.452,58.861,114.146z
	 M56.643,114.146c0-1.171-0.323-2.097-0.969-2.784c-0.645-0.686-1.493-1.029-2.542-1.029s-1.898,0.343-2.544,1.029
	c-0.645,0.686-0.969,1.614-0.969,2.784s0.323,2.097,0.969,2.784c0.645,0.686,1.493,1.029,2.542,1.029
	c1.049,0,1.897-0.344,2.542-1.029C56.319,116.243,56.643,115.316,56.643,114.146z M64.148,126.997h-2.24v-18.459h2.24
	C64.148,108.537,64.148,126.997,64.148,126.997z M78.088,120.865l-1.23,1.513c-0.862-0.457-1.748-1.21-2.663-2.258
	c-0.981-1.103-1.648-2.173-1.997-3.208c-0.323,1.089-0.928,2.158-1.816,3.208c-0.86,0.996-1.816,1.789-2.864,2.381l-1.311-1.513
	c1.721-1.197,2.945-2.528,3.672-3.995c0.699-1.426,1.049-3.201,1.049-5.326v-1.111h-4.056v-1.715h10.511v1.715h-4.076v1.112
	C73.306,115.642,74.901,118.708,78.088,120.865z M82.809,126.997h-2.24v-18.459h2.24V126.997z M102.802,119.291H84.766v-1.574h7.908
	v-1.937h-3.953c-0.592,0-0.998-0.107-1.222-0.322c-0.222-0.215-0.332-0.585-0.332-1.11v-5.81h13.214v1.513H89.387v1.372h10.733
	v1.432H89.387v0.686c0,0.484,0.248,0.726,0.747,0.726h10.31v1.513h-5.548v1.937h7.908L102.802,119.291L102.802,119.291z
	 M99.393,124.031c0,1.131-0.472,2.024-1.413,2.684c-0.996,0.686-2.395,1.028-4.197,1.028s-3.201-0.343-4.196-1.028
	c-0.942-0.66-1.411-1.553-1.411-2.684c0-1.13,0.47-2.024,1.411-2.682c0.995-0.686,2.394-1.028,4.196-1.028
	c1.801,0,3.201,0.343,4.197,1.028C98.921,122.007,99.393,122.902,99.393,124.031z M97.153,124.031c0-0.673-0.323-1.189-0.969-1.553
	c-0.592-0.336-1.392-0.504-2.402-0.504c-1.009,0-1.809,0.168-2.401,0.504c-0.645,0.363-0.969,0.881-0.969,1.553
	c0,0.659,0.323,1.171,0.969,1.534c0.591,0.35,1.392,0.523,2.401,0.523c1.01,0,1.809-0.175,2.402-0.523
	C96.83,125.201,97.153,124.689,97.153,124.031z M111.861,110.071c0,0.659-0.033,1.292-0.101,1.896h2.664v-3.45h2.058v18.258h-2.058
	v-7.586h-3.612v-1.815h3.612v-3.692h-2.925c-0.726,3.532-2.751,6.478-6.072,8.837l-1.391-1.392c3.591-2.635,5.387-5.918,5.387-9.844
	c0-0.498-0.255-0.748-0.766-0.748h-4.236v-1.716h6.153c0.511,0,0.853,0.084,1.028,0.252
	C111.774,109.239,111.861,109.573,111.861,110.071z M120.515,126.997h-2.138v-18.48h2.138V126.997z"/>
</svg>
