<?xml version="1.0" encoding="utf-8"?>
<!-- Generator: Adobe Illustrator 17.0.0, SVG Export Plug-In . SVG Version: 6.00 Build 0)  -->
<!DOCTYPE svg PUBLIC "-//W3C//DTD SVG 1.1//EN" "http://www.w3.org/Graphics/SVG/1.1/DTD/svg11.dtd">
<svg version="1.1" id="Layer_1" xmlns="http://www.w3.org/2000/svg" xmlns:xlink="http://www.w3.org/1999/xlink" x="0px" y="0px"
	 width="176px" height="133px" viewBox="0 0 176 133" enable-background="new 0 0 176 133" xml:space="preserve">
<path fill="#5FCC00" d="M125.424,25.32c4.768,0,8.63-3.865,8.63-8.63s-3.865-8.63-8.63-8.63H81.495
	c-21.938,0-39.726,17.784-39.726,39.726s17.784,39.723,39.726,39.723c4.768,0,8.63-3.865,8.63-8.632c0-4.767-3.865-8.63-8.63-8.63
	c-12.403,0-22.46-10.055-22.46-22.46s10.055-22.46,22.46-22.46l17.122-0.002V78.88c0,4.768,3.865,8.63,8.63,8.63
	s8.63-3.865,8.63-8.63V25.303L125.424,25.32z"/>
<circle fill="#44AA02" cx="79.354" cy="47.783" r="10.31"/>
<path fill="#44AA02" d="M114.03,101.387c1.18,0,2.137,0.957,2.137,2.137s-0.957,2.137-2.137,2.137s-2.137-0.957-2.137-2.137
	S112.85,101.387,114.03,101.387z M94.538,101.387c1.18,0,2.137,0.957,2.137,2.137s-0.957,2.137-2.137,2.137
	s-2.137-0.957-2.137-2.137C92.4,102.344,93.358,101.387,94.538,101.387z M59.566,113.582c0,1.709-0.518,3.056-1.553,4.044
	s-2.427,1.483-4.177,1.483s-3.14-0.493-4.175-1.483c-1.035-0.988-1.553-2.336-1.553-4.044c0-1.694,0.521-3.039,1.564-4.035
	c1.042-0.996,2.43-1.493,4.165-1.493c1.748,0,3.14,0.498,4.177,1.493C59.051,110.542,59.566,111.888,59.566,113.582z
	 M57.348,113.582c0-1.171-0.323-2.097-0.969-2.784c-0.645-0.686-1.493-1.029-2.542-1.029s-1.898,0.343-2.544,1.029
	c-0.645,0.686-0.969,1.614-0.969,2.784s0.323,2.097,0.969,2.784c0.645,0.686,1.493,1.029,2.542,1.029
	c1.049,0,1.897-0.344,2.542-1.029C57.024,115.679,57.348,114.752,57.348,113.582z M64.853,126.433h-2.24v-18.459h2.24
	C64.853,107.973,64.853,126.433,64.853,126.433z M78.793,120.301l-1.23,1.513c-0.862-0.457-1.748-1.21-2.663-2.258
	c-0.981-1.103-1.648-2.173-1.997-3.208c-0.323,1.089-0.928,2.158-1.816,3.208c-0.86,0.996-1.816,1.789-2.864,2.381l-1.311-1.513
	c1.721-1.197,2.945-2.528,3.672-3.995c0.699-1.426,1.049-3.201,1.049-5.326v-1.111h-4.056v-1.715h10.511v1.715h-4.076v1.112
	C74.011,115.078,75.606,118.144,78.793,120.301z M83.514,126.433h-2.24v-18.459h2.24V126.433z M103.507,118.727H85.471v-1.574h7.908
	v-1.937h-3.953c-0.592,0-0.998-0.107-1.222-0.322c-0.222-0.215-0.332-0.585-0.332-1.11v-5.81h13.214v1.513H90.092v1.372h10.733
	v1.432H90.092v0.686c0,0.484,0.248,0.726,0.747,0.726h10.31v1.513h-5.548v1.937h7.908L103.507,118.727L103.507,118.727z
	 M100.098,123.467c0,1.131-0.472,2.024-1.413,2.684c-0.996,0.686-2.395,1.028-4.197,1.028s-3.201-0.343-4.196-1.028
	c-0.942-0.66-1.411-1.553-1.411-2.684c0-1.13,0.47-2.024,1.411-2.682c0.995-0.686,2.394-1.028,4.196-1.028
	c1.801,0,3.201,0.343,4.197,1.028C99.626,121.443,100.098,122.338,100.098,123.467z M97.858,123.467
	c0-0.673-0.323-1.189-0.969-1.553c-0.592-0.336-1.392-0.504-2.402-0.504c-1.009,0-1.809,0.168-2.401,0.504
	c-0.645,0.363-0.969,0.881-0.969,1.553c0,0.659,0.323,1.171,0.969,1.534c0.591,0.35,1.392,0.523,2.401,0.523
	c1.01,0,1.809-0.175,2.402-0.523C97.535,124.637,97.858,124.125,97.858,123.467z M112.566,109.507c0,0.659-0.033,1.292-0.101,1.896
	h2.664v-3.45h2.058v18.258h-2.058v-7.586h-3.612v-1.815h3.612v-3.692h-2.925c-0.726,3.532-2.751,6.478-6.072,8.837l-1.391-1.392
	c3.591-2.635,5.387-5.918,5.387-9.844c0-0.498-0.255-0.748-0.766-0.748h-4.236v-1.716h6.153c0.511,0,0.853,0.084,1.028,0.252
	C112.479,108.675,112.566,109.009,112.566,109.507z M121.22,126.433h-2.138v-18.48h2.138V126.433z"/>
</svg>
