<?xml version="1.0" encoding="utf-8"?>
<!-- Generator: Adobe Illustrator 17.0.0, SVG Export Plug-In . SVG Version: 6.00 Build 0)  -->
<!DOCTYPE svg PUBLIC "-//W3C//DTD SVG 1.1//EN" "http://www.w3.org/Graphics/SVG/1.1/DTD/svg11.dtd">
<svg version="1.1" id="Layer_1" xmlns="http://www.w3.org/2000/svg" xmlns:xlink="http://www.w3.org/1999/xlink" x="0px" y="0px"
	 width="176px" height="133px" viewBox="0 0 176 133" enable-background="new 0 0 176 133" xml:space="preserve">
<path fill="#5FCC00" d="M125.424,25.32c4.768,0,8.63-3.865,8.63-8.63s-3.865-8.63-8.63-8.63H81.495
	c-21.938,0-39.726,17.784-39.726,39.726s17.784,39.723,39.726,39.723c4.768,0,8.63-3.865,8.63-8.632c0-4.767-3.865-8.63-8.63-8.63
	c-12.403,0-22.46-10.055-22.46-22.46s10.055-22.46,22.46-22.46l17.122-0.002V78.88c0,4.768,3.865,8.63,8.63,8.63
	s8.63-3.865,8.63-8.63V25.303L125.424,25.32z"/>
<circle fill="#44AA02" cx="79.354" cy="47.783" r="10.31"/>
<path fill="#44AA02" d="M90.088,101.387c1.18,0,2.137,0.957,2.137,2.137c0,1.18-0.957,2.137-2.137,2.137
	c-1.18,0-2.137-0.957-2.137-2.137C87.951,102.344,88.908,101.387,90.088,101.387z M70.596,101.387c1.18,0,2.137,0.957,2.137,2.137
	c0,1.18-0.957,2.137-2.137,2.137c-1.18,0-2.137-0.957-2.137-2.137C68.458,102.344,69.416,101.387,70.596,101.387z M35.624,113.582
	c0,1.709-0.518,3.056-1.553,4.044c-1.035,0.988-2.427,1.483-4.177,1.483s-3.14-0.493-4.175-1.483
	c-1.035-0.988-1.553-2.336-1.553-4.044c0-1.694,0.521-3.039,1.564-4.035c1.042-0.996,2.43-1.493,4.165-1.493
	c1.748,0,3.14,0.498,4.177,1.493C35.109,110.542,35.624,111.888,35.624,113.582z M33.406,113.582c0-1.171-0.323-2.097-0.969-2.784
	c-0.645-0.686-1.493-1.029-2.542-1.029c-1.049,0-1.898,0.343-2.544,1.029c-0.645,0.686-0.969,1.614-0.969,2.784
	s0.323,2.097,0.969,2.784c0.645,0.686,1.493,1.029,2.542,1.029c1.049,0,1.897-0.344,2.542-1.029
	C33.082,115.679,33.406,114.752,33.406,113.582z M40.911,126.433h-2.24v-18.459h2.24C40.911,107.973,40.911,126.433,40.911,126.433z
	 M54.851,120.301l-1.23,1.513c-0.862-0.457-1.748-1.21-2.663-2.258c-0.981-1.103-1.648-2.173-1.997-3.208
	c-0.323,1.089-0.928,2.158-1.816,3.208c-0.86,0.996-1.816,1.789-2.864,2.381l-1.311-1.513c1.721-1.197,2.945-2.528,3.672-3.995
	c0.699-1.426,1.049-3.201,1.049-5.326v-1.111h-4.056v-1.715h10.511v1.715H50.07v1.112C50.069,115.078,51.664,118.144,54.851,120.301
	z M59.572,126.433h-2.24v-18.459h2.24V126.433z M79.565,118.727H61.529v-1.574h7.908v-1.937h-3.953
	c-0.592,0-0.998-0.107-1.222-0.322c-0.222-0.215-0.332-0.585-0.332-1.11v-5.81h13.214v1.513H66.15v1.372h10.733v1.432H66.15v0.686
	c0,0.484,0.248,0.726,0.747,0.726h10.31v1.513h-5.548v1.937h7.908L79.565,118.727L79.565,118.727z M76.156,123.467
	c0,1.131-0.472,2.024-1.413,2.684c-0.996,0.686-2.395,1.028-4.197,1.028c-1.802,0-3.201-0.343-4.196-1.028
	c-0.942-0.66-1.411-1.553-1.411-2.684c0-1.13,0.47-2.024,1.411-2.682c0.995-0.686,2.394-1.028,4.196-1.028
	c1.801,0,3.201,0.343,4.197,1.028C75.684,121.443,76.156,122.338,76.156,123.467z M73.916,123.467c0-0.673-0.323-1.189-0.969-1.553
	c-0.592-0.336-1.392-0.504-2.402-0.504c-1.009,0-1.809,0.168-2.401,0.504c-0.645,0.363-0.969,0.881-0.969,1.553
	c0,0.659,0.323,1.171,0.969,1.534c0.591,0.35,1.392,0.523,2.401,0.523c1.01,0,1.809-0.175,2.402-0.523
	C73.593,124.637,73.916,124.125,73.916,123.467z M88.624,109.507c0,0.659-0.033,1.292-0.101,1.896h2.664v-3.45h2.058v18.258h-2.058
	v-7.586h-3.612v-1.815h3.612v-3.692h-2.925c-0.726,3.532-2.751,6.478-6.072,8.837l-1.391-1.392c3.591-2.635,5.387-5.918,5.387-9.844
	c0-0.498-0.255-0.748-0.766-0.748h-4.236v-1.716h6.153c0.511,0,0.853,0.084,1.028,0.252
	C88.537,108.675,88.624,109.009,88.624,109.507z M97.278,126.433H95.14v-18.48h2.138V126.433z"/>
<path fill="#44AA02" d="M111.683,117.951v1.482c1.449,0.097,2.55,0.395,3.301,0.894c0.751,0.499,1.126,1.103,1.126,1.812
	c0,0.794-0.458,1.455-1.376,1.981c-0.918,0.526-2.246,0.789-3.986,0.789c-1.74,0-3.071-0.263-3.995-0.789
	c-0.924-0.526-1.385-1.186-1.385-1.981c0-0.709,0.378-1.314,1.135-1.812c0.757-0.5,1.854-0.797,3.293-0.894v-1.482h-3.284
	c-0.419,0-0.829,0.003-1.232,0.008c-0.403,0.006-0.813,0.024-1.231,0.058v-1.61c0.418,0.032,0.829,0.051,1.231,0.056
	c0.404,0.006,0.813,0.008,1.232,0.008h8.504c0.418,0,0.829-0.002,1.231-0.008c0.404-0.006,0.813-0.024,1.232-0.056v1.61
	c-0.419-0.032-0.829-0.052-1.232-0.058c-0.403-0.005-0.813-0.008-1.231-0.008C115.017,117.951,111.683,117.951,111.683,117.951z
	 M107.158,112.105c-0.29,0-0.551,0.002-0.782,0.008c-0.23,0.006-0.485,0.024-0.765,0.056v-1.61c0.28,0.032,0.535,0.051,0.765,0.056
	c0.231,0.006,0.492,0.008,0.782,0.008h7.213c0.28,0,0.534-0.002,0.765-0.008c0.23-0.005,0.491-0.024,0.781-0.056v1.61
	c-0.29-0.032-0.551-0.051-0.781-0.056c-0.231-0.006-0.485-0.008-0.765-0.008h-2.528c0.171,0.332,0.435,0.622,0.79,0.87
	c0.354,0.247,0.761,0.456,1.223,0.628c0.461,0.193,0.952,0.344,1.473,0.451c0.521,0.108,1.023,0.187,1.507,0.242
	c-0.162,0.225-0.322,0.454-0.484,0.684c-0.161,0.231-0.306,0.443-0.435,0.637c-0.451-0.066-0.928-0.154-1.433-0.266
	c-0.504-0.113-0.997-0.266-1.48-0.459c-0.461-0.17-0.891-0.383-1.288-0.636c-0.398-0.252-0.72-0.551-0.966-0.894
	c-0.225,0.291-0.519,0.556-0.879,0.797c-0.36,0.242-0.759,0.459-1.2,0.652c-0.451,0.193-0.939,0.36-1.464,0.499
	c-0.527,0.139-1.064,0.242-1.61,0.307c-0.118-0.183-0.263-0.392-0.435-0.629c-0.171-0.236-0.35-0.477-0.531-0.725
	c0.548-0.053,1.095-0.137,1.643-0.25c0.549-0.113,1.052-0.265,1.514-0.458c0.439-0.171,0.827-0.376,1.159-0.612
	c0.332-0.237,0.574-0.515,0.725-0.837h-2.512V112.105z M107.367,122.121c0,0.452,0.3,0.797,0.902,1.039
	c0.6,0.242,1.427,0.362,2.48,0.362c1.031,0,1.851-0.12,2.464-0.355s0.918-0.574,0.918-1.015c0-0.451-0.306-0.802-0.918-1.055
	c-0.612-0.253-1.433-0.378-2.464-0.378c-1.052,0-1.88,0.121-2.48,0.362C107.667,121.324,107.367,121.671,107.367,122.121z"/>
<path fill="#44AA02" d="M126.239,112.862h-5.91c-0.236,0-0.451,0.003-0.644,0.008c-0.193,0.006-0.404,0.024-0.628,0.056v-1.482
	c0.224,0.032,0.435,0.048,0.628,0.048c0.193,0,0.407,0,0.644,0h2.19v-0.612c0-0.182-0.003-0.36-0.008-0.531
	c-0.006-0.171-0.015-0.354-0.024-0.548h1.9c-0.023,0.193-0.032,0.376-0.032,0.548s0,0.35,0,0.531v0.612h1.884
	c0.225,0,0.435,0,0.628,0c0.193,0,0.408-0.016,0.645-0.048v1.482c-0.236-0.031-0.452-0.051-0.645-0.056
	C126.674,112.865,126.466,112.862,126.239,112.862z M119.524,116.244c0-0.398,0.091-0.771,0.274-1.12
	c0.182-0.349,0.445-0.646,0.789-0.893c0.334-0.259,0.73-0.459,1.192-0.604c0.461-0.145,0.972-0.217,1.53-0.217
	c1.149,0,2.059,0.269,2.73,0.805c0.671,0.537,1.006,1.203,1.006,1.997c0,0.827-0.346,1.501-1.039,2.021
	c-0.692,0.521-1.602,0.781-2.728,0.781c-0.527,0-1.018-0.07-1.473-0.209c-0.457-0.139-0.851-0.332-1.184-0.58
	c-0.344-0.247-0.612-0.539-0.805-0.878C119.622,117.009,119.524,116.641,119.524,116.244z M130.524,123.2
	c0,0.247,0.005,0.499,0.016,0.757c0.01,0.258,0.032,0.504,0.064,0.741h-1.932c0.032-0.225,0.051-0.473,0.056-0.741
	c0.006-0.268,0.008-0.521,0.008-0.757v-1.626h-6.297c-0.322,0-0.618,0.002-0.886,0.008c-0.268,0.006-0.564,0.024-0.887,0.056v-1.578
	c0.322,0.032,0.618,0.048,0.887,0.048c0.267,0,0.562,0,0.886,0h8.148c-0.032,0.216-0.051,0.421-0.056,0.62
	c-0.006,0.199-0.008,0.4-0.008,0.604V123.2z M121.296,116.228c0,0.473,0.191,0.821,0.572,1.047s0.862,0.338,1.441,0.338
	c0.591,0,1.069-0.115,1.433-0.346c0.365-0.23,0.549-0.577,0.549-1.039s-0.185-0.816-0.556-1.063s-0.845-0.37-1.425-0.37
	s-1.061,0.129-1.441,0.386C121.487,115.438,121.296,115.788,121.296,116.228z M130.524,114.021h0.676
	c0.193,0,0.397-0.002,0.612-0.008c0.215-0.006,0.418-0.024,0.611-0.056v1.723c-0.193-0.032-0.395-0.051-0.603-0.056
	c-0.21-0.006-0.406-0.008-0.588-0.008h-0.709v3.881h-1.723v-7.618c0-0.268-0.006-0.536-0.017-0.805
	c-0.01-0.268-0.031-0.542-0.064-0.821h1.868c-0.032,0.28-0.051,0.553-0.056,0.821c-0.006,0.268-0.008,0.537-0.008,0.805v2.143
	H130.524z"/>
<path fill="#44AA02" d="M144.019,121.526c0.419,0,0.829-0.002,1.232-0.008c0.403-0.006,0.813-0.024,1.231-0.058v1.644
	c-0.418-0.032-0.829-0.052-1.231-0.056c-0.404-0.006-0.813-0.009-1.232-0.009h-8.535c-0.419,0-0.829,0.003-1.232,0.009
	c-0.403,0.005-0.813,0.024-1.232,0.056v-1.644c0.419,0.032,0.83,0.052,1.232,0.058c0.404,0.006,0.813,0.008,1.232,0.008h0.499
	v-3.688c0-0.225-0.002-0.461-0.008-0.709c-0.006-0.247-0.024-0.483-0.056-0.709h1.868c-0.032,0.216-0.052,0.454-0.056,0.717
	c-0.006,0.263-0.008,0.497-0.008,0.701v3.688h1.706v-3.688c0-0.225-0.002-0.461-0.008-0.709c-0.006-0.247-0.024-0.483-0.056-0.709
	h1.884c-0.032,0.216-0.051,0.454-0.056,0.717c-0.006,0.263-0.008,0.497-0.008,0.701v3.688H144.019z M136.29,112.54
	c-0.344,0-0.652,0.002-0.927,0.008c-0.273,0.006-0.577,0.024-0.91,0.056v-1.626c0.332,0.032,0.637,0.051,0.91,0.056
	c0.274,0.006,0.583,0.008,0.927,0.008h8.744c-0.032,0.688-0.07,1.395-0.113,2.127c-0.044,0.73-0.097,1.464-0.162,2.205
	c-0.075,0.742-0.159,1.471-0.25,2.19c-0.091,0.72-0.196,1.407-0.313,2.061h-1.723c0.097-0.558,0.185-1.146,0.265-1.763
	c0.081-0.617,0.153-1.231,0.217-1.844c0.053-0.622,0.099-1.228,0.137-1.82c0.037-0.591,0.067-1.143,0.087-1.659
	C143.18,112.54,136.29,112.54,136.29,112.54z"/>
<path fill="#44AA02" d="M151.293,116.904v-1.81c-0.64-0.233-1.127-0.529-1.462-0.889c-0.334-0.36-0.501-0.768-0.501-1.225
	c0-0.345,0.116-0.672,0.351-0.981c0.233-0.309,0.568-0.581,1.004-0.813c0.436-0.224,0.962-0.404,1.576-0.54
	c0.613-0.137,1.301-0.205,2.063-0.205c0.761,0,1.45,0.067,2.069,0.199c0.619,0.132,1.147,0.315,1.583,0.548
	c0.436,0.233,0.77,0.505,1.004,0.813c0.233,0.309,0.351,0.647,0.351,1.012c0,0.455-0.168,0.862-0.501,1.217
	c-0.334,0.355-0.812,0.644-1.431,0.868v1.812h0.959c0.394,0,0.784-0.002,1.163-0.008c0.38-0.005,0.768-0.022,1.164-0.053v1.552
	c-0.396-0.029-0.784-0.048-1.164-0.053c-0.38-0.005-0.768-0.008-1.163-0.008h-8.037c-0.396,0-0.784,0.002-1.164,0.008
	c-0.38,0.005-0.768,0.023-1.163,0.053v-1.552c0.394,0.031,0.784,0.048,1.163,0.053c0.38,0.005,0.768,0.008,1.164,0.008h0.972
	V116.904z M149.239,121.805c0-0.751,0.435-1.365,1.301-1.841c0.868-0.477,2.124-0.716,3.766-0.716c1.653,0,2.917,0.247,3.789,0.737
	c0.872,0.492,1.309,1.104,1.309,1.835c0,0.72-0.435,1.326-1.301,1.818c-0.868,0.492-2.128,0.737-3.782,0.737
	c-1.644,0-2.903-0.245-3.775-0.737C149.676,123.146,149.239,122.536,149.239,121.805z M151.141,121.805
	c0,0.414,0.283,0.737,0.844,0.966s1.341,0.343,2.336,0.343c0.962,0,1.734-0.116,2.313-0.351c0.577-0.233,0.868-0.548,0.868-0.944
	c0-0.405-0.29-0.728-0.868-0.966c-0.579-0.239-1.351-0.357-2.313-0.357c-0.995,0-1.774,0.116-2.336,0.349
	C151.424,121.08,151.141,121.398,151.141,121.805z M151.186,112.962c0,0.396,0.287,0.713,0.86,0.95
	c0.573,0.239,1.332,0.357,2.276,0.357c0.922,0,1.678-0.113,2.268-0.342c0.588-0.228,0.882-0.54,0.882-0.936s-0.3-0.713-0.899-0.952
	c-0.599-0.239-1.349-0.357-2.251-0.357c-0.924,0-1.677,0.116-2.26,0.351C151.478,112.269,151.186,112.577,151.186,112.962z
	 M155.751,116.904v-1.461c-0.213,0.04-0.444,0.068-0.692,0.084c-0.248,0.016-0.495,0.023-0.737,0.023
	c-0.244,0-0.486-0.008-0.723-0.023c-0.239-0.016-0.46-0.039-0.663-0.068v1.445H155.751z"/>
</svg>
