<?xml version="1.0" encoding="utf-8"?>
<!-- Generator: Adobe Illustrator 17.0.0, SVG Export Plug-In . SVG Version: 6.00 Build 0)  -->
<!DOCTYPE svg PUBLIC "-//W3C//DTD SVG 1.1//EN" "http://www.w3.org/Graphics/SVG/1.1/DTD/svg11.dtd">
<svg version="1.1" id="Layer_1" xmlns="http://www.w3.org/2000/svg" xmlns:xlink="http://www.w3.org/1999/xlink" x="0px" y="0px"
	 width="44.667px" height="40px" viewBox="0 0 44.667 40" enable-background="new 0 0 44.667 40" xml:space="preserve">
<circle fill="#6BB745" cx="19.5" cy="20.295" r="4.031"/>
<path fill="#91D300" d="M37.511,11.513c1.864,0,3.374-1.511,3.374-3.374s-1.511-3.374-3.374-3.374H20.337
	c-8.577,0-15.531,6.953-15.531,15.531s6.953,15.53,15.531,15.53c1.864,0,3.374-1.511,3.374-3.375c0-1.864-1.511-3.374-3.374-3.374
	c-4.849,0-8.781-3.931-8.781-8.781s3.931-8.781,8.781-8.781l6.694-0.001v20.938c0,1.864,1.511,3.374,3.374,3.374
	s3.374-1.511,3.374-3.374V11.506L37.511,11.513z"/>
</svg>
