<?xml version="1.0" encoding="utf-8"?>
<!-- Generator: Adobe Illustrator 17.0.0, SVG Export Plug-In . SVG Version: 6.00 Build 0)  -->
<!DOCTYPE svg PUBLIC "-//W3C//DTD SVG 1.1//EN" "http://www.w3.org/Graphics/SVG/1.1/DTD/svg11.dtd">
<svg version="1.1" id="Layer_1" xmlns="http://www.w3.org/2000/svg" xmlns:xlink="http://www.w3.org/1999/xlink" x="0px" y="0px"
	 width="121.542px" height="46px" viewBox="0 0 121.542 46" enable-background="new 0 0 121.542 46" xml:space="preserve">
<path fill="#FFFFFF" d="M74.7,10.152c1.14,0,2.065,0.925,2.065,2.065s-0.925,2.065-2.065,2.065s-2.065-0.925-2.065-2.065
	S73.559,10.152,74.7,10.152z M55.864,10.152c1.14,0,2.065,0.925,2.065,2.065s-0.925,2.065-2.065,2.065s-2.065-0.925-2.065-2.065
	S54.724,10.152,55.864,10.152z M22.072,21.936c0,1.652-0.5,2.953-1.501,3.908c-1,0.955-2.345,1.433-4.036,1.433
	c-1.691,0-3.034-0.477-4.035-1.433C11.5,24.889,11,23.587,11,21.936c0-1.637,0.504-2.937,1.512-3.899
	c1.007-0.963,2.349-1.443,4.025-1.443c1.689,0,3.034,0.481,4.036,1.443C21.574,18.998,22.072,20.299,22.072,21.936z M19.928,21.936
	c0-1.131-0.312-2.026-0.936-2.69c-0.624-0.662-1.443-0.995-2.456-0.995s-1.834,0.331-2.459,0.995
	c-0.624,0.662-0.936,1.559-0.936,2.69s0.312,2.026,0.936,2.69c0.624,0.662,1.443,0.995,2.456,0.995s1.833-0.332,2.456-0.995
	C19.615,23.962,19.928,23.066,19.928,21.936z M27.18,34.354h-2.164V16.516h2.164C27.18,16.516,27.18,34.354,27.18,34.354z
	 M40.65,28.428l-1.188,1.462c-0.833-0.441-1.689-1.169-2.573-2.182c-0.948-1.066-1.593-2.1-1.93-3.1
	c-0.312,1.053-0.897,2.085-1.755,3.1c-0.831,0.963-1.755,1.728-2.768,2.301l-1.267-1.462c1.663-1.157,2.845-2.443,3.548-3.86
	c0.676-1.378,1.014-3.093,1.014-5.146v-1.074h-3.919V16.81h10.157v1.657h-3.938v1.075C36.03,23.382,37.57,26.344,40.65,28.428z
	 M45.212,34.354h-2.164V16.516h2.164V34.354z M64.532,26.908H47.104v-1.521h7.642v-1.872h-3.82c-0.572,0-0.965-0.103-1.18-0.311
	c-0.215-0.208-0.321-0.566-0.321-1.073v-5.614h12.769v1.462H51.568v1.326H61.94v1.384H51.568v0.662c0,0.468,0.24,0.701,0.721,0.701
	h9.962v1.462h-5.361v1.872h7.642L64.532,26.908L64.532,26.908z M61.237,31.488c0,1.093-0.456,1.956-1.365,2.593
	c-0.963,0.662-2.314,0.994-4.056,0.994c-1.742,0-3.093-0.331-4.055-0.994c-0.91-0.638-1.364-1.501-1.364-2.593
	c0-1.091,0.455-1.956,1.364-2.592c0.961-0.662,2.313-0.994,4.055-0.994c1.741,0,3.093,0.331,4.056,0.994
	C60.782,29.532,61.237,30.397,61.237,31.488z M59.073,31.488c0-0.65-0.312-1.149-0.936-1.501c-0.572-0.325-1.345-0.487-2.321-0.487
	c-0.975,0-1.748,0.162-2.32,0.487c-0.624,0.351-0.936,0.851-0.936,1.501c0,0.637,0.312,1.132,0.936,1.483
	c0.571,0.338,1.345,0.506,2.32,0.506c0.976,0,1.748-0.169,2.321-0.506C58.761,32.619,59.073,32.124,59.073,31.488z M73.285,17.998
	c0,0.637-0.032,1.248-0.098,1.832h2.574v-3.333h1.988v17.643h-1.988v-7.33h-3.49v-1.754h3.49v-3.568h-2.827
	c-0.701,3.413-2.659,6.26-5.868,8.54l-1.344-1.345c3.47-2.546,5.205-5.719,5.205-9.512c0-0.481-0.247-0.722-0.74-0.722h-4.094
	v-1.658h5.945c0.494,0,0.825,0.081,0.994,0.243C73.201,17.194,73.285,17.517,73.285,17.998z M81.648,34.354h-2.066V16.496h2.066
	V34.354z"/>
</svg>
