<?xml version="1.0" encoding="utf-8"?>
<!-- Generator: Adobe Illustrator 17.0.0, SVG Export Plug-In . SVG Version: 6.00 Build 0)  -->
<!DOCTYPE svg PUBLIC "-//W3C//DTD SVG 1.1//EN" "http://www.w3.org/Graphics/SVG/1.1/DTD/svg11.dtd">
<svg version="1.1" id="Layer_1" xmlns="http://www.w3.org/2000/svg" xmlns:xlink="http://www.w3.org/1999/xlink" x="0px" y="0px"
	 width="121.542px" height="46px" viewBox="0 0 121.542 46" enable-background="new 0 0 121.542 46" xml:space="preserve">
<path fill="#6BB745" d="M58.31,11.652c1.026,0,1.858,0.832,1.858,1.858s-0.832,1.858-1.858,1.858s-1.858-0.832-1.858-1.858
	S57.284,11.652,58.31,11.652z M41.364,11.652c1.026,0,1.858,0.832,1.858,1.858s-0.832,1.858-1.858,1.858s-1.858-0.832-1.858-1.858
	S40.338,11.652,41.364,11.652z M10.961,22.254c0,1.486-0.45,2.657-1.35,3.516c-0.9,0.859-2.11,1.289-3.631,1.289
	S3.25,26.63,2.35,25.77C1.45,24.911,1,23.739,1,22.254c0-1.473,0.453-2.642,1.36-3.508c0.906-0.866,2.113-1.298,3.621-1.298
	c1.52,0,2.73,0.433,3.631,1.298S10.961,20.781,10.961,22.254z M9.032,22.254c0-1.018-0.281-1.823-0.842-2.42
	c-0.561-0.596-1.298-0.895-2.21-0.895s-1.65,0.298-2.212,0.895c-0.561,0.596-0.842,1.403-0.842,2.42s0.281,1.823,0.842,2.42
	c0.561,0.596,1.298,0.895,2.21,0.895s1.649-0.299,2.21-0.895C8.751,24.077,9.032,23.271,9.032,22.254z M15.557,33.426H13.61V17.378
	h1.947C15.557,17.378,15.557,33.426,15.557,33.426z M27.676,28.095l-1.069,1.315c-0.749-0.397-1.52-1.052-2.315-1.963
	c-0.853-0.959-1.433-1.889-1.736-2.789c-0.281,0.947-0.807,1.876-1.579,2.789c-0.748,0.866-1.579,1.555-2.49,2.07l-1.14-1.315
	c1.496-1.041,2.56-2.198,3.192-3.473c0.608-1.24,0.912-2.783,0.912-4.63v-0.966h-3.526v-1.491h9.138v1.491H23.52V20.1
	C23.519,23.555,24.905,26.22,27.676,28.095z M31.78,33.426h-1.947V17.378h1.947V33.426z M49.162,26.727h-15.68v-1.368h6.875v-1.684
	H36.92c-0.515,0-0.868-0.093-1.062-0.28c-0.193-0.187-0.289-0.509-0.289-0.965v-5.051h11.488v1.315h-9.558v1.193h9.331v1.245h-9.331
	v0.596c0,0.421,0.216,0.631,0.649,0.631h8.963v1.315h-4.823v1.684h6.875L49.162,26.727L49.162,26.727z M46.198,30.848
	c0,0.983-0.41,1.76-1.228,2.333c-0.866,0.596-2.082,0.894-3.649,0.894c-1.567,0-2.783-0.298-3.648-0.894
	c-0.819-0.574-1.227-1.35-1.227-2.333c0-0.982,0.409-1.76,1.227-2.332c0.865-0.596,2.081-0.894,3.648-0.894
	c1.566,0,2.783,0.298,3.649,0.894C45.788,29.088,46.198,29.866,46.198,30.848z M44.251,30.848c0-0.585-0.281-1.034-0.842-1.35
	c-0.515-0.292-1.21-0.438-2.088-0.438c-0.877,0-1.573,0.146-2.087,0.438c-0.561,0.316-0.842,0.766-0.842,1.35
	c0,0.573,0.281,1.018,0.842,1.334c0.514,0.304,1.21,0.455,2.087,0.455c0.878,0,1.573-0.152,2.088-0.455
	C43.97,31.865,44.251,31.42,44.251,30.848z M57.037,18.711c0,0.573-0.029,1.123-0.088,1.648h2.316V17.36h1.789v15.873h-1.789v-6.595
	h-3.14V25.06h3.14v-3.21h-2.543c-0.631,3.071-2.392,5.632-5.279,7.683l-1.209-1.21c3.122-2.291,4.683-5.145,4.683-8.558
	c0-0.433-0.222-0.65-0.666-0.65h-3.683v-1.492h5.349c0.444,0,0.742,0.073,0.894,0.219C56.962,17.988,57.037,18.278,57.037,18.711z
	 M64.561,33.426h-1.859V17.36h1.859V33.426z"/>
<path fill="#6BB745" d="M77.084,26.052v1.288c1.26,0.084,2.217,0.343,2.87,0.777s0.979,0.959,0.979,1.575
	c0,0.69-0.398,1.265-1.196,1.722S77.784,32.1,76.272,32.1c-1.513,0-2.67-0.229-3.473-0.686s-1.204-1.031-1.204-1.722
	c0-0.616,0.329-1.142,0.987-1.575c0.658-0.435,1.612-0.693,2.863-0.777v-1.288H72.59c-0.364,0-0.721,0.003-1.071,0.007
	c-0.35,0.005-0.707,0.021-1.07,0.05v-1.4c0.363,0.028,0.721,0.044,1.07,0.049c0.351,0.005,0.707,0.007,1.071,0.007h7.393
	c0.363,0,0.721-0.002,1.07-0.007c0.351-0.005,0.707-0.021,1.071-0.049v1.4c-0.364-0.028-0.721-0.045-1.071-0.05
	c-0.35-0.004-0.707-0.007-1.07-0.007C79.983,26.052,77.084,26.052,77.084,26.052z M73.15,20.97c-0.252,0-0.479,0.002-0.68,0.007
	c-0.2,0.005-0.422,0.021-0.665,0.049v-1.4c0.243,0.028,0.465,0.044,0.665,0.049c0.201,0.005,0.428,0.007,0.68,0.007h6.271
	c0.243,0,0.464-0.002,0.665-0.007c0.2-0.004,0.427-0.021,0.679-0.049v1.4c-0.252-0.028-0.479-0.044-0.679-0.049
	c-0.201-0.005-0.422-0.007-0.665-0.007h-2.198c0.149,0.289,0.378,0.541,0.687,0.756c0.308,0.215,0.662,0.396,1.063,0.546
	c0.401,0.168,0.828,0.299,1.281,0.392c0.453,0.094,0.889,0.163,1.31,0.21c-0.141,0.196-0.28,0.395-0.421,0.595
	c-0.14,0.201-0.266,0.385-0.378,0.554c-0.392-0.057-0.807-0.134-1.246-0.231c-0.438-0.098-0.867-0.231-1.287-0.399
	c-0.401-0.148-0.775-0.333-1.12-0.553c-0.346-0.219-0.626-0.479-0.84-0.777c-0.196,0.253-0.451,0.483-0.764,0.693
	s-0.66,0.399-1.043,0.567c-0.392,0.168-0.816,0.313-1.273,0.434c-0.458,0.121-0.925,0.21-1.4,0.267
	c-0.103-0.159-0.229-0.341-0.378-0.547c-0.149-0.205-0.304-0.415-0.462-0.63c0.476-0.046,0.952-0.119,1.428-0.217
	c0.477-0.098,0.915-0.23,1.316-0.398c0.382-0.149,0.719-0.327,1.008-0.532c0.289-0.206,0.499-0.448,0.63-0.728H73.15V20.97z
	 M73.332,29.678c0,0.393,0.261,0.693,0.784,0.903c0.522,0.21,1.241,0.315,2.156,0.315c0.896,0,1.609-0.104,2.142-0.309
	s0.798-0.499,0.798-0.882c0-0.392-0.266-0.697-0.798-0.917s-1.246-0.329-2.142-0.329c-0.915,0-1.634,0.105-2.156,0.315
	C73.593,28.985,73.332,29.286,73.332,29.678z"/>
<path fill="#6BB745" d="M89.739,21.628h-5.138c-0.205,0-0.392,0.003-0.56,0.007c-0.168,0.005-0.351,0.021-0.546,0.049v-1.288
	c0.195,0.028,0.378,0.042,0.546,0.042s0.354,0,0.56,0h1.904v-0.532c0-0.158-0.003-0.313-0.007-0.462
	c-0.005-0.149-0.013-0.308-0.021-0.476h1.652c-0.02,0.168-0.028,0.327-0.028,0.476s0,0.304,0,0.462v0.532h1.638
	c0.196,0,0.378,0,0.546,0s0.355-0.014,0.561-0.042v1.288c-0.205-0.027-0.393-0.044-0.561-0.049
	C90.117,21.631,89.936,21.628,89.739,21.628z M83.901,24.568c0-0.346,0.079-0.67,0.238-0.974c0.158-0.303,0.387-0.562,0.686-0.776
	c0.29-0.225,0.635-0.399,1.036-0.525s0.845-0.189,1.33-0.189c0.999,0,1.79,0.234,2.373,0.7c0.583,0.467,0.875,1.046,0.875,1.736
	c0,0.719-0.301,1.305-0.903,1.757c-0.602,0.453-1.393,0.679-2.372,0.679c-0.458,0-0.885-0.061-1.281-0.182
	c-0.397-0.121-0.74-0.289-1.029-0.504c-0.299-0.215-0.532-0.469-0.7-0.763S83.901,24.913,83.901,24.568z M93.464,30.616
	c0,0.215,0.004,0.434,0.014,0.658c0.009,0.224,0.028,0.438,0.056,0.644h-1.68c0.028-0.196,0.044-0.411,0.049-0.644
	c0.005-0.233,0.007-0.453,0.007-0.658v-1.414h-5.474c-0.28,0-0.537,0.002-0.77,0.007c-0.233,0.005-0.49,0.021-0.771,0.049v-1.372
	c0.28,0.028,0.537,0.042,0.771,0.042c0.232,0,0.489,0,0.77,0h7.084c-0.028,0.188-0.044,0.366-0.049,0.539s-0.007,0.348-0.007,0.525
	V30.616z M85.441,24.554c0,0.411,0.166,0.714,0.497,0.91s0.749,0.294,1.253,0.294c0.514,0,0.929-0.1,1.246-0.301
	c0.317-0.2,0.477-0.502,0.477-0.903s-0.161-0.709-0.483-0.924s-0.735-0.322-1.239-0.322s-0.922,0.112-1.253,0.336
	C85.607,23.868,85.441,24.172,85.441,24.554z M93.464,22.636h0.588c0.168,0,0.345-0.002,0.532-0.007s0.363-0.021,0.531-0.049v1.498
	c-0.168-0.028-0.343-0.044-0.524-0.049c-0.183-0.005-0.353-0.007-0.511-0.007h-0.616v3.374h-1.498v-6.623
	c0-0.233-0.005-0.466-0.015-0.7c-0.009-0.233-0.027-0.471-0.056-0.714h1.624c-0.028,0.243-0.044,0.481-0.049,0.714
	s-0.007,0.467-0.007,0.7v1.863H93.464z"/>
<path fill="#6BB745" d="M105.196,29.16c0.364,0,0.721-0.002,1.071-0.007s0.707-0.021,1.07-0.05v1.429
	c-0.363-0.028-0.721-0.045-1.07-0.049c-0.351-0.005-0.707-0.008-1.071-0.008h-7.42c-0.364,0-0.721,0.003-1.071,0.008
	c-0.35,0.004-0.707,0.021-1.071,0.049v-1.429c0.364,0.028,0.722,0.045,1.071,0.05c0.351,0.005,0.707,0.007,1.071,0.007h0.434v-3.206
	c0-0.196-0.002-0.401-0.007-0.616s-0.021-0.42-0.049-0.616h1.624c-0.028,0.188-0.045,0.395-0.049,0.623
	c-0.005,0.229-0.007,0.432-0.007,0.609v3.206h1.483v-3.206c0-0.196-0.002-0.401-0.007-0.616s-0.021-0.42-0.049-0.616h1.638
	c-0.028,0.188-0.044,0.395-0.049,0.623c-0.005,0.229-0.007,0.432-0.007,0.609v3.206H105.196z M98.477,21.348
	c-0.299,0-0.567,0.002-0.806,0.007c-0.237,0.005-0.502,0.021-0.791,0.049V19.99c0.289,0.028,0.554,0.044,0.791,0.049
	c0.238,0.005,0.507,0.007,0.806,0.007h7.602c-0.028,0.598-0.061,1.213-0.098,1.849c-0.038,0.635-0.084,1.273-0.141,1.917
	c-0.065,0.645-0.138,1.279-0.217,1.904c-0.079,0.626-0.17,1.223-0.272,1.792h-1.498c0.084-0.485,0.161-0.996,0.23-1.533
	c0.07-0.536,0.133-1.07,0.189-1.603c0.046-0.541,0.086-1.068,0.119-1.582c0.032-0.514,0.058-0.994,0.076-1.442
	C104.467,21.348,98.477,21.348,98.477,21.348z"/>
<path fill="#6BB745" d="M111.52,25.142v-1.574c-0.556-0.202-0.98-0.46-1.271-0.773c-0.29-0.313-0.436-0.668-0.436-1.065
	c0-0.3,0.101-0.584,0.305-0.853c0.202-0.269,0.494-0.505,0.873-0.707c0.379-0.194,0.837-0.351,1.37-0.47s1.131-0.178,1.794-0.178
	c0.661,0,1.26,0.058,1.799,0.173c0.538,0.115,0.997,0.274,1.377,0.476c0.379,0.202,0.669,0.439,0.873,0.707
	c0.202,0.269,0.305,0.563,0.305,0.88c0,0.395-0.146,0.749-0.436,1.058c-0.29,0.309-0.706,0.56-1.244,0.754v1.575h0.834
	c0.343,0,0.682-0.001,1.011-0.007c0.331-0.004,0.668-0.019,1.012-0.046v1.35c-0.344-0.026-0.682-0.042-1.012-0.046
	c-0.331-0.004-0.668-0.007-1.011-0.007h-6.987c-0.344,0-0.682,0.001-1.012,0.007c-0.331,0.004-0.668,0.02-1.011,0.046v-1.35
	c0.343,0.027,0.682,0.042,1.011,0.046c0.331,0.004,0.668,0.007,1.012,0.007h0.845V25.142z M109.734,29.403
	c0-0.653,0.378-1.186,1.131-1.601c0.754-0.414,1.846-0.622,3.274-0.622c1.437,0,2.536,0.215,3.294,0.641
	c0.758,0.428,1.138,0.96,1.138,1.595c0,0.626-0.378,1.153-1.131,1.58c-0.754,0.428-1.85,0.641-3.288,0.641
	c-1.429,0-2.524-0.213-3.282-0.641C110.114,30.569,109.734,30.038,109.734,29.403z M111.388,29.403c0,0.36,0.246,0.641,0.734,0.839
	s1.166,0.298,2.031,0.298c0.837,0,1.507-0.101,2.011-0.305c0.502-0.202,0.754-0.476,0.754-0.821c0-0.352-0.252-0.633-0.754-0.839
	c-0.503-0.208-1.174-0.31-2.011-0.31c-0.865,0-1.543,0.101-2.031,0.304C111.633,28.772,111.388,29.049,111.388,29.403z
	 M111.427,21.715c0,0.344,0.25,0.619,0.748,0.826c0.498,0.208,1.158,0.31,1.978,0.31c0.802,0,1.459-0.099,1.972-0.297
	c0.511-0.198,0.767-0.47,0.767-0.814s-0.26-0.619-0.781-0.827c-0.521-0.208-1.173-0.31-1.957-0.31c-0.803,0-1.458,0.101-1.965,0.305
	C111.681,21.112,111.427,21.381,111.427,21.715z M115.396,25.142v-1.27c-0.185,0.035-0.386,0.059-0.602,0.073
	c-0.216,0.013-0.431,0.02-0.641,0.02c-0.212,0-0.422-0.007-0.629-0.02c-0.208-0.013-0.399-0.034-0.576-0.059v1.256H115.396z"/>
</svg>
