<?xml version="1.0" encoding="utf-8"?>
<!-- Generator: Adobe Illustrator 17.0.0, SVG Export Plug-In . SVG Version: 6.00 Build 0)  -->
<!DOCTYPE svg PUBLIC "-//W3C//DTD SVG 1.1//EN" "http://www.w3.org/Graphics/SVG/1.1/DTD/svg11.dtd">
<svg version="1.1" id="레이어_1" xmlns="http://www.w3.org/2000/svg" xmlns:xlink="http://www.w3.org/1999/xlink" x="0px"
	 y="0px" width="30px" height="30px" viewBox="0 0 30 30" enable-background="new 0 0 30 30" xml:space="preserve">
<polygon fill="#555555" points="19.708,18.167 19.708,21.994 9.45,21.994 9.45,18.167 8.008,18.167 8.008,23.437 21.15,23.437 
	21.15,18.167 "/>
<polygon fill="#555555" points="18.423,14.469 15.3,17.592 15.3,8.333 13.858,8.333 13.858,17.592 10.735,14.469 9.716,15.489 
	14.579,20.321 19.442,15.489 "/>
<polygon fill="#555555" points="23.862,10.189 21.167,10.189 21.167,7.494 19.724,7.494 19.724,10.189 17.028,10.189 17.028,11.632 
	19.724,11.632 19.724,14.327 21.167,14.327 21.167,11.632 23.862,11.632 "/>
</svg>
