<?xml version="1.0" encoding="utf-8"?>
<!-- Generator: Adobe Illustrator 17.0.0, SVG Export Plug-In . SVG Version: 6.00 Build 0)  -->
<!DOCTYPE svg PUBLIC "-//W3C//DTD SVG 1.1//EN" "http://www.w3.org/Graphics/SVG/1.1/DTD/svg11.dtd">
<svg version="1.1" id="Layer_1" xmlns="http://www.w3.org/2000/svg" xmlns:xlink="http://www.w3.org/1999/xlink" x="0px" y="0px"
	 width="250px" height="42px" viewBox="0 0 250 42" enable-background="new 0 0 250 42" xml:space="preserve">
<g>
	<circle fill="#FFFFFF" cx="30.851" cy="18.508" r="1.166"/>
	<circle fill="#FFFFFF" cx="23.111" cy="21.864" r="1.166"/>
	<circle fill="#FFFFFF" cx="16.603" cy="16.161" r="1.166"/>
	<path fill="#FFFFFF" d="M-0.777-1.326v44.528h252.146V-1.326H-0.777z M17.975,29.44h-3.256v-9.769
		c0.564,0.304,1.199,0.493,1.884,0.493c0.405,0,0.808-0.064,1.194-0.187l0.179,0.154C17.975,20.131,17.975,29.44,17.975,29.44z
		 M22.922,29.439h-3.331v-5.71c0.645,1.211,1.883,2.054,3.331,2.123V29.439z M27.853,29.439h-3.315v-3.838
		c1.35-0.518,2.352-1.746,2.542-3.224l0.772-0.324l0,0h0.001h-0.001V29.439z M32.742,29.44H29.47v-7.19
		c0.439,0.164,0.903,0.26,1.381,0.26c0.687,0,1.325-0.191,1.891-0.496V29.44z M30.851,21.221c-0.827,0-1.559-0.378-2.056-0.96
		l-3.004,1.259c0.015,0.113,0.034,0.225,0.034,0.342c0,1.499-1.215,2.715-2.715,2.715s-2.715-1.215-2.715-2.715
		c0-0.402,0.093-0.78,0.25-1.123l-2.625-2.273c-0.414,0.255-0.896,0.409-1.417,0.409c-1.499,0-2.715-1.215-2.715-2.715
		s1.215-2.715,2.715-2.715s2.715,1.215,2.715,2.715c0,0.402-0.093,0.78-0.249,1.123l2.626,2.274
		c0.414-0.255,0.895-0.409,1.416-0.409c0.812,0,1.533,0.365,2.031,0.93l3.025-1.268c-0.012-0.1-0.031-0.199-0.031-0.303
		c0-1.499,1.215-2.715,2.715-2.715c1.499,0,2.715,1.215,2.715,2.713C33.566,20.006,32.351,21.221,30.851,21.221z"/>
</g>
</svg>
