<?xml version="1.0" encoding="utf-8"?>
<!-- Generator: Adobe Illustrator 17.0.0, SVG Export Plug-In . SVG Version: 6.00 Build 0)  -->
<!DOCTYPE svg PUBLIC "-//W3C//DTD SVG 1.1//EN" "http://www.w3.org/Graphics/SVG/1.1/DTD/svg11.dtd">
<svg version="1.1" id="Layer_2" xmlns="http://www.w3.org/2000/svg" xmlns:xlink="http://www.w3.org/1999/xlink" x="0px" y="0px"
	 width="40px" height="40px" viewBox="0 0 40 40" enable-background="new 0 0 40 40" xml:space="preserve">
<path fill="#555" d="M20.125,16.208c-0.312,0.311-0.725,0.482-1.164,0.482s-0.853-0.171-1.164-0.482l-2.763-2.763v18.199
	c0,0.907-0.738,1.646-1.646,1.646s-1.646-0.739-1.646-1.646V13.444l-2.763,2.763c-0.311,0.311-0.724,0.482-1.164,0.482
	c-0.439,0-0.853-0.171-1.164-0.482c-0.311-0.31-0.482-0.724-0.482-1.164c0-0.44,0.171-0.853,0.482-1.164l5.573-5.572
	c0.311-0.311,0.724-0.482,1.164-0.482s0.853,0.171,1.164,0.482l5.573,5.573C20.766,14.522,20.766,15.566,20.125,16.208z
	 M19.938,27.234l5.573,5.573c0.311,0.311,0.724,0.482,1.164,0.482s0.853-0.171,1.164-0.482l5.573-5.572
	c0.311-0.311,0.482-0.724,0.482-1.164s-0.171-0.853-0.482-1.164c-0.311-0.311-0.724-0.482-1.164-0.482
	c-0.439,0-0.853,0.171-1.164,0.482l-2.763,2.763V9.471c0-0.907-0.738-1.646-1.646-1.646s-1.646,0.739-1.646,1.646V27.67
	l-2.763-2.763c-0.311-0.311-0.724-0.482-1.164-0.482s-0.852,0.171-1.164,0.482C19.297,25.549,19.297,26.593,19.938,27.234z"/>
</svg>
