<?xml version="1.0" encoding="utf-8"?>
<!-- Generator: Adobe Illustrator 17.0.0, SVG Export Plug-In . SVG Version: 6.00 Build 0)  -->
<!DOCTYPE svg PUBLIC "-//W3C//DTD SVG 1.1//EN" "http://www.w3.org/Graphics/SVG/1.1/DTD/svg11.dtd">
<svg version="1.1" id="Layer_1" xmlns="http://www.w3.org/2000/svg" xmlns:xlink="http://www.w3.org/1999/xlink" x="0px" y="0px"
	 width="200px" height="42px" viewBox="0 0 200 42" enable-background="new 0 0 200 42" xml:space="preserve">
<polygon fill="#555555" points="19.708,23.167 19.708,26.994 9.45,26.994 9.45,23.167 8.008,23.167 8.008,28.437 21.15,28.437 
	21.15,23.167 "/>
<polygon fill="#555555" points="18.423,19.469 15.3,22.592 15.3,13.333 13.858,13.333 13.858,22.592 10.735,19.469 9.716,20.489 
	14.579,25.321 19.442,20.489 "/>
<polygon fill="#555555" points="23.862,15.189 21.167,15.189 21.167,12.494 19.724,12.494 19.724,15.189 17.028,15.189 
	17.028,16.632 19.724,16.632 19.724,19.327 21.167,19.327 21.167,16.632 23.862,16.632 "/>
</svg>
