<?xml version="1.0" encoding="utf-8"?>
<!-- Generator: Adobe Illustrator 17.0.0, SVG Export Plug-In . SVG Version: 6.00 Build 0)  -->
<!DOCTYPE svg PUBLIC "-//W3C//DTD SVG 1.1//EN" "http://www.w3.org/Graphics/SVG/1.1/DTD/svg11.dtd">
<svg version="1.1" id="레이어_1" xmlns="http://www.w3.org/2000/svg" xmlns:xlink="http://www.w3.org/1999/xlink" x="0px"
	 y="0px" width="250px" height="42px" viewBox="0 0 250 42" enable-background="new 0 0 250 42" xml:space="preserve">
<path fill="#FFFFFF" d="M-0.777-1.326v44.528h252.146V-1.326H-0.777z M16.579,12.75h2.061l-2.061,2.061V12.75z M16.579,17.653
	l4.903-4.903h2.242l-7.145,7.145V17.653z M16.579,22.457l9.707-9.707h2.242L16.579,24.699V22.457z M32.071,28.242H30.01l2.061-2.061
	V28.242z M32.071,23.619l-4.623,4.623h-2.242l6.865-6.865V23.619z M32.071,18.815l-9.427,9.427h-2.242l11.669-11.669V18.815z
	 M32.071,14.011L17.84,28.242h-1.261v-0.981L31.09,12.75h0.981V14.011z"/>
</svg>
