<?xml version="1.0" encoding="utf-8"?>
<!-- Generator: Adobe Illustrator 17.0.0, SVG Export Plug-In . SVG Version: 6.00 Build 0)  -->
<!DOCTYPE svg PUBLIC "-//W3C//DTD SVG 1.1//EN" "http://www.w3.org/Graphics/SVG/1.1/DTD/svg11.dtd">
<svg version="1.1" id="Layer_1" xmlns="http://www.w3.org/2000/svg" xmlns:xlink="http://www.w3.org/1999/xlink" x="0px" y="0px"
	 width="250px" height="42px" viewBox="0 0 250 42" enable-background="new 0 0 250 42" xml:space="preserve">
<path fill="#FFFFFF" d="M-0.777-1.326v44.528h252.146V-1.326H-0.777z M19.553,30.849c-0.663,0.209-5.874,0.166-4.58,0.043
	c1.306-0.123,2.711-4.302,2.711-4.302c0.234-2.526,2.71-2.7,3.347-2.704c0.013-0.02,0.026-0.042,0.039-0.062l1.813,1.758
	C23.57,30.524,20.203,30.644,19.553,30.849z M29.345,19.502c-2.09,2.251-4.121,4.159-5.764,5.472l-1.994-1.933
	c1.208-1.768,2.992-3.974,5.104-6.249c3.256-3.233,5.994-5.375,6.726-4.626C34.15,12.914,32.75,16.083,29.345,19.502z"/>
</svg>
