<?xml version="1.0" encoding="utf-8"?>
<!-- Generator: Adobe Illustrator 17.0.0, SVG Export Plug-In . SVG Version: 6.00 Build 0)  -->
<!DOCTYPE svg PUBLIC "-//W3C//DTD SVG 1.1//EN" "http://www.w3.org/Graphics/SVG/1.1/DTD/svg11.dtd">
<svg version="1.1" id="레이어_1" xmlns="http://www.w3.org/2000/svg" xmlns:xlink="http://www.w3.org/1999/xlink" x="0px"
	 y="0px" width="250px" height="42px" viewBox="0 0 250 42" enable-background="new 0 0 250 42" xml:space="preserve">
<g>
	<circle fill="#FFFFFF" cx="23.086" cy="11.851" r="1.199"/>
	<path fill="#FFFFFF" d="M-0.777-1.326v44.528h252.146V-1.326H-0.777z M27.864,12.091h0.451c1.402,0,2.54,1.137,2.54,2.54v3.915
		h-1.511V14.63c0-0.568-0.461-1.028-1.028-1.028h-0.451L27.864,12.091L27.864,12.091z M19.212,11.851h1.555
		c0-1.281,1.038-2.319,2.319-2.319s2.319,1.038,2.319,2.319h1.6v2.799h-7.793C19.212,14.65,19.212,11.851,19.212,11.851z
		 M30.856,27.263L30.856,27.263c-0.001,1.402-1.138,2.54-2.541,2.54H17.903c-1.402,0-2.54-1.137-2.54-2.54V14.631
		c0-1.402,1.137-2.54,2.54-2.54h0.389v1.511h-0.389c-0.568,0-1.028,0.461-1.028,1.028v12.633c0,0.568,0.461,1.028,1.028,1.028
		h10.413c0.568,0,1.028-0.461,1.028-1.028v-3.9h1.511v3.9H30.856z M32.75,25.991v-3.267l-8.2-0.053v-3.354l8.2,0.053v-3.361
		l4.495,5.039L32.75,25.991z"/>
</g>
</svg>
