<?xml version="1.0" encoding="utf-8"?>
<!-- Generator: Adobe Illustrator 17.0.0, SVG Export Plug-In . SVG Version: 6.00 Build 0)  -->
<!DOCTYPE svg PUBLIC "-//W3C//DTD SVG 1.1//EN" "http://www.w3.org/Graphics/SVG/1.1/DTD/svg11.dtd">
<svg version="1.1" id="레이어_1" xmlns="http://www.w3.org/2000/svg" xmlns:xlink="http://www.w3.org/1999/xlink" x="0px"
	 y="0px" width="250px" height="42px" viewBox="0 0 250 42" enable-background="new 0 0 250 42" xml:space="preserve">
<path fill="#FFFFFF" d="M-0.777-1.326v44.528h252.146V-1.326H-0.777z M33.046,16.752l-0.526,0.2c-0.1,0.025-0.15-0.05-0.25-0.225
	c-0.551-0.901-1.527-2.203-2.153-2.804c-0.626-0.375-2.853-0.475-3.429-0.475h-0.826v6.883c0,0.351,0,7.359,0.025,7.735
	c0.05,0.626,0.25,1.002,0.851,1.002h1.127c0.225,0,0.25,0.075,0.25,0.25v0.576c0,0.125-0.025,0.2-0.25,0.2
	c-0.25,0-1.051-0.075-3.83-0.075c-2.653,0-3.705,0.075-4.055,0.075c-0.2,0-0.225-0.1-0.225-0.301v-0.476
	c0-0.174,0.025-0.25,0.175-0.25h1.276c0.5,0,0.801-0.301,0.851-0.751c0.05-0.526,0.05-8.211,0.05-8.686v-6.182h-0.876
	c-0.801,0-2.303,0.025-3.354,0.4c-0.551,0.401-1.652,1.928-2.278,2.829c-0.075,0.125-0.15,0.2-0.25,0.175l-0.551-0.2
	c-0.1-0.025-0.125-0.15-0.1-0.225c0.276-1.051,1.102-4.356,1.202-4.856c0.075-0.326,0.2-0.425,0.375-0.425
	c0.175,0,0.25,0.1,0.476,0.375c0.275,0.351,0.751,0.576,1.652,0.626c1.326,0.075,2.378,0.15,4.981,0.15h1.452
	c2.728,0,3.805-0.1,4.856-0.15c0.551-0.025,1.527-0.325,1.827-0.626c0.25-0.25,0.401-0.375,0.576-0.375c0.175,0,0.25,0.1,0.3,0.4
	l0.751,4.981C33.171,16.627,33.121,16.727,33.046,16.752z"/>
</svg>
