<?xml version="1.0" encoding="utf-8"?>
<!-- Generator: Adobe Illustrator 17.0.0, SVG Export Plug-In . SVG Version: 6.00 Build 0)  -->
<!DOCTYPE svg PUBLIC "-//W3C//DTD SVG 1.1//EN" "http://www.w3.org/Graphics/SVG/1.1/DTD/svg11.dtd">
<svg version="1.1" id="Layer_1" xmlns="http://www.w3.org/2000/svg" xmlns:xlink="http://www.w3.org/1999/xlink" x="0px" y="0px"
	 width="104.375px" height="40px" viewBox="0 0 104.375 40" enable-background="new 0 0 104.375 40" xml:space="preserve">
<g>
	<path fill="#FFFFFF" d="M8.959,17.209H6.896c-0.266,0-0.507,0.003-0.724,0.009c-0.217,0.006-0.453,0.027-0.706,0.063v-1.43
		c0.253,0.036,0.488,0.058,0.706,0.063s0.458,0.009,0.724,0.009h5.81c0.253,0,0.489-0.003,0.706-0.009
		c0.217-0.006,0.458-0.027,0.724-0.063v1.43c-0.266-0.036-0.507-0.057-0.724-0.063c-0.217-0.006-0.452-0.009-0.706-0.009h-2.172
		v1.539c0,0.833,0.087,1.605,0.262,2.317s0.443,1.375,0.806,1.991c0.374,0.663,0.847,1.272,1.42,1.827
		c0.573,0.556,1.258,1.057,2.055,1.503c-0.193,0.145-0.396,0.322-0.606,0.534c-0.211,0.211-0.389,0.389-0.534,0.533
		c-0.422-0.253-0.83-0.549-1.222-0.887s-0.763-0.706-1.113-1.104c-0.398-0.435-0.757-0.902-1.077-1.403
		c-0.32-0.5-0.583-1.022-0.787-1.565c-0.145,0.507-0.362,1.011-0.652,1.512c-0.29,0.5-0.615,0.986-0.978,1.457
		c-0.374,0.494-0.781,0.95-1.222,1.366s-0.866,0.77-1.276,1.059c-0.181-0.145-0.392-0.311-0.633-0.498
		c-0.242-0.187-0.489-0.364-0.742-0.533c0.76-0.446,1.43-0.96,2.009-1.539c0.58-0.579,1.074-1.225,1.484-1.937
		c0.398-0.688,0.703-1.438,0.914-2.253c0.211-0.815,0.317-1.687,0.317-2.616V17.209z M17.665,21.154h1.05
		c0.217,0,0.446-0.002,0.688-0.009c0.241-0.006,0.471-0.027,0.688-0.063v1.503c-0.217-0.036-0.449-0.058-0.697-0.063
		c-0.247-0.006-0.474-0.009-0.679-0.009h-1.05v6.099c0,0.41,0.003,0.817,0.009,1.223c0.006,0.403,0.027,0.805,0.063,1.203h-1.684
		c0.036-0.398,0.061-0.8,0.073-1.203c0.012-0.405,0.018-0.813,0.018-1.223V17.336c0-0.398-0.006-0.799-0.018-1.204
		c-0.012-0.404-0.037-0.812-0.073-1.222h1.684c-0.036,0.411-0.058,0.818-0.063,1.222c-0.006,0.404-0.009,0.805-0.009,1.204V21.154z"
		/>
	<path fill="#FFFFFF" d="M24.198,24.811h-2.28v-5.176h9.357v-2.697h-7.801c-0.253,0-0.516,0.006-0.788,0.018
		c-0.271,0.012-0.534,0.03-0.787,0.054v-1.412c0.29,0.036,0.561,0.058,0.814,0.063s0.507,0.009,0.76,0.009h9.375
		c-0.036,0.229-0.061,0.489-0.072,0.778c-0.012,0.29-0.018,0.561-0.018,0.814v3.638h-9.358v2.643h8.253c0.29,0,0.564,0,0.824,0
		c0.259,0,0.534-0.019,0.824-0.055v1.394c-0.302-0.036-0.58-0.057-0.833-0.063c-0.253-0.006-0.525-0.01-0.814-0.01h-0.651v2.95
		h1.231c0.47,0,0.932-0.003,1.384-0.009c0.453-0.006,0.914-0.027,1.385-0.063v1.43c-0.471-0.036-0.932-0.057-1.385-0.063
		c-0.452-0.007-0.914-0.01-1.384-0.01h-9.593c-0.471,0-0.932,0.003-1.385,0.01c-0.453,0.006-0.914,0.026-1.385,0.063v-1.43
		c0.471,0.036,0.932,0.058,1.385,0.063s0.914,0.009,1.385,0.009h1.556V24.811z M25.701,24.811v2.95h3.783v-2.95H25.701z"/>
	<path fill="#FFFFFF" d="M47.547,24.485v2.027c0,0.217,0.003,0.455,0.009,0.715c0.006,0.259,0.027,0.497,0.063,0.715h-1.665
		c0.036-0.229,0.057-0.471,0.063-0.725c0.007-0.253,0.01-0.488,0.01-0.705v-2.027h-4.235c-0.471,0-0.933,0.003-1.385,0.009
		s-0.914,0.027-1.385,0.063v-1.43c0.471,0.036,0.933,0.057,1.385,0.063c0.452,0.006,0.914,0.009,1.385,0.009h9.538
		c0.471,0,0.933-0.003,1.385-0.009c0.452-0.007,0.914-0.027,1.385-0.063v1.43c-0.471-0.036-0.933-0.058-1.385-0.063
		s-0.914-0.009-1.385-0.009H47.547z M52.126,16.467v5.05H40.994v-5.05c0-0.229-0.006-0.455-0.018-0.679
		c-0.013-0.223-0.036-0.461-0.072-0.715h1.646c-0.036,0.253-0.061,0.483-0.072,0.688s-0.018,0.446-0.018,0.724v0.561h8.162v-0.561
		c0-0.277-0.006-0.519-0.018-0.724c-0.013-0.205-0.036-0.435-0.072-0.688h1.683c-0.036,0.253-0.061,0.492-0.072,0.715
		C52.132,16.012,52.126,16.238,52.126,16.467z M41.03,30.693v-3.276c0-0.217-0.003-0.446-0.009-0.688s-0.027-0.471-0.063-0.688
		h1.629c-0.036,0.217-0.057,0.443-0.063,0.679c-0.006,0.235-0.009,0.455-0.009,0.66v2.009h7.439c0.471,0,0.923-0.003,1.357-0.009
		s0.887-0.027,1.357-0.063v1.448c-0.471-0.036-0.923-0.058-1.357-0.063s-0.887-0.009-1.357-0.009H41.03z M50.623,20.231v-1.937
		h-8.162v1.937H50.623z"/>
	<path fill="#FFFFFF" d="M60.253,16.811v0.434c0,0.616,0.105,1.186,0.316,1.71s0.491,0.999,0.842,1.421
		c0.398,0.495,0.875,0.917,1.43,1.267s1.128,0.627,1.72,0.832c-0.182,0.182-0.365,0.378-0.552,0.589
		c-0.188,0.211-0.342,0.401-0.462,0.57c-0.374-0.182-0.761-0.39-1.158-0.625c-0.398-0.235-0.778-0.504-1.141-0.806
		c-0.362-0.289-0.696-0.605-1.005-0.95c-0.308-0.344-0.569-0.721-0.787-1.131c-0.145,0.398-0.338,0.781-0.579,1.149
		s-0.519,0.709-0.832,1.022c-0.375,0.387-0.788,0.73-1.24,1.032s-0.902,0.561-1.349,0.777c-0.157-0.145-0.355-0.316-0.597-0.516
		c-0.242-0.199-0.465-0.371-0.67-0.516c0.663-0.289,1.282-0.637,1.855-1.041c0.572-0.403,1.064-0.871,1.475-1.402
		c0.362-0.471,0.643-0.983,0.842-1.539c0.199-0.555,0.299-1.17,0.299-1.846v-0.434c0-0.253-0.007-0.501-0.019-0.742
		s-0.036-0.495-0.072-0.76h1.773c-0.036,0.266-0.061,0.519-0.072,0.76S60.253,16.558,60.253,16.811z M68.107,29.444
		c0,0.277,0.007,0.562,0.019,0.851c0.012,0.29,0.036,0.567,0.072,0.833h-1.701c0.036-0.254,0.057-0.531,0.063-0.833
		c0.006-0.302,0.009-0.585,0.009-0.851v-2.806h-7.438c-0.362,0-0.694,0.003-0.996,0.01c-0.302,0.006-0.633,0.026-0.995,0.063v-1.394
		c0.362,0.036,0.693,0.055,0.995,0.055s0.634,0,0.996,0h9.05c-0.036,0.241-0.058,0.446-0.063,0.615
		c-0.007,0.169-0.01,0.368-0.01,0.598V29.444z M66.605,19.109h-2.299c-0.217,0-0.443,0.003-0.679,0.009s-0.455,0.027-0.66,0.063
		v-1.448c0.217,0.036,0.446,0.058,0.688,0.063c0.241,0.006,0.471,0.009,0.688,0.009h2.263v-1.068c0-0.301-0.006-0.603-0.018-0.905
		c-0.013-0.302-0.036-0.609-0.073-0.923h1.666c-0.036,0.314-0.058,0.622-0.063,0.923c-0.007,0.302-0.01,0.604-0.01,0.905v7.855
		h-1.502V19.109z"/>
</g>
</svg>
