<?xml version="1.0" encoding="utf-8"?>
<!-- Generator: Adobe Illustrator 17.0.0, SVG Export Plug-In . SVG Version: 6.00 Build 0)  -->
<!DOCTYPE svg PUBLIC "-//W3C//DTD SVG 1.1//EN" "http://www.w3.org/Graphics/SVG/1.1/DTD/svg11.dtd">
<svg version="1.1" id="Layer_1" xmlns="http://www.w3.org/2000/svg" xmlns:xlink="http://www.w3.org/1999/xlink" x="0px" y="0px"
	 width="104.375px" height="40px" viewBox="0 0 104.375 40" enable-background="new 0 0 104.375 40" xml:space="preserve">
<g>
	<path fill="#555555" d="M10.461,16.72c0,0.591,0.121,1.138,0.362,1.638c0.241,0.501,0.555,0.95,0.941,1.348
		c0.422,0.435,0.905,0.805,1.448,1.114c0.543,0.308,1.068,0.533,1.575,0.679c-0.206,0.181-0.393,0.371-0.562,0.569
		c-0.169,0.199-0.32,0.384-0.452,0.553c-0.362-0.157-0.73-0.338-1.104-0.543c-0.375-0.205-0.736-0.44-1.086-0.706
		c-0.375-0.254-0.721-0.549-1.041-0.887c-0.32-0.337-0.606-0.724-0.86-1.158c-0.181,0.435-0.41,0.833-0.688,1.195
		C8.716,20.883,8.415,21.21,8.089,21.5c-0.35,0.325-0.73,0.621-1.14,0.887s-0.833,0.507-1.267,0.724
		c-0.084-0.061-0.181-0.136-0.29-0.227c-0.108-0.09-0.217-0.184-0.326-0.28c-0.121-0.084-0.238-0.175-0.353-0.271
		s-0.22-0.181-0.317-0.253c0.616-0.241,1.195-0.531,1.738-0.869s1.025-0.736,1.448-1.194c0.398-0.435,0.712-0.923,0.941-1.466
		s0.344-1.158,0.344-1.846c0-0.253-0.006-0.5-0.018-0.742c-0.012-0.241-0.036-0.482-0.072-0.724h1.774
		c-0.048,0.253-0.076,0.5-0.082,0.742C10.464,16.22,10.461,16.467,10.461,16.72z M7.638,30.874v-3.981h9.104v-1.557h-7.53
		c-0.253,0-0.516,0.006-0.788,0.018c-0.271,0.013-0.534,0.03-0.787,0.055v-1.376c0.29,0.036,0.561,0.058,0.814,0.063
		c0.253,0.007,0.507,0.009,0.76,0.009h9.212c-0.036,0.229-0.061,0.459-0.072,0.688c-0.012,0.229-0.018,0.452-0.018,0.67v2.588H9.23
		v1.593h7.837c0.29,0,0.564,0,0.824,0c0.259,0,0.534-0.019,0.823-0.055v1.357c-0.302-0.036-0.579-0.057-0.833-0.063
		c-0.253-0.006-0.525-0.009-0.814-0.009C17.067,30.874,7.638,30.874,7.638,30.874z M16.832,18.802h-2.28
		c-0.217,0-0.444,0.003-0.679,0.009s-0.456,0.027-0.661,0.063v-1.448c0.217,0.036,0.446,0.057,0.688,0.063
		c0.241,0.006,0.471,0.009,0.688,0.009h2.244v-0.76c0-0.301-0.006-0.603-0.018-0.905c-0.012-0.302-0.036-0.609-0.072-0.923h1.683
		c-0.036,0.314-0.057,0.622-0.063,0.923c-0.006,0.302-0.009,0.604-0.009,0.905v6.625h-1.521V18.802z"/>
	<path fill="#555555" d="M28.416,24.322v2.244c0,0.218,0.003,0.456,0.009,0.715c0.006,0.26,0.027,0.498,0.063,0.715h-1.665
		c0.036-0.229,0.057-0.471,0.063-0.724c0.006-0.254,0.009-0.488,0.009-0.706v-2.244H22.66c-0.471,0-0.932,0.003-1.385,0.009
		c-0.453,0.007-0.914,0.027-1.385,0.063v-1.43c0.471,0.036,0.932,0.058,1.385,0.063s0.914,0.009,1.385,0.009h9.538
		c0.471,0,0.932-0.003,1.385-0.009s0.914-0.027,1.385-0.063v1.43c-0.471-0.036-0.932-0.057-1.385-0.063s-0.914-0.009-1.385-0.009
		H28.416z M21.864,17.245c0-0.326-0.003-0.633-0.009-0.923s-0.027-0.604-0.063-0.941H33.05c-0.036,0.338-0.058,0.652-0.063,0.941
		c-0.006,0.29-0.009,0.597-0.009,0.923v3.873H21.864V17.245z M21.9,30.693v-3.457c0-0.218-0.003-0.446-0.009-0.688
		c-0.006-0.241-0.027-0.471-0.063-0.688h1.629c-0.037,0.218-0.058,0.443-0.063,0.679c-0.006,0.235-0.009,0.456-0.009,0.661v2.189
		h7.874c0.398,0,0.778-0.003,1.14-0.009s0.742-0.027,1.14-0.063v1.448c-0.398-0.036-0.778-0.058-1.14-0.063
		c-0.362-0.006-0.742-0.009-1.14-0.009C31.259,30.693,21.9,30.693,21.9,30.693z M31.511,19.833v-3.186H23.33v3.186H31.511z"/>
	<path fill="#555555" d="M39.945,17.209h-2.1c-0.266,0-0.507,0.003-0.724,0.009c-0.218,0.006-0.453,0.027-0.706,0.063v-1.43
		c0.253,0.036,0.488,0.058,0.706,0.063c0.217,0.006,0.458,0.009,0.724,0.009h5.81c0.254,0,0.489-0.003,0.706-0.009
		c0.218-0.006,0.459-0.027,0.725-0.063v1.43c-0.266-0.036-0.507-0.057-0.725-0.063c-0.217-0.006-0.452-0.009-0.706-0.009H41.52
		v1.539c0,0.833,0.088,1.605,0.263,2.317s0.443,1.375,0.806,1.991c0.374,0.663,0.848,1.272,1.421,1.827
		c0.573,0.556,1.258,1.057,2.054,1.503c-0.192,0.145-0.395,0.322-0.605,0.534c-0.212,0.211-0.39,0.389-0.534,0.533
		c-0.423-0.253-0.83-0.549-1.222-0.887c-0.393-0.338-0.764-0.706-1.113-1.104c-0.398-0.435-0.758-0.902-1.077-1.403
		c-0.319-0.5-0.582-1.022-0.787-1.565c-0.145,0.507-0.362,1.011-0.651,1.512c-0.29,0.5-0.615,0.986-0.978,1.457
		c-0.374,0.494-0.781,0.95-1.222,1.366s-0.866,0.77-1.276,1.059c-0.181-0.145-0.392-0.311-0.633-0.498
		c-0.242-0.187-0.489-0.364-0.742-0.533c0.76-0.446,1.43-0.96,2.009-1.539s1.073-1.225,1.484-1.937
		c0.397-0.688,0.702-1.438,0.914-2.253c0.211-0.815,0.316-1.687,0.316-2.616v-1.303H39.945z M49.267,28.594
		c0,0.41,0.003,0.817,0.009,1.222s0.027,0.806,0.063,1.203h-1.701c0.036-0.397,0.061-0.799,0.072-1.203s0.019-0.812,0.019-1.222
		V17.336c0-0.398-0.007-0.799-0.019-1.204s-0.036-0.812-0.072-1.222h1.701c-0.036,0.411-0.058,0.818-0.063,1.222
		c-0.005,0.404-0.009,0.805-0.009,1.204V28.594z"/>
	<path fill="#555555" d="M62.823,17.444v5.846h-7.476v-5.846c0-0.29-0.003-0.576-0.009-0.86c-0.007-0.283-0.027-0.594-0.063-0.932
		h7.62c-0.036,0.338-0.058,0.649-0.063,0.932C62.825,16.868,62.823,17.155,62.823,17.444z M61.356,22.023v-5.104h-4.561v5.104
		H61.356z M57.121,30.693v-3.964c0-0.217-0.003-0.446-0.009-0.688s-0.027-0.471-0.063-0.688h1.665
		c-0.036,0.218-0.057,0.443-0.063,0.679c-0.006,0.235-0.009,0.456-0.009,0.661v2.715h6.661c0.471,0,0.923-0.003,1.357-0.009
		c0.435-0.007,0.887-0.027,1.357-0.063v1.43c-0.471-0.036-0.923-0.058-1.357-0.063s-0.887-0.009-1.357-0.009L57.121,30.693
		L57.121,30.693z M67.511,18.983h0.851c0.217,0,0.446-0.003,0.688-0.009c0.241-0.006,0.471-0.027,0.688-0.063v1.466
		c-0.218-0.036-0.444-0.057-0.679-0.063s-0.456-0.009-0.661-0.009h-0.887v4.633c0,0.314,0.003,0.622,0.009,0.923
		c0.006,0.302,0.027,0.604,0.063,0.905h-1.684c0.036-0.302,0.061-0.604,0.072-0.905c0.013-0.301,0.019-0.608,0.019-0.923v-8.199
		c0-0.301-0.006-0.603-0.019-0.905c-0.012-0.302-0.036-0.609-0.072-0.923h1.684c-0.036,0.314-0.058,0.622-0.063,0.923
		c-0.005,0.301-0.009,0.604-0.009,0.905V18.983z"/>
	<path fill="#555555" d="M81.954,22.893h-9.538c-0.471,0-0.933,0.003-1.385,0.009s-0.914,0.027-1.385,0.063v-1.376
		c0.471,0.036,0.933,0.058,1.385,0.063c0.452,0.007,0.914,0.009,1.385,0.009h9.538c0.471,0,0.933-0.002,1.385-0.009
		c0.452-0.006,0.914-0.027,1.385-0.063v1.376c-0.471-0.036-0.933-0.058-1.385-0.063S82.425,22.893,81.954,22.893z M80.868,20.25
		h-9.213v-3.149c0-0.253-0.006-0.528-0.018-0.824c-0.013-0.295-0.036-0.6-0.072-0.914h9.122c0.289,0,0.604,0,0.941,0
		c0.337,0,0.705-0.018,1.104-0.054v1.321c-0.398-0.024-0.767-0.039-1.104-0.045c-0.338-0.006-0.652-0.009-0.941-0.009h-7.529v2.461
		h7.71c0.29,0,0.604,0,0.941,0s0.706-0.018,1.104-0.054v1.321c-0.398-0.024-0.767-0.039-1.104-0.045
		C81.472,20.253,81.158,20.25,80.868,20.25z M71.655,30.874v-3.855h9.412v-1.43H73.23c-0.254,0-0.516,0.007-0.787,0.019
		s-0.534,0.03-0.788,0.054v-1.357c0.29,0.036,0.562,0.058,0.814,0.063c0.254,0.007,0.507,0.01,0.761,0.01h9.574
		c-0.036,0.229-0.061,0.458-0.072,0.688s-0.018,0.452-0.018,0.67v2.425H73.32V29.7h8.109c0.289,0,0.563,0,0.823,0
		s0.534-0.019,0.823-0.055v1.303c-0.302-0.036-0.579-0.057-0.832-0.063c-0.254-0.006-0.525-0.009-0.814-0.009h-9.774
		C71.655,30.876,71.655,30.874,71.655,30.874z"/>
	<path fill="#555555" d="M88.107,15.924h5.756c-0.061,1.195-0.238,2.335-0.534,3.421s-0.715,2.111-1.258,3.077
		c-0.579,1.062-1.307,2.045-2.181,2.95c-0.875,0.905-1.886,1.707-3.032,2.407c-0.145-0.133-0.365-0.308-0.66-0.525
		c-0.296-0.217-0.534-0.386-0.715-0.507c1.073-0.555,2.023-1.197,2.851-1.927c0.826-0.73,1.529-1.542,2.108-2.435
		c0.482-0.761,0.869-1.572,1.158-2.435c0.29-0.863,0.477-1.771,0.562-2.724h-4.055c-0.302,0-0.576,0.003-0.823,0.009
		c-0.248,0.006-0.517,0.027-0.806,0.063V15.85c0.289,0.036,0.558,0.058,0.806,0.063C87.531,15.921,87.806,15.924,88.107,15.924z
		 M98.731,28.594c0,0.41,0.003,0.817,0.01,1.222c0.006,0.404,0.027,0.806,0.063,1.203h-1.702c0.036-0.397,0.061-0.799,0.073-1.203
		s0.018-0.812,0.018-1.222V17.336c0-0.398-0.006-0.799-0.018-1.204c-0.013-0.404-0.037-0.812-0.073-1.222h1.702
		c-0.036,0.411-0.058,0.818-0.063,1.222c-0.007,0.404-0.01,0.805-0.01,1.204V28.594z"/>
</g>
</svg>
