<?xml version="1.0" encoding="utf-8"?>
<!-- Generator: Adobe Illustrator 17.0.0, SVG Export Plug-In . SVG Version: 6.00 Build 0)  -->
<!DOCTYPE svg PUBLIC "-//W3C//DTD SVG 1.1//EN" "http://www.w3.org/Graphics/SVG/1.1/DTD/svg11.dtd">
<svg version="1.1" id="Layer_1" xmlns="http://www.w3.org/2000/svg" xmlns:xlink="http://www.w3.org/1999/xlink" x="0px" y="0px"
	 width="104.375px" height="40px" viewBox="0 0 104.375 40" enable-background="new 0 0 104.375 40" xml:space="preserve">
<g>
	<path fill="#555555" d="M11.348,27.707v-3.855H7.62c-0.326,0-0.619,0.003-0.878,0.009c-0.26,0.007-0.546,0.027-0.86,0.063v-1.43
		c0.313,0.036,0.6,0.058,0.86,0.063c0.259,0.006,0.552,0.009,0.878,0.009h0.525l-0.073-5.502H8c-0.326,0-0.619,0.003-0.878,0.009
		c-0.259,0.006-0.546,0.027-0.859,0.063v-1.43c0.313,0.037,0.6,0.058,0.859,0.063c0.259,0.007,0.552,0.01,0.878,0.01h8.199
		c0.313,0,0.6-0.003,0.86-0.009c0.259-0.006,0.552-0.027,0.877-0.063v1.43c-0.326-0.036-0.63-0.057-0.914-0.063
		c-0.283-0.006-0.582-0.009-0.896-0.009l-0.073,5.502h0.543c0.314,0,0.6-0.003,0.86-0.009c0.259-0.006,0.552-0.027,0.878-0.063v1.43
		c-0.326-0.036-0.631-0.057-0.914-0.063c-0.284-0.006-0.583-0.009-0.896-0.009h-3.638v3.855h4.019c0.47,0,0.932-0.003,1.384-0.01
		c0.453-0.006,0.914-0.026,1.385-0.063v1.43c-0.471-0.036-0.932-0.058-1.385-0.063c-0.452-0.006-0.914-0.009-1.384-0.009H7.33
		c-0.471,0-0.932,0.003-1.385,0.009s-0.914,0.027-1.385,0.063v-1.43c0.471,0.036,0.932,0.057,1.385,0.063
		c0.453,0.007,0.914,0.01,1.385,0.01L11.348,27.707L11.348,27.707z M9.61,17.064l0.036,5.502h4.923l0.054-5.502H9.61z"/>
	<path fill="#555555" d="M32.217,28.829h-9.575c-0.471,0-0.932,0.003-1.385,0.009s-0.914,0.027-1.385,0.063v-1.448
		c0.471,0.036,0.932,0.058,1.385,0.063c0.453,0.007,0.914,0.009,1.385,0.009h9.575c0.47,0,0.932-0.002,1.384-0.009
		c0.453-0.006,0.914-0.027,1.385-0.063v1.448c-0.471-0.036-0.932-0.058-1.385-0.063C33.149,28.832,32.687,28.829,32.217,28.829z
		 M28.253,16.883c0,0.724,0.181,1.427,0.543,2.108c0.362,0.682,0.833,1.307,1.412,1.874c0.567,0.567,1.215,1.056,1.946,1.466
		c0.73,0.41,1.457,0.712,2.181,0.905c-0.205,0.193-0.404,0.389-0.597,0.588s-0.362,0.39-0.507,0.57
		c-0.519-0.156-1.068-0.396-1.647-0.715s-1.128-0.697-1.647-1.131c-0.567-0.435-1.071-0.914-1.511-1.439
		c-0.441-0.525-0.77-1.064-0.986-1.62c-0.229,0.519-0.531,1.016-0.905,1.493c-0.374,0.478-0.796,0.914-1.267,1.313
		c-0.543,0.459-1.122,0.869-1.737,1.23c-0.615,0.362-1.243,0.658-1.882,0.888c-0.145-0.169-0.32-0.354-0.525-0.553
		c-0.206-0.199-0.423-0.407-0.652-0.624c0.796-0.254,1.563-0.582,2.299-0.986s1.381-0.878,1.937-1.421
		c0.579-0.555,1.043-1.167,1.394-1.837c0.35-0.669,0.524-1.373,0.524-2.108c0-0.229-0.003-0.449-0.009-0.661
		c-0.006-0.211-0.027-0.438-0.063-0.679h1.774c-0.036,0.229-0.058,0.453-0.063,0.669C28.255,16.431,28.253,16.654,28.253,16.883z"/>
	<path fill="#555555" d="M42.371,17.064h-4.199v3.638h5.665v1.285h-5.665v3.837c0.217,0,0.627-0.003,1.23-0.009
		s1.303-0.027,2.1-0.063c0.676-0.024,1.418-0.081,2.227-0.172c0.808-0.091,1.538-0.19,2.189-0.299v1.268
		c-0.277,0.061-0.597,0.114-0.959,0.162c-0.362,0.049-0.742,0.097-1.141,0.146c-0.397,0.048-0.799,0.09-1.203,0.126
		s-0.787,0.061-1.149,0.073c-0.435,0.023-0.878,0.042-1.33,0.054c-0.453,0.013-0.891,0.024-1.313,0.036c-0.435,0-0.839,0-1.213,0
		s-0.688,0-0.941,0v-9.502c0-0.302-0.006-0.609-0.018-0.923c-0.013-0.313-0.036-0.627-0.073-0.941h5.793c0.289,0,0.572,0,0.851,0
		c0.277,0,0.566-0.018,0.868-0.055v1.394c-0.156-0.012-0.305-0.021-0.443-0.027c-0.139-0.006-0.28-0.015-0.425-0.027
		c-0.146,0-0.287,0-0.426,0S42.516,17.064,42.371,17.064z M47.366,21.824H45.9c-0.218,0-0.45,0.003-0.697,0.009
		c-0.247,0.007-0.474,0.027-0.679,0.063v-1.52c0.218,0.036,0.446,0.058,0.688,0.063s0.471,0.009,0.688,0.009h1.466v-3.113
		c0-0.398-0.006-0.799-0.019-1.204c-0.012-0.404-0.036-0.812-0.072-1.222h1.665c-0.036,0.411-0.057,0.818-0.063,1.222
		c-0.007,0.404-0.01,0.805-0.01,1.204v11.258c0,0.41,0.003,0.817,0.01,1.222c0.006,0.404,0.026,0.806,0.063,1.203h-1.665
		c0.036-0.397,0.061-0.799,0.072-1.203c0.013-0.404,0.019-0.812,0.019-1.222V21.824z"/>
	<path fill="#555555" d="M62.823,17.444v5.846h-7.476v-5.846c0-0.29-0.003-0.576-0.009-0.86c-0.007-0.283-0.027-0.594-0.063-0.932
		h7.62c-0.036,0.338-0.058,0.649-0.063,0.932C62.825,16.868,62.823,17.155,62.823,17.444z M61.356,22.023v-5.104h-4.561v5.104
		H61.356z M57.121,30.693v-3.964c0-0.217-0.003-0.446-0.009-0.688s-0.027-0.471-0.063-0.688h1.665
		c-0.036,0.218-0.057,0.443-0.063,0.679c-0.006,0.235-0.009,0.456-0.009,0.661v2.715h6.661c0.471,0,0.923-0.003,1.357-0.009
		c0.435-0.007,0.887-0.027,1.357-0.063v1.43c-0.471-0.036-0.923-0.058-1.357-0.063s-0.887-0.009-1.357-0.009L57.121,30.693
		L57.121,30.693z M67.511,18.983h0.851c0.217,0,0.446-0.003,0.688-0.009c0.241-0.006,0.471-0.027,0.688-0.063v1.466
		c-0.218-0.036-0.444-0.057-0.679-0.063s-0.456-0.009-0.661-0.009h-0.887v4.633c0,0.314,0.003,0.622,0.009,0.923
		c0.006,0.302,0.027,0.604,0.063,0.905h-1.684c0.036-0.302,0.061-0.604,0.072-0.905c0.013-0.301,0.019-0.608,0.019-0.923v-8.199
		c0-0.301-0.006-0.603-0.019-0.905c-0.012-0.302-0.036-0.609-0.072-0.923h1.684c-0.036,0.314-0.058,0.622-0.063,0.923
		c-0.005,0.301-0.009,0.604-0.009,0.905V18.983z"/>
	<path fill="#555555" d="M81.954,22.893h-9.538c-0.471,0-0.933,0.003-1.385,0.009s-0.914,0.027-1.385,0.063v-1.376
		c0.471,0.036,0.933,0.058,1.385,0.063c0.452,0.007,0.914,0.009,1.385,0.009h9.538c0.471,0,0.933-0.002,1.385-0.009
		c0.452-0.006,0.914-0.027,1.385-0.063v1.376c-0.471-0.036-0.933-0.058-1.385-0.063S82.425,22.893,81.954,22.893z M80.868,20.25
		h-9.213v-3.149c0-0.253-0.006-0.528-0.018-0.824c-0.013-0.295-0.036-0.6-0.072-0.914h9.122c0.289,0,0.604,0,0.941,0
		c0.337,0,0.705-0.018,1.104-0.054v1.321c-0.398-0.024-0.767-0.039-1.104-0.045c-0.338-0.006-0.652-0.009-0.941-0.009h-7.529v2.461
		h7.71c0.29,0,0.604,0,0.941,0s0.706-0.018,1.104-0.054v1.321c-0.398-0.024-0.767-0.039-1.104-0.045
		C81.472,20.253,81.158,20.25,80.868,20.25z M71.655,30.874v-3.855h9.412v-1.43H73.23c-0.254,0-0.516,0.007-0.787,0.019
		s-0.534,0.03-0.788,0.054v-1.357c0.29,0.036,0.562,0.058,0.814,0.063c0.254,0.007,0.507,0.01,0.761,0.01h9.574
		c-0.036,0.229-0.061,0.458-0.072,0.688s-0.018,0.452-0.018,0.67v2.425H73.32V29.7h8.109c0.289,0,0.563,0,0.823,0
		s0.534-0.019,0.823-0.055v1.303c-0.302-0.036-0.579-0.057-0.832-0.063c-0.254-0.006-0.525-0.009-0.814-0.009h-9.774
		C71.655,30.876,71.655,30.874,71.655,30.874z"/>
	<path fill="#555555" d="M88.107,15.924h5.756c-0.061,1.195-0.238,2.335-0.534,3.421s-0.715,2.111-1.258,3.077
		c-0.579,1.062-1.307,2.045-2.181,2.95c-0.875,0.905-1.886,1.707-3.032,2.407c-0.145-0.133-0.365-0.308-0.66-0.525
		c-0.296-0.217-0.534-0.386-0.715-0.507c1.073-0.555,2.023-1.197,2.851-1.927c0.826-0.73,1.529-1.542,2.108-2.435
		c0.482-0.761,0.869-1.572,1.158-2.435c0.29-0.863,0.477-1.771,0.562-2.724h-4.055c-0.302,0-0.576,0.003-0.823,0.009
		c-0.248,0.006-0.517,0.027-0.806,0.063V15.85c0.289,0.036,0.558,0.058,0.806,0.063C87.531,15.921,87.806,15.924,88.107,15.924z
		 M98.731,28.594c0,0.41,0.003,0.817,0.01,1.222c0.006,0.404,0.027,0.806,0.063,1.203h-1.702c0.036-0.397,0.061-0.799,0.073-1.203
		s0.018-0.812,0.018-1.222V17.336c0-0.398-0.006-0.799-0.018-1.204c-0.013-0.404-0.037-0.812-0.073-1.222h1.702
		c-0.036,0.411-0.058,0.818-0.063,1.222c-0.007,0.404-0.01,0.805-0.01,1.204V28.594z"/>
</g>
</svg>
