<?xml version="1.0" encoding="utf-8"?>
<!-- Generator: Adobe Illustrator 17.0.0, SVG Export Plug-In . SVG Version: 6.00 Build 0)  -->
<!DOCTYPE svg PUBLIC "-//W3C//DTD SVG 1.1//EN" "http://www.w3.org/Graphics/SVG/1.1/DTD/svg11.dtd">
<svg version="1.1" id="Layer_1" xmlns="http://www.w3.org/2000/svg" xmlns:xlink="http://www.w3.org/1999/xlink" x="0px" y="0px"
	 width="25px" height="25px" viewBox="0 0 25 25" enable-background="new 0 0 25 25" xml:space="preserve">
<path opacity="0.45" fill="#FFFFFF" enable-background="new    " d="M13.352,7.299H5.17V5.865h3.259V4.523
	c0-0.072-0.002-0.129-0.006-0.175C8.418,4.305,8.416,4.26,8.416,4.215C8.406,4.179,8.4,4.136,8.396,4.087
	C8.391,4.038,8.389,3.973,8.389,3.893h1.796c-0.01,0.08-0.019,0.145-0.026,0.194c-0.009,0.049-0.013,0.092-0.013,0.128
	c-0.01,0.045-0.014,0.09-0.014,0.134c0,0.045,0,0.103,0,0.175v1.341h3.219L13.352,7.299L13.352,7.299z M9.193,7.621
	c0.5,0,0.963,0.056,1.389,0.167c0.424,0.112,0.793,0.267,1.106,0.463c0.313,0.197,0.56,0.43,0.738,0.697
	c0.18,0.269,0.268,0.555,0.268,0.858c0,0.322-0.088,0.615-0.268,0.878c-0.18,0.264-0.425,0.494-0.738,0.69
	c-0.313,0.197-0.684,0.349-1.111,0.457c-0.43,0.107-0.891,0.161-1.382,0.161c-0.501,0-0.965-0.054-1.395-0.161
	c-0.429-0.108-0.8-0.259-1.113-0.457c-0.322-0.196-0.57-0.429-0.744-0.697c-0.175-0.266-0.262-0.556-0.262-0.87
	c0-0.304,0.087-0.59,0.262-0.858c0.174-0.268,0.422-0.5,0.744-0.697C6.999,8.055,7.37,7.9,7.798,7.789
	C8.228,7.677,8.692,7.621,9.193,7.621z M9.193,10.679c0.51,0,0.934-0.08,1.273-0.241s0.511-0.371,0.511-0.63
	c0-0.241-0.17-0.447-0.511-0.617c-0.34-0.169-0.764-0.255-1.273-0.255S8.257,9.021,7.913,9.19C7.568,9.36,7.396,9.566,7.396,9.807
	c0,0.259,0.172,0.469,0.516,0.63S8.684,10.679,9.193,10.679z"/>
<path opacity="0.45" fill="#FFFFFF" enable-background="new    " d="M12.977,21.032h-1.678v-5.218h-6.29v-1.407h7.968V21.032z"/>
</svg>
