<?xml version="1.0" encoding="utf-8"?>
<!-- Generator: Adobe Illustrator 17.0.0, SVG Export Plug-In . SVG Version: 6.00 Build 0)  -->
<!DOCTYPE svg PUBLIC "-//W3C//DTD SVG 1.1//EN" "http://www.w3.org/Graphics/SVG/1.1/DTD/svg11.dtd">
<svg version="1.1" id="Layer_1" xmlns="http://www.w3.org/2000/svg" xmlns:xlink="http://www.w3.org/1999/xlink" x="0px" y="0px"
	 width="50px" height="90px" viewBox="0 0 50 90" enable-background="new 0 0 50 90" xml:space="preserve">
<path opacity="0.3" fill="#FFFFFF" enable-background="new    " d="M35.924,25.152H13.169c-5.556,0-10.076-4.52-10.076-10.076
	S7.613,5,13.169,5h22.755C41.48,5,46,9.52,46,15.076S41.48,25.152,35.924,25.152z M13.169,6.791c-4.568,0-8.285,3.716-8.285,8.285
	s3.716,8.285,8.285,8.285h22.755c4.568,0,8.285-3.716,8.285-8.285s-3.716-8.285-8.285-8.285H13.169z"/>
<path fill="#FFFFFF" d="M35.812,24.909c-5.432,0-9.852-4.42-9.852-9.852s4.42-9.852,9.852-9.852s9.852,4.42,9.852,9.852
	S41.245,24.909,35.812,24.909z M35.812,7.892c-3.951,0-7.165,3.214-7.165,7.165s3.214,7.165,7.165,7.165s7.165-3.214,7.165-7.165
	S39.763,7.892,35.812,7.892z"/>
<path fill="#FFFFFF" d="M7.717,15.179c0-1.392,0.339-2.476,1.017-3.251c0.678-0.776,1.621-1.163,2.831-1.163
	c1.24,0,2.196,0.381,2.867,1.143c0.671,0.762,1.006,1.829,1.006,3.202c0,0.997-0.147,1.814-0.44,2.452
	c-0.293,0.638-0.716,1.134-1.271,1.489c-0.554,0.355-1.245,0.532-2.072,0.532c-0.84,0-1.536-0.153-2.086-0.46
	c-0.551-0.306-0.997-0.791-1.339-1.454C7.888,17.005,7.717,16.176,7.717,15.179z M10.019,15.191c0,0.861,0.14,1.479,0.42,1.855
	s0.66,0.565,1.141,0.565c0.495,0,0.878-0.184,1.149-0.553c0.271-0.369,0.407-1.03,0.407-1.983c0-0.803-0.142-1.389-0.425-1.759
	s-0.667-0.555-1.151-0.555c-0.464,0-0.837,0.188-1.118,0.564C10.16,13.7,10.019,14.322,10.019,15.191z"/>
<path fill="#FFFFFF" d="M16.694,10.91h2.15l2.806,4.717V10.91h2.171v8.527H21.65l-2.79-4.682v4.682h-2.165L16.694,10.91
	L16.694,10.91z"/>
<path opacity="0.6" fill="#FFFFFF" enable-background="new    " d="M13.309,55.258c-5.432,0-9.852-4.42-9.852-9.852
	s4.42-9.852,9.852-9.852s9.852,4.42,9.852,9.852S18.742,55.258,13.309,55.258z M13.309,38.241c-3.951,0-7.165,3.214-7.165,7.165
	s3.214,7.165,7.165,7.165s7.165-3.214,7.165-7.165S17.26,38.241,13.309,38.241z"/>
<path fill="#FFFFFF" d="M24.947,45.527c0-1.391,0.252-2.475,0.755-3.251c0.503-0.776,1.205-1.163,2.103-1.163
	c0.922,0,1.632,0.381,2.13,1.143c0.499,0.762,0.748,1.829,0.748,3.201c0,0.996-0.109,1.814-0.326,2.451
	c-0.218,0.638-0.533,1.134-0.944,1.489c-0.412,0.355-0.925,0.533-1.539,0.533c-0.624,0-1.141-0.153-1.55-0.459
	c-0.409-0.306-0.741-0.791-0.995-1.454C25.074,47.353,24.947,46.523,24.947,45.527z M26.657,45.539c0,0.86,0.104,1.48,0.312,1.855
	c0.207,0.376,0.49,0.564,0.847,0.564c0.368,0,0.652-0.184,0.854-0.552c0.201-0.368,0.302-1.029,0.302-1.983
	c0-0.803-0.105-1.389-0.315-1.76c-0.211-0.37-0.496-0.555-0.855-0.555c-0.345,0-0.622,0.188-0.831,0.564
	C26.762,44.048,26.657,44.67,26.657,45.539z"/>
<path fill="#FFFFFF" d="M31.611,41.259h4.23v1.832H33.33v1.489h2.145v1.72H33.33v3.484h-1.718v-8.525H31.611z"/>
<path fill="#FFFFFF" d="M36.77,41.259H41v1.832h-2.511v1.489h2.145v1.72h-2.145v3.484H36.77V41.259z"/>
<path opacity="0.5" fill="#FFFFFF" enable-background="new    " d="M35.812,7.892c-3.951,0-7.165,3.214-7.165,7.165
	s3.214,7.165,7.165,7.165s7.165-3.214,7.165-7.165S39.763,7.892,35.812,7.892z"/>
<path opacity="0.3" fill="#FFFFFF" enable-background="new    " d="M35.924,35.348H13.169c-5.556,0-10.076,4.52-10.076,10.076
	S7.613,55.5,13.169,55.5h22.755C41.48,55.5,46,50.98,46,45.424S41.48,35.348,35.924,35.348z M35.924,53.709H18.591
	c-1.528,0.976-3.337,1.549-5.281,1.549c-5.432,0-9.852-4.42-9.852-9.852s4.42-9.852,9.852-9.852c1.969,0,3.801,0.587,5.341,1.586
	h17.273c4.568,0,8.285,3.716,8.285,8.285S40.492,53.709,35.924,53.709z"/>
<path opacity="0.3" fill="#FFFFFF" enable-background="new    " d="M35.924,85.902H13.169c-5.556,0-10.076-4.52-10.076-10.076
	c0-5.556,4.52-10.076,10.076-10.076h22.755C41.48,65.75,46,70.27,46,75.826S41.48,85.902,35.924,85.902z M13.169,67.541
	c-4.568,0-8.285,3.716-8.285,8.285s3.716,8.285,8.285,8.285h22.755c4.568,0,8.285-3.716,8.285-8.285
	c0-4.569-3.716-8.285-8.285-8.285H13.169z"/>
</svg>
