<?xml version="1.0" encoding="utf-8"?>
<svg width="22" height="40" xmlns="http://www.w3.org/2000/svg" xmlns:svg="http://www.w3.org/2000/svg">
<g>
	<path fill="#000000" d="M3.703,31.218c-1.104,0-2.029-0.487-2.537-1.336c-0.554-0.926-0.521-2.157,0.087-3.292l7.302-13.859
		c0.575-1.076,1.456-1.689,2.419-1.689c0.999,0,1.921,0.653,2.531,1.793l7.305,13.759c0.607,1.129,0.64,2.36,0.086,3.287
		c-0.508,0.85-1.432,1.337-2.535,1.337H3.703z"/>
	<path fill="#FCAF17" d="M9.622,13.622L2.655,26.845c-0.775,1.445-0.151,2.829,1.388,2.829h13.979c1.536,0,2.162-1.385,1.385-2.829
		l-6.966-13.119C11.666,12.276,10.397,12.173,9.622,13.622z"/>
	<path fill="#FFFFFF" d="M10.843,28c-0.852,0-1.541-0.63-1.541-1.408c0-0.778,0.689-1.408,1.541-1.408
		c0.852,0,1.541,0.63,1.541,1.408C12.384,27.37,11.695,28,10.843,28z M11.613,23.776h-1.541l-0.77-7.04h3.081L11.613,23.776z"/>
</g>
</svg>