<?xml version="1.0" encoding="utf-8"?>
<!-- Generator: Adobe Illustrator 17.0.0, SVG Export Plug-In . SVG Version: 6.00 Build 0)  -->
<!DOCTYPE svg PUBLIC "-//W3C//DTD SVG 1.1//EN" "http://www.w3.org/Graphics/SVG/1.1/DTD/svg11.dtd">
<svg version="1.1" id="레이어_1" xmlns="http://www.w3.org/2000/svg" xmlns:xlink="http://www.w3.org/1999/xlink" x="0px"
	 y="0px" width="40px" height="40px" viewBox="0 0 40 40" enable-background="new 0 0 40 40" xml:space="preserve">
<path fill="#EAEAEA" d="M20,33.278c-7.4,0-13.42-6.021-13.42-13.421S12.6,6.437,20,6.437s13.42,6.021,13.42,13.421
	S27.4,33.278,20,33.278z"/>
<path fill="#7A7A7A" d="M20,4.994c-8.209,0-14.863,6.654-14.863,14.863S11.791,34.721,20,34.721s14.863-6.654,14.863-14.863
	S28.209,4.994,20,4.994z M20,33.278c-7.4,0-13.42-6.021-13.42-13.421S12.6,6.437,20,6.437s13.42,6.021,13.42,13.421
	S27.4,33.278,20,33.278z"/>
<path fill="#7A7A7A" d="M20.995,27.337c-1.041,0-2.049-0.229-2.997-0.678l-0.181-0.086l0.853-1.798l0.181,0.086
	c0.679,0.322,1.4,0.485,2.146,0.485c1.928,0,3.708-1.125,4.534-2.867c1.185-2.498,0.116-5.494-2.382-6.679
	c-0.677-0.321-1.397-0.484-2.141-0.484c-1.612,0-3.1,0.758-4.042,2.043l4.255,0.479l-0.233,2.069l-7.771-0.875l0.875-7.771
	l2.069,0.233l-0.483,4.292c1.322-1.553,3.267-2.461,5.333-2.461c1.039,0,2.044,0.228,2.991,0.676
	c1.69,0.802,2.967,2.214,3.596,3.976c0.628,1.762,0.532,3.663-0.27,5.354C26.174,25.765,23.688,27.337,20.995,27.337
	C20.995,27.337,20.996,27.337,20.995,27.337z"/>
</svg>
