<?xml version="1.0" encoding="utf-8"?>
<!-- Generator: Adobe Illustrator 17.0.0, SVG Export Plug-In . SVG Version: 6.00 Build 0)  -->
<!DOCTYPE svg PUBLIC "-//W3C//DTD SVG 1.1//EN" "http://www.w3.org/Graphics/SVG/1.1/DTD/svg11.dtd">
<svg version="1.1" id="레이어_1" xmlns="http://www.w3.org/2000/svg" xmlns:xlink="http://www.w3.org/1999/xlink" x="0px"
	 y="0px" width="40px" height="40px" viewBox="0 0 40 40" enable-background="new 0 0 40 40" xml:space="preserve">
<path fill="#EAEAEA" d="M20,33.278c-7.4,0-13.42-6.021-13.42-13.421S12.6,6.437,20,6.437s13.42,6.021,13.42,13.421
	S27.4,33.278,20,33.278z"/>
<path fill="#7A7A7A" d="M20,4.994c-8.209,0-14.863,6.654-14.863,14.863S11.791,34.721,20,34.721s14.863-6.654,14.863-14.863
	S28.209,4.994,20,4.994z M20,33.278c-7.4,0-13.42-6.021-13.42-13.421S12.6,6.437,20,6.437s13.42,6.021,13.42,13.421
	S27.4,33.278,20,33.278z"/>
<path fill="#7A7A7A" d="M20.269,21.24l-1.831-1.776c-0.013,0.02-0.026,0.042-0.04,0.063c-0.644,0.004-3.146,0.179-3.382,2.732
	c0,0-1.419,4.222-2.739,4.346c-1.307,0.124,3.957,0.167,4.626-0.043C17.562,26.354,20.962,26.234,20.269,21.24z"/>
<path fill="#7A7A7A" d="M26.507,9.906c-0.776,0.759-1.58,1.581-2.392,2.456c-2.133,2.298-3.935,4.526-5.156,6.313l2.014,1.953
	c1.66-1.327,3.711-3.254,5.823-5.528c0.87-0.937,1.682-1.862,2.425-2.751C28.449,11.401,27.532,10.578,26.507,9.906z"/>
</svg>
