<?xml version="1.0" encoding="utf-8"?>
<!-- Generator: Adobe Illustrator 17.0.0, SVG Export Plug-In . SVG Version: 6.00 Build 0)  -->
<!DOCTYPE svg PUBLIC "-//W3C//DTD SVG 1.1//EN" "http://www.w3.org/Graphics/SVG/1.1/DTD/svg11.dtd">
<svg version="1.1" id="레이어_1" xmlns="http://www.w3.org/2000/svg" xmlns:xlink="http://www.w3.org/1999/xlink" x="0px"
	 y="0px" width="40px" height="40px" viewBox="0 0 40 40" enable-background="new 0 0 40 40" xml:space="preserve">
<path fill="#EAEAEA" d="M20,33.278c-7.4,0-13.42-6.021-13.42-13.421S12.6,6.437,20,6.437s13.42,6.021,13.42,13.421
	S27.4,33.278,20,33.278z"/>
<path fill="#7A7A7A" d="M20,4.994c-8.209,0-14.863,6.654-14.863,14.863S11.791,34.721,20,34.721s14.863-6.654,14.863-14.863
	S28.209,4.994,20,4.994z M20,33.278c-7.4,0-13.42-6.021-13.42-13.421S12.6,6.437,20,6.437s13.42,6.021,13.42,13.421
	S27.4,33.278,20,33.278z"/>
<polygon fill="#7A7A7A" points="15.964,23.231 15.211,23.231 15.211,14.514 21.453,14.514 21.453,14.998 23.175,14.998 
	23.175,12.792 13.489,12.792 13.489,24.953 15.964,24.953 "/>
<path fill="#7A7A7A" d="M16.825,15.859V28.02h9.686V15.859H16.825z M24.789,26.298h-6.242v-8.717h6.242V26.298z"/>
</svg>
