<?xml version="1.0" encoding="utf-8"?>
<!-- Generator: Adobe Illustrator 17.0.0, SVG Export Plug-In . SVG Version: 6.00 Build 0)  -->
<!DOCTYPE svg PUBLIC "-//W3C//DTD SVG 1.1//EN" "http://www.w3.org/Graphics/SVG/1.1/DTD/svg11.dtd">
<svg version="1.1" id="Layer_1" xmlns="http://www.w3.org/2000/svg" xmlns:xlink="http://www.w3.org/1999/xlink" x="0px" y="0px"
	 width="30px" height="30px" viewBox="0 0 30 30" enable-background="new 0 0 30 30" xml:space="preserve">
<path fill="#848484" d="M22.563,15.396v-1.25h-15v1.25H22.563z M13.652,25.29c-1.669,0-3.082-3.129-3.552-7.438l2.211-0.286
	c0.321,2.949,1.174,5.062,2.18,5.062c1.192,0,2.173-2.963,2.302-6.774l0.559-0.098C17.168,21.108,15.582,25.29,13.652,25.29z
	 M19.26,11.565l-2.211,0.286c-0.321-2.949-1.174-5.062-2.18-5.062c-1.192,0-2.173,2.963-2.302,6.774l-0.559,0.098
	c0.185-5.352,1.771-9.534,3.701-9.534C17.377,4.127,18.789,7.256,19.26,11.565z"/>
</svg>
