<?xml version="1.0" encoding="utf-8"?>
<!-- Generator: Adobe Illustrator 17.0.0, SVG Export Plug-In . SVG Version: 6.00 Build 0)  -->
<!DOCTYPE svg PUBLIC "-//W3C//DTD SVG 1.1//EN" "http://www.w3.org/Graphics/SVG/1.1/DTD/svg11.dtd">
<svg version="1.1" id="Layer_1" xmlns="http://www.w3.org/2000/svg" xmlns:xlink="http://www.w3.org/1999/xlink" x="0px" y="0px"
	 width="30px" height="30px" viewBox="0 0 30 30" enable-background="new 0 0 30 30" xml:space="preserve">
<path fill="#848484" d="M14.375,7.208h1.25v15h-1.25V7.208z M4.481,16.119c0,1.669,3.129,3.082,7.438,3.552l0.286-2.211
	c-2.949-0.321-5.062-1.174-5.062-2.18c0-1.192,2.963-2.173,6.774-2.302l0.098-0.559C8.663,12.603,4.481,14.189,4.481,16.119z
	 M18.206,10.511l-0.286,2.211c2.949,0.321,5.062,1.174,5.062,2.18c0,1.192-2.963,2.173-6.774,2.302l-0.098,0.559
	c5.352-0.185,9.534-1.771,9.534-3.701C25.644,12.394,22.515,10.982,18.206,10.511z"/>
</svg>
