<?xml version="1.0" encoding="utf-8"?>
<!-- Generator: Adobe Illustrator 17.0.0, SVG Export Plug-In . SVG Version: 6.00 Build 0)  -->
<!DOCTYPE svg PUBLIC "-//W3C//DTD SVG 1.1//EN" "http://www.w3.org/Graphics/SVG/1.1/DTD/svg11.dtd">
<svg version="1.1" id="Layer_1" xmlns="http://www.w3.org/2000/svg" xmlns:xlink="http://www.w3.org/1999/xlink" x="0px" y="0px"
	 width="30px" height="30px" viewBox="0 0 30 30" enable-background="new 0 0 30 30" xml:space="preserve">
<path fill="#848484" d="M16.518,9.427c-2.684-0.631-5.369,0.763-6.457,3.188c-0.86-0.721-1.138-1.409-1.138-1.409
	s-0.504,4.429,1.646,7.327c0.454-3.363,2.619-4.745,2.619-4.745s-0.792-0.003-1.685-0.327c0.722-1.822,2.675-2.896,4.639-2.434
	c2.16,0.508,3.499,2.671,2.991,4.831c-0.508,2.16-2.671,3.499-4.831,2.991l-0.376,1.6c3.044,0.716,6.091-1.171,6.807-4.215
	S19.562,10.143,16.518,9.427z"/>
</svg>
