<?xml version="1.0" encoding="utf-8"?>
<svg width="50" height="60" xmlns="http://www.w3.org/2000/svg" xmlns:svg="http://www.w3.org/2000/svg">
<g>
<path d="M17.072,12.081h16.857c0.553,0,1-0.447,1-1V7.92H30.5V5.355c0-1.104-0.896-2-2-2h-6c-1.104,0-2,0.896-2,2V7.92h-4.428v3.161
	C16.072,11.634,16.519,12.081,17.072,12.081z M36.929,7.92v3.161c0,1.654-1.346,3-3,3H17.072c-1.654,0-3-1.346-3-3V7.92H5.5v43.975
	c0,2.209,1.791,4,4,4h32c2.209,0,4-1.791,4-4V7.92H36.929z M40.5,50.895h-30V18.554h30V50.895z M35.364,22H15.841
	c-1.18,0-2.137,0.957-2.137,2.136s0.957,2.136,2.137,2.136h19.523c1.182,0,2.137-0.957,2.137-2.136C37.5,22.957,36.545,22,35.364,22
	z M37.5,32.147c0-1.18-0.955-2.136-2.137-2.136H15.841c-1.18,0-2.137,0.957-2.137,2.136c0,1.18,0.957,2.137,2.137,2.137h19.523
	C36.545,34.284,37.5,33.327,37.5,32.147z M27.354,42.295c1.18,0,2.136-0.957,2.136-2.136c0-1.18-0.956-2.137-2.136-2.137H15.841
	c-1.18,0-2.137,0.957-2.137,2.137s0.957,2.136,2.137,2.136H27.354z"/>
</g>
</svg>