<?xml version="1.0" encoding="utf-8"?>
<svg width="50" height="60" xmlns="http://www.w3.org/2000/svg" xmlns:svg="http://www.w3.org/2000/svg">
<g>
	<path opacity="0.2" d="M17.072,12.081h16.857c0.553,0,1-0.447,1-1V7.92H30.5V5.355c0-1.104-0.896-2-2-2h-6c-1.104,0-2,0.896-2,2
		V7.92h-4.428v3.161C16.072,11.634,16.519,12.081,17.072,12.081z M5.5,23.5V7.92h8.572v3.161c0,1.654,1.346,3,3,3h16.857
		c1.654,0,3-1.346,3-3V7.92H45.5V23.5h-5v-4.946h-30V23.5H5.5z M45.5,40.5v11.395c0,2.209-1.791,4-4,4h-32c-2.209,0-4-1.791-4-4
		V40.5h5v10.395h30V40.5H45.5z"/>
	<path d="M17.371,49.075c-0.332,0.166-0.995,0.332-1.844,0.332c-1.969,0-3.45-1.243-3.45-3.534c0-2.186,1.482-3.668,3.647-3.668
		c0.87,0,1.419,0.186,1.658,0.311l-0.218,0.736c-0.342-0.166-0.829-0.29-1.409-0.29c-1.637,0-2.726,1.046-2.726,2.881
		c0,1.71,0.985,2.808,2.684,2.808c0.549,0,1.109-0.114,1.472-0.29L17.371,49.075z M19.566,42.847v1.44h1.306v0.694h-1.306v2.704
		c0,0.622,0.176,0.974,0.684,0.974c0.239,0,0.414-0.031,0.529-0.062l0.042,0.684c-0.176,0.073-0.456,0.125-0.808,0.125
		c-0.425,0-0.767-0.135-0.984-0.384c-0.259-0.269-0.353-0.715-0.353-1.305v-2.736h-0.777v-0.694h0.777v-1.202L19.566,42.847z
		 M21.896,45.852c0-0.591-0.011-1.099-0.042-1.565h0.798l0.031,0.984h0.042c0.228-0.673,0.777-1.099,1.389-1.099
		c0.103,0,0.176,0.011,0.259,0.031v0.86c-0.093-0.021-0.186-0.031-0.31-0.031c-0.643,0-1.099,0.487-1.223,1.171
		c-0.021,0.124-0.042,0.27-0.042,0.425v2.674h-0.901V45.852z M25.325,41.946h0.912v7.357h-0.912V41.946z M30.433,43.79v2.435h2.342
		v0.622h-2.342v2.456H29.77v-2.456h-2.342v-0.622h2.342V43.79H30.433z M35.508,49.303l-2.28-6.984h0.974l1.088,3.44
		c0.3,0.943,0.559,1.793,0.746,2.611h0.021c0.197-0.808,0.487-1.689,0.798-2.601l1.181-3.451H39l-2.497,6.984H35.508z M2.957,25.736
		c0.805-0.134,1.858-0.249,3.2-0.249c1.648,0,2.855,0.383,3.622,1.073c0.709,0.613,1.131,1.553,1.131,2.702
		c0,1.169-0.345,2.089-0.996,2.76c-0.882,0.939-2.319,1.418-3.948,1.418c-0.498,0-0.958-0.019-1.342-0.115V38.5H2.957V25.736z
		 M4.624,31.965c0.364,0.096,0.824,0.134,1.38,0.134c2.013,0,3.239-0.978,3.239-2.76c0-1.706-1.208-2.53-3.048-2.53
		c-0.728,0-1.283,0.058-1.571,0.134V31.965z M17.73,38.5l-0.134-1.169h-0.058c-0.518,0.728-1.515,1.38-2.837,1.38
		c-1.878,0-2.836-1.323-2.836-2.664c0-2.242,1.993-3.469,5.577-3.45v-0.191c0-0.767-0.211-2.146-2.108-2.146
		c-0.862,0-1.764,0.268-2.415,0.689l-0.383-1.111c0.767-0.498,1.878-0.824,3.047-0.824c2.836,0,3.526,1.936,3.526,3.795v3.469
		c0,0.805,0.038,1.591,0.153,2.223H17.73z M17.481,33.766c-1.84-0.038-3.929,0.288-3.929,2.089c0,1.093,0.728,1.61,1.591,1.61
		c1.207,0,1.974-0.767,2.242-1.553c0.058-0.172,0.096-0.364,0.096-0.537V33.766z M21.599,36.775c0.499,0.326,1.38,0.671,2.224,0.671
		c1.227,0,1.802-0.613,1.802-1.38c0-0.805-0.479-1.246-1.726-1.706c-1.667-0.594-2.453-1.514-2.453-2.625
		c0-1.495,1.208-2.722,3.201-2.722c0.938,0,1.763,0.269,2.28,0.575l-0.422,1.227c-0.363-0.23-1.034-0.537-1.896-0.537
		c-0.997,0-1.553,0.575-1.553,1.265c0,0.767,0.556,1.112,1.763,1.572c1.61,0.613,2.435,1.418,2.435,2.798
		c0,1.629-1.265,2.779-3.469,2.779c-1.016,0-1.955-0.25-2.606-0.633L21.599,36.775z M31.447,26.56v2.664h2.415v1.284h-2.415v5.002
		c0,1.15,0.326,1.802,1.265,1.802c0.441,0,0.767-0.058,0.978-0.115l0.077,1.265c-0.326,0.134-0.844,0.23-1.495,0.23
		c-0.786,0-1.418-0.25-1.82-0.709c-0.479-0.498-0.652-1.322-0.652-2.415v-5.06h-1.437v-1.284h1.437v-2.223L31.447,26.56z
		 M36.582,34.168c0.038,2.281,1.495,3.22,3.182,3.22c1.207,0,1.936-0.21,2.568-0.479l0.287,1.208
		c-0.594,0.269-1.61,0.575-3.086,0.575c-2.855,0-4.561-1.878-4.561-4.677c0-2.798,1.647-5.002,4.35-5.002
		c3.028,0,3.833,2.664,3.833,4.37c0,0.345-0.038,0.613-0.057,0.786H36.582z M41.526,32.961c0.02-1.073-0.44-2.741-2.338-2.741
		c-1.706,0-2.453,1.572-2.587,2.741H41.526z M44.916,37.522c0-0.69,0.479-1.188,1.131-1.188c0.689,0,1.131,0.498,1.131,1.188
		c0,0.671-0.441,1.188-1.131,1.188C45.376,38.711,44.916,38.193,44.916,37.522z M45.395,34.782l-0.268-9.199h1.84l-0.269,9.199
		H45.395z"/>
</g>
</svg>