<?xml version="1.0" encoding="utf-8"?>
<svg width="50" height="60" xmlns="http://www.w3.org/2000/svg" xmlns:svg="http://www.w3.org/2000/svg">
<g>
	<path opacity="0.2" d="M17.072,12.081h16.857c0.553,0,1-0.447,1-1V7.92H30.5V5.355c0-1.104-0.896-2-2-2h-6c-1.104,0-2,0.896-2,2
		V7.92h-4.428v3.161C16.072,11.634,16.519,12.081,17.072,12.081z M5.5,23.5V7.92h8.572v3.161c0,1.654,1.346,3,3,3h16.857
		c1.654,0,3-1.346,3-3V7.92H45.5V23.5h-5v-4.946h-30V23.5H5.5z M45.5,40.5v11.395c0,2.209-1.791,4-4,4h-32c-2.209,0-4-1.791-4-4
		V40.5h5v10.395h30V40.5H45.5z"/>
	<path d="M43.471,37.749c0-0.69,0.479-1.188,1.131-1.188c0.689,0,1.131,0.498,1.131,1.188c0,0.671-0.441,1.188-1.131,1.188
		C43.931,38.937,43.471,38.419,43.471,37.749z M15.194,38.305c-0.613,0.307-1.84,0.613-3.411,0.613c-3.642,0-6.382-2.3-6.382-6.536
		c0-4.043,2.74-6.784,6.746-6.784c1.609,0,2.625,0.345,3.066,0.575l-0.402,1.361c-0.633-0.307-1.533-0.537-2.606-0.537
		c-3.028,0-5.041,1.936-5.041,5.328c0,3.162,1.821,5.193,4.964,5.193c1.016,0,2.051-0.211,2.722-0.537L15.194,38.305z
		 M17.223,25.119h1.687v13.607h-1.687V25.119z M23.622,26.844c0.02,0.575-0.402,1.035-1.073,1.035c-0.594,0-1.016-0.46-1.016-1.035
		c0-0.594,0.44-1.054,1.054-1.054C23.22,25.79,23.622,26.25,23.622,26.844z M21.744,38.726V29.45h1.687v9.276H21.744z
		 M32.839,38.381c-0.44,0.23-1.418,0.537-2.664,0.537c-2.798,0-4.618-1.897-4.618-4.734c0-2.856,1.954-4.925,4.982-4.925
		c0.997,0,1.878,0.249,2.338,0.479l-0.383,1.303c-0.402-0.23-1.035-0.441-1.955-0.441c-2.127,0-3.277,1.572-3.277,3.507
		c0,2.146,1.38,3.469,3.22,3.469c0.958,0,1.591-0.249,2.07-0.46L32.839,38.381z M36.478,33.705h0.039
		c0.229-0.326,0.556-0.729,0.823-1.054l2.722-3.201h2.031l-3.583,3.814l4.082,5.462h-2.051L37.34,34.28l-0.862,0.958v3.488h-1.667
		V25.119h1.667V33.705z M43.949,35.008l-0.268-9.199h1.84l-0.269,9.199H43.949z"/>
</g>
</svg>