<?xml version="1.0" encoding="utf-8"?>
<!-- Generator: Adobe Illustrator 17.0.0, SVG Export Plug-In . SVG Version: 6.00 Build 0)  -->
<!DOCTYPE svg PUBLIC "-//W3C//DTD SVG 1.1//EN" "http://www.w3.org/Graphics/SVG/1.1/DTD/svg11.dtd">
<svg version="1.1" id="레이어_1" xmlns="http://www.w3.org/2000/svg" xmlns:xlink="http://www.w3.org/1999/xlink" x="0px"
	 y="0px" width="44px" height="44px" viewBox="0 0 44 44" enable-background="new 0 0 44 44" xml:space="preserve">
<path fill="#555555" d="M22,39.591c-9.7,0-17.591-7.892-17.591-17.592c0-9.7,7.891-17.591,17.591-17.591
	c9.699,0,17.591,7.891,17.591,17.591S31.699,39.591,22,39.591z M22,6.171c-8.728,0-15.828,7.1-15.828,15.828
	S13.272,37.827,22,37.827S37.828,30.726,37.828,22S30.728,6.171,22,6.171z"/>
<path fill="#555555" d="M17.813,17.063v14.75h12.875v-14.75H17.813z M29.188,30.313h-9.875v-11.75h9.875V30.313z"/>
<polygon fill="#555555" points="16.375,25.813 14.938,25.813 14.938,14.063 24.813,14.063 24.813,15.813 26.313,15.813 
	26.313,12.563 13.438,12.563 13.438,27.313 16.375,27.313 "/>
</svg>
