<?xml version="1.0" encoding="utf-8"?>
<!-- Generator: Adobe Illustrator 17.0.0, SVG Export Plug-In . SVG Version: 6.00 Build 0)  -->
<!DOCTYPE svg PUBLIC "-//W3C//DTD SVG 1.1//EN" "http://www.w3.org/Graphics/SVG/1.1/DTD/svg11.dtd">
<svg version="1.1" id="레이어_1" xmlns="http://www.w3.org/2000/svg" xmlns:xlink="http://www.w3.org/1999/xlink" x="0px"
	 y="0px" width="44px" height="44px" viewBox="0 0 44 44" enable-background="new 0 0 44 44" xml:space="preserve">
<g>
	<rect x="11.764" y="14.82" fill="#3D8ED8" width="20.473" height="11.255"/>
	<path fill="#3D8ED8" d="M22,1.992c-11.033,0-20.008,8.975-20.008,20.008c0,11.033,8.975,20.009,20.008,20.009
		c11.031,0,20.008-8.976,20.008-20.009C42.008,10.967,33.031,1.992,22,1.992z M34.511,26.334c0,1.114-0.903,2.016-2.016,2.016
		h-8.611v3.264h5.687v2.275H14.429v-2.275h5.687V28.35h-8.611c-1.114,0-2.016-0.903-2.016-2.016V14.562
		c0-1.114,0.903-2.016,2.016-2.016h20.99c1.114,0,2.016,0.903,2.016,2.016V26.334z"/>
</g>
</svg>
