<?xml version="1.0" encoding="utf-8"?>
<!-- Generator: Adobe Illustrator 17.0.0, SVG Export Plug-In . SVG Version: 6.00 Build 0)  -->
<!DOCTYPE svg PUBLIC "-//W3C//DTD SVG 1.1//EN" "http://www.w3.org/Graphics/SVG/1.1/DTD/svg11.dtd">
<svg version="1.1" id="레이어_1" xmlns="http://www.w3.org/2000/svg" xmlns:xlink="http://www.w3.org/1999/xlink" x="0px"
	 y="0px" width="44px" height="44px" viewBox="0 0 44 44" enable-background="new 0 0 44 44" xml:space="preserve">
<g>
	<polygon fill="#3D8ED8" points="22.688,12.674 22.591,12.576 14.558,12.576 14.558,31.421 29.442,31.421 29.442,19.426 
		29.346,19.33 22.688,19.33 	"/>
	<polygon fill="#3D8ED8" points="24.779,14.766 24.779,17.237 27.249,17.237 	"/>
	<path fill="#3D8ED8" d="M22,1.992c-11.033,0-20.008,8.975-20.008,20.008c0,11.033,8.975,20.009,20.008,20.009
		c11.031,0,20.008-8.976,20.008-20.009C42.008,10.967,33.031,1.992,22,1.992z M31.534,33.516H12.466V10.484h10.991l8.077,8.077
		V33.516z"/>
</g>
</svg>
