<?xml version="1.0" encoding="utf-8"?>
<!-- Generator: Adobe Illustrator 17.0.0, SVG Export Plug-In . SVG Version: 6.00 Build 0)  -->
<!DOCTYPE svg PUBLIC "-//W3C//DTD SVG 1.1//EN" "http://www.w3.org/Graphics/SVG/1.1/DTD/svg11.dtd">
<svg version="1.1" id="레이어_1" xmlns="http://www.w3.org/2000/svg" xmlns:xlink="http://www.w3.org/1999/xlink" x="0px"
	 y="0px" width="24.154px" height="30px" viewBox="5.846 0 24.154 30" enable-background="new 5.846 0 24.154 30"
	 xml:space="preserve">
<path fill="#555555" d="M16.448,6.565c-5.855,0-10.602,4.747-10.602,10.602s4.747,10.602,10.602,10.602S27.05,23.022,27.05,17.167
	S22.303,6.565,16.448,6.565z M16.448,26.457c-5.131,0-9.291-4.16-9.291-9.29s4.16-9.291,9.291-9.291s9.29,4.16,9.29,9.291
	S21.579,26.457,16.448,26.457z"/>
<polygon fill="#555555" points="22.167,18.448 22.167,15.886 17.729,15.886 17.729,11.448 15.167,11.448 15.167,15.886 
	10.729,15.886 10.729,18.448 15.167,18.448 15.167,22.886 17.729,22.886 17.729,18.448 "/>
</svg>
