<?xml version="1.0" encoding="utf-8"?>
<!-- Generator: Adobe Illustrator 17.0.0, SVG Export Plug-In . SVG Version: 6.00 Build 0)  -->
<!DOCTYPE svg PUBLIC "-//W3C//DTD SVG 1.1//EN" "http://www.w3.org/Graphics/SVG/1.1/DTD/svg11.dtd">
<svg version="1.1" id="레이어_1" xmlns="http://www.w3.org/2000/svg" xmlns:xlink="http://www.w3.org/1999/xlink" x="0px"
	 y="0px" width="44px" height="44px" viewBox="0 0 44 44" enable-background="new 0 0 44 44" xml:space="preserve">
<path fill="#555555" d="M21,37.923c-9.7,0-17.591-7.892-17.591-17.592C3.409,10.631,11.3,2.74,21,2.74
	c9.699,0,17.591,7.891,17.591,17.591C38.591,30.031,30.699,37.923,21,37.923z M21,4.503c-8.728,0-15.828,7.1-15.828,15.828
	S12.272,36.159,21,36.159s15.828-7.101,15.828-15.828S29.728,4.503,21,4.503z"/>
<polygon fill="#555555" points="29.806,19.325 22.006,19.325 22.006,11.525 19.994,11.525 19.994,19.325 12.194,19.325 
	12.194,21.338 19.994,21.338 19.994,29.138 22.006,29.138 22.006,21.338 29.806,21.338 "/>
</svg>
