<?xml version="1.0" encoding="utf-8"?>
<!-- Generator: Adobe Illustrator 17.0.0, SVG Export Plug-In . SVG Version: 6.00 Build 0)  -->
<!DOCTYPE svg PUBLIC "-//W3C//DTD SVG 1.1//EN" "http://www.w3.org/Graphics/SVG/1.1/DTD/svg11.dtd">
<svg version="1.1" id="레이어_1" xmlns="http://www.w3.org/2000/svg" xmlns:xlink="http://www.w3.org/1999/xlink" x="0px"
	 y="0px" width="40px" height="40px" viewBox="0 0 40 40" enable-background="new 0 0 40 40" xml:space="preserve">
<path fill="#D1D1D1" d="M20,31.021c-6.155,0-11.163-5.008-11.163-11.164S13.845,8.694,20,8.694s11.163,5.008,11.163,11.164
	S26.155,31.021,20,31.021z"/>
<path fill="#494949" d="M20,7.494c-6.828,0-12.363,5.535-12.363,12.363S13.172,32.221,20,32.221s12.363-5.535,12.363-12.363
	S26.828,7.494,20,7.494z M20,31.021c-6.155,0-11.163-5.008-11.163-11.164S13.845,8.694,20,8.694s11.163,5.008,11.163,11.164
	S26.155,31.021,20,31.021z"/>
<rect x="21.983" y="14.733" fill="#494949" width="3.142" height="3.142"/>
<rect x="14.608" y="14.733" fill="#494949" width="3.142" height="3.142"/>
<rect x="22.116" y="21.841" fill="#494949" width="3.142" height="3.142"/>
<rect x="14.741" y="21.841" fill="#494949" width="3.142" height="3.142"/>
</svg>
