<?xml version="1.0" encoding="utf-8"?>
<!-- Generator: Adobe Illustrator 17.0.0, SVG Export Plug-In . SVG Version: 6.00 Build 0)  -->
<!DOCTYPE svg PUBLIC "-//W3C//DTD SVG 1.1//EN" "http://www.w3.org/Graphics/SVG/1.1/DTD/svg11.dtd">
<svg version="1.1" id="레이어_1" xmlns:svg="http://www.w3.org/2000/svg"
	 xmlns="http://www.w3.org/2000/svg" xmlns:xlink="http://www.w3.org/1999/xlink" x="0px" y="0px" width="40px" height="40px"
	 viewBox="0 0 40 40" enable-background="new 0 0 40 40" xml:space="preserve">
<path fill="#555555" d="M30.786,13.544v18.581H14.567V13.544H30.786z M16.456,30.235h12.44V15.433h-12.44V30.235z"/>
<rect x="18.51" y="17.845" fill="#555555" width="8.333" height="1.89"/>
<rect x="18.51" y="21.89" fill="#555555" width="8.333" height="1.89"/>
<rect x="18.51" y="25.934" fill="#555555" width="8.333" height="1.89"/>
<polygon fill="#555555" points="13.853,7.875 13.853,7.125 20.791,7.125 20.791,7.875 25.432,7.875 25.432,11.969 23.542,11.969 
	23.542,9.765 20.791,9.765 20.791,11.188 13.853,11.188 13.853,9.765 11.102,9.765 11.102,24.567 12.912,24.567 12.912,26.456 
	9.213,26.456 9.213,7.875 "/>
</svg>
