<?xml version="1.0" encoding="utf-8"?>
<!-- Generator: Adobe Illustrator 17.0.0, SVG Export Plug-In . SVG Version: 6.00 Build 0)  -->
<!DOCTYPE svg PUBLIC "-//W3C//DTD SVG 1.1//EN" "http://www.w3.org/Graphics/SVG/1.1/DTD/svg11.dtd">
<svg version="1.1" id="레이어_1" xmlns:svg="http://www.w3.org/2000/svg"
	 xmlns="http://www.w3.org/2000/svg" xmlns:xlink="http://www.w3.org/1999/xlink" x="0px" y="0px" width="40px" height="40px"
	 viewBox="0 0 40 40" enable-background="new 0 0 40 40" xml:space="preserve">
<polygon fill="#555555" points="27.25,26.071 22.525,19.72 26.833,13.929 23.365,13.929 20.791,17.389 18.218,13.929 14.749,13.929 
	19.057,19.72 14.332,26.071 17.801,26.071 20.791,22.051 23.782,26.071 "/>
<polygon fill="#555555" points="10.541,9.75 10.541,14.071 11.859,15.387 11.859,11.067 29.724,11.067 29.724,28.933 11.859,28.933 
	11.859,24.553 10.541,25.863 10.541,30.25 31.041,30.25 31.041,9.75 "/>
<polygon fill="#555555" points="2.445,21.161 9.802,21.161 6.508,24.422 8.181,26.095 14.332,19.977 8.23,13.884 6.557,15.558 
	9.802,18.794 2.445,18.794 "/>
</svg>
