<?xml version="1.0" encoding="utf-8"?>
<!-- Generator: Adobe Illustrator 17.0.0, SVG Export Plug-In . SVG Version: 6.00 Build 0)  -->
<!DOCTYPE svg PUBLIC "-//W3C//DTD SVG 1.1//EN" "http://www.w3.org/Graphics/SVG/1.1/DTD/svg11.dtd">
<svg version="1.1" id="레이어_1" xmlns:svg="http://www.w3.org/2000/svg"
	 xmlns="http://www.w3.org/2000/svg" xmlns:xlink="http://www.w3.org/1999/xlink" x="0px" y="0px" width="40px" height="40px"
	 viewBox="0 0 40 40" enable-background="new 0 0 40 40" xml:space="preserve">
<polygon fill="#FFFFFF" points="12.835,21.567 11.024,21.567 11.024,9.765 23.464,9.765 23.464,14.75 25.354,14.75 25.354,7.875 
	9.135,7.875 9.135,23.456 12.835,23.456 "/>
<path fill="#FFFFFF" d="M14.646,16.544v15.581h16.219V16.544H14.646z M28.976,21.612H23.3l0-3.179h5.676
	C28.976,18.433,28.976,20.361,28.976,21.612z M23.3,22.702h5.676c0,1.498,0,1.743,0,3.244H23.3L23.3,22.702z M22.211,25.946h-5.675
	v-3.244h5.674L22.211,25.946z M22.21,18.433l0,3.179h-5.674v-3.179H22.21z M16.536,27.036h5.675l0,3.199h-5.675V27.036z
	 M23.301,30.235l0-3.199h5.676c0,1.264,0,3.199,0,3.199H23.301z"/>
</svg>
