<?xml version="1.0" encoding="utf-8"?>
<!-- Generator: Adobe Illustrator 17.0.0, SVG Export Plug-In . SVG Version: 6.00 Build 0)  -->
<!DOCTYPE svg PUBLIC "-//W3C//DTD SVG 1.1//EN" "http://www.w3.org/Graphics/SVG/1.1/DTD/svg11.dtd">
<svg version="1.1" id="레이어_1" xmlns:svg="http://www.w3.org/2000/svg"
	 xmlns="http://www.w3.org/2000/svg" xmlns:xlink="http://www.w3.org/1999/xlink" x="0px" y="0px" width="40px" height="40px"
	 viewBox="0 0 40 40" enable-background="new 0 0 40 40" xml:space="preserve">
<polygon fill="#555555" points="12.236,26.071 16.961,19.72 12.653,13.929 16.121,13.929 18.695,17.389 21.268,13.929 
	24.737,13.929 20.429,19.72 25.154,26.071 21.685,26.071 18.695,22.051 15.704,26.071 "/>
<polygon fill="#555555" points="28.945,9.75 28.945,14.071 27.627,15.387 27.627,11.067 9.762,11.067 9.762,28.933 27.627,28.933 
	27.627,24.553 28.945,25.863 28.945,30.25 8.445,30.25 8.445,9.75 "/>
<polygon fill="#555555" points="25.154,18.818 32.511,18.818 29.216,15.558 30.89,13.884 37.041,20.002 30.939,26.095 
	29.266,24.422 32.511,21.185 25.154,21.185 "/>
</svg>
