<?xml version="1.0" encoding="utf-8"?>
<!-- Generator: Adobe Illustrator 17.0.0, SVG Export Plug-In . SVG Version: 6.00 Build 0)  -->
<!DOCTYPE svg PUBLIC "-//W3C//DTD SVG 1.1//EN" "http://www.w3.org/Graphics/SVG/1.1/DTD/svg11.dtd">
<svg version="1.1" id="레이어_1" xmlns:svg="http://www.w3.org/2000/svg"
	 xmlns="http://www.w3.org/2000/svg" xmlns:xlink="http://www.w3.org/1999/xlink" x="0px" y="0px" width="40px" height="40px"
	 viewBox="0 0 40 40" enable-background="new 0 0 40 40" xml:space="preserve">
<polygon fill="#FFFFFF" points="13.688,18.836 15.688,16.937 19.223,20.721 24.259,15.258 26.293,17.496 19.253,24.403 "/>
<path fill="#FFFFFF" d="M20,7.1C13.438,7.1,8.1,12.438,8.1,19c0,3.547,1.564,6.87,4.297,9.143L10.691,31.4
	c-0.147,0.292-0.146,0.599,0.003,0.841c0.135,0.22,0.375,0.352,0.64,0.352c0.188,0,0.381-0.067,0.533-0.183l3.537-2.437
	C16.871,30.588,18.417,30.9,20,30.9c6.562,0,11.9-5.339,11.9-11.9C31.9,12.438,26.562,7.1,20,7.1z M20,29
	c-1.393,0-2.75-0.287-4.035-0.854l-0.444-0.197l-1.903,1.311l0.953-1.819l-0.74-0.582C11.396,24.944,10,22.08,10,19
	c0-5.514,4.486-10,10-10s10,4.486,10,10S25.514,29,20,29z"/>
</svg>
