<?xml version="1.0" encoding="utf-8"?>
<!-- Generator: Adobe Illustrator 17.0.0, SVG Export Plug-In . SVG Version: 6.00 Build 0)  -->
<!DOCTYPE svg PUBLIC "-//W3C//DTD SVG 1.1//EN" "http://www.w3.org/Graphics/SVG/1.1/DTD/svg11.dtd">
<svg version="1.1" id="레이어_3" xmlns="http://www.w3.org/2000/svg" xmlns:xlink="http://www.w3.org/1999/xlink" x="0px"
	 y="0px" width="40px" height="40px" viewBox="0 0 40 40" enable-background="new 0 0 40 40" xml:space="preserve">
<g>
	<path fill="#FFFFFF" d="M20.473,23.743l-3.202,3.202c-1.162,1.162-3.053,1.162-4.215,0s-1.162-3.053,0-4.215l3.202-3.202
		l-1.349-1.349l-3.202,3.202c-1.909,1.909-1.909,5.004,0,6.913s5.004,1.909,6.913,0l3.202-3.202L20.473,23.743z"/>
	<path fill="#FFFFFF" d="M28.294,11.706c-1.909-1.909-5.004-1.909-6.913,0l-3.202,3.202l1.349,1.349l3.202-3.202
		c1.162-1.162,3.053-1.162,4.215,0s1.162,3.053,0,4.215l-3.202,3.202l1.349,1.349l3.202-3.202
		C30.203,16.711,30.203,13.615,28.294,11.706z"/>
</g>
<rect x="12.25" y="19.188" transform="matrix(-0.7071 -0.7071 0.7071 -0.7071 19.9994 48.2841)" fill="#FFFFFF" width="15.5" height="1.625"/>
</svg>
