<?xml version="1.0" encoding="utf-8"?>
<!-- Generator: Adobe Illustrator 17.0.0, SVG Export Plug-In . SVG Version: 6.00 Build 0)  -->
<!DOCTYPE svg PUBLIC "-//W3C//DTD SVG 1.1//EN" "http://www.w3.org/Graphics/SVG/1.1/DTD/svg11.dtd">
<svg version="1.1" id="레이어_1" xmlns:svg="http://www.w3.org/2000/svg"
	 xmlns="http://www.w3.org/2000/svg" xmlns:xlink="http://www.w3.org/1999/xlink" x="0px" y="0px" width="40px" height="40px"
	 viewBox="0 0 40 40" enable-background="new 0 0 40 40" xml:space="preserve">
<path fill="#555555" d="M32.689,24.864c-0.168,0.104-0.648,0.168-0.952,0.168c-0.992,0-2.207-0.456-3.927-1.192
	c0.664-0.048,1.264-0.072,1.807-0.072c0.992,0,1.28,0,2.255,0.248C32.84,24.256,32.848,24.76,32.689,24.864z M15.486,25.016
	c0.384-0.672,0.776-1.384,1.176-2.143c0.976-1.847,1.6-3.303,2.055-4.495c0.92,1.671,2.063,3.087,3.399,4.223
	c0.168,0.144,0.344,0.28,0.536,0.424C19.924,23.569,17.565,24.224,15.486,25.016z M18.669,7.509c0.544,0,0.856,1.364,0.88,2.652
	c0.024,1.28-0.272,2.175-0.648,2.847c-0.312-0.992-0.456-2.543-0.456-3.559C18.445,9.45,18.421,7.509,18.669,7.509z M8,32.078
	c0.312-0.84,1.528-2.503,3.327-3.983c0.112-0.088,0.392-0.352,0.648-0.592C10.095,30.51,8.832,31.702,8,32.078z M33.208,23.097
	c-0.544-0.536-1.759-0.816-3.599-0.84c-1.248-0.016-2.743,0.096-4.327,0.312c-0.704-0.408-1.432-0.848-2.007-1.384
	c-1.536-1.44-2.815-3.431-3.615-5.622c0.048-0.208,0.096-0.384,0.136-0.568c0,0,0.864-4.919,0.632-6.582
	c-0.032-0.232-0.048-0.296-0.112-0.472l-0.072-0.2c-0.232-0.541-0.696-1.116-1.424-1.085l-0.424-0.014h-0.008
	c-0.808,0-1.472,0.413-1.64,1.027c-0.528,1.943,0.016,4.839,1,8.589l-0.256,0.616c-0.704,1.711-1.584,3.439-2.359,4.958l-0.104,0.2
	c-0.816,1.6-1.56,2.959-2.231,4.111l-0.696,0.368c-0.048,0.032-1.24,0.656-1.52,0.824c-2.367,1.416-3.941,3.023-4.202,4.303
	c-0.083,0.4-0.021,0.92,0.401,1.168l0.672,0.336c0.29,0.144,0.602,0.216,0.914,0.216c1.687,0,3.647-2.095,6.342-6.806
	c3.119-1.016,6.67-1.863,9.781-2.327c2.367,1.336,5.278,2.263,7.118,2.263c0.328,0,0.608-0.032,0.84-0.096
	c0.352-0.088,0.648-0.288,0.832-0.568c0.352-0.536,0.432-1.272,0.328-2.031C33.584,23.569,33.4,23.289,33.208,23.097z"/>
</svg>
