<?xml version="1.0" encoding="utf-8"?>
<!-- Generator: Adobe Illustrator 17.0.0, SVG Export Plug-In . SVG Version: 6.00 Build 0)  -->
<!DOCTYPE svg PUBLIC "-//W3C//DTD SVG 1.1//EN" "http://www.w3.org/Graphics/SVG/1.1/DTD/svg11.dtd">
<svg version="1.1" id="레이어_1" xmlns:svg="http://www.w3.org/2000/svg"
	 xmlns="http://www.w3.org/2000/svg" xmlns:xlink="http://www.w3.org/1999/xlink" x="0px" y="0px" width="40px" height="40px"
	 viewBox="0 0 40 40" enable-background="new 0 0 40 40" xml:space="preserve">
<path fill="#555555" d="M25.625,30.48c-0.291,0-0.566-0.114-0.773-0.321l-4.719-4.718c-0.426-0.426-0.426-1.12,0-1.547
	c0.207-0.206,0.481-0.32,0.773-0.32c0.293,0,0.567,0.114,0.772,0.32l2.853,2.853V10.613c0-0.603,0.491-1.094,1.094-1.094
	s1.094,0.491,1.094,1.094v16.134l2.852-2.853c0.206-0.206,0.48-0.32,0.773-0.32s0.567,0.114,0.772,0.32
	c0.207,0.207,0.321,0.481,0.321,0.773c0,0.293-0.114,0.567-0.32,0.774l-4.719,4.718C26.191,30.366,25.917,30.48,25.625,30.48z
	 M14.375,30.48c-0.603,0-1.094-0.491-1.094-1.094V13.253l-2.852,2.852c-0.207,0.207-0.481,0.32-0.773,0.32s-0.567-0.114-0.774-0.321
	c-0.206-0.206-0.32-0.48-0.32-0.773c0-0.292,0.114-0.567,0.32-0.774l4.719-4.718c0.207-0.206,0.482-0.32,0.774-0.32
	s0.566,0.114,0.773,0.32l4.719,4.719c0.426,0.426,0.426,1.121,0,1.547c-0.207,0.206-0.481,0.32-0.773,0.32
	c-0.292,0-0.567-0.114-0.774-0.321l-2.851-2.851v16.133C15.469,29.989,14.978,30.48,14.375,30.48z"/>
</svg>
