<?xml version="1.0" encoding="utf-8"?>
<!-- Generator: Adobe Illustrator 17.0.0, SVG Export Plug-In . SVG Version: 6.00 Build 0)  -->
<!DOCTYPE svg PUBLIC "-//W3C//DTD SVG 1.1//EN" "http://www.w3.org/Graphics/SVG/1.1/DTD/svg11.dtd">
<svg version="1.1" id="레이어_1" xmlns:svg="http://www.w3.org/2000/svg"
	 xmlns="http://www.w3.org/2000/svg" xmlns:xlink="http://www.w3.org/1999/xlink" x="0px" y="0px" width="40px" height="40px"
	 viewBox="0 0 40 40" enable-background="new 0 0 40 40" xml:space="preserve">
<g>
	<path fill="#555555" d="M20.993,14.079c-1.755,0-3.178-0.744-3.178-1.663c0-0.919,1.423-1.663,3.178-1.663s3.178,0.744,3.178,1.663
		C24.171,13.335,22.748,14.079,20.993,14.079z M29.798,22.814l-8.126,4.381v-8.791l8.131-4.35L29.798,22.814z M31.182,12.506
		c-0.001-0.002-0.003-0.002-0.002-0.003l0,0c-0.003-0.005-0.006-0.01-0.009-0.016c-0.073-0.132-0.18-0.233-0.305-0.299L21.27,7.053
		c-0.218-0.116-0.478-0.114-0.694,0.003l-9.573,5.229c-0.234,0.128-0.38,0.373-0.38,0.64v7.945c0,0.403,0.327,0.729,0.729,0.729
		c0.402,0,0.729-0.326,0.729-0.729v-6.673l8.131,4.302v4.381c-0.524-0.355-1.095-0.65-1.724-0.844
		c-4.025-1.24-8.487-0.126-9.971,4.66l-1.101-0.34c-0.468-0.144-0.759,0.184-0.656,0.729l1.299,6.689
		c0.11,0.547,0.516,0.672,0.908,0.28l4.837-4.799c0.392-0.392,0.336-0.827-0.132-0.971l-1.1-0.339
		c1.206-3.862,4.353-4.799,7.64-4.932v4.239l-3.795-1.902c-0.359-0.181-0.799-0.036-0.979,0.325c-0.18,0.36-0.035,0.799,0.325,0.979
		l4.835,2.424c0.103,0.052,0.215,0.077,0.327,0.077c0.119,0,0.238-0.028,0.346-0.088l9.601-5.175
		c0.236-0.127,0.383-0.374,0.383-0.642l0.005-10.4C31.263,12.735,31.238,12.617,31.182,12.506z"/>
</g>
</svg>
