<?xml version="1.0" encoding="utf-8"?>
<!-- Generator: Adobe Illustrator 17.0.0, SVG Export Plug-In . SVG Version: 6.00 Build 0)  -->
<!DOCTYPE svg PUBLIC "-//W3C//DTD SVG 1.1//EN" "http://www.w3.org/Graphics/SVG/1.1/DTD/svg11.dtd">
<svg version="1.1" id="레이어_1" xmlns:svg="http://www.w3.org/2000/svg"
	 xmlns="http://www.w3.org/2000/svg" xmlns:xlink="http://www.w3.org/1999/xlink" x="0px" y="0px" width="40px" height="40px"
	 viewBox="0 0 40 40" enable-background="new 0 0 40 40" xml:space="preserve">
<polygon fill="#FFFFFF" points="12.56,12.337 12.56,10.331 27.44,10.331 27.44,12.337 28.777,12.337 28.777,8.993 11.223,8.993 
	11.223,12.337 "/>
<path fill="#FFFFFF" d="M29.243,13.503H10.757c-1.73,0-3.132,1.402-3.132,3.132v6.731c0,1.73,1.402,3.132,3.132,3.132h0.466v4.509
	h17.555v-4.509h0.466c1.73,0,3.132-1.402,3.132-3.132v-6.731C32.375,14.905,30.973,13.503,29.243,13.503z M27.44,29.67H12.56v-9.357
	h14.88V29.67z M29.126,18.773c-0.707,0-1.281-0.573-1.281-1.281c0-0.707,0.573-1.281,1.281-1.281c0.707,0,1.281,0.573,1.281,1.281
	C30.406,18.199,29.833,18.773,29.126,18.773z"/>
<rect x="14.218" y="22.338" fill="#FFFFFF" width="11.285" height="1.709"/>
<rect x="14.218" y="26.024" fill="#FFFFFF" width="6.548" height="1.709"/>
</svg>
