<?xml version="1.0" encoding="utf-8"?>
<!-- Generator: Adobe Illustrator 17.0.0, SVG Export Plug-In . SVG Version: 6.00 Build 0)  -->
<!DOCTYPE svg PUBLIC "-//W3C//DTD SVG 1.1//EN" "http://www.w3.org/Graphics/SVG/1.1/DTD/svg11.dtd">
<svg version="1.1" id="레이어_1" xmlns="http://www.w3.org/2000/svg" xmlns:xlink="http://www.w3.org/1999/xlink" x="0px"
	 y="0px" width="40px" height="40px" viewBox="0 0 40 40" enable-background="new 0 0 40 40" xml:space="preserve">
<g id="레이어_2" display="none">
	
		<image display="inline" overflow="visible" enable-background="new    " width="47" height="43" xlink:href="4AB03673.jpg"  transform="matrix(0.6729 0.6729 -0.6729 0.6729 18.9043 -10.2793)">
	</image>
</g>
<path fill="#FFFFFF" d="M20.445,23.73c-0.032,0.035-0.055,0.075-0.089,0.109l-3.119,3.119c-1.157,1.157-3.039,1.157-4.196,0
	s-1.157-3.039,0-4.196l3.119-3.119c1.157-1.157,3.039-1.157,4.196,0c0.123,0.123,0.226,0.258,0.323,0.395
	c0.657,0.399,1.478,0.409,2.147,0.038c-0.235-0.648-0.608-1.256-1.127-1.776c-1.9-1.9-4.981-1.9-6.881,0L11.7,21.42
	c-1.9,1.9-1.9,4.981,0,6.881s4.981,1.9,6.881,0l3.119-3.119c0.405-0.405,0.719-0.866,0.951-1.356
	C21.917,23.937,21.168,23.905,20.445,23.73z"/>
<path fill="#FFFFFF" d="M19.555,16.27c0.032-0.035,0.055-0.075,0.089-0.109l3.119-3.119c1.157-1.157,3.039-1.157,4.196,0
	s1.157,3.039,0,4.196l-3.119,3.119c-1.157,1.157-3.039,1.157-4.196,0c-0.123-0.123-0.226-0.258-0.323-0.395
	c-0.657-0.399-1.478-0.409-2.147-0.038c0.235,0.648,0.608,1.256,1.127,1.776c1.9,1.9,4.981,1.9,6.881,0l3.118-3.12
	c1.9-1.9,1.9-4.981,0-6.881s-4.981-1.9-6.881,0L18.3,14.818c-0.405,0.405-0.719,0.866-0.951,1.356
	C18.083,16.063,18.832,16.095,19.555,16.27z"/>
</svg>
