<?xml version="1.0" encoding="utf-8"?>
<!-- Generator: Adobe Illustrator 17.0.0, SVG Export Plug-In . SVG Version: 6.00 Build 0)  -->
<!DOCTYPE svg PUBLIC "-//W3C//DTD SVG 1.1//EN" "http://www.w3.org/Graphics/SVG/1.1/DTD/svg11.dtd">
<svg version="1.1" id="Layer_1" xmlns="http://www.w3.org/2000/svg" xmlns:xlink="http://www.w3.org/1999/xlink" x="0px" y="0px"
	 width="25px" height="25px" viewBox="0 0 25 25" enable-background="new 0 0 25 25" xml:space="preserve">
<path d="M14.716,6.761c-3.008-0.707-6.018,0.855-7.237,3.573C6.515,9.526,6.203,8.755,6.203,8.755s-0.565,4.964,1.845,8.213
	c0.509-3.769,2.936-5.318,2.936-5.318s-0.888-0.003-1.889-0.367c0.809-2.042,2.998-3.246,5.2-2.728
	c2.421,0.569,3.922,2.994,3.352,5.415s-2.994,3.922-5.415,3.352l-0.421,1.793c3.412,0.803,6.827-1.313,7.63-4.724
	S18.128,7.563,14.716,6.761z"/>
</svg>
