<?xml version="1.0" encoding="utf-8"?>
<!-- Generator: Adobe Illustrator 17.0.0, SVG Export Plug-In . SVG Version: 6.00 Build 0)  -->
<!DOCTYPE svg PUBLIC "-//W3C//DTD SVG 1.1//EN" "http://www.w3.org/Graphics/SVG/1.1/DTD/svg11.dtd">
<svg version="1.1" id="레이어_1" xmlns:svg="http://www.w3.org/2000/svg"
	 xmlns="http://www.w3.org/2000/svg" xmlns:xlink="http://www.w3.org/1999/xlink" x="0px" y="0px" width="100px" height="100px"
	 viewBox="0.417 0.417 100 100" enable-background="new 0.417 0.417 100 100" xml:space="preserve">
<path opacity="0.2" enable-background="new    " d="M38.532,24.687h24.722c0.811,0,1.467-0.656,1.467-1.467v-4.636h-6.495v-3.762
	c0-1.619-1.314-2.933-2.933-2.933h-8.8c-1.619,0-2.933,1.314-2.933,2.933v3.762h-6.494v4.636
	C37.065,24.031,37.721,24.687,38.532,24.687z M21.561,39.299V18.584h12.572v4.636c0,2.426,1.974,4.4,4.4,4.4h24.722
	c2.426,0,4.4-1.974,4.4-4.4v-4.636h12.57v20.714h-7.333V34.18H28.893v5.119H21.561z M80.224,62.483v20.594
	c0,3.24-2.627,5.866-5.866,5.866H27.427c-3.24,0-5.866-2.627-5.866-5.866V62.483h7.333v19.128h43.998V62.483H80.224z"/>
<path d="M38.97,75.471c-0.487,0.243-1.459,0.487-2.704,0.487c-2.888,0-5.06-1.823-5.06-5.183c0-3.206,2.173-5.379,5.349-5.379
	c1.276,0,2.081,0.273,2.432,0.456l-0.32,1.079c-0.502-0.243-1.216-0.425-2.066-0.425c-2.401,0-3.998,1.534-3.998,4.225
	c0,2.508,1.445,4.118,3.936,4.118c0.805,0,1.626-0.167,2.159-0.425L38.97,75.471z M42.19,66.337v2.112h1.915v1.018H42.19v3.966
	c0,0.912,0.258,1.428,1.003,1.428c0.351,0,0.607-0.045,0.776-0.091l0.062,1.003c-0.258,0.107-0.669,0.183-1.185,0.183
	c-0.623,0-1.125-0.198-1.443-0.563c-0.38-0.395-0.518-1.049-0.518-1.914v-4.013h-1.14v-1.018h1.14v-1.763L42.19,66.337z
	 M45.607,70.744c0-0.867-0.016-1.612-0.062-2.295h1.17l0.045,1.443h0.062c0.334-0.987,1.14-1.612,2.037-1.612
	c0.151,0,0.258,0.016,0.38,0.045v1.261c-0.136-0.031-0.273-0.045-0.455-0.045c-0.943,0-1.612,0.714-1.794,1.717
	c-0.031,0.182-0.062,0.396-0.062,0.623v3.922h-1.321v-5.06H45.607z M50.636,65.015h1.338v10.79h-1.338V65.015z M58.127,67.72v3.571
	h3.435v0.912h-3.435v3.602h-0.972v-3.602H53.72v-0.912h3.435V67.72H58.127z M65.57,75.805l-3.344-10.243h1.428l1.596,5.045
	c0.44,1.383,0.82,2.63,1.094,3.829h0.031c0.289-1.185,0.714-2.477,1.17-3.815l1.732-5.061h1.414l-3.662,10.243H65.57V75.805z"/>
<path d="M29.583,52.781h2.795c0.26,0,0.515-0.003,0.764-0.008c0.249-0.005,0.509-0.024,0.78-0.057v1.17
	c-0.141-0.011-0.274-0.019-0.398-0.024c-0.125-0.005-0.252-0.014-0.382-0.024c-0.13,0-0.258,0-0.382,0c-0.125,0-0.252,0-0.382,0
	h-7.021v1.283h8.516v1.008h-8.516v1.251h7.313c0.26,0,0.515-0.002,0.764-0.008c0.249-0.006,0.509-0.025,0.78-0.057v1.171
	c-0.141-0.011-0.274-0.019-0.398-0.024c-0.125-0.006-0.252-0.014-0.382-0.025c-0.13,0-0.258,0-0.382,0c-0.125,0-0.252,0-0.382,0
	h-8.744v-3.982c0-0.271-0.006-0.547-0.016-0.829c-0.011-0.282-0.032-0.563-0.065-0.845h4.339v-1.382H24.61
	c-0.422,0-0.837,0.003-1.243,0.008c-0.406,0.005-0.821,0.024-1.243,0.057v-1.235c0.422,0.033,0.837,0.051,1.243,0.057
	c0.407,0.005,0.821,0.008,1.243,0.008h8.565c0.422,0,0.837-0.003,1.243-0.008s0.821-0.024,1.243-0.057v1.235
	c-0.422-0.032-0.837-0.051-1.243-0.057c-0.407-0.005-0.821-0.008-1.243-0.008h-3.592V52.781z M32.541,45.484
	c0-0.249-0.005-0.466-0.016-0.651c-0.011-0.184-0.032-0.39-0.065-0.617h1.512c-0.032,0.227-0.054,0.442-0.065,0.642
	c-0.011,0.2-0.016,0.404-0.016,0.609v3.576h-9.995v-3.576c0-0.206-0.006-0.409-0.016-0.609c-0.011-0.2-0.032-0.415-0.065-0.642
	h1.479c-0.032,0.227-0.054,0.434-0.065,0.617c-0.011,0.184-0.016,0.401-0.016,0.651v0.113h7.33V45.484z M32.541,47.986v-1.382h-7.33
	v1.382H32.541z M47.688,53.008h-3.413c-0.162,0.422-0.357,0.794-0.585,1.113c-0.227,0.32-0.471,0.577-0.731,0.772
	c-0.271,0.217-0.559,0.377-0.862,0.48c-0.304,0.103-0.612,0.154-0.927,0.154c-0.466,0-0.918-0.111-1.357-0.333
	c-0.439-0.221-0.821-0.561-1.146-1.016c-0.347-0.444-0.621-1.013-0.821-1.707c-0.201-0.693-0.301-1.512-0.301-2.454
	c0-0.953,0.103-1.777,0.308-2.47c0.206-0.694,0.482-1.268,0.829-1.723c0.336-0.444,0.72-0.772,1.154-0.983
	c0.433-0.211,0.877-0.317,1.332-0.317c0.292,0,0.588,0.046,0.886,0.138c0.298,0.092,0.583,0.235,0.853,0.43
	c0.26,0.206,0.506,0.461,0.74,0.764c0.233,0.304,0.43,0.667,0.593,1.089h3.446V46.28c0-0.357-0.005-0.717-0.016-1.081
	c-0.011-0.363-0.032-0.729-0.065-1.097h1.512c-0.032,0.368-0.052,0.734-0.057,1.097c-0.005,0.364-0.008,0.723-0.008,1.081v10.125
	c0,0.368,0.002,0.734,0.008,1.097c0.005,0.363,0.025,0.723,0.057,1.081h-1.512c0.033-0.357,0.054-0.718,0.065-1.081
	c0.011-0.364,0.016-0.729,0.016-1.097V53.008z M38.879,50.002c0,0.574,0.049,1.121,0.147,1.642c0.097,0.52,0.243,0.98,0.438,1.381
	c0.195,0.401,0.436,0.718,0.723,0.951c0.287,0.234,0.621,0.35,1,0.35c0.368,0,0.691-0.116,0.967-0.35
	c0.277-0.233,0.512-0.549,0.707-0.951c0.184-0.401,0.325-0.861,0.422-1.381c0.097-0.521,0.146-1.067,0.146-1.642
	c0-0.552-0.048-1.084-0.146-1.593c-0.097-0.509-0.239-0.964-0.422-1.365c-0.195-0.401-0.431-0.72-0.707-0.959
	c-0.276-0.238-0.599-0.357-0.967-0.357c-0.379,0-0.713,0.122-1,0.366s-0.528,0.561-0.723,0.951
	c-0.195,0.401-0.341,0.859-0.438,1.373C38.928,48.932,38.879,49.46,38.879,50.002z M47.688,48.116h-3.104
	c0.065,0.271,0.114,0.566,0.147,0.886c0.032,0.32,0.048,0.658,0.048,1.016c0,0.347-0.014,0.672-0.041,0.975
	c-0.027,0.304-0.073,0.586-0.138,0.846h3.087V48.116z M52.45,46.036c0-0.282-0.002-0.539-0.008-0.772
	c-0.006-0.233-0.025-0.496-0.057-0.788h1.479c-0.033,0.292-0.051,0.556-0.057,0.788c-0.005,0.234-0.008,0.491-0.008,0.772v3.185
	l2.113-0.032c0.379,0,0.807-0.016,1.284-0.048c0.476-0.033,0.953-0.076,1.43-0.13c0.466-0.054,0.902-0.111,1.308-0.171
	c0.407-0.059,0.734-0.122,0.983-0.187v1.17c-0.249,0.065-0.561,0.128-0.935,0.187c-0.373,0.06-0.777,0.112-1.211,0.155
	c-0.444,0.054-0.905,0.097-1.381,0.13c-0.477,0.032-0.938,0.054-1.382,0.065c-0.282,0.011-0.621,0.019-1.016,0.024
	c-0.396,0.005-0.778,0.014-1.146,0.024c-0.379,0-0.704,0-0.976,0c-0.271,0-0.411,0-0.422,0V46.036z M62.494,54.178h-7.671
	c-0.271,0-0.518,0.003-0.739,0.008c-0.222,0.005-0.463,0.024-0.723,0.057v-1.202c0.26,0.032,0.501,0.051,0.723,0.057
	c0.221,0.006,0.468,0.008,0.739,0.008h3.169v-0.894c0-0.086,0-0.173,0-0.26c0-0.086,0-0.178,0-0.276
	c0-0.087-0.002-0.176-0.008-0.268c-0.006-0.092-0.014-0.187-0.025-0.285h1.463c-0.022,0.195-0.032,0.379-0.032,0.553
	c0,0.173,0,0.352,0,0.536v0.894h3.104c0.26,0,0.501-0.002,0.723-0.008c0.221-0.005,0.469-0.024,0.739-0.057v1.202
	c-0.271-0.032-0.518-0.051-0.739-0.057C62.996,54.181,62.754,54.178,62.494,54.178z M54.076,56.877c0-0.304,0.113-0.577,0.341-0.821
	c0.227-0.244,0.547-0.453,0.959-0.626c0.401-0.162,0.886-0.292,1.455-0.39c0.568-0.097,1.189-0.147,1.861-0.147
	c1.397,0,2.514,0.184,3.348,0.553c0.834,0.368,1.252,0.845,1.252,1.43c0,0.325-0.119,0.609-0.358,0.853
	c-0.238,0.243-0.563,0.447-0.975,0.609c-0.412,0.162-0.896,0.285-1.454,0.366c-0.559,0.082-1.162,0.122-1.812,0.122
	c-0.682,0-1.308-0.043-1.877-0.13c-0.568-0.087-1.054-0.211-1.454-0.373c-0.412-0.162-0.729-0.366-0.951-0.61
	C54.187,57.47,54.076,57.19,54.076,56.877z M55.668,56.877c0,0.357,0.292,0.609,0.877,0.756c0.586,0.146,1.301,0.219,2.146,0.219
	c0.834,0,1.546-0.073,2.137-0.219c0.59-0.147,0.886-0.398,0.886-0.756c0-0.174-0.082-0.323-0.244-0.447
	c-0.162-0.125-0.385-0.225-0.667-0.301c-0.271-0.087-0.59-0.149-0.958-0.187c-0.369-0.038-0.754-0.057-1.154-0.057
	c-0.422,0-0.815,0.019-1.178,0.057c-0.364,0.039-0.686,0.101-0.967,0.187c-0.271,0.076-0.484,0.176-0.642,0.301
	C55.747,56.554,55.668,56.703,55.668,56.877z M62.218,47.353h-2.925c-0.195,0-0.398,0.002-0.61,0.008
	c-0.211,0.006-0.409,0.025-0.593,0.057V46.15c0.195,0.033,0.401,0.051,0.617,0.057c0.217,0.006,0.423,0.008,0.618,0.008h2.892
	v-0.471c0-0.271-0.005-0.542-0.016-0.813c-0.011-0.271-0.032-0.546-0.065-0.828h1.479c-0.033,0.282-0.052,0.558-0.057,0.828
	c-0.005,0.271-0.008,0.542-0.008,0.813v6.062h-1.333V47.353z M68.833,45.012h5.168c-0.054,1.072-0.214,2.097-0.479,3.072
	c-0.266,0.975-0.642,1.896-1.13,2.763c-0.52,0.954-1.173,1.837-1.958,2.649c-0.786,0.812-1.693,1.534-2.722,2.162
	c-0.13-0.119-0.328-0.277-0.593-0.472c-0.265-0.195-0.479-0.346-0.642-0.455c0.964-0.498,1.817-1.075,2.56-1.731
	c0.741-0.655,1.373-1.384,1.893-2.186c0.433-0.682,0.78-1.411,1.04-2.186c0.26-0.775,0.428-1.59,0.504-2.446h-3.641
	c-0.271,0-0.518,0.003-0.74,0.008c-0.222,0.005-0.463,0.024-0.723,0.057v-1.3c0.261,0.033,0.501,0.051,0.723,0.057
	C68.315,45.01,68.561,45.012,68.833,45.012z M78.373,56.389c0,0.368,0.002,0.734,0.008,1.097c0.005,0.363,0.025,0.723,0.057,1.081
	H76.91c0.033-0.357,0.054-0.718,0.065-1.081c0.011-0.363,0.017-0.729,0.017-1.097V46.28c0-0.357-0.006-0.717-0.017-1.081
	c-0.011-0.363-0.032-0.729-0.065-1.097h1.528c-0.033,0.368-0.052,0.734-0.057,1.097c-0.005,0.364-0.008,0.723-0.008,1.081V56.389z
	 M83.411,57.137c0,0.303-0.097,0.555-0.292,0.756c-0.195,0.2-0.422,0.301-0.682,0.301c-0.26,0-0.482-0.097-0.667-0.292
	c-0.184-0.195-0.276-0.45-0.276-0.764c0-0.292,0.094-0.537,0.284-0.732c0.19-0.195,0.415-0.292,0.675-0.292
	c0.26,0,0.484,0.097,0.674,0.292C83.317,56.6,83.411,56.844,83.411,57.137z M82.908,54.081h-0.959l-0.244-7.85
	c-0.011-0.249-0.027-0.525-0.048-0.829c-0.022-0.303-0.06-0.617-0.114-0.942h1.788c-0.065,0.292-0.111,0.601-0.138,0.927
	c-0.027,0.325-0.041,0.607-0.041,0.845L82.908,54.081z"/>
</svg>
