<?xml version="1.0" encoding="utf-8"?>
<!-- Generator: Adobe Illustrator 17.0.0, SVG Export Plug-In . SVG Version: 6.00 Build 0)  -->
<!DOCTYPE svg PUBLIC "-//W3C//DTD SVG 1.1//EN" "http://www.w3.org/Graphics/SVG/1.1/DTD/svg11.dtd">
<svg version="1.1" id="레이어_1" xmlns:svg="http://www.w3.org/2000/svg"
	 xmlns="http://www.w3.org/2000/svg" xmlns:xlink="http://www.w3.org/1999/xlink" x="0px" y="0px" width="30px" height="30px"
	 viewBox="0 0 30 30" enable-background="new 0 0 30 30" xml:space="preserve">
<path fill="#FFFFFF" d="M22.85,10.004l-1.528,1.528c-0.779,0.779-2.046,0.779-2.826,0c-0.78-0.779-0.779-2.046,0-2.826l1.528-1.528
	l-0.262-1.424c-1.317-0.072-2.655,0.375-3.661,1.382c-1.331,1.331-1.698,3.244-1.141,4.915L6.98,20.029
	c-0.834,0.834-0.834,2.185,0,3.019c0.834,0.834,2.185,0.834,3.019,0l7.978-7.978c1.672,0.558,3.585,0.19,4.915-1.141
	c1.006-1.006,1.454-2.345,1.382-3.661L22.85,10.004z M9.186,22.085c-0.344,0.344-0.902,0.344-1.247,0
	c-0.345-0.344-0.344-0.902,0-1.247c0.344-0.345,0.902-0.344,1.247,0C9.53,21.185,9.53,21.742,9.186,22.085z"/>
</svg>
