<?xml version="1.0" encoding="utf-8"?>
<!-- Generator: Adobe Illustrator 17.0.0, SVG Export Plug-In . SVG Version: 6.00 Build 0)  -->
<!DOCTYPE svg PUBLIC "-//W3C//DTD SVG 1.1//EN" "http://www.w3.org/Graphics/SVG/1.1/DTD/svg11.dtd">
<svg version="1.1" id="레이어_1" xmlns:svg="http://www.w3.org/2000/svg"
	 xmlns="http://www.w3.org/2000/svg" xmlns:xlink="http://www.w3.org/1999/xlink" x="0px" y="0px" width="30px" height="30px"
	 viewBox="0 0 30 30" enable-background="new 0 0 30 30" xml:space="preserve">
<g>
	<path fill="#FFFFFF" d="M9.709,7.334l0.014,0.479l5.883,7.333l-5.947,7.076l-0.017,0.445l11.533-0.06
		c0.114-1.427,0.422-2.903,0.687-4.31l-0.375-0.093c-0.349,0.789-0.597,1.631-1.343,2.153c-0.817,0.574-1.896,0.501-2.842,0.501
		h-5.31l5.412-6.539L12.523,8.22l2.842-0.011c1.82,0,4.412-0.44,5.132,1.748c0.124,0.373,0.209,0.763,0.24,1.155h0.407l-0.313-3.78
		H9.709V7.334L9.709,7.334L9.709,7.334L9.709,7.334z"/>
</g>
</svg>
