<?xml version="1.0" encoding="utf-8"?>
<!-- Generator: Adobe Illustrator 17.0.0, SVG Export Plug-In . SVG Version: 6.00 Build 0)  -->
<!DOCTYPE svg PUBLIC "-//W3C//DTD SVG 1.1//EN" "http://www.w3.org/Graphics/SVG/1.1/DTD/svg11.dtd">
<svg version="1.1" id="레이어_1" xmlns="http://www.w3.org/2000/svg" xmlns:xlink="http://www.w3.org/1999/xlink" x="0px"
	 y="0px" width="30px" height="30px" viewBox="0 0 30 30" enable-background="new 0 0 30 30" xml:space="preserve">
<path fill="#FFFFFF" d="M9.776,22.414H7.137V8.545h2.639V22.414z M22.004,16.028c-3.589,2.749-5.702,1.463-7.133,2.248
	c-0.548,0.301-1.077,0.665-1.558,1.028c0.341-1.302,1.011-3.012,2.337-4.694c2.728-3.459,5.961-4.105,5.961-4.105
	s-3.941,0.648-6.896,4.105c-2.235,2.614-2.905,4.963-3.106,6.139c-0.2,0.192-0.317,0.31-0.317,0.31s-0.892-4.938,2.294-8.843
	c4.853-5.947,11.648-2.886,11.648-2.886S24.887,13.819,22.004,16.028z"/>
</svg>
