<?xml version="1.0" encoding="utf-8"?>
<!-- Generator: Adobe Illustrator 17.0.0, SVG Export Plug-In . SVG Version: 6.00 Build 0)  -->
<!DOCTYPE svg PUBLIC "-//W3C//DTD SVG 1.1//EN" "http://www.w3.org/Graphics/SVG/1.1/DTD/svg11.dtd">
<svg version="1.1" id="레이어_1" xmlns="http://www.w3.org/2000/svg" xmlns:xlink="http://www.w3.org/1999/xlink" x="0px"
	 y="0px" width="30px" height="30px" viewBox="0 0 30 30" enable-background="new 0 0 30 30" xml:space="preserve">
<path fill="#777777" d="M10.805,21.604H7.99v-8.447c0.488,0.263,1.037,0.427,1.629,0.427c0.35,0,0.698-0.055,1.032-0.162
	l0.155,0.133C10.805,13.553,10.805,21.604,10.805,21.604z"/>
<path fill="#777777" d="M15.083,21.603h-2.88v-4.937c0.558,1.048,1.628,1.776,2.88,1.836V21.603z"/>
<path fill="#777777" d="M19.347,21.603H16.48v-3.319c1.167-0.448,2.034-1.51,2.198-2.788l0.668-0.28l0,0h0.001h-0.001L19.347,21.603
	L19.347,21.603z"/>
<path fill="#777777" d="M23.575,21.604h-2.83v-6.217c0.38,0.142,0.781,0.225,1.194,0.225c0.594,0,1.146-0.166,1.635-0.429V21.604z"
	/>
<path fill="#777777" d="M21.94,9.802c-1.297,0-2.348,1.051-2.348,2.348c0,0.09,0.016,0.175,0.027,0.262l-2.615,1.096
	c-0.43-0.489-1.054-0.805-1.756-0.805c-0.451,0-0.867,0.133-1.224,0.354l-2.271-1.967c0.135-0.297,0.215-0.624,0.215-0.971
	c0-1.297-1.05-2.348-2.348-2.348s-2.348,1.05-2.348,2.349s1.051,2.348,2.348,2.348c0.451,0,0.868-0.133,1.225-0.354l2.27,1.966
	c-0.136,0.297-0.216,0.624-0.216,0.971c0,1.297,1.05,2.348,2.348,2.348s2.348-1.051,2.348-2.348c0-0.101-0.016-0.198-0.03-0.296
	l2.597-1.089c0.429,0.503,1.063,0.83,1.778,0.83c1.297,0,2.348-1.05,2.348-2.349C24.287,10.851,23.236,9.802,21.94,9.802z
	 M9.619,11.128c-0.557,0-1.008-0.452-1.008-1.008s0.452-1.008,1.008-1.008s1.008,0.452,1.008,1.008S10.176,11.128,9.619,11.128z
	 M15.246,16.06c-0.557,0-1.008-0.452-1.008-1.008c0-0.557,0.452-1.008,1.008-1.008s1.008,0.452,1.008,1.008
	C16.254,15.61,15.803,16.06,15.246,16.06z M21.94,13.158c-0.557,0-1.008-0.452-1.008-1.008c0-0.557,0.452-1.008,1.008-1.008
	c0.557,0,1.008,0.452,1.008,1.008S22.496,13.158,21.94,13.158z"/>
</svg>
