<?xml version="1.0" encoding="utf-8"?>
<!-- Generator: Adobe Illustrator 17.0.0, SVG Export Plug-In . SVG Version: 6.00 Build 0)  -->
<!DOCTYPE svg PUBLIC "-//W3C//DTD SVG 1.1//EN" "http://www.w3.org/Graphics/SVG/1.1/DTD/svg11.dtd">
<svg version="1.1" id="Layer_1" xmlns="http://www.w3.org/2000/svg" xmlns:xlink="http://www.w3.org/1999/xlink" x="0px" y="0px"
	 width="91px" height="40px" viewBox="0 0 91 40" enable-background="new 0 0 91 40" xml:space="preserve">
<path fill="#555555" d="M11.548,31.208c-1.898,0-3.368-0.28-4.367-0.835c-1.012-0.56-1.525-1.279-1.525-2.14
	c0-0.849,0.513-1.56,1.525-2.114c1.001-0.549,2.464-0.826,4.349-0.826c1.909,0,3.381,0.28,4.376,0.835
	c1.006,0.562,1.516,1.276,1.516,2.123c0,0.859-0.51,1.576-1.516,2.132C14.913,30.931,13.446,31.208,11.548,31.208z M11.548,26.602
	c-1.247,0-2.257,0.147-3.002,0.437c-0.737,0.288-1.095,0.679-1.095,1.195c0,0.523,0.366,0.935,1.087,1.222
	c0.745,0.297,1.757,0.447,3.011,0.447c1.21,0,2.211-0.15,2.976-0.446c0.745-0.289,1.123-0.694,1.123-1.204
	c0-0.521-0.377-0.93-1.123-1.214C13.761,26.749,12.76,26.602,11.548,26.602z M66.125,30.921c-0.024-0.46,0-0.857,0.012-1.258
	c0.013-0.401,0.019-0.807,0.019-1.213v-6.48l-1.902,0.06l0.06,5.646v1.215c0,0.4,0.018,0.798,0.054,1.191l-1.662,0.065
	c-0.035-0.458-0.018-0.857-0.005-1.259c0.012-0.4,0.018-0.806,0.018-1.213v-10.17c0-0.396-0.006-0.794-0.018-1.195
	c-0.013-0.401-0.03-0.806-0.055-1.213l1.662-0.063c0.023,0.471,0.006,0.875,0.006,1.275v4.221l1.902-0.06l-0.06-3.234
	c0-0.396-0.006-0.793-0.019-1.195c-0.012-0.401-0.036-0.805-0.071-1.211l1.697-0.065c0.023,0.472,0.002,0.875-0.004,1.276
	c-0.006,0.401-0.009,0.8-0.009,1.196V28.45c0,0.407,0.003,0.812,0.009,1.214c0.006,0.4,0.027,0.798,0.063,1.191l0.006,0.065
	L66.125,30.921L66.125,30.921z M31.636,30.921c-0.024-0.46,0-0.857,0.012-1.258s0.018-0.807,0.018-1.213V17.236
	c0-0.396-0.006-0.794-0.018-1.195c-0.012-0.401-0.036-0.805-0.071-1.211l1.715-0.065c0.024,0.472,0.003,0.875-0.003,1.276
	c-0.006,0.401-0.009,0.8-0.009,1.196V28.45c0,0.407,0.003,0.812,0.009,1.214c0.006,0.4,0.027,0.798,0.063,1.191l0.006,0.065
	L31.636,30.921L31.636,30.921z M28.648,30.165c-0.036-0.459-0.018-0.857-0.006-1.258s0.018-0.808,0.018-1.214v-3.778l-1.488,0.06
	c-0.204,0-0.416,0.003-0.637,0.009c-0.219,0.006-0.422,0.027-0.612,0.062l-0.071-1.536c0.094-0.008,0.18-0.011,0.262-0.011
	c0.156,0,0.295,0.01,0.439,0.014c0.221,0.006,0.439,0.009,0.655,0.009h1.512l-0.06-2.838l-1.11,0.06
	c-0.204,0-0.416,0.003-0.638,0.009c-0.219,0.006-0.422,0.027-0.612,0.062l-0.071-1.517c0.094-0.008,0.181-0.011,0.263-0.011
	c0.155,0,0.295,0.01,0.438,0.014c0.221,0.006,0.44,0.009,0.655,0.009h1.134l-0.06-0.804c0-0.396-0.006-0.794-0.018-1.195
	c-0.012-0.401-0.03-0.806-0.054-1.213l1.644-0.063c0.024,0.471,0.006,0.875,0.006,1.275v12.6c0,0.398,0.018,0.797,0.053,1.19
	l0.006,0.065C30.296,30.165,28.648,30.165,28.648,30.165z M84.137,28.779c-0.466-0.036-0.924-0.057-1.373-0.063
	c-0.45-0.007-0.909-0.01-1.376-0.01h-9.522c-0.468,0-0.926,0.003-1.376,0.01c-0.449,0.006-0.907,0.025-1.373,0.063l-0.064-1.481
	c0.181-0.008,0.354-0.011,0.521-0.011c0.321,0,0.621,0.011,0.917,0.015c0.45,0.007,0.908,0.01,1.376,0.01h9.522
	c0.468,0,0.926-0.003,1.376-0.01c0.449-0.006,0.907-0.026,1.373-0.063l0.064,1.546L84.137,28.779z M53.538,28.741
	c-0.467-0.035-0.925-0.057-1.373-0.063c-0.45-0.007-0.908-0.01-1.377-0.01h-9.521c-0.468,0-0.927,0.003-1.376,0.01
	c-0.449,0.006-0.907,0.025-1.373,0.063l-0.065-1.498c0.186-0.009,0.363-0.012,0.533-0.012c0.317,0,0.613,0.011,0.905,0.015
	c0.449,0.006,0.908,0.01,1.376,0.01h7.128c0.157-0.638,0.368-1.42,0.571-2.285c0.204-0.868,0.39-1.758,0.558-2.668
	c0.168-0.9,0.304-1.789,0.404-2.642c0.102-0.855,0.153-1.622,0.153-2.279l-7.807,0.06c-0.383,0-0.728,0.003-1.033,0.009
	c-0.305,0.006-0.644,0.027-1.013,0.063l-0.066-1.5c0.152-0.008,0.292-0.011,0.423-0.011c0.244,0,0.457,0.01,0.655,0.014
	c0.305,0.006,0.65,0.009,1.033,0.009h9.45c0.024,1.014-0.046,2.018-0.147,3.045c-0.101,1.014-0.237,2.03-0.405,3.02
	c-0.153,0.98-0.335,1.938-0.541,2.846c-0.204,0.9-0.417,1.707-0.631,2.397l0.789-0.077c0.469,0,0.927-0.004,1.377-0.01
	c0.448-0.006,0.906-0.026,1.373-0.063l0.064,1.563L53.538,28.741z M20.706,27.468c-0.152-0.141-0.367-0.295-0.657-0.47
	c-0.287-0.173-0.526-0.314-0.718-0.422l-0.087-0.05l0.084-0.054c0.927-0.595,1.738-1.255,2.41-1.962
	c0.669-0.704,1.238-1.478,1.691-2.299c0.393-0.726,0.7-1.512,0.913-2.336c0.214-0.825,0.347-1.714,0.394-2.643l-2.766,0.063
	c-0.3,0-0.572,0.003-0.818,0.009c-0.244,0.006-0.509,0.026-0.795,0.063l-0.067-1.464c0.122-0.008,0.234-0.011,0.338-0.011
	c0.196,0,0.365,0.01,0.524,0.014c0.246,0.008,0.519,0.01,0.818,0.01h4.338c0.036,1.307-0.083,2.464-0.292,3.5
	c-0.21,1.039-0.511,2.003-0.895,2.866c-0.48,1.081-1.095,2.055-1.827,2.894c-0.737,0.845-1.582,1.617-2.512,2.297l-0.04,0.028
	L20.706,27.468z M55.031,20.765l4.434-0.06l-0.06-3.649l-3.072,0.06c-0.228,0-0.438,0.003-0.629,0.009
	c-0.189,0.006-0.391,0.026-0.604,0.062l-0.069-1.481c0.098-0.008,0.186-0.011,0.267-0.011c0.153,0,0.282,0.01,0.406,0.014
	c0.19,0.006,0.401,0.009,0.629,0.009h4.644c0.023,0.342,0.003,0.601-0.004,0.845c-0.006,0.246-0.009,0.5-0.009,0.764v4.716
	l-4.397,0.06l0.06,3.575l2.063-0.096c0.276,0,0.578-0.009,0.907-0.025c0.328-0.02,0.654-0.046,0.977-0.081
	c0.325-0.024,0.624-0.056,0.899-0.091c0.274-0.035,0.501-0.07,0.68-0.106l0.071,1.318c-0.409,0.121-0.967,0.191-1.717,0.275
	c-0.746,0.085-1.526,0.127-2.32,0.127l-3.155,0.036L55.031,20.765L55.031,20.765z M19.05,24.55
	c-0.467-0.036-0.925-0.058-1.373-0.063c-0.45-0.006-0.909-0.009-1.376-0.009H6.814c-0.467,0-0.926,0.003-1.376,0.009
	c-0.449,0.006-0.907,0.027-1.374,0.063L4,23.104c0.18-0.008,0.352-0.011,0.518-0.011c0.323,0,0.623,0.011,0.919,0.014
	c0.45,0.006,0.909,0.009,1.376,0.009h3.924l-0.06-1.56l-4.62,0.06l-0.06-4.614c0-0.299-0.006-0.602-0.018-0.907
	c-0.012-0.304-0.036-0.612-0.071-0.922l9.131-0.067h0.936c0.333,0,0.699-0.018,1.093-0.054l0.065,1.32
	c-0.229,0.018-0.435,0.023-0.625,0.023c-0.191,0-1.181-0.018-1.469-0.018H7.57l0.06,1.416l9.408-0.06l0.06,1.176L7.57,18.97
	l0.06,1.416l7.572-0.06h0.936c0.334,0,0.698-0.018,1.092-0.054l0.065,1.337c-0.229,0.018-0.435,0.023-0.625,0.023
	c-0.19,0-1.181-0.017-1.468-0.017h-2.844l0.06,1.56l3.882-0.06c0.467,0,0.926-0.003,1.376-0.009
	c0.449-0.006,0.906-0.027,1.374-0.063l0.064,1.511L19.05,24.55z M82.803,24.01c-0.322-0.036-0.623-0.058-0.903-0.063
	c-0.282-0.006-0.578-0.009-0.89-0.009h-8.856c-0.323,0-0.613,0.003-0.871,0.009c-0.257,0.006-0.54,0.027-0.85,0.063l-0.066-1.5
	c0.129-0.008,0.248-0.011,0.358-0.011c0.21,0,0.39,0.011,0.558,0.015c0.258,0.006,0.548,0.009,0.871,0.009h0.559l-0.132-5.555
	l-0.049,0.059c-0.322,0-0.613,0.003-0.872,0.009c-0.256,0.006-0.539,0.027-0.849,0.063l-0.066-1.481
	c0.131-0.008,0.251-0.011,0.362-0.011c0.208,0,0.387,0.01,0.554,0.014c0.258,0.006,0.549,0.009,0.871,0.009h8.154
	c0.312,0,0.596-0.003,0.854-0.009c0.256-0.006,0.545-0.027,0.866-0.063l0.066,1.481c-0.134,0.008-0.258,0.011-0.374,0.011
	c-0.22,0-0.412-0.01-0.595-0.014c-0.282-0.006-0.578-0.009-0.891-0.009l-0.066,5.558l0.535-0.062c0.311,0,0.596-0.003,0.854-0.009
	c0.256-0.007,0.545-0.027,0.867-0.063l0.066,1.567L82.803,24.01z M74.284,22.582l4.746-0.06l0.049-5.557l-4.848,0.06L74.284,22.582z
	"/>
</svg>
