<?xml version="1.0" encoding="utf-8"?>
<!-- Generator: Adobe Illustrator 17.0.0, SVG Export Plug-In . SVG Version: 6.00 Build 0)  -->
<!DOCTYPE svg PUBLIC "-//W3C//DTD SVG 1.1//EN" "http://www.w3.org/Graphics/SVG/1.1/DTD/svg11.dtd">
<svg version="1.1" id="Layer_1" xmlns="http://www.w3.org/2000/svg" xmlns:xlink="http://www.w3.org/1999/xlink" x="0px" y="0px"
	 width="110px" height="40px" viewBox="0 0 110 40" enable-background="new 0 0 110 40" xml:space="preserve">
<path fill="#555555" d="M46.144,30.92c-0.024-0.46,0-0.857,0.012-1.258s0.018-0.807,0.018-1.213V17.236
	c0-0.396-0.006-0.794-0.018-1.195c-0.012-0.401-0.036-0.805-0.071-1.211l1.733-0.065c0.024,0.472,0.003,0.875-0.003,1.276
	c-0.006,0.401-0.009,0.8-0.009,1.196v3.924l0.876-0.06c0.215,0,0.443-0.003,0.683-0.009c0.237-0.006,0.462-0.026,0.676-0.062
	l0.07,1.571c-0.098,0.008-0.189,0.011-0.277,0.011c-0.166,0-0.318-0.01-0.478-0.014c-0.246-0.006-0.47-0.01-0.673-0.01h-0.936
	c0,0,0.063,6.674,0.069,7.076c0.006,0.4,0.027,0.798,0.063,1.191l0.006,0.065H46.144z M31.438,30.903
	c-0.024-0.459,0-0.857,0.012-1.258s0.018-0.807,0.018-1.214V17.236c0-0.396-0.006-0.794-0.018-1.195
	c-0.012-0.401-0.036-0.805-0.072-1.211l1.751-0.065c0.024,0.472,0.003,0.875-0.003,1.276c-0.006,0.401-0.009,0.8-0.009,1.196v11.196
	c0,0.408,0.003,0.813,0.009,1.215c0.006,0.4,0.027,0.799,0.063,1.191l0.006,0.065h-1.757V30.903z M17.409,30.831
	c-0.297-0.036-0.572-0.058-0.822-0.063c-0.251-0.007-0.521-0.009-0.809-0.009h-9.72l-0.06-3.93l9.42-0.06l-0.06-1.453l-7.734,0.06
	c-0.251,0-0.512,0.007-0.781,0.019s-0.529,0.03-0.78,0.054l-0.065-1.372c0.123-0.009,0.236-0.012,0.341-0.012
	c0.197,0,0.368,0.011,0.531,0.015c0.251,0.006,0.503,0.009,0.754,0.009h3.132l-0.06-1.685l-3.882,0.06
	c-0.467,0-0.926,0.002-1.376,0.008c-0.449,0.007-0.907,0.027-1.374,0.063L4,21.106c0.184-0.008,0.359-0.011,0.528-0.011
	c0.319,0,0.616,0.01,0.91,0.014c0.45,0.006,0.909,0.009,1.376,0.009H16.3c0.467,0,0.926-0.003,1.376-0.009
	c0.449-0.006,0.906-0.027,1.374-0.063l0.064,1.428c-0.184,0.008-0.359,0.011-0.528,0.011c-0.319,0-0.617-0.01-0.91-0.014
	c-0.45-0.006-0.909-0.008-1.376-0.008h-3.96l0.06,1.684l4.746-0.06c0.023,0.296,0,0.521-0.012,0.748
	c-0.012,0.227-0.018,0.448-0.018,0.663v2.447l-9.42,0.06l0.06,1.524l8.021-0.06h0.819c0.255,0,0.526-0.019,0.812-0.055l0.067,1.356
	v0.067L17.409,30.831z M67.954,30.796c-0.299-0.035-0.569-0.058-0.813-0.063c-0.246-0.006-0.513-0.009-0.8-0.009h-8.352
	c-0.3,0-0.572,0.003-0.818,0.009c-0.244,0.006-0.509,0.027-0.795,0.063l-0.067-1.481c0.124-0.009,0.236-0.012,0.341-0.012
	c0.195,0,0.362,0.011,0.521,0.015c0.246,0.006,0.518,0.009,0.818,0.009H58.6l-0.15-3.502l-0.228,0.058
	c-0.3,0-0.572,0.004-0.818,0.01c-0.244,0.006-0.509,0.026-0.795,0.063l-0.067-1.464c0.124-0.009,0.236-0.012,0.341-0.012
	c0.195,0,0.362,0.01,0.521,0.014c0.246,0.006,0.518,0.009,0.818,0.009h7.902c0.286,0,0.554-0.003,0.8-0.009
	c0.244-0.006,0.515-0.026,0.813-0.062l0.066,1.462c-0.127,0.009-0.243,0.012-0.351,0.012c-0.2,0-0.37-0.011-0.528-0.015
	c-0.246-0.006-0.514-0.01-0.8-0.01H65.8l-0.03,3.508l0.57-0.062c0.287,0,0.554-0.003,0.8-0.009c0.244-0.007,0.515-0.027,0.813-0.063
	l0.066,1.549L67.954,30.796z M60.118,29.384l4.135-0.058l0.012-3.505l-4.234,0.061L60.118,29.384z M91.289,30.222l-0.06-4.122
	c0-0.23-0.008-0.474-0.024-0.727c-0.019-0.254-0.044-0.503-0.078-0.745l10.519-0.068c0.024,0.333,0.005,0.581-0.001,0.812
	c-0.007,0.23-0.01,0.476-0.01,0.729v4.122L91.289,30.222L91.289,30.222z M92.796,28.941l7.35-0.06l-0.06-3.044l-7.29,0.06V28.941z
	 M87.712,28.285c-0.453-0.033-0.896-0.055-1.331-0.061c-0.437-0.006-0.879-0.009-1.332-0.009h-9.224
	c-0.452,0-0.896,0.003-1.333,0.009c-0.435,0.006-0.878,0.026-1.329,0.061l-0.064-1.454c0.186-0.009,0.361-0.012,0.53-0.012
	c0.303,0,0.585,0.01,0.863,0.014c0.438,0.007,0.881,0.01,1.333,0.01h6.904c0.151-0.62,0.355-1.378,0.551-2.213
	c0.196-0.842,0.377-1.704,0.541-2.585c0.162-0.872,0.293-1.733,0.391-2.559c0.099-0.833,0.148-1.576,0.148-2.208l-7.559,0.06
	c-0.372,0-0.705,0.003-1.001,0.009c-0.295,0.006-0.622,0.026-0.98,0.061l-0.065-1.455c0.155-0.009,0.298-0.012,0.431-0.012
	c0.229,0,0.429,0.009,0.615,0.013c0.296,0.006,0.629,0.008,1.001,0.008h9.151c0.026,0.979-0.041,1.951-0.141,2.951
	c-0.098,0.99-0.23,1.974-0.393,2.924c-0.147,0.943-0.323,1.871-0.522,2.756c-0.196,0.871-0.402,1.653-0.611,2.326l0.763-0.077
	c0.453,0,0.896-0.003,1.332-0.01c0.436-0.006,0.878-0.025,1.33-0.062l0.064,1.519L87.712,28.285z M21.209,27.666
	c-0.143-0.131-0.36-0.304-0.652-0.518c-0.293-0.216-0.529-0.383-0.709-0.503l-0.085-0.057l0.091-0.047
	c1.062-0.548,2.011-1.19,2.823-1.908c0.812-0.716,1.514-1.526,2.086-2.408c0.476-0.749,0.861-1.559,1.145-2.407
	c0.286-0.85,0.472-1.756,0.556-2.695l-3.972,0.065c-0.3,0-0.572,0.003-0.818,0.009c-0.244,0.006-0.509,0.026-0.795,0.063l-0.067-1.5
	c0.124-0.008,0.236-0.011,0.34-0.011c0.195,0,0.363,0.01,0.522,0.014c0.246,0.006,0.518,0.008,0.818,0.008h5.724
	c0,1.252-0.18,2.401-0.473,3.478c-0.294,1.08-0.717,2.114-1.257,3.074c-0.577,1.057-1.31,2.048-2.178,2.945
	c-0.868,0.898-1.887,1.707-3.027,2.404l-0.039,0.024L21.209,27.666z M34.762,26.128c0.157-0.01,0.299-0.013,0.431-0.013
	c0.194,0,0.366,0.007,0.529,0.007h0.9l2.555-0.035l-0.059-3.037c-0.48-0.013-0.974-0.163-1.417-0.387
	c-0.441-0.224-0.826-0.516-1.142-0.868c-0.315-0.339-0.565-0.736-0.74-1.179c-0.176-0.443-0.265-0.926-0.265-1.435
	c0-0.558,0.111-1.087,0.329-1.573c0.219-0.485,0.526-0.916,0.914-1.279c0.389-0.364,0.849-0.652,1.369-0.858
	c0.521-0.206,1.098-0.31,1.714-0.31c0.618,0,1.198,0.117,1.725,0.347c0.526,0.23,0.989,0.53,1.376,0.893
	c0.376,0.376,0.68,0.813,0.905,1.297c0.225,0.485,0.338,0.997,0.338,1.519c0,0.486-0.089,0.951-0.266,1.382
	c-0.176,0.43-0.425,0.82-0.741,1.161c-0.302,0.351-0.677,0.649-1.113,0.884c-0.438,0.237-0.917,0.4-1.423,0.483l0.05,3.001
	c0.322-0.071,0.739-0.087,1.188-0.104c0.449-0.019,0.902-0.045,1.357-0.081c0.443-0.024,0.873-0.057,1.285-0.1
	c0.414-0.041,0.782-0.087,1.105-0.136l0.069,1.32c-1.439,0.25-2.88,0.375-4.333,0.429c-1.438,0.055-3.001,0.08-4.781,0.08
	c-0.324,0-0.623,0.004-0.898,0.01c-0.274,0.007-0.573,0.026-0.895,0.063l-0.067,0.008L34.762,26.128L34.762,26.128z M39.88,16.63
	c-0.844,0-1.52,0.249-2.009,0.739c-0.49,0.49-0.738,1.105-0.738,1.83c0,0.724,0.251,1.336,0.747,1.82
	c0.495,0.484,1.174,0.73,2.019,0.73c0.832,0,1.502-0.246,1.992-0.729c0.49-0.484,0.738-1.097,0.738-1.82
	c0-0.724-0.249-1.34-0.738-1.83C41.4,16.878,40.724,16.63,39.88,16.63z M100.129,23.894l-0.06-7.33c0-0.29-0.006-0.579-0.019-0.87
	c-0.012-0.29-0.034-0.584-0.068-0.884l1.663-0.067c0.024,0.367,0.005,0.662-0.001,0.95c-0.007,0.29-0.01,0.581-0.01,0.871v7.33
	H100.129z M65.999,23.848l-0.06-7.206c0-0.299-0.007-0.599-0.019-0.897c-0.012-0.298-0.036-0.603-0.072-0.914l1.734-0.067
	c0.023,0.377,0.002,0.681-0.004,0.979c-0.006,0.3-0.009,0.599-0.009,0.899v7.206H65.999z M89.6,23.178l-0.06-4.505l5.917-0.06
	l-0.06-2.014c0,0-4.784,0.063-5.021,0.068c-0.236,0.006-0.493,0.025-0.769,0.061l-0.067-1.401c0.123-0.009,0.235-0.012,0.34-0.012
	c0.186,0,0.345,0.01,0.496,0.013c0.237,0.006,0.503,0.009,0.793,0.009h5.752c0.024,0.333,0.004,0.584-0.002,0.819
	c-0.006,0.239-0.009,0.485-0.009,0.741v2.946l-5.883,0.06l0.06,1.98l2.678-0.095c0.348,0,0.78-0.018,1.295-0.052
	c0.517-0.034,1.042-0.074,1.577-0.122c0.521-0.046,1.026-0.102,1.514-0.166c0.488-0.064,0.888-0.125,1.2-0.182l0.07,1.279
	c-0.327,0.118-0.703,0.175-1.178,0.233c-0.471,0.059-0.974,0.111-1.51,0.157c-0.546,0.058-1.098,0.104-1.657,0.14
	c-0.559,0.035-1.064,0.059-1.52,0.07c-0.301,0.012-0.675,0.021-1.116,0.026c-0.441,0.005-0.872,0.008-1.29,0.008L89.6,23.178
	L89.6,23.178z M58.726,23.092c-0.616,0-1.193-0.108-1.714-0.32s-0.976-0.504-1.351-0.868c-0.387-0.361-0.689-0.795-0.896-1.289
	c-0.206-0.492-0.311-1.029-0.311-1.598c0-0.557,0.104-1.089,0.311-1.58c0.207-0.492,0.508-0.932,0.896-1.307
	c0.377-0.365,0.832-0.657,1.351-0.868c0.522-0.212,1.099-0.319,1.714-0.319c0.617,0,1.19,0.107,1.705,0.319
	c0.514,0.211,0.971,0.502,1.36,0.867c0.376,0.377,0.674,0.816,0.887,1.307c0.212,0.493,0.319,1.025,0.319,1.581
	c0,0.57-0.107,1.108-0.319,1.599c-0.213,0.491-0.511,0.924-0.886,1.288c-0.392,0.366-0.849,0.658-1.361,0.868
	C59.917,22.984,59.342,23.092,58.726,23.092z M58.726,16.36c-0.83,0-1.481,0.26-1.935,0.772c-0.456,0.515-0.687,1.15-0.687,1.886
	c0,0.738,0.231,1.372,0.687,1.886c0.454,0.512,1.104,0.772,1.935,0.772c0.842,0,1.492-0.259,1.936-0.771
	c0.443-0.515,0.669-1.15,0.669-1.887c0-0.735-0.226-1.37-0.67-1.887C60.218,16.619,59.567,16.36,58.726,16.36z M16.609,20.227
	c-0.298-0.061-0.564-0.125-0.829-0.196c-0.275-0.06-0.549-0.133-0.821-0.217c-0.271-0.084-0.54-0.181-0.806-0.29
	c-0.54-0.204-1.049-0.46-1.513-0.761c-0.466-0.303-0.851-0.678-1.142-1.115c-0.167,0.377-0.508,0.715-0.914,1.006
	c-0.404,0.289-0.858,0.546-1.352,0.762c-0.505,0.216-1.059,0.405-1.647,0.561C7,20.131,6.387,20.265,5.762,20.373
	c-0.167-0.18-0.304-0.362-0.471-0.57c-0.167-0.208-0.34-0.409-0.519-0.6l-0.083-0.088l0.12-0.013
	c0.669-0.072,1.339-0.187,1.991-0.341c0.652-0.154,1.26-0.352,1.808-0.59c0.497-0.213,0.925-0.467,1.272-0.756
	c0.344-0.285,0.583-0.625,0.71-1.008l-2.949,0.079c-0.324,0-0.614,0.003-0.872,0.009c-0.256,0.006-0.54,0.027-0.85,0.063
	l-0.067-1.392c0.13-0.008,0.25-0.011,0.36-0.011c0.209,0,0.389,0.01,0.556,0.014c0.257,0.006,0.548,0.009,0.872,0.009h7.83
	c0.312,0,0.596-0.003,0.854-0.009c0.256-0.006,0.545-0.027,0.868-0.063l0.067,1.392c-0.135,0.008-0.257,0.011-0.371,0.011
	c-0.214,0-0.396-0.01-0.564-0.014c-0.258-0.006-0.542-0.009-0.854-0.009h-2.986c0.173,0.305,0.43,0.655,0.82,0.964
	c0.396,0.313,0.866,0.579,1.398,0.792c0.535,0.226,1.12,0.413,1.737,0.555c0.617,0.142,1.233,0.251,1.83,0.323l0.113,0.014
	l-0.076,0.085c-0.179,0.203-0.34,0.397-0.484,0.582c-0.144,0.188-0.455,0.578-0.455,0.578L16.609,20.227z"/>
</svg>
