<?xml version="1.0" encoding="utf-8"?>
<!-- Generator: Adobe Illustrator 17.0.0, SVG Export Plug-In . SVG Version: 6.00 Build 0)  -->
<!DOCTYPE svg PUBLIC "-//W3C//DTD SVG 1.1//EN" "http://www.w3.org/Graphics/SVG/1.1/DTD/svg11.dtd">
<svg version="1.1" id="Layer_1" xmlns="http://www.w3.org/2000/svg" xmlns:xlink="http://www.w3.org/1999/xlink" x="0px" y="0px"
	 width="87px" height="40px" viewBox="0 0 87 40" enable-background="new 0 0 87 40" xml:space="preserve">
<path fill="#FFFFFF" d="M26.092,30.902c-0.024-0.341-0.003-0.627,0.003-0.925c0.006-0.3,0.009-0.593,0.009-0.881v-4.157l-3.972,0.06
	c-0.467,0-0.926,0.003-1.376,0.01c-0.449,0.006-0.906,0.025-1.373,0.063l-0.065-1.5c0.18-0.008,0.352-0.011,0.518-0.011
	c0.323,0,0.624,0.011,0.919,0.014c0.45,0.006,0.909,0.009,1.376,0.009h9.486c0.467,0,0.926-0.003,1.376-0.009
	c0.449-0.006,0.907-0.027,1.374-0.063l0.064,1.5c-0.186,0.009-0.364,0.012-0.535,0.012c-0.316,0-0.612-0.011-0.903-0.015
	c-0.45-0.007-0.909-0.01-1.376-0.01h-3.906l0.06,4.098c0,0.265,0.002,0.559,0.009,0.881c0.006,0.321,0.026,0.606,0.063,0.856
	l0.01,0.068C27.853,30.902,26.092,30.902,26.092,30.902z M48.246,30.65c-0.467-0.036-0.916-0.057-1.347-0.063
	s-0.881-0.01-1.349-0.01h-8.874c0,0-0.063-3.758-0.069-3.999c-0.006-0.236-0.026-0.463-0.062-0.677l1.679-0.069
	c0.023,0.283,0.003,0.506-0.003,0.737c-0.006,0.232-0.009,0.451-0.009,0.654v1.998c0,0,8.256-0.063,8.687-0.068
	s0.88-0.027,1.347-0.063l0.064,1.563L48.246,30.65z M19.085,28.977c-0.467-0.036-0.924-0.058-1.374-0.063s-0.908-0.009-1.376-0.009
	H6.814c-0.467,0-0.926,0.003-1.376,0.009c-0.449,0.007-0.907,0.027-1.374,0.063L4,27.477c0.178-0.008,0.348-0.011,0.511-0.011
	c0.325,0,0.628,0.011,0.926,0.015c0.45,0.006,0.909,0.009,1.376,0.009h3.997l-0.06-3.971l-4.692,0.06l-0.06-6.036
	c0-0.299-0.006-0.604-0.018-0.916c-0.012-0.31-0.036-0.621-0.071-0.932l9.312-0.067h0.936c0.334,0,0.698-0.018,1.092-0.054
	l0.065,1.464c-0.229,0.018-0.435,0.023-0.625,0.023c-0.19,0-1.181-0.018-1.468-0.018H7.552l0.06,5.196l7.77-0.06h0.936
	c0.335,0,0.699-0.019,1.093-0.055l0.065,1.445c-0.23,0.019-0.438,0.024-0.629,0.024c-0.189,0-1.178-0.018-1.465-0.018H12.34
	l0.06,3.972l3.936-0.06c0.468,0,0.927-0.003,1.376-0.009c0.449-0.006,0.907-0.027,1.374-0.063l0.064,1.564L19.085,28.977z
	 M80.286,28.976c-0.467-0.036-0.925-0.058-1.374-0.063s-0.907-0.009-1.376-0.009h-9.521c-0.468,0-0.926,0.003-1.376,0.009
	c-0.449,0.007-0.907,0.027-1.373,0.063l-0.064-1.5c0.178-0.008,0.347-0.011,0.511-0.011c0.325,0,0.628,0.011,0.927,0.015
	c0.45,0.006,0.908,0.009,1.376,0.009h1.134l-0.06-1.918v-0.792c-0.012-0.127-0.042-0.656-0.054-0.787l1.644-0.065
	c0.023,0.307,0.006,0.571,0.006,0.861v2.762l4.296-0.06l-0.06-1.938V24.76c-0.012-0.127-0.042-0.656-0.054-0.787l1.644-0.065
	c0.023,0.307,0.006,0.57,0.006,0.86v2.781l1.02-0.06c0.469,0,0.927-0.003,1.376-0.009s0.907-0.027,1.374-0.063l0.064,1.564
	L80.286,28.976z M64.985,28.96c-0.466-0.035-0.924-0.058-1.373-0.063c-0.45-0.006-0.908-0.009-1.376-0.009h-9.521
	c-0.469,0-0.927,0.003-1.376,0.009s-0.907,0.027-1.373,0.063l-0.064-1.482c0.178-0.008,0.347-0.011,0.511-0.011
	c0.325,0,0.628,0.011,0.927,0.015c0.449,0.006,0.907,0.009,1.376,0.009h3.996l-0.06-3.773l-3.648,0.06
	c-0.323,0-0.614,0.003-0.872,0.009c-0.257,0.007-0.539,0.027-0.85,0.063l-0.066-1.482c0.129-0.008,0.247-0.011,0.356-0.011
	c0.211,0,0.391,0.01,0.56,0.014c0.258,0.007,0.549,0.009,0.872,0.009h0.521l-0.132-5.411c-0.335,0.059-0.626,0.063-0.884,0.068
	c-0.256,0.006-0.539,0.027-0.85,0.063l-0.066-1.481c0.131-0.008,0.251-0.011,0.363-0.011c0.208,0,0.387,0.01,0.554,0.014
	c0.257,0.006,0.548,0.009,0.871,0.009h8.153c0.312,0,0.597-0.003,0.854-0.009c0.256-0.006,0.545-0.027,0.867-0.063l0.066,1.481
	c-0.134,0.008-0.258,0.011-0.374,0.011c-0.22,0-0.412-0.01-0.596-0.014c-0.282-0.006-0.578-0.009-0.89-0.009l-0.013,5.413
	l0.48-0.061c0.311,0,0.596-0.002,0.853-0.009c0.258-0.006,0.547-0.026,0.868-0.063l0.066,1.482
	c-0.134,0.008-0.258,0.011-0.374,0.011c-0.22,0-0.412-0.01-0.595-0.014c-0.282-0.006-0.578-0.009-0.891-0.009H58.24l0.06,3.773
	l3.937-0.06c0.468,0,0.926-0.003,1.376-0.009c0.449-0.006,0.907-0.027,1.373-0.063l0.064,1.547L64.985,28.96z M55.078,22.438
	l4.836-0.06l-0.005-5.413l-4.866,0.06L55.078,22.438z M41.572,27.845c-0.024-0.296-0.003-0.532,0.003-0.782
	c0.006-0.252,0.009-0.483,0.009-0.7v-2.016l-4.152,0.06c-0.468,0-0.927,0.003-1.376,0.009c-0.449,0.007-0.907,0.027-1.374,0.063
	l-0.064-1.481c0.184-0.008,0.359-0.011,0.528-0.011c0.319,0,0.616,0.01,0.91,0.014c0.449,0.007,0.908,0.009,1.376,0.009h9.486
	c0.468,0,0.927-0.002,1.376-0.009c0.448-0.006,0.906-0.026,1.373-0.063l0.064,1.48c-0.184,0.008-0.358,0.011-0.527,0.011
	c-0.32,0-0.617-0.01-0.91-0.014c-0.45-0.006-0.909-0.009-1.376-0.009h-3.762l0.06,1.956c0,0.217,0.002,0.452,0.009,0.71
	c0.006,0.255,0.026,0.489,0.062,0.703l0.012,0.069h-1.727V27.845z M78.952,23.325c-0.322-0.036-0.623-0.057-0.903-0.063
	c-0.282-0.006-0.578-0.01-0.891-0.01h-8.855c-0.323,0-0.614,0.004-0.871,0.01c-0.257,0.006-0.54,0.026-0.851,0.063l-0.066-1.482
	c0.13-0.008,0.249-0.011,0.36-0.011c0.209,0,0.389,0.01,0.556,0.014c0.258,0.007,0.549,0.01,0.872,0.01h0.521l-0.131-4.889
	c-0.336,0.059-0.627,0.063-0.885,0.068c-0.256,0.006-0.539,0.027-0.85,0.063l-0.066-1.481c0.131-0.008,0.251-0.011,0.363-0.011
	c0.208,0,0.387,0.01,0.554,0.014c0.257,0.006,0.548,0.009,0.871,0.009h8.154c0.311,0,0.596-0.003,0.854-0.009
	c0.256-0.006,0.545-0.027,0.867-0.063l0.066,1.481c-0.134,0.008-0.258,0.011-0.374,0.011c-0.22,0-0.412-0.01-0.596-0.014
	c-0.282-0.006-0.578-0.009-0.89-0.009l-0.013,4.891l0.48-0.061c0.312,0,0.596-0.003,0.854-0.01c0.257-0.006,0.546-0.026,0.868-0.063
	l0.066,1.549L78.952,23.325z M70.377,21.916l4.837-0.06l-0.006-4.891l-4.866,0.06L70.377,21.916z M32.63,22.01
	c-0.515-0.119-1.075-0.295-1.664-0.523c-0.587-0.228-1.16-0.508-1.702-0.833c-0.509-0.303-0.982-0.66-1.405-1.061
	c-0.401-0.378-0.729-0.807-0.978-1.276c-0.279,0.48-0.615,0.912-1,1.285c-0.409,0.396-0.867,0.745-1.361,1.035
	c-0.505,0.313-1.054,0.584-1.629,0.805c-0.578,0.223-1.161,0.414-1.734,0.568c-0.13-0.087-0.211-0.171-0.302-0.268
	c-0.09-0.097-0.184-0.199-0.28-0.307c-0.106-0.106-0.208-0.211-0.305-0.314c-0.097-0.103-0.188-0.202-0.272-0.299l-0.067-0.077
	l0.1-0.021c0.75-0.155,1.483-0.369,2.178-0.637c0.695-0.267,1.318-0.583,1.852-0.938c0.58-0.391,1.053-0.846,1.406-1.353
	c0.351-0.504,0.529-1.098,0.529-1.766v-0.216c0-0.07-0.006-0.167-0.018-0.291c-0.012-0.122-0.029-0.223-0.052-0.304l1.858-0.077
	c0.022,0.17,0.002,0.273-0.003,0.387c-0.006,0.119-0.009,0.214-0.009,0.285v0.198c0,0.632,0.169,1.212,0.503,1.722
	c0.336,0.513,0.782,0.964,1.325,1.342c0.571,0.416,1.22,0.762,1.931,1.028c0.713,0.268,1.431,0.476,2.132,0.619l0.11,0.022
	l-0.079,0.079c-0.178,0.178-0.354,0.372-0.527,0.581c-0.174,0.21-0.5,0.613-0.5,0.613L32.63,22.01z M36.64,21.454l-0.06-5.082
	c0-0.227-0.006-0.451-0.018-0.672c-0.012-0.22-0.036-0.456-0.071-0.706l1.697-0.068c0.023,0.319,0,0.545-0.012,0.748
	s-0.018,0.442-0.018,0.717v0.558l8.058-0.06l-0.06-0.498c0-0.275-0.006-0.514-0.018-0.717s-0.036-0.429-0.072-0.679l1.734-0.068
	c0.023,0.318-0.001,0.554-0.012,0.774c-0.012,0.222-0.018,0.446-0.018,0.672v5.082L36.64,21.454L36.64,21.454z M38.158,20.116
	l8.058-0.06l-0.06-1.866l-7.998,0.06C38.158,18.25,38.158,20.116,38.158,20.116z"/>
</svg>
