<?xml version="1.0" encoding="utf-8"?>
<!-- Generator: Adobe Illustrator 17.0.0, SVG Export Plug-In . SVG Version: 6.00 Build 0)  -->
<!DOCTYPE svg PUBLIC "-//W3C//DTD SVG 1.1//EN" "http://www.w3.org/Graphics/SVG/1.1/DTD/svg11.dtd">
<svg version="1.1" id="Layer_1" xmlns="http://www.w3.org/2000/svg" xmlns:xlink="http://www.w3.org/1999/xlink" x="0px" y="0px"
	 width="71px" height="40px" viewBox="0 0 71 40" enable-background="new 0 0 71 40" xml:space="preserve">
<path fill="#FFFFFF" d="M66.212,30.977c-0.023-0.317-0.002-0.592,0.004-0.889c0.006-0.301,0.009-0.581,0.009-0.846v-2.34
	l-7.356,0.06c-0.359,0-0.688,0.003-0.989,0.009c-0.298,0.007-0.627,0.027-0.984,0.063l-0.065-1.481
	c0.165-0.01,0.316-0.012,0.457-0.012c0.218,0,0.41,0.007,0.592,0.007h9.99c0.023,0.305,0.003,0.507-0.003,0.673
	c-0.007,0.168-0.01,0.365-0.01,0.592v2.431c0,0.274,0.007,0.557,0.019,0.845c0.012,0.285,0.036,0.56,0.072,0.822l0.009,0.067
	L66.212,30.977L66.212,30.977z M15.867,30.886c-0.024-0.46,0-0.857,0.012-1.258s0.018-0.807,0.018-1.213V17.2
	c0-0.396-0.006-0.794-0.018-1.195c-0.012-0.401-0.036-0.805-0.072-1.211l1.734-0.065c0.024,0.472,0.003,0.875-0.003,1.276
	c-0.006,0.401-0.009,0.801-0.009,1.196v3.798l0.984-0.06c0.216,0,0.443-0.003,0.683-0.009c0.237-0.006,0.462-0.026,0.676-0.062
	l0.07,1.553c-0.098,0.008-0.189,0.011-0.277,0.011c-0.166,0-0.319-0.01-0.478-0.014c-0.246-0.006-0.47-0.009-0.674-0.009h-1.044
	l0.06,6.007c0,0.407,0.003,0.812,0.009,1.214c0.006,0.4,0.027,0.798,0.063,1.191l0.006,0.065H15.867z M41.965,30.706
	c0,0-0.063-5.855-0.068-6.07c-0.006-0.213-0.026-0.414-0.062-0.603l1.696-0.071c0.023,0.249,0.003,0.44-0.003,0.647
	c-0.007,0.209-0.01,0.403-0.01,0.583v0.756l7.573-0.06l-0.06-0.661c0-0.179-0.004-0.377-0.01-0.592
	c-0.006-0.213-0.026-0.414-0.062-0.603l1.696-0.071c0.023,0.249,0.003,0.44-0.003,0.647c-0.007,0.209-0.01,0.404-0.01,0.583v5.514
	L41.965,30.706L41.965,30.706z M43.52,29.404l7.573-0.06l-0.06-2.136l-7.514,0.06L43.52,29.404L43.52,29.404z M34.78,28.979
	c-0.467-0.036-0.924-0.058-1.373-0.063c-0.45-0.006-0.909-0.01-1.376-0.01h-9.54c-0.467,0-0.926,0.003-1.376,0.01
	c-0.449,0.006-0.907,0.026-1.374,0.063l-0.064-1.481c0.186-0.009,0.363-0.012,0.533-0.012c0.317,0,0.613,0.011,0.905,0.015
	c0.45,0.007,0.909,0.01,1.376,0.01h1.548l-0.06-2.875l-2.208,0.06l-0.06-5.208l9.366-0.06l-0.06-2.622l-7.698,0.06
	c-0.251,0-0.511,0.006-0.78,0.018c-0.269,0.012-0.529,0.03-0.78,0.053l-0.066-1.463c0.124-0.008,0.236-0.011,0.341-0.011
	c0.197,0,0.367,0.01,0.53,0.014c0.251,0.006,0.503,0.009,0.754,0.009h9.324c0.024,0.296,0,0.551-0.012,0.836
	c-0.012,0.287-0.018,0.557-0.018,0.808v3.618l-9.366,0.06l0.06,2.568l8.148-0.06h0.819c0.255,0,0.526-0.019,0.812-0.055l0.067,1.447
	c-0.125,0.008-0.238,0.011-0.345,0.011c-0.205,0-0.38-0.011-0.545-0.015c-0.251-0.005-0.521-0.009-0.809-0.009h-0.648l0.06,2.875
	l1.164-0.06c0.468,0,0.927-0.003,1.376-0.01c0.449-0.006,0.907-0.026,1.374-0.063l0.064,1.546L34.78,28.979z M25.593,27.569
	l3.702-0.06l-0.06-2.875l-3.642,0.059V27.569z M4.814,27.246C4.575,27.06,4.33,26.885,4.08,26.718L4,26.665l0.083-0.049
	c0.749-0.44,1.417-0.952,1.986-1.521c0.569-0.57,1.063-1.214,1.467-1.914c0.391-0.678,0.695-1.426,0.902-2.226
	c0.208-0.806,0.313-1.676,0.313-2.586v-1.296l-1.992,0.06c-0.264,0-0.503,0.003-0.719,0.009c-0.213,0.006-0.445,0.026-0.695,0.063
	l-0.068-1.481c0.111-0.008,0.211-0.011,0.304-0.011c0.173,0,0.32,0.01,0.459,0.014c0.215,0.006,0.455,0.009,0.718,0.009h5.778
	c0.251,0,0.485-0.002,0.7-0.009c0.214-0.006,0.452-0.027,0.714-0.063l0.068,1.481c-0.114,0.008-0.217,0.011-0.312,0.011
	c-0.18,0-0.33-0.01-0.47-0.014c-0.215-0.006-0.449-0.009-0.701-0.009h-2.16l0.06,1.47c0,0.819,0.087,1.59,0.259,2.29
	c0.172,0.7,0.44,1.36,0.795,1.964c0.369,0.654,0.841,1.262,1.403,1.806c0.564,0.546,1.248,1.046,2.031,1.483l0.081,0.045
	l-0.074,0.056c-0.19,0.144-0.389,0.318-0.597,0.525l-0.531,0.531c-0.494-0.244-0.905-0.542-1.296-0.879s-0.766-0.709-1.113-1.104
	c-0.397-0.435-0.76-0.907-1.077-1.403c-0.287-0.45-0.531-0.922-0.725-1.406c-0.144,0.451-0.346,0.903-0.604,1.349
	c-0.286,0.496-0.614,0.986-0.977,1.456c-0.371,0.491-0.782,0.95-1.221,1.366c-0.438,0.414-0.867,0.771-1.275,1.059l-0.037,0.026
	C5.479,27.769,5.054,27.431,4.814,27.246z M66.321,24.91l-0.06-3.822l-1.452,0.06c-0.215,0-0.44,0.003-0.674,0.009
	c-0.23,0.006-0.446,0.026-0.647,0.062l-0.07-1.445c0.098-0.008,0.188-0.011,0.275-0.011c0.164,0,0.314,0.01,0.469,0.014
	c0.24,0.006,0.467,0.009,0.684,0.009h1.476l-0.06-1.83l-1.452,0.06c-0.216,0-0.44,0.003-0.673,0.009
	c-0.231,0.006-0.447,0.027-0.648,0.062l-0.07-1.445c0.098-0.008,0.188-0.011,0.275-0.011c0.164,0,0.313,0.01,0.469,0.014
	c0.24,0.006,0.467,0.009,0.684,0.009h1.476l-0.06-0.048c0-0.299-0.006-0.599-0.018-0.897c-0.013-0.299-0.036-0.603-0.072-0.914
	l1.716-0.067c0.023,0.377,0.002,0.681-0.004,0.979c-0.006,0.3-0.009,0.6-0.009,0.899v8.304H66.321z M55.466,23.993l-0.06-4.938
	l5.658-0.06l-0.06-2.353l-3.919,0.06c-0.299,0-0.571,0.003-0.817,0.009c-0.244,0.006-0.51,0.027-0.795,0.063l-0.067-1.463
	c0.122-0.008,0.233-0.011,0.337-0.011c0.197,0,0.366,0.01,0.525,0.014c0.246,0.006,0.519,0.009,0.817,0.009h5.526
	c0.023,0.342,0.003,0.601-0.004,0.845c-0.006,0.246-0.009,0.5-0.009,0.764v3.348l-5.657,0.06l0.06,2.315l2.298-0.096
	c0.371,0,0.808-0.018,1.311-0.054s1.02-0.078,1.546-0.125c0.516-0.048,1.009-0.105,1.483-0.171c0.472-0.065,0.864-0.128,1.176-0.188
	l0.07,1.319c-0.337,0.119-0.71,0.179-1.168,0.24c-0.456,0.061-0.942,0.12-1.459,0.18c-0.529,0.049-1.066,0.094-1.612,0.136
	c-0.548,0.042-1.058,0.063-1.526,0.063c-0.311,0.013-0.67,0.021-1.079,0.027c-0.408,0.006-0.805,0.009-1.188,0.009h-1.387V23.993z
	 M51.093,23.326l-0.06-6.738c0-0.299-0.007-0.599-0.019-0.897s-0.036-0.602-0.072-0.914l1.734-0.067
	c0.023,0.378,0.002,0.681-0.004,0.979c-0.007,0.3-0.01,0.6-0.01,0.899v6.738H51.093z M43.82,22.876
	c-0.604,0-1.172-0.101-1.687-0.301s-0.973-0.48-1.359-0.831c-0.377-0.353-0.678-0.777-0.897-1.262
	c-0.218-0.487-0.329-1.021-0.329-1.59c0-0.558,0.108-1.086,0.32-1.572c0.21-0.485,0.509-0.909,0.887-1.262
	c0.39-0.352,0.847-0.635,1.36-0.84c0.515-0.206,1.088-0.311,1.705-0.311c0.593,0,1.154,0.104,1.669,0.311
	c0.516,0.207,0.973,0.489,1.359,0.839c0.378,0.353,0.679,0.777,0.896,1.262c0.219,0.486,0.329,1.015,0.329,1.572
	c0,0.569-0.11,1.104-0.329,1.59c-0.218,0.485-0.52,0.91-0.896,1.262c-0.39,0.352-0.848,0.631-1.361,0.831
	C44.973,22.775,44.412,22.876,43.82,22.876z M43.82,16.324c-0.795,0-1.443,0.254-1.928,0.755c-0.484,0.502-0.73,1.112-0.73,1.813
	c0,0.712,0.246,1.322,0.73,1.812c0.483,0.49,1.133,0.738,1.928,0.738c0.783,0,1.427-0.248,1.91-0.738
	c0.484-0.49,0.73-1.1,0.73-1.812s-0.246-1.325-0.73-1.821C45.246,16.575,44.603,16.324,43.82,16.324z"/>
</svg>
