<svg width="16" height="19" viewBox="0 0 16 19" xmlns="http://www.w3.org/2000/svg">
    <g fill="#000" fill-rule="evenodd">
        <path d="M12.75 8.214a2.56 2.56 0 0 1 2.55 2.572v5.143a2.56 2.56 0 0 1-2.55 2.571H2.55A2.56 2.56 0 0 1 0 15.929v-5.143a2.56 2.56 0 0 1 2.55-2.572V5.643C2.55 2.803 4.833.5 7.65.5c2.817 0 5.1 2.303 5.1 5.143v2.571zm-5.1-6c1.878 0 3.4 1.535 3.4 3.429v2.571h-6.8V5.643c0-1.894 1.522-3.429 3.4-3.429zm5.1 7.715H2.55c-.47 0-.85.383-.85.857v5.143c0 .473.38.857.85.857h10.2c.47 0 .85-.384.85-.857v-5.143a.854.854 0 0 0-.85-.857z"/>
        <path d="M7.65 12.5c-.47 0-.85.384-.85.857 0 .474.38.857.85.857s.85-.383.85-.857a.854.854 0 0 0-.85-.857z" fill-rule="nonzero"/>
    </g>
</svg>
