<svg width="20" height="21" viewBox="0 0 20 21" xmlns="http://www.w3.org/2000/svg">
    <g fill="none" fill-rule="evenodd">
        <path d="M9 9.868a1 1 0 1 1 2 0v6a1 1 0 1 1-2 0v-6zM10 4.94a1 1 0 1 0 0 2 1 1 0 0 0 0-2z" fill="#4E42CA" fill-rule="nonzero"/>
        <path d="M10 1.639a9.221 9.221 0 0 1 6.54 2.71 9.221 9.221 0 0 1 2.71 6.54 9.221 9.221 0 0 1-2.71 6.54A9.221 9.221 0 0 1 10 20.14a9.221 9.221 0 0 1-6.54-2.71 9.221 9.221 0 0 1-2.71-6.54 9.221 9.221 0 0 1 2.71-6.54A9.221 9.221 0 0 1 10 1.638z" stroke="#4E42CA" stroke-width="1.5"/>
    </g>
</svg>
