<svg width="10" height="17" viewBox="0 0 10 17" xmlns="http://www.w3.org/2000/svg">
    <path d="M3.814.197C1.957.197.452 1.69.452 3.531v8c0 2.577 2.107 4.666 4.706 4.666 2.6 0 4.706-2.089 4.706-4.666V6.197H8.52v5.334c0 1.84-1.505 3.333-3.362 3.333-1.856 0-3.361-1.492-3.361-3.333v-8c0-1.105.903-2 2.017-2 1.114 0 2.017.895 2.017 2v8a.67.67 0 0 1-.673.666.67.67 0 0 1-.672-.666V4.197H3.141v7.334c0 1.104.903 2 2.017 2a2.008 2.008 0 0 0 2.017-2v-8C7.175 1.69 5.67.197 3.814.197z" fill="#FFF" fill-rule="nonzero"/>
</svg>
