<svg width="22" height="24" viewBox="0 0 22 24" xmlns="http://www.w3.org/2000/svg">
    <path d="M9.507 3.361c-1.973 0-3.572 1.586-3.572 3.542v8.5c0 2.738 2.239 4.958 5 4.958 2.762 0 5-2.22 5-4.958V9.736h-1.428v5.667c0 1.956-1.6 3.542-3.572 3.542s-3.571-1.586-3.571-3.542v-8.5c0-1.174.96-2.125 2.143-2.125 1.183 0 2.143.951 2.143 2.125v8.5c0 .391-.32.708-.715.708a.711.711 0 0 1-.714-.708V7.61H8.793v7.792c0 1.174.959 2.125 2.142 2.125a2.134 2.134 0 0 0 2.143-2.125v-8.5c0-1.956-1.599-3.542-3.571-3.542z" fill="#4E42CA" fill-rule="nonzero"/>
</svg>
