<svg width="20" height="20" viewBox="0 0 20 20" xmlns="http://www.w3.org/2000/svg">
    <g fill="#4E42CA" fill-rule="evenodd">
        <path d="M8 10a1 1 0 1 1-2 0 1 1 0 0 1 2 0zM13 11a1 1 0 1 0 0-2 1 1 0 0 0 0 2z" fill-rule="nonzero"/>
        <path d="M10.024 0H10C4.477 0 0 4.477 0 10s4.477 10 10 10 10-4.477 10-10C20 4.742 15.943.432 10.788.03V.029A9.955 9.955 0 0 0 10.025 0zM10 18a8 8 0 0 0 7.742-10.022A10.016 10.016 0 0 1 8.76 3.602a7.976 7.976 0 0 1-5.691 2.4A8 8 0 0 0 10 18z"/>
    </g>
</svg>
