<svg width="22" height="22" viewBox="0 0 22 22" xmlns="http://www.w3.org/2000/svg">
    <g stroke="#4E42CA" stroke-width="1.5" stroke-linecap="round" stroke-linejoin="round" stroke-dasharray="0,0" fill="none" fill-rule="evenodd">
        <path d="M15.803 17.288c-.733 0-1.43.284-1.943.798l-1.568 1.549a1.854 1.854 0 0 1-2.594 0l-1.567-1.55a2.754 2.754 0 0 0-1.944-.797H5.5c-1.522 0-2.75-1.219-2.75-2.722V4.565c0-1.503 1.228-2.722 2.75-2.722h11c1.522 0 2.75 1.219 2.75 2.722v10c0 1.495-1.228 2.723-2.75 2.723h-.697z"/>
        <path d="M11 9.167a2.136 2.136 0 1 1 0-4.272 2.136 2.136 0 0 1 0 4.272zM14.667 14.355c0-1.65-1.641-2.988-3.667-2.988s-3.667 1.338-3.667 2.988"/>
    </g>
</svg>
