<?xml version="1.0" encoding="utf-8"?>
<!-- Generator: Adobe Illustrator 17.0.0, SVG Export Plug-In . SVG Version: 6.00 Build 0)  -->
<!DOCTYPE svg PUBLIC "-//W3C//DTD SVG 1.1//EN" "http://www.w3.org/Graphics/SVG/1.1/DTD/svg11.dtd">
<svg version="1.1" id="Layer_1" xmlns="http://www.w3.org/2000/svg" xmlns:xlink="http://www.w3.org/1999/xlink" x="0px" y="0px"
	 width="40px" height="40px" viewBox="0 0 40 40" enable-background="new 0 0 40 40" xml:space="preserve">
<path fill="#3A3A3A" d="M13.594,18.616c-2.922,0-5.29,2.369-5.29,5.29c0,2.922,2.369,5.29,5.29,5.29s5.29-2.369,5.29-5.29
	S16.516,18.616,13.594,18.616z M13.594,25.532c-0.898,0-1.625-0.728-1.625-1.625c0-0.897,0.728-1.625,1.625-1.625
	c0.897,0,1.625,0.728,1.625,1.625C15.219,24.804,14.492,25.532,13.594,25.532z"/>
<polygon fill="#3A3A3A" points="20.281,13.276 16.942,13.276 16.942,9.938 15.62,9.938 15.62,13.276 12.281,13.276 12.281,14.599 
	15.62,14.599 15.62,17.938 16.942,17.938 16.942,14.599 20.281,14.599 "/>
<path opacity="0.6" fill="#3A3A3A" enable-background="new    " d="M20,3.583c-9.067,0-16.417,7.35-16.417,16.417
	S10.933,36.417,20,36.417S36.417,29.067,36.417,20S29.067,3.583,20,3.583z M20,34.25c-7.87,0-14.25-6.38-14.25-14.25
	S12.13,5.75,20,5.75S34.25,12.13,34.25,20S27.87,34.25,20,34.25z"/>
<path fill="#3A3A3A" d="M21.197,24.457l-0.339-1.463c0.571,0.138,1.188,0.166,1.849,0.084c0.661-0.081,1.277-0.278,1.85-0.59
	c0.56-0.301,1.03-0.716,1.411-1.247s0.572-1.21,0.572-2.035c0-0.375-0.06-0.728-0.179-1.06c-0.119-0.331-0.292-0.616-0.519-0.853
	c-0.238-0.225-0.527-0.403-0.866-0.535c-0.34-0.131-0.724-0.197-1.152-0.197c-0.501,0-0.959,0.038-1.376,0.112
	c-0.417,0.075-0.84,0.188-1.269,0.338l0.625-7.37h4.592c0.286,0,0.539-0.006,0.76-0.019c0.22-0.013,0.533-0.044,0.938-0.094
	l-0.304,1.894c-0.381-0.037-0.676-0.062-0.884-0.075c-0.209-0.012-0.456-0.019-0.741-0.019h-2.538l-0.321,3.788
	c0.215-0.038,0.435-0.069,0.661-0.094s0.429-0.038,0.607-0.038c0.56,0,1.087,0.087,1.581,0.263c0.494,0.175,0.927,0.425,1.296,0.75
	c0.357,0.35,0.643,0.775,0.857,1.275s0.321,1.069,0.321,1.707c0,1-0.241,1.878-0.724,2.635c-0.482,0.756-1.087,1.378-1.813,1.865
	c-0.727,0.488-1.527,0.819-2.402,0.994C22.814,24.65,21.983,24.645,21.197,24.457z"/>
</svg>
