<?xml version="1.0" encoding="utf-8"?>
<!-- Generator: Adobe Illustrator 17.0.0, SVG Export Plug-In . SVG Version: 6.00 Build 0)  -->
<!DOCTYPE svg PUBLIC "-//W3C//DTD SVG 1.1//EN" "http://www.w3.org/Graphics/SVG/1.1/DTD/svg11.dtd">
<svg version="1.1" id="Layer_1" xmlns="http://www.w3.org/2000/svg" xmlns:xlink="http://www.w3.org/1999/xlink" x="0px" y="0px"
	 width="190px" height="144px" viewBox="0 0 190 144" enable-background="new 0 0 190 144" xml:space="preserve">
<path fill="#60D5D8" d="M155.663,95.359c-0.022,0.011-0.045,0.022-0.067,0.031C155.596,95.391,155.686,95.35,155.663,95.359z"/>
<g id="Layer_2">
	<g>
		<path fill="#1CB6C6" d="M69.221,23.186c6.466,0,12.381,2.249,17.072,5.985c2.778-6.498,6.804-12.463,11.924-17.505
			C90.118,5.63,80.101,2.041,69.221,2.041c-26.867,0-48.624,21.767-48.624,48.638s21.78,48.648,48.651,48.648
			c5.839,0,10.569-4.734,10.569-10.572s-4.733-10.567-10.568-10.567c-15.19,0-27.507-12.314-27.507-27.507
			C41.742,35.487,54.028,23.186,69.221,23.186z"/>
		<path fill="#1CB6C6" d="M125.609,25.264c5.939-2.521,12.27-2.782,18.045-1.183l0.003-0.012c5.632,1.407,11.347-1.988,12.794-7.617
			c1.453-5.655-1.957-11.421-7.609-12.875l-0.004,0.015c-10.154-2.708-21.248-2.183-31.654,2.279
			C92.555,16.522,81.191,45.11,91.808,69.767c10.618,24.657,39.19,36.043,63.855,25.467l-0.035-40.942
			c0-6.973-5.653-12.627-12.627-12.627c-2.233,0-4.33,0.58-6.149,1.597l-16.595,9.932c1.82-1.017,3.917-1.597,6.15-1.597
			c6.218,0,11.596,4.528,11.596,11.173L138,77.916c-10.75,0.709-21.938-5.284-26.771-16.512
			C105.223,47.452,111.659,31.274,125.609,25.264z"/>
	</g>
</g>
<circle fill="#60D5D8" cx="66.626" cy="50.678" r="12.627"/>
<circle fill="#60D5D8" cx="66.626" cy="50.678" r="12.627"/>
<path fill="#60D5D8" d="M115.661,112.48c1.328,0,2.405,1.076,2.405,2.404s-1.078,2.405-2.405,2.405
	c-1.328,0-2.405-1.077-2.405-2.405S114.333,112.48,115.661,112.48z M94.844,112.48c1.328,0,2.405,1.076,2.405,2.404
	s-1.077,2.405-2.405,2.405s-2.404-1.077-2.404-2.405S93.516,112.48,94.844,112.48z M104.73,136.154H84.738v-1.901h19.993
	L104.73,136.154L104.73,136.154z M102.137,121.864l-0.537,9.884h-2.215v-8.475c0-0.373-0.064-0.637-0.189-0.795
	c-0.127-0.156-0.369-0.234-0.728-0.234H87.421v-1.901h13.283c0.567,0,0.955,0.12,1.163,0.358
	C102.076,120.939,102.165,121.327,102.137,121.864z M116.738,133.85c-0.445,0.492-1.312,0.903-2.592,1.231
	c-1.164,0.299-2.678,0.446-4.541,0.446c-1.192,0-2.027-0.06-2.506-0.18c-0.834-0.195-1.25-0.918-1.25-2.175v-6.747h5.881v-3.471
	c0-0.563-0.262-0.846-0.783-0.846h-4.987v-1.899h7.11c0.834,0,1.238,0.425,1.209,1.274l-0.293,6.844h-5.725v4.137
	c0,0.536,0.313,0.842,0.94,0.916c0.7,0.105,1.594,0.143,2.682,0.113c1.134-0.016,2.005-0.09,2.616-0.225
	c0.791-0.179,1.361-0.433,1.711-0.76c0.35-0.328,0.525-0.843,0.525-1.544v-11.067h2.395v5.992h2.459v-5.992h2.46v20.461h-2.46
	v-12.567h-2.459v12.323h-2.395C116.738,140.115,116.738,133.85,116.738,133.85z M144.982,136.131h-19.991v-1.9h19.993v1.9H144.982z
	 M142.747,130.742h-15.542v-1.901h2.906c-0.104-0.969-0.156-2.034-0.156-3.198V122.2h-2.997v-1.901h16.034v1.901h-2.975v3.443
	c0,1.118-0.053,2.185-0.156,3.198h2.885L142.747,130.742L142.747,130.742z M132.438,128.841h5.101
	c0.015-0.462,0.022-1.102,0.022-1.923v-4.72h-5.144v4.72C132.415,127.739,132.423,128.379,132.438,128.841z M134.669,112.48
	c1.328,0,2.405,1.076,2.405,2.404s-1.077,2.405-2.405,2.405s-2.405-1.077-2.405-2.405S133.341,112.48,134.669,112.48z M56.275,126
	c0,1.884-0.571,3.371-1.714,4.462s-2.678,1.636-4.606,1.636c-1.929,0-3.465-0.545-4.607-1.636c-1.143-1.091-1.714-2.578-1.714-4.462
	c0-1.87,0.575-3.354,1.725-4.451c1.149-1.098,2.682-1.646,4.596-1.646c1.928,0,3.464,0.549,4.606,1.646S56.275,124.13,56.275,126z
	 M53.827,126c0-1.291-0.356-2.314-1.068-3.071c-0.712-0.757-1.646-1.135-2.804-1.135s-2.092,0.378-2.804,1.135
	c-0.712,0.757-1.068,1.78-1.068,3.071s0.356,2.314,1.068,3.071c0.712,0.756,1.647,1.135,2.804,1.135s2.092-0.379,2.804-1.135
	C53.471,128.314,53.827,127.291,53.827,126z M62.106,140.176h-2.47v-20.363h2.47V140.176z M77.217,133.41l-1.357,1.67
	c-0.95-0.505-1.929-1.336-2.938-2.493c-1.083-1.216-1.817-2.396-2.203-3.538c-0.356,1.201-1.023,2.381-2.003,3.538
	c-0.95,1.099-2.003,1.974-3.16,2.626l-1.446-1.669c1.899-1.32,3.249-2.789,4.05-4.406c0.771-1.572,1.157-3.531,1.157-5.875v-1.225
	h-4.473v-1.892h11.595v1.892h-4.496v1.227C71.943,127.65,73.701,131.032,77.217,133.41z M82.425,140.176h-2.47v-20.363h2.47V140.176
	z"/>
</svg>
