<?xml version="1.0" encoding="utf-8"?>
<!-- Generator: Adobe Illustrator 17.0.0, SVG Export Plug-In . SVG Version: 6.00 Build 0)  -->
<!DOCTYPE svg PUBLIC "-//W3C//DTD SVG 1.1//EN" "http://www.w3.org/Graphics/SVG/1.1/DTD/svg11.dtd">
<svg version="1.1" id="Layer_2" xmlns="http://www.w3.org/2000/svg" xmlns:xlink="http://www.w3.org/1999/xlink" x="0px" y="0px"
	 width="55px" height="40px" viewBox="0 0 55 40" enable-background="new 0 0 55 40" xml:space="preserve">
<path fill="#FFFFFF" d="M20.092,15.353c2.246,0,4.066,1.82,4.066,4.066c0,2.244-1.82,4.066-4.066,4.066
	c-2.245,0-4.065-1.822-4.065-4.066C16.027,17.173,17.847,15.353,20.092,15.353z"/>
<g>
	<path fill="#FFFFFF" d="M20.928,10.566c2.082,0,3.987,0.724,5.498,1.928c0.895-2.093,2.191-4.014,3.839-5.638
		c-2.607-1.943-5.833-3.099-9.337-3.099c-8.651,0-15.658,7.009-15.658,15.662s7.014,15.665,15.667,15.665
		c1.88,0,3.403-1.524,3.403-3.404c0-1.879-1.524-3.402-3.403-3.402c-4.892,0-8.858-3.966-8.858-8.858
		C12.079,14.527,16.035,10.566,20.928,10.566z"/>
	<path fill="#FFFFFF" d="M39.085,11.276c1.914-0.813,3.952-0.896,5.813-0.381V10.89c1.814,0.453,3.654-0.641,4.119-2.452
		c0.469-1.821-0.629-3.678-2.449-4.146l-0.002,0.006c-3.27-0.872-6.843-0.704-10.193,0.733c-7.931,3.43-11.59,12.635-8.171,20.576
		c3.418,7.939,12.62,11.605,20.563,8.2l-0.011-13.184c0-2.246-1.821-4.066-4.065-4.066c-0.721,0-1.396,0.187-1.981,0.514
		l-5.344,3.199c0.586-0.328,1.261-0.515,1.981-0.515c2.156,0,3.595,1.563,3.595,3.73l-0.001,4.744
		c-3.719,0.346-6.926-1.701-8.482-5.317C32.521,18.42,34.595,13.21,39.085,11.276z"/>
</g>
</svg>
