<?xml version="1.0" encoding="utf-8"?>
<!-- Generator: Adobe Illustrator 17.0.0, SVG Export Plug-In . SVG Version: 6.00 Build 0)  -->
<!DOCTYPE svg PUBLIC "-//W3C//DTD SVG 1.1//EN" "http://www.w3.org/Graphics/SVG/1.1/DTD/svg11.dtd">
<svg version="1.1" id="Layer_1" xmlns="http://www.w3.org/2000/svg" xmlns:xlink="http://www.w3.org/1999/xlink" x="0px" y="0px"
	 width="40px" height="40px" viewBox="0 0 40 40" enable-background="new 0 0 40 40" xml:space="preserve">
<path fill="#FFFFFF" d="M16.125,16.616c-3.629,0-6.571,2.943-6.571,6.571c0,3.629,2.943,6.571,6.571,6.571s6.571-2.943,6.571-6.571
	S19.754,16.616,16.125,16.616z M16.125,25.207c-1.115,0-2.018-0.904-2.018-2.018c0-1.114,0.904-2.018,2.018-2.018
	c1.114,0,2.018,0.904,2.018,2.018C18.143,24.302,17.24,25.207,16.125,25.207z"/>
<polygon fill="#FFFFFF" points="30.094,13.278 25.503,13.278 25.503,8.688 23.685,8.688 23.685,13.278 19.094,13.278 19.094,15.097 
	23.685,15.097 23.685,19.688 25.503,19.688 25.503,15.097 30.094,15.097 "/>
<path opacity="0.6" fill="#FFFFFF" enable-background="new    " d="M20,3.583c-9.067,0-16.417,7.35-16.417,16.417
	S10.933,36.417,20,36.417S36.417,29.067,36.417,20S29.067,3.583,20,3.583z M20,34.25c-7.87,0-14.25-6.38-14.25-14.25
	S12.13,5.75,20,5.75S34.25,12.13,34.25,20S27.87,34.25,20,34.25z"/>
</svg>
