<?xml version="1.0" encoding="utf-8"?>
<!-- Generator: Adobe Illustrator 17.0.0, SVG Export Plug-In . SVG Version: 6.00 Build 0)  -->
<!DOCTYPE svg PUBLIC "-//W3C//DTD SVG 1.1//EN" "http://www.w3.org/Graphics/SVG/1.1/DTD/svg11.dtd">
<svg version="1.1" id="Layer_1" xmlns="http://www.w3.org/2000/svg" xmlns:xlink="http://www.w3.org/1999/xlink" x="0px" y="0px"
	 width="40px" height="40px" viewBox="0 0 40 40" enable-background="new 0 0 40 40" xml:space="preserve">
<path opacity="0.6" fill="#FFFFFF" enable-background="new    " d="M20,3.583c-9.067,0-16.417,7.35-16.417,16.417
	S10.933,36.417,20,36.417S36.417,29.067,36.417,20S29.067,3.583,20,3.583z M20,34.25c-7.87,0-14.25-6.38-14.25-14.25
	S12.13,5.75,20,5.75S34.25,12.13,34.25,20S27.87,34.25,20,34.25z"/>
<path fill="#FFFFFF" d="M16.344,16.107c0,0.526-0.445,0.952-0.995,0.952h-2.761c-0.549,0-0.995-0.426-0.995-0.952v-1.765
	c0-0.526,0.445-0.952,0.995-0.952h2.761c0.549,0,0.995,0.426,0.995,0.952V16.107z"/>
<path fill="#FFFFFF" d="M22.344,16.107c0,0.526-0.445,0.952-0.995,0.952h-2.761c-0.549,0-0.995-0.426-0.995-0.952v-1.765
	c0-0.526,0.445-0.952,0.995-0.952h2.761c0.549,0,0.995,0.426,0.995,0.952V16.107z"/>
<path fill="#FFFFFF" d="M28.344,16.107c0,0.526-0.445,0.952-0.995,0.952h-2.761c-0.549,0-0.995-0.426-0.995-0.952v-1.765
	c0-0.526,0.445-0.952,0.995-0.952h2.761c0.549,0,0.995,0.426,0.995,0.952V16.107z"/>
<path fill="#FFFFFF" d="M16.344,20.893c0,0.526-0.445,0.952-0.995,0.952h-2.761c-0.549,0-0.995-0.426-0.995-0.952v-1.765
	c0-0.526,0.445-0.952,0.995-0.952h2.761c0.549,0,0.995,0.426,0.995,0.952V20.893z"/>
<path fill="#FFFFFF" d="M22.344,20.893c0,0.526-0.445,0.952-0.995,0.952h-2.761c-0.549,0-0.995-0.426-0.995-0.952v-1.765
	c0-0.526,0.445-0.952,0.995-0.952h2.761c0.549,0,0.995,0.426,0.995,0.952V20.893z"/>
<path fill="#FFFFFF" d="M28.344,20.893c0,0.526-0.445,0.952-0.995,0.952h-2.761c-0.549,0-0.995-0.426-0.995-0.952v-1.765
	c0-0.526,0.445-0.952,0.995-0.952h2.761c0.549,0,0.995,0.426,0.995,0.952V20.893z"/>
<path fill="#FFFFFF" d="M16.344,25.679c0,0.526-0.445,0.952-0.995,0.952h-2.761c-0.549,0-0.995-0.426-0.995-0.952v-1.765
	c0-0.526,0.445-0.952,0.995-0.952h2.761c0.549,0,0.995,0.426,0.995,0.952V25.679z"/>
<path fill="#FFFFFF" d="M22.344,25.679c0,0.526-0.445,0.952-0.995,0.952h-2.761c-0.549,0-0.995-0.426-0.995-0.952v-1.765
	c0-0.526,0.445-0.952,0.995-0.952h2.761c0.549,0,0.995,0.426,0.995,0.952V25.679z"/>
<path fill="#FFFFFF" d="M28.344,25.679c0,0.526-0.445,0.952-0.995,0.952h-2.761c-0.549,0-0.995-0.426-0.995-0.952v-1.765
	c0-0.526,0.445-0.952,0.995-0.952h2.761c0.549,0,0.995,0.426,0.995,0.952V25.679z"/>
</svg>
