<?xml version="1.0" encoding="utf-8"?>
<!-- Generator: Adobe Illustrator 17.0.0, SVG Export Plug-In . SVG Version: 6.00 Build 0)  -->
<!DOCTYPE svg PUBLIC "-//W3C//DTD SVG 1.1//EN" "http://www.w3.org/Graphics/SVG/1.1/DTD/svg11.dtd">
<svg version="1.1" id="Layer_1" xmlns="http://www.w3.org/2000/svg" xmlns:xlink="http://www.w3.org/1999/xlink" x="0px" y="0px"
	 width="40px" height="40px" viewBox="0 0 40 40" enable-background="new 0 0 40 40" xml:space="preserve">
<path opacity="0.6" fill="#FFFFFF" enable-background="new    " d="M20,3.583c-9.067,0-16.417,7.35-16.417,16.417
	S10.933,36.417,20,36.417S36.417,29.067,36.417,20S29.067,3.583,20,3.583z M20,34.25c-7.87,0-14.25-6.38-14.25-14.25
	S12.13,5.75,20,5.75S34.25,12.13,34.25,20S27.87,34.25,20,34.25z"/>
<path fill="#FFFFFF" enable-background="new    " d="M19.974,23.173l-3.409-3.406l2.466-2.466c-0.877-0.434-1.862-0.685-2.907-0.685
	c-3.629,0-6.571,2.943-6.571,6.571c0,3.629,2.943,6.571,6.571,6.571s6.571-2.943,6.571-6.571c0-0.814-0.155-1.591-0.426-2.31
	L19.974,23.173z M16.125,25.207c-1.115,0-2.018-0.904-2.018-2.018c0-1.114,0.904-2.018,2.018-2.018s2.018,0.904,2.018,2.018
	C18.143,24.302,17.24,25.207,16.125,25.207z"/>
<polygon fill="#FFFFFF" points="29.166,19.765 25.212,15.812 29.166,11.859 27.881,10.574 23.927,14.527 19.974,10.573 
	18.688,11.859 22.642,15.813 18.688,19.766 19.974,21.051 23.927,17.098 27.88,21.051 "/>
</svg>
