<?xml version="1.0" encoding="utf-8"?>
<!-- Generator: Adobe Illustrator 17.0.0, SVG Export Plug-In . SVG Version: 6.00 Build 0)  -->
<!DOCTYPE svg PUBLIC "-//W3C//DTD SVG 1.1//EN" "http://www.w3.org/Graphics/SVG/1.1/DTD/svg11.dtd">
<svg version="1.1" id="Layer_1" xmlns="http://www.w3.org/2000/svg" xmlns:xlink="http://www.w3.org/1999/xlink" x="0px" y="0px"
	 width="40px" height="40px" viewBox="0 0 40 40" enable-background="new 0 0 40 40" xml:space="preserve">
<path opacity="0.6" fill="#FFFFFF" d="M16.125,16.616c-3.629,0-6.571,2.943-6.571,6.571c0,3.629,2.943,6.571,6.571,6.571
	s6.571-2.943,6.571-6.571S19.754,16.616,16.125,16.616z M16.125,25.207c-1.115,0-2.018-0.904-2.018-2.018
	c0-1.114,0.904-2.018,2.018-2.018c1.114,0,2.018,0.904,2.018,2.018C18.143,24.302,17.24,25.207,16.125,25.207z"/>
<polygon opacity="0.6" fill="#FFFFFF" points="30.094,13.278 25.503,13.278 25.503,8.688 23.685,8.688 23.685,13.278 19.094,13.278 
	19.094,15.097 23.685,15.097 23.685,19.688 25.503,19.688 25.503,15.097 30.094,15.097 "/>
</svg>
